<?xml version="1.0" encoding="utf-8" standalone="no"?>
<!DOCTYPE svg PUBLIC "-//W3C//DTD SVG 1.1//EN"
  "http://www.w3.org/Graphics/SVG/1.1/DTD/svg11.dtd">
<svg xmlns:xlink="http://www.w3.org/1999/xlink" width="648pt" height="360pt" viewBox="0 0 648 360" xmlns="http://www.w3.org/2000/svg" version="1.1">
 <metadata>
  <rdf:RDF xmlns:dc="http://purl.org/dc/elements/1.1/" xmlns:cc="http://creativecommons.org/ns#" xmlns:rdf="http://www.w3.org/1999/02/22-rdf-syntax-ns#">
   <cc:Work>
    <dc:type rdf:resource="http://purl.org/dc/dcmitype/StillImage"/>
    <dc:date>2025-10-30T20:50:26.715418</dc:date>
    <dc:format>image/svg+xml</dc:format>
    <dc:creator>
     <cc:Agent>
      <dc:title>Matplotlib v3.10.6, https://matplotlib.org/</dc:title>
     </cc:Agent>
    </dc:creator>
   </cc:Work>
  </rdf:RDF>
 </metadata>
 <defs>
  <style type="text/css">*{stroke-linejoin: round; stroke-linecap: butt}</style>
 </defs>
 <g id="figure_1">
  <g id="patch_1">
   <path d="M 0 360 
L 648 360 
L 648 0 
L 0 0 
z
" style="fill: #ffffff"/>
  </g>
  <g id="axes_1">
   <g id="patch_2">
    <path d="M 81 320.4 
L 583.2 320.4 
L 583.2 43.2 
L 81 43.2 
z
" style="fill: #ffffff"/>
   </g>
   <g id="matplotlib.axis_1">
    <g id="xtick_1">
     <g id="line2d_1">
      <path d="M 103.37027 320.4 
L 103.37027 43.2 
" clip-path="url(#peaba3540aa)" style="fill: none; stroke: #b0b0b0; stroke-width: 0.8; stroke-linecap: square"/>
     </g>
     <g id="line2d_2">
      <defs>
       <path id="m1687e922f4" d="M 0 0 
L 0 3.5 
" style="stroke: #000000; stroke-width: 0.8"/>
      </defs>
      <g>
       <use xlink:href="#m1687e922f4" x="103.37027" y="320.4" style="stroke: #000000; stroke-width: 0.8"/>
      </g>
     </g>
     <g id="text_1">
      <!-- 0 -->
      <g transform="translate(100.18902 334.998438) scale(0.1 -0.1)">
       <defs>
        <path id="DejaVuSans-30" d="M 2034 4250 
Q 1547 4250 1301 3770 
Q 1056 3291 1056 2328 
Q 1056 1369 1301 889 
Q 1547 409 2034 409 
Q 2525 409 2770 889 
Q 3016 1369 3016 2328 
Q 3016 3291 2770 3770 
Q 2525 4250 2034 4250 
z
M 2034 4750 
Q 2819 4750 3233 4129 
Q 3647 3509 3647 2328 
Q 3647 1150 3233 529 
Q 2819 -91 2034 -91 
Q 1250 -91 836 529 
Q 422 1150 422 2328 
Q 422 3509 836 4129 
Q 1250 4750 2034 4750 
z
" transform="scale(0.015625)"/>
       </defs>
       <use xlink:href="#DejaVuSans-30"/>
      </g>
     </g>
    </g>
    <g id="xtick_2">
     <g id="line2d_3">
      <path d="M 194.770762 320.4 
L 194.770762 43.2 
" clip-path="url(#peaba3540aa)" style="fill: none; stroke: #b0b0b0; stroke-width: 0.8; stroke-linecap: square"/>
     </g>
     <g id="line2d_4">
      <g>
       <use xlink:href="#m1687e922f4" x="194.770762" y="320.4" style="stroke: #000000; stroke-width: 0.8"/>
      </g>
     </g>
     <g id="text_2">
      <!-- 200 -->
      <g transform="translate(185.227012 334.998438) scale(0.1 -0.1)">
       <defs>
        <path id="DejaVuSans-32" d="M 1228 531 
L 3431 531 
L 3431 0 
L 469 0 
L 469 531 
Q 828 903 1448 1529 
Q 2069 2156 2228 2338 
Q 2531 2678 2651 2914 
Q 2772 3150 2772 3378 
Q 2772 3750 2511 3984 
Q 2250 4219 1831 4219 
Q 1534 4219 1204 4116 
Q 875 4013 500 3803 
L 500 4441 
Q 881 4594 1212 4672 
Q 1544 4750 1819 4750 
Q 2544 4750 2975 4387 
Q 3406 4025 3406 3419 
Q 3406 3131 3298 2873 
Q 3191 2616 2906 2266 
Q 2828 2175 2409 1742 
Q 1991 1309 1228 531 
z
" transform="scale(0.015625)"/>
       </defs>
       <use xlink:href="#DejaVuSans-32"/>
       <use xlink:href="#DejaVuSans-30" transform="translate(63.623047 0)"/>
       <use xlink:href="#DejaVuSans-30" transform="translate(127.246094 0)"/>
      </g>
     </g>
    </g>
    <g id="xtick_3">
     <g id="line2d_5">
      <path d="M 286.171253 320.4 
L 286.171253 43.2 
" clip-path="url(#peaba3540aa)" style="fill: none; stroke: #b0b0b0; stroke-width: 0.8; stroke-linecap: square"/>
     </g>
     <g id="line2d_6">
      <g>
       <use xlink:href="#m1687e922f4" x="286.171253" y="320.4" style="stroke: #000000; stroke-width: 0.8"/>
      </g>
     </g>
     <g id="text_3">
      <!-- 400 -->
      <g transform="translate(276.627503 334.998438) scale(0.1 -0.1)">
       <defs>
        <path id="DejaVuSans-34" d="M 2419 4116 
L 825 1625 
L 2419 1625 
L 2419 4116 
z
M 2253 4666 
L 3047 4666 
L 3047 1625 
L 3713 1625 
L 3713 1100 
L 3047 1100 
L 3047 0 
L 2419 0 
L 2419 1100 
L 313 1100 
L 313 1709 
L 2253 4666 
z
" transform="scale(0.015625)"/>
       </defs>
       <use xlink:href="#DejaVuSans-34"/>
       <use xlink:href="#DejaVuSans-30" transform="translate(63.623047 0)"/>
       <use xlink:href="#DejaVuSans-30" transform="translate(127.246094 0)"/>
      </g>
     </g>
    </g>
    <g id="xtick_4">
     <g id="line2d_7">
      <path d="M 377.571744 320.4 
L 377.571744 43.2 
" clip-path="url(#peaba3540aa)" style="fill: none; stroke: #b0b0b0; stroke-width: 0.8; stroke-linecap: square"/>
     </g>
     <g id="line2d_8">
      <g>
       <use xlink:href="#m1687e922f4" x="377.571744" y="320.4" style="stroke: #000000; stroke-width: 0.8"/>
      </g>
     </g>
     <g id="text_4">
      <!-- 600 -->
      <g transform="translate(368.027994 334.998438) scale(0.1 -0.1)">
       <defs>
        <path id="DejaVuSans-36" d="M 2113 2584 
Q 1688 2584 1439 2293 
Q 1191 2003 1191 1497 
Q 1191 994 1439 701 
Q 1688 409 2113 409 
Q 2538 409 2786 701 
Q 3034 994 3034 1497 
Q 3034 2003 2786 2293 
Q 2538 2584 2113 2584 
z
M 3366 4563 
L 3366 3988 
Q 3128 4100 2886 4159 
Q 2644 4219 2406 4219 
Q 1781 4219 1451 3797 
Q 1122 3375 1075 2522 
Q 1259 2794 1537 2939 
Q 1816 3084 2150 3084 
Q 2853 3084 3261 2657 
Q 3669 2231 3669 1497 
Q 3669 778 3244 343 
Q 2819 -91 2113 -91 
Q 1303 -91 875 529 
Q 447 1150 447 2328 
Q 447 3434 972 4092 
Q 1497 4750 2381 4750 
Q 2619 4750 2861 4703 
Q 3103 4656 3366 4563 
z
" transform="scale(0.015625)"/>
       </defs>
       <use xlink:href="#DejaVuSans-36"/>
       <use xlink:href="#DejaVuSans-30" transform="translate(63.623047 0)"/>
       <use xlink:href="#DejaVuSans-30" transform="translate(127.246094 0)"/>
      </g>
     </g>
    </g>
    <g id="xtick_5">
     <g id="line2d_9">
      <path d="M 468.972236 320.4 
L 468.972236 43.2 
" clip-path="url(#peaba3540aa)" style="fill: none; stroke: #b0b0b0; stroke-width: 0.8; stroke-linecap: square"/>
     </g>
     <g id="line2d_10">
      <g>
       <use xlink:href="#m1687e922f4" x="468.972236" y="320.4" style="stroke: #000000; stroke-width: 0.8"/>
      </g>
     </g>
     <g id="text_5">
      <!-- 800 -->
      <g transform="translate(459.428486 334.998438) scale(0.1 -0.1)">
       <defs>
        <path id="DejaVuSans-38" d="M 2034 2216 
Q 1584 2216 1326 1975 
Q 1069 1734 1069 1313 
Q 1069 891 1326 650 
Q 1584 409 2034 409 
Q 2484 409 2743 651 
Q 3003 894 3003 1313 
Q 3003 1734 2745 1975 
Q 2488 2216 2034 2216 
z
M 1403 2484 
Q 997 2584 770 2862 
Q 544 3141 544 3541 
Q 544 4100 942 4425 
Q 1341 4750 2034 4750 
Q 2731 4750 3128 4425 
Q 3525 4100 3525 3541 
Q 3525 3141 3298 2862 
Q 3072 2584 2669 2484 
Q 3125 2378 3379 2068 
Q 3634 1759 3634 1313 
Q 3634 634 3220 271 
Q 2806 -91 2034 -91 
Q 1263 -91 848 271 
Q 434 634 434 1313 
Q 434 1759 690 2068 
Q 947 2378 1403 2484 
z
M 1172 3481 
Q 1172 3119 1398 2916 
Q 1625 2713 2034 2713 
Q 2441 2713 2670 2916 
Q 2900 3119 2900 3481 
Q 2900 3844 2670 4047 
Q 2441 4250 2034 4250 
Q 1625 4250 1398 4047 
Q 1172 3844 1172 3481 
z
" transform="scale(0.015625)"/>
       </defs>
       <use xlink:href="#DejaVuSans-38"/>
       <use xlink:href="#DejaVuSans-30" transform="translate(63.623047 0)"/>
       <use xlink:href="#DejaVuSans-30" transform="translate(127.246094 0)"/>
      </g>
     </g>
    </g>
    <g id="xtick_6">
     <g id="line2d_11">
      <path d="M 560.372727 320.4 
L 560.372727 43.2 
" clip-path="url(#peaba3540aa)" style="fill: none; stroke: #b0b0b0; stroke-width: 0.8; stroke-linecap: square"/>
     </g>
     <g id="line2d_12">
      <g>
       <use xlink:href="#m1687e922f4" x="560.372727" y="320.4" style="stroke: #000000; stroke-width: 0.8"/>
      </g>
     </g>
     <g id="text_6">
      <!-- 1000 -->
      <g transform="translate(547.647727 334.998438) scale(0.1 -0.1)">
       <defs>
        <path id="DejaVuSans-31" d="M 794 531 
L 1825 531 
L 1825 4091 
L 703 3866 
L 703 4441 
L 1819 4666 
L 2450 4666 
L 2450 531 
L 3481 531 
L 3481 0 
L 794 0 
L 794 531 
z
" transform="scale(0.015625)"/>
       </defs>
       <use xlink:href="#DejaVuSans-31"/>
       <use xlink:href="#DejaVuSans-30" transform="translate(63.623047 0)"/>
       <use xlink:href="#DejaVuSans-30" transform="translate(127.246094 0)"/>
       <use xlink:href="#DejaVuSans-30" transform="translate(190.869141 0)"/>
      </g>
     </g>
    </g>
    <g id="text_7">
     <!-- Time -->
     <g transform="translate(319.866406 348.676562) scale(0.1 -0.1)">
      <defs>
       <path id="DejaVuSans-54" d="M -19 4666 
L 3928 4666 
L 3928 4134 
L 2272 4134 
L 2272 0 
L 1638 0 
L 1638 4134 
L -19 4134 
L -19 4666 
z
" transform="scale(0.015625)"/>
       <path id="DejaVuSans-69" d="M 603 3500 
L 1178 3500 
L 1178 0 
L 603 0 
L 603 3500 
z
M 603 4863 
L 1178 4863 
L 1178 4134 
L 603 4134 
L 603 4863 
z
" transform="scale(0.015625)"/>
       <path id="DejaVuSans-6d" d="M 3328 2828 
Q 3544 3216 3844 3400 
Q 4144 3584 4550 3584 
Q 5097 3584 5394 3201 
Q 5691 2819 5691 2113 
L 5691 0 
L 5113 0 
L 5113 2094 
Q 5113 2597 4934 2840 
Q 4756 3084 4391 3084 
Q 3944 3084 3684 2787 
Q 3425 2491 3425 1978 
L 3425 0 
L 2847 0 
L 2847 2094 
Q 2847 2600 2669 2842 
Q 2491 3084 2119 3084 
Q 1678 3084 1418 2786 
Q 1159 2488 1159 1978 
L 1159 0 
L 581 0 
L 581 3500 
L 1159 3500 
L 1159 2956 
Q 1356 3278 1631 3431 
Q 1906 3584 2284 3584 
Q 2666 3584 2933 3390 
Q 3200 3197 3328 2828 
z
" transform="scale(0.015625)"/>
       <path id="DejaVuSans-65" d="M 3597 1894 
L 3597 1613 
L 953 1613 
Q 991 1019 1311 708 
Q 1631 397 2203 397 
Q 2534 397 2845 478 
Q 3156 559 3463 722 
L 3463 178 
Q 3153 47 2828 -22 
Q 2503 -91 2169 -91 
Q 1331 -91 842 396 
Q 353 884 353 1716 
Q 353 2575 817 3079 
Q 1281 3584 2069 3584 
Q 2775 3584 3186 3129 
Q 3597 2675 3597 1894 
z
M 3022 2063 
Q 3016 2534 2758 2815 
Q 2500 3097 2075 3097 
Q 1594 3097 1305 2825 
Q 1016 2553 972 2059 
L 3022 2063 
z
" transform="scale(0.015625)"/>
      </defs>
      <use xlink:href="#DejaVuSans-54"/>
      <use xlink:href="#DejaVuSans-69" transform="translate(57.958984 0)"/>
      <use xlink:href="#DejaVuSans-6d" transform="translate(85.742188 0)"/>
      <use xlink:href="#DejaVuSans-65" transform="translate(183.154297 0)"/>
     </g>
    </g>
   </g>
   <g id="matplotlib.axis_2">
    <g id="ytick_1">
     <g id="line2d_13">
      <path d="M 81 307.8 
L 583.2 307.8 
" clip-path="url(#peaba3540aa)" style="fill: none; stroke: #b0b0b0; stroke-width: 0.8; stroke-linecap: square"/>
     </g>
     <g id="line2d_14">
      <defs>
       <path id="m245c20dda5" d="M 0 0 
L -3.5 0 
" style="stroke: #000000; stroke-width: 0.8"/>
      </defs>
      <g>
       <use xlink:href="#m245c20dda5" x="81" y="307.8" style="stroke: #000000; stroke-width: 0.8"/>
      </g>
     </g>
     <g id="text_8">
      <!-- 0.00000 -->
      <g transform="translate(32.646875 311.599219) scale(0.1 -0.1)">
       <defs>
        <path id="DejaVuSans-2e" d="M 684 794 
L 1344 794 
L 1344 0 
L 684 0 
L 684 794 
z
" transform="scale(0.015625)"/>
       </defs>
       <use xlink:href="#DejaVuSans-30"/>
       <use xlink:href="#DejaVuSans-2e" transform="translate(63.623047 0)"/>
       <use xlink:href="#DejaVuSans-30" transform="translate(95.410156 0)"/>
       <use xlink:href="#DejaVuSans-30" transform="translate(159.033203 0)"/>
       <use xlink:href="#DejaVuSans-30" transform="translate(222.65625 0)"/>
       <use xlink:href="#DejaVuSans-30" transform="translate(286.279297 0)"/>
       <use xlink:href="#DejaVuSans-30" transform="translate(349.902344 0)"/>
      </g>
     </g>
    </g>
    <g id="ytick_2">
     <g id="line2d_15">
      <path d="M 81 272.693841 
L 583.2 272.693841 
" clip-path="url(#peaba3540aa)" style="fill: none; stroke: #b0b0b0; stroke-width: 0.8; stroke-linecap: square"/>
     </g>
     <g id="line2d_16">
      <g>
       <use xlink:href="#m245c20dda5" x="81" y="272.693841" style="stroke: #000000; stroke-width: 0.8"/>
      </g>
     </g>
     <g id="text_9">
      <!-- 0.00025 -->
      <g transform="translate(32.646875 276.49306) scale(0.1 -0.1)">
       <defs>
        <path id="DejaVuSans-35" d="M 691 4666 
L 3169 4666 
L 3169 4134 
L 1269 4134 
L 1269 2991 
Q 1406 3038 1543 3061 
Q 1681 3084 1819 3084 
Q 2600 3084 3056 2656 
Q 3513 2228 3513 1497 
Q 3513 744 3044 326 
Q 2575 -91 1722 -91 
Q 1428 -91 1123 -41 
Q 819 9 494 109 
L 494 744 
Q 775 591 1075 516 
Q 1375 441 1709 441 
Q 2250 441 2565 725 
Q 2881 1009 2881 1497 
Q 2881 1984 2565 2268 
Q 2250 2553 1709 2553 
Q 1456 2553 1204 2497 
Q 953 2441 691 2322 
L 691 4666 
z
" transform="scale(0.015625)"/>
       </defs>
       <use xlink:href="#DejaVuSans-30"/>
       <use xlink:href="#DejaVuSans-2e" transform="translate(63.623047 0)"/>
       <use xlink:href="#DejaVuSans-30" transform="translate(95.410156 0)"/>
       <use xlink:href="#DejaVuSans-30" transform="translate(159.033203 0)"/>
       <use xlink:href="#DejaVuSans-30" transform="translate(222.65625 0)"/>
       <use xlink:href="#DejaVuSans-32" transform="translate(286.279297 0)"/>
       <use xlink:href="#DejaVuSans-35" transform="translate(349.902344 0)"/>
      </g>
     </g>
    </g>
    <g id="ytick_3">
     <g id="line2d_17">
      <path d="M 81 237.587682 
L 583.2 237.587682 
" clip-path="url(#peaba3540aa)" style="fill: none; stroke: #b0b0b0; stroke-width: 0.8; stroke-linecap: square"/>
     </g>
     <g id="line2d_18">
      <g>
       <use xlink:href="#m245c20dda5" x="81" y="237.587682" style="stroke: #000000; stroke-width: 0.8"/>
      </g>
     </g>
     <g id="text_10">
      <!-- 0.00050 -->
      <g transform="translate(32.646875 241.386901) scale(0.1 -0.1)">
       <use xlink:href="#DejaVuSans-30"/>
       <use xlink:href="#DejaVuSans-2e" transform="translate(63.623047 0)"/>
       <use xlink:href="#DejaVuSans-30" transform="translate(95.410156 0)"/>
       <use xlink:href="#DejaVuSans-30" transform="translate(159.033203 0)"/>
       <use xlink:href="#DejaVuSans-30" transform="translate(222.65625 0)"/>
       <use xlink:href="#DejaVuSans-35" transform="translate(286.279297 0)"/>
       <use xlink:href="#DejaVuSans-30" transform="translate(349.902344 0)"/>
      </g>
     </g>
    </g>
    <g id="ytick_4">
     <g id="line2d_19">
      <path d="M 81 202.481523 
L 583.2 202.481523 
" clip-path="url(#peaba3540aa)" style="fill: none; stroke: #b0b0b0; stroke-width: 0.8; stroke-linecap: square"/>
     </g>
     <g id="line2d_20">
      <g>
       <use xlink:href="#m245c20dda5" x="81" y="202.481523" style="stroke: #000000; stroke-width: 0.8"/>
      </g>
     </g>
     <g id="text_11">
      <!-- 0.00075 -->
      <g transform="translate(32.646875 206.280742) scale(0.1 -0.1)">
       <defs>
        <path id="DejaVuSans-37" d="M 525 4666 
L 3525 4666 
L 3525 4397 
L 1831 0 
L 1172 0 
L 2766 4134 
L 525 4134 
L 525 4666 
z
" transform="scale(0.015625)"/>
       </defs>
       <use xlink:href="#DejaVuSans-30"/>
       <use xlink:href="#DejaVuSans-2e" transform="translate(63.623047 0)"/>
       <use xlink:href="#DejaVuSans-30" transform="translate(95.410156 0)"/>
       <use xlink:href="#DejaVuSans-30" transform="translate(159.033203 0)"/>
       <use xlink:href="#DejaVuSans-30" transform="translate(222.65625 0)"/>
       <use xlink:href="#DejaVuSans-37" transform="translate(286.279297 0)"/>
       <use xlink:href="#DejaVuSans-35" transform="translate(349.902344 0)"/>
      </g>
     </g>
    </g>
    <g id="ytick_5">
     <g id="line2d_21">
      <path d="M 81 167.375364 
L 583.2 167.375364 
" clip-path="url(#peaba3540aa)" style="fill: none; stroke: #b0b0b0; stroke-width: 0.8; stroke-linecap: square"/>
     </g>
     <g id="line2d_22">
      <g>
       <use xlink:href="#m245c20dda5" x="81" y="167.375364" style="stroke: #000000; stroke-width: 0.8"/>
      </g>
     </g>
     <g id="text_12">
      <!-- 0.00100 -->
      <g transform="translate(32.646875 171.174583) scale(0.1 -0.1)">
       <use xlink:href="#DejaVuSans-30"/>
       <use xlink:href="#DejaVuSans-2e" transform="translate(63.623047 0)"/>
       <use xlink:href="#DejaVuSans-30" transform="translate(95.410156 0)"/>
       <use xlink:href="#DejaVuSans-30" transform="translate(159.033203 0)"/>
       <use xlink:href="#DejaVuSans-31" transform="translate(222.65625 0)"/>
       <use xlink:href="#DejaVuSans-30" transform="translate(286.279297 0)"/>
       <use xlink:href="#DejaVuSans-30" transform="translate(349.902344 0)"/>
      </g>
     </g>
    </g>
    <g id="ytick_6">
     <g id="line2d_23">
      <path d="M 81 132.269205 
L 583.2 132.269205 
" clip-path="url(#peaba3540aa)" style="fill: none; stroke: #b0b0b0; stroke-width: 0.8; stroke-linecap: square"/>
     </g>
     <g id="line2d_24">
      <g>
       <use xlink:href="#m245c20dda5" x="81" y="132.269205" style="stroke: #000000; stroke-width: 0.8"/>
      </g>
     </g>
     <g id="text_13">
      <!-- 0.00125 -->
      <g transform="translate(32.646875 136.068424) scale(0.1 -0.1)">
       <use xlink:href="#DejaVuSans-30"/>
       <use xlink:href="#DejaVuSans-2e" transform="translate(63.623047 0)"/>
       <use xlink:href="#DejaVuSans-30" transform="translate(95.410156 0)"/>
       <use xlink:href="#DejaVuSans-30" transform="translate(159.033203 0)"/>
       <use xlink:href="#DejaVuSans-31" transform="translate(222.65625 0)"/>
       <use xlink:href="#DejaVuSans-32" transform="translate(286.279297 0)"/>
       <use xlink:href="#DejaVuSans-35" transform="translate(349.902344 0)"/>
      </g>
     </g>
    </g>
    <g id="ytick_7">
     <g id="line2d_25">
      <path d="M 81 97.163046 
L 583.2 97.163046 
" clip-path="url(#peaba3540aa)" style="fill: none; stroke: #b0b0b0; stroke-width: 0.8; stroke-linecap: square"/>
     </g>
     <g id="line2d_26">
      <g>
       <use xlink:href="#m245c20dda5" x="81" y="97.163046" style="stroke: #000000; stroke-width: 0.8"/>
      </g>
     </g>
     <g id="text_14">
      <!-- 0.00150 -->
      <g transform="translate(32.646875 100.962265) scale(0.1 -0.1)">
       <use xlink:href="#DejaVuSans-30"/>
       <use xlink:href="#DejaVuSans-2e" transform="translate(63.623047 0)"/>
       <use xlink:href="#DejaVuSans-30" transform="translate(95.410156 0)"/>
       <use xlink:href="#DejaVuSans-30" transform="translate(159.033203 0)"/>
       <use xlink:href="#DejaVuSans-31" transform="translate(222.65625 0)"/>
       <use xlink:href="#DejaVuSans-35" transform="translate(286.279297 0)"/>
       <use xlink:href="#DejaVuSans-30" transform="translate(349.902344 0)"/>
      </g>
     </g>
    </g>
    <g id="ytick_8">
     <g id="line2d_27">
      <path d="M 81 62.056887 
L 583.2 62.056887 
" clip-path="url(#peaba3540aa)" style="fill: none; stroke: #b0b0b0; stroke-width: 0.8; stroke-linecap: square"/>
     </g>
     <g id="line2d_28">
      <g>
       <use xlink:href="#m245c20dda5" x="81" y="62.056887" style="stroke: #000000; stroke-width: 0.8"/>
      </g>
     </g>
     <g id="text_15">
      <!-- 0.00175 -->
      <g transform="translate(32.646875 65.856105) scale(0.1 -0.1)">
       <use xlink:href="#DejaVuSans-30"/>
       <use xlink:href="#DejaVuSans-2e" transform="translate(63.623047 0)"/>
       <use xlink:href="#DejaVuSans-30" transform="translate(95.410156 0)"/>
       <use xlink:href="#DejaVuSans-30" transform="translate(159.033203 0)"/>
       <use xlink:href="#DejaVuSans-31" transform="translate(222.65625 0)"/>
       <use xlink:href="#DejaVuSans-37" transform="translate(286.279297 0)"/>
       <use xlink:href="#DejaVuSans-35" transform="translate(349.902344 0)"/>
      </g>
     </g>
    </g>
    <g id="text_16">
     <!-- Average Reward -->
     <g transform="translate(26.567187 222.542969) rotate(-90) scale(0.1 -0.1)">
      <defs>
       <path id="DejaVuSans-41" d="M 2188 4044 
L 1331 1722 
L 3047 1722 
L 2188 4044 
z
M 1831 4666 
L 2547 4666 
L 4325 0 
L 3669 0 
L 3244 1197 
L 1141 1197 
L 716 0 
L 50 0 
L 1831 4666 
z
" transform="scale(0.015625)"/>
       <path id="DejaVuSans-76" d="M 191 3500 
L 800 3500 
L 1894 563 
L 2988 3500 
L 3597 3500 
L 2284 0 
L 1503 0 
L 191 3500 
z
" transform="scale(0.015625)"/>
       <path id="DejaVuSans-72" d="M 2631 2963 
Q 2534 3019 2420 3045 
Q 2306 3072 2169 3072 
Q 1681 3072 1420 2755 
Q 1159 2438 1159 1844 
L 1159 0 
L 581 0 
L 581 3500 
L 1159 3500 
L 1159 2956 
Q 1341 3275 1631 3429 
Q 1922 3584 2338 3584 
Q 2397 3584 2469 3576 
Q 2541 3569 2628 3553 
L 2631 2963 
z
" transform="scale(0.015625)"/>
       <path id="DejaVuSans-61" d="M 2194 1759 
Q 1497 1759 1228 1600 
Q 959 1441 959 1056 
Q 959 750 1161 570 
Q 1363 391 1709 391 
Q 2188 391 2477 730 
Q 2766 1069 2766 1631 
L 2766 1759 
L 2194 1759 
z
M 3341 1997 
L 3341 0 
L 2766 0 
L 2766 531 
Q 2569 213 2275 61 
Q 1981 -91 1556 -91 
Q 1019 -91 701 211 
Q 384 513 384 1019 
Q 384 1609 779 1909 
Q 1175 2209 1959 2209 
L 2766 2209 
L 2766 2266 
Q 2766 2663 2505 2880 
Q 2244 3097 1772 3097 
Q 1472 3097 1187 3025 
Q 903 2953 641 2809 
L 641 3341 
Q 956 3463 1253 3523 
Q 1550 3584 1831 3584 
Q 2591 3584 2966 3190 
Q 3341 2797 3341 1997 
z
" transform="scale(0.015625)"/>
       <path id="DejaVuSans-67" d="M 2906 1791 
Q 2906 2416 2648 2759 
Q 2391 3103 1925 3103 
Q 1463 3103 1205 2759 
Q 947 2416 947 1791 
Q 947 1169 1205 825 
Q 1463 481 1925 481 
Q 2391 481 2648 825 
Q 2906 1169 2906 1791 
z
M 3481 434 
Q 3481 -459 3084 -895 
Q 2688 -1331 1869 -1331 
Q 1566 -1331 1297 -1286 
Q 1028 -1241 775 -1147 
L 775 -588 
Q 1028 -725 1275 -790 
Q 1522 -856 1778 -856 
Q 2344 -856 2625 -561 
Q 2906 -266 2906 331 
L 2906 616 
Q 2728 306 2450 153 
Q 2172 0 1784 0 
Q 1141 0 747 490 
Q 353 981 353 1791 
Q 353 2603 747 3093 
Q 1141 3584 1784 3584 
Q 2172 3584 2450 3431 
Q 2728 3278 2906 2969 
L 2906 3500 
L 3481 3500 
L 3481 434 
z
" transform="scale(0.015625)"/>
       <path id="DejaVuSans-20" transform="scale(0.015625)"/>
       <path id="DejaVuSans-52" d="M 2841 2188 
Q 3044 2119 3236 1894 
Q 3428 1669 3622 1275 
L 4263 0 
L 3584 0 
L 2988 1197 
Q 2756 1666 2539 1819 
Q 2322 1972 1947 1972 
L 1259 1972 
L 1259 0 
L 628 0 
L 628 4666 
L 2053 4666 
Q 2853 4666 3247 4331 
Q 3641 3997 3641 3322 
Q 3641 2881 3436 2590 
Q 3231 2300 2841 2188 
z
M 1259 4147 
L 1259 2491 
L 2053 2491 
Q 2509 2491 2742 2702 
Q 2975 2913 2975 3322 
Q 2975 3731 2742 3939 
Q 2509 4147 2053 4147 
L 1259 4147 
z
" transform="scale(0.015625)"/>
       <path id="DejaVuSans-77" d="M 269 3500 
L 844 3500 
L 1563 769 
L 2278 3500 
L 2956 3500 
L 3675 769 
L 4391 3500 
L 4966 3500 
L 4050 0 
L 3372 0 
L 2619 2869 
L 1863 0 
L 1184 0 
L 269 3500 
z
" transform="scale(0.015625)"/>
       <path id="DejaVuSans-64" d="M 2906 2969 
L 2906 4863 
L 3481 4863 
L 3481 0 
L 2906 0 
L 2906 525 
Q 2725 213 2448 61 
Q 2172 -91 1784 -91 
Q 1150 -91 751 415 
Q 353 922 353 1747 
Q 353 2572 751 3078 
Q 1150 3584 1784 3584 
Q 2172 3584 2448 3432 
Q 2725 3281 2906 2969 
z
M 947 1747 
Q 947 1113 1208 752 
Q 1469 391 1925 391 
Q 2381 391 2643 752 
Q 2906 1113 2906 1747 
Q 2906 2381 2643 2742 
Q 2381 3103 1925 3103 
Q 1469 3103 1208 2742 
Q 947 2381 947 1747 
z
" transform="scale(0.015625)"/>
      </defs>
      <use xlink:href="#DejaVuSans-41"/>
      <use xlink:href="#DejaVuSans-76" transform="translate(62.533203 0)"/>
      <use xlink:href="#DejaVuSans-65" transform="translate(121.712891 0)"/>
      <use xlink:href="#DejaVuSans-72" transform="translate(183.236328 0)"/>
      <use xlink:href="#DejaVuSans-61" transform="translate(224.349609 0)"/>
      <use xlink:href="#DejaVuSans-67" transform="translate(285.628906 0)"/>
      <use xlink:href="#DejaVuSans-65" transform="translate(349.105469 0)"/>
      <use xlink:href="#DejaVuSans-20" transform="translate(410.628906 0)"/>
      <use xlink:href="#DejaVuSans-52" transform="translate(442.416016 0)"/>
      <use xlink:href="#DejaVuSans-65" transform="translate(507.398438 0)"/>
      <use xlink:href="#DejaVuSans-77" transform="translate(568.921875 0)"/>
      <use xlink:href="#DejaVuSans-61" transform="translate(650.708984 0)"/>
      <use xlink:href="#DejaVuSans-72" transform="translate(711.988281 0)"/>
      <use xlink:href="#DejaVuSans-64" transform="translate(751.351562 0)"/>
     </g>
    </g>
   </g>
   <g id="line2d_29">
    <path d="M 103.827273 307.8 
L 104.284275 306.204265 
L 104.741278 303.727513 
L 105.19828 295.780754 
L 105.655283 280.339933 
L 106.112285 281.955064 
L 106.569287 270.105833 
L 107.02629 272.376071 
L 107.483292 263.655986 
L 107.940295 240.40477 
L 108.397297 231.084994 
L 108.8543 236.818221 
L 109.311302 232.132534 
L 110.225307 243.391101 
L 110.68231 231.067946 
L 111.139312 226.542258 
L 111.596314 212.165669 
L 112.967322 188.366756 
L 113.424324 184.906019 
L 115.252334 127.34213 
L 115.709337 116.691494 
L 116.166339 109.277367 
L 116.623342 109.376925 
L 117.080344 114.746288 
L 117.537346 126.347336 
L 117.994349 132.143363 
L 118.451351 133.852463 
L 118.908354 145.572919 
L 119.365356 151.418435 
L 119.822359 162.676418 
L 120.279361 162.525307 
L 121.193366 163.111257 
L 121.650369 157.287044 
L 122.107371 157.622007 
L 122.564373 163.798674 
L 123.021376 173.367368 
L 123.478378 175.924066 
L 123.935381 179.362395 
L 124.392383 181.05455 
L 124.849386 187.556714 
L 125.306388 186.85841 
L 125.763391 187.313714 
L 126.220393 185.140083 
L 126.677396 179.74193 
L 127.134398 179.883107 
L 127.5914 180.549442 
L 128.048403 174.938648 
L 128.505405 175.064534 
L 129.41941 168.027528 
L 129.876413 160.003915 
L 130.790418 151.930577 
L 131.24742 145.401132 
L 131.704423 132.069051 
L 132.161425 128.693215 
L 132.618428 121.76142 
L 133.07543 119.236669 
L 133.532432 114.548181 
L 134.446437 112.028137 
L 134.90344 113.354681 
L 135.360442 101.879324 
L 135.817445 100.91647 
L 136.274447 94.355526 
L 136.73145 95.523532 
L 137.188452 99.935424 
L 137.645455 103.21929 
L 138.102457 102.321916 
L 138.559459 100.726419 
L 139.016462 100.386421 
L 139.473464 102.275847 
L 139.930467 101.716057 
L 140.387469 103.816841 
L 140.844472 101.91892 
L 141.301474 97.52204 
L 141.758477 95.415729 
L 142.215479 90.583857 
L 142.672482 88.891611 
L 143.129484 81.555344 
L 143.586486 72.142507 
L 144.043489 67.172876 
L 144.500491 67.318135 
L 144.957494 68.11499 
L 145.414496 74.292231 
L 146.328501 90.766685 
L 146.785504 99.131267 
L 147.242506 113.053249 
L 147.699509 119.25461 
L 148.156511 120.634139 
L 148.613514 126.312911 
L 149.070516 127.702383 
L 149.527518 128.211342 
L 149.984521 128.4358 
L 150.441523 131.072117 
L 150.898526 130.720126 
L 151.355528 129.78627 
L 152.726536 118.866239 
L 153.183538 120.472808 
L 153.640541 123.029545 
L 154.097543 124.477866 
L 154.554545 126.517318 
L 155.011548 125.78425 
L 155.46855 126.421722 
L 155.925553 128.728916 
L 156.382555 128.954123 
L 156.839558 128.902716 
L 157.29656 128.025004 
L 157.753563 124.646206 
L 158.210565 120.22598 
L 158.667568 119.373152 
L 159.12457 118.994283 
L 159.581572 118.959029 
L 160.038575 119.602429 
L 160.495577 116.678173 
L 160.95258 114.634817 
L 161.866585 108.584086 
L 162.323587 107.84611 
L 162.78059 106.476723 
L 163.237592 107.033211 
L 163.694595 106.88768 
L 164.151597 101.451013 
L 164.6086 98.600744 
L 165.065602 93.730265 
L 165.522604 92.61232 
L 165.979607 90.139595 
L 166.436609 88.791975 
L 166.893612 86.652924 
L 167.350614 88.171781 
L 167.807617 86.253938 
L 168.721622 76.166448 
L 169.178624 74.681431 
L 169.635627 71.529945 
L 170.092629 70.932749 
L 170.549631 74.761231 
L 171.006634 80.62507 
L 171.463636 81.387896 
L 171.920639 81.039534 
L 172.377641 82.535362 
L 172.834644 81.192048 
L 173.291646 80.702621 
L 173.748649 76.617776 
L 174.205651 75.448357 
L 174.662654 76.168193 
L 175.119656 74.325138 
L 175.576658 74.58978 
L 176.033661 75.940087 
L 176.490663 75.927475 
L 176.947666 77.156723 
L 177.404668 77.231607 
L 177.861671 78.427983 
L 178.318673 80.37085 
L 178.775676 78.577805 
L 179.232678 77.630098 
L 179.689681 76.22532 
L 181.060688 62.902423 
L 181.51769 60.538881 
L 181.974693 59.080921 
L 182.431695 59.327194 
L 182.888698 60.554642 
L 183.3457 64.487544 
L 183.802703 66.462638 
L 184.716708 68.237429 
L 185.17371 67.728038 
L 185.630713 64.761187 
L 186.087715 60.860093 
L 187.00172 56.904911 
L 187.458722 58.202474 
L 187.915725 57.337783 
L 188.372727 59.58399 
L 188.82973 60.014316 
L 189.286732 59.523877 
L 189.743735 58.03178 
L 190.200737 55.8 
L 190.65774 57.330972 
L 191.114742 62.405779 
L 191.571744 65.484707 
L 192.028747 66.273243 
L 192.485749 65.635006 
L 192.942752 63.85894 
L 193.399754 65.173554 
L 193.856757 64.640829 
L 194.313759 68.690466 
L 194.770762 74.403097 
L 195.227764 73.911154 
L 195.684767 73.911453 
L 196.141769 74.282193 
L 196.598771 75.92986 
L 197.055774 76.25487 
L 197.512776 78.177891 
L 197.969779 79.455085 
L 198.883784 82.96953 
L 199.340786 83.986247 
L 199.797789 83.553929 
L 200.254791 83.769723 
L 201.168796 85.766546 
L 201.625799 85.957979 
L 202.082801 87.019797 
L 202.539803 87.231871 
L 202.996806 87.276978 
L 203.910811 85.356475 
L 204.824816 84.897255 
L 205.281818 85.004102 
L 205.738821 84.861804 
L 206.195823 86.052984 
L 206.652826 86.24385 
L 207.109828 85.504163 
L 207.56683 85.167503 
L 208.023833 83.525098 
L 208.480835 83.479623 
L 208.937838 82.441046 
L 209.39484 80.245959 
L 209.851843 80.438823 
L 210.308845 81.826153 
L 210.765848 82.665228 
L 211.679853 86.508028 
L 212.136855 87.75333 
L 212.593857 88.049791 
L 213.05086 89.190645 
L 213.507862 89.668687 
L 213.964865 88.892251 
L 214.421867 86.276164 
L 214.87887 86.474825 
L 215.335872 87.048341 
L 215.792875 87.943354 
L 216.249877 88.442242 
L 216.70688 90.732153 
L 217.620885 92.490993 
L 218.077887 93.898504 
L 218.534889 94.624291 
L 218.991892 96.198975 
L 219.448894 98.413645 
L 219.905897 97.816634 
L 220.362899 96.349824 
L 220.819902 96.867447 
L 221.276904 96.265083 
L 221.733907 96.440527 
L 222.190909 98.084885 
L 222.647912 100.268393 
L 223.104914 103.444956 
L 223.561916 105.387458 
L 224.475921 108.140086 
L 225.389926 108.726753 
L 225.846929 108.66924 
L 226.303931 108.941782 
L 226.760934 109.540504 
L 227.217936 108.744391 
L 227.674939 109.937219 
L 228.131941 110.708791 
L 228.588943 110.465507 
L 229.045946 111.054305 
L 229.502948 112.246474 
L 229.959951 111.940975 
L 230.416953 111.430568 
L 230.873956 110.481813 
L 231.330958 110.087947 
L 231.787961 110.21539 
L 232.244963 110.206301 
L 232.701966 109.193575 
L 233.158968 108.816702 
L 233.615971 107.852665 
L 234.072973 107.867535 
L 234.529975 107.623676 
L 235.44398 106.558109 
L 235.900983 106.496117 
L 236.357985 105.555403 
L 236.814988 106.447754 
L 237.27199 105.47877 
L 237.728993 105.318097 
L 238.185995 104.408391 
L 238.642998 102.004159 
L 239.1 102.083573 
L 239.557002 102.387792 
L 240.014005 101.310689 
L 240.471007 97.902583 
L 240.92801 96.080177 
L 241.385012 95.699766 
L 241.842015 96.565522 
L 242.299017 96.753679 
L 242.75602 98.182217 
L 243.213022 97.822563 
L 243.670025 96.735712 
L 244.127027 96.157224 
L 244.584029 95.154727 
L 245.041032 95.81076 
L 245.498034 95.531086 
L 245.955037 95.647055 
L 246.412039 97.714016 
L 246.869042 100.329073 
L 247.326044 100.2213 
L 248.240049 98.481152 
L 248.697052 97.926792 
L 249.154054 96.548744 
L 249.611057 97.049326 
L 250.068059 97.009139 
L 250.525061 94.89444 
L 250.982064 92.061365 
L 251.439066 90.745208 
L 251.896069 90.410608 
L 252.353071 90.924256 
L 252.810074 90.60734 
L 253.267076 89.795954 
L 253.724079 89.428016 
L 254.638084 88.19663 
L 255.095086 88.414003 
L 255.552088 89.811092 
L 256.009091 89.669125 
L 256.466093 88.300114 
L 256.923096 87.925698 
L 257.380098 86.465957 
L 257.837101 85.53806 
L 258.294103 85.098273 
L 258.751106 85.741196 
L 259.208108 85.951743 
L 259.665111 86.852541 
L 260.122113 86.425879 
L 260.579115 86.260462 
L 261.036118 84.59947 
L 261.49312 86.374573 
L 262.407125 88.236884 
L 262.864128 87.860863 
L 264.235135 84.416675 
L 264.692138 83.037282 
L 265.14914 80.733533 
L 266.063145 79.424068 
L 266.520147 78.196686 
L 266.97715 78.182519 
L 267.434152 80.500285 
L 267.891155 81.62868 
L 268.348157 81.637176 
L 269.262162 83.348148 
L 269.719165 83.674754 
L 270.176167 83.64259 
L 271.547174 79.241994 
L 272.461179 78.809913 
L 272.918182 78.371584 
L 273.832187 80.315168 
L 274.289189 80.413445 
L 274.746192 81.155719 
L 275.203194 80.881307 
L 275.660197 81.793421 
L 276.117199 83.075288 
L 276.574201 84.997692 
L 277.031204 86.384539 
L 277.488206 86.568155 
L 277.945209 87.254892 
L 278.402211 87.717293 
L 278.859214 86.395911 
L 279.316216 85.724165 
L 279.773219 85.778487 
L 280.230221 85.665209 
L 280.687224 85.706594 
L 281.144226 84.762337 
L 281.601229 84.932959 
L 282.515233 86.50782 
L 283.429238 84.004479 
L 283.886241 83.452324 
L 284.343243 82.712346 
L 284.800246 81.384323 
L 285.257248 81.040327 
L 286.171253 83.418982 
L 286.628256 85.213118 
L 287.54226 87.680214 
L 287.999263 88.196779 
L 289.827273 95.341422 
L 290.741278 95.043831 
L 291.19828 95.32229 
L 291.655283 94.757275 
L 292.112285 93.889402 
L 293.02629 94.03179 
L 293.483292 93.976486 
L 293.940295 93.129862 
L 294.397297 94.207565 
L 295.311302 95.319067 
L 296.225307 98.55418 
L 296.68231 99.706842 
L 297.139312 99.693299 
L 297.596314 99.85987 
L 298.510319 101.659352 
L 299.424324 104.286902 
L 299.881327 105.037326 
L 300.795332 107.045966 
L 301.709337 107.859872 
L 302.623342 107.572973 
L 303.537346 108.909733 
L 303.994349 109.043813 
L 304.451351 108.339172 
L 304.908354 108.106742 
L 305.822359 108.60598 
L 306.736364 108.86954 
L 307.650369 110.921822 
L 308.107371 111.561151 
L 309.478378 112.451314 
L 309.935381 113.166135 
L 311.306388 114.551869 
L 311.763391 114.59952 
L 312.220393 114.465481 
L 313.134398 113.877092 
L 313.5914 113.905777 
L 314.505405 114.572557 
L 314.962408 114.519865 
L 315.41941 115.276382 
L 315.876413 115.249363 
L 316.333415 115.682184 
L 316.790418 115.894248 
L 317.24742 115.779178 
L 318.618428 113.098728 
L 319.532432 112.929684 
L 320.446437 114.754225 
L 320.90344 115.885638 
L 321.817445 116.984042 
L 322.274447 116.639788 
L 322.73145 116.873673 
L 323.188452 117.283855 
L 323.645455 117.49779 
L 324.102457 117.219151 
L 324.559459 117.774834 
L 325.016462 117.58348 
L 325.930467 116.558071 
L 326.387469 116.406992 
L 326.844472 115.426321 
L 327.301474 115.344089 
L 328.215479 114.785027 
L 328.672482 114.689273 
L 329.129484 114.198342 
L 329.586486 113.221818 
L 330.500491 110.592694 
L 331.414496 108.916095 
L 331.871499 107.677036 
L 332.328501 107.297666 
L 332.785504 107.393576 
L 333.242506 108.875239 
L 333.699509 109.160405 
L 334.156511 107.877709 
L 334.613514 108.408774 
L 335.984521 108.412079 
L 336.441523 109.652715 
L 336.898526 109.653167 
L 338.726536 104.919643 
L 339.183538 104.227332 
L 340.554545 98.981697 
L 341.011548 99.11858 
L 341.925553 97.845051 
L 342.839558 96.931358 
L 343.29656 96.997351 
L 343.753563 97.314526 
L 344.667568 96.435072 
L 345.581572 95.093528 
L 346.495577 93.736157 
L 346.95258 93.368995 
L 347.409582 93.805487 
L 348.78059 98.944896 
L 349.237592 99.148006 
L 349.694595 99.590579 
L 350.151597 99.71563 
L 350.6086 100.27716 
L 351.522604 99.276564 
L 351.979607 99.235704 
L 352.436609 97.956851 
L 352.893612 97.470178 
L 353.350614 96.771666 
L 353.807617 95.658117 
L 354.721622 92.295094 
L 355.178624 91.43799 
L 355.635627 90.253256 
L 356.549631 89.271688 
L 358.377641 84.054701 
L 358.834644 85.266813 
L 359.291646 85.715608 
L 359.748649 84.800809 
L 361.576658 79.886747 
L 362.033661 78.072979 
L 362.490663 77.200331 
L 362.947666 77.454833 
L 363.861671 78.660459 
L 364.318673 78.577359 
L 364.775676 78.624561 
L 366.146683 74.570419 
L 367.060688 73.308906 
L 367.51769 73.932146 
L 367.974693 75.077298 
L 368.431695 74.434998 
L 368.888698 74.103332 
L 369.3457 74.072902 
L 369.802703 74.425902 
L 370.259705 75.291745 
L 370.716708 75.223423 
L 371.17371 75.385664 
L 371.630713 74.597982 
L 372.087715 74.536017 
L 373.00172 74.133269 
L 373.458722 74.279622 
L 373.915725 73.576767 
L 375.286732 72.326563 
L 375.743735 71.352573 
L 376.200737 70.964154 
L 376.65774 69.977534 
L 378.028747 70.568326 
L 378.485749 71.060805 
L 378.942752 72.095798 
L 379.399754 72.640088 
L 379.856757 74.226112 
L 380.313759 75.345804 
L 380.770762 75.465463 
L 381.227764 75.334574 
L 381.684767 74.925346 
L 382.141769 74.146763 
L 382.598771 73.676192 
L 383.969779 71.825265 
L 384.426781 71.659837 
L 384.883784 71.103463 
L 386.254791 71.779617 
L 386.711794 71.845597 
L 387.168796 71.779944 
L 387.625799 71.451352 
L 388.082801 70.586649 
L 388.539803 70.175539 
L 389.453808 70.632641 
L 389.910811 71.89192 
L 390.367813 72.103135 
L 390.824816 71.961738 
L 391.281818 72.378269 
L 391.738821 71.692286 
L 392.652826 69.088098 
L 393.56683 68.071251 
L 394.023833 68.412194 
L 394.480835 68.2213 
L 394.937838 67.051012 
L 395.39484 66.791033 
L 395.851843 66.083078 
L 396.765848 67.166744 
L 397.22285 68.613326 
L 397.679853 69.334849 
L 398.136855 69.408211 
L 398.593857 69.691268 
L 399.05086 70.353228 
L 399.507862 69.847228 
L 399.964865 69.561151 
L 400.421867 68.562213 
L 400.87887 68.363234 
L 401.335872 67.442389 
L 401.792875 66.951127 
L 402.249877 66.91091 
L 402.70688 66.160229 
L 403.163882 67.281785 
L 403.620885 66.419422 
L 404.077887 65.999882 
L 404.991892 64.395854 
L 405.448894 63.277765 
L 405.905897 62.489909 
L 406.362899 62.579169 
L 407.276904 63.783757 
L 407.733907 62.780048 
L 408.190909 63.212171 
L 408.647912 63.920391 
L 409.104914 65.174628 
L 409.561916 65.68761 
L 410.018919 66.019097 
L 410.475921 65.952859 
L 410.932924 65.192456 
L 411.389926 64.792419 
L 411.846929 65.344575 
L 412.303931 65.460258 
L 412.760934 65.835424 
L 413.217936 65.590877 
L 415.045946 63.514894 
L 415.959951 64.426226 
L 416.416953 64.540105 
L 416.873956 65.121517 
L 417.330958 65.483208 
L 417.787961 65.990162 
L 418.244963 66.745979 
L 418.701966 67.244955 
L 419.158968 67.380868 
L 419.615971 66.825111 
L 420.072973 65.984557 
L 420.986978 65.128967 
L 421.44398 65.09675 
L 421.900983 64.644461 
L 422.357985 64.712331 
L 422.814988 65.15374 
L 423.27199 65.147019 
L 423.728993 66.125603 
L 424.185995 67.369202 
L 425.1 68.058873 
L 425.557002 68.132245 
L 426.471007 68.011088 
L 426.92801 68.339141 
L 427.385012 68.324494 
L 427.842015 68.084613 
L 428.299017 67.397727 
L 429.213022 67.215884 
L 429.670025 66.396333 
L 430.127027 65.866266 
L 430.584029 65.626455 
L 431.041032 65.212981 
L 431.498034 65.255635 
L 431.955037 64.832658 
L 432.412039 64.09086 
L 432.869042 63.62027 
L 433.326044 63.838374 
L 433.783047 63.790315 
L 434.240049 64.001782 
L 434.697052 63.059552 
L 435.154054 63.143372 
L 436.068059 61.167797 
L 436.525061 61.147807 
L 437.439066 63.181149 
L 438.810074 65.016154 
L 439.267076 64.641594 
L 439.724079 65.012352 
L 440.181081 64.675197 
L 441.095086 63.341906 
L 441.552088 62.778504 
L 442.466093 62.496686 
L 442.923096 62.026264 
L 443.380098 62.399855 
L 444.294103 60.624739 
L 444.751106 61.188115 
L 445.208108 61.385971 
L 445.665111 61.40264 
L 446.122113 61.711507 
L 446.579115 61.575975 
L 447.036118 60.894596 
L 447.49312 59.438517 
L 447.950123 59.670311 
L 448.407125 59.688082 
L 448.864128 59.157844 
L 449.32113 58.957629 
L 449.778133 58.974303 
L 450.235135 58.743752 
L 450.692138 59.002379 
L 451.14914 58.81318 
L 451.606143 59.019252 
L 452.063145 59.060416 
L 452.97715 59.952211 
L 453.434152 60.639742 
L 453.891155 60.937939 
L 454.348157 61.435937 
L 454.80516 62.334996 
L 456.176167 62.841878 
L 456.63317 62.663713 
L 457.090172 62.623669 
L 457.547174 63.082377 
L 458.461179 64.592595 
L 458.918182 64.033425 
L 459.375184 64.291996 
L 460.289189 63.824231 
L 461.203194 62.451429 
L 461.660197 62.31045 
L 462.117199 62.399197 
L 462.574201 62.725399 
L 463.031204 62.26936 
L 464.402211 62.459208 
L 464.859214 63.112851 
L 465.316216 63.036273 
L 465.773219 63.12468 
L 467.144226 65.716443 
L 468.058231 66.493656 
L 468.515233 66.602525 
L 469.429238 66.339669 
L 470.343243 66.569701 
L 470.800246 66.444282 
L 471.257248 66.692113 
L 471.714251 66.613812 
L 472.171253 66.359876 
L 472.628256 66.432219 
L 473.085258 66.249777 
L 473.54226 66.543174 
L 474.456265 67.662712 
L 475.37027 67.626893 
L 476.741278 68.178426 
L 477.19828 68.387959 
L 477.655283 68.899753 
L 478.112285 69.169097 
L 478.569287 69.70572 
L 479.02629 69.490266 
L 479.483292 69.815328 
L 481.311302 70.304996 
L 482.68231 71.353643 
L 483.139312 71.25654 
L 483.596314 70.990747 
L 484.053317 71.478314 
L 484.510319 71.531691 
L 484.967322 71.278109 
L 485.424324 70.778566 
L 485.881327 70.69948 
L 486.338329 70.851536 
L 487.709337 71.887356 
L 488.623342 71.833863 
L 489.537346 71.166471 
L 490.451351 70.872481 
L 491.365356 70.234963 
L 491.822359 70.086561 
L 492.279361 70.092197 
L 492.736364 70.332153 
L 493.193366 70.746747 
L 493.650369 70.837369 
L 495.478378 72.517722 
L 495.935381 73.19198 
L 496.392383 73.033815 
L 496.849386 73.165078 
L 498.220393 75.111647 
L 499.5914 75.657604 
L 500.048403 75.914097 
L 500.505405 75.976226 
L 502.790418 74.802495 
L 503.24742 74.749282 
L 503.704423 74.068496 
L 504.161425 73.905598 
L 504.618428 74.114549 
L 505.07543 74.176433 
L 505.532432 74.075103 
L 506.90344 72.187301 
L 507.360442 71.936205 
L 507.817445 71.158577 
L 508.274447 70.867379 
L 508.73145 69.906472 
L 509.188452 69.434503 
L 509.645455 69.516715 
L 510.102457 70.291364 
L 510.559459 70.599917 
L 511.016462 70.323545 
L 511.473464 69.875462 
L 512.387469 67.851034 
L 512.844472 67.487639 
L 513.301474 67.620375 
L 513.758477 68.200686 
L 514.215479 68.116438 
L 515.129484 68.580802 
L 515.586486 68.601658 
L 516.043489 68.834007 
L 516.500491 68.760667 
L 517.414496 69.245422 
L 517.871499 68.91687 
L 518.328501 68.450973 
L 519.242506 68.671627 
L 519.699509 68.973516 
L 520.156511 69.116662 
L 520.613514 69.861028 
L 521.070516 69.968008 
L 521.984521 69.740218 
L 522.441523 69.715652 
L 522.898526 70.334103 
L 523.355528 70.68554 
L 523.812531 71.178963 
L 524.269533 71.486841 
L 525.640541 73.542301 
L 526.097543 73.62748 
L 527.925553 72.622249 
L 528.839558 71.743932 
L 529.29656 71.177925 
L 529.753563 70.880621 
L 530.210565 70.312252 
L 530.667568 70.280843 
L 531.12457 70.591637 
L 531.581572 71.143626 
L 532.495577 71.532703 
L 532.95258 71.881098 
L 534.78059 71.793471 
L 535.237592 71.937305 
L 536.151597 71.317815 
L 537.979607 70.712349 
L 538.436609 70.818469 
L 538.893612 71.089406 
L 539.350614 71.0572 
L 539.807617 70.834154 
L 540.264619 70.764235 
L 541.635627 69.456948 
L 542.092629 68.832958 
L 542.549631 68.687564 
L 543.006634 69.230739 
L 543.463636 69.13505 
L 544.834644 68.080543 
L 545.291646 68.200543 
L 546.205651 69.305801 
L 546.662654 69.155745 
L 547.119656 69.346983 
L 548.033661 68.589228 
L 548.490663 68.943515 
L 549.404668 69.985272 
L 549.861671 70.337658 
L 550.318673 70.462896 
L 550.775676 70.754565 
L 551.689681 69.03117 
L 552.146683 68.802434 
L 552.603686 68.921966 
L 553.060688 69.600396 
L 553.974693 71.339699 
L 554.431695 71.890551 
L 555.3457 73.636093 
L 556.259705 74.037065 
L 556.716708 73.917994 
L 559.00172 75.430955 
L 559.915725 75.476629 
L 560.372727 75.615221 
L 560.372727 75.615221 
" clip-path="url(#peaba3540aa)" style="fill: none; stroke: #800080; stroke-width: 1.5; stroke-linecap: square"/>
   </g>
   <g id="patch_3">
    <path d="M 81 320.4 
L 81 43.2 
" style="fill: none; stroke: #000000; stroke-width: 0.8; stroke-linejoin: miter; stroke-linecap: square"/>
   </g>
   <g id="patch_4">
    <path d="M 583.2 320.4 
L 583.2 43.2 
" style="fill: none; stroke: #000000; stroke-width: 0.8; stroke-linejoin: miter; stroke-linecap: square"/>
   </g>
   <g id="patch_5">
    <path d="M 81 320.4 
L 583.2 320.4 
" style="fill: none; stroke: #000000; stroke-width: 0.8; stroke-linejoin: miter; stroke-linecap: square"/>
   </g>
   <g id="patch_6">
    <path d="M 81 43.2 
L 583.2 43.2 
" style="fill: none; stroke: #000000; stroke-width: 0.8; stroke-linejoin: miter; stroke-linecap: square"/>
   </g>
   <g id="text_17">
    <!-- Average Reward Over Time -->
    <g transform="translate(250.281563 37.2) scale(0.12 -0.12)">
     <defs>
      <path id="DejaVuSans-4f" d="M 2522 4238 
Q 1834 4238 1429 3725 
Q 1025 3213 1025 2328 
Q 1025 1447 1429 934 
Q 1834 422 2522 422 
Q 3209 422 3611 934 
Q 4013 1447 4013 2328 
Q 4013 3213 3611 3725 
Q 3209 4238 2522 4238 
z
M 2522 4750 
Q 3503 4750 4090 4092 
Q 4678 3434 4678 2328 
Q 4678 1225 4090 567 
Q 3503 -91 2522 -91 
Q 1538 -91 948 565 
Q 359 1222 359 2328 
Q 359 3434 948 4092 
Q 1538 4750 2522 4750 
z
" transform="scale(0.015625)"/>
     </defs>
     <use xlink:href="#DejaVuSans-41"/>
     <use xlink:href="#DejaVuSans-76" transform="translate(62.533203 0)"/>
     <use xlink:href="#DejaVuSans-65" transform="translate(121.712891 0)"/>
     <use xlink:href="#DejaVuSans-72" transform="translate(183.236328 0)"/>
     <use xlink:href="#DejaVuSans-61" transform="translate(224.349609 0)"/>
     <use xlink:href="#DejaVuSans-67" transform="translate(285.628906 0)"/>
     <use xlink:href="#DejaVuSans-65" transform="translate(349.105469 0)"/>
     <use xlink:href="#DejaVuSans-20" transform="translate(410.628906 0)"/>
     <use xlink:href="#DejaVuSans-52" transform="translate(442.416016 0)"/>
     <use xlink:href="#DejaVuSans-65" transform="translate(507.398438 0)"/>
     <use xlink:href="#DejaVuSans-77" transform="translate(568.921875 0)"/>
     <use xlink:href="#DejaVuSans-61" transform="translate(650.708984 0)"/>
     <use xlink:href="#DejaVuSans-72" transform="translate(711.988281 0)"/>
     <use xlink:href="#DejaVuSans-64" transform="translate(751.351562 0)"/>
     <use xlink:href="#DejaVuSans-20" transform="translate(814.828125 0)"/>
     <use xlink:href="#DejaVuSans-4f" transform="translate(846.615234 0)"/>
     <use xlink:href="#DejaVuSans-76" transform="translate(925.326172 0)"/>
     <use xlink:href="#DejaVuSans-65" transform="translate(984.505859 0)"/>
     <use xlink:href="#DejaVuSans-72" transform="translate(1046.029297 0)"/>
     <use xlink:href="#DejaVuSans-20" transform="translate(1087.142578 0)"/>
     <use xlink:href="#DejaVuSans-54" transform="translate(1118.929688 0)"/>
     <use xlink:href="#DejaVuSans-69" transform="translate(1176.888672 0)"/>
     <use xlink:href="#DejaVuSans-6d" transform="translate(1204.671875 0)"/>
     <use xlink:href="#DejaVuSans-65" transform="translate(1302.083984 0)"/>
    </g>
   </g>
   <g id="legend_1">
    <g id="patch_7">
     <path d="M 462.714063 315.4 
L 576.2 315.4 
Q 578.2 315.4 578.2 313.4 
L 578.2 299.721875 
Q 578.2 297.721875 576.2 297.721875 
L 462.714063 297.721875 
Q 460.714063 297.721875 460.714063 299.721875 
L 460.714063 313.4 
Q 460.714063 315.4 462.714063 315.4 
z
" style="fill: #ffffff; opacity: 0.8; stroke: #cccccc; stroke-linejoin: miter"/>
    </g>
    <g id="line2d_30">
     <path d="M 464.714063 305.820312 
L 474.714063 305.820312 
L 484.714063 305.820312 
" style="fill: none; stroke: #800080; stroke-width: 1.5; stroke-linecap: square"/>
    </g>
    <g id="text_18">
     <!-- Average Reward -->
     <g transform="translate(492.714063 309.320312) scale(0.1 -0.1)">
      <use xlink:href="#DejaVuSans-41"/>
      <use xlink:href="#DejaVuSans-76" transform="translate(62.533203 0)"/>
      <use xlink:href="#DejaVuSans-65" transform="translate(121.712891 0)"/>
      <use xlink:href="#DejaVuSans-72" transform="translate(183.236328 0)"/>
      <use xlink:href="#DejaVuSans-61" transform="translate(224.349609 0)"/>
      <use xlink:href="#DejaVuSans-67" transform="translate(285.628906 0)"/>
      <use xlink:href="#DejaVuSans-65" transform="translate(349.105469 0)"/>
      <use xlink:href="#DejaVuSans-20" transform="translate(410.628906 0)"/>
      <use xlink:href="#DejaVuSans-52" transform="translate(442.416016 0)"/>
      <use xlink:href="#DejaVuSans-65" transform="translate(507.398438 0)"/>
      <use xlink:href="#DejaVuSans-77" transform="translate(568.921875 0)"/>
      <use xlink:href="#DejaVuSans-61" transform="translate(650.708984 0)"/>
      <use xlink:href="#DejaVuSans-72" transform="translate(711.988281 0)"/>
      <use xlink:href="#DejaVuSans-64" transform="translate(751.351562 0)"/>
     </g>
    </g>
   </g>
  </g>
 </g>
 <defs>
  <clipPath id="peaba3540aa">
   <rect x="81" y="43.2" width="502.2" height="277.2"/>
  </clipPath>
 </defs>
</svg>
