<?xml version="1.0" encoding="utf-8" standalone="no"?>
<!DOCTYPE svg PUBLIC "-//W3C//DTD SVG 1.1//EN"
  "http://www.w3.org/Graphics/SVG/1.1/DTD/svg11.dtd">
<svg xmlns:xlink="http://www.w3.org/1999/xlink" width="720pt" height="432pt" viewBox="0 0 720 432" xmlns="http://www.w3.org/2000/svg" version="1.1">
 <metadata>
  <rdf:RDF xmlns:dc="http://purl.org/dc/elements/1.1/" xmlns:cc="http://creativecommons.org/ns#" xmlns:rdf="http://www.w3.org/1999/02/22-rdf-syntax-ns#">
   <cc:Work>
    <dc:type rdf:resource="http://purl.org/dc/dcmitype/StillImage"/>
    <dc:date>2025-10-31T19:29:13.203643</dc:date>
    <dc:format>image/svg+xml</dc:format>
    <dc:creator>
     <cc:Agent>
      <dc:title>Matplotlib v3.10.6, https://matplotlib.org/</dc:title>
     </cc:Agent>
    </dc:creator>
   </cc:Work>
  </rdf:RDF>
 </metadata>
 <defs>
  <style type="text/css">*{stroke-linejoin: round; stroke-linecap: butt}</style>
 </defs>
 <g id="figure_1">
  <g id="patch_1">
   <path d="M 0 432 
L 720 432 
L 720 0 
L 0 0 
z
" style="fill: #ffffff"/>
  </g>
  <g id="axes_1">
   <g id="patch_2">
    <path d="M 90 384.48 
L 648 384.48 
L 648 51.84 
L 90 51.84 
z
" style="fill: #ffffff"/>
   </g>
   <g id="matplotlib.axis_1">
    <g id="xtick_1">
     <g id="line2d_1">
      <path d="M 117.242013 384.48 
L 117.242013 51.84 
" clip-path="url(#pb7bce299a5)" style="fill: none; stroke: #b0b0b0; stroke-width: 0.8; stroke-linecap: square"/>
     </g>
     <g id="line2d_2">
      <defs>
       <path id="mcc68a5ecde" d="M 0 0 
L 0 3.5 
" style="stroke: #000000; stroke-width: 0.8"/>
      </defs>
      <g>
       <use xlink:href="#mcc68a5ecde" x="117.242013" y="384.48" style="stroke: #000000; stroke-width: 0.8"/>
      </g>
     </g>
     <g id="text_1">
      <!-- −0.005 -->
      <g transform="translate(98.738107 399.078438) scale(0.1 -0.1)">
       <defs>
        <path id="DejaVuSans-2212" d="M 678 2272 
L 4684 2272 
L 4684 1741 
L 678 1741 
L 678 2272 
z
" transform="scale(0.015625)"/>
        <path id="DejaVuSans-30" d="M 2034 4250 
Q 1547 4250 1301 3770 
Q 1056 3291 1056 2328 
Q 1056 1369 1301 889 
Q 1547 409 2034 409 
Q 2525 409 2770 889 
Q 3016 1369 3016 2328 
Q 3016 3291 2770 3770 
Q 2525 4250 2034 4250 
z
M 2034 4750 
Q 2819 4750 3233 4129 
Q 3647 3509 3647 2328 
Q 3647 1150 3233 529 
Q 2819 -91 2034 -91 
Q 1250 -91 836 529 
Q 422 1150 422 2328 
Q 422 3509 836 4129 
Q 1250 4750 2034 4750 
z
" transform="scale(0.015625)"/>
        <path id="DejaVuSans-2e" d="M 684 794 
L 1344 794 
L 1344 0 
L 684 0 
L 684 794 
z
" transform="scale(0.015625)"/>
        <path id="DejaVuSans-35" d="M 691 4666 
L 3169 4666 
L 3169 4134 
L 1269 4134 
L 1269 2991 
Q 1406 3038 1543 3061 
Q 1681 3084 1819 3084 
Q 2600 3084 3056 2656 
Q 3513 2228 3513 1497 
Q 3513 744 3044 326 
Q 2575 -91 1722 -91 
Q 1428 -91 1123 -41 
Q 819 9 494 109 
L 494 744 
Q 775 591 1075 516 
Q 1375 441 1709 441 
Q 2250 441 2565 725 
Q 2881 1009 2881 1497 
Q 2881 1984 2565 2268 
Q 2250 2553 1709 2553 
Q 1456 2553 1204 2497 
Q 953 2441 691 2322 
L 691 4666 
z
" transform="scale(0.015625)"/>
       </defs>
       <use xlink:href="#DejaVuSans-2212"/>
       <use xlink:href="#DejaVuSans-30" transform="translate(83.789062 0)"/>
       <use xlink:href="#DejaVuSans-2e" transform="translate(147.412109 0)"/>
       <use xlink:href="#DejaVuSans-30" transform="translate(179.199219 0)"/>
       <use xlink:href="#DejaVuSans-30" transform="translate(242.822266 0)"/>
       <use xlink:href="#DejaVuSans-35" transform="translate(306.445312 0)"/>
      </g>
     </g>
    </g>
    <g id="xtick_2">
     <g id="line2d_3">
      <path d="M 196.172549 384.48 
L 196.172549 51.84 
" clip-path="url(#pb7bce299a5)" style="fill: none; stroke: #b0b0b0; stroke-width: 0.8; stroke-linecap: square"/>
     </g>
     <g id="line2d_4">
      <g>
       <use xlink:href="#mcc68a5ecde" x="196.172549" y="384.48" style="stroke: #000000; stroke-width: 0.8"/>
      </g>
     </g>
     <g id="text_2">
      <!-- 0.000 -->
      <g transform="translate(181.858486 399.078438) scale(0.1 -0.1)">
       <use xlink:href="#DejaVuSans-30"/>
       <use xlink:href="#DejaVuSans-2e" transform="translate(63.623047 0)"/>
       <use xlink:href="#DejaVuSans-30" transform="translate(95.410156 0)"/>
       <use xlink:href="#DejaVuSans-30" transform="translate(159.033203 0)"/>
       <use xlink:href="#DejaVuSans-30" transform="translate(222.65625 0)"/>
      </g>
     </g>
    </g>
    <g id="xtick_3">
     <g id="line2d_5">
      <path d="M 275.103084 384.48 
L 275.103084 51.84 
" clip-path="url(#pb7bce299a5)" style="fill: none; stroke: #b0b0b0; stroke-width: 0.8; stroke-linecap: square"/>
     </g>
     <g id="line2d_6">
      <g>
       <use xlink:href="#mcc68a5ecde" x="275.103084" y="384.48" style="stroke: #000000; stroke-width: 0.8"/>
      </g>
     </g>
     <g id="text_3">
      <!-- 0.005 -->
      <g transform="translate(260.789022 399.078438) scale(0.1 -0.1)">
       <use xlink:href="#DejaVuSans-30"/>
       <use xlink:href="#DejaVuSans-2e" transform="translate(63.623047 0)"/>
       <use xlink:href="#DejaVuSans-30" transform="translate(95.410156 0)"/>
       <use xlink:href="#DejaVuSans-30" transform="translate(159.033203 0)"/>
       <use xlink:href="#DejaVuSans-35" transform="translate(222.65625 0)"/>
      </g>
     </g>
    </g>
    <g id="xtick_4">
     <g id="line2d_7">
      <path d="M 354.033619 384.48 
L 354.033619 51.84 
" clip-path="url(#pb7bce299a5)" style="fill: none; stroke: #b0b0b0; stroke-width: 0.8; stroke-linecap: square"/>
     </g>
     <g id="line2d_8">
      <g>
       <use xlink:href="#mcc68a5ecde" x="354.033619" y="384.48" style="stroke: #000000; stroke-width: 0.8"/>
      </g>
     </g>
     <g id="text_4">
      <!-- 0.010 -->
      <g transform="translate(339.719557 399.078438) scale(0.1 -0.1)">
       <defs>
        <path id="DejaVuSans-31" d="M 794 531 
L 1825 531 
L 1825 4091 
L 703 3866 
L 703 4441 
L 1819 4666 
L 2450 4666 
L 2450 531 
L 3481 531 
L 3481 0 
L 794 0 
L 794 531 
z
" transform="scale(0.015625)"/>
       </defs>
       <use xlink:href="#DejaVuSans-30"/>
       <use xlink:href="#DejaVuSans-2e" transform="translate(63.623047 0)"/>
       <use xlink:href="#DejaVuSans-30" transform="translate(95.410156 0)"/>
       <use xlink:href="#DejaVuSans-31" transform="translate(159.033203 0)"/>
       <use xlink:href="#DejaVuSans-30" transform="translate(222.65625 0)"/>
      </g>
     </g>
    </g>
    <g id="xtick_5">
     <g id="line2d_9">
      <path d="M 432.964155 384.48 
L 432.964155 51.84 
" clip-path="url(#pb7bce299a5)" style="fill: none; stroke: #b0b0b0; stroke-width: 0.8; stroke-linecap: square"/>
     </g>
     <g id="line2d_10">
      <g>
       <use xlink:href="#mcc68a5ecde" x="432.964155" y="384.48" style="stroke: #000000; stroke-width: 0.8"/>
      </g>
     </g>
     <g id="text_5">
      <!-- 0.015 -->
      <g transform="translate(418.650092 399.078438) scale(0.1 -0.1)">
       <use xlink:href="#DejaVuSans-30"/>
       <use xlink:href="#DejaVuSans-2e" transform="translate(63.623047 0)"/>
       <use xlink:href="#DejaVuSans-30" transform="translate(95.410156 0)"/>
       <use xlink:href="#DejaVuSans-31" transform="translate(159.033203 0)"/>
       <use xlink:href="#DejaVuSans-35" transform="translate(222.65625 0)"/>
      </g>
     </g>
    </g>
    <g id="xtick_6">
     <g id="line2d_11">
      <path d="M 511.89469 384.48 
L 511.89469 51.84 
" clip-path="url(#pb7bce299a5)" style="fill: none; stroke: #b0b0b0; stroke-width: 0.8; stroke-linecap: square"/>
     </g>
     <g id="line2d_12">
      <g>
       <use xlink:href="#mcc68a5ecde" x="511.89469" y="384.48" style="stroke: #000000; stroke-width: 0.8"/>
      </g>
     </g>
     <g id="text_6">
      <!-- 0.020 -->
      <g transform="translate(497.580628 399.078438) scale(0.1 -0.1)">
       <defs>
        <path id="DejaVuSans-32" d="M 1228 531 
L 3431 531 
L 3431 0 
L 469 0 
L 469 531 
Q 828 903 1448 1529 
Q 2069 2156 2228 2338 
Q 2531 2678 2651 2914 
Q 2772 3150 2772 3378 
Q 2772 3750 2511 3984 
Q 2250 4219 1831 4219 
Q 1534 4219 1204 4116 
Q 875 4013 500 3803 
L 500 4441 
Q 881 4594 1212 4672 
Q 1544 4750 1819 4750 
Q 2544 4750 2975 4387 
Q 3406 4025 3406 3419 
Q 3406 3131 3298 2873 
Q 3191 2616 2906 2266 
Q 2828 2175 2409 1742 
Q 1991 1309 1228 531 
z
" transform="scale(0.015625)"/>
       </defs>
       <use xlink:href="#DejaVuSans-30"/>
       <use xlink:href="#DejaVuSans-2e" transform="translate(63.623047 0)"/>
       <use xlink:href="#DejaVuSans-30" transform="translate(95.410156 0)"/>
       <use xlink:href="#DejaVuSans-32" transform="translate(159.033203 0)"/>
       <use xlink:href="#DejaVuSans-30" transform="translate(222.65625 0)"/>
      </g>
     </g>
    </g>
    <g id="xtick_7">
     <g id="line2d_13">
      <path d="M 590.825226 384.48 
L 590.825226 51.84 
" clip-path="url(#pb7bce299a5)" style="fill: none; stroke: #b0b0b0; stroke-width: 0.8; stroke-linecap: square"/>
     </g>
     <g id="line2d_14">
      <g>
       <use xlink:href="#mcc68a5ecde" x="590.825226" y="384.48" style="stroke: #000000; stroke-width: 0.8"/>
      </g>
     </g>
     <g id="text_7">
      <!-- 0.025 -->
      <g transform="translate(576.511163 399.078438) scale(0.1 -0.1)">
       <use xlink:href="#DejaVuSans-30"/>
       <use xlink:href="#DejaVuSans-2e" transform="translate(63.623047 0)"/>
       <use xlink:href="#DejaVuSans-30" transform="translate(95.410156 0)"/>
       <use xlink:href="#DejaVuSans-32" transform="translate(159.033203 0)"/>
       <use xlink:href="#DejaVuSans-35" transform="translate(222.65625 0)"/>
      </g>
     </g>
    </g>
    <g id="text_8">
     <!-- Average Reward -->
     <g transform="translate(328.257031 412.756563) scale(0.1 -0.1)">
      <defs>
       <path id="DejaVuSans-41" d="M 2188 4044 
L 1331 1722 
L 3047 1722 
L 2188 4044 
z
M 1831 4666 
L 2547 4666 
L 4325 0 
L 3669 0 
L 3244 1197 
L 1141 1197 
L 716 0 
L 50 0 
L 1831 4666 
z
" transform="scale(0.015625)"/>
       <path id="DejaVuSans-76" d="M 191 3500 
L 800 3500 
L 1894 563 
L 2988 3500 
L 3597 3500 
L 2284 0 
L 1503 0 
L 191 3500 
z
" transform="scale(0.015625)"/>
       <path id="DejaVuSans-65" d="M 3597 1894 
L 3597 1613 
L 953 1613 
Q 991 1019 1311 708 
Q 1631 397 2203 397 
Q 2534 397 2845 478 
Q 3156 559 3463 722 
L 3463 178 
Q 3153 47 2828 -22 
Q 2503 -91 2169 -91 
Q 1331 -91 842 396 
Q 353 884 353 1716 
Q 353 2575 817 3079 
Q 1281 3584 2069 3584 
Q 2775 3584 3186 3129 
Q 3597 2675 3597 1894 
z
M 3022 2063 
Q 3016 2534 2758 2815 
Q 2500 3097 2075 3097 
Q 1594 3097 1305 2825 
Q 1016 2553 972 2059 
L 3022 2063 
z
" transform="scale(0.015625)"/>
       <path id="DejaVuSans-72" d="M 2631 2963 
Q 2534 3019 2420 3045 
Q 2306 3072 2169 3072 
Q 1681 3072 1420 2755 
Q 1159 2438 1159 1844 
L 1159 0 
L 581 0 
L 581 3500 
L 1159 3500 
L 1159 2956 
Q 1341 3275 1631 3429 
Q 1922 3584 2338 3584 
Q 2397 3584 2469 3576 
Q 2541 3569 2628 3553 
L 2631 2963 
z
" transform="scale(0.015625)"/>
       <path id="DejaVuSans-61" d="M 2194 1759 
Q 1497 1759 1228 1600 
Q 959 1441 959 1056 
Q 959 750 1161 570 
Q 1363 391 1709 391 
Q 2188 391 2477 730 
Q 2766 1069 2766 1631 
L 2766 1759 
L 2194 1759 
z
M 3341 1997 
L 3341 0 
L 2766 0 
L 2766 531 
Q 2569 213 2275 61 
Q 1981 -91 1556 -91 
Q 1019 -91 701 211 
Q 384 513 384 1019 
Q 384 1609 779 1909 
Q 1175 2209 1959 2209 
L 2766 2209 
L 2766 2266 
Q 2766 2663 2505 2880 
Q 2244 3097 1772 3097 
Q 1472 3097 1187 3025 
Q 903 2953 641 2809 
L 641 3341 
Q 956 3463 1253 3523 
Q 1550 3584 1831 3584 
Q 2591 3584 2966 3190 
Q 3341 2797 3341 1997 
z
" transform="scale(0.015625)"/>
       <path id="DejaVuSans-67" d="M 2906 1791 
Q 2906 2416 2648 2759 
Q 2391 3103 1925 3103 
Q 1463 3103 1205 2759 
Q 947 2416 947 1791 
Q 947 1169 1205 825 
Q 1463 481 1925 481 
Q 2391 481 2648 825 
Q 2906 1169 2906 1791 
z
M 3481 434 
Q 3481 -459 3084 -895 
Q 2688 -1331 1869 -1331 
Q 1566 -1331 1297 -1286 
Q 1028 -1241 775 -1147 
L 775 -588 
Q 1028 -725 1275 -790 
Q 1522 -856 1778 -856 
Q 2344 -856 2625 -561 
Q 2906 -266 2906 331 
L 2906 616 
Q 2728 306 2450 153 
Q 2172 0 1784 0 
Q 1141 0 747 490 
Q 353 981 353 1791 
Q 353 2603 747 3093 
Q 1141 3584 1784 3584 
Q 2172 3584 2450 3431 
Q 2728 3278 2906 2969 
L 2906 3500 
L 3481 3500 
L 3481 434 
z
" transform="scale(0.015625)"/>
       <path id="DejaVuSans-20" transform="scale(0.015625)"/>
       <path id="DejaVuSans-52" d="M 2841 2188 
Q 3044 2119 3236 1894 
Q 3428 1669 3622 1275 
L 4263 0 
L 3584 0 
L 2988 1197 
Q 2756 1666 2539 1819 
Q 2322 1972 1947 1972 
L 1259 1972 
L 1259 0 
L 628 0 
L 628 4666 
L 2053 4666 
Q 2853 4666 3247 4331 
Q 3641 3997 3641 3322 
Q 3641 2881 3436 2590 
Q 3231 2300 2841 2188 
z
M 1259 4147 
L 1259 2491 
L 2053 2491 
Q 2509 2491 2742 2702 
Q 2975 2913 2975 3322 
Q 2975 3731 2742 3939 
Q 2509 4147 2053 4147 
L 1259 4147 
z
" transform="scale(0.015625)"/>
       <path id="DejaVuSans-77" d="M 269 3500 
L 844 3500 
L 1563 769 
L 2278 3500 
L 2956 3500 
L 3675 769 
L 4391 3500 
L 4966 3500 
L 4050 0 
L 3372 0 
L 2619 2869 
L 1863 0 
L 1184 0 
L 269 3500 
z
" transform="scale(0.015625)"/>
       <path id="DejaVuSans-64" d="M 2906 2969 
L 2906 4863 
L 3481 4863 
L 3481 0 
L 2906 0 
L 2906 525 
Q 2725 213 2448 61 
Q 2172 -91 1784 -91 
Q 1150 -91 751 415 
Q 353 922 353 1747 
Q 353 2572 751 3078 
Q 1150 3584 1784 3584 
Q 2172 3584 2448 3432 
Q 2725 3281 2906 2969 
z
M 947 1747 
Q 947 1113 1208 752 
Q 1469 391 1925 391 
Q 2381 391 2643 752 
Q 2906 1113 2906 1747 
Q 2906 2381 2643 2742 
Q 2381 3103 1925 3103 
Q 1469 3103 1208 2742 
Q 947 2381 947 1747 
z
" transform="scale(0.015625)"/>
      </defs>
      <use xlink:href="#DejaVuSans-41"/>
      <use xlink:href="#DejaVuSans-76" transform="translate(62.533203 0)"/>
      <use xlink:href="#DejaVuSans-65" transform="translate(121.712891 0)"/>
      <use xlink:href="#DejaVuSans-72" transform="translate(183.236328 0)"/>
      <use xlink:href="#DejaVuSans-61" transform="translate(224.349609 0)"/>
      <use xlink:href="#DejaVuSans-67" transform="translate(285.628906 0)"/>
      <use xlink:href="#DejaVuSans-65" transform="translate(349.105469 0)"/>
      <use xlink:href="#DejaVuSans-20" transform="translate(410.628906 0)"/>
      <use xlink:href="#DejaVuSans-52" transform="translate(442.416016 0)"/>
      <use xlink:href="#DejaVuSans-65" transform="translate(507.398438 0)"/>
      <use xlink:href="#DejaVuSans-77" transform="translate(568.921875 0)"/>
      <use xlink:href="#DejaVuSans-61" transform="translate(650.708984 0)"/>
      <use xlink:href="#DejaVuSans-72" transform="translate(711.988281 0)"/>
      <use xlink:href="#DejaVuSans-64" transform="translate(751.351562 0)"/>
     </g>
    </g>
   </g>
   <g id="matplotlib.axis_2">
    <g id="ytick_1">
     <g id="line2d_15">
      <path d="M 90 369.662703 
L 648 369.662703 
" clip-path="url(#pb7bce299a5)" style="fill: none; stroke: #b0b0b0; stroke-width: 0.8; stroke-linecap: square"/>
     </g>
     <g id="line2d_16">
      <defs>
       <path id="mce1bb4136d" d="M 0 0 
L -3.5 0 
" style="stroke: #000000; stroke-width: 0.8"/>
      </defs>
      <g>
       <use xlink:href="#mce1bb4136d" x="90" y="369.662703" style="stroke: #000000; stroke-width: 0.8"/>
      </g>
     </g>
     <g id="text_9">
      <!-- 0.0 -->
      <g transform="translate(67.096875 373.461921) scale(0.1 -0.1)">
       <use xlink:href="#DejaVuSans-30"/>
       <use xlink:href="#DejaVuSans-2e" transform="translate(63.623047 0)"/>
       <use xlink:href="#DejaVuSans-30" transform="translate(95.410156 0)"/>
      </g>
     </g>
    </g>
    <g id="ytick_2">
     <g id="line2d_17">
      <path d="M 90 309.122162 
L 648 309.122162 
" clip-path="url(#pb7bce299a5)" style="fill: none; stroke: #b0b0b0; stroke-width: 0.8; stroke-linecap: square"/>
     </g>
     <g id="line2d_18">
      <g>
       <use xlink:href="#mce1bb4136d" x="90" y="309.122162" style="stroke: #000000; stroke-width: 0.8"/>
      </g>
     </g>
     <g id="text_10">
      <!-- 0.2 -->
      <g transform="translate(67.096875 312.921381) scale(0.1 -0.1)">
       <use xlink:href="#DejaVuSans-30"/>
       <use xlink:href="#DejaVuSans-2e" transform="translate(63.623047 0)"/>
       <use xlink:href="#DejaVuSans-32" transform="translate(95.410156 0)"/>
      </g>
     </g>
    </g>
    <g id="ytick_3">
     <g id="line2d_19">
      <path d="M 90 248.581622 
L 648 248.581622 
" clip-path="url(#pb7bce299a5)" style="fill: none; stroke: #b0b0b0; stroke-width: 0.8; stroke-linecap: square"/>
     </g>
     <g id="line2d_20">
      <g>
       <use xlink:href="#mce1bb4136d" x="90" y="248.581622" style="stroke: #000000; stroke-width: 0.8"/>
      </g>
     </g>
     <g id="text_11">
      <!-- 0.4 -->
      <g transform="translate(67.096875 252.38084) scale(0.1 -0.1)">
       <defs>
        <path id="DejaVuSans-34" d="M 2419 4116 
L 825 1625 
L 2419 1625 
L 2419 4116 
z
M 2253 4666 
L 3047 4666 
L 3047 1625 
L 3713 1625 
L 3713 1100 
L 3047 1100 
L 3047 0 
L 2419 0 
L 2419 1100 
L 313 1100 
L 313 1709 
L 2253 4666 
z
" transform="scale(0.015625)"/>
       </defs>
       <use xlink:href="#DejaVuSans-30"/>
       <use xlink:href="#DejaVuSans-2e" transform="translate(63.623047 0)"/>
       <use xlink:href="#DejaVuSans-34" transform="translate(95.410156 0)"/>
      </g>
     </g>
    </g>
    <g id="ytick_4">
     <g id="line2d_21">
      <path d="M 90 188.041081 
L 648 188.041081 
" clip-path="url(#pb7bce299a5)" style="fill: none; stroke: #b0b0b0; stroke-width: 0.8; stroke-linecap: square"/>
     </g>
     <g id="line2d_22">
      <g>
       <use xlink:href="#mce1bb4136d" x="90" y="188.041081" style="stroke: #000000; stroke-width: 0.8"/>
      </g>
     </g>
     <g id="text_12">
      <!-- 0.6 -->
      <g transform="translate(67.096875 191.8403) scale(0.1 -0.1)">
       <defs>
        <path id="DejaVuSans-36" d="M 2113 2584 
Q 1688 2584 1439 2293 
Q 1191 2003 1191 1497 
Q 1191 994 1439 701 
Q 1688 409 2113 409 
Q 2538 409 2786 701 
Q 3034 994 3034 1497 
Q 3034 2003 2786 2293 
Q 2538 2584 2113 2584 
z
M 3366 4563 
L 3366 3988 
Q 3128 4100 2886 4159 
Q 2644 4219 2406 4219 
Q 1781 4219 1451 3797 
Q 1122 3375 1075 2522 
Q 1259 2794 1537 2939 
Q 1816 3084 2150 3084 
Q 2853 3084 3261 2657 
Q 3669 2231 3669 1497 
Q 3669 778 3244 343 
Q 2819 -91 2113 -91 
Q 1303 -91 875 529 
Q 447 1150 447 2328 
Q 447 3434 972 4092 
Q 1497 4750 2381 4750 
Q 2619 4750 2861 4703 
Q 3103 4656 3366 4563 
z
" transform="scale(0.015625)"/>
       </defs>
       <use xlink:href="#DejaVuSans-30"/>
       <use xlink:href="#DejaVuSans-2e" transform="translate(63.623047 0)"/>
       <use xlink:href="#DejaVuSans-36" transform="translate(95.410156 0)"/>
      </g>
     </g>
    </g>
    <g id="ytick_5">
     <g id="line2d_23">
      <path d="M 90 127.500541 
L 648 127.500541 
" clip-path="url(#pb7bce299a5)" style="fill: none; stroke: #b0b0b0; stroke-width: 0.8; stroke-linecap: square"/>
     </g>
     <g id="line2d_24">
      <g>
       <use xlink:href="#mce1bb4136d" x="90" y="127.500541" style="stroke: #000000; stroke-width: 0.8"/>
      </g>
     </g>
     <g id="text_13">
      <!-- 0.8 -->
      <g transform="translate(67.096875 131.299759) scale(0.1 -0.1)">
       <defs>
        <path id="DejaVuSans-38" d="M 2034 2216 
Q 1584 2216 1326 1975 
Q 1069 1734 1069 1313 
Q 1069 891 1326 650 
Q 1584 409 2034 409 
Q 2484 409 2743 651 
Q 3003 894 3003 1313 
Q 3003 1734 2745 1975 
Q 2488 2216 2034 2216 
z
M 1403 2484 
Q 997 2584 770 2862 
Q 544 3141 544 3541 
Q 544 4100 942 4425 
Q 1341 4750 2034 4750 
Q 2731 4750 3128 4425 
Q 3525 4100 3525 3541 
Q 3525 3141 3298 2862 
Q 3072 2584 2669 2484 
Q 3125 2378 3379 2068 
Q 3634 1759 3634 1313 
Q 3634 634 3220 271 
Q 2806 -91 2034 -91 
Q 1263 -91 848 271 
Q 434 634 434 1313 
Q 434 1759 690 2068 
Q 947 2378 1403 2484 
z
M 1172 3481 
Q 1172 3119 1398 2916 
Q 1625 2713 2034 2713 
Q 2441 2713 2670 2916 
Q 2900 3119 2900 3481 
Q 2900 3844 2670 4047 
Q 2441 4250 2034 4250 
Q 1625 4250 1398 4047 
Q 1172 3844 1172 3481 
z
" transform="scale(0.015625)"/>
       </defs>
       <use xlink:href="#DejaVuSans-30"/>
       <use xlink:href="#DejaVuSans-2e" transform="translate(63.623047 0)"/>
       <use xlink:href="#DejaVuSans-38" transform="translate(95.410156 0)"/>
      </g>
     </g>
    </g>
    <g id="ytick_6">
     <g id="line2d_25">
      <path d="M 90 66.96 
L 648 66.96 
" clip-path="url(#pb7bce299a5)" style="fill: none; stroke: #b0b0b0; stroke-width: 0.8; stroke-linecap: square"/>
     </g>
     <g id="line2d_26">
      <g>
       <use xlink:href="#mce1bb4136d" x="90" y="66.96" style="stroke: #000000; stroke-width: 0.8"/>
      </g>
     </g>
     <g id="text_14">
      <!-- 1.0 -->
      <g transform="translate(67.096875 70.759219) scale(0.1 -0.1)">
       <use xlink:href="#DejaVuSans-31"/>
       <use xlink:href="#DejaVuSans-2e" transform="translate(63.623047 0)"/>
       <use xlink:href="#DejaVuSans-30" transform="translate(95.410156 0)"/>
      </g>
     </g>
    </g>
    <g id="text_15">
     <!-- Cumulative Density -->
     <g transform="translate(61.017187 267.295156) rotate(-90) scale(0.1 -0.1)">
      <defs>
       <path id="DejaVuSans-43" d="M 4122 4306 
L 4122 3641 
Q 3803 3938 3442 4084 
Q 3081 4231 2675 4231 
Q 1875 4231 1450 3742 
Q 1025 3253 1025 2328 
Q 1025 1406 1450 917 
Q 1875 428 2675 428 
Q 3081 428 3442 575 
Q 3803 722 4122 1019 
L 4122 359 
Q 3791 134 3420 21 
Q 3050 -91 2638 -91 
Q 1578 -91 968 557 
Q 359 1206 359 2328 
Q 359 3453 968 4101 
Q 1578 4750 2638 4750 
Q 3056 4750 3426 4639 
Q 3797 4528 4122 4306 
z
" transform="scale(0.015625)"/>
       <path id="DejaVuSans-75" d="M 544 1381 
L 544 3500 
L 1119 3500 
L 1119 1403 
Q 1119 906 1312 657 
Q 1506 409 1894 409 
Q 2359 409 2629 706 
Q 2900 1003 2900 1516 
L 2900 3500 
L 3475 3500 
L 3475 0 
L 2900 0 
L 2900 538 
Q 2691 219 2414 64 
Q 2138 -91 1772 -91 
Q 1169 -91 856 284 
Q 544 659 544 1381 
z
M 1991 3584 
L 1991 3584 
z
" transform="scale(0.015625)"/>
       <path id="DejaVuSans-6d" d="M 3328 2828 
Q 3544 3216 3844 3400 
Q 4144 3584 4550 3584 
Q 5097 3584 5394 3201 
Q 5691 2819 5691 2113 
L 5691 0 
L 5113 0 
L 5113 2094 
Q 5113 2597 4934 2840 
Q 4756 3084 4391 3084 
Q 3944 3084 3684 2787 
Q 3425 2491 3425 1978 
L 3425 0 
L 2847 0 
L 2847 2094 
Q 2847 2600 2669 2842 
Q 2491 3084 2119 3084 
Q 1678 3084 1418 2786 
Q 1159 2488 1159 1978 
L 1159 0 
L 581 0 
L 581 3500 
L 1159 3500 
L 1159 2956 
Q 1356 3278 1631 3431 
Q 1906 3584 2284 3584 
Q 2666 3584 2933 3390 
Q 3200 3197 3328 2828 
z
" transform="scale(0.015625)"/>
       <path id="DejaVuSans-6c" d="M 603 4863 
L 1178 4863 
L 1178 0 
L 603 0 
L 603 4863 
z
" transform="scale(0.015625)"/>
       <path id="DejaVuSans-74" d="M 1172 4494 
L 1172 3500 
L 2356 3500 
L 2356 3053 
L 1172 3053 
L 1172 1153 
Q 1172 725 1289 603 
Q 1406 481 1766 481 
L 2356 481 
L 2356 0 
L 1766 0 
Q 1100 0 847 248 
Q 594 497 594 1153 
L 594 3053 
L 172 3053 
L 172 3500 
L 594 3500 
L 594 4494 
L 1172 4494 
z
" transform="scale(0.015625)"/>
       <path id="DejaVuSans-69" d="M 603 3500 
L 1178 3500 
L 1178 0 
L 603 0 
L 603 3500 
z
M 603 4863 
L 1178 4863 
L 1178 4134 
L 603 4134 
L 603 4863 
z
" transform="scale(0.015625)"/>
       <path id="DejaVuSans-44" d="M 1259 4147 
L 1259 519 
L 2022 519 
Q 2988 519 3436 956 
Q 3884 1394 3884 2338 
Q 3884 3275 3436 3711 
Q 2988 4147 2022 4147 
L 1259 4147 
z
M 628 4666 
L 1925 4666 
Q 3281 4666 3915 4102 
Q 4550 3538 4550 2338 
Q 4550 1131 3912 565 
Q 3275 0 1925 0 
L 628 0 
L 628 4666 
z
" transform="scale(0.015625)"/>
       <path id="DejaVuSans-6e" d="M 3513 2113 
L 3513 0 
L 2938 0 
L 2938 2094 
Q 2938 2591 2744 2837 
Q 2550 3084 2163 3084 
Q 1697 3084 1428 2787 
Q 1159 2491 1159 1978 
L 1159 0 
L 581 0 
L 581 3500 
L 1159 3500 
L 1159 2956 
Q 1366 3272 1645 3428 
Q 1925 3584 2291 3584 
Q 2894 3584 3203 3211 
Q 3513 2838 3513 2113 
z
" transform="scale(0.015625)"/>
       <path id="DejaVuSans-73" d="M 2834 3397 
L 2834 2853 
Q 2591 2978 2328 3040 
Q 2066 3103 1784 3103 
Q 1356 3103 1142 2972 
Q 928 2841 928 2578 
Q 928 2378 1081 2264 
Q 1234 2150 1697 2047 
L 1894 2003 
Q 2506 1872 2764 1633 
Q 3022 1394 3022 966 
Q 3022 478 2636 193 
Q 2250 -91 1575 -91 
Q 1294 -91 989 -36 
Q 684 19 347 128 
L 347 722 
Q 666 556 975 473 
Q 1284 391 1588 391 
Q 1994 391 2212 530 
Q 2431 669 2431 922 
Q 2431 1156 2273 1281 
Q 2116 1406 1581 1522 
L 1381 1569 
Q 847 1681 609 1914 
Q 372 2147 372 2553 
Q 372 3047 722 3315 
Q 1072 3584 1716 3584 
Q 2034 3584 2315 3537 
Q 2597 3491 2834 3397 
z
" transform="scale(0.015625)"/>
       <path id="DejaVuSans-79" d="M 2059 -325 
Q 1816 -950 1584 -1140 
Q 1353 -1331 966 -1331 
L 506 -1331 
L 506 -850 
L 844 -850 
Q 1081 -850 1212 -737 
Q 1344 -625 1503 -206 
L 1606 56 
L 191 3500 
L 800 3500 
L 1894 763 
L 2988 3500 
L 3597 3500 
L 2059 -325 
z
" transform="scale(0.015625)"/>
      </defs>
      <use xlink:href="#DejaVuSans-43"/>
      <use xlink:href="#DejaVuSans-75" transform="translate(69.824219 0)"/>
      <use xlink:href="#DejaVuSans-6d" transform="translate(133.203125 0)"/>
      <use xlink:href="#DejaVuSans-75" transform="translate(230.615234 0)"/>
      <use xlink:href="#DejaVuSans-6c" transform="translate(293.994141 0)"/>
      <use xlink:href="#DejaVuSans-61" transform="translate(321.777344 0)"/>
      <use xlink:href="#DejaVuSans-74" transform="translate(383.056641 0)"/>
      <use xlink:href="#DejaVuSans-69" transform="translate(422.265625 0)"/>
      <use xlink:href="#DejaVuSans-76" transform="translate(450.048828 0)"/>
      <use xlink:href="#DejaVuSans-65" transform="translate(509.228516 0)"/>
      <use xlink:href="#DejaVuSans-20" transform="translate(570.751953 0)"/>
      <use xlink:href="#DejaVuSans-44" transform="translate(602.539062 0)"/>
      <use xlink:href="#DejaVuSans-65" transform="translate(679.541016 0)"/>
      <use xlink:href="#DejaVuSans-6e" transform="translate(741.064453 0)"/>
      <use xlink:href="#DejaVuSans-73" transform="translate(804.443359 0)"/>
      <use xlink:href="#DejaVuSans-69" transform="translate(856.542969 0)"/>
      <use xlink:href="#DejaVuSans-74" transform="translate(884.326172 0)"/>
      <use xlink:href="#DejaVuSans-79" transform="translate(923.535156 0)"/>
     </g>
    </g>
   </g>
   <g id="line2d_27">
    <path d="M 201.345592 369.36 
L 231.764274 368.754595 
L 251.40854 368.451892 
L 256.655102 368.149189 
L 257.139822 367.846486 
L 260.072601 367.543784 
L 264.819824 367.241081 
L 265.00883 366.938378 
L 265.640368 366.635676 
L 265.649358 366.332973 
L 266.117661 366.03027 
L 271.40905 365.727568 
L 273.956146 365.424865 
L 274.676548 365.122162 
L 275.310548 364.516757 
L 277.142134 363.911351 
L 277.207544 363.608649 
L 277.572124 363.305946 
L 279.309026 363.003243 
L 279.368983 362.700541 
L 280.834803 362.095135 
L 282.39605 361.792432 
L 283.207743 361.48973 
L 283.249647 361.187027 
L 283.520669 360.884324 
L 284.153426 360.581622 
L 284.358472 360.278919 
L 286.348006 359.976216 
L 286.491634 359.673514 
L 287.661998 359.370811 
L 287.680171 359.068108 
L 288.172276 358.16 
L 288.423083 357.857297 
L 290.42521 356.949189 
L 290.752367 356.343784 
L 292.551067 355.738378 
L 293.156925 355.132973 
L 294.102813 354.83027 
L 294.525233 353.922162 
L 294.550008 353.619459 
L 295.214108 353.014054 
L 295.860037 352.711351 
L 296.286663 352.105946 
L 296.6699 351.803243 
L 297.335453 350.895135 
L 297.549139 350.592432 
L 297.576655 350.28973 
L 298.263147 349.987027 
L 299.000773 348.776216 
L 299.635102 347.565405 
L 300.208666 346.657297 
L 300.560946 346.354595 
L 300.586234 346.051892 
L 300.822497 345.749189 
L 301.158107 344.538378 
L 301.654288 343.932973 
L 302.017452 343.327568 
L 302.47879 343.024865 
L 302.714843 342.722162 
L 302.758419 342.116757 
L 303.465292 340.905946 
L 303.48062 340.603243 
L 304.487374 340.300541 
L 305.302078 338.484324 
L 306.102888 337.576216 
L 306.845913 337.273514 
L 306.980764 336.970811 
L 308.070771 335.76 
L 308.164529 335.457297 
L 308.646487 334.851892 
L 309.144919 333.943784 
L 309.634551 333.338378 
L 310.006595 333.035676 
L 310.185307 332.732973 
L 310.192997 332.43027 
L 310.33725 332.127568 
L 311.194343 331.824865 
L 311.314863 331.522162 
L 311.632974 331.219459 
L 312.510008 330.916757 
L 312.524301 330.614054 
L 312.857128 330.008649 
L 312.9517 329.100541 
L 313.784991 328.495135 
L 313.835878 328.192432 
L 314.085872 327.88973 
L 314.854597 327.587027 
L 315.021087 326.981622 
L 315.204406 326.073514 
L 315.565971 325.770811 
L 315.999258 324.56 
L 317.052197 324.257297 
L 317.102542 323.651892 
L 318.24984 323.349189 
L 318.329101 322.743784 
L 318.547696 321.835676 
L 318.685083 321.23027 
L 318.706444 320.927568 
L 318.97988 320.322162 
L 319.009789 320.019459 
L 319.84485 319.716757 
L 320.103939 318.808649 
L 320.359128 318.505946 
L 320.365755 318.203243 
L 320.897136 317.597838 
L 321.022926 316.992432 
L 321.221222 316.68973 
L 321.230676 316.387027 
L 321.827382 315.478919 
L 321.956812 314.570811 
L 322.195673 314.268108 
L 322.380587 313.36 
L 323.15855 312.754595 
L 323.221461 312.451892 
L 323.636628 311.846486 
L 324.45881 309.122162 
L 324.478464 308.819459 
L 324.740582 308.516757 
L 325.051426 307.305946 
L 325.564826 307.003243 
L 325.672567 306.397838 
L 326.063955 306.095135 
L 326.48469 305.187027 
L 326.739024 304.884324 
L 326.837141 304.278919 
L 326.854679 303.976216 
L 327.102044 303.673514 
L 327.107398 303.370811 
L 327.867467 301.554595 
L 328.137706 301.251892 
L 328.202911 300.949189 
L 328.50221 300.646486 
L 328.621802 300.041081 
L 328.956463 299.435676 
L 329.073052 299.132973 
L 329.557918 298.83027 
L 329.562231 298.527568 
L 329.729026 297.922162 
L 329.974106 297.014054 
L 330.037873 296.711351 
L 330.457841 296.105946 
L 330.45889 295.803243 
L 330.928615 294.592432 
L 331.486769 294.28973 
L 332.432472 292.776216 
L 332.594605 292.170811 
L 332.927026 291.868108 
L 333.111136 291.262703 
L 333.510364 290.96 
L 333.635389 290.051892 
L 334.000456 289.749189 
L 334.903643 289.446486 
L 335.418019 289.143784 
L 335.487044 288.538378 
L 335.744265 288.235676 
L 336.008228 286.722162 
L 336.234925 286.419459 
L 336.344749 285.814054 
L 336.544773 284.905946 
L 336.986814 284.603243 
L 337.295478 283.997838 
L 337.718732 282.181622 
L 338.018436 281.878919 
L 338.620525 279.76 
L 338.679832 279.457297 
L 338.956608 279.154595 
L 339.038665 278.549189 
L 339.146182 277.943784 
L 339.331754 277.035676 
L 339.843905 275.522162 
L 339.903246 275.219459 
L 340.463569 274.311351 
L 340.941082 273.403243 
L 342.205419 271.587027 
L 342.453776 270.981622 
L 342.47635 270.678919 
L 342.616313 270.376216 
L 342.901136 270.073514 
L 342.911958 269.468108 
L 343.121494 268.862703 
L 343.18163 268.56 
L 343.496388 268.257297 
L 343.520864 267.954595 
L 343.879875 267.046486 
L 344.108673 265.835676 
L 344.182174 265.532973 
L 344.527249 265.23027 
L 344.754772 264.322162 
L 344.947694 264.019459 
L 345.028788 263.414054 
L 345.881552 261.597838 
L 346.1167 260.68973 
L 346.497194 259.781622 
L 346.605412 258.570811 
L 346.91827 255.846486 
L 347.127165 255.241081 
L 347.357409 254.938378 
L 347.39682 254.635676 
L 348.587862 253.727568 
L 348.702008 253.122162 
L 349.010234 252.819459 
L 349.067697 251.608649 
L 349.448322 251.305946 
L 349.659896 250.700541 
L 350.106745 250.397838 
L 350.397513 249.48973 
L 350.667127 248.884324 
L 351.59792 245.857297 
L 351.713554 244.949189 
L 353.004631 241.619459 
L 353.263837 240.408649 
L 353.719001 239.500541 
L 353.733027 239.197838 
L 353.999774 238.895135 
L 354.225797 237.684324 
L 354.324077 237.381622 
L 354.773143 237.078919 
L 354.894914 236.170811 
L 355.236423 235.868108 
L 355.338157 234.96 
L 355.665059 234.354595 
L 355.958762 234.051892 
L 356.691632 231.024865 
L 356.948311 229.511351 
L 357.217454 229.208649 
L 357.34201 228.603243 
L 357.450446 227.997838 
L 358.014773 227.392432 
L 358.194084 226.484324 
L 358.292307 225.878919 
L 358.787505 225.576216 
L 359.042922 224.970811 
L 359.411107 224.668108 
L 359.52968 223.154595 
L 359.726118 222.246486 
L 360.335136 221.943784 
L 360.543138 221.338378 
L 360.706623 220.127568 
L 360.979457 219.824865 
L 361.04453 219.219459 
L 361.239734 218.916757 
L 361.435351 217.705946 
L 361.685957 217.100541 
L 361.72197 215.88973 
L 362.292486 215.284324 
L 362.295775 214.981622 
L 362.735456 214.073514 
L 362.738047 213.770811 
L 362.943942 213.468108 
L 363.161149 211.954595 
L 363.414104 211.349189 
L 363.702761 210.743784 
L 364.001335 210.441081 
L 364.048028 210.138378 
L 364.576125 208.927568 
L 364.754616 207.716757 
L 364.88548 206.808649 
L 364.926783 206.505946 
L 365.205484 206.203243 
L 365.513279 205.597838 
L 365.975604 204.68973 
L 366.329017 204.387027 
L 366.350027 204.084324 
L 366.745212 203.781622 
L 366.952565 203.478919 
L 367.109023 202.570811 
L 367.66328 202.268108 
L 368.006929 200.754595 
L 368.369262 200.149189 
L 368.764746 199.846486 
L 368.88454 199.241081 
L 369.185338 198.635676 
L 369.259664 198.03027 
L 369.617183 197.424865 
L 370.06389 196.516757 
L 370.501928 196.214054 
L 370.71808 195.911351 
L 370.771807 195.608649 
L 371.035411 195.003243 
L 371.153502 194.397838 
L 371.582139 193.48973 
L 371.602219 193.187027 
L 371.969566 192.884324 
L 372.116324 192.278919 
L 372.120723 191.976216 
L 372.355183 191.673514 
L 372.520293 189.554595 
L 372.861416 188.949189 
L 372.92998 188.343784 
L 373.507947 188.041081 
L 373.938393 186.527568 
L 374.054823 185.619459 
L 374.272482 185.014054 
L 374.526421 184.711351 
L 374.776464 182.895135 
L 374.815193 182.592432 
L 374.973502 182.28973 
L 374.995296 181.987027 
L 375.53852 180.776216 
L 375.710877 179.868108 
L 375.963502 179.565405 
L 376.042384 179.262703 
L 376.285013 178.96 
L 376.291961 178.657297 
L 376.874388 178.051892 
L 377.004004 177.143784 
L 377.224504 175.932973 
L 377.525528 175.63027 
L 377.738405 174.116757 
L 378.118017 173.814054 
L 379.245157 171.695135 
L 379.618453 170.484324 
L 380.126411 169.878919 
L 380.504159 168.365405 
L 381.093095 167.154595 
L 381.28344 166.246486 
L 381.515699 165.943784 
L 381.594329 165.641081 
L 381.939408 165.338378 
L 382.234909 164.43027 
L 382.8345 164.127568 
L 383.11157 163.824865 
L 383.202934 162.916757 
L 384.181666 161.403243 
L 384.324874 160.797838 
L 384.325816 160.495135 
L 385.117377 160.192432 
L 385.135712 159.88973 
L 385.277961 159.587027 
L 385.697932 159.284324 
L 385.793875 158.376216 
L 386.107341 158.073514 
L 386.211979 157.770811 
L 386.652198 157.468108 
L 386.727088 157.165405 
L 387.256608 156.56 
L 387.284246 156.257297 
L 387.744268 155.954595 
L 387.800341 155.651892 
L 388.119801 155.349189 
L 388.240359 154.743784 
L 388.394696 154.441081 
L 388.515613 153.532973 
L 388.618364 152.927568 
L 389.50264 148.992432 
L 390.514082 146.570811 
L 390.988645 146.268108 
L 391.101079 145.36 
L 392.355198 143.846486 
L 392.988458 143.543784 
L 393.234799 143.241081 
L 393.840809 141.424865 
L 394.652698 141.122162 
L 394.857533 140.819459 
L 395.603526 140.214054 
L 396.187434 139.911351 
L 396.397294 139.305946 
L 396.527539 138.700541 
L 397.283215 137.48973 
L 397.347384 136.884324 
L 397.60234 136.581622 
L 397.797623 135.976216 
L 397.967407 135.673514 
L 397.984965 135.370811 
L 398.269323 135.068108 
L 398.502065 134.16 
L 398.509684 133.857297 
L 399.191437 132.949189 
L 399.453654 132.343784 
L 399.697701 132.041081 
L 399.748116 131.738378 
L 399.95695 131.435676 
L 400.451726 129.316757 
L 400.733748 129.014054 
L 400.768226 128.408649 
L 401.541008 128.105946 
L 401.804822 127.803243 
L 401.847476 127.500541 
L 402.267661 126.895135 
L 402.400477 126.28973 
L 402.549029 125.987027 
L 403.055414 125.684324 
L 403.848534 125.381622 
L 403.857585 125.078919 
L 404.670415 124.776216 
L 405.359222 123.868108 
L 406.410405 123.565405 
L 406.503969 123.262703 
L 407.27748 122.657297 
L 407.346176 122.354595 
L 407.777198 122.051892 
L 408.34931 121.143784 
L 408.478229 120.538378 
L 408.486494 120.235676 
L 408.916961 119.932973 
L 408.933393 119.63027 
L 409.465321 119.327568 
L 409.474834 119.024865 
L 409.987349 118.116757 
L 410.547887 117.814054 
L 410.948081 115.997838 
L 411.64928 115.08973 
L 411.912167 114.484324 
L 413.090864 111.154595 
L 413.724233 110.851892 
L 413.804749 110.549189 
L 414.492356 109.943784 
L 414.661581 109.641081 
L 414.698607 109.338378 
L 414.927097 109.035676 
L 415.111605 108.43027 
L 415.249184 108.127568 
L 416.311923 106.916757 
L 416.728727 105.403243 
L 417.060178 104.797838 
L 417.604696 104.495135 
L 418.008752 103.88973 
L 418.979637 103.587027 
L 418.988294 103.284324 
L 419.71576 102.981622 
L 419.878316 102.376216 
L 420.268771 102.073514 
L 420.392389 101.468108 
L 421.041526 101.165405 
L 421.056292 100.862703 
L 421.359224 100.56 
L 421.359613 100.257297 
L 422.368639 99.349189 
L 422.39204 99.046486 
L 423.057141 98.743784 
L 423.591777 97.23027 
L 424.868588 96.927568 
L 425.436157 96.624865 
L 425.554932 96.019459 
L 425.801049 95.716757 
L 426.493724 95.111351 
L 426.628174 94.808649 
L 426.929114 94.505946 
L 426.979642 94.203243 
L 427.631509 93.900541 
L 427.839173 93.295135 
L 427.922298 92.992432 
L 428.205034 92.68973 
L 428.424903 92.084324 
L 429.109333 91.781622 
L 429.453211 91.176216 
L 432.042737 89.662703 
L 432.143055 89.36 
L 432.499253 89.057297 
L 432.94551 88.149189 
L 432.995249 87.846486 
L 434.433673 87.241081 
L 434.90079 86.938378 
L 435.118581 86.635676 
L 436.48518 85.727568 
L 438.4359 85.122162 
L 438.895428 84.516757 
L 440.649112 84.214054 
L 441.014772 83.911351 
L 441.140542 83.608649 
L 442.248853 83.305946 
L 442.857515 83.003243 
L 442.874144 82.700541 
L 443.628666 82.397838 
L 443.851799 82.095135 
L 444.800225 81.792432 
L 445.509171 81.187027 
L 447.720164 80.884324 
L 447.910784 80.581622 
L 447.939793 80.278919 
L 448.819048 79.976216 
L 449.940405 79.370811 
L 450.098381 79.068108 
L 450.761765 78.462703 
L 453.944108 78.16 
L 454.997208 77.251892 
L 455.703072 76.949189 
L 455.826938 76.343784 
L 459.607183 75.738378 
L 459.743734 75.435676 
L 460.044108 75.132973 
L 460.40718 74.527568 
L 460.67603 74.224865 
L 460.736777 73.922162 
L 461.079987 73.619459 
L 462.840019 73.316757 
L 463.833437 73.014054 
L 464.332539 72.711351 
L 465.277352 72.408649 
L 465.570269 72.105946 
L 465.595395 71.803243 
L 466.303622 70.895135 
L 469.725118 70.592432 
L 476.205911 70.28973 
L 476.801671 69.987027 
L 482.035461 69.684324 
L 485.279742 69.381622 
L 488.021819 68.776216 
L 508.504 67.868108 
L 528.712373 67.262703 
L 534.525733 66.96 
L 534.525733 66.96 
" clip-path="url(#pb7bce299a5)" style="fill: none; stroke: #1f77b4; stroke-width: 1.5; stroke-linecap: square"/>
   </g>
   <g id="line2d_28">
    <path d="M 363.998635 384.48 
L 363.998635 51.84 
" clip-path="url(#pb7bce299a5)" style="fill: none; stroke-dasharray: 3.7,1.6; stroke-dashoffset: 0; stroke: #1f77b4"/>
   </g>
   <g id="line2d_29">
    <path d="M 183.245317 369.36 
L 187.597144 369.057297 
L 189.111145 368.754595 
L 189.829969 368.451892 
L 192.925316 368.149189 
L 193.985286 367.846486 
L 199.193415 367.543784 
L 202.383505 367.241081 
L 202.596914 366.938378 
L 206.650622 366.03027 
L 207.137771 365.727568 
L 208.700059 365.122162 
L 208.735793 364.819459 
L 211.331095 364.516757 
L 212.67017 363.911351 
L 212.73045 363.305946 
L 214.072489 362.700541 
L 214.166386 362.397838 
L 214.691285 362.095135 
L 214.965204 361.792432 
L 215.00135 361.48973 
L 215.329192 361.187027 
L 215.343757 360.884324 
L 215.679939 360.581622 
L 216.298109 360.278919 
L 217.70896 359.976216 
L 217.908127 359.673514 
L 217.94378 359.370811 
L 218.80661 358.765405 
L 218.896993 358.16 
L 220.938935 357.857297 
L 221.880495 356.949189 
L 222.78811 356.646486 
L 223.438733 356.041081 
L 224.206527 354.83027 
L 225.138163 354.527568 
L 225.295388 353.922162 
L 225.67003 353.619459 
L 225.800225 352.711351 
L 226.36664 352.408649 
L 226.636749 352.105946 
L 226.661754 351.803243 
L 226.817597 351.500541 
L 227.330192 351.197838 
L 227.43765 350.895135 
L 227.98008 350.592432 
L 228.337185 349.987027 
L 228.63074 349.684324 
L 228.65041 349.381622 
L 228.997698 349.078919 
L 229.531387 348.776216 
L 229.611071 348.170811 
L 230.024709 347.565405 
L 230.137352 347.262703 
L 230.596933 346.96 
L 230.668784 346.354595 
L 230.915904 346.051892 
L 230.965499 345.749189 
L 231.563479 345.446486 
L 231.60977 345.143784 
L 231.976427 344.841081 
L 232.289947 344.235676 
L 232.671956 343.932973 
L 232.921651 343.327568 
L 233.263853 343.024865 
L 233.937891 341.814054 
L 234.13024 341.511351 
L 234.175636 340.905946 
L 234.471057 340.603243 
L 234.497651 340.300541 
L 235.246105 339.695135 
L 235.498282 339.08973 
L 236.19988 337.273514 
L 236.473372 336.970811 
L 236.803803 336.365405 
L 237.021235 336.062703 
L 237.056813 335.76 
L 237.310851 335.457297 
L 237.347513 334.851892 
L 237.536899 334.549189 
L 237.728827 333.641081 
L 238.198701 333.338378 
L 238.309093 332.43027 
L 238.656958 331.824865 
L 239.084109 330.311351 
L 239.101359 330.008649 
L 239.372697 329.705946 
L 239.506592 328.797838 
L 239.702449 328.192432 
L 239.967759 327.88973 
L 240.118826 326.981622 
L 240.610188 325.770811 
L 240.994515 324.862703 
L 241.349876 324.56 
L 241.381675 324.257297 
L 242.164363 323.046486 
L 242.408737 322.441081 
L 243.164609 321.532973 
L 243.236539 321.23027 
L 243.491597 320.927568 
L 243.810593 318.808649 
L 244.203766 318.505946 
L 244.487614 316.68973 
L 244.494075 316.387027 
L 244.725128 316.084324 
L 244.916271 315.478919 
L 245.167701 315.176216 
L 245.377756 314.268108 
L 245.657765 313.965405 
L 246.021809 311.846486 
L 246.350821 310.332973 
L 246.418796 309.424865 
L 246.727918 307.911351 
L 246.749707 307.608649 
L 246.998414 307.305946 
L 247.055702 306.700541 
L 247.256588 306.397838 
L 247.425273 305.792432 
L 247.846987 305.187027 
L 248.109315 304.278919 
L 248.116094 303.976216 
L 248.371767 303.673514 
L 248.630507 302.765405 
L 248.897788 302.462703 
L 248.997539 301.857297 
L 249.67661 300.949189 
L 249.679745 300.646486 
L 249.82676 300.343784 
L 249.847049 300.041081 
L 250.070896 299.435676 
L 250.190209 298.527568 
L 250.43673 298.224865 
L 251.133474 297.922162 
L 251.143701 297.619459 
L 251.520962 297.316757 
L 251.74114 295.803243 
L 252.014883 294.592432 
L 252.061433 293.987027 
L 252.26776 293.381622 
L 252.379502 292.776216 
L 252.938401 292.473514 
L 253.168712 291.565405 
L 253.569751 291.262703 
L 254.08129 290.051892 
L 254.309607 289.446486 
L 254.345379 289.143784 
L 254.839633 288.538378 
L 255.401545 287.024865 
L 255.695104 286.722162 
L 256.316579 283.997838 
L 257.064137 282.787027 
L 257.2953 282.181622 
L 257.655684 280.365405 
L 257.808628 279.76 
L 258.120231 279.457297 
L 258.135581 278.851892 
L 258.335957 278.549189 
L 258.452625 277.943784 
L 259.08611 277.035676 
L 259.097714 276.732973 
L 259.349052 276.127568 
L 259.388923 275.824865 
L 259.618949 275.219459 
L 259.635734 274.916757 
L 259.782147 274.614054 
L 260.100338 274.311351 
L 260.301397 272.495135 
L 260.795148 269.770811 
L 261.647978 268.56 
L 262.343329 266.441081 
L 262.840154 265.835676 
L 263.746262 262.808649 
L 264.275887 261.295135 
L 264.310862 260.992432 
L 264.720138 260.68973 
L 264.830359 259.781622 
L 265.191605 259.176216 
L 265.631091 257.057297 
L 266.141973 256.754595 
L 267.247398 254.332973 
L 267.271603 254.03027 
L 267.924892 252.516757 
L 268.011987 251.305946 
L 268.261778 251.003243 
L 268.285017 250.397838 
L 268.504837 250.095135 
L 268.676614 248.884324 
L 268.91981 248.581622 
L 269.099037 247.673514 
L 269.167629 247.068108 
L 269.492061 246.765405 
L 269.568631 245.554595 
L 270.03814 243.132973 
L 270.116884 242.527568 
L 270.349703 242.224865 
L 270.402794 241.619459 
L 270.712813 241.316757 
L 270.897504 240.711351 
L 270.986408 239.500541 
L 271.363036 238.895135 
L 271.412326 238.28973 
L 271.566861 237.684324 
L 271.567804 237.381622 
L 271.789987 236.776216 
L 272.430514 234.96 
L 272.679305 234.354595 
L 272.994882 232.841081 
L 273.260168 232.235676 
L 273.416709 231.63027 
L 273.496287 230.116757 
L 273.694928 229.814054 
L 273.698764 229.208649 
L 273.857869 228.603243 
L 273.901961 228.300541 
L 274.187165 227.997838 
L 274.504537 226.484324 
L 274.69752 226.181622 
L 274.750912 225.576216 
L 275.096981 225.273514 
L 275.574922 223.76 
L 275.750966 222.549189 
L 275.95346 222.246486 
L 276.003566 221.943784 
L 276.383108 221.641081 
L 276.406645 221.338378 
L 276.870324 220.43027 
L 277.159402 218.916757 
L 277.312562 218.614054 
L 277.504356 217.100541 
L 277.636505 216.192432 
L 277.751189 215.284324 
L 278.010996 214.981622 
L 278.253955 213.468108 
L 278.45285 212.56 
L 278.552498 212.257297 
L 278.976319 211.954595 
L 279.189 211.651892 
L 279.562776 208.624865 
L 279.814068 208.322162 
L 279.899078 207.716757 
L 280.142159 207.111351 
L 280.154822 206.808649 
L 280.390131 206.505946 
L 280.823984 206.203243 
L 281.025822 205.295135 
L 281.210317 204.084324 
L 281.345391 203.478919 
L 281.682708 201.965405 
L 282.129266 201.36 
L 282.198315 201.057297 
L 282.483257 200.451892 
L 282.627708 200.149189 
L 282.715641 199.543784 
L 282.884978 199.241081 
L 283.226408 197.122162 
L 283.431746 196.819459 
L 283.443666 196.516757 
L 283.696363 196.214054 
L 283.847104 194.700541 
L 284.065181 194.397838 
L 284.513761 194.095135 
L 284.677899 193.792432 
L 285.303311 193.187027 
L 285.441513 192.581622 
L 285.708627 191.976216 
L 286.643871 189.857297 
L 287.10511 188.041081 
L 287.187936 187.132973 
L 287.300322 186.527568 
L 287.352317 186.224865 
L 287.642488 185.922162 
L 287.680232 185.619459 
L 287.897486 185.014054 
L 287.965952 184.408649 
L 288.363652 183.803243 
L 288.890753 180.170811 
L 289.767672 177.749189 
L 290.046283 176.841081 
L 290.326227 176.538378 
L 290.384693 176.235676 
L 290.906822 175.932973 
L 290.913336 175.63027 
L 291.056993 175.327568 
L 291.063516 175.024865 
L 291.444657 174.419459 
L 291.648408 173.814054 
L 291.996662 172.905946 
L 292.032511 172.603243 
L 292.246164 172.300541 
L 292.427928 171.392432 
L 293.321605 169.273514 
L 293.568257 167.154595 
L 294.283963 165.641081 
L 294.452379 164.732973 
L 294.760191 164.43027 
L 294.84754 163.824865 
L 294.983804 163.522162 
L 294.98731 163.219459 
L 295.309883 162.311351 
L 295.492376 161.100541 
L 295.551417 160.797838 
L 295.744227 160.495135 
L 295.953246 159.88973 
L 296.125517 159.284324 
L 296.233048 157.770811 
L 296.465576 156.56 
L 296.679649 155.954595 
L 296.940683 154.743784 
L 297.433721 154.138378 
L 297.83917 153.835676 
L 297.971001 153.23027 
L 298.329525 152.927568 
L 298.577405 152.322162 
L 298.780057 151.111351 
L 299.052351 150.808649 
L 299.374839 149.597838 
L 299.693491 149.295135 
L 299.908418 148.387027 
L 300.243963 148.084324 
L 300.24476 147.781622 
L 300.449992 147.176216 
L 300.582079 146.268108 
L 300.6937 145.662703 
L 300.693896 145.36 
L 301.014591 145.057297 
L 301.447989 142.938378 
L 301.926972 142.03027 
L 302.282853 141.727568 
L 302.38086 141.424865 
L 302.880403 140.819459 
L 302.910219 140.516757 
L 303.35362 140.214054 
L 303.585484 139.608649 
L 303.616877 139.305946 
L 303.842316 139.003243 
L 303.871571 138.700541 
L 304.488691 138.397838 
L 304.700612 137.792432 
L 305.32134 137.48973 
L 305.904338 135.976216 
L 306.153566 135.673514 
L 306.203096 135.068108 
L 306.489967 134.765405 
L 306.760043 133.857297 
L 306.779573 133.554595 
L 306.937822 133.251892 
L 307.009256 132.343784 
L 307.361609 132.041081 
L 307.511592 131.435676 
L 307.619306 131.132973 
L 308.165151 130.83027 
L 308.264752 130.224865 
L 308.370207 129.922162 
L 308.606969 129.619459 
L 308.657751 129.316757 
L 308.978466 128.711351 
L 309.174134 128.408649 
L 309.343975 127.803243 
L 309.487285 127.197838 
L 309.530887 126.895135 
L 309.792565 126.592432 
L 310.243495 125.078919 
L 310.869999 124.473514 
L 311.208583 123.262703 
L 311.650711 122.657297 
L 311.680317 122.354595 
L 312.069598 122.051892 
L 312.511501 120.841081 
L 312.821174 120.235676 
L 312.95971 119.327568 
L 313.222769 118.419459 
L 313.742593 118.116757 
L 314.241494 117.511351 
L 314.316781 117.208649 
L 314.773855 116.300541 
L 314.902023 115.695135 
L 315.230474 115.392432 
L 315.44912 114.484324 
L 315.850918 114.181622 
L 315.917117 113.576216 
L 316.223603 113.273514 
L 316.746673 112.970811 
L 316.812129 112.668108 
L 317.296878 112.062703 
L 317.774894 111.457297 
L 317.889882 110.851892 
L 318.692649 110.549189 
L 319.025206 110.246486 
L 319.395034 109.338378 
L 319.509001 108.732973 
L 320.380968 107.522162 
L 320.410725 107.219459 
L 320.57699 106.916757 
L 320.657464 106.311351 
L 321.732456 105.100541 
L 321.734389 104.797838 
L 322.301039 104.495135 
L 322.474345 103.587027 
L 322.944307 103.284324 
L 322.999234 102.981622 
L 323.200577 102.678919 
L 323.230108 102.376216 
L 323.893443 102.073514 
L 324.686229 100.56 
L 325.084745 100.257297 
L 325.337566 99.651892 
L 325.463554 99.046486 
L 325.729783 98.743784 
L 325.844444 98.138378 
L 326.325144 97.835676 
L 326.379462 97.23027 
L 326.596205 96.927568 
L 326.602433 96.624865 
L 327.979704 96.019459 
L 329.058494 95.716757 
L 329.226662 95.414054 
L 329.234763 95.111351 
L 329.355384 94.808649 
L 329.356192 94.505946 
L 329.876294 93.900541 
L 329.976541 92.992432 
L 330.984622 92.68973 
L 331.153749 92.387027 
L 331.459902 92.084324 
L 331.587538 91.781622 
L 331.869009 91.478919 
L 332.085202 90.570811 
L 332.136189 90.268108 
L 332.902137 89.662703 
L 333.272826 89.36 
L 333.988731 89.057297 
L 334.109583 88.451892 
L 334.473731 88.149189 
L 334.991706 87.241081 
L 335.28432 86.938378 
L 335.336475 86.635676 
L 335.547857 86.332973 
L 336.107011 86.03027 
L 336.752377 85.122162 
L 337.193714 84.819459 
L 337.199712 84.516757 
L 337.658633 83.608649 
L 338.244129 83.305946 
L 338.342749 83.003243 
L 342.138538 82.397838 
L 342.470253 82.095135 
L 342.482694 81.792432 
L 343.20897 81.48973 
L 343.219181 81.187027 
L 343.803024 80.884324 
L 343.878954 80.581622 
L 344.810269 80.278919 
L 345.743057 79.673514 
L 348.21192 79.068108 
L 348.29723 78.765405 
L 349.123338 77.857297 
L 349.598693 77.554595 
L 351.254755 76.949189 
L 352.698899 76.646486 
L 353.564308 76.343784 
L 354.00851 76.041081 
L 354.142654 75.435676 
L 356.027647 75.132973 
L 356.221144 74.83027 
L 357.263471 74.527568 
L 357.743805 74.224865 
L 358.658543 73.922162 
L 359.113887 73.619459 
L 359.350908 73.316757 
L 361.193656 72.408649 
L 361.73948 72.105946 
L 361.91753 71.803243 
L 365.851263 71.500541 
L 367.306888 71.197838 
L 370.27187 70.895135 
L 371.421737 70.592432 
L 371.452637 70.28973 
L 372.284904 69.987027 
L 372.676493 69.684324 
L 376.449218 69.078919 
L 377.032024 68.776216 
L 381.722396 68.170811 
L 395.38867 67.868108 
L 414.46933 67.565405 
L 422.182209 67.262703 
L 426.966484 66.96 
L 426.966484 66.96 
" clip-path="url(#pb7bce299a5)" style="fill: none; stroke: #ff7f0e; stroke-width: 1.5; stroke-linecap: square"/>
   </g>
   <g id="line2d_30">
    <path d="M 279.314177 384.48 
L 279.314177 51.84 
" clip-path="url(#pb7bce299a5)" style="fill: none; stroke-dasharray: 3.7,1.6; stroke-dashoffset: 0; stroke: #ff7f0e"/>
   </g>
   <g id="line2d_31">
    <path d="M 115.363636 369.36 
L 115.796275 369.057297 
L 125.630899 368.754595 
L 128.456594 368.451892 
L 134.075385 368.149189 
L 136.913292 367.846486 
L 147.202714 367.543784 
L 147.953273 367.241081 
L 152.116972 366.938378 
L 152.419665 366.635676 
L 155.350835 366.332973 
L 160.40952 366.03027 
L 168.642203 365.122162 
L 169.773259 364.516757 
L 170.118647 364.214054 
L 176.518902 363.911351 
L 181.796079 363.305946 
L 182.717611 363.003243 
L 183.007654 362.700541 
L 183.745814 362.397838 
L 188.118162 361.792432 
L 188.562177 361.48973 
L 188.661396 361.187027 
L 189.552973 360.884324 
L 189.722213 360.581622 
L 190.059187 360.278919 
L 191.781614 359.673514 
L 193.174696 359.370811 
L 193.187738 359.068108 
L 193.850319 358.765405 
L 194.799929 357.857297 
L 199.313571 356.949189 
L 201.770243 356.041081 
L 202.106522 355.738378 
L 203.374614 355.435676 
L 203.501833 354.83027 
L 203.564722 354.527568 
L 204.062466 354.224865 
L 205.615475 353.922162 
L 206.392676 353.619459 
L 206.778729 353.316757 
L 209.519104 352.711351 
L 209.920451 352.105946 
L 209.971365 351.803243 
L 211.41305 351.197838 
L 211.422099 350.895135 
L 212.569744 350.592432 
L 212.60525 350.28973 
L 213.569057 349.987027 
L 213.712653 349.684324 
L 213.98427 349.381622 
L 214.105854 349.078919 
L 215.884775 348.473514 
L 216.084522 348.170811 
L 216.137349 347.868108 
L 216.633123 347.565405 
L 218.020026 347.262703 
L 218.550846 346.96 
L 220.310941 346.354595 
L 222.153349 346.051892 
L 222.181083 345.749189 
L 223.0866 344.841081 
L 223.162835 344.538378 
L 224.025577 344.235676 
L 224.143547 343.932973 
L 224.900223 343.327568 
L 225.086094 342.722162 
L 225.229827 342.419459 
L 225.951091 341.814054 
L 226.314639 341.208649 
L 227.632571 340.603243 
L 227.698281 340.300541 
L 229.724328 339.997838 
L 230.337433 339.695135 
L 230.380047 339.392432 
L 231.249227 339.08973 
L 231.350426 338.787027 
L 232.23339 337.878919 
L 232.41953 337.576216 
L 232.881075 337.273514 
L 233.379832 336.365405 
L 233.49018 335.76 
L 234.332319 335.457297 
L 234.710807 335.154595 
L 234.72744 334.851892 
L 235.156276 334.549189 
L 235.247028 334.246486 
L 236.268285 333.943784 
L 236.591576 333.641081 
L 236.749703 333.035676 
L 237.332722 332.732973 
L 237.613614 331.522162 
L 237.96303 331.219459 
L 241.932049 330.311351 
L 242.625457 330.008649 
L 242.628352 329.705946 
L 242.935221 329.100541 
L 242.979832 328.797838 
L 243.814987 327.88973 
L 244.804704 327.587027 
L 245.05155 327.284324 
L 245.692695 326.678919 
L 245.846628 325.770811 
L 245.999434 325.468108 
L 246.603262 324.862703 
L 247.123732 324.56 
L 247.149613 324.257297 
L 247.62249 323.651892 
L 248.469966 323.349189 
L 249.099044 322.138378 
L 249.241387 321.532973 
L 249.484725 321.23027 
L 249.498388 320.927568 
L 250.018997 320.624865 
L 250.202444 320.019459 
L 250.625004 319.716757 
L 250.845582 319.414054 
L 251.607217 318.808649 
L 251.695685 318.505946 
L 252.071032 318.203243 
L 252.523733 316.084324 
L 253.003405 315.478919 
L 253.845456 315.176216 
L 254.197256 314.873514 
L 254.35868 314.268108 
L 254.807121 313.965405 
L 255.820274 312.754595 
L 256.305529 312.149189 
L 256.38573 311.543784 
L 257.556627 311.241081 
L 258.31298 310.03027 
L 258.682541 309.727568 
L 259.344374 309.424865 
L 259.43237 309.122162 
L 260.441491 308.214054 
L 260.494084 307.911351 
L 260.948364 307.608649 
L 261.139816 307.305946 
L 261.25858 306.700541 
L 261.528181 306.397838 
L 261.559514 306.095135 
L 262.831565 305.48973 
L 263.276983 304.884324 
L 263.279036 304.581622 
L 263.729392 304.278919 
L 263.901257 303.976216 
L 264.339194 303.673514 
L 264.457912 303.370811 
L 265.361662 302.765405 
L 265.456154 302.462703 
L 266.187094 301.554595 
L 266.248689 300.949189 
L 267.435711 298.527568 
L 268.489619 297.619459 
L 268.625502 297.316757 
L 269.388474 296.711351 
L 269.49803 296.105946 
L 270.138927 295.803243 
L 270.49518 295.197838 
L 270.741404 294.28973 
L 271.19528 293.987027 
L 271.215716 293.684324 
L 271.998159 293.381622 
L 272.234308 293.078919 
L 272.27957 292.473514 
L 272.506005 292.170811 
L 272.811434 290.96 
L 272.999795 290.657297 
L 273.195781 289.446486 
L 273.450895 289.143784 
L 273.993041 288.841081 
L 274.033321 288.538378 
L 274.775543 287.932973 
L 275.118034 287.63027 
L 275.801596 287.327568 
L 275.97379 286.722162 
L 276.085738 286.419459 
L 276.328168 286.116757 
L 277.717799 285.511351 
L 278.166403 285.208649 
L 279.858806 282.787027 
L 279.909805 282.484324 
L 281.1954 281.576216 
L 281.740849 279.457297 
L 282.320412 279.154595 
L 283.044273 277.641081 
L 283.477722 277.338378 
L 283.533708 276.732973 
L 283.683462 276.43027 
L 284.118598 276.127568 
L 284.271785 275.824865 
L 284.279201 275.522162 
L 284.837893 275.219459 
L 285.105186 274.614054 
L 285.408182 274.311351 
L 285.596715 273.403243 
L 286.30219 272.797838 
L 286.422276 272.192432 
L 286.45097 271.88973 
L 287.616757 270.073514 
L 287.869365 269.468108 
L 289.028524 268.56 
L 289.141786 267.954595 
L 289.531788 267.046486 
L 289.74398 266.441081 
L 290.184809 265.835676 
L 291.039476 265.532973 
L 291.603262 264.927568 
L 291.69763 264.624865 
L 292.003453 264.322162 
L 293.342462 263.716757 
L 293.437349 263.111351 
L 293.827521 262.808649 
L 294.026671 262.203243 
L 294.42598 261.295135 
L 294.645448 260.992432 
L 294.771697 260.387027 
L 294.90431 259.781622 
L 294.957326 259.478919 
L 295.665721 259.176216 
L 295.780679 258.570811 
L 296.141111 257.662703 
L 296.633992 256.754595 
L 297.440518 256.451892 
L 297.610602 254.635676 
L 297.901172 254.03027 
L 298.36754 253.727568 
L 298.657873 253.122162 
L 298.783357 252.516757 
L 299.34113 251.911351 
L 299.658565 251.608649 
L 299.71129 251.305946 
L 300.363737 251.003243 
L 300.49853 250.700541 
L 301.027253 250.397838 
L 301.251181 250.095135 
L 301.302148 249.48973 
L 301.870646 248.581622 
L 302.28225 247.976216 
L 302.358953 247.673514 
L 302.983331 247.370811 
L 302.991568 246.765405 
L 303.218175 246.462703 
L 303.286407 246.16 
L 303.510934 245.857297 
L 303.529879 245.554595 
L 303.811286 245.251892 
L 303.929458 244.646486 
L 303.997255 244.343784 
L 304.603815 244.041081 
L 304.979594 243.435676 
L 305.534843 243.132973 
L 305.557863 242.83027 
L 306.042462 242.527568 
L 306.057746 242.224865 
L 306.852736 240.408649 
L 306.927931 240.105946 
L 307.14102 239.803243 
L 307.612734 239.500541 
L 307.845022 238.592432 
L 308.072269 238.28973 
L 308.456284 237.987027 
L 308.566455 237.381622 
L 309.519964 236.776216 
L 309.574826 236.170811 
L 309.93881 235.565405 
L 310.15887 234.96 
L 310.411696 234.657297 
L 310.480559 234.354595 
L 310.851588 233.749189 
L 310.988439 233.446486 
L 311.53089 232.841081 
L 311.622264 232.235676 
L 311.964403 231.63027 
L 312.073209 230.722162 
L 312.627393 230.419459 
L 312.675256 230.116757 
L 313.233418 229.814054 
L 313.254197 229.511351 
L 314.099423 227.997838 
L 314.205368 227.392432 
L 314.893115 227.08973 
L 315.139692 226.484324 
L 315.744846 225.878919 
L 316.045388 225.273514 
L 316.141759 224.970811 
L 316.727534 224.365405 
L 317.434725 224.062703 
L 317.546364 223.457297 
L 317.800952 223.154595 
L 318.226546 222.851892 
L 318.384532 221.641081 
L 318.671201 221.338378 
L 318.774237 220.43027 
L 319.05274 220.127568 
L 319.133425 219.522162 
L 320.080831 219.219459 
L 320.284038 218.614054 
L 321.216205 218.008649 
L 321.361356 217.403243 
L 321.738799 216.797838 
L 322.386633 216.495135 
L 322.467214 216.192432 
L 322.738699 215.88973 
L 322.768225 215.587027 
L 323.51037 215.284324 
L 323.659747 214.678919 
L 323.949029 214.376216 
L 324.581914 214.073514 
L 324.942835 213.770811 
L 325.066817 213.468108 
L 325.387003 213.165405 
L 325.689144 212.56 
L 326.633677 212.257297 
L 326.773104 211.954595 
L 327.132171 211.651892 
L 327.35191 211.046486 
L 328.374213 210.138378 
L 328.377717 209.835676 
L 329.494451 208.927568 
L 329.547184 208.624865 
L 329.733318 208.322162 
L 330.093968 208.019459 
L 330.348538 207.414054 
L 330.420907 207.111351 
L 330.650515 206.808649 
L 331.350245 206.505946 
L 331.548112 206.203243 
L 331.629814 205.597838 
L 332.014586 205.295135 
L 332.263122 204.68973 
L 332.499068 204.387027 
L 332.53774 204.084324 
L 333.134946 203.781622 
L 333.308698 203.478919 
L 333.343422 203.176216 
L 333.766134 202.268108 
L 334.051011 201.36 
L 334.343027 200.754595 
L 334.354555 200.451892 
L 334.569611 199.846486 
L 335.10397 199.543784 
L 336.795328 198.938378 
L 336.894866 198.635676 
L 337.544366 198.332973 
L 337.725631 198.03027 
L 337.735905 197.727568 
L 337.91618 197.424865 
L 338.081574 196.819459 
L 338.155344 196.516757 
L 338.521379 195.911351 
L 338.58448 195.608649 
L 339.436306 194.397838 
L 339.668445 193.792432 
L 339.923668 193.48973 
L 340.327527 193.187027 
L 340.47083 192.884324 
L 340.925406 192.581622 
L 341.652562 191.370811 
L 341.820678 190.462703 
L 342.420203 189.857297 
L 342.722722 188.949189 
L 343.170607 188.646486 
L 343.277191 188.041081 
L 343.907506 187.435676 
L 344.015197 186.83027 
L 344.266263 186.527568 
L 344.268165 186.224865 
L 345.003712 185.619459 
L 345.353618 184.408649 
L 345.50916 184.105946 
L 346.01673 183.803243 
L 346.462845 182.592432 
L 347.456592 181.987027 
L 347.568093 181.381622 
L 347.635768 181.078919 
L 348.203599 180.776216 
L 348.396666 180.473514 
L 348.454835 179.868108 
L 348.689306 178.96 
L 348.905731 178.657297 
L 348.928057 178.354595 
L 349.546194 177.446486 
L 350.000909 177.143784 
L 350.741269 176.235676 
L 351.389272 175.63027 
L 351.558609 175.024865 
L 351.712993 174.419459 
L 352.206665 174.116757 
L 352.381806 173.511351 
L 353.101364 172.300541 
L 353.703768 171.997838 
L 353.961198 171.392432 
L 354.438532 171.08973 
L 354.44082 170.787027 
L 354.91078 170.484324 
L 355.036443 170.181622 
L 355.790839 169.576216 
L 356.074709 168.365405 
L 357.398389 166.549189 
L 357.603395 165.943784 
L 357.725338 165.338378 
L 357.933024 164.732973 
L 358.296241 164.43027 
L 358.35791 164.127568 
L 358.628785 163.824865 
L 358.648288 163.522162 
L 359.672589 162.916757 
L 360.248928 162.614054 
L 360.501733 162.008649 
L 360.819654 161.100541 
L 361.821788 160.797838 
L 362.345286 160.495135 
L 362.646591 160.192432 
L 362.763017 159.587027 
L 363.064914 159.284324 
L 363.176295 158.376216 
L 363.366643 158.073514 
L 363.484274 157.165405 
L 363.731159 156.862703 
L 363.741381 156.56 
L 364.595257 155.651892 
L 364.90801 155.046486 
L 365.37551 154.743784 
L 365.692439 153.532973 
L 366.252319 153.23027 
L 366.314609 152.927568 
L 366.504228 152.624865 
L 366.558712 152.019459 
L 367.143046 150.808649 
L 367.49131 150.203243 
L 367.790908 149.900541 
L 367.820812 149.597838 
L 368.296701 148.68973 
L 368.348032 148.387027 
L 368.54129 148.084324 
L 368.943709 147.781622 
L 369.297573 147.176216 
L 369.60107 146.570811 
L 370.277698 146.268108 
L 370.577143 145.965405 
L 370.686418 145.662703 
L 371.013262 145.057297 
L 371.236306 144.754595 
L 371.254268 144.451892 
L 371.62348 144.149189 
L 371.74227 143.846486 
L 372.613852 143.543784 
L 373.075373 143.241081 
L 373.416292 142.635676 
L 373.77551 142.332973 
L 373.846107 142.03027 
L 374.486489 141.727568 
L 375.213093 139.305946 
L 375.819533 139.003243 
L 375.853417 138.700541 
L 376.431459 138.095135 
L 376.560899 137.792432 
L 377.382256 137.187027 
L 377.642948 136.884324 
L 378.537478 136.581622 
L 378.732666 136.278919 
L 378.746856 135.976216 
L 378.949533 135.673514 
L 378.977165 135.370811 
L 379.900053 134.16 
L 380.294542 133.857297 
L 380.93632 133.554595 
L 380.979128 132.949189 
L 381.483075 132.646486 
L 381.663503 132.343784 
L 381.760698 131.738378 
L 382.501265 130.83027 
L 382.897615 129.922162 
L 382.914258 129.619459 
L 383.116165 129.316757 
L 383.177157 129.014054 
L 384.188688 128.711351 
L 384.446169 128.105946 
L 384.466029 127.803243 
L 385.021997 127.500541 
L 385.843851 127.197838 
L 387.244234 126.28973 
L 387.244643 125.987027 
L 387.886589 125.684324 
L 388.042719 125.078919 
L 388.801439 124.776216 
L 388.899515 124.473514 
L 389.403092 124.170811 
L 390.124312 123.262703 
L 391.312867 122.657297 
L 392.11819 122.051892 
L 392.342094 121.749189 
L 393.388798 121.446486 
L 393.472374 121.143784 
L 394.182415 120.538378 
L 394.241493 120.235676 
L 394.816706 119.63027 
L 394.904359 119.327568 
L 395.203354 119.024865 
L 396.529798 118.722162 
L 396.833762 117.814054 
L 397.762394 117.511351 
L 399.499479 117.208649 
L 399.533857 116.905946 
L 400.518346 116.603243 
L 401.122291 114.787027 
L 401.669722 114.484324 
L 401.770667 113.878919 
L 402.108713 113.576216 
L 402.825281 113.273514 
L 403.36061 112.365405 
L 403.883662 112.062703 
L 403.928132 111.76 
L 404.201692 111.457297 
L 405.056323 111.154595 
L 405.313639 110.851892 
L 405.768658 110.549189 
L 405.792397 110.246486 
L 406.23168 109.943784 
L 406.46793 109.338378 
L 406.996192 109.035676 
L 407.178482 108.732973 
L 408.046239 108.43027 
L 408.109677 108.127568 
L 409.735582 107.522162 
L 409.84244 106.916757 
L 410.824338 106.311351 
L 411.63589 106.008649 
L 411.845512 105.705946 
L 411.885116 105.403243 
L 413.582661 105.100541 
L 414.011659 104.797838 
L 414.985178 104.495135 
L 415.249809 104.192432 
L 415.544399 103.587027 
L 416.547137 103.284324 
L 417.230865 102.678919 
L 417.304275 102.376216 
L 418.875832 102.073514 
L 419.97885 101.468108 
L 421.385713 101.165405 
L 422.343876 100.56 
L 424.30244 99.954595 
L 424.754134 98.743784 
L 425.967285 98.441081 
L 426.767691 97.532973 
L 427.550033 97.23027 
L 427.894193 96.927568 
L 427.963446 96.624865 
L 428.883729 96.322162 
L 429.073226 96.019459 
L 429.106373 95.716757 
L 429.581761 95.111351 
L 430.697637 94.808649 
L 431.064147 94.505946 
L 432.190061 94.203243 
L 432.832082 93.295135 
L 433.997819 92.387027 
L 434.018441 92.084324 
L 434.494977 91.781622 
L 434.544647 91.176216 
L 435.774463 90.570811 
L 436.094195 90.268108 
L 437.107865 89.965405 
L 438.517045 89.662703 
L 440.19295 89.057297 
L 440.372013 88.754595 
L 441.16833 88.149189 
L 441.799126 87.846486 
L 442.703534 87.543784 
L 442.98575 87.241081 
L 444.423217 86.938378 
L 444.75016 86.635676 
L 447.716029 86.332973 
L 448.15039 86.03027 
L 448.278522 85.727568 
L 449.010812 84.819459 
L 449.031731 84.516757 
L 450.713495 83.911351 
L 450.877482 83.608649 
L 450.89186 83.305946 
L 451.203897 83.003243 
L 457.074005 82.095135 
L 458.219022 81.792432 
L 459.85882 81.48973 
L 460.48546 81.187027 
L 462.823467 80.884324 
L 463.330427 80.581622 
L 464.791588 80.278919 
L 465.216298 79.976216 
L 466.00603 79.673514 
L 466.040512 79.370811 
L 466.774272 79.068108 
L 466.948607 78.462703 
L 467.066978 78.16 
L 468.821166 77.857297 
L 470.128335 77.251892 
L 471.765855 76.949189 
L 472.0689 76.343784 
L 472.229793 76.041081 
L 475.255547 75.435676 
L 476.538204 75.132973 
L 477.308923 74.83027 
L 478.745432 74.527568 
L 483.638417 74.224865 
L 485.509321 73.619459 
L 485.62078 73.014054 
L 486.130882 72.711351 
L 489.862638 72.408649 
L 491.986852 72.105946 
L 493.26814 71.803243 
L 497.451024 71.197838 
L 506.907234 70.895135 
L 507.340609 70.592432 
L 516.892116 70.28973 
L 519.903328 69.684324 
L 528.938727 69.078919 
L 534.493615 68.776216 
L 536.784987 68.473514 
L 536.842923 68.170811 
L 571.198941 67.868108 
L 591.974685 67.262703 
L 622.636364 66.96 
L 622.636364 66.96 
" clip-path="url(#pb7bce299a5)" style="fill: none; stroke: #2ca02c; stroke-width: 1.5; stroke-linecap: square"/>
   </g>
   <g id="line2d_32">
    <path d="M 325.003542 384.48 
L 325.003542 51.84 
" clip-path="url(#pb7bce299a5)" style="fill: none; stroke-dasharray: 3.7,1.6; stroke-dashoffset: 0; stroke: #2ca02c"/>
   </g>
   <g id="patch_3">
    <path d="M 90 384.48 
L 90 51.84 
" style="fill: none; stroke: #000000; stroke-width: 0.8; stroke-linejoin: miter; stroke-linecap: square"/>
   </g>
   <g id="patch_4">
    <path d="M 648 384.48 
L 648 51.84 
" style="fill: none; stroke: #000000; stroke-width: 0.8; stroke-linejoin: miter; stroke-linecap: square"/>
   </g>
   <g id="patch_5">
    <path d="M 90 384.48 
L 648 384.48 
" style="fill: none; stroke: #000000; stroke-width: 0.8; stroke-linejoin: miter; stroke-linecap: square"/>
   </g>
   <g id="patch_6">
    <path d="M 90 51.84 
L 648 51.84 
" style="fill: none; stroke: #000000; stroke-width: 0.8; stroke-linejoin: miter; stroke-linecap: square"/>
   </g>
   <g id="text_16">
    <!-- Cumulative Distribution of Average Rewards for Different Policies -->
    <g transform="translate(173.690625 45.84) scale(0.12 -0.12)">
     <defs>
      <path id="DejaVuSans-62" d="M 3116 1747 
Q 3116 2381 2855 2742 
Q 2594 3103 2138 3103 
Q 1681 3103 1420 2742 
Q 1159 2381 1159 1747 
Q 1159 1113 1420 752 
Q 1681 391 2138 391 
Q 2594 391 2855 752 
Q 3116 1113 3116 1747 
z
M 1159 2969 
Q 1341 3281 1617 3432 
Q 1894 3584 2278 3584 
Q 2916 3584 3314 3078 
Q 3713 2572 3713 1747 
Q 3713 922 3314 415 
Q 2916 -91 2278 -91 
Q 1894 -91 1617 61 
Q 1341 213 1159 525 
L 1159 0 
L 581 0 
L 581 4863 
L 1159 4863 
L 1159 2969 
z
" transform="scale(0.015625)"/>
      <path id="DejaVuSans-6f" d="M 1959 3097 
Q 1497 3097 1228 2736 
Q 959 2375 959 1747 
Q 959 1119 1226 758 
Q 1494 397 1959 397 
Q 2419 397 2687 759 
Q 2956 1122 2956 1747 
Q 2956 2369 2687 2733 
Q 2419 3097 1959 3097 
z
M 1959 3584 
Q 2709 3584 3137 3096 
Q 3566 2609 3566 1747 
Q 3566 888 3137 398 
Q 2709 -91 1959 -91 
Q 1206 -91 779 398 
Q 353 888 353 1747 
Q 353 2609 779 3096 
Q 1206 3584 1959 3584 
z
" transform="scale(0.015625)"/>
      <path id="DejaVuSans-66" d="M 2375 4863 
L 2375 4384 
L 1825 4384 
Q 1516 4384 1395 4259 
Q 1275 4134 1275 3809 
L 1275 3500 
L 2222 3500 
L 2222 3053 
L 1275 3053 
L 1275 0 
L 697 0 
L 697 3053 
L 147 3053 
L 147 3500 
L 697 3500 
L 697 3744 
Q 697 4328 969 4595 
Q 1241 4863 1831 4863 
L 2375 4863 
z
" transform="scale(0.015625)"/>
      <path id="DejaVuSans-50" d="M 1259 4147 
L 1259 2394 
L 2053 2394 
Q 2494 2394 2734 2622 
Q 2975 2850 2975 3272 
Q 2975 3691 2734 3919 
Q 2494 4147 2053 4147 
L 1259 4147 
z
M 628 4666 
L 2053 4666 
Q 2838 4666 3239 4311 
Q 3641 3956 3641 3272 
Q 3641 2581 3239 2228 
Q 2838 1875 2053 1875 
L 1259 1875 
L 1259 0 
L 628 0 
L 628 4666 
z
" transform="scale(0.015625)"/>
      <path id="DejaVuSans-63" d="M 3122 3366 
L 3122 2828 
Q 2878 2963 2633 3030 
Q 2388 3097 2138 3097 
Q 1578 3097 1268 2742 
Q 959 2388 959 1747 
Q 959 1106 1268 751 
Q 1578 397 2138 397 
Q 2388 397 2633 464 
Q 2878 531 3122 666 
L 3122 134 
Q 2881 22 2623 -34 
Q 2366 -91 2075 -91 
Q 1284 -91 818 406 
Q 353 903 353 1747 
Q 353 2603 823 3093 
Q 1294 3584 2113 3584 
Q 2378 3584 2631 3529 
Q 2884 3475 3122 3366 
z
" transform="scale(0.015625)"/>
     </defs>
     <use xlink:href="#DejaVuSans-43"/>
     <use xlink:href="#DejaVuSans-75" transform="translate(69.824219 0)"/>
     <use xlink:href="#DejaVuSans-6d" transform="translate(133.203125 0)"/>
     <use xlink:href="#DejaVuSans-75" transform="translate(230.615234 0)"/>
     <use xlink:href="#DejaVuSans-6c" transform="translate(293.994141 0)"/>
     <use xlink:href="#DejaVuSans-61" transform="translate(321.777344 0)"/>
     <use xlink:href="#DejaVuSans-74" transform="translate(383.056641 0)"/>
     <use xlink:href="#DejaVuSans-69" transform="translate(422.265625 0)"/>
     <use xlink:href="#DejaVuSans-76" transform="translate(450.048828 0)"/>
     <use xlink:href="#DejaVuSans-65" transform="translate(509.228516 0)"/>
     <use xlink:href="#DejaVuSans-20" transform="translate(570.751953 0)"/>
     <use xlink:href="#DejaVuSans-44" transform="translate(602.539062 0)"/>
     <use xlink:href="#DejaVuSans-69" transform="translate(679.541016 0)"/>
     <use xlink:href="#DejaVuSans-73" transform="translate(707.324219 0)"/>
     <use xlink:href="#DejaVuSans-74" transform="translate(759.423828 0)"/>
     <use xlink:href="#DejaVuSans-72" transform="translate(798.632812 0)"/>
     <use xlink:href="#DejaVuSans-69" transform="translate(839.746094 0)"/>
     <use xlink:href="#DejaVuSans-62" transform="translate(867.529297 0)"/>
     <use xlink:href="#DejaVuSans-75" transform="translate(931.005859 0)"/>
     <use xlink:href="#DejaVuSans-74" transform="translate(994.384766 0)"/>
     <use xlink:href="#DejaVuSans-69" transform="translate(1033.59375 0)"/>
     <use xlink:href="#DejaVuSans-6f" transform="translate(1061.376953 0)"/>
     <use xlink:href="#DejaVuSans-6e" transform="translate(1122.558594 0)"/>
     <use xlink:href="#DejaVuSans-20" transform="translate(1185.9375 0)"/>
     <use xlink:href="#DejaVuSans-6f" transform="translate(1217.724609 0)"/>
     <use xlink:href="#DejaVuSans-66" transform="translate(1278.90625 0)"/>
     <use xlink:href="#DejaVuSans-20" transform="translate(1314.111328 0)"/>
     <use xlink:href="#DejaVuSans-41" transform="translate(1345.898438 0)"/>
     <use xlink:href="#DejaVuSans-76" transform="translate(1408.431641 0)"/>
     <use xlink:href="#DejaVuSans-65" transform="translate(1467.611328 0)"/>
     <use xlink:href="#DejaVuSans-72" transform="translate(1529.134766 0)"/>
     <use xlink:href="#DejaVuSans-61" transform="translate(1570.248047 0)"/>
     <use xlink:href="#DejaVuSans-67" transform="translate(1631.527344 0)"/>
     <use xlink:href="#DejaVuSans-65" transform="translate(1695.003906 0)"/>
     <use xlink:href="#DejaVuSans-20" transform="translate(1756.527344 0)"/>
     <use xlink:href="#DejaVuSans-52" transform="translate(1788.314453 0)"/>
     <use xlink:href="#DejaVuSans-65" transform="translate(1853.296875 0)"/>
     <use xlink:href="#DejaVuSans-77" transform="translate(1914.820312 0)"/>
     <use xlink:href="#DejaVuSans-61" transform="translate(1996.607422 0)"/>
     <use xlink:href="#DejaVuSans-72" transform="translate(2057.886719 0)"/>
     <use xlink:href="#DejaVuSans-64" transform="translate(2097.25 0)"/>
     <use xlink:href="#DejaVuSans-73" transform="translate(2160.726562 0)"/>
     <use xlink:href="#DejaVuSans-20" transform="translate(2212.826172 0)"/>
     <use xlink:href="#DejaVuSans-66" transform="translate(2244.613281 0)"/>
     <use xlink:href="#DejaVuSans-6f" transform="translate(2279.818359 0)"/>
     <use xlink:href="#DejaVuSans-72" transform="translate(2341 0)"/>
     <use xlink:href="#DejaVuSans-20" transform="translate(2382.113281 0)"/>
     <use xlink:href="#DejaVuSans-44" transform="translate(2413.900391 0)"/>
     <use xlink:href="#DejaVuSans-69" transform="translate(2490.902344 0)"/>
     <use xlink:href="#DejaVuSans-66" transform="translate(2518.685547 0)"/>
     <use xlink:href="#DejaVuSans-66" transform="translate(2553.890625 0)"/>
     <use xlink:href="#DejaVuSans-65" transform="translate(2589.095703 0)"/>
     <use xlink:href="#DejaVuSans-72" transform="translate(2650.619141 0)"/>
     <use xlink:href="#DejaVuSans-65" transform="translate(2689.482422 0)"/>
     <use xlink:href="#DejaVuSans-6e" transform="translate(2751.005859 0)"/>
     <use xlink:href="#DejaVuSans-74" transform="translate(2814.384766 0)"/>
     <use xlink:href="#DejaVuSans-20" transform="translate(2853.59375 0)"/>
     <use xlink:href="#DejaVuSans-50" transform="translate(2885.380859 0)"/>
     <use xlink:href="#DejaVuSans-6f" transform="translate(2942.058594 0)"/>
     <use xlink:href="#DejaVuSans-6c" transform="translate(3003.240234 0)"/>
     <use xlink:href="#DejaVuSans-69" transform="translate(3031.023438 0)"/>
     <use xlink:href="#DejaVuSans-63" transform="translate(3058.806641 0)"/>
     <use xlink:href="#DejaVuSans-69" transform="translate(3113.787109 0)"/>
     <use xlink:href="#DejaVuSans-65" transform="translate(3141.570312 0)"/>
     <use xlink:href="#DejaVuSans-73" transform="translate(3203.09375 0)"/>
    </g>
   </g>
   <g id="legend_1">
    <g id="patch_7">
     <path d="M 97 103.874375 
L 264.028125 103.874375 
Q 266.028125 103.874375 266.028125 101.874375 
L 266.028125 58.84 
Q 266.028125 56.84 264.028125 56.84 
L 97 56.84 
Q 95 56.84 95 58.84 
L 95 101.874375 
Q 95 103.874375 97 103.874375 
z
" style="fill: #ffffff; opacity: 0.8; stroke: #cccccc; stroke-linejoin: miter"/>
    </g>
    <g id="line2d_33">
     <path d="M 99 64.938437 
L 109 64.938437 
L 119 64.938437 
" style="fill: none; stroke: #1f77b4; stroke-width: 1.5; stroke-linecap: square"/>
    </g>
    <g id="text_17">
     <!-- Initial Policy -->
     <g transform="translate(127 68.438437) scale(0.1 -0.1)">
      <defs>
       <path id="DejaVuSans-49" d="M 628 4666 
L 1259 4666 
L 1259 0 
L 628 0 
L 628 4666 
z
" transform="scale(0.015625)"/>
      </defs>
      <use xlink:href="#DejaVuSans-49"/>
      <use xlink:href="#DejaVuSans-6e" transform="translate(29.492188 0)"/>
      <use xlink:href="#DejaVuSans-69" transform="translate(92.871094 0)"/>
      <use xlink:href="#DejaVuSans-74" transform="translate(120.654297 0)"/>
      <use xlink:href="#DejaVuSans-69" transform="translate(159.863281 0)"/>
      <use xlink:href="#DejaVuSans-61" transform="translate(187.646484 0)"/>
      <use xlink:href="#DejaVuSans-6c" transform="translate(248.925781 0)"/>
      <use xlink:href="#DejaVuSans-20" transform="translate(276.708984 0)"/>
      <use xlink:href="#DejaVuSans-50" transform="translate(308.496094 0)"/>
      <use xlink:href="#DejaVuSans-6f" transform="translate(365.173828 0)"/>
      <use xlink:href="#DejaVuSans-6c" transform="translate(426.355469 0)"/>
      <use xlink:href="#DejaVuSans-69" transform="translate(454.138672 0)"/>
      <use xlink:href="#DejaVuSans-63" transform="translate(481.921875 0)"/>
      <use xlink:href="#DejaVuSans-79" transform="translate(536.902344 0)"/>
     </g>
    </g>
    <g id="line2d_34">
     <path d="M 99 79.616562 
L 109 79.616562 
L 119 79.616562 
" style="fill: none; stroke: #ff7f0e; stroke-width: 1.5; stroke-linecap: square"/>
    </g>
    <g id="text_18">
     <!-- Clipped Initial Policy -->
     <g transform="translate(127 83.116562) scale(0.1 -0.1)">
      <defs>
       <path id="DejaVuSans-70" d="M 1159 525 
L 1159 -1331 
L 581 -1331 
L 581 3500 
L 1159 3500 
L 1159 2969 
Q 1341 3281 1617 3432 
Q 1894 3584 2278 3584 
Q 2916 3584 3314 3078 
Q 3713 2572 3713 1747 
Q 3713 922 3314 415 
Q 2916 -91 2278 -91 
Q 1894 -91 1617 61 
Q 1341 213 1159 525 
z
M 3116 1747 
Q 3116 2381 2855 2742 
Q 2594 3103 2138 3103 
Q 1681 3103 1420 2742 
Q 1159 2381 1159 1747 
Q 1159 1113 1420 752 
Q 1681 391 2138 391 
Q 2594 391 2855 752 
Q 3116 1113 3116 1747 
z
" transform="scale(0.015625)"/>
      </defs>
      <use xlink:href="#DejaVuSans-43"/>
      <use xlink:href="#DejaVuSans-6c" transform="translate(69.824219 0)"/>
      <use xlink:href="#DejaVuSans-69" transform="translate(97.607422 0)"/>
      <use xlink:href="#DejaVuSans-70" transform="translate(125.390625 0)"/>
      <use xlink:href="#DejaVuSans-70" transform="translate(188.867188 0)"/>
      <use xlink:href="#DejaVuSans-65" transform="translate(252.34375 0)"/>
      <use xlink:href="#DejaVuSans-64" transform="translate(313.867188 0)"/>
      <use xlink:href="#DejaVuSans-20" transform="translate(377.34375 0)"/>
      <use xlink:href="#DejaVuSans-49" transform="translate(409.130859 0)"/>
      <use xlink:href="#DejaVuSans-6e" transform="translate(438.623047 0)"/>
      <use xlink:href="#DejaVuSans-69" transform="translate(502.001953 0)"/>
      <use xlink:href="#DejaVuSans-74" transform="translate(529.785156 0)"/>
      <use xlink:href="#DejaVuSans-69" transform="translate(568.994141 0)"/>
      <use xlink:href="#DejaVuSans-61" transform="translate(596.777344 0)"/>
      <use xlink:href="#DejaVuSans-6c" transform="translate(658.056641 0)"/>
      <use xlink:href="#DejaVuSans-20" transform="translate(685.839844 0)"/>
      <use xlink:href="#DejaVuSans-50" transform="translate(717.626953 0)"/>
      <use xlink:href="#DejaVuSans-6f" transform="translate(774.304688 0)"/>
      <use xlink:href="#DejaVuSans-6c" transform="translate(835.486328 0)"/>
      <use xlink:href="#DejaVuSans-69" transform="translate(863.269531 0)"/>
      <use xlink:href="#DejaVuSans-63" transform="translate(891.052734 0)"/>
      <use xlink:href="#DejaVuSans-79" transform="translate(946.033203 0)"/>
     </g>
    </g>
    <g id="line2d_35">
     <path d="M 99 94.294687 
L 109 94.294687 
L 119 94.294687 
" style="fill: none; stroke: #2ca02c; stroke-width: 1.5; stroke-linecap: square"/>
    </g>
    <g id="text_19">
     <!-- Best linear Policy (CMA-ES) -->
     <g transform="translate(127 97.794687) scale(0.1 -0.1)">
      <defs>
       <path id="DejaVuSans-42" d="M 1259 2228 
L 1259 519 
L 2272 519 
Q 2781 519 3026 730 
Q 3272 941 3272 1375 
Q 3272 1813 3026 2020 
Q 2781 2228 2272 2228 
L 1259 2228 
z
M 1259 4147 
L 1259 2741 
L 2194 2741 
Q 2656 2741 2882 2914 
Q 3109 3088 3109 3444 
Q 3109 3797 2882 3972 
Q 2656 4147 2194 4147 
L 1259 4147 
z
M 628 4666 
L 2241 4666 
Q 2963 4666 3353 4366 
Q 3744 4066 3744 3513 
Q 3744 3084 3544 2831 
Q 3344 2578 2956 2516 
Q 3422 2416 3680 2098 
Q 3938 1781 3938 1306 
Q 3938 681 3513 340 
Q 3088 0 2303 0 
L 628 0 
L 628 4666 
z
" transform="scale(0.015625)"/>
       <path id="DejaVuSans-28" d="M 1984 4856 
Q 1566 4138 1362 3434 
Q 1159 2731 1159 2009 
Q 1159 1288 1364 580 
Q 1569 -128 1984 -844 
L 1484 -844 
Q 1016 -109 783 600 
Q 550 1309 550 2009 
Q 550 2706 781 3412 
Q 1013 4119 1484 4856 
L 1984 4856 
z
" transform="scale(0.015625)"/>
       <path id="DejaVuSans-4d" d="M 628 4666 
L 1569 4666 
L 2759 1491 
L 3956 4666 
L 4897 4666 
L 4897 0 
L 4281 0 
L 4281 4097 
L 3078 897 
L 2444 897 
L 1241 4097 
L 1241 0 
L 628 0 
L 628 4666 
z
" transform="scale(0.015625)"/>
       <path id="DejaVuSans-2d" d="M 313 2009 
L 1997 2009 
L 1997 1497 
L 313 1497 
L 313 2009 
z
" transform="scale(0.015625)"/>
       <path id="DejaVuSans-45" d="M 628 4666 
L 3578 4666 
L 3578 4134 
L 1259 4134 
L 1259 2753 
L 3481 2753 
L 3481 2222 
L 1259 2222 
L 1259 531 
L 3634 531 
L 3634 0 
L 628 0 
L 628 4666 
z
" transform="scale(0.015625)"/>
       <path id="DejaVuSans-53" d="M 3425 4513 
L 3425 3897 
Q 3066 4069 2747 4153 
Q 2428 4238 2131 4238 
Q 1616 4238 1336 4038 
Q 1056 3838 1056 3469 
Q 1056 3159 1242 3001 
Q 1428 2844 1947 2747 
L 2328 2669 
Q 3034 2534 3370 2195 
Q 3706 1856 3706 1288 
Q 3706 609 3251 259 
Q 2797 -91 1919 -91 
Q 1588 -91 1214 -16 
Q 841 59 441 206 
L 441 856 
Q 825 641 1194 531 
Q 1563 422 1919 422 
Q 2459 422 2753 634 
Q 3047 847 3047 1241 
Q 3047 1584 2836 1778 
Q 2625 1972 2144 2069 
L 1759 2144 
Q 1053 2284 737 2584 
Q 422 2884 422 3419 
Q 422 4038 858 4394 
Q 1294 4750 2059 4750 
Q 2388 4750 2728 4690 
Q 3069 4631 3425 4513 
z
" transform="scale(0.015625)"/>
       <path id="DejaVuSans-29" d="M 513 4856 
L 1013 4856 
Q 1481 4119 1714 3412 
Q 1947 2706 1947 2009 
Q 1947 1309 1714 600 
Q 1481 -109 1013 -844 
L 513 -844 
Q 928 -128 1133 580 
Q 1338 1288 1338 2009 
Q 1338 2731 1133 3434 
Q 928 4138 513 4856 
z
" transform="scale(0.015625)"/>
      </defs>
      <use xlink:href="#DejaVuSans-42"/>
      <use xlink:href="#DejaVuSans-65" transform="translate(68.603516 0)"/>
      <use xlink:href="#DejaVuSans-73" transform="translate(130.126953 0)"/>
      <use xlink:href="#DejaVuSans-74" transform="translate(182.226562 0)"/>
      <use xlink:href="#DejaVuSans-20" transform="translate(221.435547 0)"/>
      <use xlink:href="#DejaVuSans-6c" transform="translate(253.222656 0)"/>
      <use xlink:href="#DejaVuSans-69" transform="translate(281.005859 0)"/>
      <use xlink:href="#DejaVuSans-6e" transform="translate(308.789062 0)"/>
      <use xlink:href="#DejaVuSans-65" transform="translate(372.167969 0)"/>
      <use xlink:href="#DejaVuSans-61" transform="translate(433.691406 0)"/>
      <use xlink:href="#DejaVuSans-72" transform="translate(494.970703 0)"/>
      <use xlink:href="#DejaVuSans-20" transform="translate(536.083984 0)"/>
      <use xlink:href="#DejaVuSans-50" transform="translate(567.871094 0)"/>
      <use xlink:href="#DejaVuSans-6f" transform="translate(624.548828 0)"/>
      <use xlink:href="#DejaVuSans-6c" transform="translate(685.730469 0)"/>
      <use xlink:href="#DejaVuSans-69" transform="translate(713.513672 0)"/>
      <use xlink:href="#DejaVuSans-63" transform="translate(741.296875 0)"/>
      <use xlink:href="#DejaVuSans-79" transform="translate(796.277344 0)"/>
      <use xlink:href="#DejaVuSans-20" transform="translate(855.457031 0)"/>
      <use xlink:href="#DejaVuSans-28" transform="translate(887.244141 0)"/>
      <use xlink:href="#DejaVuSans-43" transform="translate(926.257812 0)"/>
      <use xlink:href="#DejaVuSans-4d" transform="translate(996.082031 0)"/>
      <use xlink:href="#DejaVuSans-41" transform="translate(1082.361328 0)"/>
      <use xlink:href="#DejaVuSans-2d" transform="translate(1148.519531 0)"/>
      <use xlink:href="#DejaVuSans-45" transform="translate(1184.603516 0)"/>
      <use xlink:href="#DejaVuSans-53" transform="translate(1247.787109 0)"/>
      <use xlink:href="#DejaVuSans-29" transform="translate(1311.263672 0)"/>
     </g>
    </g>
   </g>
  </g>
 </g>
 <defs>
  <clipPath id="pb7bce299a5">
   <rect x="90" y="51.84" width="558" height="332.64"/>
  </clipPath>
 </defs>
</svg>
