<?xml version="1.0" encoding="utf-8" standalone="no"?>
<!DOCTYPE svg PUBLIC "-//W3C//DTD SVG 1.1//EN"
  "http://www.w3.org/Graphics/SVG/1.1/DTD/svg11.dtd">
<svg xmlns:xlink="http://www.w3.org/1999/xlink" width="648pt" height="360pt" viewBox="0 0 648 360" xmlns="http://www.w3.org/2000/svg" version="1.1">
 <metadata>
  <rdf:RDF xmlns:dc="http://purl.org/dc/elements/1.1/" xmlns:cc="http://creativecommons.org/ns#" xmlns:rdf="http://www.w3.org/1999/02/22-rdf-syntax-ns#">
   <cc:Work>
    <dc:type rdf:resource="http://purl.org/dc/dcmitype/StillImage"/>
    <dc:date>2025-10-30T22:41:33.637546</dc:date>
    <dc:format>image/svg+xml</dc:format>
    <dc:creator>
     <cc:Agent>
      <dc:title>Matplotlib v3.10.6, https://matplotlib.org/</dc:title>
     </cc:Agent>
    </dc:creator>
   </cc:Work>
  </rdf:RDF>
 </metadata>
 <defs>
  <style type="text/css">*{stroke-linejoin: round; stroke-linecap: butt}</style>
 </defs>
 <g id="figure_1">
  <g id="patch_1">
   <path d="M 0 360 
L 648 360 
L 648 0 
L 0 0 
z
" style="fill: #ffffff"/>
  </g>
  <g id="axes_1">
   <g id="patch_2">
    <path d="M 81 320.4 
L 583.2 320.4 
L 583.2 43.2 
L 81 43.2 
z
" style="fill: #ffffff"/>
   </g>
   <g id="matplotlib.axis_1">
    <g id="xtick_1">
     <g id="line2d_1">
      <path d="M 103.37027 320.4 
L 103.37027 43.2 
" clip-path="url(#pc89bee55b7)" style="fill: none; stroke: #b0b0b0; stroke-width: 0.8; stroke-linecap: square"/>
     </g>
     <g id="line2d_2">
      <defs>
       <path id="m5ce27e866b" d="M 0 0 
L 0 3.5 
" style="stroke: #000000; stroke-width: 0.8"/>
      </defs>
      <g>
       <use xlink:href="#m5ce27e866b" x="103.37027" y="320.4" style="stroke: #000000; stroke-width: 0.8"/>
      </g>
     </g>
     <g id="text_1">
      <!-- 0 -->
      <g transform="translate(100.18902 334.998438) scale(0.1 -0.1)">
       <defs>
        <path id="DejaVuSans-30" d="M 2034 4250 
Q 1547 4250 1301 3770 
Q 1056 3291 1056 2328 
Q 1056 1369 1301 889 
Q 1547 409 2034 409 
Q 2525 409 2770 889 
Q 3016 1369 3016 2328 
Q 3016 3291 2770 3770 
Q 2525 4250 2034 4250 
z
M 2034 4750 
Q 2819 4750 3233 4129 
Q 3647 3509 3647 2328 
Q 3647 1150 3233 529 
Q 2819 -91 2034 -91 
Q 1250 -91 836 529 
Q 422 1150 422 2328 
Q 422 3509 836 4129 
Q 1250 4750 2034 4750 
z
" transform="scale(0.015625)"/>
       </defs>
       <use xlink:href="#DejaVuSans-30"/>
      </g>
     </g>
    </g>
    <g id="xtick_2">
     <g id="line2d_3">
      <path d="M 194.770762 320.4 
L 194.770762 43.2 
" clip-path="url(#pc89bee55b7)" style="fill: none; stroke: #b0b0b0; stroke-width: 0.8; stroke-linecap: square"/>
     </g>
     <g id="line2d_4">
      <g>
       <use xlink:href="#m5ce27e866b" x="194.770762" y="320.4" style="stroke: #000000; stroke-width: 0.8"/>
      </g>
     </g>
     <g id="text_2">
      <!-- 200 -->
      <g transform="translate(185.227012 334.998438) scale(0.1 -0.1)">
       <defs>
        <path id="DejaVuSans-32" d="M 1228 531 
L 3431 531 
L 3431 0 
L 469 0 
L 469 531 
Q 828 903 1448 1529 
Q 2069 2156 2228 2338 
Q 2531 2678 2651 2914 
Q 2772 3150 2772 3378 
Q 2772 3750 2511 3984 
Q 2250 4219 1831 4219 
Q 1534 4219 1204 4116 
Q 875 4013 500 3803 
L 500 4441 
Q 881 4594 1212 4672 
Q 1544 4750 1819 4750 
Q 2544 4750 2975 4387 
Q 3406 4025 3406 3419 
Q 3406 3131 3298 2873 
Q 3191 2616 2906 2266 
Q 2828 2175 2409 1742 
Q 1991 1309 1228 531 
z
" transform="scale(0.015625)"/>
       </defs>
       <use xlink:href="#DejaVuSans-32"/>
       <use xlink:href="#DejaVuSans-30" transform="translate(63.623047 0)"/>
       <use xlink:href="#DejaVuSans-30" transform="translate(127.246094 0)"/>
      </g>
     </g>
    </g>
    <g id="xtick_3">
     <g id="line2d_5">
      <path d="M 286.171253 320.4 
L 286.171253 43.2 
" clip-path="url(#pc89bee55b7)" style="fill: none; stroke: #b0b0b0; stroke-width: 0.8; stroke-linecap: square"/>
     </g>
     <g id="line2d_6">
      <g>
       <use xlink:href="#m5ce27e866b" x="286.171253" y="320.4" style="stroke: #000000; stroke-width: 0.8"/>
      </g>
     </g>
     <g id="text_3">
      <!-- 400 -->
      <g transform="translate(276.627503 334.998438) scale(0.1 -0.1)">
       <defs>
        <path id="DejaVuSans-34" d="M 2419 4116 
L 825 1625 
L 2419 1625 
L 2419 4116 
z
M 2253 4666 
L 3047 4666 
L 3047 1625 
L 3713 1625 
L 3713 1100 
L 3047 1100 
L 3047 0 
L 2419 0 
L 2419 1100 
L 313 1100 
L 313 1709 
L 2253 4666 
z
" transform="scale(0.015625)"/>
       </defs>
       <use xlink:href="#DejaVuSans-34"/>
       <use xlink:href="#DejaVuSans-30" transform="translate(63.623047 0)"/>
       <use xlink:href="#DejaVuSans-30" transform="translate(127.246094 0)"/>
      </g>
     </g>
    </g>
    <g id="xtick_4">
     <g id="line2d_7">
      <path d="M 377.571744 320.4 
L 377.571744 43.2 
" clip-path="url(#pc89bee55b7)" style="fill: none; stroke: #b0b0b0; stroke-width: 0.8; stroke-linecap: square"/>
     </g>
     <g id="line2d_8">
      <g>
       <use xlink:href="#m5ce27e866b" x="377.571744" y="320.4" style="stroke: #000000; stroke-width: 0.8"/>
      </g>
     </g>
     <g id="text_4">
      <!-- 600 -->
      <g transform="translate(368.027994 334.998438) scale(0.1 -0.1)">
       <defs>
        <path id="DejaVuSans-36" d="M 2113 2584 
Q 1688 2584 1439 2293 
Q 1191 2003 1191 1497 
Q 1191 994 1439 701 
Q 1688 409 2113 409 
Q 2538 409 2786 701 
Q 3034 994 3034 1497 
Q 3034 2003 2786 2293 
Q 2538 2584 2113 2584 
z
M 3366 4563 
L 3366 3988 
Q 3128 4100 2886 4159 
Q 2644 4219 2406 4219 
Q 1781 4219 1451 3797 
Q 1122 3375 1075 2522 
Q 1259 2794 1537 2939 
Q 1816 3084 2150 3084 
Q 2853 3084 3261 2657 
Q 3669 2231 3669 1497 
Q 3669 778 3244 343 
Q 2819 -91 2113 -91 
Q 1303 -91 875 529 
Q 447 1150 447 2328 
Q 447 3434 972 4092 
Q 1497 4750 2381 4750 
Q 2619 4750 2861 4703 
Q 3103 4656 3366 4563 
z
" transform="scale(0.015625)"/>
       </defs>
       <use xlink:href="#DejaVuSans-36"/>
       <use xlink:href="#DejaVuSans-30" transform="translate(63.623047 0)"/>
       <use xlink:href="#DejaVuSans-30" transform="translate(127.246094 0)"/>
      </g>
     </g>
    </g>
    <g id="xtick_5">
     <g id="line2d_9">
      <path d="M 468.972236 320.4 
L 468.972236 43.2 
" clip-path="url(#pc89bee55b7)" style="fill: none; stroke: #b0b0b0; stroke-width: 0.8; stroke-linecap: square"/>
     </g>
     <g id="line2d_10">
      <g>
       <use xlink:href="#m5ce27e866b" x="468.972236" y="320.4" style="stroke: #000000; stroke-width: 0.8"/>
      </g>
     </g>
     <g id="text_5">
      <!-- 800 -->
      <g transform="translate(459.428486 334.998438) scale(0.1 -0.1)">
       <defs>
        <path id="DejaVuSans-38" d="M 2034 2216 
Q 1584 2216 1326 1975 
Q 1069 1734 1069 1313 
Q 1069 891 1326 650 
Q 1584 409 2034 409 
Q 2484 409 2743 651 
Q 3003 894 3003 1313 
Q 3003 1734 2745 1975 
Q 2488 2216 2034 2216 
z
M 1403 2484 
Q 997 2584 770 2862 
Q 544 3141 544 3541 
Q 544 4100 942 4425 
Q 1341 4750 2034 4750 
Q 2731 4750 3128 4425 
Q 3525 4100 3525 3541 
Q 3525 3141 3298 2862 
Q 3072 2584 2669 2484 
Q 3125 2378 3379 2068 
Q 3634 1759 3634 1313 
Q 3634 634 3220 271 
Q 2806 -91 2034 -91 
Q 1263 -91 848 271 
Q 434 634 434 1313 
Q 434 1759 690 2068 
Q 947 2378 1403 2484 
z
M 1172 3481 
Q 1172 3119 1398 2916 
Q 1625 2713 2034 2713 
Q 2441 2713 2670 2916 
Q 2900 3119 2900 3481 
Q 2900 3844 2670 4047 
Q 2441 4250 2034 4250 
Q 1625 4250 1398 4047 
Q 1172 3844 1172 3481 
z
" transform="scale(0.015625)"/>
       </defs>
       <use xlink:href="#DejaVuSans-38"/>
       <use xlink:href="#DejaVuSans-30" transform="translate(63.623047 0)"/>
       <use xlink:href="#DejaVuSans-30" transform="translate(127.246094 0)"/>
      </g>
     </g>
    </g>
    <g id="xtick_6">
     <g id="line2d_11">
      <path d="M 560.372727 320.4 
L 560.372727 43.2 
" clip-path="url(#pc89bee55b7)" style="fill: none; stroke: #b0b0b0; stroke-width: 0.8; stroke-linecap: square"/>
     </g>
     <g id="line2d_12">
      <g>
       <use xlink:href="#m5ce27e866b" x="560.372727" y="320.4" style="stroke: #000000; stroke-width: 0.8"/>
      </g>
     </g>
     <g id="text_6">
      <!-- 1000 -->
      <g transform="translate(547.647727 334.998438) scale(0.1 -0.1)">
       <defs>
        <path id="DejaVuSans-31" d="M 794 531 
L 1825 531 
L 1825 4091 
L 703 3866 
L 703 4441 
L 1819 4666 
L 2450 4666 
L 2450 531 
L 3481 531 
L 3481 0 
L 794 0 
L 794 531 
z
" transform="scale(0.015625)"/>
       </defs>
       <use xlink:href="#DejaVuSans-31"/>
       <use xlink:href="#DejaVuSans-30" transform="translate(63.623047 0)"/>
       <use xlink:href="#DejaVuSans-30" transform="translate(127.246094 0)"/>
       <use xlink:href="#DejaVuSans-30" transform="translate(190.869141 0)"/>
      </g>
     </g>
    </g>
    <g id="text_7">
     <!-- Time -->
     <g transform="translate(319.866406 348.676562) scale(0.1 -0.1)">
      <defs>
       <path id="DejaVuSans-54" d="M -19 4666 
L 3928 4666 
L 3928 4134 
L 2272 4134 
L 2272 0 
L 1638 0 
L 1638 4134 
L -19 4134 
L -19 4666 
z
" transform="scale(0.015625)"/>
       <path id="DejaVuSans-69" d="M 603 3500 
L 1178 3500 
L 1178 0 
L 603 0 
L 603 3500 
z
M 603 4863 
L 1178 4863 
L 1178 4134 
L 603 4134 
L 603 4863 
z
" transform="scale(0.015625)"/>
       <path id="DejaVuSans-6d" d="M 3328 2828 
Q 3544 3216 3844 3400 
Q 4144 3584 4550 3584 
Q 5097 3584 5394 3201 
Q 5691 2819 5691 2113 
L 5691 0 
L 5113 0 
L 5113 2094 
Q 5113 2597 4934 2840 
Q 4756 3084 4391 3084 
Q 3944 3084 3684 2787 
Q 3425 2491 3425 1978 
L 3425 0 
L 2847 0 
L 2847 2094 
Q 2847 2600 2669 2842 
Q 2491 3084 2119 3084 
Q 1678 3084 1418 2786 
Q 1159 2488 1159 1978 
L 1159 0 
L 581 0 
L 581 3500 
L 1159 3500 
L 1159 2956 
Q 1356 3278 1631 3431 
Q 1906 3584 2284 3584 
Q 2666 3584 2933 3390 
Q 3200 3197 3328 2828 
z
" transform="scale(0.015625)"/>
       <path id="DejaVuSans-65" d="M 3597 1894 
L 3597 1613 
L 953 1613 
Q 991 1019 1311 708 
Q 1631 397 2203 397 
Q 2534 397 2845 478 
Q 3156 559 3463 722 
L 3463 178 
Q 3153 47 2828 -22 
Q 2503 -91 2169 -91 
Q 1331 -91 842 396 
Q 353 884 353 1716 
Q 353 2575 817 3079 
Q 1281 3584 2069 3584 
Q 2775 3584 3186 3129 
Q 3597 2675 3597 1894 
z
M 3022 2063 
Q 3016 2534 2758 2815 
Q 2500 3097 2075 3097 
Q 1594 3097 1305 2825 
Q 1016 2553 972 2059 
L 3022 2063 
z
" transform="scale(0.015625)"/>
      </defs>
      <use xlink:href="#DejaVuSans-54"/>
      <use xlink:href="#DejaVuSans-69" transform="translate(57.958984 0)"/>
      <use xlink:href="#DejaVuSans-6d" transform="translate(85.742188 0)"/>
      <use xlink:href="#DejaVuSans-65" transform="translate(183.154297 0)"/>
     </g>
    </g>
   </g>
   <g id="matplotlib.axis_2">
    <g id="ytick_1">
     <g id="line2d_13">
      <path d="M 81 318.684831 
L 583.2 318.684831 
" clip-path="url(#pc89bee55b7)" style="fill: none; stroke: #b0b0b0; stroke-width: 0.8; stroke-linecap: square"/>
     </g>
     <g id="line2d_14">
      <defs>
       <path id="m97aba677a6" d="M 0 0 
L -3.5 0 
" style="stroke: #000000; stroke-width: 0.8"/>
      </defs>
      <g>
       <use xlink:href="#m97aba677a6" x="81" y="318.684831" style="stroke: #000000; stroke-width: 0.8"/>
      </g>
     </g>
     <g id="text_8">
      <!-- −0.0050 -->
      <g transform="translate(30.629687 322.48405) scale(0.1 -0.1)">
       <defs>
        <path id="DejaVuSans-2212" d="M 678 2272 
L 4684 2272 
L 4684 1741 
L 678 1741 
L 678 2272 
z
" transform="scale(0.015625)"/>
        <path id="DejaVuSans-2e" d="M 684 794 
L 1344 794 
L 1344 0 
L 684 0 
L 684 794 
z
" transform="scale(0.015625)"/>
        <path id="DejaVuSans-35" d="M 691 4666 
L 3169 4666 
L 3169 4134 
L 1269 4134 
L 1269 2991 
Q 1406 3038 1543 3061 
Q 1681 3084 1819 3084 
Q 2600 3084 3056 2656 
Q 3513 2228 3513 1497 
Q 3513 744 3044 326 
Q 2575 -91 1722 -91 
Q 1428 -91 1123 -41 
Q 819 9 494 109 
L 494 744 
Q 775 591 1075 516 
Q 1375 441 1709 441 
Q 2250 441 2565 725 
Q 2881 1009 2881 1497 
Q 2881 1984 2565 2268 
Q 2250 2553 1709 2553 
Q 1456 2553 1204 2497 
Q 953 2441 691 2322 
L 691 4666 
z
" transform="scale(0.015625)"/>
       </defs>
       <use xlink:href="#DejaVuSans-2212"/>
       <use xlink:href="#DejaVuSans-30" transform="translate(83.789062 0)"/>
       <use xlink:href="#DejaVuSans-2e" transform="translate(147.412109 0)"/>
       <use xlink:href="#DejaVuSans-30" transform="translate(179.199219 0)"/>
       <use xlink:href="#DejaVuSans-30" transform="translate(242.822266 0)"/>
       <use xlink:href="#DejaVuSans-35" transform="translate(306.445312 0)"/>
       <use xlink:href="#DejaVuSans-30" transform="translate(370.068359 0)"/>
      </g>
     </g>
    </g>
    <g id="ytick_2">
     <g id="line2d_15">
      <path d="M 81 283.196315 
L 583.2 283.196315 
" clip-path="url(#pc89bee55b7)" style="fill: none; stroke: #b0b0b0; stroke-width: 0.8; stroke-linecap: square"/>
     </g>
     <g id="line2d_16">
      <g>
       <use xlink:href="#m97aba677a6" x="81" y="283.196315" style="stroke: #000000; stroke-width: 0.8"/>
      </g>
     </g>
     <g id="text_9">
      <!-- −0.0025 -->
      <g transform="translate(30.629687 286.995534) scale(0.1 -0.1)">
       <use xlink:href="#DejaVuSans-2212"/>
       <use xlink:href="#DejaVuSans-30" transform="translate(83.789062 0)"/>
       <use xlink:href="#DejaVuSans-2e" transform="translate(147.412109 0)"/>
       <use xlink:href="#DejaVuSans-30" transform="translate(179.199219 0)"/>
       <use xlink:href="#DejaVuSans-30" transform="translate(242.822266 0)"/>
       <use xlink:href="#DejaVuSans-32" transform="translate(306.445312 0)"/>
       <use xlink:href="#DejaVuSans-35" transform="translate(370.068359 0)"/>
      </g>
     </g>
    </g>
    <g id="ytick_3">
     <g id="line2d_17">
      <path d="M 81 247.7078 
L 583.2 247.7078 
" clip-path="url(#pc89bee55b7)" style="fill: none; stroke: #b0b0b0; stroke-width: 0.8; stroke-linecap: square"/>
     </g>
     <g id="line2d_18">
      <g>
       <use xlink:href="#m97aba677a6" x="81" y="247.7078" style="stroke: #000000; stroke-width: 0.8"/>
      </g>
     </g>
     <g id="text_10">
      <!-- 0.0000 -->
      <g transform="translate(39.009375 251.507019) scale(0.1 -0.1)">
       <use xlink:href="#DejaVuSans-30"/>
       <use xlink:href="#DejaVuSans-2e" transform="translate(63.623047 0)"/>
       <use xlink:href="#DejaVuSans-30" transform="translate(95.410156 0)"/>
       <use xlink:href="#DejaVuSans-30" transform="translate(159.033203 0)"/>
       <use xlink:href="#DejaVuSans-30" transform="translate(222.65625 0)"/>
       <use xlink:href="#DejaVuSans-30" transform="translate(286.279297 0)"/>
      </g>
     </g>
    </g>
    <g id="ytick_4">
     <g id="line2d_19">
      <path d="M 81 212.219284 
L 583.2 212.219284 
" clip-path="url(#pc89bee55b7)" style="fill: none; stroke: #b0b0b0; stroke-width: 0.8; stroke-linecap: square"/>
     </g>
     <g id="line2d_20">
      <g>
       <use xlink:href="#m97aba677a6" x="81" y="212.219284" style="stroke: #000000; stroke-width: 0.8"/>
      </g>
     </g>
     <g id="text_11">
      <!-- 0.0025 -->
      <g transform="translate(39.009375 216.018503) scale(0.1 -0.1)">
       <use xlink:href="#DejaVuSans-30"/>
       <use xlink:href="#DejaVuSans-2e" transform="translate(63.623047 0)"/>
       <use xlink:href="#DejaVuSans-30" transform="translate(95.410156 0)"/>
       <use xlink:href="#DejaVuSans-30" transform="translate(159.033203 0)"/>
       <use xlink:href="#DejaVuSans-32" transform="translate(222.65625 0)"/>
       <use xlink:href="#DejaVuSans-35" transform="translate(286.279297 0)"/>
      </g>
     </g>
    </g>
    <g id="ytick_5">
     <g id="line2d_21">
      <path d="M 81 176.730769 
L 583.2 176.730769 
" clip-path="url(#pc89bee55b7)" style="fill: none; stroke: #b0b0b0; stroke-width: 0.8; stroke-linecap: square"/>
     </g>
     <g id="line2d_22">
      <g>
       <use xlink:href="#m97aba677a6" x="81" y="176.730769" style="stroke: #000000; stroke-width: 0.8"/>
      </g>
     </g>
     <g id="text_12">
      <!-- 0.0050 -->
      <g transform="translate(39.009375 180.529988) scale(0.1 -0.1)">
       <use xlink:href="#DejaVuSans-30"/>
       <use xlink:href="#DejaVuSans-2e" transform="translate(63.623047 0)"/>
       <use xlink:href="#DejaVuSans-30" transform="translate(95.410156 0)"/>
       <use xlink:href="#DejaVuSans-30" transform="translate(159.033203 0)"/>
       <use xlink:href="#DejaVuSans-35" transform="translate(222.65625 0)"/>
       <use xlink:href="#DejaVuSans-30" transform="translate(286.279297 0)"/>
      </g>
     </g>
    </g>
    <g id="ytick_6">
     <g id="line2d_23">
      <path d="M 81 141.242254 
L 583.2 141.242254 
" clip-path="url(#pc89bee55b7)" style="fill: none; stroke: #b0b0b0; stroke-width: 0.8; stroke-linecap: square"/>
     </g>
     <g id="line2d_24">
      <g>
       <use xlink:href="#m97aba677a6" x="81" y="141.242254" style="stroke: #000000; stroke-width: 0.8"/>
      </g>
     </g>
     <g id="text_13">
      <!-- 0.0075 -->
      <g transform="translate(39.009375 145.041472) scale(0.1 -0.1)">
       <defs>
        <path id="DejaVuSans-37" d="M 525 4666 
L 3525 4666 
L 3525 4397 
L 1831 0 
L 1172 0 
L 2766 4134 
L 525 4134 
L 525 4666 
z
" transform="scale(0.015625)"/>
       </defs>
       <use xlink:href="#DejaVuSans-30"/>
       <use xlink:href="#DejaVuSans-2e" transform="translate(63.623047 0)"/>
       <use xlink:href="#DejaVuSans-30" transform="translate(95.410156 0)"/>
       <use xlink:href="#DejaVuSans-30" transform="translate(159.033203 0)"/>
       <use xlink:href="#DejaVuSans-37" transform="translate(222.65625 0)"/>
       <use xlink:href="#DejaVuSans-35" transform="translate(286.279297 0)"/>
      </g>
     </g>
    </g>
    <g id="ytick_7">
     <g id="line2d_25">
      <path d="M 81 105.753738 
L 583.2 105.753738 
" clip-path="url(#pc89bee55b7)" style="fill: none; stroke: #b0b0b0; stroke-width: 0.8; stroke-linecap: square"/>
     </g>
     <g id="line2d_26">
      <g>
       <use xlink:href="#m97aba677a6" x="81" y="105.753738" style="stroke: #000000; stroke-width: 0.8"/>
      </g>
     </g>
     <g id="text_14">
      <!-- 0.0100 -->
      <g transform="translate(39.009375 109.552957) scale(0.1 -0.1)">
       <use xlink:href="#DejaVuSans-30"/>
       <use xlink:href="#DejaVuSans-2e" transform="translate(63.623047 0)"/>
       <use xlink:href="#DejaVuSans-30" transform="translate(95.410156 0)"/>
       <use xlink:href="#DejaVuSans-31" transform="translate(159.033203 0)"/>
       <use xlink:href="#DejaVuSans-30" transform="translate(222.65625 0)"/>
       <use xlink:href="#DejaVuSans-30" transform="translate(286.279297 0)"/>
      </g>
     </g>
    </g>
    <g id="ytick_8">
     <g id="line2d_27">
      <path d="M 81 70.265223 
L 583.2 70.265223 
" clip-path="url(#pc89bee55b7)" style="fill: none; stroke: #b0b0b0; stroke-width: 0.8; stroke-linecap: square"/>
     </g>
     <g id="line2d_28">
      <g>
       <use xlink:href="#m97aba677a6" x="81" y="70.265223" style="stroke: #000000; stroke-width: 0.8"/>
      </g>
     </g>
     <g id="text_15">
      <!-- 0.0125 -->
      <g transform="translate(39.009375 74.064441) scale(0.1 -0.1)">
       <use xlink:href="#DejaVuSans-30"/>
       <use xlink:href="#DejaVuSans-2e" transform="translate(63.623047 0)"/>
       <use xlink:href="#DejaVuSans-30" transform="translate(95.410156 0)"/>
       <use xlink:href="#DejaVuSans-31" transform="translate(159.033203 0)"/>
       <use xlink:href="#DejaVuSans-32" transform="translate(222.65625 0)"/>
       <use xlink:href="#DejaVuSans-35" transform="translate(286.279297 0)"/>
      </g>
     </g>
    </g>
    <g id="text_16">
     <!-- Average Reward -->
     <g transform="translate(24.55 222.542969) rotate(-90) scale(0.1 -0.1)">
      <defs>
       <path id="DejaVuSans-41" d="M 2188 4044 
L 1331 1722 
L 3047 1722 
L 2188 4044 
z
M 1831 4666 
L 2547 4666 
L 4325 0 
L 3669 0 
L 3244 1197 
L 1141 1197 
L 716 0 
L 50 0 
L 1831 4666 
z
" transform="scale(0.015625)"/>
       <path id="DejaVuSans-76" d="M 191 3500 
L 800 3500 
L 1894 563 
L 2988 3500 
L 3597 3500 
L 2284 0 
L 1503 0 
L 191 3500 
z
" transform="scale(0.015625)"/>
       <path id="DejaVuSans-72" d="M 2631 2963 
Q 2534 3019 2420 3045 
Q 2306 3072 2169 3072 
Q 1681 3072 1420 2755 
Q 1159 2438 1159 1844 
L 1159 0 
L 581 0 
L 581 3500 
L 1159 3500 
L 1159 2956 
Q 1341 3275 1631 3429 
Q 1922 3584 2338 3584 
Q 2397 3584 2469 3576 
Q 2541 3569 2628 3553 
L 2631 2963 
z
" transform="scale(0.015625)"/>
       <path id="DejaVuSans-61" d="M 2194 1759 
Q 1497 1759 1228 1600 
Q 959 1441 959 1056 
Q 959 750 1161 570 
Q 1363 391 1709 391 
Q 2188 391 2477 730 
Q 2766 1069 2766 1631 
L 2766 1759 
L 2194 1759 
z
M 3341 1997 
L 3341 0 
L 2766 0 
L 2766 531 
Q 2569 213 2275 61 
Q 1981 -91 1556 -91 
Q 1019 -91 701 211 
Q 384 513 384 1019 
Q 384 1609 779 1909 
Q 1175 2209 1959 2209 
L 2766 2209 
L 2766 2266 
Q 2766 2663 2505 2880 
Q 2244 3097 1772 3097 
Q 1472 3097 1187 3025 
Q 903 2953 641 2809 
L 641 3341 
Q 956 3463 1253 3523 
Q 1550 3584 1831 3584 
Q 2591 3584 2966 3190 
Q 3341 2797 3341 1997 
z
" transform="scale(0.015625)"/>
       <path id="DejaVuSans-67" d="M 2906 1791 
Q 2906 2416 2648 2759 
Q 2391 3103 1925 3103 
Q 1463 3103 1205 2759 
Q 947 2416 947 1791 
Q 947 1169 1205 825 
Q 1463 481 1925 481 
Q 2391 481 2648 825 
Q 2906 1169 2906 1791 
z
M 3481 434 
Q 3481 -459 3084 -895 
Q 2688 -1331 1869 -1331 
Q 1566 -1331 1297 -1286 
Q 1028 -1241 775 -1147 
L 775 -588 
Q 1028 -725 1275 -790 
Q 1522 -856 1778 -856 
Q 2344 -856 2625 -561 
Q 2906 -266 2906 331 
L 2906 616 
Q 2728 306 2450 153 
Q 2172 0 1784 0 
Q 1141 0 747 490 
Q 353 981 353 1791 
Q 353 2603 747 3093 
Q 1141 3584 1784 3584 
Q 2172 3584 2450 3431 
Q 2728 3278 2906 2969 
L 2906 3500 
L 3481 3500 
L 3481 434 
z
" transform="scale(0.015625)"/>
       <path id="DejaVuSans-20" transform="scale(0.015625)"/>
       <path id="DejaVuSans-52" d="M 2841 2188 
Q 3044 2119 3236 1894 
Q 3428 1669 3622 1275 
L 4263 0 
L 3584 0 
L 2988 1197 
Q 2756 1666 2539 1819 
Q 2322 1972 1947 1972 
L 1259 1972 
L 1259 0 
L 628 0 
L 628 4666 
L 2053 4666 
Q 2853 4666 3247 4331 
Q 3641 3997 3641 3322 
Q 3641 2881 3436 2590 
Q 3231 2300 2841 2188 
z
M 1259 4147 
L 1259 2491 
L 2053 2491 
Q 2509 2491 2742 2702 
Q 2975 2913 2975 3322 
Q 2975 3731 2742 3939 
Q 2509 4147 2053 4147 
L 1259 4147 
z
" transform="scale(0.015625)"/>
       <path id="DejaVuSans-77" d="M 269 3500 
L 844 3500 
L 1563 769 
L 2278 3500 
L 2956 3500 
L 3675 769 
L 4391 3500 
L 4966 3500 
L 4050 0 
L 3372 0 
L 2619 2869 
L 1863 0 
L 1184 0 
L 269 3500 
z
" transform="scale(0.015625)"/>
       <path id="DejaVuSans-64" d="M 2906 2969 
L 2906 4863 
L 3481 4863 
L 3481 0 
L 2906 0 
L 2906 525 
Q 2725 213 2448 61 
Q 2172 -91 1784 -91 
Q 1150 -91 751 415 
Q 353 922 353 1747 
Q 353 2572 751 3078 
Q 1150 3584 1784 3584 
Q 2172 3584 2448 3432 
Q 2725 3281 2906 2969 
z
M 947 1747 
Q 947 1113 1208 752 
Q 1469 391 1925 391 
Q 2381 391 2643 752 
Q 2906 1113 2906 1747 
Q 2906 2381 2643 2742 
Q 2381 3103 1925 3103 
Q 1469 3103 1208 2742 
Q 947 2381 947 1747 
z
" transform="scale(0.015625)"/>
      </defs>
      <use xlink:href="#DejaVuSans-41"/>
      <use xlink:href="#DejaVuSans-76" transform="translate(62.533203 0)"/>
      <use xlink:href="#DejaVuSans-65" transform="translate(121.712891 0)"/>
      <use xlink:href="#DejaVuSans-72" transform="translate(183.236328 0)"/>
      <use xlink:href="#DejaVuSans-61" transform="translate(224.349609 0)"/>
      <use xlink:href="#DejaVuSans-67" transform="translate(285.628906 0)"/>
      <use xlink:href="#DejaVuSans-65" transform="translate(349.105469 0)"/>
      <use xlink:href="#DejaVuSans-20" transform="translate(410.628906 0)"/>
      <use xlink:href="#DejaVuSans-52" transform="translate(442.416016 0)"/>
      <use xlink:href="#DejaVuSans-65" transform="translate(507.398438 0)"/>
      <use xlink:href="#DejaVuSans-77" transform="translate(568.921875 0)"/>
      <use xlink:href="#DejaVuSans-61" transform="translate(650.708984 0)"/>
      <use xlink:href="#DejaVuSans-72" transform="translate(711.988281 0)"/>
      <use xlink:href="#DejaVuSans-64" transform="translate(751.351562 0)"/>
     </g>
    </g>
   </g>
   <g id="line2d_29">
    <path d="M 103.827273 247.7078 
L 104.284275 247.721462 
L 104.741278 260.328237 
L 105.19828 282.419545 
L 105.655283 276.662677 
L 106.112285 262.88771 
L 106.569287 271.265159 
L 107.02629 224.220479 
L 107.483292 279.271568 
L 107.940295 295.94141 
L 108.397297 174.16608 
L 108.8543 307.8 
L 109.311302 266.537326 
L 109.768305 199.225497 
L 110.225307 178.663973 
L 110.68231 184.090943 
L 111.139312 186.555807 
L 111.596314 192.547355 
L 112.053317 200.400719 
L 112.510319 202.559878 
L 112.967322 202.513887 
L 113.424324 202.22447 
L 113.881327 202.383779 
L 114.338329 206.577324 
L 114.795332 220.544229 
L 115.252334 224.426112 
L 115.709337 234.159278 
L 116.166339 234.705924 
L 116.623342 235.07642 
L 117.080344 229.086129 
L 117.537346 216.274599 
L 117.994349 209.6674 
L 118.451351 219.791203 
L 118.908354 198.747444 
L 119.365356 214.151603 
L 119.822359 212.726278 
L 120.279361 191.650928 
L 120.736364 202.681587 
L 121.193366 182.297656 
L 121.650369 171.865602 
L 122.107371 181.859993 
L 123.021376 165.606606 
L 123.478378 164.533894 
L 124.392383 186.307825 
L 124.849386 192.746026 
L 125.306388 185.354279 
L 125.763391 199.328205 
L 126.220393 188.780544 
L 126.677396 212.548234 
L 127.134398 213.107865 
L 127.5914 206.14827 
L 128.048403 153.649892 
L 128.505405 177.70697 
L 128.962408 163.830262 
L 129.41941 164.788674 
L 129.876413 166.180318 
L 130.333415 168.212298 
L 130.790418 168.824818 
L 131.24742 170.126753 
L 131.704423 166.759018 
L 132.161425 166.814735 
L 132.618428 174.261199 
L 133.07543 171.191876 
L 133.989435 173.381455 
L 134.446437 172.053723 
L 134.90344 165.792726 
L 135.360442 166.896048 
L 135.817445 168.737458 
L 136.274447 176.267965 
L 136.73145 177.478573 
L 137.645455 158.711785 
L 138.102457 161.044319 
L 138.559459 175.180203 
L 139.016462 195.015651 
L 139.473464 191.729343 
L 139.930467 200.023333 
L 140.387469 201.148669 
L 140.844472 201.439465 
L 141.758477 202.685522 
L 142.215479 203.248254 
L 142.672482 200.839584 
L 143.586486 175.082856 
L 144.043489 180.760786 
L 144.500491 178.218908 
L 144.957494 174.476537 
L 145.414496 175.44819 
L 145.871499 177.504575 
L 146.328501 178.308376 
L 146.785504 178.37989 
L 147.242506 180.545657 
L 147.699509 189.038315 
L 148.156511 190.882888 
L 148.613514 200.625732 
L 149.527518 236.068036 
L 149.984521 240.903985 
L 150.441523 248.959112 
L 150.898526 253.705661 
L 151.355528 236.139879 
L 151.812531 241.884212 
L 152.269533 224.753672 
L 152.726536 213.049337 
L 153.183538 227.390056 
L 153.640541 237.072939 
L 154.097543 251.272418 
L 154.554545 244.299844 
L 155.011548 227.885664 
L 155.46855 222.721034 
L 156.382555 217.340999 
L 156.839558 229.774552 
L 157.29656 221.069515 
L 157.753563 222.892283 
L 158.210565 210.787374 
L 158.667568 213.979645 
L 159.12457 213.288786 
L 159.581572 207.722567 
L 160.038575 205.889898 
L 160.495577 205.403489 
L 160.95258 205.40324 
L 161.409582 203.374006 
L 161.866585 203.221635 
L 162.323587 204.514377 
L 162.78059 217.6253 
L 163.237592 221.531393 
L 163.694595 222.050603 
L 164.151597 221.254865 
L 164.6086 227.440486 
L 165.065602 226.255783 
L 165.522604 231.615907 
L 166.436609 227.893906 
L 166.893612 225.69194 
L 167.350614 226.298748 
L 167.807617 232.910598 
L 168.264619 242.439324 
L 168.721622 258.73307 
L 169.178624 263.233519 
L 169.635627 263.072039 
L 170.092629 261.881126 
L 170.549631 261.95495 
L 171.006634 260.735753 
L 171.463636 264.033579 
L 171.920639 268.610634 
L 172.377641 268.963321 
L 172.834644 270.426322 
L 173.291646 270.485001 
L 173.748649 268.008815 
L 174.205651 270.490635 
L 174.662654 269.214756 
L 175.119656 268.562542 
L 175.576658 276.529777 
L 176.033661 268.13173 
L 176.490663 266.574237 
L 176.947666 265.654049 
L 177.404668 264.287617 
L 177.861671 262.050024 
L 178.318673 252.992494 
L 179.232678 246.596043 
L 180.146683 255.10987 
L 180.603686 254.669318 
L 181.060688 254.668954 
L 181.51769 255.087185 
L 181.974693 255.924674 
L 182.431695 255.816321 
L 183.3457 255.26084 
L 184.259705 245.208968 
L 184.716708 245.877153 
L 185.17371 247.147744 
L 185.630713 248.005272 
L 186.087715 245.873874 
L 187.00172 247.648518 
L 187.458722 245.899624 
L 187.915725 245.544335 
L 188.372727 250.042644 
L 188.82973 250.059661 
L 189.286732 245.628334 
L 189.743735 239.927143 
L 190.200737 240.789859 
L 191.114742 230.474456 
L 191.571744 230.576756 
L 192.028747 224.439705 
L 192.942752 197.55423 
L 193.399754 205.423409 
L 193.856757 209.103379 
L 194.313759 203.387709 
L 195.227764 210.281018 
L 195.684767 211.283905 
L 196.141769 210.209019 
L 196.598771 210.088349 
L 197.055774 212.167646 
L 197.512776 215.911569 
L 197.969779 218.080453 
L 198.426781 219.701912 
L 199.340786 220.398956 
L 199.797789 223.34931 
L 200.254791 220.272253 
L 200.711794 218.564464 
L 201.168796 213.953676 
L 201.625799 200.15311 
L 202.539803 181.294325 
L 202.996806 171.752271 
L 203.453808 168.651387 
L 203.910811 170.072928 
L 204.367813 170.434016 
L 205.738821 172.515384 
L 206.195823 172.575268 
L 206.652826 173.514231 
L 207.109828 174.980506 
L 207.56683 174.737323 
L 208.023833 173.703127 
L 208.480835 170.332469 
L 208.937838 172.632673 
L 209.39484 178.304167 
L 209.851843 181.853956 
L 210.308845 182.056181 
L 210.765848 182.129465 
L 211.22285 183.600071 
L 212.136855 184.066797 
L 212.593857 185.348756 
L 213.507862 196.04082 
L 213.964865 188.461993 
L 214.421867 199.275787 
L 214.87887 192.649077 
L 215.335872 197.517726 
L 215.792875 195.445129 
L 216.249877 189.205063 
L 216.70688 172.946724 
L 217.163882 169.664114 
L 217.620885 160.093887 
L 218.534889 166.786592 
L 218.991892 165.397917 
L 219.448894 166.378859 
L 220.362899 167.598139 
L 221.276904 168.125388 
L 221.733907 166.036264 
L 222.190909 166.905256 
L 222.647912 166.347125 
L 223.104914 166.652281 
L 223.561916 167.91516 
L 224.018919 167.17995 
L 224.932924 167.025959 
L 225.389926 165.814823 
L 225.846929 166.590979 
L 226.303931 166.84912 
L 226.760934 166.682333 
L 227.674939 164.145037 
L 228.131941 164.595064 
L 228.588943 164.759097 
L 229.045946 165.16516 
L 229.502948 164.739385 
L 229.959951 166.248529 
L 230.416953 157.56943 
L 230.873956 155.720271 
L 231.330958 156.128538 
L 231.787961 151.618098 
L 232.701966 169.050305 
L 233.158968 167.1073 
L 233.615971 166.873109 
L 234.072973 166.392517 
L 234.529975 169.013694 
L 234.986978 169.293472 
L 235.44398 168.514971 
L 235.900983 168.429713 
L 236.814988 168.899996 
L 237.27199 168.989658 
L 237.728993 168.422424 
L 238.185995 168.583225 
L 238.642998 169.421748 
L 239.1 166.888168 
L 239.557002 165.80988 
L 240.471007 162.367162 
L 240.92801 162.217786 
L 241.385012 155.954474 
L 241.842015 157.103474 
L 242.299017 159.058293 
L 242.75602 158.775925 
L 243.213022 155.059845 
L 243.670025 153.572357 
L 244.127027 156.385513 
L 244.584029 149.385755 
L 245.041032 149.101239 
L 245.498034 148.614774 
L 245.955037 147.771691 
L 246.412039 149.260157 
L 246.869042 146.580572 
L 247.326044 141.903279 
L 247.783047 129.994413 
L 248.240049 129.278588 
L 248.697052 125.154814 
L 249.154054 134.122424 
L 249.611057 127.319304 
L 250.068059 130.96685 
L 250.525061 132.746241 
L 250.982064 132.480355 
L 251.439066 137.691381 
L 251.896069 135.85825 
L 252.353071 129.979549 
L 252.810074 125.882407 
L 253.267076 136.616953 
L 253.724079 136.282466 
L 254.181081 132.56179 
L 254.638084 139.711534 
L 255.095086 142.034378 
L 255.552088 139.486182 
L 256.466093 137.612466 
L 256.923096 134.873357 
L 257.380098 134.775876 
L 257.837101 135.161327 
L 258.294103 138.592013 
L 259.665111 138.868026 
L 260.122113 139.510226 
L 260.579115 139.060035 
L 261.036118 138.016356 
L 261.49312 140.665359 
L 261.950123 140.86364 
L 262.407125 140.776198 
L 262.864128 142.186107 
L 263.32113 142.134317 
L 263.778133 141.798721 
L 264.235135 142.913059 
L 264.692138 142.263664 
L 265.14914 142.504129 
L 265.606143 142.486751 
L 266.063145 142.315583 
L 266.520147 142.957255 
L 267.434152 144.851318 
L 268.348157 146.521661 
L 268.80516 145.358562 
L 269.262162 147.544076 
L 269.719165 146.65716 
L 270.176167 147.543792 
L 270.63317 147.30646 
L 271.090172 148.42939 
L 271.547174 146.404275 
L 272.004177 144.935259 
L 272.461179 144.545727 
L 272.918182 145.488973 
L 273.375184 144.93582 
L 273.832187 144.566883 
L 274.289189 147.648329 
L 274.746192 147.11473 
L 275.203194 144.917144 
L 276.117199 137.826385 
L 276.574201 135.230064 
L 277.488206 122.011018 
L 277.945209 135.252558 
L 278.402211 135.471725 
L 278.859214 135.819518 
L 279.316216 142.373988 
L 279.773219 142.704375 
L 280.230221 142.89047 
L 280.687224 141.686874 
L 281.144226 142.375008 
L 281.601229 141.556506 
L 282.058231 141.175427 
L 282.515233 143.184203 
L 282.972236 140.789478 
L 283.429238 141.613754 
L 283.886241 134.042295 
L 284.343243 141.482776 
L 284.800246 143.223129 
L 285.257248 142.936294 
L 285.714251 144.074257 
L 286.171253 143.05206 
L 286.628256 143.64174 
L 287.999263 143.902712 
L 288.913268 144.394147 
L 289.37027 144.530982 
L 289.827273 144.535898 
L 290.284275 144.767531 
L 291.19828 144.754591 
L 291.655283 148.220258 
L 292.112285 142.750928 
L 292.569287 146.881342 
L 293.02629 153.424168 
L 293.483292 147.414166 
L 293.940295 159.434856 
L 294.8543 167.612352 
L 295.311302 167.748745 
L 295.768305 167.730879 
L 296.68231 167.941501 
L 297.139312 167.995655 
L 297.596314 168.178346 
L 298.053317 166.718519 
L 298.510319 168.283893 
L 299.424324 172.646856 
L 299.881327 173.560401 
L 300.338329 173.286305 
L 300.795332 172.278097 
L 301.252334 170.97888 
L 301.709337 168.804032 
L 302.166339 168.957528 
L 302.623342 168.618249 
L 303.080344 167.519795 
L 303.537346 161.33876 
L 303.994349 157.915004 
L 304.451351 160.700907 
L 304.908354 157.783787 
L 305.365356 158.400497 
L 305.822359 153.904751 
L 306.279361 157.982144 
L 306.736364 157.863174 
L 307.193366 158.361766 
L 308.107371 162.704582 
L 308.564373 162.497211 
L 309.021376 162.132362 
L 310.392383 162.500313 
L 310.849386 162.784766 
L 311.306388 159.742757 
L 311.763391 159.077903 
L 312.220393 150.348195 
L 312.677396 148.568898 
L 313.134398 140.62363 
L 313.5914 138.329948 
L 314.048403 134.230667 
L 314.505405 136.141473 
L 314.962408 138.809506 
L 315.876413 137.031645 
L 316.333415 137.167652 
L 316.790418 134.674421 
L 318.161425 124.167221 
L 318.618428 124.468478 
L 319.07543 125.558452 
L 319.532432 125.781363 
L 319.989435 124.691793 
L 320.90344 124.923593 
L 321.360442 125.786514 
L 321.817445 125.657982 
L 323.188452 126.787483 
L 324.102457 125.700251 
L 324.559459 124.318977 
L 325.016462 121.434642 
L 325.473464 123.533409 
L 325.930467 120.371874 
L 326.387469 124.564551 
L 326.844472 123.702869 
L 327.301474 123.438388 
L 327.758477 124.422015 
L 328.215479 124.396254 
L 328.672482 125.430719 
L 329.129484 127.765538 
L 329.586486 128.339539 
L 330.043489 130.745245 
L 330.500491 129.941454 
L 330.957494 132.780904 
L 331.414496 132.11066 
L 331.871499 133.233893 
L 332.328501 132.866301 
L 332.785504 131.596875 
L 333.242506 134.231703 
L 333.699509 134.717002 
L 334.156511 134.412991 
L 334.613514 134.663477 
L 335.070516 126.943788 
L 335.527518 126.101079 
L 335.984521 133.332084 
L 336.898526 133.516006 
L 337.355528 134.282385 
L 337.812531 136.034174 
L 338.726536 126.971249 
L 339.183538 127.441064 
L 339.640541 126.280166 
L 340.097543 128.281873 
L 340.554545 128.250707 
L 341.011548 127.153434 
L 341.46855 127.116408 
L 341.925553 129.499811 
L 342.382555 129.912697 
L 342.839558 130.156443 
L 343.29656 130.605651 
L 343.753563 129.957353 
L 344.210565 128.422205 
L 344.667568 128.535551 
L 345.12457 132.87683 
L 346.495577 127.823509 
L 346.95258 124.773284 
L 347.409582 127.684102 
L 347.866585 124.275383 
L 348.323587 126.183242 
L 348.78059 125.801146 
L 349.237592 127.132373 
L 349.694595 127.598685 
L 350.151597 126.918293 
L 350.6086 126.991109 
L 351.065602 127.805735 
L 351.522604 127.74727 
L 351.979607 126.785718 
L 352.436609 130.504191 
L 352.893612 129.205809 
L 353.350614 124.014125 
L 353.807617 121.467087 
L 354.721622 123.162498 
L 355.178624 119.626834 
L 355.635627 118.452514 
L 356.092629 117.933036 
L 357.006634 117.793421 
L 357.463636 118.414789 
L 357.920639 119.423292 
L 358.377641 118.666403 
L 358.834644 118.283723 
L 359.291646 118.556245 
L 359.748649 118.325737 
L 360.205651 118.451887 
L 360.662654 116.992852 
L 361.576658 113.717257 
L 362.033661 112.736104 
L 362.490663 111.469532 
L 362.947666 111.80857 
L 363.404668 112.382396 
L 363.861671 111.539517 
L 365.689681 112.4602 
L 366.603686 109.644758 
L 367.060688 109.597897 
L 367.51769 111.630243 
L 367.974693 108.914146 
L 368.431695 109.366869 
L 368.888698 110.024717 
L 369.3457 110.247155 
L 369.802703 110.741682 
L 370.259705 109.251688 
L 370.716708 108.464631 
L 371.630713 98.874951 
L 372.087715 100.339485 
L 372.544717 98.944763 
L 373.00172 98.17041 
L 373.458722 96.273834 
L 373.915725 95.312803 
L 374.372727 95.333059 
L 374.82973 95.061984 
L 375.743735 95.649621 
L 376.65774 96.301755 
L 377.114742 99.23353 
L 377.571744 97.844904 
L 378.028747 97.746926 
L 378.942752 101.784965 
L 379.399754 99.494025 
L 379.856757 99.212637 
L 380.313759 100.904776 
L 380.770762 101.71155 
L 381.227764 102.155388 
L 382.141769 102.374412 
L 382.598771 102.774329 
L 383.055774 102.722773 
L 383.969779 102.844089 
L 384.426781 101.729213 
L 384.883784 102.459351 
L 385.340786 107.988125 
L 385.797789 103.895391 
L 386.254791 104.454936 
L 386.711794 102.875996 
L 387.168796 104.142562 
L 387.625799 104.308702 
L 388.082801 105.284725 
L 388.539803 106.585492 
L 388.996806 106.873468 
L 389.453808 108.008939 
L 389.910811 106.717044 
L 390.367813 108.063103 
L 391.281818 109.269914 
L 391.738821 108.642572 
L 392.195823 107.410283 
L 392.652826 108.000952 
L 393.56683 108.397603 
L 394.023833 108.941217 
L 394.480835 107.830449 
L 394.937838 108.870337 
L 395.39484 108.845046 
L 395.851843 108.518937 
L 396.308845 106.598062 
L 396.765848 107.138112 
L 397.22285 103.845728 
L 397.679853 105.04576 
L 398.136855 104.759608 
L 399.05086 105.211332 
L 399.507862 105.174433 
L 399.964865 105.510457 
L 400.87887 105.590416 
L 401.335872 106.627955 
L 402.249877 107.072369 
L 402.70688 107.446056 
L 403.163882 108.934938 
L 403.620885 108.632446 
L 404.077887 110.8154 
L 404.534889 110.408931 
L 404.991892 110.426056 
L 405.448894 108.200569 
L 405.905897 109.620644 
L 406.819902 110.117087 
L 407.276904 110.873367 
L 407.733907 110.394352 
L 408.190909 110.55014 
L 408.647912 110.122703 
L 409.104914 110.269447 
L 409.561916 108.045822 
L 410.018919 106.696731 
L 410.475921 100.947087 
L 410.932924 100.50387 
L 411.389926 100.990071 
L 411.846929 99.217041 
L 412.303931 93.75036 
L 412.760934 96.339488 
L 413.217936 97.50731 
L 413.674939 96.756583 
L 414.588943 96.882781 
L 415.502948 97.5512 
L 415.959951 96.592591 
L 416.416953 97.487374 
L 416.873956 96.666179 
L 417.330958 97.461312 
L 417.787961 97.366041 
L 418.244963 97.47959 
L 418.701966 96.180291 
L 419.158968 97.022239 
L 420.072973 100.943027 
L 420.529975 101.519641 
L 420.986978 103.42085 
L 421.900983 103.561741 
L 422.357985 105.42054 
L 422.814988 101.995921 
L 423.27199 101.566018 
L 423.728993 97.473072 
L 424.185995 95.321464 
L 424.642998 95.176505 
L 425.1 89.732077 
L 425.557002 89.761035 
L 426.014005 94.874727 
L 426.471007 93.700881 
L 426.92801 93.807031 
L 427.385012 95.912889 
L 427.842015 95.337872 
L 428.299017 94.195184 
L 428.75602 90.998784 
L 429.213022 92.001426 
L 429.670025 91.991297 
L 430.127027 91.07622 
L 430.584029 91.283514 
L 431.041032 90.651834 
L 431.498034 89.629498 
L 431.955037 90.609569 
L 432.412039 87.814588 
L 432.869042 89.561924 
L 433.326044 86.239848 
L 433.783047 84.625617 
L 434.240049 87.911087 
L 434.697052 89.734639 
L 435.154054 88.812044 
L 435.611057 85.218897 
L 436.068059 83.292915 
L 436.525061 83.312999 
L 436.982064 83.14888 
L 438.353071 81.556502 
L 438.810074 78.996629 
L 439.267076 78.234465 
L 439.724079 79.580405 
L 440.181081 78.265851 
L 440.638084 78.323398 
L 441.095086 78.198708 
L 441.552088 78.427568 
L 442.009091 78.431947 
L 442.466093 80.363114 
L 442.923096 81.180677 
L 443.380098 80.334897 
L 443.837101 80.895696 
L 444.751106 78.716122 
L 445.208108 79.434399 
L 445.665111 79.446785 
L 446.122113 79.63041 
L 446.579115 79.992778 
L 447.49312 80.241733 
L 447.950123 80.228183 
L 448.407125 81.299097 
L 448.864128 81.656007 
L 449.32113 80.531508 
L 449.778133 77.577143 
L 450.235135 78.9182 
L 450.692138 78.615805 
L 451.14914 80.497591 
L 452.063145 82.31576 
L 452.97715 86.329282 
L 453.434152 85.735585 
L 453.891155 89.270172 
L 454.348157 87.215393 
L 454.80516 88.98699 
L 455.262162 85.564228 
L 455.719165 85.991657 
L 456.176167 85.852882 
L 456.63317 87.521647 
L 457.547174 80.395325 
L 458.004177 78.673983 
L 458.461179 81.935059 
L 458.918182 80.876589 
L 459.375184 83.230501 
L 459.832187 80.15464 
L 460.289189 78.695262 
L 460.746192 78.674134 
L 461.203194 81.357757 
L 461.660197 82.141654 
L 462.117199 81.229527 
L 463.031204 77.225197 
L 463.488206 80.013497 
L 463.945209 79.406412 
L 464.402211 78.028146 
L 464.859214 79.975684 
L 465.773219 80.38069 
L 466.230221 80.472876 
L 466.687224 79.931788 
L 467.144226 79.987183 
L 467.601229 79.790073 
L 468.058231 79.777579 
L 468.515233 79.587116 
L 469.886241 79.861606 
L 470.343243 80.205789 
L 471.714251 80.65224 
L 472.628256 80.662683 
L 473.085258 80.787983 
L 473.54226 80.360394 
L 474.456265 82.049891 
L 476.284275 82.682522 
L 477.655283 84.277405 
L 478.112285 84.316641 
L 478.569287 83.638709 
L 479.02629 84.247159 
L 479.483292 85.574956 
L 479.940295 86.045128 
L 480.397297 85.448602 
L 480.8543 85.963351 
L 481.311302 87.214627 
L 481.768305 90.604001 
L 482.225307 88.137774 
L 482.68231 87.4206 
L 483.139312 88.223343 
L 483.596314 87.809093 
L 484.053317 85.368173 
L 484.510319 85.850414 
L 484.967322 86.591254 
L 485.881327 86.39549 
L 486.338329 85.379888 
L 486.795332 88.679568 
L 487.252334 87.428368 
L 487.709337 87.118861 
L 488.166339 87.392917 
L 488.623342 87.338941 
L 489.080344 88.238728 
L 489.537346 89.782036 
L 489.994349 92.735079 
L 490.451351 92.519772 
L 490.908354 93.666207 
L 491.365356 93.491104 
L 491.822359 90.766956 
L 492.279361 91.4851 
L 492.736364 89.968395 
L 493.193366 90.168455 
L 494.107371 86.549536 
L 494.564373 87.606502 
L 495.021376 87.556089 
L 495.478378 85.28996 
L 495.935381 84.199939 
L 496.392383 87.129429 
L 496.849386 86.339391 
L 497.306388 87.719671 
L 497.763391 87.037695 
L 498.677396 87.44031 
L 499.134398 87.635753 
L 499.5914 87.671719 
L 500.048403 88.081693 
L 500.505405 87.86923 
L 500.962408 88.072992 
L 501.41941 89.06202 
L 502.333415 87.683503 
L 502.790418 86.244857 
L 503.24742 85.190097 
L 503.704423 83.524175 
L 504.161425 84.12277 
L 505.07543 90.269198 
L 505.532432 86.496648 
L 505.989435 87.647054 
L 506.446437 90.477552 
L 506.90344 89.572619 
L 507.360442 89.569134 
L 507.817445 86.718124 
L 508.274447 86.698971 
L 508.73145 84.253981 
L 509.188452 84.503223 
L 509.645455 82.151787 
L 510.102457 82.531596 
L 510.559459 83.748939 
L 511.016462 80.817501 
L 511.473464 76.690929 
L 511.930467 70.281547 
L 512.387469 68.301946 
L 512.844472 65.651376 
L 513.301474 61.256185 
L 513.758477 61.755169 
L 514.215479 60.183175 
L 514.672482 57.494017 
L 515.129484 55.8 
L 515.586486 57.838226 
L 516.043489 58.760945 
L 516.500491 58.182367 
L 516.957494 59.3925 
L 517.414496 58.041867 
L 518.328501 58.62581 
L 518.785504 58.766493 
L 519.242506 59.100152 
L 519.699509 58.917114 
L 520.156511 59.335957 
L 520.613514 59.954988 
L 521.070516 57.401258 
L 521.527518 58.463825 
L 521.984521 56.314168 
L 522.441523 56.239597 
L 523.355528 56.766155 
L 523.812531 58.111429 
L 524.269533 59.820394 
L 524.726536 58.862077 
L 525.183538 60.666256 
L 525.640541 60.451794 
L 526.554545 60.826209 
L 527.011548 60.939472 
L 527.46855 61.390015 
L 528.382555 60.932767 
L 528.839558 62.051554 
L 529.29656 62.424963 
L 529.753563 63.0021 
L 530.210565 62.354682 
L 530.667568 63.499742 
L 531.12457 61.131677 
L 531.581572 60.804268 
L 532.038575 62.931624 
L 532.95258 64.885489 
L 533.409582 66.50844 
L 533.866585 66.098444 
L 534.323587 67.843284 
L 534.78059 71.806123 
L 535.237592 71.903508 
L 535.694595 75.564153 
L 536.6086 78.252521 
L 537.065602 80.286183 
L 537.522604 78.296622 
L 537.979607 78.646606 
L 538.436609 78.757656 
L 538.893612 76.300985 
L 539.350614 75.099653 
L 539.807617 75.118354 
L 540.264619 73.116373 
L 540.721622 74.726202 
L 541.178624 72.893555 
L 542.092629 72.48219 
L 543.920639 73.434257 
L 544.377641 74.012763 
L 544.834644 73.967874 
L 546.205651 74.24677 
L 546.662654 74.892814 
L 547.576658 74.974038 
L 548.033661 75.164432 
L 548.490663 76.022457 
L 548.947666 75.768627 
L 549.404668 76.027872 
L 549.861671 75.634898 
L 550.318673 75.917031 
L 550.775676 76.763761 
L 551.689681 77.266961 
L 552.146683 76.937755 
L 552.603686 76.994354 
L 553.060688 76.77971 
L 553.51769 76.14507 
L 553.974693 76.079288 
L 554.431695 76.36069 
L 554.888698 76.358605 
L 555.3457 76.165844 
L 555.802703 75.749617 
L 556.259705 76.047288 
L 556.716708 76.527519 
L 557.17371 76.833827 
L 557.630713 76.889844 
L 558.087715 76.728524 
L 559.00172 75.256235 
L 559.458722 75.028521 
L 559.915725 75.586342 
L 560.372727 71.910136 
L 560.372727 71.910136 
" clip-path="url(#pc89bee55b7)" style="fill: none; stroke: #800080; stroke-width: 1.5; stroke-linecap: square"/>
   </g>
   <g id="patch_3">
    <path d="M 81 320.4 
L 81 43.2 
" style="fill: none; stroke: #000000; stroke-width: 0.8; stroke-linejoin: miter; stroke-linecap: square"/>
   </g>
   <g id="patch_4">
    <path d="M 583.2 320.4 
L 583.2 43.2 
" style="fill: none; stroke: #000000; stroke-width: 0.8; stroke-linejoin: miter; stroke-linecap: square"/>
   </g>
   <g id="patch_5">
    <path d="M 81 320.4 
L 583.2 320.4 
" style="fill: none; stroke: #000000; stroke-width: 0.8; stroke-linejoin: miter; stroke-linecap: square"/>
   </g>
   <g id="patch_6">
    <path d="M 81 43.2 
L 583.2 43.2 
" style="fill: none; stroke: #000000; stroke-width: 0.8; stroke-linejoin: miter; stroke-linecap: square"/>
   </g>
   <g id="text_17">
    <!-- Average Reward Over Time -->
    <g transform="translate(250.281563 37.2) scale(0.12 -0.12)">
     <defs>
      <path id="DejaVuSans-4f" d="M 2522 4238 
Q 1834 4238 1429 3725 
Q 1025 3213 1025 2328 
Q 1025 1447 1429 934 
Q 1834 422 2522 422 
Q 3209 422 3611 934 
Q 4013 1447 4013 2328 
Q 4013 3213 3611 3725 
Q 3209 4238 2522 4238 
z
M 2522 4750 
Q 3503 4750 4090 4092 
Q 4678 3434 4678 2328 
Q 4678 1225 4090 567 
Q 3503 -91 2522 -91 
Q 1538 -91 948 565 
Q 359 1222 359 2328 
Q 359 3434 948 4092 
Q 1538 4750 2522 4750 
z
" transform="scale(0.015625)"/>
     </defs>
     <use xlink:href="#DejaVuSans-41"/>
     <use xlink:href="#DejaVuSans-76" transform="translate(62.533203 0)"/>
     <use xlink:href="#DejaVuSans-65" transform="translate(121.712891 0)"/>
     <use xlink:href="#DejaVuSans-72" transform="translate(183.236328 0)"/>
     <use xlink:href="#DejaVuSans-61" transform="translate(224.349609 0)"/>
     <use xlink:href="#DejaVuSans-67" transform="translate(285.628906 0)"/>
     <use xlink:href="#DejaVuSans-65" transform="translate(349.105469 0)"/>
     <use xlink:href="#DejaVuSans-20" transform="translate(410.628906 0)"/>
     <use xlink:href="#DejaVuSans-52" transform="translate(442.416016 0)"/>
     <use xlink:href="#DejaVuSans-65" transform="translate(507.398438 0)"/>
     <use xlink:href="#DejaVuSans-77" transform="translate(568.921875 0)"/>
     <use xlink:href="#DejaVuSans-61" transform="translate(650.708984 0)"/>
     <use xlink:href="#DejaVuSans-72" transform="translate(711.988281 0)"/>
     <use xlink:href="#DejaVuSans-64" transform="translate(751.351562 0)"/>
     <use xlink:href="#DejaVuSans-20" transform="translate(814.828125 0)"/>
     <use xlink:href="#DejaVuSans-4f" transform="translate(846.615234 0)"/>
     <use xlink:href="#DejaVuSans-76" transform="translate(925.326172 0)"/>
     <use xlink:href="#DejaVuSans-65" transform="translate(984.505859 0)"/>
     <use xlink:href="#DejaVuSans-72" transform="translate(1046.029297 0)"/>
     <use xlink:href="#DejaVuSans-20" transform="translate(1087.142578 0)"/>
     <use xlink:href="#DejaVuSans-54" transform="translate(1118.929688 0)"/>
     <use xlink:href="#DejaVuSans-69" transform="translate(1176.888672 0)"/>
     <use xlink:href="#DejaVuSans-6d" transform="translate(1204.671875 0)"/>
     <use xlink:href="#DejaVuSans-65" transform="translate(1302.083984 0)"/>
    </g>
   </g>
   <g id="legend_1">
    <g id="patch_7">
     <path d="M 88 65.878125 
L 201.485938 65.878125 
Q 203.485938 65.878125 203.485938 63.878125 
L 203.485938 50.2 
Q 203.485938 48.2 201.485938 48.2 
L 88 48.2 
Q 86 48.2 86 50.2 
L 86 63.878125 
Q 86 65.878125 88 65.878125 
z
" style="fill: #ffffff; opacity: 0.8; stroke: #cccccc; stroke-linejoin: miter"/>
    </g>
    <g id="line2d_30">
     <path d="M 90 56.298437 
L 100 56.298437 
L 110 56.298437 
" style="fill: none; stroke: #800080; stroke-width: 1.5; stroke-linecap: square"/>
    </g>
    <g id="text_18">
     <!-- Average Reward -->
     <g transform="translate(118 59.798437) scale(0.1 -0.1)">
      <use xlink:href="#DejaVuSans-41"/>
      <use xlink:href="#DejaVuSans-76" transform="translate(62.533203 0)"/>
      <use xlink:href="#DejaVuSans-65" transform="translate(121.712891 0)"/>
      <use xlink:href="#DejaVuSans-72" transform="translate(183.236328 0)"/>
      <use xlink:href="#DejaVuSans-61" transform="translate(224.349609 0)"/>
      <use xlink:href="#DejaVuSans-67" transform="translate(285.628906 0)"/>
      <use xlink:href="#DejaVuSans-65" transform="translate(349.105469 0)"/>
      <use xlink:href="#DejaVuSans-20" transform="translate(410.628906 0)"/>
      <use xlink:href="#DejaVuSans-52" transform="translate(442.416016 0)"/>
      <use xlink:href="#DejaVuSans-65" transform="translate(507.398438 0)"/>
      <use xlink:href="#DejaVuSans-77" transform="translate(568.921875 0)"/>
      <use xlink:href="#DejaVuSans-61" transform="translate(650.708984 0)"/>
      <use xlink:href="#DejaVuSans-72" transform="translate(711.988281 0)"/>
      <use xlink:href="#DejaVuSans-64" transform="translate(751.351562 0)"/>
     </g>
    </g>
   </g>
  </g>
 </g>
 <defs>
  <clipPath id="pc89bee55b7">
   <rect x="81" y="43.2" width="502.2" height="277.2"/>
  </clipPath>
 </defs>
</svg>
