<?xml version="1.0" encoding="utf-8" standalone="no"?>
<!DOCTYPE svg PUBLIC "-//W3C//DTD SVG 1.1//EN"
  "http://www.w3.org/Graphics/SVG/1.1/DTD/svg11.dtd">
<svg xmlns:xlink="http://www.w3.org/1999/xlink" width="648pt" height="360pt" viewBox="0 0 648 360" xmlns="http://www.w3.org/2000/svg" version="1.1">
 <metadata>
  <rdf:RDF xmlns:dc="http://purl.org/dc/elements/1.1/" xmlns:cc="http://creativecommons.org/ns#" xmlns:rdf="http://www.w3.org/1999/02/22-rdf-syntax-ns#">
   <cc:Work>
    <dc:type rdf:resource="http://purl.org/dc/dcmitype/StillImage"/>
    <dc:date>2025-10-31T15:32:40.579479</dc:date>
    <dc:format>image/svg+xml</dc:format>
    <dc:creator>
     <cc:Agent>
      <dc:title>Matplotlib v3.10.6, https://matplotlib.org/</dc:title>
     </cc:Agent>
    </dc:creator>
   </cc:Work>
  </rdf:RDF>
 </metadata>
 <defs>
  <style type="text/css">*{stroke-linejoin: round; stroke-linecap: butt}</style>
 </defs>
 <g id="figure_1">
  <g id="patch_1">
   <path d="M 0 360 
L 648 360 
L 648 0 
L 0 0 
z
" style="fill: #ffffff"/>
  </g>
  <g id="axes_1">
   <g id="patch_2">
    <path d="M 81 320.4 
L 583.2 320.4 
L 583.2 43.2 
L 81 43.2 
z
" style="fill: #ffffff"/>
   </g>
   <g id="matplotlib.axis_1">
    <g id="xtick_1">
     <g id="line2d_1">
      <path d="M 103.37027 320.4 
L 103.37027 43.2 
" clip-path="url(#pa2b127901a)" style="fill: none; stroke: #b0b0b0; stroke-width: 0.8; stroke-linecap: square"/>
     </g>
     <g id="line2d_2">
      <defs>
       <path id="mc82bfe1392" d="M 0 0 
L 0 3.5 
" style="stroke: #000000; stroke-width: 0.8"/>
      </defs>
      <g>
       <use xlink:href="#mc82bfe1392" x="103.37027" y="320.4" style="stroke: #000000; stroke-width: 0.8"/>
      </g>
     </g>
     <g id="text_1">
      <!-- 0 -->
      <g transform="translate(100.18902 334.998438) scale(0.1 -0.1)">
       <defs>
        <path id="DejaVuSans-30" d="M 2034 4250 
Q 1547 4250 1301 3770 
Q 1056 3291 1056 2328 
Q 1056 1369 1301 889 
Q 1547 409 2034 409 
Q 2525 409 2770 889 
Q 3016 1369 3016 2328 
Q 3016 3291 2770 3770 
Q 2525 4250 2034 4250 
z
M 2034 4750 
Q 2819 4750 3233 4129 
Q 3647 3509 3647 2328 
Q 3647 1150 3233 529 
Q 2819 -91 2034 -91 
Q 1250 -91 836 529 
Q 422 1150 422 2328 
Q 422 3509 836 4129 
Q 1250 4750 2034 4750 
z
" transform="scale(0.015625)"/>
       </defs>
       <use xlink:href="#DejaVuSans-30"/>
      </g>
     </g>
    </g>
    <g id="xtick_2">
     <g id="line2d_3">
      <path d="M 194.770762 320.4 
L 194.770762 43.2 
" clip-path="url(#pa2b127901a)" style="fill: none; stroke: #b0b0b0; stroke-width: 0.8; stroke-linecap: square"/>
     </g>
     <g id="line2d_4">
      <g>
       <use xlink:href="#mc82bfe1392" x="194.770762" y="320.4" style="stroke: #000000; stroke-width: 0.8"/>
      </g>
     </g>
     <g id="text_2">
      <!-- 200 -->
      <g transform="translate(185.227012 334.998438) scale(0.1 -0.1)">
       <defs>
        <path id="DejaVuSans-32" d="M 1228 531 
L 3431 531 
L 3431 0 
L 469 0 
L 469 531 
Q 828 903 1448 1529 
Q 2069 2156 2228 2338 
Q 2531 2678 2651 2914 
Q 2772 3150 2772 3378 
Q 2772 3750 2511 3984 
Q 2250 4219 1831 4219 
Q 1534 4219 1204 4116 
Q 875 4013 500 3803 
L 500 4441 
Q 881 4594 1212 4672 
Q 1544 4750 1819 4750 
Q 2544 4750 2975 4387 
Q 3406 4025 3406 3419 
Q 3406 3131 3298 2873 
Q 3191 2616 2906 2266 
Q 2828 2175 2409 1742 
Q 1991 1309 1228 531 
z
" transform="scale(0.015625)"/>
       </defs>
       <use xlink:href="#DejaVuSans-32"/>
       <use xlink:href="#DejaVuSans-30" transform="translate(63.623047 0)"/>
       <use xlink:href="#DejaVuSans-30" transform="translate(127.246094 0)"/>
      </g>
     </g>
    </g>
    <g id="xtick_3">
     <g id="line2d_5">
      <path d="M 286.171253 320.4 
L 286.171253 43.2 
" clip-path="url(#pa2b127901a)" style="fill: none; stroke: #b0b0b0; stroke-width: 0.8; stroke-linecap: square"/>
     </g>
     <g id="line2d_6">
      <g>
       <use xlink:href="#mc82bfe1392" x="286.171253" y="320.4" style="stroke: #000000; stroke-width: 0.8"/>
      </g>
     </g>
     <g id="text_3">
      <!-- 400 -->
      <g transform="translate(276.627503 334.998438) scale(0.1 -0.1)">
       <defs>
        <path id="DejaVuSans-34" d="M 2419 4116 
L 825 1625 
L 2419 1625 
L 2419 4116 
z
M 2253 4666 
L 3047 4666 
L 3047 1625 
L 3713 1625 
L 3713 1100 
L 3047 1100 
L 3047 0 
L 2419 0 
L 2419 1100 
L 313 1100 
L 313 1709 
L 2253 4666 
z
" transform="scale(0.015625)"/>
       </defs>
       <use xlink:href="#DejaVuSans-34"/>
       <use xlink:href="#DejaVuSans-30" transform="translate(63.623047 0)"/>
       <use xlink:href="#DejaVuSans-30" transform="translate(127.246094 0)"/>
      </g>
     </g>
    </g>
    <g id="xtick_4">
     <g id="line2d_7">
      <path d="M 377.571744 320.4 
L 377.571744 43.2 
" clip-path="url(#pa2b127901a)" style="fill: none; stroke: #b0b0b0; stroke-width: 0.8; stroke-linecap: square"/>
     </g>
     <g id="line2d_8">
      <g>
       <use xlink:href="#mc82bfe1392" x="377.571744" y="320.4" style="stroke: #000000; stroke-width: 0.8"/>
      </g>
     </g>
     <g id="text_4">
      <!-- 600 -->
      <g transform="translate(368.027994 334.998438) scale(0.1 -0.1)">
       <defs>
        <path id="DejaVuSans-36" d="M 2113 2584 
Q 1688 2584 1439 2293 
Q 1191 2003 1191 1497 
Q 1191 994 1439 701 
Q 1688 409 2113 409 
Q 2538 409 2786 701 
Q 3034 994 3034 1497 
Q 3034 2003 2786 2293 
Q 2538 2584 2113 2584 
z
M 3366 4563 
L 3366 3988 
Q 3128 4100 2886 4159 
Q 2644 4219 2406 4219 
Q 1781 4219 1451 3797 
Q 1122 3375 1075 2522 
Q 1259 2794 1537 2939 
Q 1816 3084 2150 3084 
Q 2853 3084 3261 2657 
Q 3669 2231 3669 1497 
Q 3669 778 3244 343 
Q 2819 -91 2113 -91 
Q 1303 -91 875 529 
Q 447 1150 447 2328 
Q 447 3434 972 4092 
Q 1497 4750 2381 4750 
Q 2619 4750 2861 4703 
Q 3103 4656 3366 4563 
z
" transform="scale(0.015625)"/>
       </defs>
       <use xlink:href="#DejaVuSans-36"/>
       <use xlink:href="#DejaVuSans-30" transform="translate(63.623047 0)"/>
       <use xlink:href="#DejaVuSans-30" transform="translate(127.246094 0)"/>
      </g>
     </g>
    </g>
    <g id="xtick_5">
     <g id="line2d_9">
      <path d="M 468.972236 320.4 
L 468.972236 43.2 
" clip-path="url(#pa2b127901a)" style="fill: none; stroke: #b0b0b0; stroke-width: 0.8; stroke-linecap: square"/>
     </g>
     <g id="line2d_10">
      <g>
       <use xlink:href="#mc82bfe1392" x="468.972236" y="320.4" style="stroke: #000000; stroke-width: 0.8"/>
      </g>
     </g>
     <g id="text_5">
      <!-- 800 -->
      <g transform="translate(459.428486 334.998438) scale(0.1 -0.1)">
       <defs>
        <path id="DejaVuSans-38" d="M 2034 2216 
Q 1584 2216 1326 1975 
Q 1069 1734 1069 1313 
Q 1069 891 1326 650 
Q 1584 409 2034 409 
Q 2484 409 2743 651 
Q 3003 894 3003 1313 
Q 3003 1734 2745 1975 
Q 2488 2216 2034 2216 
z
M 1403 2484 
Q 997 2584 770 2862 
Q 544 3141 544 3541 
Q 544 4100 942 4425 
Q 1341 4750 2034 4750 
Q 2731 4750 3128 4425 
Q 3525 4100 3525 3541 
Q 3525 3141 3298 2862 
Q 3072 2584 2669 2484 
Q 3125 2378 3379 2068 
Q 3634 1759 3634 1313 
Q 3634 634 3220 271 
Q 2806 -91 2034 -91 
Q 1263 -91 848 271 
Q 434 634 434 1313 
Q 434 1759 690 2068 
Q 947 2378 1403 2484 
z
M 1172 3481 
Q 1172 3119 1398 2916 
Q 1625 2713 2034 2713 
Q 2441 2713 2670 2916 
Q 2900 3119 2900 3481 
Q 2900 3844 2670 4047 
Q 2441 4250 2034 4250 
Q 1625 4250 1398 4047 
Q 1172 3844 1172 3481 
z
" transform="scale(0.015625)"/>
       </defs>
       <use xlink:href="#DejaVuSans-38"/>
       <use xlink:href="#DejaVuSans-30" transform="translate(63.623047 0)"/>
       <use xlink:href="#DejaVuSans-30" transform="translate(127.246094 0)"/>
      </g>
     </g>
    </g>
    <g id="xtick_6">
     <g id="line2d_11">
      <path d="M 560.372727 320.4 
L 560.372727 43.2 
" clip-path="url(#pa2b127901a)" style="fill: none; stroke: #b0b0b0; stroke-width: 0.8; stroke-linecap: square"/>
     </g>
     <g id="line2d_12">
      <g>
       <use xlink:href="#mc82bfe1392" x="560.372727" y="320.4" style="stroke: #000000; stroke-width: 0.8"/>
      </g>
     </g>
     <g id="text_6">
      <!-- 1000 -->
      <g transform="translate(547.647727 334.998438) scale(0.1 -0.1)">
       <defs>
        <path id="DejaVuSans-31" d="M 794 531 
L 1825 531 
L 1825 4091 
L 703 3866 
L 703 4441 
L 1819 4666 
L 2450 4666 
L 2450 531 
L 3481 531 
L 3481 0 
L 794 0 
L 794 531 
z
" transform="scale(0.015625)"/>
       </defs>
       <use xlink:href="#DejaVuSans-31"/>
       <use xlink:href="#DejaVuSans-30" transform="translate(63.623047 0)"/>
       <use xlink:href="#DejaVuSans-30" transform="translate(127.246094 0)"/>
       <use xlink:href="#DejaVuSans-30" transform="translate(190.869141 0)"/>
      </g>
     </g>
    </g>
    <g id="text_7">
     <!-- Time -->
     <g transform="translate(319.866406 348.676562) scale(0.1 -0.1)">
      <defs>
       <path id="DejaVuSans-54" d="M -19 4666 
L 3928 4666 
L 3928 4134 
L 2272 4134 
L 2272 0 
L 1638 0 
L 1638 4134 
L -19 4134 
L -19 4666 
z
" transform="scale(0.015625)"/>
       <path id="DejaVuSans-69" d="M 603 3500 
L 1178 3500 
L 1178 0 
L 603 0 
L 603 3500 
z
M 603 4863 
L 1178 4863 
L 1178 4134 
L 603 4134 
L 603 4863 
z
" transform="scale(0.015625)"/>
       <path id="DejaVuSans-6d" d="M 3328 2828 
Q 3544 3216 3844 3400 
Q 4144 3584 4550 3584 
Q 5097 3584 5394 3201 
Q 5691 2819 5691 2113 
L 5691 0 
L 5113 0 
L 5113 2094 
Q 5113 2597 4934 2840 
Q 4756 3084 4391 3084 
Q 3944 3084 3684 2787 
Q 3425 2491 3425 1978 
L 3425 0 
L 2847 0 
L 2847 2094 
Q 2847 2600 2669 2842 
Q 2491 3084 2119 3084 
Q 1678 3084 1418 2786 
Q 1159 2488 1159 1978 
L 1159 0 
L 581 0 
L 581 3500 
L 1159 3500 
L 1159 2956 
Q 1356 3278 1631 3431 
Q 1906 3584 2284 3584 
Q 2666 3584 2933 3390 
Q 3200 3197 3328 2828 
z
" transform="scale(0.015625)"/>
       <path id="DejaVuSans-65" d="M 3597 1894 
L 3597 1613 
L 953 1613 
Q 991 1019 1311 708 
Q 1631 397 2203 397 
Q 2534 397 2845 478 
Q 3156 559 3463 722 
L 3463 178 
Q 3153 47 2828 -22 
Q 2503 -91 2169 -91 
Q 1331 -91 842 396 
Q 353 884 353 1716 
Q 353 2575 817 3079 
Q 1281 3584 2069 3584 
Q 2775 3584 3186 3129 
Q 3597 2675 3597 1894 
z
M 3022 2063 
Q 3016 2534 2758 2815 
Q 2500 3097 2075 3097 
Q 1594 3097 1305 2825 
Q 1016 2553 972 2059 
L 3022 2063 
z
" transform="scale(0.015625)"/>
      </defs>
      <use xlink:href="#DejaVuSans-54"/>
      <use xlink:href="#DejaVuSans-69" transform="translate(57.958984 0)"/>
      <use xlink:href="#DejaVuSans-6d" transform="translate(85.742188 0)"/>
      <use xlink:href="#DejaVuSans-65" transform="translate(183.154297 0)"/>
     </g>
    </g>
   </g>
   <g id="matplotlib.axis_2">
    <g id="ytick_1">
     <g id="line2d_13">
      <path d="M 81 296.477488 
L 583.2 296.477488 
" clip-path="url(#pa2b127901a)" style="fill: none; stroke: #b0b0b0; stroke-width: 0.8; stroke-linecap: square"/>
     </g>
     <g id="line2d_14">
      <defs>
       <path id="m1aeb258e47" d="M 0 0 
L -3.5 0 
" style="stroke: #000000; stroke-width: 0.8"/>
      </defs>
      <g>
       <use xlink:href="#m1aeb258e47" x="81" y="296.477488" style="stroke: #000000; stroke-width: 0.8"/>
      </g>
     </g>
     <g id="text_8">
      <!-- −0.0025 -->
      <g transform="translate(30.629687 300.276707) scale(0.1 -0.1)">
       <defs>
        <path id="DejaVuSans-2212" d="M 678 2272 
L 4684 2272 
L 4684 1741 
L 678 1741 
L 678 2272 
z
" transform="scale(0.015625)"/>
        <path id="DejaVuSans-2e" d="M 684 794 
L 1344 794 
L 1344 0 
L 684 0 
L 684 794 
z
" transform="scale(0.015625)"/>
        <path id="DejaVuSans-35" d="M 691 4666 
L 3169 4666 
L 3169 4134 
L 1269 4134 
L 1269 2991 
Q 1406 3038 1543 3061 
Q 1681 3084 1819 3084 
Q 2600 3084 3056 2656 
Q 3513 2228 3513 1497 
Q 3513 744 3044 326 
Q 2575 -91 1722 -91 
Q 1428 -91 1123 -41 
Q 819 9 494 109 
L 494 744 
Q 775 591 1075 516 
Q 1375 441 1709 441 
Q 2250 441 2565 725 
Q 2881 1009 2881 1497 
Q 2881 1984 2565 2268 
Q 2250 2553 1709 2553 
Q 1456 2553 1204 2497 
Q 953 2441 691 2322 
L 691 4666 
z
" transform="scale(0.015625)"/>
       </defs>
       <use xlink:href="#DejaVuSans-2212"/>
       <use xlink:href="#DejaVuSans-30" transform="translate(83.789062 0)"/>
       <use xlink:href="#DejaVuSans-2e" transform="translate(147.412109 0)"/>
       <use xlink:href="#DejaVuSans-30" transform="translate(179.199219 0)"/>
       <use xlink:href="#DejaVuSans-30" transform="translate(242.822266 0)"/>
       <use xlink:href="#DejaVuSans-32" transform="translate(306.445312 0)"/>
       <use xlink:href="#DejaVuSans-35" transform="translate(370.068359 0)"/>
      </g>
     </g>
    </g>
    <g id="ytick_2">
     <g id="line2d_15">
      <path d="M 81 258.422274 
L 583.2 258.422274 
" clip-path="url(#pa2b127901a)" style="fill: none; stroke: #b0b0b0; stroke-width: 0.8; stroke-linecap: square"/>
     </g>
     <g id="line2d_16">
      <g>
       <use xlink:href="#m1aeb258e47" x="81" y="258.422274" style="stroke: #000000; stroke-width: 0.8"/>
      </g>
     </g>
     <g id="text_9">
      <!-- 0.0000 -->
      <g transform="translate(39.009375 262.221493) scale(0.1 -0.1)">
       <use xlink:href="#DejaVuSans-30"/>
       <use xlink:href="#DejaVuSans-2e" transform="translate(63.623047 0)"/>
       <use xlink:href="#DejaVuSans-30" transform="translate(95.410156 0)"/>
       <use xlink:href="#DejaVuSans-30" transform="translate(159.033203 0)"/>
       <use xlink:href="#DejaVuSans-30" transform="translate(222.65625 0)"/>
       <use xlink:href="#DejaVuSans-30" transform="translate(286.279297 0)"/>
      </g>
     </g>
    </g>
    <g id="ytick_3">
     <g id="line2d_17">
      <path d="M 81 220.367061 
L 583.2 220.367061 
" clip-path="url(#pa2b127901a)" style="fill: none; stroke: #b0b0b0; stroke-width: 0.8; stroke-linecap: square"/>
     </g>
     <g id="line2d_18">
      <g>
       <use xlink:href="#m1aeb258e47" x="81" y="220.367061" style="stroke: #000000; stroke-width: 0.8"/>
      </g>
     </g>
     <g id="text_10">
      <!-- 0.0025 -->
      <g transform="translate(39.009375 224.16628) scale(0.1 -0.1)">
       <use xlink:href="#DejaVuSans-30"/>
       <use xlink:href="#DejaVuSans-2e" transform="translate(63.623047 0)"/>
       <use xlink:href="#DejaVuSans-30" transform="translate(95.410156 0)"/>
       <use xlink:href="#DejaVuSans-30" transform="translate(159.033203 0)"/>
       <use xlink:href="#DejaVuSans-32" transform="translate(222.65625 0)"/>
       <use xlink:href="#DejaVuSans-35" transform="translate(286.279297 0)"/>
      </g>
     </g>
    </g>
    <g id="ytick_4">
     <g id="line2d_19">
      <path d="M 81 182.311848 
L 583.2 182.311848 
" clip-path="url(#pa2b127901a)" style="fill: none; stroke: #b0b0b0; stroke-width: 0.8; stroke-linecap: square"/>
     </g>
     <g id="line2d_20">
      <g>
       <use xlink:href="#m1aeb258e47" x="81" y="182.311848" style="stroke: #000000; stroke-width: 0.8"/>
      </g>
     </g>
     <g id="text_11">
      <!-- 0.0050 -->
      <g transform="translate(39.009375 186.111067) scale(0.1 -0.1)">
       <use xlink:href="#DejaVuSans-30"/>
       <use xlink:href="#DejaVuSans-2e" transform="translate(63.623047 0)"/>
       <use xlink:href="#DejaVuSans-30" transform="translate(95.410156 0)"/>
       <use xlink:href="#DejaVuSans-30" transform="translate(159.033203 0)"/>
       <use xlink:href="#DejaVuSans-35" transform="translate(222.65625 0)"/>
       <use xlink:href="#DejaVuSans-30" transform="translate(286.279297 0)"/>
      </g>
     </g>
    </g>
    <g id="ytick_5">
     <g id="line2d_21">
      <path d="M 81 144.256635 
L 583.2 144.256635 
" clip-path="url(#pa2b127901a)" style="fill: none; stroke: #b0b0b0; stroke-width: 0.8; stroke-linecap: square"/>
     </g>
     <g id="line2d_22">
      <g>
       <use xlink:href="#m1aeb258e47" x="81" y="144.256635" style="stroke: #000000; stroke-width: 0.8"/>
      </g>
     </g>
     <g id="text_12">
      <!-- 0.0075 -->
      <g transform="translate(39.009375 148.055853) scale(0.1 -0.1)">
       <defs>
        <path id="DejaVuSans-37" d="M 525 4666 
L 3525 4666 
L 3525 4397 
L 1831 0 
L 1172 0 
L 2766 4134 
L 525 4134 
L 525 4666 
z
" transform="scale(0.015625)"/>
       </defs>
       <use xlink:href="#DejaVuSans-30"/>
       <use xlink:href="#DejaVuSans-2e" transform="translate(63.623047 0)"/>
       <use xlink:href="#DejaVuSans-30" transform="translate(95.410156 0)"/>
       <use xlink:href="#DejaVuSans-30" transform="translate(159.033203 0)"/>
       <use xlink:href="#DejaVuSans-37" transform="translate(222.65625 0)"/>
       <use xlink:href="#DejaVuSans-35" transform="translate(286.279297 0)"/>
      </g>
     </g>
    </g>
    <g id="ytick_6">
     <g id="line2d_23">
      <path d="M 81 106.201421 
L 583.2 106.201421 
" clip-path="url(#pa2b127901a)" style="fill: none; stroke: #b0b0b0; stroke-width: 0.8; stroke-linecap: square"/>
     </g>
     <g id="line2d_24">
      <g>
       <use xlink:href="#m1aeb258e47" x="81" y="106.201421" style="stroke: #000000; stroke-width: 0.8"/>
      </g>
     </g>
     <g id="text_13">
      <!-- 0.0100 -->
      <g transform="translate(39.009375 110.00064) scale(0.1 -0.1)">
       <use xlink:href="#DejaVuSans-30"/>
       <use xlink:href="#DejaVuSans-2e" transform="translate(63.623047 0)"/>
       <use xlink:href="#DejaVuSans-30" transform="translate(95.410156 0)"/>
       <use xlink:href="#DejaVuSans-31" transform="translate(159.033203 0)"/>
       <use xlink:href="#DejaVuSans-30" transform="translate(222.65625 0)"/>
       <use xlink:href="#DejaVuSans-30" transform="translate(286.279297 0)"/>
      </g>
     </g>
    </g>
    <g id="ytick_7">
     <g id="line2d_25">
      <path d="M 81 68.146208 
L 583.2 68.146208 
" clip-path="url(#pa2b127901a)" style="fill: none; stroke: #b0b0b0; stroke-width: 0.8; stroke-linecap: square"/>
     </g>
     <g id="line2d_26">
      <g>
       <use xlink:href="#m1aeb258e47" x="81" y="68.146208" style="stroke: #000000; stroke-width: 0.8"/>
      </g>
     </g>
     <g id="text_14">
      <!-- 0.0125 -->
      <g transform="translate(39.009375 71.945427) scale(0.1 -0.1)">
       <use xlink:href="#DejaVuSans-30"/>
       <use xlink:href="#DejaVuSans-2e" transform="translate(63.623047 0)"/>
       <use xlink:href="#DejaVuSans-30" transform="translate(95.410156 0)"/>
       <use xlink:href="#DejaVuSans-31" transform="translate(159.033203 0)"/>
       <use xlink:href="#DejaVuSans-32" transform="translate(222.65625 0)"/>
       <use xlink:href="#DejaVuSans-35" transform="translate(286.279297 0)"/>
      </g>
     </g>
    </g>
    <g id="text_15">
     <!-- Average Reward -->
     <g transform="translate(24.55 222.542969) rotate(-90) scale(0.1 -0.1)">
      <defs>
       <path id="DejaVuSans-41" d="M 2188 4044 
L 1331 1722 
L 3047 1722 
L 2188 4044 
z
M 1831 4666 
L 2547 4666 
L 4325 0 
L 3669 0 
L 3244 1197 
L 1141 1197 
L 716 0 
L 50 0 
L 1831 4666 
z
" transform="scale(0.015625)"/>
       <path id="DejaVuSans-76" d="M 191 3500 
L 800 3500 
L 1894 563 
L 2988 3500 
L 3597 3500 
L 2284 0 
L 1503 0 
L 191 3500 
z
" transform="scale(0.015625)"/>
       <path id="DejaVuSans-72" d="M 2631 2963 
Q 2534 3019 2420 3045 
Q 2306 3072 2169 3072 
Q 1681 3072 1420 2755 
Q 1159 2438 1159 1844 
L 1159 0 
L 581 0 
L 581 3500 
L 1159 3500 
L 1159 2956 
Q 1341 3275 1631 3429 
Q 1922 3584 2338 3584 
Q 2397 3584 2469 3576 
Q 2541 3569 2628 3553 
L 2631 2963 
z
" transform="scale(0.015625)"/>
       <path id="DejaVuSans-61" d="M 2194 1759 
Q 1497 1759 1228 1600 
Q 959 1441 959 1056 
Q 959 750 1161 570 
Q 1363 391 1709 391 
Q 2188 391 2477 730 
Q 2766 1069 2766 1631 
L 2766 1759 
L 2194 1759 
z
M 3341 1997 
L 3341 0 
L 2766 0 
L 2766 531 
Q 2569 213 2275 61 
Q 1981 -91 1556 -91 
Q 1019 -91 701 211 
Q 384 513 384 1019 
Q 384 1609 779 1909 
Q 1175 2209 1959 2209 
L 2766 2209 
L 2766 2266 
Q 2766 2663 2505 2880 
Q 2244 3097 1772 3097 
Q 1472 3097 1187 3025 
Q 903 2953 641 2809 
L 641 3341 
Q 956 3463 1253 3523 
Q 1550 3584 1831 3584 
Q 2591 3584 2966 3190 
Q 3341 2797 3341 1997 
z
" transform="scale(0.015625)"/>
       <path id="DejaVuSans-67" d="M 2906 1791 
Q 2906 2416 2648 2759 
Q 2391 3103 1925 3103 
Q 1463 3103 1205 2759 
Q 947 2416 947 1791 
Q 947 1169 1205 825 
Q 1463 481 1925 481 
Q 2391 481 2648 825 
Q 2906 1169 2906 1791 
z
M 3481 434 
Q 3481 -459 3084 -895 
Q 2688 -1331 1869 -1331 
Q 1566 -1331 1297 -1286 
Q 1028 -1241 775 -1147 
L 775 -588 
Q 1028 -725 1275 -790 
Q 1522 -856 1778 -856 
Q 2344 -856 2625 -561 
Q 2906 -266 2906 331 
L 2906 616 
Q 2728 306 2450 153 
Q 2172 0 1784 0 
Q 1141 0 747 490 
Q 353 981 353 1791 
Q 353 2603 747 3093 
Q 1141 3584 1784 3584 
Q 2172 3584 2450 3431 
Q 2728 3278 2906 2969 
L 2906 3500 
L 3481 3500 
L 3481 434 
z
" transform="scale(0.015625)"/>
       <path id="DejaVuSans-20" transform="scale(0.015625)"/>
       <path id="DejaVuSans-52" d="M 2841 2188 
Q 3044 2119 3236 1894 
Q 3428 1669 3622 1275 
L 4263 0 
L 3584 0 
L 2988 1197 
Q 2756 1666 2539 1819 
Q 2322 1972 1947 1972 
L 1259 1972 
L 1259 0 
L 628 0 
L 628 4666 
L 2053 4666 
Q 2853 4666 3247 4331 
Q 3641 3997 3641 3322 
Q 3641 2881 3436 2590 
Q 3231 2300 2841 2188 
z
M 1259 4147 
L 1259 2491 
L 2053 2491 
Q 2509 2491 2742 2702 
Q 2975 2913 2975 3322 
Q 2975 3731 2742 3939 
Q 2509 4147 2053 4147 
L 1259 4147 
z
" transform="scale(0.015625)"/>
       <path id="DejaVuSans-77" d="M 269 3500 
L 844 3500 
L 1563 769 
L 2278 3500 
L 2956 3500 
L 3675 769 
L 4391 3500 
L 4966 3500 
L 4050 0 
L 3372 0 
L 2619 2869 
L 1863 0 
L 1184 0 
L 269 3500 
z
" transform="scale(0.015625)"/>
       <path id="DejaVuSans-64" d="M 2906 2969 
L 2906 4863 
L 3481 4863 
L 3481 0 
L 2906 0 
L 2906 525 
Q 2725 213 2448 61 
Q 2172 -91 1784 -91 
Q 1150 -91 751 415 
Q 353 922 353 1747 
Q 353 2572 751 3078 
Q 1150 3584 1784 3584 
Q 2172 3584 2448 3432 
Q 2725 3281 2906 2969 
z
M 947 1747 
Q 947 1113 1208 752 
Q 1469 391 1925 391 
Q 2381 391 2643 752 
Q 2906 1113 2906 1747 
Q 2906 2381 2643 2742 
Q 2381 3103 1925 3103 
Q 1469 3103 1208 2742 
Q 947 2381 947 1747 
z
" transform="scale(0.015625)"/>
      </defs>
      <use xlink:href="#DejaVuSans-41"/>
      <use xlink:href="#DejaVuSans-76" transform="translate(62.533203 0)"/>
      <use xlink:href="#DejaVuSans-65" transform="translate(121.712891 0)"/>
      <use xlink:href="#DejaVuSans-72" transform="translate(183.236328 0)"/>
      <use xlink:href="#DejaVuSans-61" transform="translate(224.349609 0)"/>
      <use xlink:href="#DejaVuSans-67" transform="translate(285.628906 0)"/>
      <use xlink:href="#DejaVuSans-65" transform="translate(349.105469 0)"/>
      <use xlink:href="#DejaVuSans-20" transform="translate(410.628906 0)"/>
      <use xlink:href="#DejaVuSans-52" transform="translate(442.416016 0)"/>
      <use xlink:href="#DejaVuSans-65" transform="translate(507.398438 0)"/>
      <use xlink:href="#DejaVuSans-77" transform="translate(568.921875 0)"/>
      <use xlink:href="#DejaVuSans-61" transform="translate(650.708984 0)"/>
      <use xlink:href="#DejaVuSans-72" transform="translate(711.988281 0)"/>
      <use xlink:href="#DejaVuSans-64" transform="translate(751.351562 0)"/>
     </g>
    </g>
   </g>
   <g id="line2d_27">
    <path d="M 103.827273 258.422274 
L 108.397297 258.406877 
L 108.8543 263.425754 
L 109.311302 263.0445 
L 109.768305 257.230706 
L 110.225307 214.736666 
L 110.68231 230.527097 
L 111.139312 257.947108 
L 111.596314 169.641157 
L 112.053317 139.23787 
L 112.510319 253.031195 
L 112.967322 307.8 
L 113.424324 222.463925 
L 113.881327 200.112362 
L 114.338329 226.715112 
L 114.795332 230.60276 
L 115.252334 232.564363 
L 115.709337 230.201674 
L 117.080344 233.023734 
L 118.451351 235.332693 
L 119.822359 237.256824 
L 122.564373 240.586305 
L 123.021376 244.167083 
L 123.478378 246.566127 
L 123.935381 238.258721 
L 124.392383 246.663644 
L 124.849386 241.329827 
L 125.763391 238.830977 
L 126.677396 228.851617 
L 127.134398 229.420902 
L 127.5914 231.295571 
L 128.048403 231.797952 
L 128.505405 232.500777 
L 128.962408 246.749215 
L 129.41941 250.006257 
L 129.876413 256.909746 
L 130.333415 273.450139 
L 130.790418 278.154538 
L 131.24742 270.879625 
L 133.989435 269.771401 
L 134.446437 269.603818 
L 134.90344 263.736613 
L 135.360442 266.37855 
L 135.817445 260.932195 
L 136.274447 259.550245 
L 136.73145 266.438314 
L 140.844472 265.558504 
L 145.871499 264.714434 
L 146.785504 264.580129 
L 147.242506 266.592934 
L 147.699509 262.292788 
L 148.156511 264.762555 
L 148.613514 247.58178 
L 149.070516 243.985176 
L 149.984521 246.896571 
L 150.441523 244.130202 
L 152.726536 244.791804 
L 153.183538 246.053895 
L 155.46855 246.59548 
L 155.925553 245.928458 
L 156.382555 243.17909 
L 156.839558 246.139442 
L 157.29656 246.566547 
L 157.753563 249.985439 
L 158.210565 255.176101 
L 159.12457 250.715943 
L 160.038575 239.37386 
L 160.495577 237.569882 
L 160.95258 234.629323 
L 161.409582 234.650715 
L 161.866585 232.070792 
L 162.323587 236.819114 
L 162.78059 231.933975 
L 163.237592 223.459232 
L 163.694595 228.344986 
L 164.151597 222.699266 
L 164.6086 227.078923 
L 165.065602 229.997662 
L 165.522604 245.330905 
L 165.979607 226.973762 
L 166.436609 213.819887 
L 166.893612 206.426107 
L 167.350614 185.492327 
L 167.807617 184.251884 
L 168.264619 149.332723 
L 168.721622 149.90034 
L 169.178624 142.593911 
L 169.635627 142.520353 
L 170.092629 131.819287 
L 170.549631 117.197304 
L 171.006634 117.927097 
L 171.463636 102.249521 
L 172.377641 97.873891 
L 172.834644 104.316868 
L 173.291646 101.814881 
L 173.748649 103.148438 
L 174.205651 107.342948 
L 174.662654 109.982899 
L 175.119656 107.78249 
L 175.576658 109.045106 
L 176.033661 113.604785 
L 176.490663 115.299445 
L 176.947666 116.303901 
L 177.404668 116.846088 
L 178.775676 119.420486 
L 179.232678 119.832488 
L 179.689681 122.230108 
L 180.146683 123.89293 
L 180.603686 131.95182 
L 181.060688 142.970317 
L 181.51769 135.768271 
L 181.974693 133.173724 
L 182.431695 131.865546 
L 185.630713 136.787107 
L 186.087715 137.894401 
L 186.544717 138.612436 
L 187.00172 140.881452 
L 187.458722 139.020473 
L 187.915725 138.359327 
L 190.65774 142.131272 
L 191.114742 143.085051 
L 191.571744 143.541525 
L 192.028747 145.189148 
L 195.684767 149.673629 
L 199.340786 153.816493 
L 200.254791 154.799951 
L 200.711794 154.707711 
L 201.168796 156.956493 
L 202.082801 146.883139 
L 202.539803 155.731897 
L 202.996806 147.176977 
L 203.453808 134.042743 
L 204.367813 123.699984 
L 204.824816 124.220821 
L 205.281818 125.525562 
L 208.480835 129.57132 
L 208.937838 130.633994 
L 209.39484 127.026657 
L 209.851843 131.198199 
L 210.308845 129.893196 
L 210.765848 130.548772 
L 211.22285 130.470057 
L 211.679853 130.575998 
L 215.792875 135.2533 
L 219.905897 139.600441 
L 224.475921 144.084283 
L 229.045946 148.242029 
L 233.615971 152.108002 
L 234.529975 152.849077 
L 234.986978 152.851742 
L 235.44398 153.342525 
L 235.900983 156.16838 
L 236.357985 156.810682 
L 236.814988 155.149047 
L 237.27199 156.419687 
L 237.728993 152.477235 
L 238.185995 154.721111 
L 239.1 144.629891 
L 239.557002 141.141784 
L 240.014005 141.283331 
L 240.471007 136.880385 
L 240.92801 130.431339 
L 241.385012 116.421806 
L 241.842015 110.812888 
L 242.299017 107.778814 
L 242.75602 105.717507 
L 244.127027 107.204707 
L 244.584029 108.166069 
L 245.041032 108.846467 
L 245.498034 109.970514 
L 245.955037 108.283691 
L 246.412039 108.58762 
L 246.869042 107.287626 
L 247.783047 95.788215 
L 248.240049 95.443794 
L 248.697052 98.439085 
L 249.611057 86.559228 
L 250.068059 96.20565 
L 250.525061 96.295577 
L 250.982064 92.693555 
L 251.896069 74.441512 
L 252.810074 67.053848 
L 253.267076 67.336997 
L 253.724079 69.325413 
L 254.181081 70.213801 
L 254.638084 70.191215 
L 255.095086 70.520502 
L 255.552088 76.416081 
L 256.009091 77.349196 
L 257.837101 79.49638 
L 258.294103 81.581456 
L 258.751106 86.568606 
L 259.208108 86.943533 
L 259.665111 81.019211 
L 260.122113 69.135427 
L 260.579115 63.453975 
L 261.036118 71.286836 
L 261.49312 71.936187 
L 261.950123 71.200703 
L 262.407125 71.080994 
L 262.864128 70.573276 
L 263.32113 71.894534 
L 263.778133 71.989677 
L 264.235135 70.91944 
L 264.692138 68.0698 
L 265.14914 70.880195 
L 265.606143 71.874171 
L 266.063145 83.780814 
L 266.520147 86.367434 
L 266.97715 87.132321 
L 268.348157 88.46859 
L 268.80516 92.954176 
L 269.262162 91.90576 
L 269.719165 95.199945 
L 270.176167 93.714795 
L 270.63317 96.8791 
L 271.090172 94.966589 
L 271.547174 93.838386 
L 272.004177 89.021596 
L 272.461179 86.336947 
L 272.918182 86.147684 
L 273.832187 102.687419 
L 274.289189 104.831952 
L 274.746192 104.36562 
L 275.203194 106.306343 
L 275.660197 104.54429 
L 276.117199 105.38275 
L 276.574201 106.881099 
L 277.945209 108.144596 
L 285.714251 114.674294 
L 291.655283 119.210031 
L 297.596314 123.468288 
L 298.967322 124.414107 
L 299.424324 123.963205 
L 299.881327 124.114217 
L 300.338329 124.559977 
L 300.795332 123.226623 
L 301.252334 123.695986 
L 301.709337 123.899161 
L 302.166339 124.860916 
L 302.623342 125.007255 
L 303.994349 125.963321 
L 307.650369 128.48223 
L 308.107371 125.996417 
L 308.564373 127.331432 
L 309.021376 127.132314 
L 309.478378 131.302392 
L 309.935381 128.738556 
L 310.392383 123.325222 
L 310.849386 121.465613 
L 311.306388 118.196077 
L 311.763391 119.990327 
L 312.220393 119.960884 
L 312.677396 121.002002 
L 313.134398 121.520666 
L 313.5914 121.111261 
L 320.446437 125.447399 
L 327.301474 129.534317 
L 328.215479 132.261903 
L 328.672482 132.841901 
L 329.129484 132.421837 
L 329.586486 129.946434 
L 330.043489 130.008229 
L 330.500491 127.897092 
L 330.957494 124.162813 
L 331.414496 124.973006 
L 331.871499 123.918366 
L 332.328501 124.322944 
L 332.785504 122.524996 
L 333.242506 121.41341 
L 333.699509 123.54985 
L 334.156511 122.779092 
L 334.613514 117.887062 
L 335.070516 117.407609 
L 335.527518 114.025717 
L 335.984521 109.596907 
L 336.441523 112.825284 
L 336.898526 108.204839 
L 337.355528 114.803685 
L 337.812531 115.884573 
L 338.269533 109.483222 
L 338.726536 105.930065 
L 339.183538 105.613751 
L 339.640541 102.225683 
L 340.097543 101.496132 
L 340.554545 100.20743 
L 341.011548 96.264271 
L 341.46855 99.027823 
L 341.925553 98.612141 
L 342.382555 98.900813 
L 342.839558 103.752225 
L 343.29656 106.834367 
L 343.753563 103.71084 
L 344.210565 102.463558 
L 344.667568 105.929159 
L 345.12457 110.246596 
L 345.581572 110.153067 
L 346.038575 106.027408 
L 346.495577 106.099187 
L 346.95258 102.259517 
L 347.866585 98.702072 
L 348.323587 102.666443 
L 348.78059 99.637478 
L 349.237592 100.390837 
L 349.694595 98.445864 
L 350.151597 99.842567 
L 350.6086 99.773651 
L 351.065602 99.398193 
L 351.522604 99.648987 
L 351.979607 99.001118 
L 352.436609 99.415485 
L 352.893612 100.625717 
L 353.350614 97.898329 
L 353.807617 96.543348 
L 354.264619 97.428731 
L 354.721622 96.545326 
L 355.178624 97.685908 
L 355.635627 99.528585 
L 356.092629 99.550686 
L 360.205651 102.070385 
L 360.662654 102.801278 
L 361.119656 103.076163 
L 361.576658 101.481312 
L 362.033661 97.599262 
L 362.490663 95.046087 
L 362.947666 98.21148 
L 364.318673 93.253351 
L 365.232678 90.739836 
L 365.689681 90.011735 
L 366.146683 91.081973 
L 366.603686 98.208608 
L 367.060688 95.956376 
L 367.51769 94.674579 
L 367.974693 92.871307 
L 368.431695 95.792747 
L 368.888698 93.842368 
L 369.3457 88.257573 
L 369.802703 87.647174 
L 370.259705 87.452998 
L 370.716708 86.323215 
L 371.17371 81.278189 
L 371.630713 83.500294 
L 372.087715 82.308334 
L 372.544717 83.859657 
L 373.00172 84.734761 
L 373.458722 83.717898 
L 374.372727 71.852256 
L 374.82973 68.76193 
L 375.286732 68.675088 
L 375.743735 59.041077 
L 376.65774 61.505481 
L 377.114742 66.308383 
L 377.571744 62.923418 
L 378.028747 61.37713 
L 378.485749 57.863007 
L 378.942752 59.77018 
L 379.399754 57.441273 
L 379.856757 57.331785 
L 380.313759 55.8 
L 380.770762 59.702679 
L 381.227764 57.261338 
L 381.684767 56.595317 
L 382.141769 56.873551 
L 382.598771 56.645355 
L 383.055774 57.28745 
L 388.996806 61.471055 
L 390.367813 62.351134 
L 390.824816 62.158397 
L 391.738821 61.108521 
L 392.195823 60.217309 
L 392.652826 61.142553 
L 394.480835 62.527721 
L 394.937838 61.195716 
L 395.39484 61.074808 
L 395.851843 62.781128 
L 396.308845 65.108051 
L 396.765848 63.533669 
L 397.22285 63.81101 
L 397.679853 64.836153 
L 398.136855 65.356689 
L 398.593857 65.655769 
L 399.05086 65.507301 
L 399.507862 65.87787 
L 399.964865 64.648991 
L 400.421867 64.741594 
L 400.87887 63.031892 
L 401.335872 62.348872 
L 401.792875 60.945939 
L 402.70688 59.876013 
L 403.163882 59.879848 
L 403.620885 60.326118 
L 404.077887 60.2501 
L 404.991892 60.984133 
L 412.760934 65.941959 
L 413.217936 66.225632 
L 413.674939 66.819546 
L 414.131941 67.035614 
L 414.588943 67.596634 
L 415.502948 67.706028 
L 415.959951 68.212791 
L 416.416953 69.705373 
L 416.873956 69.742447 
L 417.330958 70.463233 
L 421.44398 72.875395 
L 426.014005 75.65236 
L 426.471007 75.977369 
L 426.92801 75.670106 
L 427.385012 76.201932 
L 433.783047 79.733371 
L 434.240049 79.718621 
L 442.009091 83.905631 
L 442.466093 84.570203 
L 442.923096 85.608953 
L 443.380098 85.420712 
L 443.837101 84.636888 
L 444.751106 85.102404 
L 445.208108 85.035333 
L 445.665111 85.761837 
L 446.122113 84.941748 
L 446.579115 85.274374 
L 447.036118 85.929584 
L 447.49312 86.23869 
L 447.950123 85.8093 
L 449.32113 86.630097 
L 450.235135 87.059168 
L 450.692138 87.61364 
L 451.14914 87.97729 
L 451.606143 87.411192 
L 452.063145 87.438138 
L 452.97715 87.802064 
L 455.719165 89.129897 
L 456.176167 89.670688 
L 456.63317 89.45915 
L 457.090172 88.944936 
L 457.547174 87.877968 
L 458.004177 88.991092 
L 458.461179 89.670324 
L 458.918182 88.728313 
L 459.375184 88.609453 
L 459.832187 92.237611 
L 460.289189 91.457801 
L 460.746192 94.275106 
L 461.203194 95.916912 
L 461.660197 93.79874 
L 462.117199 90.925984 
L 462.574201 92.964419 
L 463.031204 93.30323 
L 463.488206 92.939434 
L 463.945209 89.618582 
L 464.859214 91.268348 
L 465.316216 89.726312 
L 465.773219 90.200523 
L 466.230221 89.349005 
L 466.687224 91.093155 
L 467.144226 91.328264 
L 468.058231 93.945339 
L 468.515233 92.84265 
L 468.972236 92.851808 
L 469.429238 93.341039 
L 469.886241 94.341784 
L 470.343243 94.594666 
L 470.800246 94.227354 
L 471.257248 92.947772 
L 471.714251 96.361217 
L 472.171253 97.110716 
L 472.628256 97.144689 
L 473.085258 97.44502 
L 473.54226 97.451124 
L 474.913268 97.995216 
L 481.768305 100.901478 
L 482.225307 101.011431 
L 482.68231 102.17896 
L 483.139312 102.79003 
L 483.596314 100.288135 
L 484.053317 100.41619 
L 484.510319 101.304257 
L 484.967322 98.85592 
L 485.424324 98.330027 
L 485.881327 97.442769 
L 486.338329 97.544804 
L 486.795332 97.899583 
L 487.252334 97.911091 
L 487.709337 100.190537 
L 488.166339 100.124125 
L 488.623342 99.292427 
L 489.080344 95.673787 
L 489.537346 94.933426 
L 489.994349 100.690519 
L 490.451351 100.78478 
L 490.908354 97.058478 
L 491.365356 96.341576 
L 491.822359 96.960205 
L 492.279361 96.706707 
L 492.736364 97.440806 
L 493.193366 98.665117 
L 493.650369 98.849121 
L 494.107371 98.243831 
L 494.564373 102.295141 
L 495.021376 104.035373 
L 495.478378 103.549728 
L 495.935381 103.997647 
L 496.392383 102.930926 
L 496.849386 105.243942 
L 497.306388 104.511237 
L 497.763391 105.400538 
L 498.220393 104.877061 
L 498.677396 105.204577 
L 499.134398 106.289093 
L 499.5914 106.107571 
L 500.048403 105.570939 
L 500.505405 105.567872 
L 500.962408 105.171834 
L 501.41941 105.137311 
L 501.876413 106.554509 
L 502.790418 107.447108 
L 509.645455 110.02406 
L 510.559459 110.711327 
L 520.613514 114.270673 
L 521.070516 114.713703 
L 521.527518 115.63342 
L 522.441523 115.944879 
L 522.898526 116.221692 
L 523.355528 115.875314 
L 524.269533 114.257176 
L 524.726536 114.627333 
L 525.183538 116.217243 
L 525.640541 115.379827 
L 526.097543 115.526909 
L 526.554545 115.309747 
L 527.011548 115.439735 
L 527.46855 115.732073 
L 528.382555 116.963563 
L 528.839558 117.339774 
L 530.210565 117.79276 
L 531.12457 117.722516 
L 531.581572 117.2314 
L 534.323587 118.129835 
L 534.78059 118.112969 
L 535.237592 117.874356 
L 535.694595 118.032026 
L 536.151597 117.950001 
L 536.6086 118.452538 
L 537.522604 118.462665 
L 537.979607 119.118031 
L 538.436609 115.552104 
L 538.893612 115.468181 
L 539.350614 115.947892 
L 539.807617 116.153566 
L 540.264619 117.367733 
L 542.549631 118.101567 
L 543.006634 118.133935 
L 546.662654 119.291048 
L 547.119656 119.736296 
L 548.033661 119.721375 
L 548.490663 118.705351 
L 548.947666 119.271053 
L 549.861671 119.24567 
L 550.318673 119.49872 
L 551.232678 119.600571 
L 552.146683 119.942877 
L 552.603686 120.146784 
L 553.060688 121.582959 
L 554.431695 124.352098 
L 554.888698 124.258991 
L 555.3457 123.902184 
L 555.802703 124.577668 
L 556.259705 124.194694 
L 556.716708 125.31815 
L 557.17371 125.242405 
L 557.630713 126.048704 
L 558.087715 123.793212 
L 558.544717 124.565298 
L 559.00172 121.345049 
L 559.458722 121.608479 
L 559.915725 122.221267 
L 560.372727 124.195881 
L 560.372727 124.195881 
" clip-path="url(#pa2b127901a)" style="fill: none; stroke: #800080; stroke-width: 1.5; stroke-linecap: square"/>
   </g>
   <g id="patch_3">
    <path d="M 81 320.4 
L 81 43.2 
" style="fill: none; stroke: #000000; stroke-width: 0.8; stroke-linejoin: miter; stroke-linecap: square"/>
   </g>
   <g id="patch_4">
    <path d="M 583.2 320.4 
L 583.2 43.2 
" style="fill: none; stroke: #000000; stroke-width: 0.8; stroke-linejoin: miter; stroke-linecap: square"/>
   </g>
   <g id="patch_5">
    <path d="M 81 320.4 
L 583.2 320.4 
" style="fill: none; stroke: #000000; stroke-width: 0.8; stroke-linejoin: miter; stroke-linecap: square"/>
   </g>
   <g id="patch_6">
    <path d="M 81 43.2 
L 583.2 43.2 
" style="fill: none; stroke: #000000; stroke-width: 0.8; stroke-linejoin: miter; stroke-linecap: square"/>
   </g>
   <g id="text_16">
    <!-- Average Reward Over Time of Clipped Initial Policy -->
    <g transform="translate(180.370313 37.2) scale(0.12 -0.12)">
     <defs>
      <path id="DejaVuSans-4f" d="M 2522 4238 
Q 1834 4238 1429 3725 
Q 1025 3213 1025 2328 
Q 1025 1447 1429 934 
Q 1834 422 2522 422 
Q 3209 422 3611 934 
Q 4013 1447 4013 2328 
Q 4013 3213 3611 3725 
Q 3209 4238 2522 4238 
z
M 2522 4750 
Q 3503 4750 4090 4092 
Q 4678 3434 4678 2328 
Q 4678 1225 4090 567 
Q 3503 -91 2522 -91 
Q 1538 -91 948 565 
Q 359 1222 359 2328 
Q 359 3434 948 4092 
Q 1538 4750 2522 4750 
z
" transform="scale(0.015625)"/>
      <path id="DejaVuSans-6f" d="M 1959 3097 
Q 1497 3097 1228 2736 
Q 959 2375 959 1747 
Q 959 1119 1226 758 
Q 1494 397 1959 397 
Q 2419 397 2687 759 
Q 2956 1122 2956 1747 
Q 2956 2369 2687 2733 
Q 2419 3097 1959 3097 
z
M 1959 3584 
Q 2709 3584 3137 3096 
Q 3566 2609 3566 1747 
Q 3566 888 3137 398 
Q 2709 -91 1959 -91 
Q 1206 -91 779 398 
Q 353 888 353 1747 
Q 353 2609 779 3096 
Q 1206 3584 1959 3584 
z
" transform="scale(0.015625)"/>
      <path id="DejaVuSans-66" d="M 2375 4863 
L 2375 4384 
L 1825 4384 
Q 1516 4384 1395 4259 
Q 1275 4134 1275 3809 
L 1275 3500 
L 2222 3500 
L 2222 3053 
L 1275 3053 
L 1275 0 
L 697 0 
L 697 3053 
L 147 3053 
L 147 3500 
L 697 3500 
L 697 3744 
Q 697 4328 969 4595 
Q 1241 4863 1831 4863 
L 2375 4863 
z
" transform="scale(0.015625)"/>
      <path id="DejaVuSans-43" d="M 4122 4306 
L 4122 3641 
Q 3803 3938 3442 4084 
Q 3081 4231 2675 4231 
Q 1875 4231 1450 3742 
Q 1025 3253 1025 2328 
Q 1025 1406 1450 917 
Q 1875 428 2675 428 
Q 3081 428 3442 575 
Q 3803 722 4122 1019 
L 4122 359 
Q 3791 134 3420 21 
Q 3050 -91 2638 -91 
Q 1578 -91 968 557 
Q 359 1206 359 2328 
Q 359 3453 968 4101 
Q 1578 4750 2638 4750 
Q 3056 4750 3426 4639 
Q 3797 4528 4122 4306 
z
" transform="scale(0.015625)"/>
      <path id="DejaVuSans-6c" d="M 603 4863 
L 1178 4863 
L 1178 0 
L 603 0 
L 603 4863 
z
" transform="scale(0.015625)"/>
      <path id="DejaVuSans-70" d="M 1159 525 
L 1159 -1331 
L 581 -1331 
L 581 3500 
L 1159 3500 
L 1159 2969 
Q 1341 3281 1617 3432 
Q 1894 3584 2278 3584 
Q 2916 3584 3314 3078 
Q 3713 2572 3713 1747 
Q 3713 922 3314 415 
Q 2916 -91 2278 -91 
Q 1894 -91 1617 61 
Q 1341 213 1159 525 
z
M 3116 1747 
Q 3116 2381 2855 2742 
Q 2594 3103 2138 3103 
Q 1681 3103 1420 2742 
Q 1159 2381 1159 1747 
Q 1159 1113 1420 752 
Q 1681 391 2138 391 
Q 2594 391 2855 752 
Q 3116 1113 3116 1747 
z
" transform="scale(0.015625)"/>
      <path id="DejaVuSans-49" d="M 628 4666 
L 1259 4666 
L 1259 0 
L 628 0 
L 628 4666 
z
" transform="scale(0.015625)"/>
      <path id="DejaVuSans-6e" d="M 3513 2113 
L 3513 0 
L 2938 0 
L 2938 2094 
Q 2938 2591 2744 2837 
Q 2550 3084 2163 3084 
Q 1697 3084 1428 2787 
Q 1159 2491 1159 1978 
L 1159 0 
L 581 0 
L 581 3500 
L 1159 3500 
L 1159 2956 
Q 1366 3272 1645 3428 
Q 1925 3584 2291 3584 
Q 2894 3584 3203 3211 
Q 3513 2838 3513 2113 
z
" transform="scale(0.015625)"/>
      <path id="DejaVuSans-74" d="M 1172 4494 
L 1172 3500 
L 2356 3500 
L 2356 3053 
L 1172 3053 
L 1172 1153 
Q 1172 725 1289 603 
Q 1406 481 1766 481 
L 2356 481 
L 2356 0 
L 1766 0 
Q 1100 0 847 248 
Q 594 497 594 1153 
L 594 3053 
L 172 3053 
L 172 3500 
L 594 3500 
L 594 4494 
L 1172 4494 
z
" transform="scale(0.015625)"/>
      <path id="DejaVuSans-50" d="M 1259 4147 
L 1259 2394 
L 2053 2394 
Q 2494 2394 2734 2622 
Q 2975 2850 2975 3272 
Q 2975 3691 2734 3919 
Q 2494 4147 2053 4147 
L 1259 4147 
z
M 628 4666 
L 2053 4666 
Q 2838 4666 3239 4311 
Q 3641 3956 3641 3272 
Q 3641 2581 3239 2228 
Q 2838 1875 2053 1875 
L 1259 1875 
L 1259 0 
L 628 0 
L 628 4666 
z
" transform="scale(0.015625)"/>
      <path id="DejaVuSans-63" d="M 3122 3366 
L 3122 2828 
Q 2878 2963 2633 3030 
Q 2388 3097 2138 3097 
Q 1578 3097 1268 2742 
Q 959 2388 959 1747 
Q 959 1106 1268 751 
Q 1578 397 2138 397 
Q 2388 397 2633 464 
Q 2878 531 3122 666 
L 3122 134 
Q 2881 22 2623 -34 
Q 2366 -91 2075 -91 
Q 1284 -91 818 406 
Q 353 903 353 1747 
Q 353 2603 823 3093 
Q 1294 3584 2113 3584 
Q 2378 3584 2631 3529 
Q 2884 3475 3122 3366 
z
" transform="scale(0.015625)"/>
      <path id="DejaVuSans-79" d="M 2059 -325 
Q 1816 -950 1584 -1140 
Q 1353 -1331 966 -1331 
L 506 -1331 
L 506 -850 
L 844 -850 
Q 1081 -850 1212 -737 
Q 1344 -625 1503 -206 
L 1606 56 
L 191 3500 
L 800 3500 
L 1894 763 
L 2988 3500 
L 3597 3500 
L 2059 -325 
z
" transform="scale(0.015625)"/>
     </defs>
     <use xlink:href="#DejaVuSans-41"/>
     <use xlink:href="#DejaVuSans-76" transform="translate(62.533203 0)"/>
     <use xlink:href="#DejaVuSans-65" transform="translate(121.712891 0)"/>
     <use xlink:href="#DejaVuSans-72" transform="translate(183.236328 0)"/>
     <use xlink:href="#DejaVuSans-61" transform="translate(224.349609 0)"/>
     <use xlink:href="#DejaVuSans-67" transform="translate(285.628906 0)"/>
     <use xlink:href="#DejaVuSans-65" transform="translate(349.105469 0)"/>
     <use xlink:href="#DejaVuSans-20" transform="translate(410.628906 0)"/>
     <use xlink:href="#DejaVuSans-52" transform="translate(442.416016 0)"/>
     <use xlink:href="#DejaVuSans-65" transform="translate(507.398438 0)"/>
     <use xlink:href="#DejaVuSans-77" transform="translate(568.921875 0)"/>
     <use xlink:href="#DejaVuSans-61" transform="translate(650.708984 0)"/>
     <use xlink:href="#DejaVuSans-72" transform="translate(711.988281 0)"/>
     <use xlink:href="#DejaVuSans-64" transform="translate(751.351562 0)"/>
     <use xlink:href="#DejaVuSans-20" transform="translate(814.828125 0)"/>
     <use xlink:href="#DejaVuSans-4f" transform="translate(846.615234 0)"/>
     <use xlink:href="#DejaVuSans-76" transform="translate(925.326172 0)"/>
     <use xlink:href="#DejaVuSans-65" transform="translate(984.505859 0)"/>
     <use xlink:href="#DejaVuSans-72" transform="translate(1046.029297 0)"/>
     <use xlink:href="#DejaVuSans-20" transform="translate(1087.142578 0)"/>
     <use xlink:href="#DejaVuSans-54" transform="translate(1118.929688 0)"/>
     <use xlink:href="#DejaVuSans-69" transform="translate(1176.888672 0)"/>
     <use xlink:href="#DejaVuSans-6d" transform="translate(1204.671875 0)"/>
     <use xlink:href="#DejaVuSans-65" transform="translate(1302.083984 0)"/>
     <use xlink:href="#DejaVuSans-20" transform="translate(1363.607422 0)"/>
     <use xlink:href="#DejaVuSans-6f" transform="translate(1395.394531 0)"/>
     <use xlink:href="#DejaVuSans-66" transform="translate(1456.576172 0)"/>
     <use xlink:href="#DejaVuSans-20" transform="translate(1491.78125 0)"/>
     <use xlink:href="#DejaVuSans-43" transform="translate(1523.568359 0)"/>
     <use xlink:href="#DejaVuSans-6c" transform="translate(1593.392578 0)"/>
     <use xlink:href="#DejaVuSans-69" transform="translate(1621.175781 0)"/>
     <use xlink:href="#DejaVuSans-70" transform="translate(1648.958984 0)"/>
     <use xlink:href="#DejaVuSans-70" transform="translate(1712.435547 0)"/>
     <use xlink:href="#DejaVuSans-65" transform="translate(1775.912109 0)"/>
     <use xlink:href="#DejaVuSans-64" transform="translate(1837.435547 0)"/>
     <use xlink:href="#DejaVuSans-20" transform="translate(1900.912109 0)"/>
     <use xlink:href="#DejaVuSans-49" transform="translate(1932.699219 0)"/>
     <use xlink:href="#DejaVuSans-6e" transform="translate(1962.191406 0)"/>
     <use xlink:href="#DejaVuSans-69" transform="translate(2025.570312 0)"/>
     <use xlink:href="#DejaVuSans-74" transform="translate(2053.353516 0)"/>
     <use xlink:href="#DejaVuSans-69" transform="translate(2092.5625 0)"/>
     <use xlink:href="#DejaVuSans-61" transform="translate(2120.345703 0)"/>
     <use xlink:href="#DejaVuSans-6c" transform="translate(2181.625 0)"/>
     <use xlink:href="#DejaVuSans-20" transform="translate(2209.408203 0)"/>
     <use xlink:href="#DejaVuSans-50" transform="translate(2241.195312 0)"/>
     <use xlink:href="#DejaVuSans-6f" transform="translate(2297.873047 0)"/>
     <use xlink:href="#DejaVuSans-6c" transform="translate(2359.054688 0)"/>
     <use xlink:href="#DejaVuSans-69" transform="translate(2386.837891 0)"/>
     <use xlink:href="#DejaVuSans-63" transform="translate(2414.621094 0)"/>
     <use xlink:href="#DejaVuSans-79" transform="translate(2469.601562 0)"/>
    </g>
   </g>
   <g id="legend_1">
    <g id="patch_7">
     <path d="M 462.714063 65.878125 
L 576.2 65.878125 
Q 578.2 65.878125 578.2 63.878125 
L 578.2 50.2 
Q 578.2 48.2 576.2 48.2 
L 462.714063 48.2 
Q 460.714063 48.2 460.714063 50.2 
L 460.714063 63.878125 
Q 460.714063 65.878125 462.714063 65.878125 
z
" style="fill: #ffffff; opacity: 0.8; stroke: #cccccc; stroke-linejoin: miter"/>
    </g>
    <g id="line2d_28">
     <path d="M 464.714063 56.298437 
L 474.714063 56.298437 
L 484.714063 56.298437 
" style="fill: none; stroke: #800080; stroke-width: 1.5; stroke-linecap: square"/>
    </g>
    <g id="text_17">
     <!-- Average Reward -->
     <g transform="translate(492.714063 59.798437) scale(0.1 -0.1)">
      <use xlink:href="#DejaVuSans-41"/>
      <use xlink:href="#DejaVuSans-76" transform="translate(62.533203 0)"/>
      <use xlink:href="#DejaVuSans-65" transform="translate(121.712891 0)"/>
      <use xlink:href="#DejaVuSans-72" transform="translate(183.236328 0)"/>
      <use xlink:href="#DejaVuSans-61" transform="translate(224.349609 0)"/>
      <use xlink:href="#DejaVuSans-67" transform="translate(285.628906 0)"/>
      <use xlink:href="#DejaVuSans-65" transform="translate(349.105469 0)"/>
      <use xlink:href="#DejaVuSans-20" transform="translate(410.628906 0)"/>
      <use xlink:href="#DejaVuSans-52" transform="translate(442.416016 0)"/>
      <use xlink:href="#DejaVuSans-65" transform="translate(507.398438 0)"/>
      <use xlink:href="#DejaVuSans-77" transform="translate(568.921875 0)"/>
      <use xlink:href="#DejaVuSans-61" transform="translate(650.708984 0)"/>
      <use xlink:href="#DejaVuSans-72" transform="translate(711.988281 0)"/>
      <use xlink:href="#DejaVuSans-64" transform="translate(751.351562 0)"/>
     </g>
    </g>
   </g>
  </g>
 </g>
 <defs>
  <clipPath id="pa2b127901a">
   <rect x="81" y="43.2" width="502.2" height="277.2"/>
  </clipPath>
 </defs>
</svg>
