<?xml version="1.0" encoding="utf-8" standalone="no"?>
<!DOCTYPE svg PUBLIC "-//W3C//DTD SVG 1.1//EN"
  "http://www.w3.org/Graphics/SVG/1.1/DTD/svg11.dtd">
<svg xmlns:xlink="http://www.w3.org/1999/xlink" width="648pt" height="360pt" viewBox="0 0 648 360" xmlns="http://www.w3.org/2000/svg" version="1.1">
 <metadata>
  <rdf:RDF xmlns:dc="http://purl.org/dc/elements/1.1/" xmlns:cc="http://creativecommons.org/ns#" xmlns:rdf="http://www.w3.org/1999/02/22-rdf-syntax-ns#">
   <cc:Work>
    <dc:type rdf:resource="http://purl.org/dc/dcmitype/StillImage"/>
    <dc:date>2025-09-26T15:30:51.234050</dc:date>
    <dc:format>image/svg+xml</dc:format>
    <dc:creator>
     <cc:Agent>
      <dc:title>Matplotlib v3.10.6, https://matplotlib.org/</dc:title>
     </cc:Agent>
    </dc:creator>
   </cc:Work>
  </rdf:RDF>
 </metadata>
 <defs>
  <style type="text/css">*{stroke-linejoin: round; stroke-linecap: butt}</style>
 </defs>
 <g id="figure_1">
  <g id="patch_1">
   <path d="M 0 360 
L 648 360 
L 648 0 
L 0 0 
z
" style="fill: #ffffff"/>
  </g>
  <g id="axes_1">
   <g id="patch_2">
    <path d="M 81 320.4 
L 583.2 320.4 
L 583.2 43.2 
L 81 43.2 
z
" style="fill: #ffffff"/>
   </g>
   <g id="matplotlib.axis_1">
    <g id="xtick_1">
     <g id="line2d_1">
      <path d="M 103.37027 320.4 
L 103.37027 43.2 
" clip-path="url(#p0f681aee6a)" style="fill: none; stroke: #b0b0b0; stroke-width: 0.8; stroke-linecap: square"/>
     </g>
     <g id="line2d_2">
      <defs>
       <path id="m979daad78c" d="M 0 0 
L 0 3.5 
" style="stroke: #000000; stroke-width: 0.8"/>
      </defs>
      <g>
       <use xlink:href="#m979daad78c" x="103.37027" y="320.4" style="stroke: #000000; stroke-width: 0.8"/>
      </g>
     </g>
     <g id="text_1">
      <!-- 0 -->
      <g transform="translate(100.18902 334.998438) scale(0.1 -0.1)">
       <defs>
        <path id="DejaVuSans-30" d="M 2034 4250 
Q 1547 4250 1301 3770 
Q 1056 3291 1056 2328 
Q 1056 1369 1301 889 
Q 1547 409 2034 409 
Q 2525 409 2770 889 
Q 3016 1369 3016 2328 
Q 3016 3291 2770 3770 
Q 2525 4250 2034 4250 
z
M 2034 4750 
Q 2819 4750 3233 4129 
Q 3647 3509 3647 2328 
Q 3647 1150 3233 529 
Q 2819 -91 2034 -91 
Q 1250 -91 836 529 
Q 422 1150 422 2328 
Q 422 3509 836 4129 
Q 1250 4750 2034 4750 
z
" transform="scale(0.015625)"/>
       </defs>
       <use xlink:href="#DejaVuSans-30"/>
      </g>
     </g>
    </g>
    <g id="xtick_2">
     <g id="line2d_3">
      <path d="M 194.770762 320.4 
L 194.770762 43.2 
" clip-path="url(#p0f681aee6a)" style="fill: none; stroke: #b0b0b0; stroke-width: 0.8; stroke-linecap: square"/>
     </g>
     <g id="line2d_4">
      <g>
       <use xlink:href="#m979daad78c" x="194.770762" y="320.4" style="stroke: #000000; stroke-width: 0.8"/>
      </g>
     </g>
     <g id="text_2">
      <!-- 200 -->
      <g transform="translate(185.227012 334.998438) scale(0.1 -0.1)">
       <defs>
        <path id="DejaVuSans-32" d="M 1228 531 
L 3431 531 
L 3431 0 
L 469 0 
L 469 531 
Q 828 903 1448 1529 
Q 2069 2156 2228 2338 
Q 2531 2678 2651 2914 
Q 2772 3150 2772 3378 
Q 2772 3750 2511 3984 
Q 2250 4219 1831 4219 
Q 1534 4219 1204 4116 
Q 875 4013 500 3803 
L 500 4441 
Q 881 4594 1212 4672 
Q 1544 4750 1819 4750 
Q 2544 4750 2975 4387 
Q 3406 4025 3406 3419 
Q 3406 3131 3298 2873 
Q 3191 2616 2906 2266 
Q 2828 2175 2409 1742 
Q 1991 1309 1228 531 
z
" transform="scale(0.015625)"/>
       </defs>
       <use xlink:href="#DejaVuSans-32"/>
       <use xlink:href="#DejaVuSans-30" transform="translate(63.623047 0)"/>
       <use xlink:href="#DejaVuSans-30" transform="translate(127.246094 0)"/>
      </g>
     </g>
    </g>
    <g id="xtick_3">
     <g id="line2d_5">
      <path d="M 286.171253 320.4 
L 286.171253 43.2 
" clip-path="url(#p0f681aee6a)" style="fill: none; stroke: #b0b0b0; stroke-width: 0.8; stroke-linecap: square"/>
     </g>
     <g id="line2d_6">
      <g>
       <use xlink:href="#m979daad78c" x="286.171253" y="320.4" style="stroke: #000000; stroke-width: 0.8"/>
      </g>
     </g>
     <g id="text_3">
      <!-- 400 -->
      <g transform="translate(276.627503 334.998438) scale(0.1 -0.1)">
       <defs>
        <path id="DejaVuSans-34" d="M 2419 4116 
L 825 1625 
L 2419 1625 
L 2419 4116 
z
M 2253 4666 
L 3047 4666 
L 3047 1625 
L 3713 1625 
L 3713 1100 
L 3047 1100 
L 3047 0 
L 2419 0 
L 2419 1100 
L 313 1100 
L 313 1709 
L 2253 4666 
z
" transform="scale(0.015625)"/>
       </defs>
       <use xlink:href="#DejaVuSans-34"/>
       <use xlink:href="#DejaVuSans-30" transform="translate(63.623047 0)"/>
       <use xlink:href="#DejaVuSans-30" transform="translate(127.246094 0)"/>
      </g>
     </g>
    </g>
    <g id="xtick_4">
     <g id="line2d_7">
      <path d="M 377.571744 320.4 
L 377.571744 43.2 
" clip-path="url(#p0f681aee6a)" style="fill: none; stroke: #b0b0b0; stroke-width: 0.8; stroke-linecap: square"/>
     </g>
     <g id="line2d_8">
      <g>
       <use xlink:href="#m979daad78c" x="377.571744" y="320.4" style="stroke: #000000; stroke-width: 0.8"/>
      </g>
     </g>
     <g id="text_4">
      <!-- 600 -->
      <g transform="translate(368.027994 334.998438) scale(0.1 -0.1)">
       <defs>
        <path id="DejaVuSans-36" d="M 2113 2584 
Q 1688 2584 1439 2293 
Q 1191 2003 1191 1497 
Q 1191 994 1439 701 
Q 1688 409 2113 409 
Q 2538 409 2786 701 
Q 3034 994 3034 1497 
Q 3034 2003 2786 2293 
Q 2538 2584 2113 2584 
z
M 3366 4563 
L 3366 3988 
Q 3128 4100 2886 4159 
Q 2644 4219 2406 4219 
Q 1781 4219 1451 3797 
Q 1122 3375 1075 2522 
Q 1259 2794 1537 2939 
Q 1816 3084 2150 3084 
Q 2853 3084 3261 2657 
Q 3669 2231 3669 1497 
Q 3669 778 3244 343 
Q 2819 -91 2113 -91 
Q 1303 -91 875 529 
Q 447 1150 447 2328 
Q 447 3434 972 4092 
Q 1497 4750 2381 4750 
Q 2619 4750 2861 4703 
Q 3103 4656 3366 4563 
z
" transform="scale(0.015625)"/>
       </defs>
       <use xlink:href="#DejaVuSans-36"/>
       <use xlink:href="#DejaVuSans-30" transform="translate(63.623047 0)"/>
       <use xlink:href="#DejaVuSans-30" transform="translate(127.246094 0)"/>
      </g>
     </g>
    </g>
    <g id="xtick_5">
     <g id="line2d_9">
      <path d="M 468.972236 320.4 
L 468.972236 43.2 
" clip-path="url(#p0f681aee6a)" style="fill: none; stroke: #b0b0b0; stroke-width: 0.8; stroke-linecap: square"/>
     </g>
     <g id="line2d_10">
      <g>
       <use xlink:href="#m979daad78c" x="468.972236" y="320.4" style="stroke: #000000; stroke-width: 0.8"/>
      </g>
     </g>
     <g id="text_5">
      <!-- 800 -->
      <g transform="translate(459.428486 334.998438) scale(0.1 -0.1)">
       <defs>
        <path id="DejaVuSans-38" d="M 2034 2216 
Q 1584 2216 1326 1975 
Q 1069 1734 1069 1313 
Q 1069 891 1326 650 
Q 1584 409 2034 409 
Q 2484 409 2743 651 
Q 3003 894 3003 1313 
Q 3003 1734 2745 1975 
Q 2488 2216 2034 2216 
z
M 1403 2484 
Q 997 2584 770 2862 
Q 544 3141 544 3541 
Q 544 4100 942 4425 
Q 1341 4750 2034 4750 
Q 2731 4750 3128 4425 
Q 3525 4100 3525 3541 
Q 3525 3141 3298 2862 
Q 3072 2584 2669 2484 
Q 3125 2378 3379 2068 
Q 3634 1759 3634 1313 
Q 3634 634 3220 271 
Q 2806 -91 2034 -91 
Q 1263 -91 848 271 
Q 434 634 434 1313 
Q 434 1759 690 2068 
Q 947 2378 1403 2484 
z
M 1172 3481 
Q 1172 3119 1398 2916 
Q 1625 2713 2034 2713 
Q 2441 2713 2670 2916 
Q 2900 3119 2900 3481 
Q 2900 3844 2670 4047 
Q 2441 4250 2034 4250 
Q 1625 4250 1398 4047 
Q 1172 3844 1172 3481 
z
" transform="scale(0.015625)"/>
       </defs>
       <use xlink:href="#DejaVuSans-38"/>
       <use xlink:href="#DejaVuSans-30" transform="translate(63.623047 0)"/>
       <use xlink:href="#DejaVuSans-30" transform="translate(127.246094 0)"/>
      </g>
     </g>
    </g>
    <g id="xtick_6">
     <g id="line2d_11">
      <path d="M 560.372727 320.4 
L 560.372727 43.2 
" clip-path="url(#p0f681aee6a)" style="fill: none; stroke: #b0b0b0; stroke-width: 0.8; stroke-linecap: square"/>
     </g>
     <g id="line2d_12">
      <g>
       <use xlink:href="#m979daad78c" x="560.372727" y="320.4" style="stroke: #000000; stroke-width: 0.8"/>
      </g>
     </g>
     <g id="text_6">
      <!-- 1000 -->
      <g transform="translate(547.647727 334.998438) scale(0.1 -0.1)">
       <defs>
        <path id="DejaVuSans-31" d="M 794 531 
L 1825 531 
L 1825 4091 
L 703 3866 
L 703 4441 
L 1819 4666 
L 2450 4666 
L 2450 531 
L 3481 531 
L 3481 0 
L 794 0 
L 794 531 
z
" transform="scale(0.015625)"/>
       </defs>
       <use xlink:href="#DejaVuSans-31"/>
       <use xlink:href="#DejaVuSans-30" transform="translate(63.623047 0)"/>
       <use xlink:href="#DejaVuSans-30" transform="translate(127.246094 0)"/>
       <use xlink:href="#DejaVuSans-30" transform="translate(190.869141 0)"/>
      </g>
     </g>
    </g>
    <g id="text_7">
     <!-- Time -->
     <g transform="translate(319.866406 348.676562) scale(0.1 -0.1)">
      <defs>
       <path id="DejaVuSans-54" d="M -19 4666 
L 3928 4666 
L 3928 4134 
L 2272 4134 
L 2272 0 
L 1638 0 
L 1638 4134 
L -19 4134 
L -19 4666 
z
" transform="scale(0.015625)"/>
       <path id="DejaVuSans-69" d="M 603 3500 
L 1178 3500 
L 1178 0 
L 603 0 
L 603 3500 
z
M 603 4863 
L 1178 4863 
L 1178 4134 
L 603 4134 
L 603 4863 
z
" transform="scale(0.015625)"/>
       <path id="DejaVuSans-6d" d="M 3328 2828 
Q 3544 3216 3844 3400 
Q 4144 3584 4550 3584 
Q 5097 3584 5394 3201 
Q 5691 2819 5691 2113 
L 5691 0 
L 5113 0 
L 5113 2094 
Q 5113 2597 4934 2840 
Q 4756 3084 4391 3084 
Q 3944 3084 3684 2787 
Q 3425 2491 3425 1978 
L 3425 0 
L 2847 0 
L 2847 2094 
Q 2847 2600 2669 2842 
Q 2491 3084 2119 3084 
Q 1678 3084 1418 2786 
Q 1159 2488 1159 1978 
L 1159 0 
L 581 0 
L 581 3500 
L 1159 3500 
L 1159 2956 
Q 1356 3278 1631 3431 
Q 1906 3584 2284 3584 
Q 2666 3584 2933 3390 
Q 3200 3197 3328 2828 
z
" transform="scale(0.015625)"/>
       <path id="DejaVuSans-65" d="M 3597 1894 
L 3597 1613 
L 953 1613 
Q 991 1019 1311 708 
Q 1631 397 2203 397 
Q 2534 397 2845 478 
Q 3156 559 3463 722 
L 3463 178 
Q 3153 47 2828 -22 
Q 2503 -91 2169 -91 
Q 1331 -91 842 396 
Q 353 884 353 1716 
Q 353 2575 817 3079 
Q 1281 3584 2069 3584 
Q 2775 3584 3186 3129 
Q 3597 2675 3597 1894 
z
M 3022 2063 
Q 3016 2534 2758 2815 
Q 2500 3097 2075 3097 
Q 1594 3097 1305 2825 
Q 1016 2553 972 2059 
L 3022 2063 
z
" transform="scale(0.015625)"/>
      </defs>
      <use xlink:href="#DejaVuSans-54"/>
      <use xlink:href="#DejaVuSans-69" transform="translate(57.958984 0)"/>
      <use xlink:href="#DejaVuSans-6d" transform="translate(85.742188 0)"/>
      <use xlink:href="#DejaVuSans-65" transform="translate(183.154297 0)"/>
     </g>
    </g>
   </g>
   <g id="matplotlib.axis_2">
    <g id="ytick_1">
     <g id="line2d_13">
      <path d="M 81 313.647262 
L 583.2 313.647262 
" clip-path="url(#p0f681aee6a)" style="fill: none; stroke: #b0b0b0; stroke-width: 0.8; stroke-linecap: square"/>
     </g>
     <g id="line2d_14">
      <defs>
       <path id="m280afdf450" d="M 0 0 
L -3.5 0 
" style="stroke: #000000; stroke-width: 0.8"/>
      </defs>
      <g>
       <use xlink:href="#m280afdf450" x="81" y="313.647262" style="stroke: #000000; stroke-width: 0.8"/>
      </g>
     </g>
     <g id="text_8">
      <!-- −0.0004 -->
      <g transform="translate(30.629687 317.44648) scale(0.1 -0.1)">
       <defs>
        <path id="DejaVuSans-2212" d="M 678 2272 
L 4684 2272 
L 4684 1741 
L 678 1741 
L 678 2272 
z
" transform="scale(0.015625)"/>
        <path id="DejaVuSans-2e" d="M 684 794 
L 1344 794 
L 1344 0 
L 684 0 
L 684 794 
z
" transform="scale(0.015625)"/>
       </defs>
       <use xlink:href="#DejaVuSans-2212"/>
       <use xlink:href="#DejaVuSans-30" transform="translate(83.789062 0)"/>
       <use xlink:href="#DejaVuSans-2e" transform="translate(147.412109 0)"/>
       <use xlink:href="#DejaVuSans-30" transform="translate(179.199219 0)"/>
       <use xlink:href="#DejaVuSans-30" transform="translate(242.822266 0)"/>
       <use xlink:href="#DejaVuSans-30" transform="translate(306.445312 0)"/>
       <use xlink:href="#DejaVuSans-34" transform="translate(370.068359 0)"/>
      </g>
     </g>
    </g>
    <g id="ytick_2">
     <g id="line2d_15">
      <path d="M 81 254.708244 
L 583.2 254.708244 
" clip-path="url(#p0f681aee6a)" style="fill: none; stroke: #b0b0b0; stroke-width: 0.8; stroke-linecap: square"/>
     </g>
     <g id="line2d_16">
      <g>
       <use xlink:href="#m280afdf450" x="81" y="254.708244" style="stroke: #000000; stroke-width: 0.8"/>
      </g>
     </g>
     <g id="text_9">
      <!-- −0.0002 -->
      <g transform="translate(30.629687 258.507463) scale(0.1 -0.1)">
       <use xlink:href="#DejaVuSans-2212"/>
       <use xlink:href="#DejaVuSans-30" transform="translate(83.789062 0)"/>
       <use xlink:href="#DejaVuSans-2e" transform="translate(147.412109 0)"/>
       <use xlink:href="#DejaVuSans-30" transform="translate(179.199219 0)"/>
       <use xlink:href="#DejaVuSans-30" transform="translate(242.822266 0)"/>
       <use xlink:href="#DejaVuSans-30" transform="translate(306.445312 0)"/>
       <use xlink:href="#DejaVuSans-32" transform="translate(370.068359 0)"/>
      </g>
     </g>
    </g>
    <g id="ytick_3">
     <g id="line2d_17">
      <path d="M 81 195.769227 
L 583.2 195.769227 
" clip-path="url(#p0f681aee6a)" style="fill: none; stroke: #b0b0b0; stroke-width: 0.8; stroke-linecap: square"/>
     </g>
     <g id="line2d_18">
      <g>
       <use xlink:href="#m280afdf450" x="81" y="195.769227" style="stroke: #000000; stroke-width: 0.8"/>
      </g>
     </g>
     <g id="text_10">
      <!-- 0.0000 -->
      <g transform="translate(39.009375 199.568446) scale(0.1 -0.1)">
       <use xlink:href="#DejaVuSans-30"/>
       <use xlink:href="#DejaVuSans-2e" transform="translate(63.623047 0)"/>
       <use xlink:href="#DejaVuSans-30" transform="translate(95.410156 0)"/>
       <use xlink:href="#DejaVuSans-30" transform="translate(159.033203 0)"/>
       <use xlink:href="#DejaVuSans-30" transform="translate(222.65625 0)"/>
       <use xlink:href="#DejaVuSans-30" transform="translate(286.279297 0)"/>
      </g>
     </g>
    </g>
    <g id="ytick_4">
     <g id="line2d_19">
      <path d="M 81 136.83021 
L 583.2 136.83021 
" clip-path="url(#p0f681aee6a)" style="fill: none; stroke: #b0b0b0; stroke-width: 0.8; stroke-linecap: square"/>
     </g>
     <g id="line2d_20">
      <g>
       <use xlink:href="#m280afdf450" x="81" y="136.83021" style="stroke: #000000; stroke-width: 0.8"/>
      </g>
     </g>
     <g id="text_11">
      <!-- 0.0002 -->
      <g transform="translate(39.009375 140.629429) scale(0.1 -0.1)">
       <use xlink:href="#DejaVuSans-30"/>
       <use xlink:href="#DejaVuSans-2e" transform="translate(63.623047 0)"/>
       <use xlink:href="#DejaVuSans-30" transform="translate(95.410156 0)"/>
       <use xlink:href="#DejaVuSans-30" transform="translate(159.033203 0)"/>
       <use xlink:href="#DejaVuSans-30" transform="translate(222.65625 0)"/>
       <use xlink:href="#DejaVuSans-32" transform="translate(286.279297 0)"/>
      </g>
     </g>
    </g>
    <g id="ytick_5">
     <g id="line2d_21">
      <path d="M 81 77.891192 
L 583.2 77.891192 
" clip-path="url(#p0f681aee6a)" style="fill: none; stroke: #b0b0b0; stroke-width: 0.8; stroke-linecap: square"/>
     </g>
     <g id="line2d_22">
      <g>
       <use xlink:href="#m280afdf450" x="81" y="77.891192" style="stroke: #000000; stroke-width: 0.8"/>
      </g>
     </g>
     <g id="text_12">
      <!-- 0.0004 -->
      <g transform="translate(39.009375 81.690411) scale(0.1 -0.1)">
       <use xlink:href="#DejaVuSans-30"/>
       <use xlink:href="#DejaVuSans-2e" transform="translate(63.623047 0)"/>
       <use xlink:href="#DejaVuSans-30" transform="translate(95.410156 0)"/>
       <use xlink:href="#DejaVuSans-30" transform="translate(159.033203 0)"/>
       <use xlink:href="#DejaVuSans-30" transform="translate(222.65625 0)"/>
       <use xlink:href="#DejaVuSans-34" transform="translate(286.279297 0)"/>
      </g>
     </g>
    </g>
    <g id="text_13">
     <!-- Average Reward -->
     <g transform="translate(24.55 222.542969) rotate(-90) scale(0.1 -0.1)">
      <defs>
       <path id="DejaVuSans-41" d="M 2188 4044 
L 1331 1722 
L 3047 1722 
L 2188 4044 
z
M 1831 4666 
L 2547 4666 
L 4325 0 
L 3669 0 
L 3244 1197 
L 1141 1197 
L 716 0 
L 50 0 
L 1831 4666 
z
" transform="scale(0.015625)"/>
       <path id="DejaVuSans-76" d="M 191 3500 
L 800 3500 
L 1894 563 
L 2988 3500 
L 3597 3500 
L 2284 0 
L 1503 0 
L 191 3500 
z
" transform="scale(0.015625)"/>
       <path id="DejaVuSans-72" d="M 2631 2963 
Q 2534 3019 2420 3045 
Q 2306 3072 2169 3072 
Q 1681 3072 1420 2755 
Q 1159 2438 1159 1844 
L 1159 0 
L 581 0 
L 581 3500 
L 1159 3500 
L 1159 2956 
Q 1341 3275 1631 3429 
Q 1922 3584 2338 3584 
Q 2397 3584 2469 3576 
Q 2541 3569 2628 3553 
L 2631 2963 
z
" transform="scale(0.015625)"/>
       <path id="DejaVuSans-61" d="M 2194 1759 
Q 1497 1759 1228 1600 
Q 959 1441 959 1056 
Q 959 750 1161 570 
Q 1363 391 1709 391 
Q 2188 391 2477 730 
Q 2766 1069 2766 1631 
L 2766 1759 
L 2194 1759 
z
M 3341 1997 
L 3341 0 
L 2766 0 
L 2766 531 
Q 2569 213 2275 61 
Q 1981 -91 1556 -91 
Q 1019 -91 701 211 
Q 384 513 384 1019 
Q 384 1609 779 1909 
Q 1175 2209 1959 2209 
L 2766 2209 
L 2766 2266 
Q 2766 2663 2505 2880 
Q 2244 3097 1772 3097 
Q 1472 3097 1187 3025 
Q 903 2953 641 2809 
L 641 3341 
Q 956 3463 1253 3523 
Q 1550 3584 1831 3584 
Q 2591 3584 2966 3190 
Q 3341 2797 3341 1997 
z
" transform="scale(0.015625)"/>
       <path id="DejaVuSans-67" d="M 2906 1791 
Q 2906 2416 2648 2759 
Q 2391 3103 1925 3103 
Q 1463 3103 1205 2759 
Q 947 2416 947 1791 
Q 947 1169 1205 825 
Q 1463 481 1925 481 
Q 2391 481 2648 825 
Q 2906 1169 2906 1791 
z
M 3481 434 
Q 3481 -459 3084 -895 
Q 2688 -1331 1869 -1331 
Q 1566 -1331 1297 -1286 
Q 1028 -1241 775 -1147 
L 775 -588 
Q 1028 -725 1275 -790 
Q 1522 -856 1778 -856 
Q 2344 -856 2625 -561 
Q 2906 -266 2906 331 
L 2906 616 
Q 2728 306 2450 153 
Q 2172 0 1784 0 
Q 1141 0 747 490 
Q 353 981 353 1791 
Q 353 2603 747 3093 
Q 1141 3584 1784 3584 
Q 2172 3584 2450 3431 
Q 2728 3278 2906 2969 
L 2906 3500 
L 3481 3500 
L 3481 434 
z
" transform="scale(0.015625)"/>
       <path id="DejaVuSans-20" transform="scale(0.015625)"/>
       <path id="DejaVuSans-52" d="M 2841 2188 
Q 3044 2119 3236 1894 
Q 3428 1669 3622 1275 
L 4263 0 
L 3584 0 
L 2988 1197 
Q 2756 1666 2539 1819 
Q 2322 1972 1947 1972 
L 1259 1972 
L 1259 0 
L 628 0 
L 628 4666 
L 2053 4666 
Q 2853 4666 3247 4331 
Q 3641 3997 3641 3322 
Q 3641 2881 3436 2590 
Q 3231 2300 2841 2188 
z
M 1259 4147 
L 1259 2491 
L 2053 2491 
Q 2509 2491 2742 2702 
Q 2975 2913 2975 3322 
Q 2975 3731 2742 3939 
Q 2509 4147 2053 4147 
L 1259 4147 
z
" transform="scale(0.015625)"/>
       <path id="DejaVuSans-77" d="M 269 3500 
L 844 3500 
L 1563 769 
L 2278 3500 
L 2956 3500 
L 3675 769 
L 4391 3500 
L 4966 3500 
L 4050 0 
L 3372 0 
L 2619 2869 
L 1863 0 
L 1184 0 
L 269 3500 
z
" transform="scale(0.015625)"/>
       <path id="DejaVuSans-64" d="M 2906 2969 
L 2906 4863 
L 3481 4863 
L 3481 0 
L 2906 0 
L 2906 525 
Q 2725 213 2448 61 
Q 2172 -91 1784 -91 
Q 1150 -91 751 415 
Q 353 922 353 1747 
Q 353 2572 751 3078 
Q 1150 3584 1784 3584 
Q 2172 3584 2448 3432 
Q 2725 3281 2906 2969 
z
M 947 1747 
Q 947 1113 1208 752 
Q 1469 391 1925 391 
Q 2381 391 2643 752 
Q 2906 1113 2906 1747 
Q 2906 2381 2643 2742 
Q 2381 3103 1925 3103 
Q 1469 3103 1208 2742 
Q 947 2381 947 1747 
z
" transform="scale(0.015625)"/>
      </defs>
      <use xlink:href="#DejaVuSans-41"/>
      <use xlink:href="#DejaVuSans-76" transform="translate(62.533203 0)"/>
      <use xlink:href="#DejaVuSans-65" transform="translate(121.712891 0)"/>
      <use xlink:href="#DejaVuSans-72" transform="translate(183.236328 0)"/>
      <use xlink:href="#DejaVuSans-61" transform="translate(224.349609 0)"/>
      <use xlink:href="#DejaVuSans-67" transform="translate(285.628906 0)"/>
      <use xlink:href="#DejaVuSans-65" transform="translate(349.105469 0)"/>
      <use xlink:href="#DejaVuSans-20" transform="translate(410.628906 0)"/>
      <use xlink:href="#DejaVuSans-52" transform="translate(442.416016 0)"/>
      <use xlink:href="#DejaVuSans-65" transform="translate(507.398438 0)"/>
      <use xlink:href="#DejaVuSans-77" transform="translate(568.921875 0)"/>
      <use xlink:href="#DejaVuSans-61" transform="translate(650.708984 0)"/>
      <use xlink:href="#DejaVuSans-72" transform="translate(711.988281 0)"/>
      <use xlink:href="#DejaVuSans-64" transform="translate(751.351562 0)"/>
     </g>
    </g>
   </g>
   <g id="line2d_23">
    <path d="M 103.827273 195.769227 
L 104.284275 198.027443 
L 104.741278 201.115392 
L 105.19828 198.229225 
L 105.655283 196.76055 
L 106.112285 199.559928 
L 106.569287 199.393273 
L 107.02629 198.078756 
L 107.483292 198.346498 
L 107.940295 197.449826 
L 108.397297 197.916181 
L 108.8543 197.962466 
L 110.225307 197.523818 
L 112.510319 197.085171 
L 115.252334 196.806507 
L 117.080344 196.838693 
L 120.736364 196.613542 
L 121.193366 196.698699 
L 121.650369 197.124981 
L 122.107371 196.642826 
L 122.564373 196.331222 
L 123.021376 196.319292 
L 123.478378 193.939273 
L 123.935381 188.370527 
L 124.392383 179.698943 
L 124.849386 175.033816 
L 125.306388 180.069772 
L 125.763391 175.421793 
L 126.220393 176.530671 
L 126.677396 181.39243 
L 127.134398 187.649622 
L 127.5914 188.461107 
L 128.048403 173.201073 
L 128.505405 167.05249 
L 128.962408 178.142331 
L 129.41941 170.216709 
L 129.876413 175.991175 
L 130.333415 170.257341 
L 130.790418 171.657126 
L 131.24742 174.283997 
L 132.161425 175.614477 
L 134.446437 177.096444 
L 137.188452 178.610453 
L 140.387469 180.09331 
L 143.586486 181.340258 
L 148.156511 182.805084 
L 153.183538 184.137134 
L 155.011548 184.617961 
L 155.46855 185.829337 
L 155.925553 184.430146 
L 156.382555 185.454051 
L 156.839558 183.286359 
L 157.29656 179.689647 
L 157.753563 174.97785 
L 158.210565 174.996925 
L 158.667568 175.665333 
L 159.12457 182.836544 
L 159.581572 181.535794 
L 160.038575 182.885969 
L 160.95258 178.402092 
L 161.409582 174.838634 
L 161.866585 173.89586 
L 162.323587 168.399354 
L 162.78059 169.701232 
L 163.694595 155.504394 
L 164.151597 156.79883 
L 164.6086 150.100694 
L 165.065602 155.928328 
L 165.522604 159.321531 
L 165.979607 167.067317 
L 166.436609 171.048343 
L 166.893612 168.233022 
L 167.350614 168.162278 
L 167.807617 165.309278 
L 168.264619 169.539508 
L 168.721622 170.036055 
L 169.178624 172.000517 
L 169.635627 166.221823 
L 170.092629 165.757247 
L 170.549631 168.453341 
L 171.006634 172.620045 
L 171.463636 167.202804 
L 171.920639 166.736554 
L 172.377641 170.668045 
L 172.834644 171.770362 
L 173.291646 164.551492 
L 173.748649 160.469959 
L 174.205651 166.586622 
L 174.662654 180.186928 
L 175.119656 184.163736 
L 175.576658 184.16881 
L 176.033661 181.954526 
L 176.490663 181.365966 
L 176.947666 173.394442 
L 177.404668 172.191713 
L 177.861671 170.356471 
L 178.318673 183.498061 
L 178.775676 185.978043 
L 179.689681 195.131504 
L 180.146683 201.189283 
L 180.603686 198.125383 
L 181.060688 203.827022 
L 181.51769 204.535277 
L 181.974693 204.069943 
L 182.431695 204.658062 
L 182.888698 203.164711 
L 183.3457 207.335358 
L 183.802703 205.575209 
L 184.259705 202.008075 
L 184.716708 205.331334 
L 185.17371 210.107562 
L 185.630713 205.81217 
L 186.544717 211.112998 
L 187.00172 210.756324 
L 187.458722 210.107735 
L 187.915725 207.798673 
L 188.82973 217.752626 
L 189.286732 219.955617 
L 189.743735 219.861036 
L 190.200737 216.240123 
L 190.65774 219.083464 
L 191.114742 218.445124 
L 191.571744 221.593681 
L 192.028747 221.143197 
L 192.485749 220.487198 
L 193.399754 225.807039 
L 193.856757 226.555768 
L 194.313759 229.644442 
L 194.770762 228.557371 
L 195.227764 225.500696 
L 195.684767 223.205185 
L 196.141769 222.593308 
L 196.598771 228.665912 
L 197.055774 227.938162 
L 197.512776 231.490761 
L 197.969779 230.671591 
L 198.426781 230.691061 
L 198.883784 228.978681 
L 199.340786 229.282822 
L 199.797789 230.263754 
L 200.254791 230.21644 
L 200.711794 234.925892 
L 201.625799 234.220008 
L 202.082801 236.482744 
L 202.539803 236.751326 
L 202.996806 238.115371 
L 203.453808 238.233321 
L 203.910811 237.990105 
L 204.367813 238.965201 
L 205.738821 238.855357 
L 206.195823 238.960857 
L 206.652826 238.740459 
L 207.56683 237.885389 
L 208.480835 237.617587 
L 212.593857 235.928596 
L 213.05086 235.528746 
L 213.507862 234.874451 
L 213.964865 234.678026 
L 214.421867 234.176285 
L 214.87887 232.802608 
L 215.335872 232.71187 
L 215.792875 231.747415 
L 216.249877 232.341222 
L 217.163882 227.303796 
L 217.620885 226.93444 
L 218.077887 224.862947 
L 218.991892 222.158026 
L 219.448894 227.580916 
L 219.905897 229.716722 
L 221.733907 220.455905 
L 222.190909 218.82556 
L 222.647912 222.187371 
L 223.104914 228.886503 
L 223.561916 230.534181 
L 224.018919 234.537259 
L 224.475921 236.359587 
L 224.932924 235.490752 
L 225.389926 235.913789 
L 225.846929 234.075193 
L 226.303931 233.811676 
L 226.760934 232.200866 
L 227.217936 229.342886 
L 227.674939 228.532505 
L 228.131941 223.728663 
L 228.588943 230.517517 
L 229.045946 227.233807 
L 229.502948 229.396211 
L 229.959951 229.875314 
L 231.330958 247.813876 
L 231.787961 244.136538 
L 232.244963 243.03733 
L 232.701966 243.138865 
L 233.158968 245.594643 
L 233.615971 252.945107 
L 234.072973 255.036315 
L 234.529975 261.998068 
L 234.986978 263.420241 
L 235.44398 261.543515 
L 236.357985 264.520219 
L 236.814988 261.107111 
L 237.27199 261.07251 
L 237.728993 257.734566 
L 238.185995 255.861952 
L 238.642998 252.826019 
L 239.1 251.372387 
L 239.557002 253.067868 
L 240.014005 252.051222 
L 240.471007 253.378243 
L 240.92801 257.525267 
L 241.385012 259.518289 
L 241.842015 263.228003 
L 242.299017 262.133213 
L 242.75602 260.711323 
L 243.213022 260.397888 
L 243.670025 261.256001 
L 244.127027 261.605971 
L 244.584029 259.382134 
L 245.041032 258.14797 
L 245.498034 259.519001 
L 245.955037 259.6812 
L 246.412039 262.310508 
L 246.869042 260.630781 
L 247.326044 258.478302 
L 247.783047 258.907512 
L 248.240049 256.468776 
L 248.697052 257.463689 
L 249.154054 257.571638 
L 249.611057 257.400366 
L 250.068059 254.196227 
L 250.525061 255.794089 
L 250.982064 254.652078 
L 251.439066 255.589541 
L 251.896069 249.534272 
L 252.353071 251.693508 
L 252.810074 250.763329 
L 253.267076 252.151279 
L 253.724079 250.909128 
L 254.181081 246.938594 
L 254.638084 251.0779 
L 255.095086 247.126255 
L 255.552088 253.071162 
L 256.009091 249.803582 
L 256.466093 254.173261 
L 256.923096 249.683858 
L 257.380098 260.309019 
L 257.837101 262.607234 
L 258.294103 260.856582 
L 258.751106 257.641575 
L 259.208108 259.563511 
L 259.665111 253.421067 
L 260.122113 248.993655 
L 260.579115 249.355964 
L 261.036118 250.937045 
L 261.49312 245.594043 
L 261.950123 242.461015 
L 262.407125 243.10728 
L 262.864128 240.715858 
L 263.32113 239.424133 
L 263.778133 238.510633 
L 264.235135 239.64221 
L 264.692138 242.461554 
L 265.14914 243.369493 
L 265.606143 250.80867 
L 266.063145 251.000748 
L 266.520147 258.443209 
L 266.97715 261.053212 
L 267.434152 262.374947 
L 267.891155 261.915102 
L 268.348157 259.595671 
L 268.80516 250.286334 
L 269.262162 245.776685 
L 269.719165 250.837141 
L 270.176167 250.204371 
L 270.63317 252.715906 
L 271.090172 239.971161 
L 271.547174 234.724272 
L 272.004177 234.795381 
L 272.461179 232.696438 
L 273.375184 250.683938 
L 273.832187 247.142698 
L 274.289189 254.112345 
L 274.746192 249.052265 
L 275.203194 256.238779 
L 275.660197 253.026029 
L 276.117199 251.234501 
L 276.574201 251.53707 
L 277.031204 242.949116 
L 277.945209 231.213745 
L 278.402211 240.474763 
L 278.859214 230.369962 
L 279.316216 236.863732 
L 279.773219 238.75138 
L 280.230221 242.278628 
L 281.144226 238.680616 
L 281.601229 235.261397 
L 282.058231 235.123307 
L 282.972236 218.000958 
L 283.429238 221.427019 
L 283.886241 220.585571 
L 284.343243 207.962621 
L 284.800246 199.758724 
L 285.257248 195.858413 
L 285.714251 199.246327 
L 286.171253 200.106901 
L 286.628256 191.850385 
L 287.085258 187.318228 
L 287.54226 194.854272 
L 287.999263 182.746586 
L 288.456265 179.40114 
L 289.37027 185.631303 
L 289.827273 182.719869 
L 290.284275 177.562724 
L 292.112285 138.218608 
L 292.569287 139.570437 
L 293.02629 138.401825 
L 293.483292 139.920538 
L 293.940295 142.532849 
L 294.397297 134.205369 
L 294.8543 119.220895 
L 295.311302 119.174404 
L 295.768305 123.542623 
L 296.225307 131.40342 
L 296.68231 134.745877 
L 297.139312 126.667543 
L 297.596314 127.80388 
L 298.053317 128.235239 
L 298.510319 123.485926 
L 298.967322 132.582149 
L 299.424324 131.982974 
L 299.881327 129.503118 
L 300.338329 125.583478 
L 301.252334 141.68183 
L 301.709337 141.2415 
L 302.166339 140.333691 
L 302.623342 146.391659 
L 303.080344 149.75588 
L 303.537346 150.988085 
L 303.994349 155.747011 
L 304.451351 147.729342 
L 304.908354 153.530215 
L 305.365356 149.962373 
L 305.822359 157.923081 
L 306.279361 148.526059 
L 306.736364 156.420995 
L 307.193366 142.29126 
L 307.650369 151.895571 
L 308.107371 139.196204 
L 308.564373 145.132586 
L 309.021376 140.511988 
L 309.478378 146.662013 
L 309.935381 136.675486 
L 310.392383 136.556809 
L 310.849386 132.426343 
L 311.306388 136.623603 
L 312.220393 146.735731 
L 312.677396 142.172763 
L 313.134398 143.550195 
L 313.5914 143.056545 
L 314.048403 140.740121 
L 314.505405 145.619307 
L 314.962408 158.565602 
L 315.41941 155.328189 
L 315.876413 155.725204 
L 316.333415 150.996511 
L 316.790418 149.54712 
L 317.24742 141.946596 
L 317.704423 148.387655 
L 318.161425 157.296403 
L 318.618428 152.627122 
L 319.07543 165.134848 
L 319.532432 166.552523 
L 319.989435 171.930418 
L 320.446437 165.823131 
L 320.90344 155.562378 
L 321.360442 151.945578 
L 321.817445 154.682134 
L 322.73145 163.459372 
L 323.188452 165.549411 
L 323.645455 149.404327 
L 324.102457 146.704641 
L 324.559459 134.429671 
L 325.016462 129.094701 
L 325.473464 128.265308 
L 325.930467 131.869522 
L 326.844472 142.998 
L 327.301474 136.143119 
L 327.758477 133.228124 
L 328.215479 127.272211 
L 328.672482 129.937982 
L 329.129484 118.417201 
L 329.586486 111.191235 
L 330.043489 110.549432 
L 330.500491 89.058666 
L 330.957494 100.594097 
L 331.414496 100.17991 
L 332.328501 123.065825 
L 332.785504 123.705961 
L 333.242506 126.530569 
L 333.699509 128.629929 
L 334.156511 119.50317 
L 334.613514 116.049886 
L 335.070516 114.581758 
L 335.527518 116.619475 
L 336.898526 98.226466 
L 337.355528 110.700698 
L 337.812531 109.481555 
L 338.269533 107.085195 
L 338.726536 112.09683 
L 339.183538 110.706711 
L 339.640541 101.219469 
L 340.097543 95.973522 
L 340.554545 93.314139 
L 341.011548 88.020905 
L 341.46855 92.504347 
L 341.925553 93.052832 
L 342.382555 95.295704 
L 342.839558 87.031036 
L 343.29656 101.235921 
L 343.753563 108.225718 
L 344.210565 107.217998 
L 344.667568 112.684847 
L 345.12457 127.20784 
L 345.581572 133.556039 
L 346.038575 136.216349 
L 346.495577 144.863952 
L 346.95258 142.20462 
L 347.409582 148.82734 
L 347.866585 145.021576 
L 348.323587 149.914639 
L 348.78059 146.103688 
L 349.237592 133.237097 
L 349.694595 139.461802 
L 350.151597 136.600211 
L 350.6086 143.067582 
L 351.522604 148.380704 
L 351.979607 140.243182 
L 352.893612 156.806083 
L 353.350614 147.444137 
L 353.807617 153.02603 
L 354.721622 150.900226 
L 355.178624 150.969886 
L 355.635627 150.112763 
L 356.092629 152.211509 
L 356.549631 148.034062 
L 357.006634 154.030205 
L 357.463636 171.265737 
L 357.920639 168.56089 
L 358.377641 161.273478 
L 358.834644 150.732635 
L 359.291646 155.034501 
L 359.748649 151.664171 
L 360.205651 149.899397 
L 360.662654 151.359568 
L 361.119656 147.838623 
L 361.576658 153.097918 
L 362.033661 155.080446 
L 362.490663 154.115454 
L 362.947666 150.614771 
L 363.404668 155.505706 
L 363.861671 155.780061 
L 364.318673 147.917389 
L 364.775676 148.928104 
L 365.232678 145.416592 
L 365.689681 147.301131 
L 366.146683 145.251473 
L 366.603686 146.999967 
L 367.51769 160.210391 
L 367.974693 177.833983 
L 368.431695 159.653069 
L 368.888698 153.515061 
L 369.3457 159.604525 
L 369.802703 160.662764 
L 370.259705 151.590019 
L 370.716708 153.869007 
L 371.17371 160.901011 
L 371.630713 171.244762 
L 372.087715 167.941253 
L 372.544717 178.742002 
L 373.00172 179.711305 
L 373.458722 179.961232 
L 373.915725 177.723126 
L 374.372727 163.033625 
L 374.82973 158.764943 
L 375.286732 157.614596 
L 375.743735 159.923225 
L 376.200737 156.714855 
L 376.65774 151.779265 
L 377.114742 151.171465 
L 377.571744 161.850902 
L 378.028747 165.674269 
L 378.485749 163.352062 
L 378.942752 153.643933 
L 379.399754 150.823142 
L 379.856757 168.378546 
L 380.313759 166.145514 
L 380.770762 155.050713 
L 381.684767 173.491359 
L 382.141769 176.629843 
L 382.598771 181.595763 
L 383.055774 195.294034 
L 383.512776 189.775363 
L 383.969779 199.677819 
L 384.426781 205.219428 
L 385.340786 237.924979 
L 385.797789 241.604382 
L 386.254791 256.877018 
L 386.711794 250.854799 
L 387.168796 254.87307 
L 387.625799 260.785047 
L 388.082801 259.074555 
L 388.996806 268.604681 
L 389.453808 279.561674 
L 389.910811 296.829649 
L 390.367813 307.8 
L 390.824816 302.448164 
L 391.281818 300.614417 
L 391.738821 290.418535 
L 392.195823 285.459725 
L 392.652826 277.670814 
L 393.109828 281.273992 
L 393.56683 289.983732 
L 394.023833 295.474416 
L 394.480835 296.182623 
L 394.937838 297.295412 
L 395.39484 301.284446 
L 395.851843 303.08799 
L 396.308845 300.75319 
L 396.765848 294.993363 
L 397.22285 296.588042 
L 397.679853 283.679679 
L 398.136855 286.77377 
L 398.593857 297.679537 
L 399.05086 286.797768 
L 399.507862 287.145404 
L 399.964865 300.474542 
L 400.421867 295.659187 
L 400.87887 297.392941 
L 401.335872 304.642878 
L 401.792875 287.716689 
L 402.249877 294.541212 
L 402.70688 280.205365 
L 403.163882 271.408919 
L 403.620885 269.003342 
L 404.077887 254.58465 
L 405.448894 231.749617 
L 405.905897 225.256163 
L 406.362899 232.347123 
L 406.819902 215.247823 
L 407.276904 218.14576 
L 408.647912 251.250374 
L 409.104914 256.052966 
L 409.561916 239.32885 
L 410.018919 238.426391 
L 410.475921 234.818992 
L 411.389926 215.334817 
L 411.846929 201.467585 
L 412.303931 209.710251 
L 412.760934 205.989352 
L 413.217936 197.805009 
L 413.674939 184.965326 
L 414.131941 191.426414 
L 414.588943 188.067604 
L 415.045946 170.507199 
L 415.502948 166.944585 
L 415.959951 168.926851 
L 416.416953 171.865383 
L 416.873956 173.449195 
L 417.330958 176.335689 
L 418.244963 209.091727 
L 418.701966 204.585278 
L 419.158968 214.051738 
L 419.615971 211.542019 
L 420.072973 218.683228 
L 420.529975 217.771581 
L 420.986978 227.996311 
L 421.44398 213.730698 
L 421.900983 203.242172 
L 422.357985 201.633407 
L 422.814988 216.25308 
L 423.27199 218.919257 
L 424.185995 212.332583 
L 424.642998 219.994997 
L 425.1 208.750497 
L 425.557002 209.816713 
L 426.471007 225.258077 
L 426.92801 232.950941 
L 427.385012 244.934784 
L 427.842015 245.263394 
L 428.299017 249.671274 
L 428.75602 239.820102 
L 429.213022 236.67274 
L 429.670025 226.135352 
L 430.127027 218.758314 
L 431.041032 231.133032 
L 431.498034 251.588527 
L 431.955037 254.305992 
L 432.412039 253.000564 
L 432.869042 262.438181 
L 433.326044 256.639441 
L 433.783047 264.082199 
L 434.240049 251.038859 
L 434.697052 248.571689 
L 435.154054 241.322824 
L 436.068059 257.863333 
L 436.525061 256.193925 
L 436.982064 257.390397 
L 437.439066 261.153856 
L 437.896069 270.027154 
L 438.353071 261.441565 
L 439.267076 273.860039 
L 439.724079 273.773887 
L 440.181081 265.311429 
L 440.638084 263.894038 
L 441.095086 261.325624 
L 442.009091 257.311923 
L 442.466093 263.695773 
L 442.923096 256.24313 
L 443.380098 262.572797 
L 443.837101 256.040334 
L 444.294103 244.894491 
L 444.751106 221.188319 
L 445.208108 209.7902 
L 445.665111 205.424641 
L 446.122113 190.835055 
L 446.579115 194.057221 
L 447.036118 185.487422 
L 447.49312 181.049531 
L 448.407125 167.319315 
L 448.864128 166.283977 
L 449.32113 144.388424 
L 450.235135 118.487478 
L 450.692138 117.126922 
L 451.14914 110.270585 
L 451.606143 105.218999 
L 452.063145 109.029207 
L 452.520147 106.82282 
L 452.97715 100.552155 
L 453.891155 81.724059 
L 454.348157 80.287707 
L 454.80516 85.580894 
L 455.262162 83.359155 
L 455.719165 82.264728 
L 456.176167 88.052424 
L 457.090172 79.09462 
L 457.547174 78.91049 
L 458.004177 82.210567 
L 458.461179 75.903734 
L 458.918182 80.776698 
L 459.375184 61.238884 
L 459.832187 61.840723 
L 460.289189 55.8 
L 460.746192 61.490346 
L 461.203194 60.401255 
L 461.660197 60.904519 
L 462.117199 73.553425 
L 462.574201 79.747296 
L 463.031204 79.469318 
L 463.488206 73.617595 
L 463.945209 75.357008 
L 464.402211 90.275644 
L 464.859214 83.35315 
L 465.316216 80.652342 
L 466.230221 93.731033 
L 466.687224 91.55886 
L 467.144226 91.78972 
L 467.601229 105.521573 
L 468.515233 101.604623 
L 468.972236 105.155198 
L 469.429238 105.610296 
L 469.886241 103.64334 
L 470.343243 103.633886 
L 470.800246 98.364807 
L 471.257248 109.616436 
L 471.714251 115.556073 
L 472.171253 112.473223 
L 472.628256 97.806602 
L 473.085258 98.03534 
L 473.999263 112.262977 
L 474.456265 118.635855 
L 474.913268 119.31824 
L 475.37027 106.604268 
L 475.827273 114.151053 
L 476.284275 113.109343 
L 476.741278 109.644435 
L 477.19828 124.067246 
L 477.655283 124.347138 
L 478.112285 127.864183 
L 478.569287 120.096415 
L 479.02629 107.299876 
L 479.483292 110.4582 
L 479.940295 104.125285 
L 480.397297 93.362311 
L 480.8543 85.485789 
L 481.768305 57.155666 
L 482.225307 66.860755 
L 482.68231 58.708093 
L 483.139312 57.273632 
L 483.596314 75.668206 
L 484.053317 81.309398 
L 484.510319 83.631181 
L 484.967322 80.022875 
L 485.424324 77.877213 
L 485.881327 84.170001 
L 486.338329 84.656204 
L 486.795332 84.501746 
L 487.252334 83.619932 
L 487.709337 89.424264 
L 488.623342 76.119425 
L 489.080344 76.853508 
L 489.537346 79.399587 
L 489.994349 83.077757 
L 490.451351 81.917119 
L 490.908354 79.955304 
L 491.365356 88.99316 
L 491.822359 95.061873 
L 492.279361 91.050526 
L 492.736364 81.384982 
L 493.193366 93.801083 
L 493.650369 84.677707 
L 494.107371 81.423783 
L 494.564373 73.044567 
L 495.021376 77.148481 
L 495.478378 75.558689 
L 495.935381 84.019228 
L 496.392383 83.955411 
L 496.849386 85.550859 
L 497.306388 90.653826 
L 497.763391 86.961528 
L 498.220393 92.437711 
L 498.677396 82.324443 
L 499.134398 76.46541 
L 499.5914 76.596716 
L 500.048403 81.049351 
L 500.505405 83.403829 
L 500.962408 75.51092 
L 501.41941 75.226832 
L 501.876413 80.709277 
L 502.333415 80.661809 
L 502.790418 77.654887 
L 503.24742 81.601926 
L 503.704423 102.871348 
L 504.161425 99.104442 
L 504.618428 100.097489 
L 505.07543 89.48046 
L 505.532432 93.909533 
L 505.989435 90.677216 
L 506.446437 85.765217 
L 506.90344 98.086501 
L 507.360442 100.663962 
L 507.817445 118.096474 
L 508.274447 121.782927 
L 509.188452 93.278407 
L 509.645455 90.764366 
L 510.102457 90.456758 
L 510.559459 96.592102 
L 511.016462 93.415804 
L 511.473464 101.429635 
L 511.930467 100.531794 
L 512.387469 99.250507 
L 512.844472 102.610791 
L 513.301474 110.368172 
L 513.758477 107.688203 
L 514.215479 113.064768 
L 514.672482 106.296651 
L 515.129484 102.059149 
L 515.586486 116.082736 
L 516.043489 113.923825 
L 516.500491 118.291971 
L 516.957494 127.478579 
L 517.414496 131.22739 
L 517.871499 129.764411 
L 518.328501 135.049703 
L 518.785504 147.869167 
L 519.242506 146.192715 
L 519.699509 143.220789 
L 520.156511 147.363743 
L 520.613514 155.406193 
L 521.527518 161.933156 
L 521.984521 171.456371 
L 522.898526 181.402311 
L 523.355528 172.917704 
L 524.269533 168.894177 
L 524.726536 165.678925 
L 525.183538 177.250339 
L 525.640541 184.07573 
L 526.097543 183.334195 
L 526.554545 186.54848 
L 527.011548 188.854341 
L 527.925553 168.426724 
L 528.382555 174.217434 
L 528.839558 176.041824 
L 529.29656 184.816527 
L 529.753563 190.984349 
L 530.210565 185.476404 
L 530.667568 186.413583 
L 531.12457 184.778233 
L 531.581572 189.996393 
L 532.038575 193.217804 
L 532.495577 204.436748 
L 532.95258 208.782178 
L 533.409582 203.346104 
L 533.866585 207.432528 
L 534.323587 210.014927 
L 534.78059 214.064169 
L 535.237592 215.254885 
L 535.694595 219.869182 
L 536.151597 220.722026 
L 537.065602 245.677931 
L 537.522604 245.807585 
L 537.979607 240.086634 
L 538.436609 232.443293 
L 538.893612 232.553411 
L 539.350614 239.99249 
L 539.807617 241.058603 
L 540.264619 235.735731 
L 540.721622 234.215266 
L 541.178624 239.290909 
L 541.635627 250.735005 
L 542.092629 255.592592 
L 542.549631 243.569537 
L 543.006634 235.733297 
L 543.463636 236.50575 
L 543.920639 229.879502 
L 544.377641 233.990251 
L 544.834644 231.12661 
L 545.291646 226.778982 
L 545.748649 227.926918 
L 546.205651 233.173947 
L 547.576658 221.718009 
L 548.033661 214.746047 
L 548.490663 204.612362 
L 548.947666 191.010787 
L 549.404668 194.880895 
L 549.861671 187.593478 
L 550.318673 194.628492 
L 550.775676 199.366845 
L 551.232678 190.922373 
L 551.689681 188.869095 
L 552.146683 189.836564 
L 553.060688 193.475604 
L 553.51769 200.920333 
L 553.974693 197.060574 
L 554.431695 205.985962 
L 554.888698 207.809592 
L 555.3457 205.702952 
L 555.802703 206.746924 
L 556.259705 203.908659 
L 556.716708 199.476357 
L 557.17371 199.236698 
L 557.630713 206.982109 
L 558.087715 206.155468 
L 558.544717 201.40209 
L 559.00172 202.338704 
L 559.458722 208.770715 
L 559.915725 210.806581 
L 560.372727 203.564974 
L 560.372727 203.564974 
" clip-path="url(#p0f681aee6a)" style="fill: none; stroke: #800080; stroke-width: 1.5; stroke-linecap: square"/>
   </g>
   <g id="patch_3">
    <path d="M 81 320.4 
L 81 43.2 
" style="fill: none; stroke: #000000; stroke-width: 0.8; stroke-linejoin: miter; stroke-linecap: square"/>
   </g>
   <g id="patch_4">
    <path d="M 583.2 320.4 
L 583.2 43.2 
" style="fill: none; stroke: #000000; stroke-width: 0.8; stroke-linejoin: miter; stroke-linecap: square"/>
   </g>
   <g id="patch_5">
    <path d="M 81 320.4 
L 583.2 320.4 
" style="fill: none; stroke: #000000; stroke-width: 0.8; stroke-linejoin: miter; stroke-linecap: square"/>
   </g>
   <g id="patch_6">
    <path d="M 81 43.2 
L 583.2 43.2 
" style="fill: none; stroke: #000000; stroke-width: 0.8; stroke-linejoin: miter; stroke-linecap: square"/>
   </g>
   <g id="text_14">
    <!-- Average Reward Over Time -->
    <g transform="translate(250.281563 37.2) scale(0.12 -0.12)">
     <defs>
      <path id="DejaVuSans-4f" d="M 2522 4238 
Q 1834 4238 1429 3725 
Q 1025 3213 1025 2328 
Q 1025 1447 1429 934 
Q 1834 422 2522 422 
Q 3209 422 3611 934 
Q 4013 1447 4013 2328 
Q 4013 3213 3611 3725 
Q 3209 4238 2522 4238 
z
M 2522 4750 
Q 3503 4750 4090 4092 
Q 4678 3434 4678 2328 
Q 4678 1225 4090 567 
Q 3503 -91 2522 -91 
Q 1538 -91 948 565 
Q 359 1222 359 2328 
Q 359 3434 948 4092 
Q 1538 4750 2522 4750 
z
" transform="scale(0.015625)"/>
     </defs>
     <use xlink:href="#DejaVuSans-41"/>
     <use xlink:href="#DejaVuSans-76" transform="translate(62.533203 0)"/>
     <use xlink:href="#DejaVuSans-65" transform="translate(121.712891 0)"/>
     <use xlink:href="#DejaVuSans-72" transform="translate(183.236328 0)"/>
     <use xlink:href="#DejaVuSans-61" transform="translate(224.349609 0)"/>
     <use xlink:href="#DejaVuSans-67" transform="translate(285.628906 0)"/>
     <use xlink:href="#DejaVuSans-65" transform="translate(349.105469 0)"/>
     <use xlink:href="#DejaVuSans-20" transform="translate(410.628906 0)"/>
     <use xlink:href="#DejaVuSans-52" transform="translate(442.416016 0)"/>
     <use xlink:href="#DejaVuSans-65" transform="translate(507.398438 0)"/>
     <use xlink:href="#DejaVuSans-77" transform="translate(568.921875 0)"/>
     <use xlink:href="#DejaVuSans-61" transform="translate(650.708984 0)"/>
     <use xlink:href="#DejaVuSans-72" transform="translate(711.988281 0)"/>
     <use xlink:href="#DejaVuSans-64" transform="translate(751.351562 0)"/>
     <use xlink:href="#DejaVuSans-20" transform="translate(814.828125 0)"/>
     <use xlink:href="#DejaVuSans-4f" transform="translate(846.615234 0)"/>
     <use xlink:href="#DejaVuSans-76" transform="translate(925.326172 0)"/>
     <use xlink:href="#DejaVuSans-65" transform="translate(984.505859 0)"/>
     <use xlink:href="#DejaVuSans-72" transform="translate(1046.029297 0)"/>
     <use xlink:href="#DejaVuSans-20" transform="translate(1087.142578 0)"/>
     <use xlink:href="#DejaVuSans-54" transform="translate(1118.929688 0)"/>
     <use xlink:href="#DejaVuSans-69" transform="translate(1176.888672 0)"/>
     <use xlink:href="#DejaVuSans-6d" transform="translate(1204.671875 0)"/>
     <use xlink:href="#DejaVuSans-65" transform="translate(1302.083984 0)"/>
    </g>
   </g>
   <g id="legend_1">
    <g id="patch_7">
     <path d="M 88 65.878125 
L 201.485938 65.878125 
Q 203.485938 65.878125 203.485938 63.878125 
L 203.485938 50.2 
Q 203.485938 48.2 201.485938 48.2 
L 88 48.2 
Q 86 48.2 86 50.2 
L 86 63.878125 
Q 86 65.878125 88 65.878125 
z
" style="fill: #ffffff; opacity: 0.8; stroke: #cccccc; stroke-linejoin: miter"/>
    </g>
    <g id="line2d_24">
     <path d="M 90 56.298437 
L 100 56.298437 
L 110 56.298437 
" style="fill: none; stroke: #800080; stroke-width: 1.5; stroke-linecap: square"/>
    </g>
    <g id="text_15">
     <!-- Average Reward -->
     <g transform="translate(118 59.798437) scale(0.1 -0.1)">
      <use xlink:href="#DejaVuSans-41"/>
      <use xlink:href="#DejaVuSans-76" transform="translate(62.533203 0)"/>
      <use xlink:href="#DejaVuSans-65" transform="translate(121.712891 0)"/>
      <use xlink:href="#DejaVuSans-72" transform="translate(183.236328 0)"/>
      <use xlink:href="#DejaVuSans-61" transform="translate(224.349609 0)"/>
      <use xlink:href="#DejaVuSans-67" transform="translate(285.628906 0)"/>
      <use xlink:href="#DejaVuSans-65" transform="translate(349.105469 0)"/>
      <use xlink:href="#DejaVuSans-20" transform="translate(410.628906 0)"/>
      <use xlink:href="#DejaVuSans-52" transform="translate(442.416016 0)"/>
      <use xlink:href="#DejaVuSans-65" transform="translate(507.398438 0)"/>
      <use xlink:href="#DejaVuSans-77" transform="translate(568.921875 0)"/>
      <use xlink:href="#DejaVuSans-61" transform="translate(650.708984 0)"/>
      <use xlink:href="#DejaVuSans-72" transform="translate(711.988281 0)"/>
      <use xlink:href="#DejaVuSans-64" transform="translate(751.351562 0)"/>
     </g>
    </g>
   </g>
  </g>
 </g>
 <defs>
  <clipPath id="p0f681aee6a">
   <rect x="81" y="43.2" width="502.2" height="277.2"/>
  </clipPath>
 </defs>
</svg>
