<?xml version="1.0" encoding="utf-8" standalone="no"?>
<!DOCTYPE svg PUBLIC "-//W3C//DTD SVG 1.1//EN"
  "http://www.w3.org/Graphics/SVG/1.1/DTD/svg11.dtd">
<svg xmlns:xlink="http://www.w3.org/1999/xlink" width="648pt" height="360pt" viewBox="0 0 648 360" xmlns="http://www.w3.org/2000/svg" version="1.1">
 <metadata>
  <rdf:RDF xmlns:dc="http://purl.org/dc/elements/1.1/" xmlns:cc="http://creativecommons.org/ns#" xmlns:rdf="http://www.w3.org/1999/02/22-rdf-syntax-ns#">
   <cc:Work>
    <dc:type rdf:resource="http://purl.org/dc/dcmitype/StillImage"/>
    <dc:date>2025-09-23T21:53:57.434936</dc:date>
    <dc:format>image/svg+xml</dc:format>
    <dc:creator>
     <cc:Agent>
      <dc:title>Matplotlib v3.10.6, https://matplotlib.org/</dc:title>
     </cc:Agent>
    </dc:creator>
   </cc:Work>
  </rdf:RDF>
 </metadata>
 <defs>
  <style type="text/css">*{stroke-linejoin: round; stroke-linecap: butt}</style>
 </defs>
 <g id="figure_1">
  <g id="patch_1">
   <path d="M 0 360 
L 648 360 
L 648 0 
L 0 0 
z
" style="fill: #ffffff"/>
  </g>
  <g id="axes_1">
   <g id="patch_2">
    <path d="M 81 320.4 
L 583.2 320.4 
L 583.2 43.2 
L 81 43.2 
z
" style="fill: #ffffff"/>
   </g>
   <g id="matplotlib.axis_1">
    <g id="xtick_1">
     <g id="line2d_1">
      <path d="M 103.37027 320.4 
L 103.37027 43.2 
" clip-path="url(#p14714a9296)" style="fill: none; stroke: #b0b0b0; stroke-width: 0.8; stroke-linecap: square"/>
     </g>
     <g id="line2d_2">
      <defs>
       <path id="mfd6b56ad8a" d="M 0 0 
L 0 3.5 
" style="stroke: #000000; stroke-width: 0.8"/>
      </defs>
      <g>
       <use xlink:href="#mfd6b56ad8a" x="103.37027" y="320.4" style="stroke: #000000; stroke-width: 0.8"/>
      </g>
     </g>
     <g id="text_1">
      <!-- 0 -->
      <g transform="translate(100.18902 334.998438) scale(0.1 -0.1)">
       <defs>
        <path id="DejaVuSans-30" d="M 2034 4250 
Q 1547 4250 1301 3770 
Q 1056 3291 1056 2328 
Q 1056 1369 1301 889 
Q 1547 409 2034 409 
Q 2525 409 2770 889 
Q 3016 1369 3016 2328 
Q 3016 3291 2770 3770 
Q 2525 4250 2034 4250 
z
M 2034 4750 
Q 2819 4750 3233 4129 
Q 3647 3509 3647 2328 
Q 3647 1150 3233 529 
Q 2819 -91 2034 -91 
Q 1250 -91 836 529 
Q 422 1150 422 2328 
Q 422 3509 836 4129 
Q 1250 4750 2034 4750 
z
" transform="scale(0.015625)"/>
       </defs>
       <use xlink:href="#DejaVuSans-30"/>
      </g>
     </g>
    </g>
    <g id="xtick_2">
     <g id="line2d_3">
      <path d="M 194.770762 320.4 
L 194.770762 43.2 
" clip-path="url(#p14714a9296)" style="fill: none; stroke: #b0b0b0; stroke-width: 0.8; stroke-linecap: square"/>
     </g>
     <g id="line2d_4">
      <g>
       <use xlink:href="#mfd6b56ad8a" x="194.770762" y="320.4" style="stroke: #000000; stroke-width: 0.8"/>
      </g>
     </g>
     <g id="text_2">
      <!-- 200 -->
      <g transform="translate(185.227012 334.998438) scale(0.1 -0.1)">
       <defs>
        <path id="DejaVuSans-32" d="M 1228 531 
L 3431 531 
L 3431 0 
L 469 0 
L 469 531 
Q 828 903 1448 1529 
Q 2069 2156 2228 2338 
Q 2531 2678 2651 2914 
Q 2772 3150 2772 3378 
Q 2772 3750 2511 3984 
Q 2250 4219 1831 4219 
Q 1534 4219 1204 4116 
Q 875 4013 500 3803 
L 500 4441 
Q 881 4594 1212 4672 
Q 1544 4750 1819 4750 
Q 2544 4750 2975 4387 
Q 3406 4025 3406 3419 
Q 3406 3131 3298 2873 
Q 3191 2616 2906 2266 
Q 2828 2175 2409 1742 
Q 1991 1309 1228 531 
z
" transform="scale(0.015625)"/>
       </defs>
       <use xlink:href="#DejaVuSans-32"/>
       <use xlink:href="#DejaVuSans-30" transform="translate(63.623047 0)"/>
       <use xlink:href="#DejaVuSans-30" transform="translate(127.246094 0)"/>
      </g>
     </g>
    </g>
    <g id="xtick_3">
     <g id="line2d_5">
      <path d="M 286.171253 320.4 
L 286.171253 43.2 
" clip-path="url(#p14714a9296)" style="fill: none; stroke: #b0b0b0; stroke-width: 0.8; stroke-linecap: square"/>
     </g>
     <g id="line2d_6">
      <g>
       <use xlink:href="#mfd6b56ad8a" x="286.171253" y="320.4" style="stroke: #000000; stroke-width: 0.8"/>
      </g>
     </g>
     <g id="text_3">
      <!-- 400 -->
      <g transform="translate(276.627503 334.998438) scale(0.1 -0.1)">
       <defs>
        <path id="DejaVuSans-34" d="M 2419 4116 
L 825 1625 
L 2419 1625 
L 2419 4116 
z
M 2253 4666 
L 3047 4666 
L 3047 1625 
L 3713 1625 
L 3713 1100 
L 3047 1100 
L 3047 0 
L 2419 0 
L 2419 1100 
L 313 1100 
L 313 1709 
L 2253 4666 
z
" transform="scale(0.015625)"/>
       </defs>
       <use xlink:href="#DejaVuSans-34"/>
       <use xlink:href="#DejaVuSans-30" transform="translate(63.623047 0)"/>
       <use xlink:href="#DejaVuSans-30" transform="translate(127.246094 0)"/>
      </g>
     </g>
    </g>
    <g id="xtick_4">
     <g id="line2d_7">
      <path d="M 377.571744 320.4 
L 377.571744 43.2 
" clip-path="url(#p14714a9296)" style="fill: none; stroke: #b0b0b0; stroke-width: 0.8; stroke-linecap: square"/>
     </g>
     <g id="line2d_8">
      <g>
       <use xlink:href="#mfd6b56ad8a" x="377.571744" y="320.4" style="stroke: #000000; stroke-width: 0.8"/>
      </g>
     </g>
     <g id="text_4">
      <!-- 600 -->
      <g transform="translate(368.027994 334.998438) scale(0.1 -0.1)">
       <defs>
        <path id="DejaVuSans-36" d="M 2113 2584 
Q 1688 2584 1439 2293 
Q 1191 2003 1191 1497 
Q 1191 994 1439 701 
Q 1688 409 2113 409 
Q 2538 409 2786 701 
Q 3034 994 3034 1497 
Q 3034 2003 2786 2293 
Q 2538 2584 2113 2584 
z
M 3366 4563 
L 3366 3988 
Q 3128 4100 2886 4159 
Q 2644 4219 2406 4219 
Q 1781 4219 1451 3797 
Q 1122 3375 1075 2522 
Q 1259 2794 1537 2939 
Q 1816 3084 2150 3084 
Q 2853 3084 3261 2657 
Q 3669 2231 3669 1497 
Q 3669 778 3244 343 
Q 2819 -91 2113 -91 
Q 1303 -91 875 529 
Q 447 1150 447 2328 
Q 447 3434 972 4092 
Q 1497 4750 2381 4750 
Q 2619 4750 2861 4703 
Q 3103 4656 3366 4563 
z
" transform="scale(0.015625)"/>
       </defs>
       <use xlink:href="#DejaVuSans-36"/>
       <use xlink:href="#DejaVuSans-30" transform="translate(63.623047 0)"/>
       <use xlink:href="#DejaVuSans-30" transform="translate(127.246094 0)"/>
      </g>
     </g>
    </g>
    <g id="xtick_5">
     <g id="line2d_9">
      <path d="M 468.972236 320.4 
L 468.972236 43.2 
" clip-path="url(#p14714a9296)" style="fill: none; stroke: #b0b0b0; stroke-width: 0.8; stroke-linecap: square"/>
     </g>
     <g id="line2d_10">
      <g>
       <use xlink:href="#mfd6b56ad8a" x="468.972236" y="320.4" style="stroke: #000000; stroke-width: 0.8"/>
      </g>
     </g>
     <g id="text_5">
      <!-- 800 -->
      <g transform="translate(459.428486 334.998438) scale(0.1 -0.1)">
       <defs>
        <path id="DejaVuSans-38" d="M 2034 2216 
Q 1584 2216 1326 1975 
Q 1069 1734 1069 1313 
Q 1069 891 1326 650 
Q 1584 409 2034 409 
Q 2484 409 2743 651 
Q 3003 894 3003 1313 
Q 3003 1734 2745 1975 
Q 2488 2216 2034 2216 
z
M 1403 2484 
Q 997 2584 770 2862 
Q 544 3141 544 3541 
Q 544 4100 942 4425 
Q 1341 4750 2034 4750 
Q 2731 4750 3128 4425 
Q 3525 4100 3525 3541 
Q 3525 3141 3298 2862 
Q 3072 2584 2669 2484 
Q 3125 2378 3379 2068 
Q 3634 1759 3634 1313 
Q 3634 634 3220 271 
Q 2806 -91 2034 -91 
Q 1263 -91 848 271 
Q 434 634 434 1313 
Q 434 1759 690 2068 
Q 947 2378 1403 2484 
z
M 1172 3481 
Q 1172 3119 1398 2916 
Q 1625 2713 2034 2713 
Q 2441 2713 2670 2916 
Q 2900 3119 2900 3481 
Q 2900 3844 2670 4047 
Q 2441 4250 2034 4250 
Q 1625 4250 1398 4047 
Q 1172 3844 1172 3481 
z
" transform="scale(0.015625)"/>
       </defs>
       <use xlink:href="#DejaVuSans-38"/>
       <use xlink:href="#DejaVuSans-30" transform="translate(63.623047 0)"/>
       <use xlink:href="#DejaVuSans-30" transform="translate(127.246094 0)"/>
      </g>
     </g>
    </g>
    <g id="xtick_6">
     <g id="line2d_11">
      <path d="M 560.372727 320.4 
L 560.372727 43.2 
" clip-path="url(#p14714a9296)" style="fill: none; stroke: #b0b0b0; stroke-width: 0.8; stroke-linecap: square"/>
     </g>
     <g id="line2d_12">
      <g>
       <use xlink:href="#mfd6b56ad8a" x="560.372727" y="320.4" style="stroke: #000000; stroke-width: 0.8"/>
      </g>
     </g>
     <g id="text_6">
      <!-- 1000 -->
      <g transform="translate(547.647727 334.998438) scale(0.1 -0.1)">
       <defs>
        <path id="DejaVuSans-31" d="M 794 531 
L 1825 531 
L 1825 4091 
L 703 3866 
L 703 4441 
L 1819 4666 
L 2450 4666 
L 2450 531 
L 3481 531 
L 3481 0 
L 794 0 
L 794 531 
z
" transform="scale(0.015625)"/>
       </defs>
       <use xlink:href="#DejaVuSans-31"/>
       <use xlink:href="#DejaVuSans-30" transform="translate(63.623047 0)"/>
       <use xlink:href="#DejaVuSans-30" transform="translate(127.246094 0)"/>
       <use xlink:href="#DejaVuSans-30" transform="translate(190.869141 0)"/>
      </g>
     </g>
    </g>
    <g id="text_7">
     <!-- Time -->
     <g transform="translate(319.866406 348.676562) scale(0.1 -0.1)">
      <defs>
       <path id="DejaVuSans-54" d="M -19 4666 
L 3928 4666 
L 3928 4134 
L 2272 4134 
L 2272 0 
L 1638 0 
L 1638 4134 
L -19 4134 
L -19 4666 
z
" transform="scale(0.015625)"/>
       <path id="DejaVuSans-69" d="M 603 3500 
L 1178 3500 
L 1178 0 
L 603 0 
L 603 3500 
z
M 603 4863 
L 1178 4863 
L 1178 4134 
L 603 4134 
L 603 4863 
z
" transform="scale(0.015625)"/>
       <path id="DejaVuSans-6d" d="M 3328 2828 
Q 3544 3216 3844 3400 
Q 4144 3584 4550 3584 
Q 5097 3584 5394 3201 
Q 5691 2819 5691 2113 
L 5691 0 
L 5113 0 
L 5113 2094 
Q 5113 2597 4934 2840 
Q 4756 3084 4391 3084 
Q 3944 3084 3684 2787 
Q 3425 2491 3425 1978 
L 3425 0 
L 2847 0 
L 2847 2094 
Q 2847 2600 2669 2842 
Q 2491 3084 2119 3084 
Q 1678 3084 1418 2786 
Q 1159 2488 1159 1978 
L 1159 0 
L 581 0 
L 581 3500 
L 1159 3500 
L 1159 2956 
Q 1356 3278 1631 3431 
Q 1906 3584 2284 3584 
Q 2666 3584 2933 3390 
Q 3200 3197 3328 2828 
z
" transform="scale(0.015625)"/>
       <path id="DejaVuSans-65" d="M 3597 1894 
L 3597 1613 
L 953 1613 
Q 991 1019 1311 708 
Q 1631 397 2203 397 
Q 2534 397 2845 478 
Q 3156 559 3463 722 
L 3463 178 
Q 3153 47 2828 -22 
Q 2503 -91 2169 -91 
Q 1331 -91 842 396 
Q 353 884 353 1716 
Q 353 2575 817 3079 
Q 1281 3584 2069 3584 
Q 2775 3584 3186 3129 
Q 3597 2675 3597 1894 
z
M 3022 2063 
Q 3016 2534 2758 2815 
Q 2500 3097 2075 3097 
Q 1594 3097 1305 2825 
Q 1016 2553 972 2059 
L 3022 2063 
z
" transform="scale(0.015625)"/>
      </defs>
      <use xlink:href="#DejaVuSans-54"/>
      <use xlink:href="#DejaVuSans-69" transform="translate(57.958984 0)"/>
      <use xlink:href="#DejaVuSans-6d" transform="translate(85.742188 0)"/>
      <use xlink:href="#DejaVuSans-65" transform="translate(183.154297 0)"/>
     </g>
    </g>
   </g>
   <g id="matplotlib.axis_2">
    <g id="ytick_1">
     <g id="line2d_13">
      <path d="M 81 283.373547 
L 583.2 283.373547 
" clip-path="url(#p14714a9296)" style="fill: none; stroke: #b0b0b0; stroke-width: 0.8; stroke-linecap: square"/>
     </g>
     <g id="line2d_14">
      <defs>
       <path id="m2820374cd2" d="M 0 0 
L -3.5 0 
" style="stroke: #000000; stroke-width: 0.8"/>
      </defs>
      <g>
       <use xlink:href="#m2820374cd2" x="81" y="283.373547" style="stroke: #000000; stroke-width: 0.8"/>
      </g>
     </g>
     <g id="text_8">
      <!-- −7.5 -->
      <g transform="translate(49.717187 287.172765) scale(0.1 -0.1)">
       <defs>
        <path id="DejaVuSans-2212" d="M 678 2272 
L 4684 2272 
L 4684 1741 
L 678 1741 
L 678 2272 
z
" transform="scale(0.015625)"/>
        <path id="DejaVuSans-37" d="M 525 4666 
L 3525 4666 
L 3525 4397 
L 1831 0 
L 1172 0 
L 2766 4134 
L 525 4134 
L 525 4666 
z
" transform="scale(0.015625)"/>
        <path id="DejaVuSans-2e" d="M 684 794 
L 1344 794 
L 1344 0 
L 684 0 
L 684 794 
z
" transform="scale(0.015625)"/>
        <path id="DejaVuSans-35" d="M 691 4666 
L 3169 4666 
L 3169 4134 
L 1269 4134 
L 1269 2991 
Q 1406 3038 1543 3061 
Q 1681 3084 1819 3084 
Q 2600 3084 3056 2656 
Q 3513 2228 3513 1497 
Q 3513 744 3044 326 
Q 2575 -91 1722 -91 
Q 1428 -91 1123 -41 
Q 819 9 494 109 
L 494 744 
Q 775 591 1075 516 
Q 1375 441 1709 441 
Q 2250 441 2565 725 
Q 2881 1009 2881 1497 
Q 2881 1984 2565 2268 
Q 2250 2553 1709 2553 
Q 1456 2553 1204 2497 
Q 953 2441 691 2322 
L 691 4666 
z
" transform="scale(0.015625)"/>
       </defs>
       <use xlink:href="#DejaVuSans-2212"/>
       <use xlink:href="#DejaVuSans-37" transform="translate(83.789062 0)"/>
       <use xlink:href="#DejaVuSans-2e" transform="translate(147.412109 0)"/>
       <use xlink:href="#DejaVuSans-35" transform="translate(179.199219 0)"/>
      </g>
     </g>
    </g>
    <g id="ytick_2">
     <g id="line2d_15">
      <path d="M 81 244.892024 
L 583.2 244.892024 
" clip-path="url(#p14714a9296)" style="fill: none; stroke: #b0b0b0; stroke-width: 0.8; stroke-linecap: square"/>
     </g>
     <g id="line2d_16">
      <g>
       <use xlink:href="#m2820374cd2" x="81" y="244.892024" style="stroke: #000000; stroke-width: 0.8"/>
      </g>
     </g>
     <g id="text_9">
      <!-- −5.0 -->
      <g transform="translate(49.717187 248.691243) scale(0.1 -0.1)">
       <use xlink:href="#DejaVuSans-2212"/>
       <use xlink:href="#DejaVuSans-35" transform="translate(83.789062 0)"/>
       <use xlink:href="#DejaVuSans-2e" transform="translate(147.412109 0)"/>
       <use xlink:href="#DejaVuSans-30" transform="translate(179.199219 0)"/>
      </g>
     </g>
    </g>
    <g id="ytick_3">
     <g id="line2d_17">
      <path d="M 81 206.410501 
L 583.2 206.410501 
" clip-path="url(#p14714a9296)" style="fill: none; stroke: #b0b0b0; stroke-width: 0.8; stroke-linecap: square"/>
     </g>
     <g id="line2d_18">
      <g>
       <use xlink:href="#m2820374cd2" x="81" y="206.410501" style="stroke: #000000; stroke-width: 0.8"/>
      </g>
     </g>
     <g id="text_10">
      <!-- −2.5 -->
      <g transform="translate(49.717187 210.20972) scale(0.1 -0.1)">
       <use xlink:href="#DejaVuSans-2212"/>
       <use xlink:href="#DejaVuSans-32" transform="translate(83.789062 0)"/>
       <use xlink:href="#DejaVuSans-2e" transform="translate(147.412109 0)"/>
       <use xlink:href="#DejaVuSans-35" transform="translate(179.199219 0)"/>
      </g>
     </g>
    </g>
    <g id="ytick_4">
     <g id="line2d_19">
      <path d="M 81 167.928978 
L 583.2 167.928978 
" clip-path="url(#p14714a9296)" style="fill: none; stroke: #b0b0b0; stroke-width: 0.8; stroke-linecap: square"/>
     </g>
     <g id="line2d_20">
      <g>
       <use xlink:href="#m2820374cd2" x="81" y="167.928978" style="stroke: #000000; stroke-width: 0.8"/>
      </g>
     </g>
     <g id="text_11">
      <!-- 0.0 -->
      <g transform="translate(58.096875 171.728197) scale(0.1 -0.1)">
       <use xlink:href="#DejaVuSans-30"/>
       <use xlink:href="#DejaVuSans-2e" transform="translate(63.623047 0)"/>
       <use xlink:href="#DejaVuSans-30" transform="translate(95.410156 0)"/>
      </g>
     </g>
    </g>
    <g id="ytick_5">
     <g id="line2d_21">
      <path d="M 81 129.447456 
L 583.2 129.447456 
" clip-path="url(#p14714a9296)" style="fill: none; stroke: #b0b0b0; stroke-width: 0.8; stroke-linecap: square"/>
     </g>
     <g id="line2d_22">
      <g>
       <use xlink:href="#m2820374cd2" x="81" y="129.447456" style="stroke: #000000; stroke-width: 0.8"/>
      </g>
     </g>
     <g id="text_12">
      <!-- 2.5 -->
      <g transform="translate(58.096875 133.246674) scale(0.1 -0.1)">
       <use xlink:href="#DejaVuSans-32"/>
       <use xlink:href="#DejaVuSans-2e" transform="translate(63.623047 0)"/>
       <use xlink:href="#DejaVuSans-35" transform="translate(95.410156 0)"/>
      </g>
     </g>
    </g>
    <g id="ytick_6">
     <g id="line2d_23">
      <path d="M 81 90.965933 
L 583.2 90.965933 
" clip-path="url(#p14714a9296)" style="fill: none; stroke: #b0b0b0; stroke-width: 0.8; stroke-linecap: square"/>
     </g>
     <g id="line2d_24">
      <g>
       <use xlink:href="#m2820374cd2" x="81" y="90.965933" style="stroke: #000000; stroke-width: 0.8"/>
      </g>
     </g>
     <g id="text_13">
      <!-- 5.0 -->
      <g transform="translate(58.096875 94.765152) scale(0.1 -0.1)">
       <use xlink:href="#DejaVuSans-35"/>
       <use xlink:href="#DejaVuSans-2e" transform="translate(63.623047 0)"/>
       <use xlink:href="#DejaVuSans-30" transform="translate(95.410156 0)"/>
      </g>
     </g>
    </g>
    <g id="ytick_7">
     <g id="line2d_25">
      <path d="M 81 52.48441 
L 583.2 52.48441 
" clip-path="url(#p14714a9296)" style="fill: none; stroke: #b0b0b0; stroke-width: 0.8; stroke-linecap: square"/>
     </g>
     <g id="line2d_26">
      <g>
       <use xlink:href="#m2820374cd2" x="81" y="52.48441" style="stroke: #000000; stroke-width: 0.8"/>
      </g>
     </g>
     <g id="text_14">
      <!-- 7.5 -->
      <g transform="translate(58.096875 56.283629) scale(0.1 -0.1)">
       <use xlink:href="#DejaVuSans-37"/>
       <use xlink:href="#DejaVuSans-2e" transform="translate(63.623047 0)"/>
       <use xlink:href="#DejaVuSans-35" transform="translate(95.410156 0)"/>
      </g>
     </g>
    </g>
    <g id="text_15">
     <!-- Average Reward -->
     <g transform="translate(43.6375 222.542969) rotate(-90) scale(0.1 -0.1)">
      <defs>
       <path id="DejaVuSans-41" d="M 2188 4044 
L 1331 1722 
L 3047 1722 
L 2188 4044 
z
M 1831 4666 
L 2547 4666 
L 4325 0 
L 3669 0 
L 3244 1197 
L 1141 1197 
L 716 0 
L 50 0 
L 1831 4666 
z
" transform="scale(0.015625)"/>
       <path id="DejaVuSans-76" d="M 191 3500 
L 800 3500 
L 1894 563 
L 2988 3500 
L 3597 3500 
L 2284 0 
L 1503 0 
L 191 3500 
z
" transform="scale(0.015625)"/>
       <path id="DejaVuSans-72" d="M 2631 2963 
Q 2534 3019 2420 3045 
Q 2306 3072 2169 3072 
Q 1681 3072 1420 2755 
Q 1159 2438 1159 1844 
L 1159 0 
L 581 0 
L 581 3500 
L 1159 3500 
L 1159 2956 
Q 1341 3275 1631 3429 
Q 1922 3584 2338 3584 
Q 2397 3584 2469 3576 
Q 2541 3569 2628 3553 
L 2631 2963 
z
" transform="scale(0.015625)"/>
       <path id="DejaVuSans-61" d="M 2194 1759 
Q 1497 1759 1228 1600 
Q 959 1441 959 1056 
Q 959 750 1161 570 
Q 1363 391 1709 391 
Q 2188 391 2477 730 
Q 2766 1069 2766 1631 
L 2766 1759 
L 2194 1759 
z
M 3341 1997 
L 3341 0 
L 2766 0 
L 2766 531 
Q 2569 213 2275 61 
Q 1981 -91 1556 -91 
Q 1019 -91 701 211 
Q 384 513 384 1019 
Q 384 1609 779 1909 
Q 1175 2209 1959 2209 
L 2766 2209 
L 2766 2266 
Q 2766 2663 2505 2880 
Q 2244 3097 1772 3097 
Q 1472 3097 1187 3025 
Q 903 2953 641 2809 
L 641 3341 
Q 956 3463 1253 3523 
Q 1550 3584 1831 3584 
Q 2591 3584 2966 3190 
Q 3341 2797 3341 1997 
z
" transform="scale(0.015625)"/>
       <path id="DejaVuSans-67" d="M 2906 1791 
Q 2906 2416 2648 2759 
Q 2391 3103 1925 3103 
Q 1463 3103 1205 2759 
Q 947 2416 947 1791 
Q 947 1169 1205 825 
Q 1463 481 1925 481 
Q 2391 481 2648 825 
Q 2906 1169 2906 1791 
z
M 3481 434 
Q 3481 -459 3084 -895 
Q 2688 -1331 1869 -1331 
Q 1566 -1331 1297 -1286 
Q 1028 -1241 775 -1147 
L 775 -588 
Q 1028 -725 1275 -790 
Q 1522 -856 1778 -856 
Q 2344 -856 2625 -561 
Q 2906 -266 2906 331 
L 2906 616 
Q 2728 306 2450 153 
Q 2172 0 1784 0 
Q 1141 0 747 490 
Q 353 981 353 1791 
Q 353 2603 747 3093 
Q 1141 3584 1784 3584 
Q 2172 3584 2450 3431 
Q 2728 3278 2906 2969 
L 2906 3500 
L 3481 3500 
L 3481 434 
z
" transform="scale(0.015625)"/>
       <path id="DejaVuSans-20" transform="scale(0.015625)"/>
       <path id="DejaVuSans-52" d="M 2841 2188 
Q 3044 2119 3236 1894 
Q 3428 1669 3622 1275 
L 4263 0 
L 3584 0 
L 2988 1197 
Q 2756 1666 2539 1819 
Q 2322 1972 1947 1972 
L 1259 1972 
L 1259 0 
L 628 0 
L 628 4666 
L 2053 4666 
Q 2853 4666 3247 4331 
Q 3641 3997 3641 3322 
Q 3641 2881 3436 2590 
Q 3231 2300 2841 2188 
z
M 1259 4147 
L 1259 2491 
L 2053 2491 
Q 2509 2491 2742 2702 
Q 2975 2913 2975 3322 
Q 2975 3731 2742 3939 
Q 2509 4147 2053 4147 
L 1259 4147 
z
" transform="scale(0.015625)"/>
       <path id="DejaVuSans-77" d="M 269 3500 
L 844 3500 
L 1563 769 
L 2278 3500 
L 2956 3500 
L 3675 769 
L 4391 3500 
L 4966 3500 
L 4050 0 
L 3372 0 
L 2619 2869 
L 1863 0 
L 1184 0 
L 269 3500 
z
" transform="scale(0.015625)"/>
       <path id="DejaVuSans-64" d="M 2906 2969 
L 2906 4863 
L 3481 4863 
L 3481 0 
L 2906 0 
L 2906 525 
Q 2725 213 2448 61 
Q 2172 -91 1784 -91 
Q 1150 -91 751 415 
Q 353 922 353 1747 
Q 353 2572 751 3078 
Q 1150 3584 1784 3584 
Q 2172 3584 2448 3432 
Q 2725 3281 2906 2969 
z
M 947 1747 
Q 947 1113 1208 752 
Q 1469 391 1925 391 
Q 2381 391 2643 752 
Q 2906 1113 2906 1747 
Q 2906 2381 2643 2742 
Q 2381 3103 1925 3103 
Q 1469 3103 1208 2742 
Q 947 2381 947 1747 
z
" transform="scale(0.015625)"/>
      </defs>
      <use xlink:href="#DejaVuSans-41"/>
      <use xlink:href="#DejaVuSans-76" transform="translate(62.533203 0)"/>
      <use xlink:href="#DejaVuSans-65" transform="translate(121.712891 0)"/>
      <use xlink:href="#DejaVuSans-72" transform="translate(183.236328 0)"/>
      <use xlink:href="#DejaVuSans-61" transform="translate(224.349609 0)"/>
      <use xlink:href="#DejaVuSans-67" transform="translate(285.628906 0)"/>
      <use xlink:href="#DejaVuSans-65" transform="translate(349.105469 0)"/>
      <use xlink:href="#DejaVuSans-20" transform="translate(410.628906 0)"/>
      <use xlink:href="#DejaVuSans-52" transform="translate(442.416016 0)"/>
      <use xlink:href="#DejaVuSans-65" transform="translate(507.398438 0)"/>
      <use xlink:href="#DejaVuSans-77" transform="translate(568.921875 0)"/>
      <use xlink:href="#DejaVuSans-61" transform="translate(650.708984 0)"/>
      <use xlink:href="#DejaVuSans-72" transform="translate(711.988281 0)"/>
      <use xlink:href="#DejaVuSans-64" transform="translate(751.351562 0)"/>
     </g>
    </g>
    <g id="text_16">
     <!-- 1e−6 -->
     <g transform="translate(81 40.2) scale(0.1 -0.1)">
      <use xlink:href="#DejaVuSans-31"/>
      <use xlink:href="#DejaVuSans-65" transform="translate(63.623047 0)"/>
      <use xlink:href="#DejaVuSans-2212" transform="translate(125.146484 0)"/>
      <use xlink:href="#DejaVuSans-36" transform="translate(208.935547 0)"/>
     </g>
    </g>
   </g>
   <g id="line2d_27">
    <path d="M 103.827273 167.928978 
L 104.284275 219.951848 
L 104.741278 100.8034 
L 105.19828 175.802346 
L 106.112285 171.86856 
L 107.02629 170.883623 
L 107.940295 170.292692 
L 109.311302 169.747248 
L 111.139312 169.319446 
L 112.967322 169.054592 
L 113.424324 170.281872 
L 113.881327 183.988463 
L 114.338329 188.223201 
L 114.795332 182.137161 
L 115.252334 189.7129 
L 115.709337 175.73577 
L 116.166339 170.723761 
L 116.623342 283.659489 
L 117.080344 307.8 
L 117.537346 251.459621 
L 117.994349 250.796434 
L 118.451351 208.704524 
L 118.908354 184.778247 
L 119.365356 190.024181 
L 119.822359 187.249729 
L 120.279361 190.856564 
L 120.736364 187.818259 
L 122.564373 185.924052 
L 124.392383 184.359273 
L 124.849386 184.009692 
L 125.306388 183.88359 
L 125.763391 183.055025 
L 126.677396 186.269404 
L 128.048403 185.23917 
L 128.505405 185.230974 
L 128.962408 187.260218 
L 129.41941 188.256874 
L 129.876413 179.213145 
L 130.333415 185.328492 
L 131.24742 261.56101 
L 131.704423 235.528391 
L 132.161425 271.499311 
L 132.618428 292.917379 
L 133.07543 298.011437 
L 134.446437 289.05232 
L 136.274447 282.323288 
L 138.102457 276.302544 
L 139.930467 271.019838 
L 140.387469 267.840376 
L 141.758477 264.177508 
L 143.586486 259.802573 
L 144.043489 258.88842 
L 144.500491 257.128785 
L 144.957494 256.549502 
L 145.414496 255.586237 
L 145.871499 255.043562 
L 146.328501 253.209274 
L 147.242506 251.480644 
L 148.156511 240.914326 
L 148.613514 242.91735 
L 149.070516 241.778973 
L 149.527518 241.635759 
L 149.984521 241.150661 
L 150.441523 236.175713 
L 150.898526 236.63335 
L 151.355528 227.536234 
L 151.812531 229.106458 
L 152.269533 227.623862 
L 152.726536 223.29941 
L 153.183538 214.207478 
L 153.640541 218.209697 
L 154.097543 215.628088 
L 154.554545 215.053315 
L 155.011548 207.805445 
L 155.46855 198.555952 
L 155.925553 207.838963 
L 156.382555 185.621432 
L 156.839558 177.383848 
L 157.29656 181.436664 
L 157.753563 160.541561 
L 158.210565 177.919558 
L 158.667568 175.762329 
L 159.12457 180.121571 
L 160.038575 179.863801 
L 163.694595 179.140479 
L 164.151597 179.158599 
L 164.6086 181.028394 
L 165.065602 178.757302 
L 165.522604 179.734374 
L 165.979607 179.964418 
L 166.436609 180.360644 
L 167.350614 180.18305 
L 167.807617 180.211976 
L 168.264619 179.459532 
L 168.721622 172.491756 
L 169.178624 171.648984 
L 181.51769 171.061619 
L 184.259705 170.977132 
L 184.716708 170.708105 
L 190.65774 170.530771 
L 191.114742 170.677462 
L 191.571744 171.006487 
L 192.028747 159.025692 
L 192.485749 154.975626 
L 192.942752 133.14656 
L 193.399754 125.195604 
L 193.856757 141.541578 
L 194.313759 135.230968 
L 194.770762 148.329538 
L 195.227764 134.648755 
L 195.684767 129.452933 
L 196.141769 131.310892 
L 196.598771 126.162633 
L 197.055774 124.463476 
L 197.512776 124.678705 
L 197.969779 125.484131 
L 198.426781 124.956784 
L 198.883784 122.310136 
L 199.340786 121.235844 
L 199.797789 125.036808 
L 200.254791 123.37907 
L 200.711794 121.163206 
L 201.168796 121.69886 
L 201.625799 122.528789 
L 202.082801 120.485167 
L 202.996806 113.456743 
L 203.453808 105.350025 
L 203.910811 113.757332 
L 204.367813 113.753824 
L 204.824816 114.225406 
L 207.56683 115.678428 
L 208.023833 116.093052 
L 208.480835 116.814227 
L 213.964865 119.361012 
L 214.87887 119.662719 
L 220.819902 122.104215 
L 226.760934 124.310581 
L 230.416953 125.574597 
L 230.873956 125.926818 
L 231.330958 127.93306 
L 231.787961 127.520046 
L 232.244963 133.819052 
L 232.701966 132.977293 
L 233.158968 129.120811 
L 233.615971 120.886379 
L 234.072973 110.287566 
L 234.529975 122.809405 
L 234.986978 110.055722 
L 235.44398 120.038214 
L 235.900983 111.006153 
L 236.357985 114.131412 
L 236.814988 106.084459 
L 237.27199 104.599067 
L 237.728993 116.477666 
L 238.185995 120.243179 
L 238.642998 119.559833 
L 239.1 124.569371 
L 239.557002 126.245506 
L 240.014005 119.890124 
L 240.471007 124.883839 
L 240.92801 120.16215 
L 241.385012 118.240755 
L 241.842015 119.54353 
L 244.584029 120.505332 
L 245.498034 120.596456 
L 246.869042 121.061813 
L 247.326044 120.955042 
L 248.240049 121.131272 
L 248.697052 122.961493 
L 249.611057 123.162237 
L 250.982064 123.509178 
L 251.439066 125.227878 
L 251.896069 122.30927 
L 252.353071 113.960603 
L 252.810074 122.373119 
L 253.267076 121.425235 
L 253.724079 121.394383 
L 254.181081 120.416779 
L 258.751106 121.850155 
L 259.208108 122.486654 
L 259.665111 121.922039 
L 260.122113 125.406808 
L 260.579115 125.32048 
L 267.891155 127.217282 
L 268.80516 127.396178 
L 269.262162 127.55824 
L 269.719165 129.086017 
L 270.176167 126.662485 
L 270.63317 125.590703 
L 271.090172 126.09743 
L 271.547174 126.392344 
L 272.461179 120.003083 
L 272.918182 111.98589 
L 273.375184 115.911418 
L 273.832187 113.81235 
L 274.289189 114.297718 
L 274.746192 114.474106 
L 275.203194 115.44908 
L 275.660197 115.05527 
L 276.117199 114.872517 
L 282.972236 116.920711 
L 283.886241 116.795533 
L 285.257248 117.239919 
L 285.714251 116.960348 
L 286.171253 115.582259 
L 287.085258 108.610119 
L 287.54226 108.51296 
L 287.999263 107.186511 
L 288.913268 102.405415 
L 289.37027 100.842969 
L 289.827273 98.163365 
L 290.284275 98.140074 
L 290.741278 95.583397 
L 291.19828 98.733831 
L 291.655283 100.069157 
L 292.112285 97.426619 
L 292.569287 96.710667 
L 293.02629 95.169984 
L 294.397297 88.746418 
L 294.8543 90.049698 
L 295.311302 88.886696 
L 295.768305 89.159012 
L 296.225307 89.163004 
L 298.053317 89.788799 
L 305.822359 92.78741 
L 312.677396 95.21036 
L 318.161425 97.090699 
L 318.618428 96.867748 
L 319.07543 97.056811 
L 319.532432 99.068453 
L 319.989435 98.544883 
L 320.446437 100.729582 
L 320.90344 100.594547 
L 321.360442 98.990992 
L 321.817445 98.166536 
L 322.274447 96.715447 
L 323.188452 96.915214 
L 324.559459 97.385751 
L 325.016462 97.194771 
L 325.473464 100.401596 
L 325.930467 100.833501 
L 330.500491 102.203654 
L 330.957494 101.795456 
L 331.871499 98.345733 
L 332.328501 99.64923 
L 332.785504 96.106494 
L 333.242506 98.400816 
L 333.699509 97.111742 
L 334.156511 96.36118 
L 334.613514 96.909657 
L 335.070516 97.979059 
L 336.441523 98.780613 
L 342.382555 100.427419 
L 347.409582 101.830477 
L 347.866585 102.489008 
L 348.323587 103.347015 
L 348.78059 104.443905 
L 349.237592 104.836441 
L 349.694595 104.7591 
L 350.151597 104.980227 
L 350.6086 104.715456 
L 352.436609 105.460147 
L 352.893612 105.972048 
L 353.350614 106.767952 
L 353.807617 106.932213 
L 354.264619 106.845427 
L 354.721622 105.636081 
L 355.178624 105.97637 
L 355.635627 104.636959 
L 356.092629 107.019035 
L 356.549631 108.599591 
L 357.006634 109.550474 
L 357.463636 108.932626 
L 357.920639 105.992974 
L 358.377641 105.46978 
L 358.834644 109.774232 
L 359.291646 105.22859 
L 359.748649 106.954605 
L 360.205651 106.070002 
L 360.662654 104.527432 
L 361.119656 108.957149 
L 361.576658 108.529809 
L 362.033661 106.820336 
L 362.490663 105.546308 
L 362.947666 104.690539 
L 363.404668 104.407981 
L 364.775676 104.800324 
L 365.232678 104.563926 
L 365.689681 105.017263 
L 366.146683 105.150519 
L 366.603686 107.344325 
L 367.060688 107.433974 
L 367.51769 104.829551 
L 367.974693 104.793986 
L 368.431695 104.42685 
L 369.3457 104.739651 
L 372.087715 105.362187 
L 381.227764 107.400156 
L 381.684767 105.599417 
L 382.141769 105.824604 
L 382.598771 105.781355 
L 383.969779 106.123081 
L 386.254791 106.505475 
L 387.168796 104.96274 
L 387.625799 105.211225 
L 392.652826 106.391954 
L 393.56683 106.627135 
L 394.937838 106.879006 
L 395.39484 107.300684 
L 396.765848 109.471452 
L 397.22285 107.130228 
L 397.679853 108.076756 
L 398.136855 108.102114 
L 398.593857 104.968643 
L 399.05086 103.760445 
L 399.507862 106.357367 
L 399.964865 104.47939 
L 400.421867 104.554985 
L 400.87887 104.942399 
L 401.792875 104.025385 
L 402.70688 104.974774 
L 413.217936 107.110795 
L 413.674939 107.633268 
L 414.131941 107.978184 
L 414.588943 107.882741 
L 415.045946 107.637022 
L 415.502948 108.214154 
L 415.959951 107.584322 
L 416.416953 106.352889 
L 416.873956 107.07788 
L 417.330958 107.307021 
L 417.787961 110.030129 
L 418.244963 109.589776 
L 418.701966 109.392687 
L 419.615971 109.551631 
L 420.072973 109.826082 
L 421.44398 110.149617 
L 421.900983 110.621832 
L 422.357985 110.528134 
L 422.814988 111.12491 
L 423.728993 111.391213 
L 424.185995 111.480857 
L 424.642998 111.976313 
L 425.1 113.17032 
L 425.557002 113.994607 
L 426.014005 112.942055 
L 426.471007 110.289948 
L 426.92801 106.301479 
L 427.385012 110.77713 
L 427.842015 112.646409 
L 428.299017 109.443281 
L 428.75602 107.168914 
L 429.213022 107.283204 
L 429.670025 106.858357 
L 430.127027 105.349605 
L 430.584029 103.054699 
L 431.498034 101.675999 
L 431.955037 99.714735 
L 432.412039 98.933746 
L 432.869042 93.514204 
L 433.326044 94.183825 
L 433.783047 89.169335 
L 434.240049 87.578876 
L 434.697052 87.766105 
L 435.611057 92.224344 
L 436.068059 89.537401 
L 436.525061 89.885867 
L 436.982064 84.484883 
L 437.439066 84.517383 
L 437.896069 85.449245 
L 438.353071 88.391175 
L 438.810074 82.687911 
L 439.267076 86.271563 
L 439.724079 87.797323 
L 440.181081 86.931475 
L 440.638084 86.487278 
L 441.095086 85.695931 
L 441.552088 86.327209 
L 442.466093 89.23733 
L 442.923096 88.362879 
L 443.380098 87.799679 
L 443.837101 86.892527 
L 444.294103 86.726554 
L 444.751106 87.60055 
L 445.208108 87.271027 
L 449.778133 88.232099 
L 450.235135 87.610958 
L 450.692138 86.493871 
L 451.14914 86.75583 
L 451.606143 86.552912 
L 452.063145 86.942217 
L 452.520147 86.772817 
L 454.348157 87.22469 
L 457.090172 87.629787 
L 461.203194 88.538429 
L 469.429238 90.324082 
L 469.886241 90.598191 
L 471.257248 88.592993 
L 471.714251 84.98203 
L 472.171253 87.207449 
L 472.628256 83.200669 
L 473.085258 81.0222 
L 473.54226 81.988969 
L 473.999263 86.113664 
L 474.456265 87.707135 
L 474.913268 88.203312 
L 475.37027 89.103865 
L 476.284275 90.034821 
L 476.741278 90.468455 
L 477.655283 89.996499 
L 478.112285 88.743901 
L 478.569287 88.354552 
L 479.02629 87.57001 
L 479.483292 87.395692 
L 484.967322 88.610874 
L 485.881327 89.306997 
L 486.338329 89.540929 
L 486.795332 90.211411 
L 487.252334 89.247005 
L 487.709337 89.594409 
L 488.166339 89.336253 
L 489.080344 89.283465 
L 489.537346 89.509838 
L 489.994349 88.964376 
L 490.451351 88.943359 
L 490.908354 88.598345 
L 491.365356 88.425693 
L 491.822359 86.892549 
L 492.279361 84.740827 
L 492.736364 85.526156 
L 493.193366 85.38922 
L 493.650369 82.714154 
L 494.107371 84.991286 
L 495.021376 78.466367 
L 495.478378 79.414413 
L 495.935381 77.647381 
L 496.392383 74.453993 
L 496.849386 74.361902 
L 497.306388 70.540961 
L 497.763391 69.882543 
L 498.220393 70.439214 
L 498.677396 73.215755 
L 499.134398 73.668156 
L 499.5914 73.321687 
L 500.048403 74.23278 
L 500.505405 74.880969 
L 500.962408 72.983611 
L 501.41941 73.494827 
L 501.876413 72.020136 
L 502.333415 69.093556 
L 502.790418 63.844445 
L 503.24742 62.172508 
L 503.704423 63.762679 
L 504.618428 64.244908 
L 505.07543 62.953617 
L 505.532432 64.522358 
L 505.989435 67.438455 
L 506.446437 67.788381 
L 506.90344 68.97119 
L 507.360442 69.608876 
L 507.817445 70.002327 
L 508.274447 69.092962 
L 509.188452 69.041617 
L 509.645455 69.577596 
L 510.559459 72.523107 
L 511.016462 72.340848 
L 511.473464 70.503792 
L 511.930467 64.886127 
L 512.387469 63.920161 
L 512.844472 65.1306 
L 513.301474 62.762074 
L 513.758477 63.321086 
L 514.215479 63.351061 
L 515.129484 62.732943 
L 515.586486 64.409128 
L 516.043489 63.252334 
L 516.500491 62.999391 
L 516.957494 64.232236 
L 517.871499 63.217288 
L 522.441523 64.341481 
L 522.898526 64.181653 
L 523.355528 64.779267 
L 523.812531 62.995921 
L 524.269533 60.564144 
L 524.726536 58.775523 
L 525.183538 58.644925 
L 525.640541 58.285085 
L 526.097543 58.470462 
L 526.554545 58.248476 
L 527.46855 58.491116 
L 527.925553 57.804336 
L 529.29656 58.185702 
L 529.753563 58.551543 
L 530.667568 58.791688 
L 531.12457 57.586528 
L 531.581572 57.606882 
L 532.038575 57.887879 
L 532.495577 56.639756 
L 532.95258 56.794834 
L 533.409582 56.634833 
L 533.866585 56.643766 
L 534.323587 55.8 
L 535.237592 55.948025 
L 538.436609 56.780364 
L 538.893612 56.736346 
L 539.350614 56.8203 
L 539.807617 57.536178 
L 540.721622 57.698194 
L 554.888698 61.15852 
L 555.3457 61.154325 
L 560.372727 62.328847 
L 560.372727 62.328847 
" clip-path="url(#p14714a9296)" style="fill: none; stroke: #800080; stroke-width: 1.5; stroke-linecap: square"/>
   </g>
   <g id="patch_3">
    <path d="M 81 320.4 
L 81 43.2 
" style="fill: none; stroke: #000000; stroke-width: 0.8; stroke-linejoin: miter; stroke-linecap: square"/>
   </g>
   <g id="patch_4">
    <path d="M 583.2 320.4 
L 583.2 43.2 
" style="fill: none; stroke: #000000; stroke-width: 0.8; stroke-linejoin: miter; stroke-linecap: square"/>
   </g>
   <g id="patch_5">
    <path d="M 81 320.4 
L 583.2 320.4 
" style="fill: none; stroke: #000000; stroke-width: 0.8; stroke-linejoin: miter; stroke-linecap: square"/>
   </g>
   <g id="patch_6">
    <path d="M 81 43.2 
L 583.2 43.2 
" style="fill: none; stroke: #000000; stroke-width: 0.8; stroke-linejoin: miter; stroke-linecap: square"/>
   </g>
   <g id="text_17">
    <!-- Average Reward Over Time -->
    <g transform="translate(250.281563 37.2) scale(0.12 -0.12)">
     <defs>
      <path id="DejaVuSans-4f" d="M 2522 4238 
Q 1834 4238 1429 3725 
Q 1025 3213 1025 2328 
Q 1025 1447 1429 934 
Q 1834 422 2522 422 
Q 3209 422 3611 934 
Q 4013 1447 4013 2328 
Q 4013 3213 3611 3725 
Q 3209 4238 2522 4238 
z
M 2522 4750 
Q 3503 4750 4090 4092 
Q 4678 3434 4678 2328 
Q 4678 1225 4090 567 
Q 3503 -91 2522 -91 
Q 1538 -91 948 565 
Q 359 1222 359 2328 
Q 359 3434 948 4092 
Q 1538 4750 2522 4750 
z
" transform="scale(0.015625)"/>
     </defs>
     <use xlink:href="#DejaVuSans-41"/>
     <use xlink:href="#DejaVuSans-76" transform="translate(62.533203 0)"/>
     <use xlink:href="#DejaVuSans-65" transform="translate(121.712891 0)"/>
     <use xlink:href="#DejaVuSans-72" transform="translate(183.236328 0)"/>
     <use xlink:href="#DejaVuSans-61" transform="translate(224.349609 0)"/>
     <use xlink:href="#DejaVuSans-67" transform="translate(285.628906 0)"/>
     <use xlink:href="#DejaVuSans-65" transform="translate(349.105469 0)"/>
     <use xlink:href="#DejaVuSans-20" transform="translate(410.628906 0)"/>
     <use xlink:href="#DejaVuSans-52" transform="translate(442.416016 0)"/>
     <use xlink:href="#DejaVuSans-65" transform="translate(507.398438 0)"/>
     <use xlink:href="#DejaVuSans-77" transform="translate(568.921875 0)"/>
     <use xlink:href="#DejaVuSans-61" transform="translate(650.708984 0)"/>
     <use xlink:href="#DejaVuSans-72" transform="translate(711.988281 0)"/>
     <use xlink:href="#DejaVuSans-64" transform="translate(751.351562 0)"/>
     <use xlink:href="#DejaVuSans-20" transform="translate(814.828125 0)"/>
     <use xlink:href="#DejaVuSans-4f" transform="translate(846.615234 0)"/>
     <use xlink:href="#DejaVuSans-76" transform="translate(925.326172 0)"/>
     <use xlink:href="#DejaVuSans-65" transform="translate(984.505859 0)"/>
     <use xlink:href="#DejaVuSans-72" transform="translate(1046.029297 0)"/>
     <use xlink:href="#DejaVuSans-20" transform="translate(1087.142578 0)"/>
     <use xlink:href="#DejaVuSans-54" transform="translate(1118.929688 0)"/>
     <use xlink:href="#DejaVuSans-69" transform="translate(1176.888672 0)"/>
     <use xlink:href="#DejaVuSans-6d" transform="translate(1204.671875 0)"/>
     <use xlink:href="#DejaVuSans-65" transform="translate(1302.083984 0)"/>
    </g>
   </g>
   <g id="legend_1">
    <g id="patch_7">
     <path d="M 88 65.878125 
L 201.485938 65.878125 
Q 203.485938 65.878125 203.485938 63.878125 
L 203.485938 50.2 
Q 203.485938 48.2 201.485938 48.2 
L 88 48.2 
Q 86 48.2 86 50.2 
L 86 63.878125 
Q 86 65.878125 88 65.878125 
z
" style="fill: #ffffff; opacity: 0.8; stroke: #cccccc; stroke-linejoin: miter"/>
    </g>
    <g id="line2d_28">
     <path d="M 90 56.298437 
L 100 56.298437 
L 110 56.298437 
" style="fill: none; stroke: #800080; stroke-width: 1.5; stroke-linecap: square"/>
    </g>
    <g id="text_18">
     <!-- Average Reward -->
     <g transform="translate(118 59.798437) scale(0.1 -0.1)">
      <use xlink:href="#DejaVuSans-41"/>
      <use xlink:href="#DejaVuSans-76" transform="translate(62.533203 0)"/>
      <use xlink:href="#DejaVuSans-65" transform="translate(121.712891 0)"/>
      <use xlink:href="#DejaVuSans-72" transform="translate(183.236328 0)"/>
      <use xlink:href="#DejaVuSans-61" transform="translate(224.349609 0)"/>
      <use xlink:href="#DejaVuSans-67" transform="translate(285.628906 0)"/>
      <use xlink:href="#DejaVuSans-65" transform="translate(349.105469 0)"/>
      <use xlink:href="#DejaVuSans-20" transform="translate(410.628906 0)"/>
      <use xlink:href="#DejaVuSans-52" transform="translate(442.416016 0)"/>
      <use xlink:href="#DejaVuSans-65" transform="translate(507.398438 0)"/>
      <use xlink:href="#DejaVuSans-77" transform="translate(568.921875 0)"/>
      <use xlink:href="#DejaVuSans-61" transform="translate(650.708984 0)"/>
      <use xlink:href="#DejaVuSans-72" transform="translate(711.988281 0)"/>
      <use xlink:href="#DejaVuSans-64" transform="translate(751.351562 0)"/>
     </g>
    </g>
   </g>
  </g>
 </g>
 <defs>
  <clipPath id="p14714a9296">
   <rect x="81" y="43.2" width="502.2" height="277.2"/>
  </clipPath>
 </defs>
</svg>
