<?xml version="1.0" encoding="utf-8" standalone="no"?>
<!DOCTYPE svg PUBLIC "-//W3C//DTD SVG 1.1//EN"
  "http://www.w3.org/Graphics/SVG/1.1/DTD/svg11.dtd">
<svg xmlns:xlink="http://www.w3.org/1999/xlink" width="648pt" height="360pt" viewBox="0 0 648 360" xmlns="http://www.w3.org/2000/svg" version="1.1">
 <metadata>
  <rdf:RDF xmlns:dc="http://purl.org/dc/elements/1.1/" xmlns:cc="http://creativecommons.org/ns#" xmlns:rdf="http://www.w3.org/1999/02/22-rdf-syntax-ns#">
   <cc:Work>
    <dc:type rdf:resource="http://purl.org/dc/dcmitype/StillImage"/>
    <dc:date>2025-09-28T22:06:17.655366</dc:date>
    <dc:format>image/svg+xml</dc:format>
    <dc:creator>
     <cc:Agent>
      <dc:title>Matplotlib v3.10.0, https://matplotlib.org/</dc:title>
     </cc:Agent>
    </dc:creator>
   </cc:Work>
  </rdf:RDF>
 </metadata>
 <defs>
  <style type="text/css">*{stroke-linejoin: round; stroke-linecap: butt}</style>
 </defs>
 <g id="figure_1">
  <g id="patch_1">
   <path d="M 0 360 
L 648 360 
L 648 0 
L 0 0 
z
" style="fill: #ffffff"/>
  </g>
  <g id="axes_1">
   <g id="patch_2">
    <path d="M 81 320.4 
L 583.2 320.4 
L 583.2 43.2 
L 81 43.2 
z
" style="fill: #ffffff"/>
   </g>
   <g id="matplotlib.axis_1">
    <g id="xtick_1">
     <g id="line2d_1">
      <path d="M 103.37027 320.4 
L 103.37027 43.2 
" clip-path="url(#pb6d5ddcfcd)" style="fill: none; stroke: #b0b0b0; stroke-width: 0.8; stroke-linecap: square"/>
     </g>
     <g id="line2d_2">
      <defs>
       <path id="m39aaa61143" d="M 0 0 
L 0 3.5 
" style="stroke: #000000; stroke-width: 0.8"/>
      </defs>
      <g>
       <use xlink:href="#m39aaa61143" x="103.37027" y="320.4" style="stroke: #000000; stroke-width: 0.8"/>
      </g>
     </g>
     <g id="text_1">
      <!-- 0 -->
      <g transform="translate(100.18902 334.998438) scale(0.1 -0.1)">
       <defs>
        <path id="DejaVuSans-30" d="M 2034 4250 
Q 1547 4250 1301 3770 
Q 1056 3291 1056 2328 
Q 1056 1369 1301 889 
Q 1547 409 2034 409 
Q 2525 409 2770 889 
Q 3016 1369 3016 2328 
Q 3016 3291 2770 3770 
Q 2525 4250 2034 4250 
z
M 2034 4750 
Q 2819 4750 3233 4129 
Q 3647 3509 3647 2328 
Q 3647 1150 3233 529 
Q 2819 -91 2034 -91 
Q 1250 -91 836 529 
Q 422 1150 422 2328 
Q 422 3509 836 4129 
Q 1250 4750 2034 4750 
z
" transform="scale(0.015625)"/>
       </defs>
       <use xlink:href="#DejaVuSans-30"/>
      </g>
     </g>
    </g>
    <g id="xtick_2">
     <g id="line2d_3">
      <path d="M 194.770762 320.4 
L 194.770762 43.2 
" clip-path="url(#pb6d5ddcfcd)" style="fill: none; stroke: #b0b0b0; stroke-width: 0.8; stroke-linecap: square"/>
     </g>
     <g id="line2d_4">
      <g>
       <use xlink:href="#m39aaa61143" x="194.770762" y="320.4" style="stroke: #000000; stroke-width: 0.8"/>
      </g>
     </g>
     <g id="text_2">
      <!-- 200 -->
      <g transform="translate(185.227012 334.998438) scale(0.1 -0.1)">
       <defs>
        <path id="DejaVuSans-32" d="M 1228 531 
L 3431 531 
L 3431 0 
L 469 0 
L 469 531 
Q 828 903 1448 1529 
Q 2069 2156 2228 2338 
Q 2531 2678 2651 2914 
Q 2772 3150 2772 3378 
Q 2772 3750 2511 3984 
Q 2250 4219 1831 4219 
Q 1534 4219 1204 4116 
Q 875 4013 500 3803 
L 500 4441 
Q 881 4594 1212 4672 
Q 1544 4750 1819 4750 
Q 2544 4750 2975 4387 
Q 3406 4025 3406 3419 
Q 3406 3131 3298 2873 
Q 3191 2616 2906 2266 
Q 2828 2175 2409 1742 
Q 1991 1309 1228 531 
z
" transform="scale(0.015625)"/>
       </defs>
       <use xlink:href="#DejaVuSans-32"/>
       <use xlink:href="#DejaVuSans-30" transform="translate(63.623047 0)"/>
       <use xlink:href="#DejaVuSans-30" transform="translate(127.246094 0)"/>
      </g>
     </g>
    </g>
    <g id="xtick_3">
     <g id="line2d_5">
      <path d="M 286.171253 320.4 
L 286.171253 43.2 
" clip-path="url(#pb6d5ddcfcd)" style="fill: none; stroke: #b0b0b0; stroke-width: 0.8; stroke-linecap: square"/>
     </g>
     <g id="line2d_6">
      <g>
       <use xlink:href="#m39aaa61143" x="286.171253" y="320.4" style="stroke: #000000; stroke-width: 0.8"/>
      </g>
     </g>
     <g id="text_3">
      <!-- 400 -->
      <g transform="translate(276.627503 334.998438) scale(0.1 -0.1)">
       <defs>
        <path id="DejaVuSans-34" d="M 2419 4116 
L 825 1625 
L 2419 1625 
L 2419 4116 
z
M 2253 4666 
L 3047 4666 
L 3047 1625 
L 3713 1625 
L 3713 1100 
L 3047 1100 
L 3047 0 
L 2419 0 
L 2419 1100 
L 313 1100 
L 313 1709 
L 2253 4666 
z
" transform="scale(0.015625)"/>
       </defs>
       <use xlink:href="#DejaVuSans-34"/>
       <use xlink:href="#DejaVuSans-30" transform="translate(63.623047 0)"/>
       <use xlink:href="#DejaVuSans-30" transform="translate(127.246094 0)"/>
      </g>
     </g>
    </g>
    <g id="xtick_4">
     <g id="line2d_7">
      <path d="M 377.571744 320.4 
L 377.571744 43.2 
" clip-path="url(#pb6d5ddcfcd)" style="fill: none; stroke: #b0b0b0; stroke-width: 0.8; stroke-linecap: square"/>
     </g>
     <g id="line2d_8">
      <g>
       <use xlink:href="#m39aaa61143" x="377.571744" y="320.4" style="stroke: #000000; stroke-width: 0.8"/>
      </g>
     </g>
     <g id="text_4">
      <!-- 600 -->
      <g transform="translate(368.027994 334.998438) scale(0.1 -0.1)">
       <defs>
        <path id="DejaVuSans-36" d="M 2113 2584 
Q 1688 2584 1439 2293 
Q 1191 2003 1191 1497 
Q 1191 994 1439 701 
Q 1688 409 2113 409 
Q 2538 409 2786 701 
Q 3034 994 3034 1497 
Q 3034 2003 2786 2293 
Q 2538 2584 2113 2584 
z
M 3366 4563 
L 3366 3988 
Q 3128 4100 2886 4159 
Q 2644 4219 2406 4219 
Q 1781 4219 1451 3797 
Q 1122 3375 1075 2522 
Q 1259 2794 1537 2939 
Q 1816 3084 2150 3084 
Q 2853 3084 3261 2657 
Q 3669 2231 3669 1497 
Q 3669 778 3244 343 
Q 2819 -91 2113 -91 
Q 1303 -91 875 529 
Q 447 1150 447 2328 
Q 447 3434 972 4092 
Q 1497 4750 2381 4750 
Q 2619 4750 2861 4703 
Q 3103 4656 3366 4563 
z
" transform="scale(0.015625)"/>
       </defs>
       <use xlink:href="#DejaVuSans-36"/>
       <use xlink:href="#DejaVuSans-30" transform="translate(63.623047 0)"/>
       <use xlink:href="#DejaVuSans-30" transform="translate(127.246094 0)"/>
      </g>
     </g>
    </g>
    <g id="xtick_5">
     <g id="line2d_9">
      <path d="M 468.972236 320.4 
L 468.972236 43.2 
" clip-path="url(#pb6d5ddcfcd)" style="fill: none; stroke: #b0b0b0; stroke-width: 0.8; stroke-linecap: square"/>
     </g>
     <g id="line2d_10">
      <g>
       <use xlink:href="#m39aaa61143" x="468.972236" y="320.4" style="stroke: #000000; stroke-width: 0.8"/>
      </g>
     </g>
     <g id="text_5">
      <!-- 800 -->
      <g transform="translate(459.428486 334.998438) scale(0.1 -0.1)">
       <defs>
        <path id="DejaVuSans-38" d="M 2034 2216 
Q 1584 2216 1326 1975 
Q 1069 1734 1069 1313 
Q 1069 891 1326 650 
Q 1584 409 2034 409 
Q 2484 409 2743 651 
Q 3003 894 3003 1313 
Q 3003 1734 2745 1975 
Q 2488 2216 2034 2216 
z
M 1403 2484 
Q 997 2584 770 2862 
Q 544 3141 544 3541 
Q 544 4100 942 4425 
Q 1341 4750 2034 4750 
Q 2731 4750 3128 4425 
Q 3525 4100 3525 3541 
Q 3525 3141 3298 2862 
Q 3072 2584 2669 2484 
Q 3125 2378 3379 2068 
Q 3634 1759 3634 1313 
Q 3634 634 3220 271 
Q 2806 -91 2034 -91 
Q 1263 -91 848 271 
Q 434 634 434 1313 
Q 434 1759 690 2068 
Q 947 2378 1403 2484 
z
M 1172 3481 
Q 1172 3119 1398 2916 
Q 1625 2713 2034 2713 
Q 2441 2713 2670 2916 
Q 2900 3119 2900 3481 
Q 2900 3844 2670 4047 
Q 2441 4250 2034 4250 
Q 1625 4250 1398 4047 
Q 1172 3844 1172 3481 
z
" transform="scale(0.015625)"/>
       </defs>
       <use xlink:href="#DejaVuSans-38"/>
       <use xlink:href="#DejaVuSans-30" transform="translate(63.623047 0)"/>
       <use xlink:href="#DejaVuSans-30" transform="translate(127.246094 0)"/>
      </g>
     </g>
    </g>
    <g id="xtick_6">
     <g id="line2d_11">
      <path d="M 560.372727 320.4 
L 560.372727 43.2 
" clip-path="url(#pb6d5ddcfcd)" style="fill: none; stroke: #b0b0b0; stroke-width: 0.8; stroke-linecap: square"/>
     </g>
     <g id="line2d_12">
      <g>
       <use xlink:href="#m39aaa61143" x="560.372727" y="320.4" style="stroke: #000000; stroke-width: 0.8"/>
      </g>
     </g>
     <g id="text_6">
      <!-- 1000 -->
      <g transform="translate(547.647727 334.998438) scale(0.1 -0.1)">
       <defs>
        <path id="DejaVuSans-31" d="M 794 531 
L 1825 531 
L 1825 4091 
L 703 3866 
L 703 4441 
L 1819 4666 
L 2450 4666 
L 2450 531 
L 3481 531 
L 3481 0 
L 794 0 
L 794 531 
z
" transform="scale(0.015625)"/>
       </defs>
       <use xlink:href="#DejaVuSans-31"/>
       <use xlink:href="#DejaVuSans-30" transform="translate(63.623047 0)"/>
       <use xlink:href="#DejaVuSans-30" transform="translate(127.246094 0)"/>
       <use xlink:href="#DejaVuSans-30" transform="translate(190.869141 0)"/>
      </g>
     </g>
    </g>
    <g id="text_7">
     <!-- Time -->
     <g transform="translate(319.866406 348.676562) scale(0.1 -0.1)">
      <defs>
       <path id="DejaVuSans-54" d="M -19 4666 
L 3928 4666 
L 3928 4134 
L 2272 4134 
L 2272 0 
L 1638 0 
L 1638 4134 
L -19 4134 
L -19 4666 
z
" transform="scale(0.015625)"/>
       <path id="DejaVuSans-69" d="M 603 3500 
L 1178 3500 
L 1178 0 
L 603 0 
L 603 3500 
z
M 603 4863 
L 1178 4863 
L 1178 4134 
L 603 4134 
L 603 4863 
z
" transform="scale(0.015625)"/>
       <path id="DejaVuSans-6d" d="M 3328 2828 
Q 3544 3216 3844 3400 
Q 4144 3584 4550 3584 
Q 5097 3584 5394 3201 
Q 5691 2819 5691 2113 
L 5691 0 
L 5113 0 
L 5113 2094 
Q 5113 2597 4934 2840 
Q 4756 3084 4391 3084 
Q 3944 3084 3684 2787 
Q 3425 2491 3425 1978 
L 3425 0 
L 2847 0 
L 2847 2094 
Q 2847 2600 2669 2842 
Q 2491 3084 2119 3084 
Q 1678 3084 1418 2786 
Q 1159 2488 1159 1978 
L 1159 0 
L 581 0 
L 581 3500 
L 1159 3500 
L 1159 2956 
Q 1356 3278 1631 3431 
Q 1906 3584 2284 3584 
Q 2666 3584 2933 3390 
Q 3200 3197 3328 2828 
z
" transform="scale(0.015625)"/>
       <path id="DejaVuSans-65" d="M 3597 1894 
L 3597 1613 
L 953 1613 
Q 991 1019 1311 708 
Q 1631 397 2203 397 
Q 2534 397 2845 478 
Q 3156 559 3463 722 
L 3463 178 
Q 3153 47 2828 -22 
Q 2503 -91 2169 -91 
Q 1331 -91 842 396 
Q 353 884 353 1716 
Q 353 2575 817 3079 
Q 1281 3584 2069 3584 
Q 2775 3584 3186 3129 
Q 3597 2675 3597 1894 
z
M 3022 2063 
Q 3016 2534 2758 2815 
Q 2500 3097 2075 3097 
Q 1594 3097 1305 2825 
Q 1016 2553 972 2059 
L 3022 2063 
z
" transform="scale(0.015625)"/>
      </defs>
      <use xlink:href="#DejaVuSans-54"/>
      <use xlink:href="#DejaVuSans-69" transform="translate(57.958984 0)"/>
      <use xlink:href="#DejaVuSans-6d" transform="translate(85.742188 0)"/>
      <use xlink:href="#DejaVuSans-65" transform="translate(183.154297 0)"/>
     </g>
    </g>
   </g>
   <g id="matplotlib.axis_2">
    <g id="ytick_1">
     <g id="line2d_13">
      <path d="M 81 261.214178 
L 583.2 261.214178 
" clip-path="url(#pb6d5ddcfcd)" style="fill: none; stroke: #b0b0b0; stroke-width: 0.8; stroke-linecap: square"/>
     </g>
     <g id="line2d_14">
      <defs>
       <path id="m910417947e" d="M 0 0 
L -3.5 0 
" style="stroke: #000000; stroke-width: 0.8"/>
      </defs>
      <g>
       <use xlink:href="#m910417947e" x="81" y="261.214178" style="stroke: #000000; stroke-width: 0.8"/>
      </g>
     </g>
     <g id="text_8">
      <!-- 0.0 -->
      <g transform="translate(58.096875 265.013396) scale(0.1 -0.1)">
       <defs>
        <path id="DejaVuSans-2e" d="M 684 794 
L 1344 794 
L 1344 0 
L 684 0 
L 684 794 
z
" transform="scale(0.015625)"/>
       </defs>
       <use xlink:href="#DejaVuSans-30"/>
       <use xlink:href="#DejaVuSans-2e" transform="translate(63.623047 0)"/>
       <use xlink:href="#DejaVuSans-30" transform="translate(95.410156 0)"/>
      </g>
     </g>
    </g>
    <g id="ytick_2">
     <g id="line2d_15">
      <path d="M 81 200.848501 
L 583.2 200.848501 
" clip-path="url(#pb6d5ddcfcd)" style="fill: none; stroke: #b0b0b0; stroke-width: 0.8; stroke-linecap: square"/>
     </g>
     <g id="line2d_16">
      <g>
       <use xlink:href="#m910417947e" x="81" y="200.848501" style="stroke: #000000; stroke-width: 0.8"/>
      </g>
     </g>
     <g id="text_9">
      <!-- 0.5 -->
      <g transform="translate(58.096875 204.64772) scale(0.1 -0.1)">
       <defs>
        <path id="DejaVuSans-35" d="M 691 4666 
L 3169 4666 
L 3169 4134 
L 1269 4134 
L 1269 2991 
Q 1406 3038 1543 3061 
Q 1681 3084 1819 3084 
Q 2600 3084 3056 2656 
Q 3513 2228 3513 1497 
Q 3513 744 3044 326 
Q 2575 -91 1722 -91 
Q 1428 -91 1123 -41 
Q 819 9 494 109 
L 494 744 
Q 775 591 1075 516 
Q 1375 441 1709 441 
Q 2250 441 2565 725 
Q 2881 1009 2881 1497 
Q 2881 1984 2565 2268 
Q 2250 2553 1709 2553 
Q 1456 2553 1204 2497 
Q 953 2441 691 2322 
L 691 4666 
z
" transform="scale(0.015625)"/>
       </defs>
       <use xlink:href="#DejaVuSans-30"/>
       <use xlink:href="#DejaVuSans-2e" transform="translate(63.623047 0)"/>
       <use xlink:href="#DejaVuSans-35" transform="translate(95.410156 0)"/>
      </g>
     </g>
    </g>
    <g id="ytick_3">
     <g id="line2d_17">
      <path d="M 81 140.482825 
L 583.2 140.482825 
" clip-path="url(#pb6d5ddcfcd)" style="fill: none; stroke: #b0b0b0; stroke-width: 0.8; stroke-linecap: square"/>
     </g>
     <g id="line2d_18">
      <g>
       <use xlink:href="#m910417947e" x="81" y="140.482825" style="stroke: #000000; stroke-width: 0.8"/>
      </g>
     </g>
     <g id="text_10">
      <!-- 1.0 -->
      <g transform="translate(58.096875 144.282044) scale(0.1 -0.1)">
       <use xlink:href="#DejaVuSans-31"/>
       <use xlink:href="#DejaVuSans-2e" transform="translate(63.623047 0)"/>
       <use xlink:href="#DejaVuSans-30" transform="translate(95.410156 0)"/>
      </g>
     </g>
    </g>
    <g id="ytick_4">
     <g id="line2d_19">
      <path d="M 81 80.117149 
L 583.2 80.117149 
" clip-path="url(#pb6d5ddcfcd)" style="fill: none; stroke: #b0b0b0; stroke-width: 0.8; stroke-linecap: square"/>
     </g>
     <g id="line2d_20">
      <g>
       <use xlink:href="#m910417947e" x="81" y="80.117149" style="stroke: #000000; stroke-width: 0.8"/>
      </g>
     </g>
     <g id="text_11">
      <!-- 1.5 -->
      <g transform="translate(58.096875 83.916367) scale(0.1 -0.1)">
       <use xlink:href="#DejaVuSans-31"/>
       <use xlink:href="#DejaVuSans-2e" transform="translate(63.623047 0)"/>
       <use xlink:href="#DejaVuSans-35" transform="translate(95.410156 0)"/>
      </g>
     </g>
    </g>
    <g id="text_12">
     <!-- Average Reward -->
     <g transform="translate(52.017187 222.542969) rotate(-90) scale(0.1 -0.1)">
      <defs>
       <path id="DejaVuSans-41" d="M 2188 4044 
L 1331 1722 
L 3047 1722 
L 2188 4044 
z
M 1831 4666 
L 2547 4666 
L 4325 0 
L 3669 0 
L 3244 1197 
L 1141 1197 
L 716 0 
L 50 0 
L 1831 4666 
z
" transform="scale(0.015625)"/>
       <path id="DejaVuSans-76" d="M 191 3500 
L 800 3500 
L 1894 563 
L 2988 3500 
L 3597 3500 
L 2284 0 
L 1503 0 
L 191 3500 
z
" transform="scale(0.015625)"/>
       <path id="DejaVuSans-72" d="M 2631 2963 
Q 2534 3019 2420 3045 
Q 2306 3072 2169 3072 
Q 1681 3072 1420 2755 
Q 1159 2438 1159 1844 
L 1159 0 
L 581 0 
L 581 3500 
L 1159 3500 
L 1159 2956 
Q 1341 3275 1631 3429 
Q 1922 3584 2338 3584 
Q 2397 3584 2469 3576 
Q 2541 3569 2628 3553 
L 2631 2963 
z
" transform="scale(0.015625)"/>
       <path id="DejaVuSans-61" d="M 2194 1759 
Q 1497 1759 1228 1600 
Q 959 1441 959 1056 
Q 959 750 1161 570 
Q 1363 391 1709 391 
Q 2188 391 2477 730 
Q 2766 1069 2766 1631 
L 2766 1759 
L 2194 1759 
z
M 3341 1997 
L 3341 0 
L 2766 0 
L 2766 531 
Q 2569 213 2275 61 
Q 1981 -91 1556 -91 
Q 1019 -91 701 211 
Q 384 513 384 1019 
Q 384 1609 779 1909 
Q 1175 2209 1959 2209 
L 2766 2209 
L 2766 2266 
Q 2766 2663 2505 2880 
Q 2244 3097 1772 3097 
Q 1472 3097 1187 3025 
Q 903 2953 641 2809 
L 641 3341 
Q 956 3463 1253 3523 
Q 1550 3584 1831 3584 
Q 2591 3584 2966 3190 
Q 3341 2797 3341 1997 
z
" transform="scale(0.015625)"/>
       <path id="DejaVuSans-67" d="M 2906 1791 
Q 2906 2416 2648 2759 
Q 2391 3103 1925 3103 
Q 1463 3103 1205 2759 
Q 947 2416 947 1791 
Q 947 1169 1205 825 
Q 1463 481 1925 481 
Q 2391 481 2648 825 
Q 2906 1169 2906 1791 
z
M 3481 434 
Q 3481 -459 3084 -895 
Q 2688 -1331 1869 -1331 
Q 1566 -1331 1297 -1286 
Q 1028 -1241 775 -1147 
L 775 -588 
Q 1028 -725 1275 -790 
Q 1522 -856 1778 -856 
Q 2344 -856 2625 -561 
Q 2906 -266 2906 331 
L 2906 616 
Q 2728 306 2450 153 
Q 2172 0 1784 0 
Q 1141 0 747 490 
Q 353 981 353 1791 
Q 353 2603 747 3093 
Q 1141 3584 1784 3584 
Q 2172 3584 2450 3431 
Q 2728 3278 2906 2969 
L 2906 3500 
L 3481 3500 
L 3481 434 
z
" transform="scale(0.015625)"/>
       <path id="DejaVuSans-20" transform="scale(0.015625)"/>
       <path id="DejaVuSans-52" d="M 2841 2188 
Q 3044 2119 3236 1894 
Q 3428 1669 3622 1275 
L 4263 0 
L 3584 0 
L 2988 1197 
Q 2756 1666 2539 1819 
Q 2322 1972 1947 1972 
L 1259 1972 
L 1259 0 
L 628 0 
L 628 4666 
L 2053 4666 
Q 2853 4666 3247 4331 
Q 3641 3997 3641 3322 
Q 3641 2881 3436 2590 
Q 3231 2300 2841 2188 
z
M 1259 4147 
L 1259 2491 
L 2053 2491 
Q 2509 2491 2742 2702 
Q 2975 2913 2975 3322 
Q 2975 3731 2742 3939 
Q 2509 4147 2053 4147 
L 1259 4147 
z
" transform="scale(0.015625)"/>
       <path id="DejaVuSans-77" d="M 269 3500 
L 844 3500 
L 1563 769 
L 2278 3500 
L 2956 3500 
L 3675 769 
L 4391 3500 
L 4966 3500 
L 4050 0 
L 3372 0 
L 2619 2869 
L 1863 0 
L 1184 0 
L 269 3500 
z
" transform="scale(0.015625)"/>
       <path id="DejaVuSans-64" d="M 2906 2969 
L 2906 4863 
L 3481 4863 
L 3481 0 
L 2906 0 
L 2906 525 
Q 2725 213 2448 61 
Q 2172 -91 1784 -91 
Q 1150 -91 751 415 
Q 353 922 353 1747 
Q 353 2572 751 3078 
Q 1150 3584 1784 3584 
Q 2172 3584 2448 3432 
Q 2725 3281 2906 2969 
z
M 947 1747 
Q 947 1113 1208 752 
Q 1469 391 1925 391 
Q 2381 391 2643 752 
Q 2906 1113 2906 1747 
Q 2906 2381 2643 2742 
Q 2381 3103 1925 3103 
Q 1469 3103 1208 2742 
Q 947 2381 947 1747 
z
" transform="scale(0.015625)"/>
      </defs>
      <use xlink:href="#DejaVuSans-41"/>
      <use xlink:href="#DejaVuSans-76" transform="translate(62.533203 0)"/>
      <use xlink:href="#DejaVuSans-65" transform="translate(121.712891 0)"/>
      <use xlink:href="#DejaVuSans-72" transform="translate(183.236328 0)"/>
      <use xlink:href="#DejaVuSans-61" transform="translate(224.349609 0)"/>
      <use xlink:href="#DejaVuSans-67" transform="translate(285.628906 0)"/>
      <use xlink:href="#DejaVuSans-65" transform="translate(349.105469 0)"/>
      <use xlink:href="#DejaVuSans-20" transform="translate(410.628906 0)"/>
      <use xlink:href="#DejaVuSans-52" transform="translate(442.416016 0)"/>
      <use xlink:href="#DejaVuSans-65" transform="translate(507.398438 0)"/>
      <use xlink:href="#DejaVuSans-77" transform="translate(568.921875 0)"/>
      <use xlink:href="#DejaVuSans-61" transform="translate(650.708984 0)"/>
      <use xlink:href="#DejaVuSans-72" transform="translate(711.988281 0)"/>
      <use xlink:href="#DejaVuSans-64" transform="translate(751.351562 0)"/>
     </g>
    </g>
    <g id="text_13">
     <!-- 1e−5 -->
     <g transform="translate(81 40.2) scale(0.1 -0.1)">
      <defs>
       <path id="DejaVuSans-2212" d="M 678 2272 
L 4684 2272 
L 4684 1741 
L 678 1741 
L 678 2272 
z
" transform="scale(0.015625)"/>
      </defs>
      <use xlink:href="#DejaVuSans-31"/>
      <use xlink:href="#DejaVuSans-65" transform="translate(63.623047 0)"/>
      <use xlink:href="#DejaVuSans-2212" transform="translate(125.146484 0)"/>
      <use xlink:href="#DejaVuSans-35" transform="translate(208.935547 0)"/>
     </g>
    </g>
   </g>
   <g id="line2d_21">
    <path d="M 103.827273 261.214178 
L 104.284275 272.833526 
L 104.741278 263.584031 
L 105.19828 277.930561 
L 105.655283 273.345838 
L 106.112285 270.330077 
L 106.569287 292.024808 
L 107.02629 245.707904 
L 107.483292 294.29333 
L 107.940295 307.8 
L 108.397297 189.011183 
L 108.8543 288.777086 
L 109.311302 260.859912 
L 109.768305 212.773382 
L 110.225307 206.327593 
L 110.68231 217.828258 
L 111.139312 219.476998 
L 112.053317 228.311444 
L 112.510319 228.129924 
L 112.967322 227.582473 
L 113.424324 227.369524 
L 113.881327 228.609159 
L 114.338329 229.164088 
L 114.795332 242.735718 
L 115.252334 245.290271 
L 115.709337 248.577819 
L 116.166339 249.015808 
L 116.623342 249.28323 
L 117.080344 241.751271 
L 117.537346 227.914568 
L 117.994349 218.510745 
L 118.451351 227.732678 
L 118.908354 210.761397 
L 119.365356 222.12129 
L 119.822359 221.227314 
L 120.279361 199.678898 
L 120.736364 209.460486 
L 121.193366 194.319155 
L 121.650369 188.131499 
L 122.107371 196.654666 
L 123.021376 179.599303 
L 123.478378 179.161153 
L 124.392383 197.733117 
L 124.849386 203.505419 
L 125.306388 196.044468 
L 125.763391 208.68658 
L 126.220393 198.748642 
L 126.677396 218.853746 
L 127.134398 219.567704 
L 127.5914 213.44232 
L 128.048403 171.319716 
L 128.505405 188.172874 
L 128.962408 179.368312 
L 129.41941 180.588304 
L 130.333415 183.939296 
L 130.790418 184.903795 
L 131.24742 186.276894 
L 131.704423 186.792337 
L 132.161425 186.035699 
L 132.618428 192.706777 
L 133.07543 190.808461 
L 133.532432 191.85912 
L 133.989435 194.798116 
L 134.446437 193.581939 
L 134.90344 189.263918 
L 135.360442 190.217637 
L 135.817445 191.815097 
L 136.274447 195.787474 
L 136.73145 195.900543 
L 137.188452 184.133301 
L 137.645455 175.255388 
L 138.102457 177.329996 
L 138.559459 187.39874 
L 139.016462 203.286877 
L 139.473464 200.885372 
L 139.930467 206.328366 
L 140.387469 207.43154 
L 140.844472 207.946387 
L 141.301474 208.940098 
L 142.215479 210.184223 
L 142.672482 207.22692 
L 143.586486 184.042545 
L 144.043489 188.959928 
L 144.500491 187.227276 
L 144.957494 184.808183 
L 145.414496 185.742507 
L 145.871499 187.22545 
L 146.328501 188.100423 
L 146.785504 188.183216 
L 147.242506 192.216523 
L 147.699509 202.430087 
L 148.156511 204.344734 
L 148.613514 213.428374 
L 149.527518 242.388146 
L 149.984521 246.563487 
L 150.441523 252.685098 
L 150.898526 256.539847 
L 151.355528 242.406544 
L 151.812531 247.321448 
L 152.269533 231.802567 
L 152.726536 220.687996 
L 153.183538 232.783409 
L 153.640541 240.210151 
L 154.097543 252.992089 
L 154.554545 247.131346 
L 155.011548 233.107837 
L 155.46855 228.691118 
L 156.382555 223.948387 
L 156.839558 234.351959 
L 157.29656 227.015914 
L 157.753563 228.597469 
L 158.210565 219.853134 
L 158.667568 222.327973 
L 159.12457 221.749018 
L 159.581572 217.067294 
L 160.038575 215.701423 
L 160.495577 215.590272 
L 160.95258 215.903724 
L 161.409582 212.519214 
L 161.866585 212.248658 
L 162.323587 213.370446 
L 162.78059 222.273999 
L 163.237592 224.495052 
L 163.694595 224.747994 
L 164.151597 222.87218 
L 164.6086 228.173815 
L 165.065602 227.247023 
L 165.522604 232.983617 
L 166.893612 228.117515 
L 167.350614 228.633828 
L 167.807617 227.661858 
L 168.721622 251.542518 
L 169.178624 254.363067 
L 169.635627 254.376795 
L 170.092629 254.083172 
L 170.549631 254.54403 
L 171.006634 253.247871 
L 171.920639 259.637889 
L 172.377641 259.982031 
L 172.834644 261.211784 
L 173.291646 261.487139 
L 173.748649 258.330257 
L 174.205651 260.892702 
L 174.662654 259.8947 
L 175.119656 259.548856 
L 175.576658 265.054517 
L 176.033661 260.326832 
L 176.490663 259.342614 
L 177.404668 256.186375 
L 177.861671 253.990944 
L 178.318673 247.796429 
L 178.775676 244.822002 
L 179.232678 243.087957 
L 179.689681 247.306096 
L 180.146683 250.020155 
L 180.603686 249.937027 
L 181.060688 250.079746 
L 181.51769 250.556985 
L 182.431695 250.578844 
L 183.3457 249.872302 
L 183.802703 243.526369 
L 184.259705 238.962375 
L 184.716708 239.539365 
L 185.630713 241.263553 
L 186.087715 239.952738 
L 186.544717 239.8967 
L 187.00172 241.119201 
L 187.458722 239.770079 
L 187.915725 239.487225 
L 188.372727 243.820852 
L 188.82973 243.949668 
L 189.743735 235.500069 
L 190.200737 236.175444 
L 191.114742 225.366149 
L 191.571744 225.563635 
L 192.028747 220.461893 
L 192.942752 195.18302 
L 193.399754 200.698143 
L 193.856757 203.790561 
L 194.313759 199.382461 
L 195.227764 204.836422 
L 195.684767 205.819801 
L 196.141769 204.571814 
L 196.598771 204.566722 
L 197.055774 206.594929 
L 197.512776 209.147209 
L 197.969779 210.709665 
L 198.426781 211.523673 
L 198.883784 214.00113 
L 199.340786 214.406991 
L 199.797789 217.270477 
L 200.254791 214.932984 
L 200.711794 213.390711 
L 201.168796 209.373677 
L 201.625799 195.834304 
L 202.996806 172.342045 
L 203.453808 170.874644 
L 203.910811 171.65454 
L 204.367813 172.055858 
L 204.824816 172.967559 
L 205.738821 174.243516 
L 206.195823 173.933851 
L 206.652826 174.892498 
L 207.109828 176.17511 
L 207.56683 176.569066 
L 208.023833 174.511985 
L 208.480835 171.553264 
L 208.937838 173.516194 
L 209.39484 177.30803 
L 209.851843 179.496777 
L 210.308845 179.795161 
L 210.765848 179.763927 
L 211.22285 180.98945 
L 211.679853 181.331942 
L 212.136855 182.008619 
L 212.593857 183.414651 
L 213.507862 193.576438 
L 213.964865 186.142041 
L 214.421867 194.868463 
L 214.87887 188.312603 
L 215.335872 192.797379 
L 215.792875 191.285316 
L 216.249877 185.735956 
L 216.70688 168.812954 
L 217.163882 166.384331 
L 217.620885 160.238827 
L 218.534889 165.625294 
L 218.991892 164.705979 
L 220.362899 166.410489 
L 220.819902 166.507974 
L 221.276904 166.825723 
L 221.733907 165.210695 
L 222.190909 166.001301 
L 222.647912 166.201354 
L 223.104914 166.556571 
L 223.561916 167.88721 
L 224.018919 167.36493 
L 224.932924 167.422137 
L 225.389926 166.892221 
L 225.846929 167.426117 
L 226.303931 167.538934 
L 226.760934 167.4023 
L 227.217936 166.315542 
L 227.674939 165.751863 
L 228.131941 166.219083 
L 228.588943 166.466896 
L 229.045946 167.243129 
L 229.502948 166.648662 
L 229.959951 168.140286 
L 230.416953 160.454977 
L 230.873956 159.21508 
L 231.330958 159.649859 
L 231.787961 155.584664 
L 232.701966 168.44754 
L 233.158968 166.848932 
L 234.072973 166.511523 
L 234.529975 168.244996 
L 234.986978 168.572596 
L 235.44398 168.060313 
L 235.900983 168.185119 
L 236.814988 168.710507 
L 237.27199 168.875455 
L 237.728993 169.590081 
L 238.185995 169.900557 
L 238.642998 170.966885 
L 239.1 168.698927 
L 239.557002 167.929516 
L 240.014005 166.474448 
L 240.471007 164.270147 
L 240.92801 164.209939 
L 241.385012 159.904419 
L 241.842015 161.054433 
L 242.299017 162.588672 
L 242.75602 162.433302 
L 243.213022 159.265244 
L 243.670025 157.665428 
L 244.127027 160.303729 
L 244.584029 155.064927 
L 245.041032 155.036751 
L 245.498034 155.512968 
L 245.955037 154.061194 
L 246.412039 155.558274 
L 246.869042 152.69212 
L 247.326044 148.193871 
L 247.783047 135.699265 
L 248.240049 135.177036 
L 248.697052 131.662579 
L 249.154054 138.218911 
L 249.611057 131.923677 
L 250.068059 134.717455 
L 250.525061 136.281533 
L 250.982064 136.162436 
L 251.439066 140.784576 
L 251.896069 139.115366 
L 252.353071 132.899336 
L 252.810074 128.998655 
L 253.267076 136.702014 
L 253.724079 136.547668 
L 254.181081 133.860161 
L 254.638084 138.658049 
L 255.095086 140.87448 
L 255.552088 138.445152 
L 256.009091 137.763103 
L 256.466093 137.289841 
L 256.923096 135.395537 
L 257.380098 135.602301 
L 257.837101 136.252207 
L 258.294103 139.359255 
L 259.208108 139.919858 
L 259.665111 140.343861 
L 260.122113 141.018921 
L 260.579115 140.704492 
L 261.036118 140.04116 
L 261.49312 140.881526 
L 261.950123 141.22939 
L 262.407125 140.937196 
L 262.864128 142.159999 
L 263.778133 141.947831 
L 264.235135 142.816435 
L 264.692138 142.828244 
L 265.14914 143.113913 
L 266.063145 142.355651 
L 266.520147 143.026796 
L 267.434152 144.849666 
L 268.348157 146.311102 
L 268.80516 145.543998 
L 269.262162 147.468012 
L 269.719165 146.491406 
L 270.176167 147.244151 
L 270.63317 147.185609 
L 271.090172 148.545048 
L 271.547174 146.981801 
L 272.004177 146.16818 
L 272.461179 146.000458 
L 272.918182 147.148792 
L 273.832187 146.197982 
L 274.289189 149.326457 
L 274.746192 148.839617 
L 275.203194 146.807763 
L 275.660197 142.54896 
L 276.117199 139.767149 
L 276.574201 137.855432 
L 277.488206 125.66885 
L 277.945209 135.177846 
L 278.859214 135.810784 
L 279.316216 140.001388 
L 279.773219 140.346557 
L 280.230221 141.19304 
L 280.687224 140.099744 
L 281.144226 140.726109 
L 282.058231 139.743318 
L 282.515233 142.338046 
L 282.972236 140.081077 
L 283.429238 140.878295 
L 283.886241 133.966076 
L 284.343243 139.287117 
L 284.800246 140.702996 
L 285.257248 140.620526 
L 285.714251 141.514789 
L 286.171253 141.091021 
L 286.628256 141.73767 
L 287.54226 142.062765 
L 290.741278 143.538289 
L 291.19828 143.295408 
L 291.655283 147.335826 
L 292.112285 140.620033 
L 292.569287 144.368903 
L 293.02629 149.464714 
L 293.483292 144.000079 
L 293.940295 152.59184 
L 294.8543 158.399636 
L 296.68231 159.166901 
L 297.139312 159.562227 
L 297.596314 159.793484 
L 298.053317 158.131963 
L 298.510319 159.643892 
L 298.967322 161.631852 
L 299.424324 162.911518 
L 299.881327 163.808787 
L 300.338329 163.68466 
L 301.252334 161.684052 
L 301.709337 159.883152 
L 302.166339 160.08559 
L 302.623342 159.893441 
L 303.080344 158.975396 
L 303.537346 152.824848 
L 303.994349 149.404153 
L 304.451351 151.942899 
L 304.908354 149.484599 
L 305.365356 150.078918 
L 305.822359 146.289514 
L 306.279361 149.363487 
L 306.736364 149.410308 
L 307.193366 149.874198 
L 308.107371 153.973282 
L 309.021376 153.809086 
L 309.478378 154.041479 
L 309.935381 154.127339 
L 310.392383 154.378451 
L 310.849386 154.773764 
L 311.306388 150.840019 
L 311.763391 150.28012 
L 312.220393 141.408981 
L 312.677396 139.821863 
L 313.134398 132.462989 
L 313.5914 130.566184 
L 314.048403 127.035582 
L 314.505405 128.678613 
L 314.962408 130.750638 
L 315.41941 130.255471 
L 316.333415 130.299013 
L 316.790418 127.630108 
L 317.704423 121.214064 
L 318.161425 119.52711 
L 318.618428 119.860425 
L 319.07543 120.743834 
L 319.532432 121.008091 
L 319.989435 119.969737 
L 320.90344 120.352632 
L 321.360442 121.15048 
L 322.274447 121.796609 
L 322.73145 122.279904 
L 323.188452 122.31976 
L 324.102457 121.139945 
L 324.559459 119.910608 
L 325.016462 117.236627 
L 325.473464 119.037013 
L 325.930467 116.370089 
L 326.387469 119.454626 
L 326.844472 118.819205 
L 327.301474 118.733368 
L 327.758477 119.635293 
L 328.215479 119.648075 
L 328.672482 120.645996 
L 329.129484 122.598711 
L 329.586486 123.164141 
L 330.043489 125.123634 
L 330.500491 124.432947 
L 330.957494 126.388601 
L 331.414496 126.076444 
L 331.871499 126.3206 
L 332.328501 125.593674 
L 332.785504 124.621685 
L 333.242506 126.512852 
L 333.699509 127.00277 
L 334.156511 126.680916 
L 334.613514 126.986323 
L 335.070516 118.366667 
L 335.527518 117.824338 
L 335.984521 122.77915 
L 336.898526 123.112531 
L 337.355528 123.900678 
L 337.812531 125.503449 
L 338.726536 117.313942 
L 339.183538 117.769821 
L 339.640541 117.001864 
L 340.097543 118.392528 
L 340.554545 118.439927 
L 341.011548 117.935816 
L 341.46855 118.458899 
L 341.925553 120.426913 
L 343.29656 121.567335 
L 343.753563 120.715861 
L 344.210565 119.425833 
L 344.667568 119.577124 
L 345.12457 123.31279 
L 345.581572 121.884553 
L 346.038575 120.03266 
L 346.495577 118.755803 
L 346.95258 116.350351 
L 347.409582 118.525914 
L 347.866585 115.601809 
L 348.323587 116.889034 
L 348.78059 116.679278 
L 349.237592 117.618753 
L 349.694595 118.222925 
L 350.6086 118.281368 
L 351.065602 119.286048 
L 351.522604 119.269008 
L 351.979607 118.488095 
L 352.436609 121.532037 
L 352.893612 120.472188 
L 353.350614 115.653024 
L 353.807617 113.546022 
L 354.721622 115.114962 
L 355.178624 112.346599 
L 355.635627 111.566766 
L 356.092629 111.329067 
L 356.549631 111.446092 
L 357.463636 112.665076 
L 357.920639 113.578821 
L 358.377641 113.129716 
L 358.834644 113.089157 
L 359.291646 113.273721 
L 359.748649 112.943104 
L 360.205651 113.109786 
L 360.662654 111.931804 
L 361.576658 109.142807 
L 362.490663 107.713336 
L 362.947666 108.055287 
L 363.404668 108.653585 
L 363.861671 108.122878 
L 364.318673 108.397 
L 364.775676 108.495978 
L 365.232678 108.93043 
L 365.689681 109.104743 
L 366.603686 106.52449 
L 367.060688 106.494074 
L 367.51769 108.067027 
L 367.974693 106.41455 
L 368.888698 107.285368 
L 369.3457 107.402382 
L 369.802703 107.985943 
L 370.259705 106.551294 
L 370.716708 105.819043 
L 371.630713 98.013515 
L 372.087715 99.280991 
L 372.544717 97.969989 
L 373.00172 97.371971 
L 373.915725 95.344228 
L 374.82973 95.492509 
L 375.743735 96.235795 
L 376.65774 96.935382 
L 377.114742 99.199078 
L 377.571744 98.175174 
L 378.028747 98.077759 
L 378.942752 101.564212 
L 379.399754 99.909656 
L 379.856757 99.732459 
L 380.313759 101.288957 
L 380.770762 101.990392 
L 381.227764 102.389979 
L 381.684767 102.57497 
L 382.141769 102.616393 
L 382.598771 103.009655 
L 383.055774 102.955392 
L 383.969779 103.133651 
L 384.426781 102.216247 
L 384.883784 102.920896 
L 385.340786 107.858146 
L 385.797789 104.183344 
L 386.254791 104.695779 
L 386.711794 103.332334 
L 387.168796 104.297997 
L 387.625799 104.499299 
L 388.539803 106.366864 
L 388.996806 106.671872 
L 389.453808 107.59488 
L 389.910811 106.398408 
L 390.367813 107.686321 
L 390.824816 108.151282 
L 391.281818 108.803771 
L 392.195823 106.73106 
L 392.652826 107.146339 
L 393.56683 107.63184 
L 394.023833 108.304321 
L 394.480835 107.177671 
L 394.937838 108.153802 
L 395.39484 108.144112 
L 395.851843 107.931925 
L 396.308845 106.476833 
L 396.765848 107.036444 
L 397.22285 104.216933 
L 397.679853 104.98186 
L 398.593857 105.322968 
L 399.05086 105.582591 
L 399.507862 105.486823 
L 399.964865 105.756668 
L 400.87887 105.810283 
L 401.335872 106.355674 
L 401.792875 106.505264 
L 402.70688 107.202446 
L 403.163882 108.563523 
L 403.620885 108.324789 
L 404.077887 109.920112 
L 404.534889 109.660615 
L 404.991892 109.679238 
L 405.448894 107.718386 
L 405.905897 108.607471 
L 406.362899 108.856459 
L 406.819902 109.468967 
L 407.276904 110.304861 
L 407.733907 109.892388 
L 408.190909 110.0634 
L 408.647912 109.6067 
L 409.104914 109.782511 
L 409.561916 107.770392 
L 410.018919 106.392322 
L 410.475921 100.733987 
L 410.932924 100.426955 
L 411.389926 100.891072 
L 411.846929 99.254354 
L 412.303931 94.13331 
L 412.760934 96.152717 
L 413.217936 97.004657 
L 413.674939 96.633139 
L 414.588943 97.007253 
L 415.502948 97.894401 
L 415.959951 96.72821 
L 416.416953 97.532924 
L 416.873956 96.938157 
L 417.330958 97.591087 
L 417.787961 97.544005 
L 418.244963 97.667071 
L 418.701966 96.563055 
L 419.158968 97.283062 
L 420.072973 100.480436 
L 420.529975 101.052977 
L 420.986978 102.232743 
L 421.44398 102.43138 
L 421.900983 102.386701 
L 422.357985 104.880407 
L 422.814988 101.035059 
L 423.27199 100.656733 
L 423.728993 96.671402 
L 424.185995 94.92999 
L 424.642998 94.871443 
L 425.1 89.309436 
L 425.557002 89.388176 
L 426.014005 92.993184 
L 426.471007 92.001322 
L 426.92801 92.140084 
L 427.385012 93.844441 
L 427.842015 93.415185 
L 428.299017 92.574045 
L 428.75602 89.876707 
L 429.213022 90.664922 
L 429.670025 90.693523 
L 430.127027 89.933257 
L 430.584029 90.162585 
L 431.041032 89.525982 
L 431.498034 88.42931 
L 431.955037 89.295754 
L 432.412039 86.755335 
L 432.869042 88.327707 
L 433.326044 85.221863 
L 433.783047 84.00102 
L 434.240049 86.999064 
L 434.697052 88.7308 
L 435.154054 87.892252 
L 435.611057 84.779396 
L 436.068059 83.237748 
L 436.525061 83.328662 
L 436.982064 83.234096 
L 437.439066 82.748142 
L 437.896069 82.478945 
L 438.353071 81.989113 
L 438.810074 79.922243 
L 439.267076 79.352472 
L 439.724079 80.440136 
L 440.181081 79.452611 
L 441.552088 79.93287 
L 442.009091 79.726882 
L 442.466093 81.359167 
L 442.923096 82.003713 
L 443.380098 81.24555 
L 443.837101 81.876482 
L 444.294103 80.736218 
L 444.751106 80.063202 
L 445.208108 80.594976 
L 447.49312 81.41767 
L 447.950123 81.336699 
L 448.407125 82.00923 
L 448.864128 82.057247 
L 449.32113 80.488029 
L 449.778133 77.826261 
L 450.235135 79.057076 
L 450.692138 78.811952 
L 451.14914 80.46618 
L 452.063145 82.188951 
L 452.97715 85.680775 
L 453.434152 85.205547 
L 453.891155 87.736088 
L 454.348157 86.093079 
L 454.80516 87.443818 
L 455.262162 85.072605 
L 455.719165 85.510707 
L 456.176167 85.342853 
L 456.63317 87.014712 
L 457.547174 79.756289 
L 458.004177 78.232488 
L 458.461179 80.848228 
L 458.918182 80.06253 
L 459.375184 81.938159 
L 459.832187 79.219444 
L 460.289189 78.193065 
L 460.746192 78.251275 
L 461.203194 80.224161 
L 461.660197 81.076936 
L 462.117199 80.143531 
L 463.031204 76.490046 
L 463.488206 78.743537 
L 463.945209 78.297936 
L 464.402211 77.345929 
L 464.859214 78.765799 
L 465.773219 79.242889 
L 466.230221 79.356945 
L 466.687224 79.017445 
L 467.144226 79.002364 
L 467.601229 78.831702 
L 468.972236 79.121696 
L 469.429238 79.323532 
L 469.886241 79.375232 
L 471.714251 80.496943 
L 472.171253 80.352868 
L 473.085258 80.602445 
L 473.54226 80.400884 
L 474.456265 81.748611 
L 475.827273 82.415577 
L 476.284275 82.443251 
L 477.655283 83.952757 
L 478.112285 84.049924 
L 478.569287 83.240556 
L 479.02629 83.861569 
L 479.483292 84.810728 
L 479.940295 85.291614 
L 480.397297 84.466906 
L 480.8543 85.03106 
L 481.311302 86.164872 
L 481.768305 88.868392 
L 482.225307 86.66951 
L 482.68231 86.177181 
L 483.139312 86.969739 
L 483.596314 86.65606 
L 484.053317 84.75658 
L 484.510319 85.210514 
L 484.967322 85.883743 
L 485.881327 85.77676 
L 486.338329 84.892928 
L 486.795332 87.264467 
L 487.252334 86.519983 
L 487.709337 86.380498 
L 488.166339 86.608699 
L 488.623342 86.463803 
L 489.537346 89.004895 
L 489.994349 91.439214 
L 490.451351 91.289522 
L 490.908354 92.525331 
L 491.365356 92.38489 
L 491.822359 89.924025 
L 492.279361 90.579675 
L 492.736364 89.310095 
L 493.193366 89.52415 
L 493.650369 87.685961 
L 494.107371 86.353169 
L 494.564373 87.265245 
L 495.021376 87.271598 
L 495.478378 85.250972 
L 495.935381 84.322903 
L 496.392383 86.319092 
L 496.849386 85.721675 
L 497.306388 86.719486 
L 497.763391 86.526803 
L 499.134398 87.301023 
L 499.5914 87.392777 
L 500.048403 87.849546 
L 500.505405 87.657654 
L 500.962408 87.876361 
L 501.41941 88.76014 
L 502.333415 87.600807 
L 502.790418 86.455126 
L 503.24742 85.637898 
L 503.704423 83.776967 
L 504.161425 84.414727 
L 505.07543 89.498222 
L 505.532432 85.893074 
L 505.989435 86.868052 
L 506.446437 89.045291 
L 506.90344 88.406918 
L 507.360442 88.444079 
L 507.817445 85.502995 
L 508.274447 85.512243 
L 508.73145 83.287587 
L 509.188452 83.537779 
L 509.645455 81.513224 
L 510.102457 81.913684 
L 510.559459 83.106076 
L 511.016462 80.136496 
L 511.473464 75.929119 
L 511.930467 68.836665 
L 512.387469 67.106996 
L 512.844472 64.708686 
L 513.301474 60.705837 
L 513.758477 61.167028 
L 514.215479 59.762275 
L 514.672482 57.394665 
L 515.129484 55.8 
L 515.586486 57.460173 
L 516.043489 58.252616 
L 516.500491 57.81488 
L 516.957494 58.732351 
L 517.414496 57.647253 
L 518.328501 58.192123 
L 518.785504 58.302537 
L 519.242506 58.642227 
L 519.699509 58.40408 
L 520.613514 59.408324 
L 521.070516 57.322639 
L 521.527518 58.270211 
L 521.984521 56.711428 
L 522.441523 56.803109 
L 522.898526 56.75459 
L 523.355528 57.038924 
L 524.269533 59.730298 
L 524.726536 59.065101 
L 525.183538 60.240159 
L 525.640541 60.180213 
L 526.097543 60.404946 
L 526.554545 60.497503 
L 527.011548 60.729503 
L 527.46855 61.212711 
L 528.382555 60.844493 
L 528.839558 61.807211 
L 529.29656 62.164062 
L 529.753563 62.722321 
L 530.210565 61.987307 
L 530.667568 63.220487 
L 531.12457 60.832135 
L 531.581572 60.565085 
L 532.038575 62.194694 
L 532.95258 63.879795 
L 533.409582 65.335134 
L 533.866585 65.009438 
L 534.323587 66.546377 
L 534.78059 69.732229 
L 535.237592 69.854098 
L 535.694595 72.785507 
L 536.6086 75.034561 
L 537.065602 76.388812 
L 537.522604 74.917656 
L 537.979607 75.15239 
L 538.436609 75.22964 
L 538.893612 72.745765 
L 539.350614 71.748896 
L 539.807617 71.800182 
L 540.264619 69.879323 
L 540.721622 71.125976 
L 541.178624 69.552688 
L 542.092629 69.456917 
L 543.463636 70.228663 
L 543.920639 70.524942 
L 544.377641 71.015523 
L 544.834644 71.040697 
L 545.748649 71.385129 
L 546.205651 71.343096 
L 546.662654 71.884395 
L 548.033661 72.254777 
L 548.490663 72.964162 
L 548.947666 72.904428 
L 549.404668 73.215627 
L 549.861671 72.626194 
L 550.318673 72.896476 
L 550.775676 73.652988 
L 551.689681 74.209702 
L 552.146683 74.008616 
L 552.603686 74.076297 
L 553.060688 73.927349 
L 553.51769 73.494397 
L 553.974693 73.512463 
L 554.431695 73.767103 
L 555.3457 73.600414 
L 555.802703 73.244745 
L 557.17371 74.190996 
L 558.087715 73.723206 
L 559.00172 72.43081 
L 559.458722 72.257982 
L 559.915725 72.771323 
L 560.372727 69.196087 
L 560.372727 69.196087 
" clip-path="url(#pb6d5ddcfcd)" style="fill: none; stroke: #800080; stroke-width: 1.5; stroke-linecap: square"/>
   </g>
   <g id="patch_3">
    <path d="M 81 320.4 
L 81 43.2 
" style="fill: none; stroke: #000000; stroke-width: 0.8; stroke-linejoin: miter; stroke-linecap: square"/>
   </g>
   <g id="patch_4">
    <path d="M 583.2 320.4 
L 583.2 43.2 
" style="fill: none; stroke: #000000; stroke-width: 0.8; stroke-linejoin: miter; stroke-linecap: square"/>
   </g>
   <g id="patch_5">
    <path d="M 81 320.4 
L 583.2 320.4 
" style="fill: none; stroke: #000000; stroke-width: 0.8; stroke-linejoin: miter; stroke-linecap: square"/>
   </g>
   <g id="patch_6">
    <path d="M 81 43.2 
L 583.2 43.2 
" style="fill: none; stroke: #000000; stroke-width: 0.8; stroke-linejoin: miter; stroke-linecap: square"/>
   </g>
   <g id="text_14">
    <!-- Average Reward Over Time -->
    <g transform="translate(250.281563 37.2) scale(0.12 -0.12)">
     <defs>
      <path id="DejaVuSans-4f" d="M 2522 4238 
Q 1834 4238 1429 3725 
Q 1025 3213 1025 2328 
Q 1025 1447 1429 934 
Q 1834 422 2522 422 
Q 3209 422 3611 934 
Q 4013 1447 4013 2328 
Q 4013 3213 3611 3725 
Q 3209 4238 2522 4238 
z
M 2522 4750 
Q 3503 4750 4090 4092 
Q 4678 3434 4678 2328 
Q 4678 1225 4090 567 
Q 3503 -91 2522 -91 
Q 1538 -91 948 565 
Q 359 1222 359 2328 
Q 359 3434 948 4092 
Q 1538 4750 2522 4750 
z
" transform="scale(0.015625)"/>
     </defs>
     <use xlink:href="#DejaVuSans-41"/>
     <use xlink:href="#DejaVuSans-76" transform="translate(62.533203 0)"/>
     <use xlink:href="#DejaVuSans-65" transform="translate(121.712891 0)"/>
     <use xlink:href="#DejaVuSans-72" transform="translate(183.236328 0)"/>
     <use xlink:href="#DejaVuSans-61" transform="translate(224.349609 0)"/>
     <use xlink:href="#DejaVuSans-67" transform="translate(285.628906 0)"/>
     <use xlink:href="#DejaVuSans-65" transform="translate(349.105469 0)"/>
     <use xlink:href="#DejaVuSans-20" transform="translate(410.628906 0)"/>
     <use xlink:href="#DejaVuSans-52" transform="translate(442.416016 0)"/>
     <use xlink:href="#DejaVuSans-65" transform="translate(507.398438 0)"/>
     <use xlink:href="#DejaVuSans-77" transform="translate(568.921875 0)"/>
     <use xlink:href="#DejaVuSans-61" transform="translate(650.708984 0)"/>
     <use xlink:href="#DejaVuSans-72" transform="translate(711.988281 0)"/>
     <use xlink:href="#DejaVuSans-64" transform="translate(751.351562 0)"/>
     <use xlink:href="#DejaVuSans-20" transform="translate(814.828125 0)"/>
     <use xlink:href="#DejaVuSans-4f" transform="translate(846.615234 0)"/>
     <use xlink:href="#DejaVuSans-76" transform="translate(925.326172 0)"/>
     <use xlink:href="#DejaVuSans-65" transform="translate(984.505859 0)"/>
     <use xlink:href="#DejaVuSans-72" transform="translate(1046.029297 0)"/>
     <use xlink:href="#DejaVuSans-20" transform="translate(1087.142578 0)"/>
     <use xlink:href="#DejaVuSans-54" transform="translate(1118.929688 0)"/>
     <use xlink:href="#DejaVuSans-69" transform="translate(1176.888672 0)"/>
     <use xlink:href="#DejaVuSans-6d" transform="translate(1204.671875 0)"/>
     <use xlink:href="#DejaVuSans-65" transform="translate(1302.083984 0)"/>
    </g>
   </g>
   <g id="legend_1">
    <g id="patch_7">
     <path d="M 88 65.878125 
L 201.485938 65.878125 
Q 203.485938 65.878125 203.485938 63.878125 
L 203.485938 50.2 
Q 203.485938 48.2 201.485938 48.2 
L 88 48.2 
Q 86 48.2 86 50.2 
L 86 63.878125 
Q 86 65.878125 88 65.878125 
z
" style="fill: #ffffff; opacity: 0.8; stroke: #cccccc; stroke-linejoin: miter"/>
    </g>
    <g id="line2d_22">
     <path d="M 90 56.298437 
L 100 56.298437 
L 110 56.298437 
" style="fill: none; stroke: #800080; stroke-width: 1.5; stroke-linecap: square"/>
    </g>
    <g id="text_15">
     <!-- Average Reward -->
     <g transform="translate(118 59.798437) scale(0.1 -0.1)">
      <use xlink:href="#DejaVuSans-41"/>
      <use xlink:href="#DejaVuSans-76" transform="translate(62.533203 0)"/>
      <use xlink:href="#DejaVuSans-65" transform="translate(121.712891 0)"/>
      <use xlink:href="#DejaVuSans-72" transform="translate(183.236328 0)"/>
      <use xlink:href="#DejaVuSans-61" transform="translate(224.349609 0)"/>
      <use xlink:href="#DejaVuSans-67" transform="translate(285.628906 0)"/>
      <use xlink:href="#DejaVuSans-65" transform="translate(349.105469 0)"/>
      <use xlink:href="#DejaVuSans-20" transform="translate(410.628906 0)"/>
      <use xlink:href="#DejaVuSans-52" transform="translate(442.416016 0)"/>
      <use xlink:href="#DejaVuSans-65" transform="translate(507.398438 0)"/>
      <use xlink:href="#DejaVuSans-77" transform="translate(568.921875 0)"/>
      <use xlink:href="#DejaVuSans-61" transform="translate(650.708984 0)"/>
      <use xlink:href="#DejaVuSans-72" transform="translate(711.988281 0)"/>
      <use xlink:href="#DejaVuSans-64" transform="translate(751.351562 0)"/>
     </g>
    </g>
   </g>
  </g>
 </g>
 <defs>
  <clipPath id="pb6d5ddcfcd">
   <rect x="81" y="43.2" width="502.2" height="277.2"/>
  </clipPath>
 </defs>
</svg>
