<?xml version="1.0" encoding="utf-8" standalone="no"?>
<!DOCTYPE svg PUBLIC "-//W3C//DTD SVG 1.1//EN"
  "http://www.w3.org/Graphics/SVG/1.1/DTD/svg11.dtd">
<svg xmlns:xlink="http://www.w3.org/1999/xlink" width="648pt" height="360pt" viewBox="0 0 648 360" xmlns="http://www.w3.org/2000/svg" version="1.1">
 <metadata>
  <rdf:RDF xmlns:dc="http://purl.org/dc/elements/1.1/" xmlns:cc="http://creativecommons.org/ns#" xmlns:rdf="http://www.w3.org/1999/02/22-rdf-syntax-ns#">
   <cc:Work>
    <dc:type rdf:resource="http://purl.org/dc/dcmitype/StillImage"/>
    <dc:date>2025-09-30T16:34:13.392251</dc:date>
    <dc:format>image/svg+xml</dc:format>
    <dc:creator>
     <cc:Agent>
      <dc:title>Matplotlib v3.10.0, https://matplotlib.org/</dc:title>
     </cc:Agent>
    </dc:creator>
   </cc:Work>
  </rdf:RDF>
 </metadata>
 <defs>
  <style type="text/css">*{stroke-linejoin: round; stroke-linecap: butt}</style>
 </defs>
 <g id="figure_1">
  <g id="patch_1">
   <path d="M 0 360 
L 648 360 
L 648 0 
L 0 0 
z
" style="fill: #ffffff"/>
  </g>
  <g id="axes_1">
   <g id="patch_2">
    <path d="M 81 320.4 
L 583.2 320.4 
L 583.2 43.2 
L 81 43.2 
z
" style="fill: #ffffff"/>
   </g>
   <g id="matplotlib.axis_1">
    <g id="xtick_1">
     <g id="line2d_1">
      <path d="M 103.37027 320.4 
L 103.37027 43.2 
" clip-path="url(#p2d1cf26594)" style="fill: none; stroke: #b0b0b0; stroke-width: 0.8; stroke-linecap: square"/>
     </g>
     <g id="line2d_2">
      <defs>
       <path id="mdb445d71a5" d="M 0 0 
L 0 3.5 
" style="stroke: #000000; stroke-width: 0.8"/>
      </defs>
      <g>
       <use xlink:href="#mdb445d71a5" x="103.37027" y="320.4" style="stroke: #000000; stroke-width: 0.8"/>
      </g>
     </g>
     <g id="text_1">
      <!-- 0 -->
      <g transform="translate(100.18902 334.998438) scale(0.1 -0.1)">
       <defs>
        <path id="DejaVuSans-30" d="M 2034 4250 
Q 1547 4250 1301 3770 
Q 1056 3291 1056 2328 
Q 1056 1369 1301 889 
Q 1547 409 2034 409 
Q 2525 409 2770 889 
Q 3016 1369 3016 2328 
Q 3016 3291 2770 3770 
Q 2525 4250 2034 4250 
z
M 2034 4750 
Q 2819 4750 3233 4129 
Q 3647 3509 3647 2328 
Q 3647 1150 3233 529 
Q 2819 -91 2034 -91 
Q 1250 -91 836 529 
Q 422 1150 422 2328 
Q 422 3509 836 4129 
Q 1250 4750 2034 4750 
z
" transform="scale(0.015625)"/>
       </defs>
       <use xlink:href="#DejaVuSans-30"/>
      </g>
     </g>
    </g>
    <g id="xtick_2">
     <g id="line2d_3">
      <path d="M 194.770762 320.4 
L 194.770762 43.2 
" clip-path="url(#p2d1cf26594)" style="fill: none; stroke: #b0b0b0; stroke-width: 0.8; stroke-linecap: square"/>
     </g>
     <g id="line2d_4">
      <g>
       <use xlink:href="#mdb445d71a5" x="194.770762" y="320.4" style="stroke: #000000; stroke-width: 0.8"/>
      </g>
     </g>
     <g id="text_2">
      <!-- 200 -->
      <g transform="translate(185.227012 334.998438) scale(0.1 -0.1)">
       <defs>
        <path id="DejaVuSans-32" d="M 1228 531 
L 3431 531 
L 3431 0 
L 469 0 
L 469 531 
Q 828 903 1448 1529 
Q 2069 2156 2228 2338 
Q 2531 2678 2651 2914 
Q 2772 3150 2772 3378 
Q 2772 3750 2511 3984 
Q 2250 4219 1831 4219 
Q 1534 4219 1204 4116 
Q 875 4013 500 3803 
L 500 4441 
Q 881 4594 1212 4672 
Q 1544 4750 1819 4750 
Q 2544 4750 2975 4387 
Q 3406 4025 3406 3419 
Q 3406 3131 3298 2873 
Q 3191 2616 2906 2266 
Q 2828 2175 2409 1742 
Q 1991 1309 1228 531 
z
" transform="scale(0.015625)"/>
       </defs>
       <use xlink:href="#DejaVuSans-32"/>
       <use xlink:href="#DejaVuSans-30" transform="translate(63.623047 0)"/>
       <use xlink:href="#DejaVuSans-30" transform="translate(127.246094 0)"/>
      </g>
     </g>
    </g>
    <g id="xtick_3">
     <g id="line2d_5">
      <path d="M 286.171253 320.4 
L 286.171253 43.2 
" clip-path="url(#p2d1cf26594)" style="fill: none; stroke: #b0b0b0; stroke-width: 0.8; stroke-linecap: square"/>
     </g>
     <g id="line2d_6">
      <g>
       <use xlink:href="#mdb445d71a5" x="286.171253" y="320.4" style="stroke: #000000; stroke-width: 0.8"/>
      </g>
     </g>
     <g id="text_3">
      <!-- 400 -->
      <g transform="translate(276.627503 334.998438) scale(0.1 -0.1)">
       <defs>
        <path id="DejaVuSans-34" d="M 2419 4116 
L 825 1625 
L 2419 1625 
L 2419 4116 
z
M 2253 4666 
L 3047 4666 
L 3047 1625 
L 3713 1625 
L 3713 1100 
L 3047 1100 
L 3047 0 
L 2419 0 
L 2419 1100 
L 313 1100 
L 313 1709 
L 2253 4666 
z
" transform="scale(0.015625)"/>
       </defs>
       <use xlink:href="#DejaVuSans-34"/>
       <use xlink:href="#DejaVuSans-30" transform="translate(63.623047 0)"/>
       <use xlink:href="#DejaVuSans-30" transform="translate(127.246094 0)"/>
      </g>
     </g>
    </g>
    <g id="xtick_4">
     <g id="line2d_7">
      <path d="M 377.571744 320.4 
L 377.571744 43.2 
" clip-path="url(#p2d1cf26594)" style="fill: none; stroke: #b0b0b0; stroke-width: 0.8; stroke-linecap: square"/>
     </g>
     <g id="line2d_8">
      <g>
       <use xlink:href="#mdb445d71a5" x="377.571744" y="320.4" style="stroke: #000000; stroke-width: 0.8"/>
      </g>
     </g>
     <g id="text_4">
      <!-- 600 -->
      <g transform="translate(368.027994 334.998438) scale(0.1 -0.1)">
       <defs>
        <path id="DejaVuSans-36" d="M 2113 2584 
Q 1688 2584 1439 2293 
Q 1191 2003 1191 1497 
Q 1191 994 1439 701 
Q 1688 409 2113 409 
Q 2538 409 2786 701 
Q 3034 994 3034 1497 
Q 3034 2003 2786 2293 
Q 2538 2584 2113 2584 
z
M 3366 4563 
L 3366 3988 
Q 3128 4100 2886 4159 
Q 2644 4219 2406 4219 
Q 1781 4219 1451 3797 
Q 1122 3375 1075 2522 
Q 1259 2794 1537 2939 
Q 1816 3084 2150 3084 
Q 2853 3084 3261 2657 
Q 3669 2231 3669 1497 
Q 3669 778 3244 343 
Q 2819 -91 2113 -91 
Q 1303 -91 875 529 
Q 447 1150 447 2328 
Q 447 3434 972 4092 
Q 1497 4750 2381 4750 
Q 2619 4750 2861 4703 
Q 3103 4656 3366 4563 
z
" transform="scale(0.015625)"/>
       </defs>
       <use xlink:href="#DejaVuSans-36"/>
       <use xlink:href="#DejaVuSans-30" transform="translate(63.623047 0)"/>
       <use xlink:href="#DejaVuSans-30" transform="translate(127.246094 0)"/>
      </g>
     </g>
    </g>
    <g id="xtick_5">
     <g id="line2d_9">
      <path d="M 468.972236 320.4 
L 468.972236 43.2 
" clip-path="url(#p2d1cf26594)" style="fill: none; stroke: #b0b0b0; stroke-width: 0.8; stroke-linecap: square"/>
     </g>
     <g id="line2d_10">
      <g>
       <use xlink:href="#mdb445d71a5" x="468.972236" y="320.4" style="stroke: #000000; stroke-width: 0.8"/>
      </g>
     </g>
     <g id="text_5">
      <!-- 800 -->
      <g transform="translate(459.428486 334.998438) scale(0.1 -0.1)">
       <defs>
        <path id="DejaVuSans-38" d="M 2034 2216 
Q 1584 2216 1326 1975 
Q 1069 1734 1069 1313 
Q 1069 891 1326 650 
Q 1584 409 2034 409 
Q 2484 409 2743 651 
Q 3003 894 3003 1313 
Q 3003 1734 2745 1975 
Q 2488 2216 2034 2216 
z
M 1403 2484 
Q 997 2584 770 2862 
Q 544 3141 544 3541 
Q 544 4100 942 4425 
Q 1341 4750 2034 4750 
Q 2731 4750 3128 4425 
Q 3525 4100 3525 3541 
Q 3525 3141 3298 2862 
Q 3072 2584 2669 2484 
Q 3125 2378 3379 2068 
Q 3634 1759 3634 1313 
Q 3634 634 3220 271 
Q 2806 -91 2034 -91 
Q 1263 -91 848 271 
Q 434 634 434 1313 
Q 434 1759 690 2068 
Q 947 2378 1403 2484 
z
M 1172 3481 
Q 1172 3119 1398 2916 
Q 1625 2713 2034 2713 
Q 2441 2713 2670 2916 
Q 2900 3119 2900 3481 
Q 2900 3844 2670 4047 
Q 2441 4250 2034 4250 
Q 1625 4250 1398 4047 
Q 1172 3844 1172 3481 
z
" transform="scale(0.015625)"/>
       </defs>
       <use xlink:href="#DejaVuSans-38"/>
       <use xlink:href="#DejaVuSans-30" transform="translate(63.623047 0)"/>
       <use xlink:href="#DejaVuSans-30" transform="translate(127.246094 0)"/>
      </g>
     </g>
    </g>
    <g id="xtick_6">
     <g id="line2d_11">
      <path d="M 560.372727 320.4 
L 560.372727 43.2 
" clip-path="url(#p2d1cf26594)" style="fill: none; stroke: #b0b0b0; stroke-width: 0.8; stroke-linecap: square"/>
     </g>
     <g id="line2d_12">
      <g>
       <use xlink:href="#mdb445d71a5" x="560.372727" y="320.4" style="stroke: #000000; stroke-width: 0.8"/>
      </g>
     </g>
     <g id="text_6">
      <!-- 1000 -->
      <g transform="translate(547.647727 334.998438) scale(0.1 -0.1)">
       <defs>
        <path id="DejaVuSans-31" d="M 794 531 
L 1825 531 
L 1825 4091 
L 703 3866 
L 703 4441 
L 1819 4666 
L 2450 4666 
L 2450 531 
L 3481 531 
L 3481 0 
L 794 0 
L 794 531 
z
" transform="scale(0.015625)"/>
       </defs>
       <use xlink:href="#DejaVuSans-31"/>
       <use xlink:href="#DejaVuSans-30" transform="translate(63.623047 0)"/>
       <use xlink:href="#DejaVuSans-30" transform="translate(127.246094 0)"/>
       <use xlink:href="#DejaVuSans-30" transform="translate(190.869141 0)"/>
      </g>
     </g>
    </g>
    <g id="text_7">
     <!-- Time -->
     <g transform="translate(319.866406 348.676562) scale(0.1 -0.1)">
      <defs>
       <path id="DejaVuSans-54" d="M -19 4666 
L 3928 4666 
L 3928 4134 
L 2272 4134 
L 2272 0 
L 1638 0 
L 1638 4134 
L -19 4134 
L -19 4666 
z
" transform="scale(0.015625)"/>
       <path id="DejaVuSans-69" d="M 603 3500 
L 1178 3500 
L 1178 0 
L 603 0 
L 603 3500 
z
M 603 4863 
L 1178 4863 
L 1178 4134 
L 603 4134 
L 603 4863 
z
" transform="scale(0.015625)"/>
       <path id="DejaVuSans-6d" d="M 3328 2828 
Q 3544 3216 3844 3400 
Q 4144 3584 4550 3584 
Q 5097 3584 5394 3201 
Q 5691 2819 5691 2113 
L 5691 0 
L 5113 0 
L 5113 2094 
Q 5113 2597 4934 2840 
Q 4756 3084 4391 3084 
Q 3944 3084 3684 2787 
Q 3425 2491 3425 1978 
L 3425 0 
L 2847 0 
L 2847 2094 
Q 2847 2600 2669 2842 
Q 2491 3084 2119 3084 
Q 1678 3084 1418 2786 
Q 1159 2488 1159 1978 
L 1159 0 
L 581 0 
L 581 3500 
L 1159 3500 
L 1159 2956 
Q 1356 3278 1631 3431 
Q 1906 3584 2284 3584 
Q 2666 3584 2933 3390 
Q 3200 3197 3328 2828 
z
" transform="scale(0.015625)"/>
       <path id="DejaVuSans-65" d="M 3597 1894 
L 3597 1613 
L 953 1613 
Q 991 1019 1311 708 
Q 1631 397 2203 397 
Q 2534 397 2845 478 
Q 3156 559 3463 722 
L 3463 178 
Q 3153 47 2828 -22 
Q 2503 -91 2169 -91 
Q 1331 -91 842 396 
Q 353 884 353 1716 
Q 353 2575 817 3079 
Q 1281 3584 2069 3584 
Q 2775 3584 3186 3129 
Q 3597 2675 3597 1894 
z
M 3022 2063 
Q 3016 2534 2758 2815 
Q 2500 3097 2075 3097 
Q 1594 3097 1305 2825 
Q 1016 2553 972 2059 
L 3022 2063 
z
" transform="scale(0.015625)"/>
      </defs>
      <use xlink:href="#DejaVuSans-54"/>
      <use xlink:href="#DejaVuSans-69" transform="translate(57.958984 0)"/>
      <use xlink:href="#DejaVuSans-6d" transform="translate(85.742188 0)"/>
      <use xlink:href="#DejaVuSans-65" transform="translate(183.154297 0)"/>
     </g>
    </g>
   </g>
   <g id="matplotlib.axis_2">
    <g id="ytick_1">
     <g id="line2d_13">
      <path d="M 81 282.26029 
L 583.2 282.26029 
" clip-path="url(#p2d1cf26594)" style="fill: none; stroke: #b0b0b0; stroke-width: 0.8; stroke-linecap: square"/>
     </g>
     <g id="line2d_14">
      <defs>
       <path id="mb6066a0209" d="M 0 0 
L -3.5 0 
" style="stroke: #000000; stroke-width: 0.8"/>
      </defs>
      <g>
       <use xlink:href="#mb6066a0209" x="81" y="282.26029" style="stroke: #000000; stroke-width: 0.8"/>
      </g>
     </g>
     <g id="text_8">
      <!-- −0.0020 -->
      <g transform="translate(30.629687 286.059509) scale(0.1 -0.1)">
       <defs>
        <path id="DejaVuSans-2212" d="M 678 2272 
L 4684 2272 
L 4684 1741 
L 678 1741 
L 678 2272 
z
" transform="scale(0.015625)"/>
        <path id="DejaVuSans-2e" d="M 684 794 
L 1344 794 
L 1344 0 
L 684 0 
L 684 794 
z
" transform="scale(0.015625)"/>
       </defs>
       <use xlink:href="#DejaVuSans-2212"/>
       <use xlink:href="#DejaVuSans-30" transform="translate(83.789062 0)"/>
       <use xlink:href="#DejaVuSans-2e" transform="translate(147.412109 0)"/>
       <use xlink:href="#DejaVuSans-30" transform="translate(179.199219 0)"/>
       <use xlink:href="#DejaVuSans-30" transform="translate(242.822266 0)"/>
       <use xlink:href="#DejaVuSans-32" transform="translate(306.445312 0)"/>
       <use xlink:href="#DejaVuSans-30" transform="translate(370.068359 0)"/>
      </g>
     </g>
    </g>
    <g id="ytick_2">
     <g id="line2d_15">
      <path d="M 81 242.269374 
L 583.2 242.269374 
" clip-path="url(#p2d1cf26594)" style="fill: none; stroke: #b0b0b0; stroke-width: 0.8; stroke-linecap: square"/>
     </g>
     <g id="line2d_16">
      <g>
       <use xlink:href="#mb6066a0209" x="81" y="242.269374" style="stroke: #000000; stroke-width: 0.8"/>
      </g>
     </g>
     <g id="text_9">
      <!-- −0.0015 -->
      <g transform="translate(30.629687 246.068593) scale(0.1 -0.1)">
       <defs>
        <path id="DejaVuSans-35" d="M 691 4666 
L 3169 4666 
L 3169 4134 
L 1269 4134 
L 1269 2991 
Q 1406 3038 1543 3061 
Q 1681 3084 1819 3084 
Q 2600 3084 3056 2656 
Q 3513 2228 3513 1497 
Q 3513 744 3044 326 
Q 2575 -91 1722 -91 
Q 1428 -91 1123 -41 
Q 819 9 494 109 
L 494 744 
Q 775 591 1075 516 
Q 1375 441 1709 441 
Q 2250 441 2565 725 
Q 2881 1009 2881 1497 
Q 2881 1984 2565 2268 
Q 2250 2553 1709 2553 
Q 1456 2553 1204 2497 
Q 953 2441 691 2322 
L 691 4666 
z
" transform="scale(0.015625)"/>
       </defs>
       <use xlink:href="#DejaVuSans-2212"/>
       <use xlink:href="#DejaVuSans-30" transform="translate(83.789062 0)"/>
       <use xlink:href="#DejaVuSans-2e" transform="translate(147.412109 0)"/>
       <use xlink:href="#DejaVuSans-30" transform="translate(179.199219 0)"/>
       <use xlink:href="#DejaVuSans-30" transform="translate(242.822266 0)"/>
       <use xlink:href="#DejaVuSans-31" transform="translate(306.445312 0)"/>
       <use xlink:href="#DejaVuSans-35" transform="translate(370.068359 0)"/>
      </g>
     </g>
    </g>
    <g id="ytick_3">
     <g id="line2d_17">
      <path d="M 81 202.278458 
L 583.2 202.278458 
" clip-path="url(#p2d1cf26594)" style="fill: none; stroke: #b0b0b0; stroke-width: 0.8; stroke-linecap: square"/>
     </g>
     <g id="line2d_18">
      <g>
       <use xlink:href="#mb6066a0209" x="81" y="202.278458" style="stroke: #000000; stroke-width: 0.8"/>
      </g>
     </g>
     <g id="text_10">
      <!-- −0.0010 -->
      <g transform="translate(30.629687 206.077677) scale(0.1 -0.1)">
       <use xlink:href="#DejaVuSans-2212"/>
       <use xlink:href="#DejaVuSans-30" transform="translate(83.789062 0)"/>
       <use xlink:href="#DejaVuSans-2e" transform="translate(147.412109 0)"/>
       <use xlink:href="#DejaVuSans-30" transform="translate(179.199219 0)"/>
       <use xlink:href="#DejaVuSans-30" transform="translate(242.822266 0)"/>
       <use xlink:href="#DejaVuSans-31" transform="translate(306.445312 0)"/>
       <use xlink:href="#DejaVuSans-30" transform="translate(370.068359 0)"/>
      </g>
     </g>
    </g>
    <g id="ytick_4">
     <g id="line2d_19">
      <path d="M 81 162.287542 
L 583.2 162.287542 
" clip-path="url(#p2d1cf26594)" style="fill: none; stroke: #b0b0b0; stroke-width: 0.8; stroke-linecap: square"/>
     </g>
     <g id="line2d_20">
      <g>
       <use xlink:href="#mb6066a0209" x="81" y="162.287542" style="stroke: #000000; stroke-width: 0.8"/>
      </g>
     </g>
     <g id="text_11">
      <!-- −0.0005 -->
      <g transform="translate(30.629687 166.08676) scale(0.1 -0.1)">
       <use xlink:href="#DejaVuSans-2212"/>
       <use xlink:href="#DejaVuSans-30" transform="translate(83.789062 0)"/>
       <use xlink:href="#DejaVuSans-2e" transform="translate(147.412109 0)"/>
       <use xlink:href="#DejaVuSans-30" transform="translate(179.199219 0)"/>
       <use xlink:href="#DejaVuSans-30" transform="translate(242.822266 0)"/>
       <use xlink:href="#DejaVuSans-30" transform="translate(306.445312 0)"/>
       <use xlink:href="#DejaVuSans-35" transform="translate(370.068359 0)"/>
      </g>
     </g>
    </g>
    <g id="ytick_5">
     <g id="line2d_21">
      <path d="M 81 122.296625 
L 583.2 122.296625 
" clip-path="url(#p2d1cf26594)" style="fill: none; stroke: #b0b0b0; stroke-width: 0.8; stroke-linecap: square"/>
     </g>
     <g id="line2d_22">
      <g>
       <use xlink:href="#mb6066a0209" x="81" y="122.296625" style="stroke: #000000; stroke-width: 0.8"/>
      </g>
     </g>
     <g id="text_12">
      <!-- 0.0000 -->
      <g transform="translate(39.009375 126.095844) scale(0.1 -0.1)">
       <use xlink:href="#DejaVuSans-30"/>
       <use xlink:href="#DejaVuSans-2e" transform="translate(63.623047 0)"/>
       <use xlink:href="#DejaVuSans-30" transform="translate(95.410156 0)"/>
       <use xlink:href="#DejaVuSans-30" transform="translate(159.033203 0)"/>
       <use xlink:href="#DejaVuSans-30" transform="translate(222.65625 0)"/>
       <use xlink:href="#DejaVuSans-30" transform="translate(286.279297 0)"/>
      </g>
     </g>
    </g>
    <g id="ytick_6">
     <g id="line2d_23">
      <path d="M 81 82.305709 
L 583.2 82.305709 
" clip-path="url(#p2d1cf26594)" style="fill: none; stroke: #b0b0b0; stroke-width: 0.8; stroke-linecap: square"/>
     </g>
     <g id="line2d_24">
      <g>
       <use xlink:href="#mb6066a0209" x="81" y="82.305709" style="stroke: #000000; stroke-width: 0.8"/>
      </g>
     </g>
     <g id="text_13">
      <!-- 0.0005 -->
      <g transform="translate(39.009375 86.104928) scale(0.1 -0.1)">
       <use xlink:href="#DejaVuSans-30"/>
       <use xlink:href="#DejaVuSans-2e" transform="translate(63.623047 0)"/>
       <use xlink:href="#DejaVuSans-30" transform="translate(95.410156 0)"/>
       <use xlink:href="#DejaVuSans-30" transform="translate(159.033203 0)"/>
       <use xlink:href="#DejaVuSans-30" transform="translate(222.65625 0)"/>
       <use xlink:href="#DejaVuSans-35" transform="translate(286.279297 0)"/>
      </g>
     </g>
    </g>
    <g id="text_14">
     <!-- Average Reward -->
     <g transform="translate(24.55 222.542969) rotate(-90) scale(0.1 -0.1)">
      <defs>
       <path id="DejaVuSans-41" d="M 2188 4044 
L 1331 1722 
L 3047 1722 
L 2188 4044 
z
M 1831 4666 
L 2547 4666 
L 4325 0 
L 3669 0 
L 3244 1197 
L 1141 1197 
L 716 0 
L 50 0 
L 1831 4666 
z
" transform="scale(0.015625)"/>
       <path id="DejaVuSans-76" d="M 191 3500 
L 800 3500 
L 1894 563 
L 2988 3500 
L 3597 3500 
L 2284 0 
L 1503 0 
L 191 3500 
z
" transform="scale(0.015625)"/>
       <path id="DejaVuSans-72" d="M 2631 2963 
Q 2534 3019 2420 3045 
Q 2306 3072 2169 3072 
Q 1681 3072 1420 2755 
Q 1159 2438 1159 1844 
L 1159 0 
L 581 0 
L 581 3500 
L 1159 3500 
L 1159 2956 
Q 1341 3275 1631 3429 
Q 1922 3584 2338 3584 
Q 2397 3584 2469 3576 
Q 2541 3569 2628 3553 
L 2631 2963 
z
" transform="scale(0.015625)"/>
       <path id="DejaVuSans-61" d="M 2194 1759 
Q 1497 1759 1228 1600 
Q 959 1441 959 1056 
Q 959 750 1161 570 
Q 1363 391 1709 391 
Q 2188 391 2477 730 
Q 2766 1069 2766 1631 
L 2766 1759 
L 2194 1759 
z
M 3341 1997 
L 3341 0 
L 2766 0 
L 2766 531 
Q 2569 213 2275 61 
Q 1981 -91 1556 -91 
Q 1019 -91 701 211 
Q 384 513 384 1019 
Q 384 1609 779 1909 
Q 1175 2209 1959 2209 
L 2766 2209 
L 2766 2266 
Q 2766 2663 2505 2880 
Q 2244 3097 1772 3097 
Q 1472 3097 1187 3025 
Q 903 2953 641 2809 
L 641 3341 
Q 956 3463 1253 3523 
Q 1550 3584 1831 3584 
Q 2591 3584 2966 3190 
Q 3341 2797 3341 1997 
z
" transform="scale(0.015625)"/>
       <path id="DejaVuSans-67" d="M 2906 1791 
Q 2906 2416 2648 2759 
Q 2391 3103 1925 3103 
Q 1463 3103 1205 2759 
Q 947 2416 947 1791 
Q 947 1169 1205 825 
Q 1463 481 1925 481 
Q 2391 481 2648 825 
Q 2906 1169 2906 1791 
z
M 3481 434 
Q 3481 -459 3084 -895 
Q 2688 -1331 1869 -1331 
Q 1566 -1331 1297 -1286 
Q 1028 -1241 775 -1147 
L 775 -588 
Q 1028 -725 1275 -790 
Q 1522 -856 1778 -856 
Q 2344 -856 2625 -561 
Q 2906 -266 2906 331 
L 2906 616 
Q 2728 306 2450 153 
Q 2172 0 1784 0 
Q 1141 0 747 490 
Q 353 981 353 1791 
Q 353 2603 747 3093 
Q 1141 3584 1784 3584 
Q 2172 3584 2450 3431 
Q 2728 3278 2906 2969 
L 2906 3500 
L 3481 3500 
L 3481 434 
z
" transform="scale(0.015625)"/>
       <path id="DejaVuSans-20" transform="scale(0.015625)"/>
       <path id="DejaVuSans-52" d="M 2841 2188 
Q 3044 2119 3236 1894 
Q 3428 1669 3622 1275 
L 4263 0 
L 3584 0 
L 2988 1197 
Q 2756 1666 2539 1819 
Q 2322 1972 1947 1972 
L 1259 1972 
L 1259 0 
L 628 0 
L 628 4666 
L 2053 4666 
Q 2853 4666 3247 4331 
Q 3641 3997 3641 3322 
Q 3641 2881 3436 2590 
Q 3231 2300 2841 2188 
z
M 1259 4147 
L 1259 2491 
L 2053 2491 
Q 2509 2491 2742 2702 
Q 2975 2913 2975 3322 
Q 2975 3731 2742 3939 
Q 2509 4147 2053 4147 
L 1259 4147 
z
" transform="scale(0.015625)"/>
       <path id="DejaVuSans-77" d="M 269 3500 
L 844 3500 
L 1563 769 
L 2278 3500 
L 2956 3500 
L 3675 769 
L 4391 3500 
L 4966 3500 
L 4050 0 
L 3372 0 
L 2619 2869 
L 1863 0 
L 1184 0 
L 269 3500 
z
" transform="scale(0.015625)"/>
       <path id="DejaVuSans-64" d="M 2906 2969 
L 2906 4863 
L 3481 4863 
L 3481 0 
L 2906 0 
L 2906 525 
Q 2725 213 2448 61 
Q 2172 -91 1784 -91 
Q 1150 -91 751 415 
Q 353 922 353 1747 
Q 353 2572 751 3078 
Q 1150 3584 1784 3584 
Q 2172 3584 2448 3432 
Q 2725 3281 2906 2969 
z
M 947 1747 
Q 947 1113 1208 752 
Q 1469 391 1925 391 
Q 2381 391 2643 752 
Q 2906 1113 2906 1747 
Q 2906 2381 2643 2742 
Q 2381 3103 1925 3103 
Q 1469 3103 1208 2742 
Q 947 2381 947 1747 
z
" transform="scale(0.015625)"/>
      </defs>
      <use xlink:href="#DejaVuSans-41"/>
      <use xlink:href="#DejaVuSans-76" transform="translate(62.533203 0)"/>
      <use xlink:href="#DejaVuSans-65" transform="translate(121.712891 0)"/>
      <use xlink:href="#DejaVuSans-72" transform="translate(183.236328 0)"/>
      <use xlink:href="#DejaVuSans-61" transform="translate(224.349609 0)"/>
      <use xlink:href="#DejaVuSans-67" transform="translate(285.628906 0)"/>
      <use xlink:href="#DejaVuSans-65" transform="translate(349.105469 0)"/>
      <use xlink:href="#DejaVuSans-20" transform="translate(410.628906 0)"/>
      <use xlink:href="#DejaVuSans-52" transform="translate(442.416016 0)"/>
      <use xlink:href="#DejaVuSans-65" transform="translate(507.398438 0)"/>
      <use xlink:href="#DejaVuSans-77" transform="translate(568.921875 0)"/>
      <use xlink:href="#DejaVuSans-61" transform="translate(650.708984 0)"/>
      <use xlink:href="#DejaVuSans-72" transform="translate(711.988281 0)"/>
      <use xlink:href="#DejaVuSans-64" transform="translate(751.351562 0)"/>
     </g>
    </g>
   </g>
   <g id="line2d_25">
    <path d="M 103.827273 135.711574 
L 104.284275 142.689798 
L 104.741278 182.528764 
L 105.19828 115.690133 
L 105.655283 68.346064 
L 106.569287 269.28785 
L 107.02629 206.560503 
L 107.483292 238.335216 
L 107.940295 200.629519 
L 108.397297 146.259827 
L 109.311302 237.397504 
L 109.768305 164.124409 
L 110.225307 128.294464 
L 110.68231 125.786858 
L 111.139312 146.651445 
L 111.596314 149.302951 
L 112.053317 170.921493 
L 112.510319 119.368259 
L 112.967322 133.631042 
L 113.424324 82.401971 
L 113.881327 87.589526 
L 114.338329 118.968289 
L 114.795332 129.822511 
L 115.252334 212.901541 
L 115.709337 220.149757 
L 116.166339 229.233422 
L 116.623342 206.245752 
L 117.080344 258.750552 
L 117.537346 221.334437 
L 117.994349 199.813295 
L 118.451351 171.765427 
L 118.908354 176.590502 
L 119.365356 153.132938 
L 119.822359 190.892842 
L 120.279361 175.555571 
L 120.736364 185.475926 
L 121.193366 216.134518 
L 121.650369 238.485686 
L 122.107371 233.841702 
L 122.564373 246.32338 
L 123.021376 238.013433 
L 123.478378 268.869382 
L 123.935381 307.8 
L 124.392383 280.232913 
L 124.849386 266.758321 
L 125.306388 286.283788 
L 125.763391 286.255132 
L 126.220393 272.960933 
L 127.134398 261.142002 
L 127.5914 246.033613 
L 128.048403 253.622818 
L 128.505405 249.728954 
L 128.962408 248.302547 
L 129.876413 251.901347 
L 130.790418 244.78345 
L 131.24742 252.363426 
L 131.704423 239.077467 
L 132.161425 246.153739 
L 132.618428 246.072328 
L 133.07543 244.722285 
L 133.532432 239.547114 
L 133.989435 256.778726 
L 134.446437 245.534734 
L 134.90344 249.895431 
L 135.360442 236.440505 
L 135.817445 241.818936 
L 136.274447 241.799855 
L 136.73145 223.210852 
L 137.188452 226.889934 
L 137.645455 214.688966 
L 138.102457 214.272025 
L 138.559459 211.766881 
L 139.016462 213.028368 
L 139.473464 209.039446 
L 139.930467 216.29944 
L 140.387469 226.585677 
L 140.844472 231.71308 
L 141.301474 231.005024 
L 141.758477 232.135835 
L 142.215479 226.729802 
L 142.672482 214.776859 
L 143.129484 222.220051 
L 143.586486 227.604019 
L 144.043489 241.897305 
L 144.500491 226.944177 
L 144.957494 225.792772 
L 145.414496 220.839809 
L 145.871499 228.67031 
L 146.328501 226.922993 
L 146.785504 222.75439 
L 147.242506 224.183332 
L 147.699509 217.333853 
L 148.156511 201.741436 
L 148.613514 207.32745 
L 149.527518 220.390144 
L 150.441523 197.693362 
L 150.898526 198.312379 
L 151.355528 196.839438 
L 151.812531 201.240146 
L 152.269533 193.520501 
L 152.726536 196.517034 
L 153.183538 197.7436 
L 153.640541 190.487036 
L 154.097543 189.38826 
L 154.554545 189.227897 
L 155.011548 188.208011 
L 155.46855 180.905438 
L 155.925553 168.238841 
L 156.839558 157.035281 
L 157.29656 158.051058 
L 157.753563 160.280129 
L 158.210565 155.096208 
L 158.667568 152.726797 
L 159.12457 162.747829 
L 159.581572 163.515626 
L 160.038575 164.936544 
L 160.495577 168.14642 
L 160.95258 159.514629 
L 161.409582 156.737871 
L 161.866585 148.456309 
L 162.323587 147.062254 
L 162.78059 146.58937 
L 163.237592 150.046221 
L 163.694595 149.68234 
L 164.151597 149.01043 
L 164.6086 154.953771 
L 165.065602 157.937216 
L 165.522604 159.106479 
L 165.979607 157.764198 
L 166.436609 155.329099 
L 166.893612 158.104666 
L 167.350614 155.359458 
L 167.807617 156.046006 
L 168.264619 170.47431 
L 168.721622 170.565487 
L 169.178624 163.418865 
L 169.635627 170.813541 
L 170.092629 167.873605 
L 170.549631 156.827697 
L 171.006634 160.483498 
L 171.463636 157.932498 
L 171.920639 166.330581 
L 172.377641 155.036909 
L 172.834644 155.063861 
L 173.291646 153.742149 
L 173.748649 144.687006 
L 174.205651 139.193876 
L 174.662654 145.600195 
L 175.119656 149.773391 
L 175.576658 146.796482 
L 176.033661 150.194228 
L 176.490663 160.162359 
L 176.947666 159.754978 
L 177.404668 166.305399 
L 177.861671 157.168861 
L 178.318673 156.34595 
L 179.232678 165.980443 
L 179.689681 175.307243 
L 180.146683 181.342772 
L 180.603686 177.753797 
L 181.060688 166.923668 
L 181.51769 163.864823 
L 181.974693 164.422977 
L 182.431695 166.157916 
L 182.888698 170.99615 
L 183.3457 160.496795 
L 183.802703 162.490036 
L 184.259705 153.355607 
L 184.716708 146.580956 
L 185.17371 155.809257 
L 186.087715 164.17446 
L 186.544717 164.463424 
L 187.00172 165.073843 
L 187.458722 152.830264 
L 187.915725 157.759446 
L 188.372727 156.693723 
L 188.82973 153.131779 
L 189.286732 152.819953 
L 189.743735 152.223441 
L 190.200737 156.736286 
L 190.65774 155.725882 
L 192.028747 146.898949 
L 192.942752 134.658595 
L 193.399754 133.095473 
L 193.856757 137.427714 
L 194.313759 140.533301 
L 194.770762 142.747723 
L 195.227764 141.992385 
L 195.684767 144.469696 
L 196.598771 157.613591 
L 197.055774 165.49392 
L 197.512776 165.859118 
L 197.969779 172.407141 
L 198.426781 177.034694 
L 198.883784 178.64235 
L 199.340786 184.373747 
L 199.797789 181.742828 
L 200.254791 177.895579 
L 201.168796 179.755205 
L 201.625799 176.576764 
L 202.082801 179.056295 
L 202.539803 180.85961 
L 202.996806 174.321912 
L 204.367813 159.808466 
L 204.824816 165.437149 
L 205.281818 158.874448 
L 205.738821 154.581525 
L 206.195823 148.537045 
L 206.652826 144.88556 
L 207.56683 142.44845 
L 208.023833 138.640302 
L 208.480835 138.472691 
L 208.937838 133.938872 
L 209.39484 137.662349 
L 209.851843 137.116203 
L 210.308845 128.833721 
L 210.765848 129.269849 
L 211.22285 127.920258 
L 211.679853 128.732445 
L 212.136855 125.48428 
L 212.593857 126.305882 
L 213.05086 125.953794 
L 213.507862 120.831934 
L 213.964865 122.346828 
L 214.87887 115.198899 
L 215.335872 111.699834 
L 215.792875 111.341095 
L 216.249877 100.89847 
L 216.70688 97.547808 
L 217.163882 96.574288 
L 217.620885 98.808066 
L 218.077887 98.32309 
L 219.448894 83.251084 
L 219.905897 80.798163 
L 220.362899 85.726603 
L 220.819902 84.736272 
L 221.733907 93.027612 
L 222.190909 92.438562 
L 222.647912 90.796604 
L 223.104914 87.773246 
L 224.018919 84.517688 
L 224.475921 87.213443 
L 224.932924 87.719715 
L 225.389926 91.286107 
L 225.846929 96.832746 
L 226.303931 94.480608 
L 226.760934 96.523184 
L 227.674939 91.538196 
L 228.131941 93.858146 
L 228.588943 92.256583 
L 229.045946 93.865351 
L 229.502948 99.158132 
L 229.959951 98.693591 
L 230.873956 100.551374 
L 231.330958 95.244381 
L 231.787961 99.917643 
L 232.244963 99.044744 
L 232.701966 101.709444 
L 233.158968 99.7203 
L 233.615971 99.494689 
L 234.072973 98.941374 
L 234.986978 102.827246 
L 235.44398 100.681531 
L 235.900983 96.68996 
L 236.357985 95.79886 
L 236.814988 98.203773 
L 237.27199 98.100572 
L 237.728993 92.666674 
L 238.185995 92.806685 
L 238.642998 89.448843 
L 239.1 91.444553 
L 239.557002 91.723729 
L 240.014005 90.229984 
L 240.471007 89.502592 
L 241.385012 94.358317 
L 242.299017 88.268635 
L 243.213022 79.490839 
L 243.670025 79.585688 
L 244.127027 80.564263 
L 244.584029 76.976169 
L 245.041032 74.658652 
L 245.955037 80.348316 
L 246.412039 79.013457 
L 246.869042 79.699924 
L 247.326044 79.728959 
L 248.240049 75.128848 
L 248.697052 71.314423 
L 249.154054 77.088418 
L 249.611057 76.733499 
L 250.068059 74.170707 
L 250.525061 78.512119 
L 250.982064 79.936508 
L 251.439066 82.23972 
L 251.896069 82.184978 
L 252.353071 78.065018 
L 252.810074 72.744026 
L 253.267076 75.130291 
L 254.181081 72.569904 
L 254.638084 72.364469 
L 255.095086 70.987798 
L 255.552088 70.506005 
L 256.009091 66.369336 
L 256.466093 63.511891 
L 256.923096 65.466354 
L 257.380098 63.403112 
L 257.837101 60.745013 
L 258.294103 59.793353 
L 258.751106 56.405685 
L 259.208108 55.8 
L 259.665111 56.308147 
L 260.122113 56.245296 
L 260.579115 62.55526 
L 261.036118 62.764445 
L 261.49312 65.337194 
L 261.950123 68.697205 
L 262.407125 65.21213 
L 262.864128 65.324722 
L 263.32113 66.004958 
L 263.778133 68.559997 
L 264.235135 68.470869 
L 264.692138 66.939418 
L 265.14914 69.599774 
L 265.606143 70.439447 
L 266.063145 69.181281 
L 266.520147 75.2939 
L 266.97715 76.257431 
L 267.434152 77.964099 
L 267.891155 79.147224 
L 268.348157 81.288567 
L 268.80516 80.933633 
L 269.262162 76.964173 
L 269.719165 77.903988 
L 270.176167 77.555181 
L 270.63317 73.487387 
L 271.090172 75.658447 
L 271.547174 72.334711 
L 272.004177 72.503785 
L 272.461179 69.36235 
L 272.918182 68.027756 
L 273.375184 67.714626 
L 273.832187 68.371575 
L 274.289189 70.705658 
L 274.746192 70.999153 
L 275.203194 68.975414 
L 275.660197 69.681315 
L 276.117199 71.468531 
L 276.574201 72.778655 
L 277.031204 71.6902 
L 277.488206 69.903397 
L 278.402211 73.794892 
L 278.859214 73.311396 
L 279.773219 69.616698 
L 280.230221 71.727763 
L 280.687224 72.428608 
L 281.144226 74.645227 
L 281.601229 75.543889 
L 282.058231 73.098545 
L 282.972236 78.000763 
L 283.429238 79.397411 
L 283.886241 78.975013 
L 284.343243 78.034271 
L 284.800246 77.770839 
L 285.257248 75.595064 
L 285.714251 79.716009 
L 286.171253 78.116036 
L 286.628256 79.296456 
L 287.085258 78.877646 
L 287.54226 82.027452 
L 287.999263 82.632531 
L 288.456265 82.740964 
L 288.913268 80.646091 
L 289.37027 84.186794 
L 289.827273 84.154246 
L 290.284275 86.796153 
L 290.741278 86.204764 
L 291.19828 85.270477 
L 291.655283 82.882796 
L 292.112285 84.237395 
L 293.02629 80.208022 
L 293.483292 83.378531 
L 293.940295 82.674156 
L 294.397297 81.339259 
L 294.8543 81.5463 
L 295.311302 83.760591 
L 295.768305 81.719396 
L 296.225307 83.57111 
L 297.139312 83.310319 
L 297.596314 81.655128 
L 298.510319 84.655716 
L 298.967322 84.428423 
L 299.424324 82.578634 
L 299.881327 78.223392 
L 300.338329 81.939395 
L 300.795332 81.88979 
L 301.252334 84.832876 
L 301.709337 83.015031 
L 302.166339 85.569164 
L 303.080344 88.721751 
L 303.537346 88.909587 
L 303.994349 88.40979 
L 304.451351 87.577758 
L 304.908354 88.130135 
L 305.365356 91.295361 
L 305.822359 90.126291 
L 306.279361 90.588219 
L 306.736364 88.92197 
L 307.193366 91.189715 
L 307.650369 95.041828 
L 308.107371 95.764167 
L 308.564373 93.541404 
L 309.021376 93.195806 
L 309.478378 94.083853 
L 309.935381 96.44081 
L 310.392383 93.586167 
L 310.849386 96.155235 
L 311.306388 97.745481 
L 311.763391 97.256911 
L 312.220393 99.92122 
L 312.677396 98.147776 
L 313.134398 97.389309 
L 313.5914 96.095294 
L 314.048403 95.515724 
L 314.505405 95.527171 
L 314.962408 97.158499 
L 315.41941 97.355288 
L 315.876413 98.652074 
L 316.333415 97.782801 
L 316.790418 96.649076 
L 317.24742 94.597954 
L 317.704423 94.165297 
L 318.161425 92.382099 
L 319.07543 93.111221 
L 319.532432 92.165303 
L 319.989435 92.508239 
L 320.446437 91.832236 
L 321.360442 93.98446 
L 321.817445 93.0395 
L 322.274447 91.701545 
L 322.73145 92.827619 
L 323.188452 91.522108 
L 323.645455 91.908341 
L 324.102457 91.602318 
L 324.559459 89.467629 
L 325.473464 86.438673 
L 325.930467 83.746837 
L 326.387469 84.280354 
L 326.844472 85.665023 
L 327.301474 86.532278 
L 327.758477 86.99821 
L 328.215479 90.502649 
L 328.672482 90.514669 
L 329.129484 91.187407 
L 329.586486 90.096606 
L 330.043489 89.843104 
L 330.500491 90.800581 
L 331.414496 89.845664 
L 332.328501 92.671097 
L 332.785504 96.316636 
L 333.242506 98.079246 
L 333.699509 99.2163 
L 334.156511 99.505789 
L 334.613514 101.051952 
L 335.070516 101.76611 
L 335.527518 103.728577 
L 335.984521 103.720209 
L 336.898526 103.098462 
L 337.355528 103.283311 
L 337.812531 105.895094 
L 339.183538 108.933469 
L 339.640541 108.60773 
L 340.097543 106.323206 
L 340.554545 104.705007 
L 341.011548 106.502547 
L 341.925553 104.659874 
L 342.382555 106.445614 
L 342.839558 105.516873 
L 343.29656 105.850685 
L 343.753563 108.397025 
L 344.210565 107.994338 
L 344.667568 107.872281 
L 345.12457 108.433677 
L 345.581572 108.661307 
L 346.038575 109.989373 
L 346.495577 109.01575 
L 347.409582 108.414368 
L 347.866585 107.797113 
L 348.323587 109.281471 
L 348.78059 110.338206 
L 349.237592 113.894161 
L 349.694595 112.821398 
L 350.151597 115.155047 
L 350.6086 115.054485 
L 351.065602 114.13148 
L 351.522604 112.815322 
L 351.979607 115.115281 
L 352.436609 115.586462 
L 353.350614 110.763768 
L 353.807617 109.531734 
L 354.264619 109.144892 
L 354.721622 111.161751 
L 355.178624 110.496909 
L 355.635627 110.96876 
L 356.092629 110.536138 
L 356.549631 111.574322 
L 357.006634 111.999801 
L 357.463636 111.839007 
L 357.920639 111.175397 
L 358.377641 109.95737 
L 358.834644 110.742909 
L 359.291646 112.314259 
L 359.748649 109.863713 
L 360.205651 106.424034 
L 360.662654 105.68849 
L 361.119656 107.298952 
L 361.576658 108.379375 
L 362.033661 107.726361 
L 362.490663 105.75485 
L 362.947666 107.639657 
L 363.404668 107.926674 
L 363.861671 107.721218 
L 364.318673 106.4365 
L 364.775676 106.95668 
L 365.232678 109.149641 
L 365.689681 107.999032 
L 366.146683 106.107512 
L 366.603686 106.002889 
L 367.060688 105.145063 
L 367.51769 105.702781 
L 367.974693 107.188824 
L 368.431695 106.02322 
L 369.3457 105.267133 
L 369.802703 103.593496 
L 370.259705 104.674485 
L 370.716708 105.151912 
L 371.17371 104.719018 
L 371.630713 105.335052 
L 372.087715 103.92592 
L 372.544717 103.747756 
L 373.00172 105.346303 
L 373.458722 105.027416 
L 373.915725 104.92698 
L 374.372727 103.301708 
L 375.286732 101.534399 
L 375.743735 100.750473 
L 376.200737 100.71469 
L 376.65774 101.564912 
L 377.114742 101.115742 
L 377.571744 101.227491 
L 378.485749 97.307967 
L 378.942752 96.169004 
L 379.399754 95.363275 
L 379.856757 94.958897 
L 380.313759 96.149064 
L 380.770762 96.096066 
L 381.227764 95.681393 
L 382.141769 94.265585 
L 382.598771 93.273379 
L 383.512776 94.301716 
L 383.969779 92.271648 
L 384.426781 91.315061 
L 384.883784 91.90747 
L 385.340786 91.767615 
L 386.254791 92.004035 
L 386.711794 91.404874 
L 387.168796 88.002667 
L 387.625799 87.642913 
L 388.082801 86.810532 
L 388.539803 89.110632 
L 388.996806 89.813115 
L 389.453808 87.945523 
L 389.910811 87.077538 
L 390.367813 92.924319 
L 390.824816 91.519599 
L 391.281818 88.668801 
L 391.738821 91.589546 
L 392.195823 89.802671 
L 392.652826 93.957284 
L 393.109828 93.228318 
L 393.56683 93.687703 
L 394.023833 97.379973 
L 394.480835 97.387456 
L 394.937838 96.703989 
L 395.39484 97.286712 
L 395.851843 97.294631 
L 396.308845 98.595517 
L 396.765848 101.463286 
L 397.22285 101.090276 
L 397.679853 99.1885 
L 398.136855 97.977017 
L 399.05086 103.868086 
L 399.507862 105.325194 
L 399.964865 107.958924 
L 400.421867 108.277407 
L 400.87887 108.147953 
L 401.335872 110.56517 
L 402.249877 109.402545 
L 402.70688 110.494528 
L 403.163882 110.906276 
L 403.620885 113.409005 
L 404.077887 114.079907 
L 404.534889 114.33436 
L 404.991892 114.245711 
L 405.448894 114.041957 
L 405.905897 114.295274 
L 406.362899 115.073933 
L 406.819902 115.216387 
L 407.276904 114.215694 
L 407.733907 114.67606 
L 408.190909 114.35854 
L 408.647912 114.491621 
L 409.104914 115.162038 
L 409.561916 114.157575 
L 410.018919 114.586829 
L 410.475921 114.105679 
L 410.932924 114.220031 
L 411.389926 114.606944 
L 411.846929 114.742227 
L 412.303931 115.213604 
L 412.760934 116.868071 
L 413.217936 116.241228 
L 413.674939 115.919475 
L 414.131941 114.802586 
L 414.588943 115.388795 
L 415.045946 113.339806 
L 415.502948 113.454892 
L 416.416953 115.464517 
L 416.873956 117.698526 
L 417.330958 115.9557 
L 417.787961 114.699084 
L 418.244963 114.209374 
L 418.701966 115.835387 
L 419.158968 114.239487 
L 419.615971 115.002608 
L 420.072973 115.377174 
L 420.529975 113.699367 
L 420.986978 112.98599 
L 421.44398 110.355443 
L 421.900983 110.065858 
L 422.357985 110.722957 
L 422.814988 111.842978 
L 423.27199 114.353786 
L 423.728993 114.892781 
L 424.185995 113.490858 
L 424.642998 112.742725 
L 425.1 112.927843 
L 425.557002 113.956857 
L 426.014005 113.513921 
L 426.471007 112.285125 
L 426.92801 111.598926 
L 427.385012 111.422905 
L 427.842015 112.587129 
L 428.299017 111.644116 
L 428.75602 115.076979 
L 429.213022 114.704224 
L 429.670025 112.152131 
L 430.127027 113.614501 
L 430.584029 113.882113 
L 431.041032 113.629372 
L 431.498034 113.996818 
L 431.955037 112.993294 
L 432.412039 112.412055 
L 432.869042 112.168904 
L 433.326044 111.536905 
L 433.783047 111.799887 
L 434.240049 109.188614 
L 435.154054 109.103053 
L 435.611057 110.841085 
L 436.068059 111.485635 
L 436.525061 110.564936 
L 436.982064 112.026036 
L 437.439066 114.160094 
L 437.896069 114.367577 
L 438.353071 113.342921 
L 438.810074 113.161503 
L 439.267076 113.661638 
L 439.724079 115.356726 
L 440.638084 114.641994 
L 441.095086 116.192845 
L 442.009091 114.086651 
L 442.466093 112.972131 
L 442.923096 112.527049 
L 444.294103 110.47682 
L 445.208108 114.335938 
L 445.665111 115.187829 
L 446.122113 115.519125 
L 446.579115 115.505464 
L 447.036118 115.237934 
L 447.49312 114.517578 
L 447.950123 113.559301 
L 448.407125 114.435604 
L 448.864128 114.29277 
L 449.32113 115.198216 
L 449.778133 115.398195 
L 450.235135 115.132039 
L 450.692138 118.638327 
L 451.14914 116.218376 
L 451.606143 115.65088 
L 452.063145 116.070635 
L 452.520147 113.44134 
L 452.97715 113.638636 
L 453.434152 112.982872 
L 453.891155 113.154312 
L 454.348157 110.815911 
L 455.262162 110.122037 
L 455.719165 108.104914 
L 456.176167 107.15295 
L 456.63317 107.232232 
L 457.090172 106.033736 
L 457.547174 102.937786 
L 458.004177 102.48616 
L 458.461179 102.199089 
L 458.918182 102.110206 
L 459.375184 100.714953 
L 459.832187 101.693433 
L 460.289189 102.271672 
L 460.746192 104.121281 
L 461.203194 105.249344 
L 461.660197 105.985216 
L 462.117199 105.946235 
L 462.574201 104.157021 
L 463.031204 103.700961 
L 463.945209 106.139122 
L 464.859214 103.256502 
L 465.316216 103.321902 
L 465.773219 104.464763 
L 466.230221 103.737883 
L 466.687224 105.254503 
L 467.144226 104.929501 
L 467.601229 102.723876 
L 468.058231 102.685201 
L 468.515233 103.610379 
L 468.972236 103.349864 
L 469.429238 103.937737 
L 469.886241 105.621622 
L 470.343243 104.860231 
L 470.800246 103.600577 
L 471.257248 103.869639 
L 471.714251 104.415387 
L 472.171253 105.726954 
L 472.628256 106.104445 
L 473.085258 106.785184 
L 473.54226 108.055784 
L 473.999263 105.927984 
L 474.456265 105.560417 
L 474.913268 105.002999 
L 475.827273 103.268731 
L 476.284275 103.881093 
L 476.741278 103.992104 
L 477.19828 104.30193 
L 477.655283 103.959812 
L 478.112285 103.759958 
L 478.569287 104.197523 
L 479.02629 105.594082 
L 479.940295 105.921482 
L 480.397297 107.749846 
L 480.8543 107.209013 
L 481.311302 106.415503 
L 481.768305 104.270223 
L 482.225307 104.636609 
L 482.68231 105.191968 
L 483.139312 106.603947 
L 483.596314 106.567835 
L 484.053317 106.883398 
L 484.510319 108.023948 
L 484.967322 108.657457 
L 485.424324 111.294099 
L 485.881327 110.846089 
L 486.338329 112.738308 
L 486.795332 113.579864 
L 487.252334 115.942519 
L 487.709337 117.083404 
L 488.623342 118.511181 
L 489.080344 118.714901 
L 489.537346 118.074902 
L 489.994349 117.959993 
L 490.451351 117.543301 
L 490.908354 116.496457 
L 491.365356 116.161214 
L 491.822359 116.31853 
L 492.736364 114.632013 
L 493.193366 114.290476 
L 494.107371 116.782943 
L 494.564373 117.26611 
L 495.021376 116.383639 
L 495.478378 116.678971 
L 495.935381 115.703738 
L 496.849386 113.39346 
L 497.306388 112.370267 
L 497.763391 114.110608 
L 498.220393 113.989191 
L 498.677396 114.667757 
L 499.134398 116.497605 
L 499.5914 116.745713 
L 500.048403 115.878013 
L 500.505405 115.584581 
L 500.962408 113.868025 
L 501.41941 113.567347 
L 501.876413 111.430253 
L 502.333415 111.490537 
L 502.790418 111.732377 
L 503.24742 112.90343 
L 503.704423 112.125499 
L 504.161425 112.813215 
L 504.618428 113.760061 
L 505.532432 111.933116 
L 505.989435 111.109496 
L 506.446437 111.591043 
L 507.360442 112.052546 
L 507.817445 111.439578 
L 508.274447 110.367407 
L 508.73145 110.268816 
L 509.188452 108.893109 
L 509.645455 108.282455 
L 510.102457 108.477481 
L 510.559459 107.771096 
L 511.930467 104.211808 
L 512.387469 104.247524 
L 512.844472 104.656465 
L 513.301474 104.469506 
L 513.758477 103.338306 
L 514.215479 103.074359 
L 514.672482 102.581584 
L 515.129484 102.463662 
L 515.586486 103.047934 
L 516.043489 103.440475 
L 516.500491 103.482758 
L 516.957494 102.209831 
L 517.414496 102.245114 
L 517.871499 102.160788 
L 518.328501 102.762701 
L 518.785504 102.08876 
L 519.699509 99.787793 
L 520.156511 99.557488 
L 520.613514 99.189547 
L 521.070516 99.251862 
L 521.527518 98.907495 
L 521.984521 98.708244 
L 522.898526 98.724751 
L 523.355528 98.567296 
L 523.812531 98.77231 
L 524.269533 98.826575 
L 524.726536 97.583647 
L 525.183538 95.360627 
L 526.554545 98.434557 
L 527.011548 98.697453 
L 527.925553 97.463617 
L 528.382555 97.092732 
L 528.839558 96.446476 
L 529.29656 96.86662 
L 530.210565 96.678327 
L 531.12457 98.449228 
L 531.581572 99.333332 
L 532.038575 98.358321 
L 532.495577 98.273219 
L 532.95258 97.614931 
L 533.866585 100.942099 
L 534.323587 100.449882 
L 534.78059 103.285904 
L 535.237592 102.359943 
L 535.694595 104.061523 
L 536.151597 103.257497 
L 536.6086 103.813471 
L 537.065602 102.605261 
L 537.522604 99.387041 
L 537.979607 101.482284 
L 538.436609 100.599585 
L 538.893612 102.11645 
L 539.350614 101.685084 
L 539.807617 101.970519 
L 540.264619 101.8147 
L 540.721622 102.3002 
L 541.178624 101.529884 
L 541.635627 102.593344 
L 542.092629 101.755972 
L 542.549631 102.070076 
L 543.006634 102.901144 
L 543.463636 101.850011 
L 543.920639 101.905312 
L 544.834644 99.946827 
L 545.291646 100.562732 
L 546.205651 100.750802 
L 546.662654 99.646652 
L 547.119656 99.348231 
L 547.576658 99.428576 
L 548.490663 100.143152 
L 548.947666 99.350148 
L 549.404668 99.73902 
L 550.318673 101.151854 
L 550.775676 101.796527 
L 551.232678 103.258789 
L 551.689681 103.995642 
L 552.146683 102.858301 
L 552.603686 103.164142 
L 553.060688 102.678761 
L 553.51769 105.084763 
L 553.974693 104.773067 
L 554.431695 104.987979 
L 554.888698 105.581731 
L 555.3457 105.483018 
L 555.802703 105.978615 
L 556.259705 107.609244 
L 556.716708 107.094824 
L 557.17371 107.057269 
L 557.630713 107.339568 
L 558.544717 109.405525 
L 559.00172 109.211481 
L 559.458722 107.98113 
L 559.915725 107.93532 
L 560.372727 108.893474 
L 560.372727 108.893474 
" clip-path="url(#p2d1cf26594)" style="fill: none; stroke: #800080; stroke-width: 1.5; stroke-linecap: square"/>
   </g>
   <g id="patch_3">
    <path d="M 81 320.4 
L 81 43.2 
" style="fill: none; stroke: #000000; stroke-width: 0.8; stroke-linejoin: miter; stroke-linecap: square"/>
   </g>
   <g id="patch_4">
    <path d="M 583.2 320.4 
L 583.2 43.2 
" style="fill: none; stroke: #000000; stroke-width: 0.8; stroke-linejoin: miter; stroke-linecap: square"/>
   </g>
   <g id="patch_5">
    <path d="M 81 320.4 
L 583.2 320.4 
" style="fill: none; stroke: #000000; stroke-width: 0.8; stroke-linejoin: miter; stroke-linecap: square"/>
   </g>
   <g id="patch_6">
    <path d="M 81 43.2 
L 583.2 43.2 
" style="fill: none; stroke: #000000; stroke-width: 0.8; stroke-linejoin: miter; stroke-linecap: square"/>
   </g>
   <g id="text_15">
    <!-- Average Reward Over Time -->
    <g transform="translate(250.281563 37.2) scale(0.12 -0.12)">
     <defs>
      <path id="DejaVuSans-4f" d="M 2522 4238 
Q 1834 4238 1429 3725 
Q 1025 3213 1025 2328 
Q 1025 1447 1429 934 
Q 1834 422 2522 422 
Q 3209 422 3611 934 
Q 4013 1447 4013 2328 
Q 4013 3213 3611 3725 
Q 3209 4238 2522 4238 
z
M 2522 4750 
Q 3503 4750 4090 4092 
Q 4678 3434 4678 2328 
Q 4678 1225 4090 567 
Q 3503 -91 2522 -91 
Q 1538 -91 948 565 
Q 359 1222 359 2328 
Q 359 3434 948 4092 
Q 1538 4750 2522 4750 
z
" transform="scale(0.015625)"/>
     </defs>
     <use xlink:href="#DejaVuSans-41"/>
     <use xlink:href="#DejaVuSans-76" transform="translate(62.533203 0)"/>
     <use xlink:href="#DejaVuSans-65" transform="translate(121.712891 0)"/>
     <use xlink:href="#DejaVuSans-72" transform="translate(183.236328 0)"/>
     <use xlink:href="#DejaVuSans-61" transform="translate(224.349609 0)"/>
     <use xlink:href="#DejaVuSans-67" transform="translate(285.628906 0)"/>
     <use xlink:href="#DejaVuSans-65" transform="translate(349.105469 0)"/>
     <use xlink:href="#DejaVuSans-20" transform="translate(410.628906 0)"/>
     <use xlink:href="#DejaVuSans-52" transform="translate(442.416016 0)"/>
     <use xlink:href="#DejaVuSans-65" transform="translate(507.398438 0)"/>
     <use xlink:href="#DejaVuSans-77" transform="translate(568.921875 0)"/>
     <use xlink:href="#DejaVuSans-61" transform="translate(650.708984 0)"/>
     <use xlink:href="#DejaVuSans-72" transform="translate(711.988281 0)"/>
     <use xlink:href="#DejaVuSans-64" transform="translate(751.351562 0)"/>
     <use xlink:href="#DejaVuSans-20" transform="translate(814.828125 0)"/>
     <use xlink:href="#DejaVuSans-4f" transform="translate(846.615234 0)"/>
     <use xlink:href="#DejaVuSans-76" transform="translate(925.326172 0)"/>
     <use xlink:href="#DejaVuSans-65" transform="translate(984.505859 0)"/>
     <use xlink:href="#DejaVuSans-72" transform="translate(1046.029297 0)"/>
     <use xlink:href="#DejaVuSans-20" transform="translate(1087.142578 0)"/>
     <use xlink:href="#DejaVuSans-54" transform="translate(1118.929688 0)"/>
     <use xlink:href="#DejaVuSans-69" transform="translate(1176.888672 0)"/>
     <use xlink:href="#DejaVuSans-6d" transform="translate(1204.671875 0)"/>
     <use xlink:href="#DejaVuSans-65" transform="translate(1302.083984 0)"/>
    </g>
   </g>
   <g id="legend_1">
    <g id="patch_7">
     <path d="M 462.714063 65.878125 
L 576.2 65.878125 
Q 578.2 65.878125 578.2 63.878125 
L 578.2 50.2 
Q 578.2 48.2 576.2 48.2 
L 462.714063 48.2 
Q 460.714063 48.2 460.714063 50.2 
L 460.714063 63.878125 
Q 460.714063 65.878125 462.714063 65.878125 
z
" style="fill: #ffffff; opacity: 0.8; stroke: #cccccc; stroke-linejoin: miter"/>
    </g>
    <g id="line2d_26">
     <path d="M 464.714063 56.298437 
L 474.714063 56.298437 
L 484.714063 56.298437 
" style="fill: none; stroke: #800080; stroke-width: 1.5; stroke-linecap: square"/>
    </g>
    <g id="text_16">
     <!-- Average Reward -->
     <g transform="translate(492.714063 59.798437) scale(0.1 -0.1)">
      <use xlink:href="#DejaVuSans-41"/>
      <use xlink:href="#DejaVuSans-76" transform="translate(62.533203 0)"/>
      <use xlink:href="#DejaVuSans-65" transform="translate(121.712891 0)"/>
      <use xlink:href="#DejaVuSans-72" transform="translate(183.236328 0)"/>
      <use xlink:href="#DejaVuSans-61" transform="translate(224.349609 0)"/>
      <use xlink:href="#DejaVuSans-67" transform="translate(285.628906 0)"/>
      <use xlink:href="#DejaVuSans-65" transform="translate(349.105469 0)"/>
      <use xlink:href="#DejaVuSans-20" transform="translate(410.628906 0)"/>
      <use xlink:href="#DejaVuSans-52" transform="translate(442.416016 0)"/>
      <use xlink:href="#DejaVuSans-65" transform="translate(507.398438 0)"/>
      <use xlink:href="#DejaVuSans-77" transform="translate(568.921875 0)"/>
      <use xlink:href="#DejaVuSans-61" transform="translate(650.708984 0)"/>
      <use xlink:href="#DejaVuSans-72" transform="translate(711.988281 0)"/>
      <use xlink:href="#DejaVuSans-64" transform="translate(751.351562 0)"/>
     </g>
    </g>
   </g>
  </g>
 </g>
 <defs>
  <clipPath id="p2d1cf26594">
   <rect x="81" y="43.2" width="502.2" height="277.2"/>
  </clipPath>
 </defs>
</svg>
