<?xml version="1.0" encoding="utf-8" standalone="no"?>
<!DOCTYPE svg PUBLIC "-//W3C//DTD SVG 1.1//EN"
  "http://www.w3.org/Graphics/SVG/1.1/DTD/svg11.dtd">
<svg xmlns:xlink="http://www.w3.org/1999/xlink" width="648pt" height="360pt" viewBox="0 0 648 360" xmlns="http://www.w3.org/2000/svg" version="1.1">
 <metadata>
  <rdf:RDF xmlns:dc="http://purl.org/dc/elements/1.1/" xmlns:cc="http://creativecommons.org/ns#" xmlns:rdf="http://www.w3.org/1999/02/22-rdf-syntax-ns#">
   <cc:Work>
    <dc:type rdf:resource="http://purl.org/dc/dcmitype/StillImage"/>
    <dc:date>2025-09-23T17:54:42.279096</dc:date>
    <dc:format>image/svg+xml</dc:format>
    <dc:creator>
     <cc:Agent>
      <dc:title>Matplotlib v3.10.0, https://matplotlib.org/</dc:title>
     </cc:Agent>
    </dc:creator>
   </cc:Work>
  </rdf:RDF>
 </metadata>
 <defs>
  <style type="text/css">*{stroke-linejoin: round; stroke-linecap: butt}</style>
 </defs>
 <g id="figure_1">
  <g id="patch_1">
   <path d="M 0 360 
L 648 360 
L 648 0 
L 0 0 
z
" style="fill: #ffffff"/>
  </g>
  <g id="axes_1">
   <g id="patch_2">
    <path d="M 81 320.4 
L 583.2 320.4 
L 583.2 43.2 
L 81 43.2 
z
" style="fill: #ffffff"/>
   </g>
   <g id="matplotlib.axis_1">
    <g id="xtick_1">
     <g id="line2d_1">
      <path d="M 103.37027 320.4 
L 103.37027 43.2 
" clip-path="url(#p9e7cd3961b)" style="fill: none; stroke: #b0b0b0; stroke-width: 0.8; stroke-linecap: square"/>
     </g>
     <g id="line2d_2">
      <defs>
       <path id="m107a6c6f35" d="M 0 0 
L 0 3.5 
" style="stroke: #000000; stroke-width: 0.8"/>
      </defs>
      <g>
       <use xlink:href="#m107a6c6f35" x="103.37027" y="320.4" style="stroke: #000000; stroke-width: 0.8"/>
      </g>
     </g>
     <g id="text_1">
      <!-- 0 -->
      <g transform="translate(100.18902 334.998438) scale(0.1 -0.1)">
       <defs>
        <path id="DejaVuSans-30" d="M 2034 4250 
Q 1547 4250 1301 3770 
Q 1056 3291 1056 2328 
Q 1056 1369 1301 889 
Q 1547 409 2034 409 
Q 2525 409 2770 889 
Q 3016 1369 3016 2328 
Q 3016 3291 2770 3770 
Q 2525 4250 2034 4250 
z
M 2034 4750 
Q 2819 4750 3233 4129 
Q 3647 3509 3647 2328 
Q 3647 1150 3233 529 
Q 2819 -91 2034 -91 
Q 1250 -91 836 529 
Q 422 1150 422 2328 
Q 422 3509 836 4129 
Q 1250 4750 2034 4750 
z
" transform="scale(0.015625)"/>
       </defs>
       <use xlink:href="#DejaVuSans-30"/>
      </g>
     </g>
    </g>
    <g id="xtick_2">
     <g id="line2d_3">
      <path d="M 194.770762 320.4 
L 194.770762 43.2 
" clip-path="url(#p9e7cd3961b)" style="fill: none; stroke: #b0b0b0; stroke-width: 0.8; stroke-linecap: square"/>
     </g>
     <g id="line2d_4">
      <g>
       <use xlink:href="#m107a6c6f35" x="194.770762" y="320.4" style="stroke: #000000; stroke-width: 0.8"/>
      </g>
     </g>
     <g id="text_2">
      <!-- 200 -->
      <g transform="translate(185.227012 334.998438) scale(0.1 -0.1)">
       <defs>
        <path id="DejaVuSans-32" d="M 1228 531 
L 3431 531 
L 3431 0 
L 469 0 
L 469 531 
Q 828 903 1448 1529 
Q 2069 2156 2228 2338 
Q 2531 2678 2651 2914 
Q 2772 3150 2772 3378 
Q 2772 3750 2511 3984 
Q 2250 4219 1831 4219 
Q 1534 4219 1204 4116 
Q 875 4013 500 3803 
L 500 4441 
Q 881 4594 1212 4672 
Q 1544 4750 1819 4750 
Q 2544 4750 2975 4387 
Q 3406 4025 3406 3419 
Q 3406 3131 3298 2873 
Q 3191 2616 2906 2266 
Q 2828 2175 2409 1742 
Q 1991 1309 1228 531 
z
" transform="scale(0.015625)"/>
       </defs>
       <use xlink:href="#DejaVuSans-32"/>
       <use xlink:href="#DejaVuSans-30" transform="translate(63.623047 0)"/>
       <use xlink:href="#DejaVuSans-30" transform="translate(127.246094 0)"/>
      </g>
     </g>
    </g>
    <g id="xtick_3">
     <g id="line2d_5">
      <path d="M 286.171253 320.4 
L 286.171253 43.2 
" clip-path="url(#p9e7cd3961b)" style="fill: none; stroke: #b0b0b0; stroke-width: 0.8; stroke-linecap: square"/>
     </g>
     <g id="line2d_6">
      <g>
       <use xlink:href="#m107a6c6f35" x="286.171253" y="320.4" style="stroke: #000000; stroke-width: 0.8"/>
      </g>
     </g>
     <g id="text_3">
      <!-- 400 -->
      <g transform="translate(276.627503 334.998438) scale(0.1 -0.1)">
       <defs>
        <path id="DejaVuSans-34" d="M 2419 4116 
L 825 1625 
L 2419 1625 
L 2419 4116 
z
M 2253 4666 
L 3047 4666 
L 3047 1625 
L 3713 1625 
L 3713 1100 
L 3047 1100 
L 3047 0 
L 2419 0 
L 2419 1100 
L 313 1100 
L 313 1709 
L 2253 4666 
z
" transform="scale(0.015625)"/>
       </defs>
       <use xlink:href="#DejaVuSans-34"/>
       <use xlink:href="#DejaVuSans-30" transform="translate(63.623047 0)"/>
       <use xlink:href="#DejaVuSans-30" transform="translate(127.246094 0)"/>
      </g>
     </g>
    </g>
    <g id="xtick_4">
     <g id="line2d_7">
      <path d="M 377.571744 320.4 
L 377.571744 43.2 
" clip-path="url(#p9e7cd3961b)" style="fill: none; stroke: #b0b0b0; stroke-width: 0.8; stroke-linecap: square"/>
     </g>
     <g id="line2d_8">
      <g>
       <use xlink:href="#m107a6c6f35" x="377.571744" y="320.4" style="stroke: #000000; stroke-width: 0.8"/>
      </g>
     </g>
     <g id="text_4">
      <!-- 600 -->
      <g transform="translate(368.027994 334.998438) scale(0.1 -0.1)">
       <defs>
        <path id="DejaVuSans-36" d="M 2113 2584 
Q 1688 2584 1439 2293 
Q 1191 2003 1191 1497 
Q 1191 994 1439 701 
Q 1688 409 2113 409 
Q 2538 409 2786 701 
Q 3034 994 3034 1497 
Q 3034 2003 2786 2293 
Q 2538 2584 2113 2584 
z
M 3366 4563 
L 3366 3988 
Q 3128 4100 2886 4159 
Q 2644 4219 2406 4219 
Q 1781 4219 1451 3797 
Q 1122 3375 1075 2522 
Q 1259 2794 1537 2939 
Q 1816 3084 2150 3084 
Q 2853 3084 3261 2657 
Q 3669 2231 3669 1497 
Q 3669 778 3244 343 
Q 2819 -91 2113 -91 
Q 1303 -91 875 529 
Q 447 1150 447 2328 
Q 447 3434 972 4092 
Q 1497 4750 2381 4750 
Q 2619 4750 2861 4703 
Q 3103 4656 3366 4563 
z
" transform="scale(0.015625)"/>
       </defs>
       <use xlink:href="#DejaVuSans-36"/>
       <use xlink:href="#DejaVuSans-30" transform="translate(63.623047 0)"/>
       <use xlink:href="#DejaVuSans-30" transform="translate(127.246094 0)"/>
      </g>
     </g>
    </g>
    <g id="xtick_5">
     <g id="line2d_9">
      <path d="M 468.972236 320.4 
L 468.972236 43.2 
" clip-path="url(#p9e7cd3961b)" style="fill: none; stroke: #b0b0b0; stroke-width: 0.8; stroke-linecap: square"/>
     </g>
     <g id="line2d_10">
      <g>
       <use xlink:href="#m107a6c6f35" x="468.972236" y="320.4" style="stroke: #000000; stroke-width: 0.8"/>
      </g>
     </g>
     <g id="text_5">
      <!-- 800 -->
      <g transform="translate(459.428486 334.998438) scale(0.1 -0.1)">
       <defs>
        <path id="DejaVuSans-38" d="M 2034 2216 
Q 1584 2216 1326 1975 
Q 1069 1734 1069 1313 
Q 1069 891 1326 650 
Q 1584 409 2034 409 
Q 2484 409 2743 651 
Q 3003 894 3003 1313 
Q 3003 1734 2745 1975 
Q 2488 2216 2034 2216 
z
M 1403 2484 
Q 997 2584 770 2862 
Q 544 3141 544 3541 
Q 544 4100 942 4425 
Q 1341 4750 2034 4750 
Q 2731 4750 3128 4425 
Q 3525 4100 3525 3541 
Q 3525 3141 3298 2862 
Q 3072 2584 2669 2484 
Q 3125 2378 3379 2068 
Q 3634 1759 3634 1313 
Q 3634 634 3220 271 
Q 2806 -91 2034 -91 
Q 1263 -91 848 271 
Q 434 634 434 1313 
Q 434 1759 690 2068 
Q 947 2378 1403 2484 
z
M 1172 3481 
Q 1172 3119 1398 2916 
Q 1625 2713 2034 2713 
Q 2441 2713 2670 2916 
Q 2900 3119 2900 3481 
Q 2900 3844 2670 4047 
Q 2441 4250 2034 4250 
Q 1625 4250 1398 4047 
Q 1172 3844 1172 3481 
z
" transform="scale(0.015625)"/>
       </defs>
       <use xlink:href="#DejaVuSans-38"/>
       <use xlink:href="#DejaVuSans-30" transform="translate(63.623047 0)"/>
       <use xlink:href="#DejaVuSans-30" transform="translate(127.246094 0)"/>
      </g>
     </g>
    </g>
    <g id="xtick_6">
     <g id="line2d_11">
      <path d="M 560.372727 320.4 
L 560.372727 43.2 
" clip-path="url(#p9e7cd3961b)" style="fill: none; stroke: #b0b0b0; stroke-width: 0.8; stroke-linecap: square"/>
     </g>
     <g id="line2d_12">
      <g>
       <use xlink:href="#m107a6c6f35" x="560.372727" y="320.4" style="stroke: #000000; stroke-width: 0.8"/>
      </g>
     </g>
     <g id="text_6">
      <!-- 1000 -->
      <g transform="translate(547.647727 334.998438) scale(0.1 -0.1)">
       <defs>
        <path id="DejaVuSans-31" d="M 794 531 
L 1825 531 
L 1825 4091 
L 703 3866 
L 703 4441 
L 1819 4666 
L 2450 4666 
L 2450 531 
L 3481 531 
L 3481 0 
L 794 0 
L 794 531 
z
" transform="scale(0.015625)"/>
       </defs>
       <use xlink:href="#DejaVuSans-31"/>
       <use xlink:href="#DejaVuSans-30" transform="translate(63.623047 0)"/>
       <use xlink:href="#DejaVuSans-30" transform="translate(127.246094 0)"/>
       <use xlink:href="#DejaVuSans-30" transform="translate(190.869141 0)"/>
      </g>
     </g>
    </g>
    <g id="text_7">
     <!-- Time -->
     <g transform="translate(319.866406 348.676562) scale(0.1 -0.1)">
      <defs>
       <path id="DejaVuSans-54" d="M -19 4666 
L 3928 4666 
L 3928 4134 
L 2272 4134 
L 2272 0 
L 1638 0 
L 1638 4134 
L -19 4134 
L -19 4666 
z
" transform="scale(0.015625)"/>
       <path id="DejaVuSans-69" d="M 603 3500 
L 1178 3500 
L 1178 0 
L 603 0 
L 603 3500 
z
M 603 4863 
L 1178 4863 
L 1178 4134 
L 603 4134 
L 603 4863 
z
" transform="scale(0.015625)"/>
       <path id="DejaVuSans-6d" d="M 3328 2828 
Q 3544 3216 3844 3400 
Q 4144 3584 4550 3584 
Q 5097 3584 5394 3201 
Q 5691 2819 5691 2113 
L 5691 0 
L 5113 0 
L 5113 2094 
Q 5113 2597 4934 2840 
Q 4756 3084 4391 3084 
Q 3944 3084 3684 2787 
Q 3425 2491 3425 1978 
L 3425 0 
L 2847 0 
L 2847 2094 
Q 2847 2600 2669 2842 
Q 2491 3084 2119 3084 
Q 1678 3084 1418 2786 
Q 1159 2488 1159 1978 
L 1159 0 
L 581 0 
L 581 3500 
L 1159 3500 
L 1159 2956 
Q 1356 3278 1631 3431 
Q 1906 3584 2284 3584 
Q 2666 3584 2933 3390 
Q 3200 3197 3328 2828 
z
" transform="scale(0.015625)"/>
       <path id="DejaVuSans-65" d="M 3597 1894 
L 3597 1613 
L 953 1613 
Q 991 1019 1311 708 
Q 1631 397 2203 397 
Q 2534 397 2845 478 
Q 3156 559 3463 722 
L 3463 178 
Q 3153 47 2828 -22 
Q 2503 -91 2169 -91 
Q 1331 -91 842 396 
Q 353 884 353 1716 
Q 353 2575 817 3079 
Q 1281 3584 2069 3584 
Q 2775 3584 3186 3129 
Q 3597 2675 3597 1894 
z
M 3022 2063 
Q 3016 2534 2758 2815 
Q 2500 3097 2075 3097 
Q 1594 3097 1305 2825 
Q 1016 2553 972 2059 
L 3022 2063 
z
" transform="scale(0.015625)"/>
      </defs>
      <use xlink:href="#DejaVuSans-54"/>
      <use xlink:href="#DejaVuSans-69" transform="translate(57.958984 0)"/>
      <use xlink:href="#DejaVuSans-6d" transform="translate(85.742188 0)"/>
      <use xlink:href="#DejaVuSans-65" transform="translate(183.154297 0)"/>
     </g>
    </g>
   </g>
   <g id="matplotlib.axis_2">
    <g id="ytick_1">
     <g id="line2d_13">
      <path d="M 81 296.056599 
L 583.2 296.056599 
" clip-path="url(#p9e7cd3961b)" style="fill: none; stroke: #b0b0b0; stroke-width: 0.8; stroke-linecap: square"/>
     </g>
     <g id="line2d_14">
      <defs>
       <path id="m72493cd6cf" d="M 0 0 
L -3.5 0 
" style="stroke: #000000; stroke-width: 0.8"/>
      </defs>
      <g>
       <use xlink:href="#m72493cd6cf" x="81" y="296.056599" style="stroke: #000000; stroke-width: 0.8"/>
      </g>
     </g>
     <g id="text_8">
      <!-- −1 -->
      <g transform="translate(59.257812 299.855818) scale(0.1 -0.1)">
       <defs>
        <path id="DejaVuSans-2212" d="M 678 2272 
L 4684 2272 
L 4684 1741 
L 678 1741 
L 678 2272 
z
" transform="scale(0.015625)"/>
       </defs>
       <use xlink:href="#DejaVuSans-2212"/>
       <use xlink:href="#DejaVuSans-31" transform="translate(83.789062 0)"/>
      </g>
     </g>
    </g>
    <g id="ytick_2">
     <g id="line2d_15">
      <path d="M 81 258.75423 
L 583.2 258.75423 
" clip-path="url(#p9e7cd3961b)" style="fill: none; stroke: #b0b0b0; stroke-width: 0.8; stroke-linecap: square"/>
     </g>
     <g id="line2d_16">
      <g>
       <use xlink:href="#m72493cd6cf" x="81" y="258.75423" style="stroke: #000000; stroke-width: 0.8"/>
      </g>
     </g>
     <g id="text_9">
      <!-- 0 -->
      <g transform="translate(67.6375 262.553449) scale(0.1 -0.1)">
       <use xlink:href="#DejaVuSans-30"/>
      </g>
     </g>
    </g>
    <g id="ytick_3">
     <g id="line2d_17">
      <path d="M 81 221.451861 
L 583.2 221.451861 
" clip-path="url(#p9e7cd3961b)" style="fill: none; stroke: #b0b0b0; stroke-width: 0.8; stroke-linecap: square"/>
     </g>
     <g id="line2d_18">
      <g>
       <use xlink:href="#m72493cd6cf" x="81" y="221.451861" style="stroke: #000000; stroke-width: 0.8"/>
      </g>
     </g>
     <g id="text_10">
      <!-- 1 -->
      <g transform="translate(67.6375 225.25108) scale(0.1 -0.1)">
       <use xlink:href="#DejaVuSans-31"/>
      </g>
     </g>
    </g>
    <g id="ytick_4">
     <g id="line2d_19">
      <path d="M 81 184.149492 
L 583.2 184.149492 
" clip-path="url(#p9e7cd3961b)" style="fill: none; stroke: #b0b0b0; stroke-width: 0.8; stroke-linecap: square"/>
     </g>
     <g id="line2d_20">
      <g>
       <use xlink:href="#m72493cd6cf" x="81" y="184.149492" style="stroke: #000000; stroke-width: 0.8"/>
      </g>
     </g>
     <g id="text_11">
      <!-- 2 -->
      <g transform="translate(67.6375 187.948711) scale(0.1 -0.1)">
       <use xlink:href="#DejaVuSans-32"/>
      </g>
     </g>
    </g>
    <g id="ytick_5">
     <g id="line2d_21">
      <path d="M 81 146.847124 
L 583.2 146.847124 
" clip-path="url(#p9e7cd3961b)" style="fill: none; stroke: #b0b0b0; stroke-width: 0.8; stroke-linecap: square"/>
     </g>
     <g id="line2d_22">
      <g>
       <use xlink:href="#m72493cd6cf" x="81" y="146.847124" style="stroke: #000000; stroke-width: 0.8"/>
      </g>
     </g>
     <g id="text_12">
      <!-- 3 -->
      <g transform="translate(67.6375 150.646342) scale(0.1 -0.1)">
       <defs>
        <path id="DejaVuSans-33" d="M 2597 2516 
Q 3050 2419 3304 2112 
Q 3559 1806 3559 1356 
Q 3559 666 3084 287 
Q 2609 -91 1734 -91 
Q 1441 -91 1130 -33 
Q 819 25 488 141 
L 488 750 
Q 750 597 1062 519 
Q 1375 441 1716 441 
Q 2309 441 2620 675 
Q 2931 909 2931 1356 
Q 2931 1769 2642 2001 
Q 2353 2234 1838 2234 
L 1294 2234 
L 1294 2753 
L 1863 2753 
Q 2328 2753 2575 2939 
Q 2822 3125 2822 3475 
Q 2822 3834 2567 4026 
Q 2313 4219 1838 4219 
Q 1578 4219 1281 4162 
Q 984 4106 628 3988 
L 628 4550 
Q 988 4650 1302 4700 
Q 1616 4750 1894 4750 
Q 2613 4750 3031 4423 
Q 3450 4097 3450 3541 
Q 3450 3153 3228 2886 
Q 3006 2619 2597 2516 
z
" transform="scale(0.015625)"/>
       </defs>
       <use xlink:href="#DejaVuSans-33"/>
      </g>
     </g>
    </g>
    <g id="ytick_6">
     <g id="line2d_23">
      <path d="M 81 109.544755 
L 583.2 109.544755 
" clip-path="url(#p9e7cd3961b)" style="fill: none; stroke: #b0b0b0; stroke-width: 0.8; stroke-linecap: square"/>
     </g>
     <g id="line2d_24">
      <g>
       <use xlink:href="#m72493cd6cf" x="81" y="109.544755" style="stroke: #000000; stroke-width: 0.8"/>
      </g>
     </g>
     <g id="text_13">
      <!-- 4 -->
      <g transform="translate(67.6375 113.343973) scale(0.1 -0.1)">
       <use xlink:href="#DejaVuSans-34"/>
      </g>
     </g>
    </g>
    <g id="ytick_7">
     <g id="line2d_25">
      <path d="M 81 72.242386 
L 583.2 72.242386 
" clip-path="url(#p9e7cd3961b)" style="fill: none; stroke: #b0b0b0; stroke-width: 0.8; stroke-linecap: square"/>
     </g>
     <g id="line2d_26">
      <g>
       <use xlink:href="#m72493cd6cf" x="81" y="72.242386" style="stroke: #000000; stroke-width: 0.8"/>
      </g>
     </g>
     <g id="text_14">
      <!-- 5 -->
      <g transform="translate(67.6375 76.041605) scale(0.1 -0.1)">
       <defs>
        <path id="DejaVuSans-35" d="M 691 4666 
L 3169 4666 
L 3169 4134 
L 1269 4134 
L 1269 2991 
Q 1406 3038 1543 3061 
Q 1681 3084 1819 3084 
Q 2600 3084 3056 2656 
Q 3513 2228 3513 1497 
Q 3513 744 3044 326 
Q 2575 -91 1722 -91 
Q 1428 -91 1123 -41 
Q 819 9 494 109 
L 494 744 
Q 775 591 1075 516 
Q 1375 441 1709 441 
Q 2250 441 2565 725 
Q 2881 1009 2881 1497 
Q 2881 1984 2565 2268 
Q 2250 2553 1709 2553 
Q 1456 2553 1204 2497 
Q 953 2441 691 2322 
L 691 4666 
z
" transform="scale(0.015625)"/>
       </defs>
       <use xlink:href="#DejaVuSans-35"/>
      </g>
     </g>
    </g>
    <g id="text_15">
     <!-- Average Reward -->
     <g transform="translate(53.178125 222.542969) rotate(-90) scale(0.1 -0.1)">
      <defs>
       <path id="DejaVuSans-41" d="M 2188 4044 
L 1331 1722 
L 3047 1722 
L 2188 4044 
z
M 1831 4666 
L 2547 4666 
L 4325 0 
L 3669 0 
L 3244 1197 
L 1141 1197 
L 716 0 
L 50 0 
L 1831 4666 
z
" transform="scale(0.015625)"/>
       <path id="DejaVuSans-76" d="M 191 3500 
L 800 3500 
L 1894 563 
L 2988 3500 
L 3597 3500 
L 2284 0 
L 1503 0 
L 191 3500 
z
" transform="scale(0.015625)"/>
       <path id="DejaVuSans-72" d="M 2631 2963 
Q 2534 3019 2420 3045 
Q 2306 3072 2169 3072 
Q 1681 3072 1420 2755 
Q 1159 2438 1159 1844 
L 1159 0 
L 581 0 
L 581 3500 
L 1159 3500 
L 1159 2956 
Q 1341 3275 1631 3429 
Q 1922 3584 2338 3584 
Q 2397 3584 2469 3576 
Q 2541 3569 2628 3553 
L 2631 2963 
z
" transform="scale(0.015625)"/>
       <path id="DejaVuSans-61" d="M 2194 1759 
Q 1497 1759 1228 1600 
Q 959 1441 959 1056 
Q 959 750 1161 570 
Q 1363 391 1709 391 
Q 2188 391 2477 730 
Q 2766 1069 2766 1631 
L 2766 1759 
L 2194 1759 
z
M 3341 1997 
L 3341 0 
L 2766 0 
L 2766 531 
Q 2569 213 2275 61 
Q 1981 -91 1556 -91 
Q 1019 -91 701 211 
Q 384 513 384 1019 
Q 384 1609 779 1909 
Q 1175 2209 1959 2209 
L 2766 2209 
L 2766 2266 
Q 2766 2663 2505 2880 
Q 2244 3097 1772 3097 
Q 1472 3097 1187 3025 
Q 903 2953 641 2809 
L 641 3341 
Q 956 3463 1253 3523 
Q 1550 3584 1831 3584 
Q 2591 3584 2966 3190 
Q 3341 2797 3341 1997 
z
" transform="scale(0.015625)"/>
       <path id="DejaVuSans-67" d="M 2906 1791 
Q 2906 2416 2648 2759 
Q 2391 3103 1925 3103 
Q 1463 3103 1205 2759 
Q 947 2416 947 1791 
Q 947 1169 1205 825 
Q 1463 481 1925 481 
Q 2391 481 2648 825 
Q 2906 1169 2906 1791 
z
M 3481 434 
Q 3481 -459 3084 -895 
Q 2688 -1331 1869 -1331 
Q 1566 -1331 1297 -1286 
Q 1028 -1241 775 -1147 
L 775 -588 
Q 1028 -725 1275 -790 
Q 1522 -856 1778 -856 
Q 2344 -856 2625 -561 
Q 2906 -266 2906 331 
L 2906 616 
Q 2728 306 2450 153 
Q 2172 0 1784 0 
Q 1141 0 747 490 
Q 353 981 353 1791 
Q 353 2603 747 3093 
Q 1141 3584 1784 3584 
Q 2172 3584 2450 3431 
Q 2728 3278 2906 2969 
L 2906 3500 
L 3481 3500 
L 3481 434 
z
" transform="scale(0.015625)"/>
       <path id="DejaVuSans-20" transform="scale(0.015625)"/>
       <path id="DejaVuSans-52" d="M 2841 2188 
Q 3044 2119 3236 1894 
Q 3428 1669 3622 1275 
L 4263 0 
L 3584 0 
L 2988 1197 
Q 2756 1666 2539 1819 
Q 2322 1972 1947 1972 
L 1259 1972 
L 1259 0 
L 628 0 
L 628 4666 
L 2053 4666 
Q 2853 4666 3247 4331 
Q 3641 3997 3641 3322 
Q 3641 2881 3436 2590 
Q 3231 2300 2841 2188 
z
M 1259 4147 
L 1259 2491 
L 2053 2491 
Q 2509 2491 2742 2702 
Q 2975 2913 2975 3322 
Q 2975 3731 2742 3939 
Q 2509 4147 2053 4147 
L 1259 4147 
z
" transform="scale(0.015625)"/>
       <path id="DejaVuSans-77" d="M 269 3500 
L 844 3500 
L 1563 769 
L 2278 3500 
L 2956 3500 
L 3675 769 
L 4391 3500 
L 4966 3500 
L 4050 0 
L 3372 0 
L 2619 2869 
L 1863 0 
L 1184 0 
L 269 3500 
z
" transform="scale(0.015625)"/>
       <path id="DejaVuSans-64" d="M 2906 2969 
L 2906 4863 
L 3481 4863 
L 3481 0 
L 2906 0 
L 2906 525 
Q 2725 213 2448 61 
Q 2172 -91 1784 -91 
Q 1150 -91 751 415 
Q 353 922 353 1747 
Q 353 2572 751 3078 
Q 1150 3584 1784 3584 
Q 2172 3584 2448 3432 
Q 2725 3281 2906 2969 
z
M 947 1747 
Q 947 1113 1208 752 
Q 1469 391 1925 391 
Q 2381 391 2643 752 
Q 2906 1113 2906 1747 
Q 2906 2381 2643 2742 
Q 2381 3103 1925 3103 
Q 1469 3103 1208 2742 
Q 947 2381 947 1747 
z
" transform="scale(0.015625)"/>
      </defs>
      <use xlink:href="#DejaVuSans-41"/>
      <use xlink:href="#DejaVuSans-76" transform="translate(62.533203 0)"/>
      <use xlink:href="#DejaVuSans-65" transform="translate(121.712891 0)"/>
      <use xlink:href="#DejaVuSans-72" transform="translate(183.236328 0)"/>
      <use xlink:href="#DejaVuSans-61" transform="translate(224.349609 0)"/>
      <use xlink:href="#DejaVuSans-67" transform="translate(285.628906 0)"/>
      <use xlink:href="#DejaVuSans-65" transform="translate(349.105469 0)"/>
      <use xlink:href="#DejaVuSans-20" transform="translate(410.628906 0)"/>
      <use xlink:href="#DejaVuSans-52" transform="translate(442.416016 0)"/>
      <use xlink:href="#DejaVuSans-65" transform="translate(507.398438 0)"/>
      <use xlink:href="#DejaVuSans-77" transform="translate(568.921875 0)"/>
      <use xlink:href="#DejaVuSans-61" transform="translate(650.708984 0)"/>
      <use xlink:href="#DejaVuSans-72" transform="translate(711.988281 0)"/>
      <use xlink:href="#DejaVuSans-64" transform="translate(751.351562 0)"/>
     </g>
    </g>
    <g id="text_16">
     <!-- 1e−5 -->
     <g transform="translate(81 40.2) scale(0.1 -0.1)">
      <use xlink:href="#DejaVuSans-31"/>
      <use xlink:href="#DejaVuSans-65" transform="translate(63.623047 0)"/>
      <use xlink:href="#DejaVuSans-2212" transform="translate(125.146484 0)"/>
      <use xlink:href="#DejaVuSans-35" transform="translate(208.935547 0)"/>
     </g>
    </g>
   </g>
   <g id="line2d_27">
    <path d="M 103.827273 258.75423 
L 104.284275 277.540856 
L 104.741278 244.272757 
L 105.19828 234.447587 
L 105.655283 250.441027 
L 106.112285 158.373418 
L 106.569287 105.665364 
L 107.02629 92.983512 
L 107.483292 260.263608 
L 107.940295 62.118392 
L 108.397297 107.332667 
L 108.8543 182.497174 
L 109.311302 113.645904 
L 109.768305 263.475175 
L 110.225307 124.232614 
L 110.68231 55.8 
L 111.139312 272.828135 
L 111.596314 203.247788 
L 112.053317 170.943282 
L 112.510319 271.762586 
L 112.967322 280.837895 
L 113.881327 199.335861 
L 114.338329 228.940431 
L 114.795332 114.42295 
L 115.709337 267.800467 
L 116.166339 230.39785 
L 116.623342 174.085001 
L 117.080344 208.189985 
L 117.537346 288.096036 
L 117.994349 279.910165 
L 118.451351 222.804549 
L 118.908354 235.217164 
L 119.365356 171.04946 
L 119.822359 287.664192 
L 120.279361 218.639356 
L 120.736364 216.723243 
L 121.193366 235.234324 
L 121.650369 196.815641 
L 122.107371 196.232939 
L 122.564373 207.761946 
L 123.021376 160.221009 
L 123.478378 232.713214 
L 123.935381 210.722356 
L 124.392383 227.4556 
L 124.849386 265.737619 
L 125.306388 239.806 
L 125.763391 220.365872 
L 126.220393 253.581114 
L 127.134398 196.315711 
L 127.5914 256.172724 
L 128.048403 181.663896 
L 128.505405 203.806653 
L 128.962408 274.667468 
L 129.41941 307.8 
L 129.876413 198.938683 
L 130.333415 263.533957 
L 130.790418 246.153961 
L 131.24742 261.467158 
L 131.704423 216.718022 
L 132.161425 225.916484 
L 132.618428 222.38036 
L 133.07543 235.376433 
L 133.532432 224.103207 
L 133.989435 251.507837 
L 134.446437 201.989134 
L 135.360442 294.259878 
L 135.817445 245.105463 
L 136.274447 219.003301 
L 136.73145 218.881877 
L 137.188452 258.37313 
L 137.645455 243.443282 
L 138.102457 256.931709 
L 138.559459 258.085603 
L 139.016462 225.595939 
L 139.473464 213.840686 
L 139.930467 240.107067 
L 140.387469 185.703765 
L 140.844472 247.117062 
L 141.301474 215.840437 
L 141.758477 224.124227 
L 142.215479 183.383797 
L 142.672482 239.017491 
L 143.129484 226.27822 
L 143.586486 207.254482 
L 144.043489 237.226519 
L 144.500491 244.620087 
L 144.957494 254.969298 
L 145.414496 256.060986 
L 145.871499 226.759819 
L 146.328501 229.400439 
L 147.242506 187.998705 
L 147.699509 265.472731 
L 148.156511 208.956012 
L 148.613514 206.701804 
L 149.070516 201.754348 
L 149.527518 212.547348 
L 149.984521 284.453699 
L 150.441523 246.64103 
L 150.898526 176.815858 
L 151.355528 240.175055 
L 151.812531 239.61303 
L 152.269533 187.516365 
L 153.183538 233.022019 
L 153.640541 178.762141 
L 154.554545 234.623881 
L 155.011548 241.827753 
L 155.925553 187.725351 
L 156.382555 218.949661 
L 156.839558 195.161892 
L 157.29656 227.914304 
L 157.753563 235.708701 
L 158.210565 195.565084 
L 158.667568 211.310115 
L 159.12457 208.583408 
L 159.581572 209.958397 
L 160.038575 218.610866 
L 160.495577 248.2111 
L 161.409582 201.142752 
L 161.866585 247.520346 
L 162.323587 175.178595 
L 162.78059 206.771114 
L 163.237592 218.00616 
L 163.694595 184.057644 
L 164.151597 227.616684 
L 165.065602 201.487242 
L 165.522604 201.223839 
L 165.979607 137.261815 
L 166.436609 117.714508 
L 166.893612 196.4519 
L 167.350614 224.939479 
L 167.807617 167.423252 
L 168.264619 128.252006 
L 168.721622 151.633582 
L 169.178624 228.355792 
L 169.635627 162.955669 
L 170.092629 164.603896 
L 170.549631 177.376673 
L 171.006634 124.717832 
L 171.463636 176.934986 
L 171.920639 190.339597 
L 172.377641 244.191647 
L 172.834644 153.082581 
L 173.291646 154.731876 
L 173.748649 147.054947 
L 174.662654 159.297533 
L 175.119656 86.91329 
L 176.033661 193.476089 
L 176.490663 193.128951 
L 176.947666 155.541181 
L 177.404668 155.721172 
L 177.861671 90.657748 
L 178.318673 139.338428 
L 178.775676 99.956982 
L 179.689681 178.459621 
L 180.603686 102.715286 
L 181.060688 197.126951 
L 181.51769 159.732936 
L 181.974693 174.236062 
L 182.431695 153.850233 
L 182.888698 108.464602 
L 183.3457 116.167492 
L 183.802703 169.975391 
L 184.259705 192.611703 
L 184.716708 172.891174 
L 185.17371 116.332038 
L 185.630713 124.600286 
L 186.087715 156.60168 
L 186.544717 156.184865 
L 187.00172 164.831654 
L 187.458722 117.558778 
L 187.915725 160.055494 
L 188.372727 191.640129 
L 188.82973 190.987704 
L 189.286732 205.664987 
L 189.743735 155.919247 
L 190.200737 171.553037 
L 190.65774 165.189104 
L 191.114742 163.023506 
L 191.571744 164.357869 
L 192.028747 204.214033 
L 192.485749 188.797199 
L 192.942752 160.621798 
L 193.399754 158.027528 
L 193.856757 183.87148 
L 194.313759 122.681038 
L 194.770762 186.528043 
L 195.227764 193.386586 
L 195.684767 128.891994 
L 196.141769 209.336261 
L 196.598771 146.074307 
L 197.055774 170.744772 
L 197.969779 178.194907 
L 198.426781 145.143429 
L 198.883784 179.099936 
L 199.340786 181.672815 
L 199.797789 185.262287 
L 200.254791 183.702842 
L 200.711794 170.208437 
L 201.168796 161.653635 
L 201.625799 141.997282 
L 202.082801 174.419559 
L 202.539803 194.597029 
L 202.996806 166.536403 
L 203.453808 155.861775 
L 203.910811 194.994125 
L 204.367813 178.7147 
L 204.824816 195.405604 
L 205.281818 179.29689 
L 205.738821 136.21206 
L 206.195823 186.739258 
L 206.652826 189.548684 
L 207.109828 173.548113 
L 207.56683 195.890178 
L 208.023833 233.612225 
L 208.480835 191.077485 
L 208.937838 174.380768 
L 209.39484 208.577858 
L 209.851843 176.398286 
L 210.308845 206.499615 
L 210.765848 170.833111 
L 211.22285 187.584822 
L 211.679853 185.688191 
L 212.136855 173.51866 
L 212.593857 200.701809 
L 213.05086 190.515863 
L 213.507862 208.007745 
L 213.964865 163.060841 
L 214.421867 199.949617 
L 214.87887 181.139421 
L 215.335872 202.770536 
L 215.792875 201.461919 
L 216.249877 149.153552 
L 216.70688 176.463848 
L 217.163882 144.161177 
L 218.077887 207.302043 
L 218.534889 187.640158 
L 218.991892 222.654439 
L 219.448894 183.836386 
L 219.905897 177.115619 
L 220.362899 179.869424 
L 220.819902 189.368881 
L 221.276904 169.578457 
L 221.733907 223.012699 
L 222.190909 213.648475 
L 222.647912 197.254441 
L 223.104914 194.456351 
L 223.561916 216.978465 
L 224.018919 201.726307 
L 224.475921 179.03335 
L 224.932924 184.696864 
L 225.389926 156.954512 
L 225.846929 215.771722 
L 226.303931 196.11236 
L 226.760934 187.617298 
L 227.674939 217.669721 
L 229.045946 133.450551 
L 229.502948 161.977871 
L 229.959951 212.032651 
L 230.416953 202.876091 
L 230.873956 149.391731 
L 231.330958 168.571057 
L 231.787961 208.794127 
L 232.244963 187.556263 
L 232.701966 180.624095 
L 233.158968 202.596418 
L 233.615971 162.74464 
L 234.072973 176.098216 
L 234.986978 209.177364 
L 235.44398 203.342894 
L 235.900983 192.023501 
L 236.357985 168.943292 
L 236.814988 210.767876 
L 237.27199 195.257792 
L 237.728993 202.193678 
L 238.185995 213.861927 
L 238.642998 204.168007 
L 239.1 205.990465 
L 239.557002 201.846563 
L 240.014005 170.254204 
L 240.471007 176.261619 
L 240.92801 203.388325 
L 241.385012 175.982402 
L 241.842015 173.435915 
L 242.299017 159.862234 
L 242.75602 160.350352 
L 243.213022 155.035476 
L 244.127027 202.438886 
L 244.584029 191.905618 
L 245.041032 190.082364 
L 245.498034 182.276482 
L 245.955037 167.583037 
L 246.412039 165.508824 
L 246.869042 162.760419 
L 247.326044 207.142418 
L 247.783047 180.674564 
L 248.240049 174.555476 
L 248.697052 163.955312 
L 249.154054 170.266624 
L 249.611057 197.221488 
L 250.068059 214.682723 
L 250.525061 184.973511 
L 250.982064 198.337882 
L 251.896069 184.738107 
L 252.353071 211.547576 
L 253.267076 218.378211 
L 253.724079 170.47305 
L 254.181081 142.247464 
L 254.638084 189.058617 
L 255.095086 196.660614 
L 255.552088 174.666316 
L 256.009091 184.381562 
L 256.466093 197.219949 
L 256.923096 170.141428 
L 257.380098 193.187195 
L 257.837101 160.703387 
L 258.294103 179.381753 
L 258.751106 212.275672 
L 259.208108 194.979185 
L 259.665111 173.465095 
L 260.122113 179.991127 
L 260.579115 193.473379 
L 261.49312 204.278043 
L 261.950123 184.195606 
L 262.407125 169.363394 
L 262.864128 195.135939 
L 263.778133 187.233685 
L 264.235135 194.874935 
L 264.692138 158.687759 
L 265.14914 188.835047 
L 265.606143 190.29663 
L 266.063145 215.64066 
L 266.520147 185.553159 
L 266.97715 199.893382 
L 267.434152 181.775345 
L 267.891155 195.689031 
L 268.348157 196.445168 
L 268.80516 206.542005 
L 269.262162 176.646072 
L 269.719165 185.60674 
L 270.176167 192.045567 
L 270.63317 175.159575 
L 271.090172 196.129909 
L 271.547174 176.177054 
L 272.004177 205.160707 
L 272.461179 175.988535 
L 272.918182 210.065964 
L 273.375184 164.714689 
L 274.289189 198.398447 
L 274.746192 206.073013 
L 275.203194 191.003298 
L 275.660197 205.301559 
L 276.117199 206.062915 
L 276.574201 148.041865 
L 277.031204 229.363224 
L 277.488206 181.976219 
L 277.945209 212.731526 
L 278.402211 179.827456 
L 278.859214 188.583175 
L 279.316216 210.006028 
L 279.773219 181.854675 
L 280.230221 204.035717 
L 280.687224 157.458752 
L 281.144226 203.088616 
L 281.601229 182.733521 
L 282.058231 179.110321 
L 282.515233 212.261158 
L 282.972236 199.385307 
L 283.429238 198.127932 
L 283.886241 190.433043 
L 284.800246 208.020681 
L 285.257248 210.677368 
L 285.714251 208.150358 
L 286.171253 177.937476 
L 286.628256 206.489705 
L 287.085258 166.001157 
L 287.54226 223.351591 
L 287.999263 182.089084 
L 288.456265 168.385945 
L 288.913268 193.521661 
L 289.37027 186.405717 
L 289.827273 164.979562 
L 290.741278 196.435741 
L 291.19828 192.500666 
L 291.655283 176.053472 
L 292.112285 174.992725 
L 292.569287 195.268938 
L 293.02629 162.610599 
L 293.483292 209.587923 
L 293.940295 171.024789 
L 294.397297 172.380173 
L 294.8543 169.221419 
L 295.311302 188.074132 
L 295.768305 220.898712 
L 296.225307 183.295454 
L 296.68231 175.689863 
L 297.139312 170.280755 
L 298.053317 181.473718 
L 298.510319 177.288133 
L 298.967322 213.165347 
L 299.424324 211.36796 
L 299.881327 203.671747 
L 300.338329 205.99542 
L 300.795332 183.710665 
L 301.252334 187.433592 
L 302.166339 170.959961 
L 302.623342 176.144601 
L 303.080344 209.374281 
L 303.537346 207.862788 
L 303.994349 192.562684 
L 304.451351 188.349663 
L 304.908354 154.376601 
L 305.365356 181.193547 
L 305.822359 216.62459 
L 306.279361 182.14132 
L 306.736364 183.362018 
L 307.193366 159.077215 
L 307.650369 160.50543 
L 308.107371 213.113047 
L 308.564373 179.213576 
L 309.021376 203.340003 
L 309.478378 181.958945 
L 310.392383 187.118496 
L 310.849386 205.673438 
L 311.306388 199.946366 
L 311.763391 199.867483 
L 312.220393 201.740186 
L 312.677396 172.103517 
L 313.134398 183.817044 
L 313.5914 214.31928 
L 314.048403 229.789257 
L 314.505405 161.135821 
L 314.962408 192.854461 
L 315.41941 191.12498 
L 315.876413 200.579362 
L 316.333415 203.748619 
L 316.790418 197.171203 
L 317.24742 199.588401 
L 317.704423 198.944264 
L 318.161425 183.092996 
L 318.618428 159.427213 
L 319.07543 189.727334 
L 319.532432 186.677096 
L 319.989435 193.620639 
L 320.446437 188.417248 
L 320.90344 169.211954 
L 321.360442 190.364514 
L 321.817445 192.423229 
L 322.274447 180.975049 
L 322.73145 205.419802 
L 323.188452 171.969353 
L 323.645455 193.966781 
L 324.102457 182.981724 
L 325.016462 202.308285 
L 325.473464 223.434305 
L 325.930467 167.849246 
L 326.387469 204.294762 
L 326.844472 159.453006 
L 327.301474 179.639124 
L 327.758477 186.693228 
L 328.215479 205.190347 
L 328.672482 182.983898 
L 329.129484 194.723658 
L 329.586486 174.304265 
L 330.043489 163.964754 
L 330.500491 193.763102 
L 330.957494 180.103139 
L 331.414496 174.196396 
L 332.328501 196.600543 
L 332.785504 198.978048 
L 333.242506 177.454765 
L 333.699509 187.914407 
L 334.613514 198.173782 
L 335.070516 183.687131 
L 335.527518 215.67689 
L 335.984521 178.2981 
L 336.441523 189.795797 
L 336.898526 183.129557 
L 337.355528 172.489363 
L 337.812531 190.390604 
L 338.269533 171.720137 
L 338.726536 218.306685 
L 339.183538 186.695861 
L 339.640541 170.48618 
L 340.097543 193.520093 
L 340.554545 202.617954 
L 341.011548 199.92376 
L 341.46855 182.542467 
L 341.925553 210.15435 
L 342.382555 183.151119 
L 342.839558 186.382672 
L 343.29656 200.243475 
L 344.210565 169.647583 
L 344.667568 199.067457 
L 345.12457 186.963543 
L 345.581572 201.542187 
L 346.495577 170.040884 
L 346.95258 180.357631 
L 347.409582 206.823773 
L 347.866585 173.928899 
L 348.323587 188.219649 
L 348.78059 192.998896 
L 349.237592 209.200669 
L 349.694595 189.909658 
L 350.151597 203.826611 
L 350.6086 190.116379 
L 351.065602 183.441323 
L 351.522604 182.880045 
L 351.979607 185.56029 
L 352.436609 189.705788 
L 352.893612 208.659125 
L 353.350614 184.720252 
L 353.807617 198.042996 
L 354.264619 168.138734 
L 354.721622 206.139039 
L 355.178624 199.928954 
L 355.635627 181.162513 
L 356.092629 197.32492 
L 357.006634 177.569422 
L 357.920639 202.305776 
L 358.377641 178.454057 
L 358.834644 201.304844 
L 359.291646 216.696433 
L 359.748649 205.031127 
L 360.205651 161.624128 
L 360.662654 192.360639 
L 361.119656 181.393893 
L 361.576658 185.714979 
L 362.033661 187.336078 
L 362.490663 187.678817 
L 362.947666 192.688769 
L 363.404668 194.632207 
L 363.861671 202.712652 
L 364.318673 190.438606 
L 364.775676 209.702719 
L 365.232678 198.278848 
L 365.689681 204.90709 
L 366.146683 198.550863 
L 366.603686 204.786239 
L 367.060688 169.485723 
L 367.51769 185.901695 
L 367.974693 206.493964 
L 368.431695 220.868525 
L 368.888698 190.249002 
L 369.3457 207.333256 
L 369.802703 205.098561 
L 370.259705 184.690434 
L 370.716708 190.422737 
L 371.17371 163.714849 
L 371.630713 188.196781 
L 372.087715 183.856362 
L 372.544717 206.141898 
L 373.00172 215.433001 
L 373.458722 211.736609 
L 373.915725 212.643189 
L 374.372727 191.88271 
L 374.82973 180.852578 
L 375.286732 196.946125 
L 375.743735 205.652336 
L 376.200737 186.122383 
L 376.65774 209.301735 
L 377.114742 200.106814 
L 377.571744 195.918063 
L 378.028747 188.193687 
L 378.485749 218.029535 
L 378.942752 218.828868 
L 379.399754 204.175749 
L 379.856757 197.398024 
L 380.313759 186.54861 
L 380.770762 202.133666 
L 381.227764 199.52242 
L 381.684767 191.972285 
L 382.141769 189.862671 
L 382.598771 207.430783 
L 383.055774 182.954391 
L 383.512776 180.655275 
L 383.969779 231.745339 
L 384.426781 190.544579 
L 384.883784 195.804973 
L 385.340786 194.499933 
L 385.797789 194.644854 
L 386.254791 173.997079 
L 387.168796 189.748659 
L 388.082801 216.002622 
L 388.539803 201.109504 
L 388.996806 205.252794 
L 389.453808 193.853877 
L 389.910811 205.591792 
L 390.367813 197.200151 
L 390.824816 206.958589 
L 391.281818 196.073171 
L 391.738821 194.702227 
L 392.195823 209.854596 
L 392.652826 198.759045 
L 393.109828 193.090738 
L 393.56683 200.251097 
L 394.023833 202.212737 
L 394.480835 192.545244 
L 394.937838 205.733417 
L 395.39484 189.756408 
L 395.851843 205.895584 
L 396.308845 177.947812 
L 396.765848 198.180966 
L 397.22285 186.220686 
L 397.679853 220.902521 
L 398.136855 183.144688 
L 398.593857 202.040604 
L 399.05086 194.361074 
L 399.507862 183.550881 
L 399.964865 223.979797 
L 400.421867 184.114603 
L 400.87887 204.726703 
L 401.335872 205.28148 
L 401.792875 206.259661 
L 402.249877 194.849 
L 402.70688 222.637597 
L 403.163882 184.066274 
L 403.620885 200.373922 
L 404.077887 186.432549 
L 404.534889 207.965988 
L 404.991892 201.278407 
L 405.448894 207.495691 
L 405.905897 194.631399 
L 406.362899 208.546216 
L 406.819902 194.568305 
L 407.276904 191.685049 
L 407.733907 190.501203 
L 408.190909 182.360223 
L 408.647912 192.080679 
L 409.104914 195.683028 
L 409.561916 212.418539 
L 410.018919 185.470991 
L 410.475921 195.158215 
L 410.932924 190.680611 
L 411.389926 210.404237 
L 411.846929 184.185854 
L 412.303931 193.780838 
L 412.760934 186.213867 
L 413.217936 193.415932 
L 413.674939 203.924129 
L 414.131941 177.546072 
L 415.045946 203.945754 
L 415.502948 178.87111 
L 415.959951 214.071231 
L 416.416953 186.388764 
L 416.873956 185.991615 
L 417.330958 187.809702 
L 417.787961 209.046214 
L 418.701966 180.77563 
L 419.158968 186.474579 
L 419.615971 173.776336 
L 420.072973 210.092857 
L 420.529975 182.658358 
L 420.986978 180.996828 
L 421.44398 198.513913 
L 421.900983 203.866034 
L 422.357985 184.834515 
L 422.814988 212.971768 
L 423.27199 189.141701 
L 423.728993 197.771599 
L 424.185995 204.040671 
L 424.642998 186.510898 
L 425.1 183.615874 
L 425.557002 205.205731 
L 426.014005 190.390365 
L 426.471007 207.224722 
L 426.92801 208.246762 
L 427.385012 210.905273 
L 427.842015 199.859125 
L 428.299017 221.363219 
L 428.75602 196.422947 
L 429.213022 196.406366 
L 429.670025 206.229838 
L 430.127027 198.168461 
L 430.584029 213.156587 
L 431.041032 211.693977 
L 431.498034 216.757444 
L 431.955037 210.03782 
L 432.412039 190.732793 
L 432.869042 199.527643 
L 433.326044 210.82293 
L 433.783047 197.872973 
L 434.240049 211.541052 
L 434.697052 191.933327 
L 435.154054 207.871307 
L 435.611057 202.633696 
L 436.068059 212.203166 
L 436.525061 197.350457 
L 436.982064 218.367807 
L 437.439066 194.136967 
L 438.353071 220.89916 
L 438.810074 194.293559 
L 439.267076 176.295374 
L 439.724079 195.118682 
L 440.181081 183.626198 
L 440.638084 185.16096 
L 441.095086 213.265262 
L 441.552088 213.370855 
L 442.009091 210.040467 
L 442.466093 187.979512 
L 442.923096 224.589703 
L 443.380098 210.437212 
L 443.837101 183.44809 
L 444.294103 205.682256 
L 444.751106 203.663211 
L 445.208108 230.196531 
L 445.665111 205.262872 
L 446.122113 202.294492 
L 446.579115 195.180668 
L 447.036118 207.04318 
L 447.49312 199.362755 
L 447.950123 224.707167 
L 448.407125 195.162018 
L 448.864128 206.884178 
L 449.32113 208.550443 
L 449.778133 204.299553 
L 450.235135 207.363701 
L 450.692138 221.925806 
L 451.14914 173.292589 
L 451.606143 212.767517 
L 452.063145 216.630034 
L 452.520147 198.11978 
L 452.97715 196.604957 
L 453.434152 215.667752 
L 453.891155 194.036348 
L 454.348157 199.559692 
L 454.80516 199.390501 
L 455.262162 201.184337 
L 455.719165 205.373509 
L 456.176167 201.075479 
L 456.63317 191.570881 
L 457.090172 207.905774 
L 457.547174 200.781278 
L 458.004177 217.333006 
L 458.461179 195.824675 
L 458.918182 194.459292 
L 459.375184 191.26735 
L 459.832187 212.461219 
L 460.289189 205.217724 
L 460.746192 191.118313 
L 461.203194 199.764115 
L 461.660197 204.054857 
L 462.117199 175.460044 
L 462.574201 203.191513 
L 463.031204 194.291316 
L 463.488206 172.661801 
L 463.945209 207.453551 
L 464.402211 209.159826 
L 464.859214 190.147102 
L 465.316216 194.08938 
L 465.773219 220.172475 
L 466.687224 192.186254 
L 467.144226 191.035946 
L 467.601229 206.08166 
L 468.058231 211.638732 
L 468.515233 198.573244 
L 468.972236 207.937631 
L 469.429238 179.671151 
L 469.886241 197.13312 
L 470.343243 207.486612 
L 470.800246 191.856613 
L 471.257248 206.687807 
L 471.714251 207.338273 
L 472.171253 208.711099 
L 472.628256 195.308488 
L 473.085258 191.124822 
L 473.54226 191.101022 
L 473.999263 188.174649 
L 474.456265 174.417583 
L 474.913268 197.6108 
L 475.37027 179.051747 
L 475.827273 190.506707 
L 476.284275 192.592648 
L 476.741278 208.463068 
L 477.19828 186.040242 
L 477.655283 204.74034 
L 478.112285 200.50839 
L 478.569287 205.07553 
L 479.02629 202.458176 
L 479.483292 189.647889 
L 479.940295 193.219498 
L 480.397297 181.574987 
L 480.8543 183.970481 
L 481.311302 191.89507 
L 481.768305 174.835085 
L 482.225307 206.66874 
L 482.68231 209.275248 
L 483.139312 217.966499 
L 483.596314 190.429367 
L 484.053317 193.81581 
L 484.510319 199.307717 
L 485.424324 214.132159 
L 485.881327 196.216098 
L 486.338329 196.408171 
L 486.795332 201.69901 
L 487.252334 189.585793 
L 487.709337 195.865267 
L 488.166339 206.262546 
L 488.623342 191.196042 
L 489.080344 187.227477 
L 489.537346 198.099998 
L 489.994349 214.798222 
L 490.451351 213.656925 
L 490.908354 191.610085 
L 491.365356 195.905391 
L 491.822359 187.65865 
L 492.279361 187.219096 
L 492.736364 197.175855 
L 493.193366 193.105306 
L 493.650369 209.4676 
L 494.107371 177.987121 
L 494.564373 190.555452 
L 495.478378 197.181329 
L 495.935381 207.376267 
L 496.392383 196.501809 
L 496.849386 202.767937 
L 497.306388 201.676766 
L 497.763391 196.693674 
L 498.220393 190.080099 
L 498.677396 199.253681 
L 499.134398 191.652486 
L 499.5914 212.709104 
L 501.41941 182.679855 
L 501.876413 206.38493 
L 502.333415 191.3197 
L 502.790418 211.247869 
L 503.704423 178.528056 
L 504.161425 182.905502 
L 504.618428 188.533811 
L 505.07543 197.896155 
L 505.532432 191.061613 
L 505.989435 191.80481 
L 506.446437 194.82427 
L 506.90344 203.213236 
L 507.360442 209.273032 
L 507.817445 193.248165 
L 508.274447 193.329494 
L 508.73145 201.205889 
L 509.188452 191.387628 
L 509.645455 178.942871 
L 510.102457 197.030406 
L 510.559459 185.881252 
L 511.016462 189.17801 
L 511.473464 194.390116 
L 511.930467 191.705049 
L 512.387469 185.571874 
L 512.844472 203.505491 
L 513.301474 210.91936 
L 513.758477 207.546199 
L 514.215479 198.200818 
L 514.672482 216.152188 
L 515.129484 186.370274 
L 515.586486 181.493745 
L 516.043489 197.402483 
L 516.500491 198.430932 
L 516.957494 197.36909 
L 517.414496 207.161776 
L 517.871499 214.356894 
L 518.328501 202.901101 
L 518.785504 208.226472 
L 519.242506 202.675311 
L 519.699509 194.927917 
L 520.156511 192.902537 
L 520.613514 183.588168 
L 521.070516 189.666358 
L 521.527518 177.22256 
L 521.984521 193.798636 
L 522.441523 188.687351 
L 522.898526 197.74489 
L 523.355528 216.685305 
L 523.812531 178.190994 
L 524.269533 182.682881 
L 524.726536 191.277856 
L 525.183538 211.425463 
L 525.640541 198.775127 
L 526.097543 199.826739 
L 526.554545 196.223282 
L 527.011548 202.680413 
L 527.46855 199.217769 
L 527.925553 194.219824 
L 528.382555 190.826869 
L 528.839558 190.205375 
L 529.29656 187.972916 
L 529.753563 192.123431 
L 530.210565 213.832866 
L 530.667568 197.427702 
L 531.12457 202.505084 
L 531.581572 172.723484 
L 532.038575 211.861092 
L 532.495577 183.302337 
L 532.95258 192.508265 
L 533.409582 186.286668 
L 533.866585 186.608716 
L 534.323587 200.970981 
L 534.78059 199.980438 
L 535.237592 213.407924 
L 535.694595 181.479649 
L 536.151597 207.499336 
L 536.6086 202.407761 
L 537.065602 218.228094 
L 537.522604 193.768628 
L 537.979607 186.645155 
L 538.436609 202.498036 
L 538.893612 188.570974 
L 539.350614 188.369329 
L 539.807617 188.612689 
L 540.264619 202.116334 
L 540.721622 191.890976 
L 541.178624 172.413746 
L 542.092629 200.400504 
L 542.549631 188.321487 
L 543.006634 193.278548 
L 543.463636 189.681345 
L 543.920639 203.693237 
L 544.377641 190.894711 
L 544.834644 174.789713 
L 545.291646 196.963944 
L 545.748649 194.106235 
L 546.205651 190.31846 
L 546.662654 191.405827 
L 547.119656 194.935231 
L 547.576658 173.268606 
L 548.033661 172.808796 
L 548.490663 205.233039 
L 548.947666 186.401697 
L 549.404668 188.893759 
L 550.318673 205.868023 
L 550.775676 181.099837 
L 551.232678 185.678618 
L 551.689681 193.009807 
L 552.146683 190.201501 
L 552.603686 195.319352 
L 553.060688 181.739038 
L 553.51769 195.057915 
L 553.974693 189.79164 
L 554.431695 220.432127 
L 554.888698 197.294899 
L 555.3457 188.523525 
L 555.802703 219.493885 
L 556.259705 203.472781 
L 556.716708 197.935632 
L 557.17371 173.78955 
L 557.630713 201.621397 
L 558.087715 208.74643 
L 558.544717 192.610486 
L 559.00172 185.439177 
L 559.458722 204.950999 
L 559.915725 185.24219 
L 560.372727 183.419782 
L 560.372727 183.419782 
" clip-path="url(#p9e7cd3961b)" style="fill: none; stroke: #800080; stroke-width: 1.5; stroke-linecap: square"/>
   </g>
   <g id="patch_3">
    <path d="M 81 320.4 
L 81 43.2 
" style="fill: none; stroke: #000000; stroke-width: 0.8; stroke-linejoin: miter; stroke-linecap: square"/>
   </g>
   <g id="patch_4">
    <path d="M 583.2 320.4 
L 583.2 43.2 
" style="fill: none; stroke: #000000; stroke-width: 0.8; stroke-linejoin: miter; stroke-linecap: square"/>
   </g>
   <g id="patch_5">
    <path d="M 81 320.4 
L 583.2 320.4 
" style="fill: none; stroke: #000000; stroke-width: 0.8; stroke-linejoin: miter; stroke-linecap: square"/>
   </g>
   <g id="patch_6">
    <path d="M 81 43.2 
L 583.2 43.2 
" style="fill: none; stroke: #000000; stroke-width: 0.8; stroke-linejoin: miter; stroke-linecap: square"/>
   </g>
   <g id="text_17">
    <!-- Average Reward Over Time -->
    <g transform="translate(250.281563 37.2) scale(0.12 -0.12)">
     <defs>
      <path id="DejaVuSans-4f" d="M 2522 4238 
Q 1834 4238 1429 3725 
Q 1025 3213 1025 2328 
Q 1025 1447 1429 934 
Q 1834 422 2522 422 
Q 3209 422 3611 934 
Q 4013 1447 4013 2328 
Q 4013 3213 3611 3725 
Q 3209 4238 2522 4238 
z
M 2522 4750 
Q 3503 4750 4090 4092 
Q 4678 3434 4678 2328 
Q 4678 1225 4090 567 
Q 3503 -91 2522 -91 
Q 1538 -91 948 565 
Q 359 1222 359 2328 
Q 359 3434 948 4092 
Q 1538 4750 2522 4750 
z
" transform="scale(0.015625)"/>
     </defs>
     <use xlink:href="#DejaVuSans-41"/>
     <use xlink:href="#DejaVuSans-76" transform="translate(62.533203 0)"/>
     <use xlink:href="#DejaVuSans-65" transform="translate(121.712891 0)"/>
     <use xlink:href="#DejaVuSans-72" transform="translate(183.236328 0)"/>
     <use xlink:href="#DejaVuSans-61" transform="translate(224.349609 0)"/>
     <use xlink:href="#DejaVuSans-67" transform="translate(285.628906 0)"/>
     <use xlink:href="#DejaVuSans-65" transform="translate(349.105469 0)"/>
     <use xlink:href="#DejaVuSans-20" transform="translate(410.628906 0)"/>
     <use xlink:href="#DejaVuSans-52" transform="translate(442.416016 0)"/>
     <use xlink:href="#DejaVuSans-65" transform="translate(507.398438 0)"/>
     <use xlink:href="#DejaVuSans-77" transform="translate(568.921875 0)"/>
     <use xlink:href="#DejaVuSans-61" transform="translate(650.708984 0)"/>
     <use xlink:href="#DejaVuSans-72" transform="translate(711.988281 0)"/>
     <use xlink:href="#DejaVuSans-64" transform="translate(751.351562 0)"/>
     <use xlink:href="#DejaVuSans-20" transform="translate(814.828125 0)"/>
     <use xlink:href="#DejaVuSans-4f" transform="translate(846.615234 0)"/>
     <use xlink:href="#DejaVuSans-76" transform="translate(925.326172 0)"/>
     <use xlink:href="#DejaVuSans-65" transform="translate(984.505859 0)"/>
     <use xlink:href="#DejaVuSans-72" transform="translate(1046.029297 0)"/>
     <use xlink:href="#DejaVuSans-20" transform="translate(1087.142578 0)"/>
     <use xlink:href="#DejaVuSans-54" transform="translate(1118.929688 0)"/>
     <use xlink:href="#DejaVuSans-69" transform="translate(1176.888672 0)"/>
     <use xlink:href="#DejaVuSans-6d" transform="translate(1204.671875 0)"/>
     <use xlink:href="#DejaVuSans-65" transform="translate(1302.083984 0)"/>
    </g>
   </g>
   <g id="legend_1">
    <g id="patch_7">
     <path d="M 462.714063 65.878125 
L 576.2 65.878125 
Q 578.2 65.878125 578.2 63.878125 
L 578.2 50.2 
Q 578.2 48.2 576.2 48.2 
L 462.714063 48.2 
Q 460.714063 48.2 460.714063 50.2 
L 460.714063 63.878125 
Q 460.714063 65.878125 462.714063 65.878125 
z
" style="fill: #ffffff; opacity: 0.8; stroke: #cccccc; stroke-linejoin: miter"/>
    </g>
    <g id="line2d_28">
     <path d="M 464.714063 56.298437 
L 474.714063 56.298437 
L 484.714063 56.298437 
" style="fill: none; stroke: #800080; stroke-width: 1.5; stroke-linecap: square"/>
    </g>
    <g id="text_18">
     <!-- Average Reward -->
     <g transform="translate(492.714063 59.798437) scale(0.1 -0.1)">
      <use xlink:href="#DejaVuSans-41"/>
      <use xlink:href="#DejaVuSans-76" transform="translate(62.533203 0)"/>
      <use xlink:href="#DejaVuSans-65" transform="translate(121.712891 0)"/>
      <use xlink:href="#DejaVuSans-72" transform="translate(183.236328 0)"/>
      <use xlink:href="#DejaVuSans-61" transform="translate(224.349609 0)"/>
      <use xlink:href="#DejaVuSans-67" transform="translate(285.628906 0)"/>
      <use xlink:href="#DejaVuSans-65" transform="translate(349.105469 0)"/>
      <use xlink:href="#DejaVuSans-20" transform="translate(410.628906 0)"/>
      <use xlink:href="#DejaVuSans-52" transform="translate(442.416016 0)"/>
      <use xlink:href="#DejaVuSans-65" transform="translate(507.398438 0)"/>
      <use xlink:href="#DejaVuSans-77" transform="translate(568.921875 0)"/>
      <use xlink:href="#DejaVuSans-61" transform="translate(650.708984 0)"/>
      <use xlink:href="#DejaVuSans-72" transform="translate(711.988281 0)"/>
      <use xlink:href="#DejaVuSans-64" transform="translate(751.351562 0)"/>
     </g>
    </g>
   </g>
  </g>
 </g>
 <defs>
  <clipPath id="p9e7cd3961b">
   <rect x="81" y="43.2" width="502.2" height="277.2"/>
  </clipPath>
 </defs>
</svg>
