<?xml version="1.0" encoding="utf-8" standalone="no"?>
<!DOCTYPE svg PUBLIC "-//W3C//DTD SVG 1.1//EN"
  "http://www.w3.org/Graphics/SVG/1.1/DTD/svg11.dtd">
<svg xmlns:xlink="http://www.w3.org/1999/xlink" width="648pt" height="360pt" viewBox="0 0 648 360" xmlns="http://www.w3.org/2000/svg" version="1.1">
 <metadata>
  <rdf:RDF xmlns:dc="http://purl.org/dc/elements/1.1/" xmlns:cc="http://creativecommons.org/ns#" xmlns:rdf="http://www.w3.org/1999/02/22-rdf-syntax-ns#">
   <cc:Work>
    <dc:type rdf:resource="http://purl.org/dc/dcmitype/StillImage"/>
    <dc:date>2025-09-23T21:54:03.750325</dc:date>
    <dc:format>image/svg+xml</dc:format>
    <dc:creator>
     <cc:Agent>
      <dc:title>Matplotlib v3.10.6, https://matplotlib.org/</dc:title>
     </cc:Agent>
    </dc:creator>
   </cc:Work>
  </rdf:RDF>
 </metadata>
 <defs>
  <style type="text/css">*{stroke-linejoin: round; stroke-linecap: butt}</style>
 </defs>
 <g id="figure_1">
  <g id="patch_1">
   <path d="M 0 360 
L 648 360 
L 648 0 
L 0 0 
z
" style="fill: #ffffff"/>
  </g>
  <g id="axes_1">
   <g id="patch_2">
    <path d="M 81 320.4 
L 583.2 320.4 
L 583.2 43.2 
L 81 43.2 
z
" style="fill: #ffffff"/>
   </g>
   <g id="matplotlib.axis_1">
    <g id="xtick_1">
     <g id="line2d_1">
      <path d="M 103.37027 320.4 
L 103.37027 43.2 
" clip-path="url(#pa84362e169)" style="fill: none; stroke: #b0b0b0; stroke-width: 0.8; stroke-linecap: square"/>
     </g>
     <g id="line2d_2">
      <defs>
       <path id="m737f1ced9e" d="M 0 0 
L 0 3.5 
" style="stroke: #000000; stroke-width: 0.8"/>
      </defs>
      <g>
       <use xlink:href="#m737f1ced9e" x="103.37027" y="320.4" style="stroke: #000000; stroke-width: 0.8"/>
      </g>
     </g>
     <g id="text_1">
      <!-- 0 -->
      <g transform="translate(100.18902 334.998438) scale(0.1 -0.1)">
       <defs>
        <path id="DejaVuSans-30" d="M 2034 4250 
Q 1547 4250 1301 3770 
Q 1056 3291 1056 2328 
Q 1056 1369 1301 889 
Q 1547 409 2034 409 
Q 2525 409 2770 889 
Q 3016 1369 3016 2328 
Q 3016 3291 2770 3770 
Q 2525 4250 2034 4250 
z
M 2034 4750 
Q 2819 4750 3233 4129 
Q 3647 3509 3647 2328 
Q 3647 1150 3233 529 
Q 2819 -91 2034 -91 
Q 1250 -91 836 529 
Q 422 1150 422 2328 
Q 422 3509 836 4129 
Q 1250 4750 2034 4750 
z
" transform="scale(0.015625)"/>
       </defs>
       <use xlink:href="#DejaVuSans-30"/>
      </g>
     </g>
    </g>
    <g id="xtick_2">
     <g id="line2d_3">
      <path d="M 194.770762 320.4 
L 194.770762 43.2 
" clip-path="url(#pa84362e169)" style="fill: none; stroke: #b0b0b0; stroke-width: 0.8; stroke-linecap: square"/>
     </g>
     <g id="line2d_4">
      <g>
       <use xlink:href="#m737f1ced9e" x="194.770762" y="320.4" style="stroke: #000000; stroke-width: 0.8"/>
      </g>
     </g>
     <g id="text_2">
      <!-- 200 -->
      <g transform="translate(185.227012 334.998438) scale(0.1 -0.1)">
       <defs>
        <path id="DejaVuSans-32" d="M 1228 531 
L 3431 531 
L 3431 0 
L 469 0 
L 469 531 
Q 828 903 1448 1529 
Q 2069 2156 2228 2338 
Q 2531 2678 2651 2914 
Q 2772 3150 2772 3378 
Q 2772 3750 2511 3984 
Q 2250 4219 1831 4219 
Q 1534 4219 1204 4116 
Q 875 4013 500 3803 
L 500 4441 
Q 881 4594 1212 4672 
Q 1544 4750 1819 4750 
Q 2544 4750 2975 4387 
Q 3406 4025 3406 3419 
Q 3406 3131 3298 2873 
Q 3191 2616 2906 2266 
Q 2828 2175 2409 1742 
Q 1991 1309 1228 531 
z
" transform="scale(0.015625)"/>
       </defs>
       <use xlink:href="#DejaVuSans-32"/>
       <use xlink:href="#DejaVuSans-30" transform="translate(63.623047 0)"/>
       <use xlink:href="#DejaVuSans-30" transform="translate(127.246094 0)"/>
      </g>
     </g>
    </g>
    <g id="xtick_3">
     <g id="line2d_5">
      <path d="M 286.171253 320.4 
L 286.171253 43.2 
" clip-path="url(#pa84362e169)" style="fill: none; stroke: #b0b0b0; stroke-width: 0.8; stroke-linecap: square"/>
     </g>
     <g id="line2d_6">
      <g>
       <use xlink:href="#m737f1ced9e" x="286.171253" y="320.4" style="stroke: #000000; stroke-width: 0.8"/>
      </g>
     </g>
     <g id="text_3">
      <!-- 400 -->
      <g transform="translate(276.627503 334.998438) scale(0.1 -0.1)">
       <defs>
        <path id="DejaVuSans-34" d="M 2419 4116 
L 825 1625 
L 2419 1625 
L 2419 4116 
z
M 2253 4666 
L 3047 4666 
L 3047 1625 
L 3713 1625 
L 3713 1100 
L 3047 1100 
L 3047 0 
L 2419 0 
L 2419 1100 
L 313 1100 
L 313 1709 
L 2253 4666 
z
" transform="scale(0.015625)"/>
       </defs>
       <use xlink:href="#DejaVuSans-34"/>
       <use xlink:href="#DejaVuSans-30" transform="translate(63.623047 0)"/>
       <use xlink:href="#DejaVuSans-30" transform="translate(127.246094 0)"/>
      </g>
     </g>
    </g>
    <g id="xtick_4">
     <g id="line2d_7">
      <path d="M 377.571744 320.4 
L 377.571744 43.2 
" clip-path="url(#pa84362e169)" style="fill: none; stroke: #b0b0b0; stroke-width: 0.8; stroke-linecap: square"/>
     </g>
     <g id="line2d_8">
      <g>
       <use xlink:href="#m737f1ced9e" x="377.571744" y="320.4" style="stroke: #000000; stroke-width: 0.8"/>
      </g>
     </g>
     <g id="text_4">
      <!-- 600 -->
      <g transform="translate(368.027994 334.998438) scale(0.1 -0.1)">
       <defs>
        <path id="DejaVuSans-36" d="M 2113 2584 
Q 1688 2584 1439 2293 
Q 1191 2003 1191 1497 
Q 1191 994 1439 701 
Q 1688 409 2113 409 
Q 2538 409 2786 701 
Q 3034 994 3034 1497 
Q 3034 2003 2786 2293 
Q 2538 2584 2113 2584 
z
M 3366 4563 
L 3366 3988 
Q 3128 4100 2886 4159 
Q 2644 4219 2406 4219 
Q 1781 4219 1451 3797 
Q 1122 3375 1075 2522 
Q 1259 2794 1537 2939 
Q 1816 3084 2150 3084 
Q 2853 3084 3261 2657 
Q 3669 2231 3669 1497 
Q 3669 778 3244 343 
Q 2819 -91 2113 -91 
Q 1303 -91 875 529 
Q 447 1150 447 2328 
Q 447 3434 972 4092 
Q 1497 4750 2381 4750 
Q 2619 4750 2861 4703 
Q 3103 4656 3366 4563 
z
" transform="scale(0.015625)"/>
       </defs>
       <use xlink:href="#DejaVuSans-36"/>
       <use xlink:href="#DejaVuSans-30" transform="translate(63.623047 0)"/>
       <use xlink:href="#DejaVuSans-30" transform="translate(127.246094 0)"/>
      </g>
     </g>
    </g>
    <g id="xtick_5">
     <g id="line2d_9">
      <path d="M 468.972236 320.4 
L 468.972236 43.2 
" clip-path="url(#pa84362e169)" style="fill: none; stroke: #b0b0b0; stroke-width: 0.8; stroke-linecap: square"/>
     </g>
     <g id="line2d_10">
      <g>
       <use xlink:href="#m737f1ced9e" x="468.972236" y="320.4" style="stroke: #000000; stroke-width: 0.8"/>
      </g>
     </g>
     <g id="text_5">
      <!-- 800 -->
      <g transform="translate(459.428486 334.998438) scale(0.1 -0.1)">
       <defs>
        <path id="DejaVuSans-38" d="M 2034 2216 
Q 1584 2216 1326 1975 
Q 1069 1734 1069 1313 
Q 1069 891 1326 650 
Q 1584 409 2034 409 
Q 2484 409 2743 651 
Q 3003 894 3003 1313 
Q 3003 1734 2745 1975 
Q 2488 2216 2034 2216 
z
M 1403 2484 
Q 997 2584 770 2862 
Q 544 3141 544 3541 
Q 544 4100 942 4425 
Q 1341 4750 2034 4750 
Q 2731 4750 3128 4425 
Q 3525 4100 3525 3541 
Q 3525 3141 3298 2862 
Q 3072 2584 2669 2484 
Q 3125 2378 3379 2068 
Q 3634 1759 3634 1313 
Q 3634 634 3220 271 
Q 2806 -91 2034 -91 
Q 1263 -91 848 271 
Q 434 634 434 1313 
Q 434 1759 690 2068 
Q 947 2378 1403 2484 
z
M 1172 3481 
Q 1172 3119 1398 2916 
Q 1625 2713 2034 2713 
Q 2441 2713 2670 2916 
Q 2900 3119 2900 3481 
Q 2900 3844 2670 4047 
Q 2441 4250 2034 4250 
Q 1625 4250 1398 4047 
Q 1172 3844 1172 3481 
z
" transform="scale(0.015625)"/>
       </defs>
       <use xlink:href="#DejaVuSans-38"/>
       <use xlink:href="#DejaVuSans-30" transform="translate(63.623047 0)"/>
       <use xlink:href="#DejaVuSans-30" transform="translate(127.246094 0)"/>
      </g>
     </g>
    </g>
    <g id="xtick_6">
     <g id="line2d_11">
      <path d="M 560.372727 320.4 
L 560.372727 43.2 
" clip-path="url(#pa84362e169)" style="fill: none; stroke: #b0b0b0; stroke-width: 0.8; stroke-linecap: square"/>
     </g>
     <g id="line2d_12">
      <g>
       <use xlink:href="#m737f1ced9e" x="560.372727" y="320.4" style="stroke: #000000; stroke-width: 0.8"/>
      </g>
     </g>
     <g id="text_6">
      <!-- 1000 -->
      <g transform="translate(547.647727 334.998438) scale(0.1 -0.1)">
       <defs>
        <path id="DejaVuSans-31" d="M 794 531 
L 1825 531 
L 1825 4091 
L 703 3866 
L 703 4441 
L 1819 4666 
L 2450 4666 
L 2450 531 
L 3481 531 
L 3481 0 
L 794 0 
L 794 531 
z
" transform="scale(0.015625)"/>
       </defs>
       <use xlink:href="#DejaVuSans-31"/>
       <use xlink:href="#DejaVuSans-30" transform="translate(63.623047 0)"/>
       <use xlink:href="#DejaVuSans-30" transform="translate(127.246094 0)"/>
       <use xlink:href="#DejaVuSans-30" transform="translate(190.869141 0)"/>
      </g>
     </g>
    </g>
    <g id="text_7">
     <!-- Time -->
     <g transform="translate(319.866406 348.676562) scale(0.1 -0.1)">
      <defs>
       <path id="DejaVuSans-54" d="M -19 4666 
L 3928 4666 
L 3928 4134 
L 2272 4134 
L 2272 0 
L 1638 0 
L 1638 4134 
L -19 4134 
L -19 4666 
z
" transform="scale(0.015625)"/>
       <path id="DejaVuSans-69" d="M 603 3500 
L 1178 3500 
L 1178 0 
L 603 0 
L 603 3500 
z
M 603 4863 
L 1178 4863 
L 1178 4134 
L 603 4134 
L 603 4863 
z
" transform="scale(0.015625)"/>
       <path id="DejaVuSans-6d" d="M 3328 2828 
Q 3544 3216 3844 3400 
Q 4144 3584 4550 3584 
Q 5097 3584 5394 3201 
Q 5691 2819 5691 2113 
L 5691 0 
L 5113 0 
L 5113 2094 
Q 5113 2597 4934 2840 
Q 4756 3084 4391 3084 
Q 3944 3084 3684 2787 
Q 3425 2491 3425 1978 
L 3425 0 
L 2847 0 
L 2847 2094 
Q 2847 2600 2669 2842 
Q 2491 3084 2119 3084 
Q 1678 3084 1418 2786 
Q 1159 2488 1159 1978 
L 1159 0 
L 581 0 
L 581 3500 
L 1159 3500 
L 1159 2956 
Q 1356 3278 1631 3431 
Q 1906 3584 2284 3584 
Q 2666 3584 2933 3390 
Q 3200 3197 3328 2828 
z
" transform="scale(0.015625)"/>
       <path id="DejaVuSans-65" d="M 3597 1894 
L 3597 1613 
L 953 1613 
Q 991 1019 1311 708 
Q 1631 397 2203 397 
Q 2534 397 2845 478 
Q 3156 559 3463 722 
L 3463 178 
Q 3153 47 2828 -22 
Q 2503 -91 2169 -91 
Q 1331 -91 842 396 
Q 353 884 353 1716 
Q 353 2575 817 3079 
Q 1281 3584 2069 3584 
Q 2775 3584 3186 3129 
Q 3597 2675 3597 1894 
z
M 3022 2063 
Q 3016 2534 2758 2815 
Q 2500 3097 2075 3097 
Q 1594 3097 1305 2825 
Q 1016 2553 972 2059 
L 3022 2063 
z
" transform="scale(0.015625)"/>
      </defs>
      <use xlink:href="#DejaVuSans-54"/>
      <use xlink:href="#DejaVuSans-69" transform="translate(57.958984 0)"/>
      <use xlink:href="#DejaVuSans-6d" transform="translate(85.742188 0)"/>
      <use xlink:href="#DejaVuSans-65" transform="translate(183.154297 0)"/>
     </g>
    </g>
   </g>
   <g id="matplotlib.axis_2">
    <g id="ytick_1">
     <g id="line2d_13">
      <path d="M 81 307.92715 
L 583.2 307.92715 
" clip-path="url(#pa84362e169)" style="fill: none; stroke: #b0b0b0; stroke-width: 0.8; stroke-linecap: square"/>
     </g>
     <g id="line2d_14">
      <defs>
       <path id="m0b1bc8f690" d="M 0 0 
L -3.5 0 
" style="stroke: #000000; stroke-width: 0.8"/>
      </defs>
      <g>
       <use xlink:href="#m0b1bc8f690" x="81" y="307.92715" style="stroke: #000000; stroke-width: 0.8"/>
      </g>
     </g>
     <g id="text_8">
      <!-- −1.0 -->
      <g transform="translate(49.717187 311.726369) scale(0.1 -0.1)">
       <defs>
        <path id="DejaVuSans-2212" d="M 678 2272 
L 4684 2272 
L 4684 1741 
L 678 1741 
L 678 2272 
z
" transform="scale(0.015625)"/>
        <path id="DejaVuSans-2e" d="M 684 794 
L 1344 794 
L 1344 0 
L 684 0 
L 684 794 
z
" transform="scale(0.015625)"/>
       </defs>
       <use xlink:href="#DejaVuSans-2212"/>
       <use xlink:href="#DejaVuSans-31" transform="translate(83.789062 0)"/>
       <use xlink:href="#DejaVuSans-2e" transform="translate(147.412109 0)"/>
       <use xlink:href="#DejaVuSans-30" transform="translate(179.199219 0)"/>
      </g>
     </g>
    </g>
    <g id="ytick_2">
     <g id="line2d_15">
      <path d="M 81 259.149017 
L 583.2 259.149017 
" clip-path="url(#pa84362e169)" style="fill: none; stroke: #b0b0b0; stroke-width: 0.8; stroke-linecap: square"/>
     </g>
     <g id="line2d_16">
      <g>
       <use xlink:href="#m0b1bc8f690" x="81" y="259.149017" style="stroke: #000000; stroke-width: 0.8"/>
      </g>
     </g>
     <g id="text_9">
      <!-- −0.5 -->
      <g transform="translate(49.717187 262.948236) scale(0.1 -0.1)">
       <defs>
        <path id="DejaVuSans-35" d="M 691 4666 
L 3169 4666 
L 3169 4134 
L 1269 4134 
L 1269 2991 
Q 1406 3038 1543 3061 
Q 1681 3084 1819 3084 
Q 2600 3084 3056 2656 
Q 3513 2228 3513 1497 
Q 3513 744 3044 326 
Q 2575 -91 1722 -91 
Q 1428 -91 1123 -41 
Q 819 9 494 109 
L 494 744 
Q 775 591 1075 516 
Q 1375 441 1709 441 
Q 2250 441 2565 725 
Q 2881 1009 2881 1497 
Q 2881 1984 2565 2268 
Q 2250 2553 1709 2553 
Q 1456 2553 1204 2497 
Q 953 2441 691 2322 
L 691 4666 
z
" transform="scale(0.015625)"/>
       </defs>
       <use xlink:href="#DejaVuSans-2212"/>
       <use xlink:href="#DejaVuSans-30" transform="translate(83.789062 0)"/>
       <use xlink:href="#DejaVuSans-2e" transform="translate(147.412109 0)"/>
       <use xlink:href="#DejaVuSans-35" transform="translate(179.199219 0)"/>
      </g>
     </g>
    </g>
    <g id="ytick_3">
     <g id="line2d_17">
      <path d="M 81 210.370884 
L 583.2 210.370884 
" clip-path="url(#pa84362e169)" style="fill: none; stroke: #b0b0b0; stroke-width: 0.8; stroke-linecap: square"/>
     </g>
     <g id="line2d_18">
      <g>
       <use xlink:href="#m0b1bc8f690" x="81" y="210.370884" style="stroke: #000000; stroke-width: 0.8"/>
      </g>
     </g>
     <g id="text_10">
      <!-- 0.0 -->
      <g transform="translate(58.096875 214.170103) scale(0.1 -0.1)">
       <use xlink:href="#DejaVuSans-30"/>
       <use xlink:href="#DejaVuSans-2e" transform="translate(63.623047 0)"/>
       <use xlink:href="#DejaVuSans-30" transform="translate(95.410156 0)"/>
      </g>
     </g>
    </g>
    <g id="ytick_4">
     <g id="line2d_19">
      <path d="M 81 161.592751 
L 583.2 161.592751 
" clip-path="url(#pa84362e169)" style="fill: none; stroke: #b0b0b0; stroke-width: 0.8; stroke-linecap: square"/>
     </g>
     <g id="line2d_20">
      <g>
       <use xlink:href="#m0b1bc8f690" x="81" y="161.592751" style="stroke: #000000; stroke-width: 0.8"/>
      </g>
     </g>
     <g id="text_11">
      <!-- 0.5 -->
      <g transform="translate(58.096875 165.39197) scale(0.1 -0.1)">
       <use xlink:href="#DejaVuSans-30"/>
       <use xlink:href="#DejaVuSans-2e" transform="translate(63.623047 0)"/>
       <use xlink:href="#DejaVuSans-35" transform="translate(95.410156 0)"/>
      </g>
     </g>
    </g>
    <g id="ytick_5">
     <g id="line2d_21">
      <path d="M 81 112.814619 
L 583.2 112.814619 
" clip-path="url(#pa84362e169)" style="fill: none; stroke: #b0b0b0; stroke-width: 0.8; stroke-linecap: square"/>
     </g>
     <g id="line2d_22">
      <g>
       <use xlink:href="#m0b1bc8f690" x="81" y="112.814619" style="stroke: #000000; stroke-width: 0.8"/>
      </g>
     </g>
     <g id="text_12">
      <!-- 1.0 -->
      <g transform="translate(58.096875 116.613837) scale(0.1 -0.1)">
       <use xlink:href="#DejaVuSans-31"/>
       <use xlink:href="#DejaVuSans-2e" transform="translate(63.623047 0)"/>
       <use xlink:href="#DejaVuSans-30" transform="translate(95.410156 0)"/>
      </g>
     </g>
    </g>
    <g id="ytick_6">
     <g id="line2d_23">
      <path d="M 81 64.036486 
L 583.2 64.036486 
" clip-path="url(#pa84362e169)" style="fill: none; stroke: #b0b0b0; stroke-width: 0.8; stroke-linecap: square"/>
     </g>
     <g id="line2d_24">
      <g>
       <use xlink:href="#m0b1bc8f690" x="81" y="64.036486" style="stroke: #000000; stroke-width: 0.8"/>
      </g>
     </g>
     <g id="text_13">
      <!-- 1.5 -->
      <g transform="translate(58.096875 67.835704) scale(0.1 -0.1)">
       <use xlink:href="#DejaVuSans-31"/>
       <use xlink:href="#DejaVuSans-2e" transform="translate(63.623047 0)"/>
       <use xlink:href="#DejaVuSans-35" transform="translate(95.410156 0)"/>
      </g>
     </g>
    </g>
    <g id="text_14">
     <!-- Average Reward -->
     <g transform="translate(43.6375 222.542969) rotate(-90) scale(0.1 -0.1)">
      <defs>
       <path id="DejaVuSans-41" d="M 2188 4044 
L 1331 1722 
L 3047 1722 
L 2188 4044 
z
M 1831 4666 
L 2547 4666 
L 4325 0 
L 3669 0 
L 3244 1197 
L 1141 1197 
L 716 0 
L 50 0 
L 1831 4666 
z
" transform="scale(0.015625)"/>
       <path id="DejaVuSans-76" d="M 191 3500 
L 800 3500 
L 1894 563 
L 2988 3500 
L 3597 3500 
L 2284 0 
L 1503 0 
L 191 3500 
z
" transform="scale(0.015625)"/>
       <path id="DejaVuSans-72" d="M 2631 2963 
Q 2534 3019 2420 3045 
Q 2306 3072 2169 3072 
Q 1681 3072 1420 2755 
Q 1159 2438 1159 1844 
L 1159 0 
L 581 0 
L 581 3500 
L 1159 3500 
L 1159 2956 
Q 1341 3275 1631 3429 
Q 1922 3584 2338 3584 
Q 2397 3584 2469 3576 
Q 2541 3569 2628 3553 
L 2631 2963 
z
" transform="scale(0.015625)"/>
       <path id="DejaVuSans-61" d="M 2194 1759 
Q 1497 1759 1228 1600 
Q 959 1441 959 1056 
Q 959 750 1161 570 
Q 1363 391 1709 391 
Q 2188 391 2477 730 
Q 2766 1069 2766 1631 
L 2766 1759 
L 2194 1759 
z
M 3341 1997 
L 3341 0 
L 2766 0 
L 2766 531 
Q 2569 213 2275 61 
Q 1981 -91 1556 -91 
Q 1019 -91 701 211 
Q 384 513 384 1019 
Q 384 1609 779 1909 
Q 1175 2209 1959 2209 
L 2766 2209 
L 2766 2266 
Q 2766 2663 2505 2880 
Q 2244 3097 1772 3097 
Q 1472 3097 1187 3025 
Q 903 2953 641 2809 
L 641 3341 
Q 956 3463 1253 3523 
Q 1550 3584 1831 3584 
Q 2591 3584 2966 3190 
Q 3341 2797 3341 1997 
z
" transform="scale(0.015625)"/>
       <path id="DejaVuSans-67" d="M 2906 1791 
Q 2906 2416 2648 2759 
Q 2391 3103 1925 3103 
Q 1463 3103 1205 2759 
Q 947 2416 947 1791 
Q 947 1169 1205 825 
Q 1463 481 1925 481 
Q 2391 481 2648 825 
Q 2906 1169 2906 1791 
z
M 3481 434 
Q 3481 -459 3084 -895 
Q 2688 -1331 1869 -1331 
Q 1566 -1331 1297 -1286 
Q 1028 -1241 775 -1147 
L 775 -588 
Q 1028 -725 1275 -790 
Q 1522 -856 1778 -856 
Q 2344 -856 2625 -561 
Q 2906 -266 2906 331 
L 2906 616 
Q 2728 306 2450 153 
Q 2172 0 1784 0 
Q 1141 0 747 490 
Q 353 981 353 1791 
Q 353 2603 747 3093 
Q 1141 3584 1784 3584 
Q 2172 3584 2450 3431 
Q 2728 3278 2906 2969 
L 2906 3500 
L 3481 3500 
L 3481 434 
z
" transform="scale(0.015625)"/>
       <path id="DejaVuSans-20" transform="scale(0.015625)"/>
       <path id="DejaVuSans-52" d="M 2841 2188 
Q 3044 2119 3236 1894 
Q 3428 1669 3622 1275 
L 4263 0 
L 3584 0 
L 2988 1197 
Q 2756 1666 2539 1819 
Q 2322 1972 1947 1972 
L 1259 1972 
L 1259 0 
L 628 0 
L 628 4666 
L 2053 4666 
Q 2853 4666 3247 4331 
Q 3641 3997 3641 3322 
Q 3641 2881 3436 2590 
Q 3231 2300 2841 2188 
z
M 1259 4147 
L 1259 2491 
L 2053 2491 
Q 2509 2491 2742 2702 
Q 2975 2913 2975 3322 
Q 2975 3731 2742 3939 
Q 2509 4147 2053 4147 
L 1259 4147 
z
" transform="scale(0.015625)"/>
       <path id="DejaVuSans-77" d="M 269 3500 
L 844 3500 
L 1563 769 
L 2278 3500 
L 2956 3500 
L 3675 769 
L 4391 3500 
L 4966 3500 
L 4050 0 
L 3372 0 
L 2619 2869 
L 1863 0 
L 1184 0 
L 269 3500 
z
" transform="scale(0.015625)"/>
       <path id="DejaVuSans-64" d="M 2906 2969 
L 2906 4863 
L 3481 4863 
L 3481 0 
L 2906 0 
L 2906 525 
Q 2725 213 2448 61 
Q 2172 -91 1784 -91 
Q 1150 -91 751 415 
Q 353 922 353 1747 
Q 353 2572 751 3078 
Q 1150 3584 1784 3584 
Q 2172 3584 2448 3432 
Q 2725 3281 2906 2969 
z
M 947 1747 
Q 947 1113 1208 752 
Q 1469 391 1925 391 
Q 2381 391 2643 752 
Q 2906 1113 2906 1747 
Q 2906 2381 2643 2742 
Q 2381 3103 1925 3103 
Q 1469 3103 1208 2742 
Q 947 2381 947 1747 
z
" transform="scale(0.015625)"/>
      </defs>
      <use xlink:href="#DejaVuSans-41"/>
      <use xlink:href="#DejaVuSans-76" transform="translate(62.533203 0)"/>
      <use xlink:href="#DejaVuSans-65" transform="translate(121.712891 0)"/>
      <use xlink:href="#DejaVuSans-72" transform="translate(183.236328 0)"/>
      <use xlink:href="#DejaVuSans-61" transform="translate(224.349609 0)"/>
      <use xlink:href="#DejaVuSans-67" transform="translate(285.628906 0)"/>
      <use xlink:href="#DejaVuSans-65" transform="translate(349.105469 0)"/>
      <use xlink:href="#DejaVuSans-20" transform="translate(410.628906 0)"/>
      <use xlink:href="#DejaVuSans-52" transform="translate(442.416016 0)"/>
      <use xlink:href="#DejaVuSans-65" transform="translate(507.398438 0)"/>
      <use xlink:href="#DejaVuSans-77" transform="translate(568.921875 0)"/>
      <use xlink:href="#DejaVuSans-61" transform="translate(650.708984 0)"/>
      <use xlink:href="#DejaVuSans-72" transform="translate(711.988281 0)"/>
      <use xlink:href="#DejaVuSans-64" transform="translate(751.351562 0)"/>
     </g>
    </g>
    <g id="text_15">
     <!-- 1e−7 -->
     <g transform="translate(81 40.2) scale(0.1 -0.1)">
      <defs>
       <path id="DejaVuSans-37" d="M 525 4666 
L 3525 4666 
L 3525 4397 
L 1831 0 
L 1172 0 
L 2766 4134 
L 525 4134 
L 525 4666 
z
" transform="scale(0.015625)"/>
      </defs>
      <use xlink:href="#DejaVuSans-31"/>
      <use xlink:href="#DejaVuSans-65" transform="translate(63.623047 0)"/>
      <use xlink:href="#DejaVuSans-2212" transform="translate(125.146484 0)"/>
      <use xlink:href="#DejaVuSans-37" transform="translate(208.935547 0)"/>
     </g>
    </g>
   </g>
   <g id="line2d_25">
    <path d="M 103.827273 210.370884 
L 104.284275 210.417857 
L 104.741278 207.246022 
L 105.19828 227.977042 
L 105.655283 218.781235 
L 106.112285 199.332366 
L 106.569287 223.718116 
L 107.02629 207.954396 
L 107.483292 172.326665 
L 107.940295 194.944295 
L 108.397297 196.254132 
L 108.8543 191.0089 
L 109.311302 188.33397 
L 109.768305 210.168181 
L 110.225307 223.419075 
L 110.68231 280.377236 
L 111.139312 307.8 
L 111.596314 252.002273 
L 112.053317 247.53574 
L 112.510319 250.967491 
L 112.967322 258.873251 
L 113.424324 228.070129 
L 113.881327 227.735436 
L 114.338329 213.952733 
L 114.795332 203.819664 
L 115.252334 187.745292 
L 115.709337 188.900777 
L 116.166339 183.654181 
L 116.623342 185.360141 
L 117.080344 184.114942 
L 117.537346 181.401591 
L 117.994349 172.51645 
L 118.451351 166.331737 
L 118.908354 109.946376 
L 119.365356 113.1701 
L 119.822359 146.44549 
L 120.279361 153.94209 
L 120.736364 168.119752 
L 121.193366 191.341316 
L 122.107371 177.927182 
L 123.021376 207.402709 
L 123.478378 189.898588 
L 123.935381 210.27549 
L 124.392383 208.807525 
L 124.849386 208.663776 
L 125.306388 205.420395 
L 125.763391 199.58896 
L 126.220393 196.127617 
L 126.677396 188.454226 
L 127.134398 186.816862 
L 127.5914 181.315799 
L 128.048403 178.582022 
L 128.505405 175.144769 
L 128.962408 158.111111 
L 129.41941 173.525656 
L 129.876413 149.836407 
L 130.333415 164.637766 
L 130.790418 166.111157 
L 131.24742 155.403894 
L 131.704423 152.307077 
L 132.161425 141.941769 
L 132.618428 144.809578 
L 133.07543 142.629727 
L 133.989435 119.78361 
L 134.446437 101.884475 
L 134.90344 118.862532 
L 135.360442 123.991937 
L 135.817445 122.369202 
L 136.274447 122.060564 
L 136.73145 122.887575 
L 137.188452 123.137284 
L 137.645455 126.428448 
L 138.102457 113.051052 
L 138.559459 123.841009 
L 139.016462 114.030803 
L 139.473464 113.724195 
L 139.930467 118.122226 
L 140.387469 114.266947 
L 140.844472 125.165439 
L 141.301474 121.403822 
L 141.758477 128.895983 
L 142.672482 135.886777 
L 143.129484 129.734537 
L 143.586486 132.782848 
L 144.043489 134.104179 
L 144.957494 133.246203 
L 145.414496 134.643012 
L 145.871499 135.473323 
L 146.328501 137.807647 
L 146.785504 137.740251 
L 147.242506 135.308714 
L 147.699509 124.871102 
L 148.156511 120.430934 
L 148.613514 114.366501 
L 149.070516 120.592905 
L 149.527518 116.271209 
L 149.984521 95.778089 
L 150.441523 99.523378 
L 150.898526 98.668453 
L 151.812531 83.120821 
L 152.269533 86.478971 
L 152.726536 97.564312 
L 153.183538 120.507541 
L 153.640541 114.325587 
L 154.097543 78.810792 
L 154.554545 74.660886 
L 155.011548 71.817818 
L 155.46855 58.813375 
L 155.925553 79.30529 
L 156.382555 70.652143 
L 156.839558 70.0862 
L 157.29656 73.505641 
L 157.753563 73.314188 
L 158.210565 72.144764 
L 158.667568 71.821264 
L 159.581572 74.267622 
L 160.038575 74.342026 
L 160.495577 75.286769 
L 161.409582 66.491435 
L 161.866585 71.858061 
L 162.323587 71.97289 
L 162.78059 67.889631 
L 163.237592 66.023979 
L 163.694595 67.383574 
L 164.151597 67.914444 
L 164.6086 69.044592 
L 165.065602 69.167029 
L 165.979607 72.528072 
L 166.436609 73.531969 
L 166.893612 73.903968 
L 167.350614 75.309361 
L 167.807617 75.829152 
L 168.264619 76.547324 
L 168.721622 78.29628 
L 169.178624 75.095237 
L 170.092629 86.125218 
L 170.549631 90.051012 
L 171.006634 87.3235 
L 171.463636 95.414061 
L 171.920639 94.598365 
L 172.377641 87.616752 
L 173.291646 93.099575 
L 173.748649 94.052348 
L 174.205651 96.028288 
L 174.662654 91.58949 
L 175.119656 92.093439 
L 175.576658 89.905225 
L 176.033661 93.438185 
L 176.490663 95.23332 
L 176.947666 93.469898 
L 177.404668 96.257765 
L 177.861671 97.373212 
L 178.318673 103.132552 
L 178.775676 103.124575 
L 179.689681 117.756285 
L 180.146683 117.536774 
L 180.603686 116.76812 
L 181.060688 115.411934 
L 181.51769 116.768796 
L 181.974693 117.589998 
L 182.431695 118.866569 
L 182.888698 119.658756 
L 183.3457 120.89903 
L 183.802703 121.188519 
L 184.259705 119.689248 
L 184.716708 112.953662 
L 185.17371 114.722833 
L 185.630713 115.090669 
L 186.087715 114.77904 
L 186.544717 115.584792 
L 187.00172 117.169957 
L 187.458722 120.849873 
L 188.372727 114.859488 
L 188.82973 115.563925 
L 189.286732 108.641824 
L 189.743735 105.502089 
L 190.200737 105.512192 
L 190.65774 106.422023 
L 191.114742 109.722203 
L 191.571744 109.825503 
L 192.028747 110.167501 
L 192.485749 111.045511 
L 192.942752 110.911612 
L 193.399754 111.388186 
L 193.856757 109.375258 
L 194.313759 109.318047 
L 194.770762 109.679258 
L 195.227764 110.221022 
L 195.684767 113.191708 
L 196.141769 113.664599 
L 196.598771 113.450954 
L 197.055774 112.876569 
L 197.512776 113.922792 
L 197.969779 113.99296 
L 198.426781 113.502852 
L 198.883784 116.059587 
L 199.340786 116.55265 
L 199.797789 115.308477 
L 200.254791 112.640476 
L 201.168796 121.640807 
L 201.625799 117.116107 
L 202.082801 116.344328 
L 202.539803 126.191367 
L 202.996806 129.228233 
L 203.910811 130.015864 
L 204.367813 129.950096 
L 204.824816 130.262146 
L 205.281818 130.255618 
L 205.738821 129.54828 
L 206.195823 129.71724 
L 206.652826 123.763826 
L 207.109828 123.74795 
L 207.56683 122.696698 
L 208.023833 118.53378 
L 208.480835 119.959352 
L 208.937838 115.605713 
L 209.39484 119.077577 
L 209.851843 119.800093 
L 210.308845 116.22705 
L 210.765848 113.896715 
L 211.22285 113.829656 
L 211.679853 114.22058 
L 212.136855 111.076027 
L 212.593857 113.166205 
L 213.05086 114.166818 
L 213.507862 112.314614 
L 213.964865 113.525933 
L 214.421867 113.688111 
L 214.87887 111.608552 
L 215.335872 112.396418 
L 215.792875 114.122104 
L 216.249877 113.707237 
L 216.70688 114.596268 
L 217.163882 115.099832 
L 217.620885 116.916597 
L 218.077887 116.652235 
L 218.534889 116.950299 
L 218.991892 116.21373 
L 219.448894 117.12014 
L 219.905897 117.346472 
L 220.362899 117.300942 
L 221.276904 120.13172 
L 221.733907 119.984909 
L 222.190909 120.219942 
L 222.647912 119.959604 
L 223.104914 120.99641 
L 223.561916 120.812274 
L 224.475921 114.97111 
L 224.932924 118.454309 
L 225.389926 118.055284 
L 225.846929 113.219551 
L 226.303931 112.228351 
L 226.760934 113.523875 
L 227.217936 116.20759 
L 227.674939 116.552424 
L 228.131941 114.348853 
L 228.588943 114.323273 
L 229.502948 119.341432 
L 229.959951 120.543142 
L 230.873956 117.911002 
L 231.330958 120.444471 
L 231.787961 119.402784 
L 232.244963 118.080773 
L 232.701966 115.766547 
L 233.158968 117.597909 
L 233.615971 111.08529 
L 234.072973 118.499369 
L 234.529975 100.268839 
L 234.986978 106.793144 
L 235.44398 108.39154 
L 235.900983 105.783644 
L 236.357985 108.576776 
L 236.814988 108.57711 
L 237.27199 108.978448 
L 238.185995 113.277549 
L 238.642998 113.528677 
L 239.1 113.980655 
L 240.471007 114.420735 
L 241.385012 115.337633 
L 241.842015 115.42864 
L 242.299017 116.096198 
L 242.75602 115.361324 
L 243.213022 115.894959 
L 243.670025 115.504188 
L 244.127027 118.1843 
L 244.584029 118.498842 
L 245.041032 117.708345 
L 245.498034 114.157619 
L 245.955037 111.940259 
L 246.412039 111.404813 
L 246.869042 110.297549 
L 247.326044 105.603235 
L 247.783047 105.409694 
L 248.240049 103.041755 
L 249.154054 95.91735 
L 249.611057 97.717747 
L 250.068059 98.024309 
L 250.525061 99.75383 
L 250.982064 100.37871 
L 251.439066 101.632289 
L 251.896069 100.530112 
L 252.353071 102.542868 
L 252.810074 99.707201 
L 253.267076 100.20446 
L 253.724079 100.189986 
L 254.181081 99.851246 
L 254.638084 103.246359 
L 255.095086 103.127386 
L 255.552088 102.656427 
L 256.009091 104.29784 
L 256.466093 96.35016 
L 256.923096 96.331391 
L 257.380098 93.919818 
L 257.837101 90.087737 
L 258.294103 91.499272 
L 258.751106 90.612503 
L 259.208108 92.034025 
L 259.665111 92.598773 
L 260.122113 92.67902 
L 260.579115 92.510756 
L 261.036118 92.916022 
L 261.49312 94.6208 
L 261.950123 94.070168 
L 262.407125 93.868617 
L 262.864128 94.109203 
L 263.32113 94.662988 
L 263.778133 93.89021 
L 264.235135 91.970746 
L 264.692138 91.927285 
L 265.14914 92.371302 
L 265.606143 91.494693 
L 266.063145 91.723993 
L 266.520147 91.6611 
L 266.97715 91.932407 
L 267.434152 89.65731 
L 267.891155 92.359751 
L 268.348157 90.790289 
L 268.80516 84.953147 
L 269.262162 87.854765 
L 269.719165 88.211387 
L 270.176167 84.430125 
L 270.63317 89.515717 
L 271.090172 88.970098 
L 271.547174 88.649974 
L 272.004177 88.917884 
L 272.461179 89.9108 
L 272.918182 89.613199 
L 273.375184 92.178886 
L 273.832187 92.466117 
L 274.289189 92.357583 
L 274.746192 93.805258 
L 275.203194 94.434571 
L 275.660197 94.462655 
L 276.117199 96.244254 
L 276.574201 97.096626 
L 277.031204 97.305212 
L 278.859214 98.712126 
L 279.316216 98.829154 
L 279.773219 98.036431 
L 280.230221 98.526936 
L 280.687224 98.72618 
L 281.144226 99.330233 
L 281.601229 98.893152 
L 282.515233 99.334529 
L 282.972236 98.850949 
L 283.429238 99.340574 
L 283.886241 99.420058 
L 284.343243 98.146632 
L 284.800246 100.013417 
L 285.257248 100.915328 
L 285.714251 101.383574 
L 286.171253 101.309776 
L 286.628256 102.693869 
L 287.085258 104.658679 
L 287.54226 104.877208 
L 287.999263 105.503948 
L 288.456265 107.191396 
L 288.913268 107.536537 
L 289.827273 108.983717 
L 290.284275 109.795604 
L 291.19828 110.065017 
L 291.655283 110.267699 
L 292.112285 109.845531 
L 293.02629 108.335437 
L 293.940295 107.37791 
L 294.397297 105.217842 
L 294.8543 106.949611 
L 295.311302 105.878151 
L 295.768305 105.848273 
L 296.225307 106.492293 
L 296.68231 106.547331 
L 297.139312 106.969484 
L 297.596314 106.597378 
L 298.053317 107.28276 
L 298.510319 107.654302 
L 298.967322 107.051228 
L 299.424324 107.120998 
L 299.881327 104.800542 
L 300.338329 98.134872 
L 300.795332 99.803013 
L 301.252334 100.984171 
L 302.166339 82.703032 
L 302.623342 78.540421 
L 303.080344 71.150687 
L 303.537346 70.818911 
L 303.994349 76.710022 
L 304.451351 77.398125 
L 304.908354 77.629046 
L 305.365356 77.985019 
L 305.822359 77.223634 
L 306.279361 77.822358 
L 306.736364 76.40936 
L 307.193366 76.239265 
L 307.650369 76.386297 
L 308.107371 75.986223 
L 308.564373 75.957261 
L 309.021376 76.217045 
L 309.478378 76.276045 
L 309.935381 76.182755 
L 310.392383 76.498438 
L 310.849386 76.537043 
L 311.306388 76.442106 
L 311.763391 75.847002 
L 312.677396 76.84103 
L 313.134398 76.883902 
L 313.5914 74.144494 
L 314.048403 77.987005 
L 314.505405 77.296588 
L 314.962408 77.010064 
L 315.41941 77.163095 
L 315.876413 77.480059 
L 316.790418 79.062237 
L 317.24742 78.773996 
L 318.161425 79.209578 
L 318.618428 80.230992 
L 319.07543 80.317401 
L 319.532432 79.491033 
L 319.989435 74.953994 
L 320.446437 75.260823 
L 320.90344 74.110217 
L 321.360442 76.270872 
L 321.817445 79.466302 
L 322.274447 80.517552 
L 322.73145 80.972351 
L 324.102457 81.780309 
L 324.559459 81.947846 
L 325.016462 82.827402 
L 325.473464 83.292392 
L 325.930467 82.904184 
L 326.387469 82.829149 
L 326.844472 78.929743 
L 327.301474 79.659317 
L 327.758477 83.422699 
L 328.672482 83.458683 
L 329.129484 82.497272 
L 329.586486 83.249471 
L 330.043489 83.555658 
L 330.500491 85.296907 
L 330.957494 85.810475 
L 331.414496 85.840467 
L 331.871499 87.418238 
L 332.328501 87.123177 
L 333.242506 88.67178 
L 333.699509 91.905863 
L 334.156511 91.817718 
L 335.070516 85.269388 
L 335.527518 84.195823 
L 335.984521 85.044769 
L 336.441523 86.784986 
L 337.355528 81.756012 
L 337.812531 81.671714 
L 338.269533 80.931052 
L 338.726536 81.638205 
L 339.183538 82.773677 
L 339.640541 86.627858 
L 340.097543 85.647897 
L 340.554545 86.021689 
L 341.011548 85.941694 
L 341.46855 84.481075 
L 341.925553 84.297083 
L 342.382555 82.796015 
L 342.839558 81.779668 
L 343.29656 77.845965 
L 343.753563 79.434851 
L 344.210565 79.82279 
L 344.667568 80.934023 
L 345.12457 83.135852 
L 345.581572 81.405136 
L 346.038575 82.489638 
L 346.495577 79.050505 
L 346.95258 73.761874 
L 347.409582 73.419924 
L 348.323587 77.556643 
L 348.78059 77.994776 
L 349.694595 78.523092 
L 350.151597 78.628175 
L 351.065602 79.12156 
L 351.522604 78.428927 
L 351.979607 77.388226 
L 352.436609 77.490827 
L 352.893612 71.703401 
L 353.350614 69.726872 
L 353.807617 72.620226 
L 354.264619 70.411522 
L 354.721622 69.889912 
L 355.178624 70.71929 
L 355.635627 68.100859 
L 356.092629 68.908438 
L 357.006634 68.747532 
L 357.463636 69.350707 
L 357.920639 68.160644 
L 358.377641 67.874794 
L 358.834644 70.059272 
L 359.291646 70.333743 
L 359.748649 70.176006 
L 361.119656 71.227699 
L 361.576658 70.598802 
L 362.033661 71.22001 
L 362.947666 71.001018 
L 363.404668 72.56271 
L 363.861671 73.313522 
L 364.318673 73.556866 
L 364.775676 72.887475 
L 365.232678 73.130862 
L 365.689681 73.992418 
L 366.146683 72.56224 
L 366.603686 72.759801 
L 367.060688 73.895914 
L 367.51769 74.592291 
L 367.974693 75.829945 
L 368.888698 75.716339 
L 369.802703 74.29662 
L 370.259705 74.464424 
L 370.716708 80.247315 
L 371.17371 80.956764 
L 371.630713 78.352076 
L 372.087715 77.863978 
L 372.544717 78.251884 
L 373.00172 76.939737 
L 373.458722 78.504457 
L 374.372727 75.091232 
L 374.82973 75.646145 
L 375.286732 74.133374 
L 375.743735 77.204599 
L 376.200737 73.464921 
L 376.65774 73.504676 
L 377.114742 71.027213 
L 377.571744 71.665131 
L 378.028747 71.554997 
L 378.485749 66.661008 
L 379.399754 64.6797 
L 379.856757 64.600265 
L 380.313759 64.776821 
L 380.770762 65.081891 
L 381.227764 64.048462 
L 382.141769 64.136496 
L 382.598771 62.487813 
L 383.055774 64.114885 
L 383.969779 56.473276 
L 384.426781 55.8 
L 385.797789 59.130069 
L 386.254791 59.591286 
L 387.168796 61.297807 
L 387.625799 60.55238 
L 388.082801 60.672983 
L 388.539803 61.016034 
L 388.996806 61.077723 
L 390.367813 61.81772 
L 390.824816 60.758302 
L 391.281818 62.38104 
L 391.738821 61.992718 
L 392.195823 60.338754 
L 393.109828 63.958179 
L 394.023833 62.202658 
L 394.480835 64.282347 
L 394.937838 62.274618 
L 395.39484 64.784727 
L 395.851843 62.718041 
L 396.765848 61.866817 
L 397.22285 63.572268 
L 397.679853 63.634043 
L 398.136855 63.470976 
L 398.593857 61.565993 
L 399.05086 58.52832 
L 399.507862 58.137286 
L 400.421867 62.634975 
L 401.335872 63.700174 
L 401.792875 63.871292 
L 402.249877 64.286974 
L 403.163882 64.54835 
L 404.534889 69.27402 
L 404.991892 70.018553 
L 405.905897 70.395 
L 406.362899 70.409501 
L 406.819902 70.947823 
L 407.276904 71.226718 
L 409.561916 71.399494 
L 410.475921 71.823879 
L 410.932924 71.969161 
L 411.389926 71.826895 
L 411.846929 72.34624 
L 412.760934 72.405035 
L 413.217936 72.62148 
L 413.674939 72.409132 
L 414.131941 73.027769 
L 414.588943 71.877897 
L 415.045946 71.946498 
L 415.502948 73.14077 
L 415.959951 71.580953 
L 416.416953 72.551063 
L 416.873956 71.741645 
L 417.330958 72.317548 
L 417.787961 71.741596 
L 418.244963 70.171769 
L 418.701966 69.905944 
L 419.158968 69.074421 
L 419.615971 70.472748 
L 420.072973 70.39633 
L 420.529975 70.16093 
L 420.986978 70.888614 
L 421.44398 70.585944 
L 421.900983 70.421181 
L 422.357985 70.64523 
L 422.814988 70.642216 
L 423.27199 71.503255 
L 423.728993 71.683918 
L 424.185995 70.857656 
L 424.642998 73.21705 
L 425.1 72.176445 
L 425.557002 70.487719 
L 426.014005 70.713847 
L 426.471007 67.94869 
L 426.92801 67.350012 
L 427.385012 66.441701 
L 427.842015 66.171247 
L 428.299017 66.079403 
L 428.75602 63.712821 
L 429.213022 64.275598 
L 431.041032 65.689088 
L 431.498034 65.859893 
L 431.955037 66.263704 
L 432.869042 66.650627 
L 433.326044 66.705465 
L 433.783047 66.54846 
L 434.697052 67.071695 
L 435.154054 68.222801 
L 435.611057 68.400541 
L 436.068059 67.239522 
L 436.525061 67.896758 
L 436.982064 66.535681 
L 437.439066 64.488263 
L 437.896069 64.648504 
L 438.353071 63.989625 
L 438.810074 65.015619 
L 439.724079 65.110701 
L 440.638084 65.521005 
L 441.095086 65.748331 
L 441.552088 66.670157 
L 442.009091 67.067259 
L 442.466093 66.990385 
L 443.837101 67.627007 
L 444.294103 67.600105 
L 444.751106 67.986984 
L 445.208108 67.53883 
L 446.122113 68.130896 
L 446.579115 68.769175 
L 447.036118 70.14725 
L 447.49312 70.334531 
L 447.950123 68.55401 
L 448.407125 69.019179 
L 448.864128 67.820742 
L 449.32113 69.735167 
L 449.778133 68.28992 
L 450.235135 68.029507 
L 450.692138 67.441415 
L 451.14914 67.240525 
L 451.606143 68.275823 
L 452.063145 67.760941 
L 452.520147 68.286713 
L 452.97715 69.283446 
L 453.434152 69.581583 
L 453.891155 70.495928 
L 454.348157 70.404481 
L 454.80516 70.515318 
L 455.262162 70.802191 
L 456.176167 71.093627 
L 456.63317 70.747644 
L 457.090172 71.199644 
L 457.547174 70.993444 
L 458.004177 73.040582 
L 458.461179 74.393489 
L 460.289189 74.969316 
L 460.746192 75.368703 
L 461.660197 74.559111 
L 462.117199 74.19977 
L 462.574201 74.513709 
L 463.031204 75.028302 
L 463.488206 75.142952 
L 463.945209 76.901105 
L 464.859214 73.998896 
L 465.316216 73.865497 
L 465.773219 75.58309 
L 466.230221 74.118345 
L 466.687224 75.3371 
L 467.144226 75.293812 
L 467.601229 76.959341 
L 468.058231 73.80918 
L 468.515233 73.170182 
L 468.972236 76.137955 
L 469.429238 76.61016 
L 470.343243 77.977448 
L 471.257248 78.333882 
L 471.714251 78.373565 
L 472.171253 78.545405 
L 472.628256 78.922048 
L 473.085258 79.778617 
L 473.54226 80.13321 
L 473.999263 80.64739 
L 474.913268 80.87175 
L 475.37027 81.598466 
L 475.827273 80.956871 
L 476.284275 80.788229 
L 476.741278 80.439204 
L 477.19828 80.343758 
L 477.655283 80.449529 
L 478.112285 81.052659 
L 478.569287 80.047708 
L 479.02629 81.047627 
L 479.483292 81.07892 
L 479.940295 81.633324 
L 480.397297 81.056316 
L 480.8543 80.802836 
L 481.311302 81.292612 
L 481.768305 79.622551 
L 482.225307 78.749278 
L 482.68231 78.43611 
L 483.139312 76.784172 
L 483.596314 75.645259 
L 484.510319 75.650392 
L 484.967322 76.22316 
L 485.424324 76.300503 
L 485.881327 76.165963 
L 486.338329 76.190933 
L 487.252334 76.735089 
L 487.709337 76.762352 
L 488.623342 80.124035 
L 489.080344 78.25241 
L 489.537346 79.0018 
L 490.451351 79.660281 
L 490.908354 79.627266 
L 491.365356 79.827527 
L 491.822359 79.822678 
L 492.279361 79.287232 
L 492.736364 78.301405 
L 493.193366 78.300846 
L 493.650369 79.867807 
L 494.107371 80.598412 
L 494.564373 80.465525 
L 495.021376 80.827307 
L 495.478378 81.382344 
L 495.935381 80.093007 
L 496.392383 79.614022 
L 496.849386 77.450664 
L 497.306388 77.013016 
L 497.763391 77.115925 
L 498.220393 76.951945 
L 498.677396 76.563723 
L 499.134398 76.348956 
L 499.5914 75.439187 
L 500.048403 75.473929 
L 500.505405 75.833105 
L 500.962408 75.588097 
L 501.41941 74.734324 
L 501.876413 75.488236 
L 503.24742 76.178091 
L 503.704423 76.330765 
L 504.161425 77.004253 
L 505.07543 77.721364 
L 505.532432 77.156361 
L 506.446437 77.8032 
L 506.90344 77.282517 
L 507.817445 77.07739 
L 508.274447 77.319605 
L 508.73145 77.166842 
L 509.188452 77.600139 
L 509.645455 77.703049 
L 510.102457 78.114535 
L 510.559459 77.609412 
L 511.016462 75.702901 
L 511.473464 76.084361 
L 511.930467 76.044134 
L 512.844472 68.138229 
L 513.301474 69.569785 
L 513.758477 67.830071 
L 514.215479 66.808427 
L 514.672482 73.216265 
L 515.129484 70.299036 
L 515.586486 69.436673 
L 516.043489 71.037335 
L 516.500491 71.229912 
L 516.957494 75.428869 
L 517.414496 77.108205 
L 517.871499 76.197249 
L 519.242506 76.03227 
L 519.699509 75.190424 
L 520.613514 76.648087 
L 521.527518 76.729197 
L 522.441523 77.207887 
L 522.898526 77.241685 
L 523.812531 78.553307 
L 524.269533 78.450625 
L 524.726536 79.45187 
L 525.183538 80.02347 
L 525.640541 80.172826 
L 527.011548 81.01645 
L 527.46855 80.251142 
L 527.925553 81.325359 
L 528.839558 81.795459 
L 530.210565 82.256061 
L 530.667568 82.183713 
L 531.12457 83.175176 
L 531.581572 83.129571 
L 532.038575 84.447027 
L 532.495577 83.781828 
L 532.95258 84.697333 
L 533.409582 84.412783 
L 533.866585 83.938973 
L 534.78059 85.044153 
L 535.694595 85.17353 
L 537.065602 85.885595 
L 537.522604 85.776886 
L 537.979607 86.246596 
L 538.436609 87.492752 
L 538.893612 88.308373 
L 539.350614 88.431542 
L 539.807617 89.357086 
L 540.264619 89.195011 
L 540.721622 89.198933 
L 541.178624 89.800691 
L 541.635627 89.653771 
L 542.549631 86.957615 
L 543.006634 87.123254 
L 543.920639 88.508668 
L 544.834644 89.460435 
L 545.291646 89.461981 
L 545.748649 89.01299 
L 546.662654 87.072791 
L 547.119656 86.008729 
L 547.576658 86.832882 
L 548.033661 86.607675 
L 548.490663 87.268371 
L 548.947666 86.898409 
L 550.318673 87.554465 
L 550.775676 87.496938 
L 551.232678 86.684247 
L 552.146683 87.03345 
L 552.603686 86.642709 
L 553.060688 85.551962 
L 553.51769 85.61282 
L 553.974693 84.792331 
L 554.431695 84.744378 
L 554.888698 83.61852 
L 555.3457 83.409203 
L 555.802703 82.327348 
L 556.259705 80.674694 
L 556.716708 80.442828 
L 557.630713 80.727814 
L 558.087715 80.254407 
L 559.458722 80.886274 
L 559.915725 80.988739 
L 560.372727 81.210756 
L 560.372727 81.210756 
" clip-path="url(#pa84362e169)" style="fill: none; stroke: #800080; stroke-width: 1.5; stroke-linecap: square"/>
   </g>
   <g id="patch_3">
    <path d="M 81 320.4 
L 81 43.2 
" style="fill: none; stroke: #000000; stroke-width: 0.8; stroke-linejoin: miter; stroke-linecap: square"/>
   </g>
   <g id="patch_4">
    <path d="M 583.2 320.4 
L 583.2 43.2 
" style="fill: none; stroke: #000000; stroke-width: 0.8; stroke-linejoin: miter; stroke-linecap: square"/>
   </g>
   <g id="patch_5">
    <path d="M 81 320.4 
L 583.2 320.4 
" style="fill: none; stroke: #000000; stroke-width: 0.8; stroke-linejoin: miter; stroke-linecap: square"/>
   </g>
   <g id="patch_6">
    <path d="M 81 43.2 
L 583.2 43.2 
" style="fill: none; stroke: #000000; stroke-width: 0.8; stroke-linejoin: miter; stroke-linecap: square"/>
   </g>
   <g id="text_16">
    <!-- Average Reward Over Time -->
    <g transform="translate(250.281563 37.2) scale(0.12 -0.12)">
     <defs>
      <path id="DejaVuSans-4f" d="M 2522 4238 
Q 1834 4238 1429 3725 
Q 1025 3213 1025 2328 
Q 1025 1447 1429 934 
Q 1834 422 2522 422 
Q 3209 422 3611 934 
Q 4013 1447 4013 2328 
Q 4013 3213 3611 3725 
Q 3209 4238 2522 4238 
z
M 2522 4750 
Q 3503 4750 4090 4092 
Q 4678 3434 4678 2328 
Q 4678 1225 4090 567 
Q 3503 -91 2522 -91 
Q 1538 -91 948 565 
Q 359 1222 359 2328 
Q 359 3434 948 4092 
Q 1538 4750 2522 4750 
z
" transform="scale(0.015625)"/>
     </defs>
     <use xlink:href="#DejaVuSans-41"/>
     <use xlink:href="#DejaVuSans-76" transform="translate(62.533203 0)"/>
     <use xlink:href="#DejaVuSans-65" transform="translate(121.712891 0)"/>
     <use xlink:href="#DejaVuSans-72" transform="translate(183.236328 0)"/>
     <use xlink:href="#DejaVuSans-61" transform="translate(224.349609 0)"/>
     <use xlink:href="#DejaVuSans-67" transform="translate(285.628906 0)"/>
     <use xlink:href="#DejaVuSans-65" transform="translate(349.105469 0)"/>
     <use xlink:href="#DejaVuSans-20" transform="translate(410.628906 0)"/>
     <use xlink:href="#DejaVuSans-52" transform="translate(442.416016 0)"/>
     <use xlink:href="#DejaVuSans-65" transform="translate(507.398438 0)"/>
     <use xlink:href="#DejaVuSans-77" transform="translate(568.921875 0)"/>
     <use xlink:href="#DejaVuSans-61" transform="translate(650.708984 0)"/>
     <use xlink:href="#DejaVuSans-72" transform="translate(711.988281 0)"/>
     <use xlink:href="#DejaVuSans-64" transform="translate(751.351562 0)"/>
     <use xlink:href="#DejaVuSans-20" transform="translate(814.828125 0)"/>
     <use xlink:href="#DejaVuSans-4f" transform="translate(846.615234 0)"/>
     <use xlink:href="#DejaVuSans-76" transform="translate(925.326172 0)"/>
     <use xlink:href="#DejaVuSans-65" transform="translate(984.505859 0)"/>
     <use xlink:href="#DejaVuSans-72" transform="translate(1046.029297 0)"/>
     <use xlink:href="#DejaVuSans-20" transform="translate(1087.142578 0)"/>
     <use xlink:href="#DejaVuSans-54" transform="translate(1118.929688 0)"/>
     <use xlink:href="#DejaVuSans-69" transform="translate(1176.888672 0)"/>
     <use xlink:href="#DejaVuSans-6d" transform="translate(1204.671875 0)"/>
     <use xlink:href="#DejaVuSans-65" transform="translate(1302.083984 0)"/>
    </g>
   </g>
   <g id="legend_1">
    <g id="patch_7">
     <path d="M 462.714063 65.878125 
L 576.2 65.878125 
Q 578.2 65.878125 578.2 63.878125 
L 578.2 50.2 
Q 578.2 48.2 576.2 48.2 
L 462.714063 48.2 
Q 460.714063 48.2 460.714063 50.2 
L 460.714063 63.878125 
Q 460.714063 65.878125 462.714063 65.878125 
z
" style="fill: #ffffff; opacity: 0.8; stroke: #cccccc; stroke-linejoin: miter"/>
    </g>
    <g id="line2d_26">
     <path d="M 464.714063 56.298437 
L 474.714063 56.298437 
L 484.714063 56.298437 
" style="fill: none; stroke: #800080; stroke-width: 1.5; stroke-linecap: square"/>
    </g>
    <g id="text_17">
     <!-- Average Reward -->
     <g transform="translate(492.714063 59.798437) scale(0.1 -0.1)">
      <use xlink:href="#DejaVuSans-41"/>
      <use xlink:href="#DejaVuSans-76" transform="translate(62.533203 0)"/>
      <use xlink:href="#DejaVuSans-65" transform="translate(121.712891 0)"/>
      <use xlink:href="#DejaVuSans-72" transform="translate(183.236328 0)"/>
      <use xlink:href="#DejaVuSans-61" transform="translate(224.349609 0)"/>
      <use xlink:href="#DejaVuSans-67" transform="translate(285.628906 0)"/>
      <use xlink:href="#DejaVuSans-65" transform="translate(349.105469 0)"/>
      <use xlink:href="#DejaVuSans-20" transform="translate(410.628906 0)"/>
      <use xlink:href="#DejaVuSans-52" transform="translate(442.416016 0)"/>
      <use xlink:href="#DejaVuSans-65" transform="translate(507.398438 0)"/>
      <use xlink:href="#DejaVuSans-77" transform="translate(568.921875 0)"/>
      <use xlink:href="#DejaVuSans-61" transform="translate(650.708984 0)"/>
      <use xlink:href="#DejaVuSans-72" transform="translate(711.988281 0)"/>
      <use xlink:href="#DejaVuSans-64" transform="translate(751.351562 0)"/>
     </g>
    </g>
   </g>
  </g>
 </g>
 <defs>
  <clipPath id="pa84362e169">
   <rect x="81" y="43.2" width="502.2" height="277.2"/>
  </clipPath>
 </defs>
</svg>
