<?xml version="1.0" encoding="utf-8" standalone="no"?>
<!DOCTYPE svg PUBLIC "-//W3C//DTD SVG 1.1//EN"
  "http://www.w3.org/Graphics/SVG/1.1/DTD/svg11.dtd">
<svg xmlns:xlink="http://www.w3.org/1999/xlink" width="648pt" height="360pt" viewBox="0 0 648 360" xmlns="http://www.w3.org/2000/svg" version="1.1">
 <metadata>
  <rdf:RDF xmlns:dc="http://purl.org/dc/elements/1.1/" xmlns:cc="http://creativecommons.org/ns#" xmlns:rdf="http://www.w3.org/1999/02/22-rdf-syntax-ns#">
   <cc:Work>
    <dc:type rdf:resource="http://purl.org/dc/dcmitype/StillImage"/>
    <dc:date>2025-09-23T17:55:54.954779</dc:date>
    <dc:format>image/svg+xml</dc:format>
    <dc:creator>
     <cc:Agent>
      <dc:title>Matplotlib v3.10.0, https://matplotlib.org/</dc:title>
     </cc:Agent>
    </dc:creator>
   </cc:Work>
  </rdf:RDF>
 </metadata>
 <defs>
  <style type="text/css">*{stroke-linejoin: round; stroke-linecap: butt}</style>
 </defs>
 <g id="figure_1">
  <g id="patch_1">
   <path d="M 0 360 
L 648 360 
L 648 0 
L 0 0 
z
" style="fill: #ffffff"/>
  </g>
  <g id="axes_1">
   <g id="patch_2">
    <path d="M 81 320.4 
L 583.2 320.4 
L 583.2 43.2 
L 81 43.2 
z
" style="fill: #ffffff"/>
   </g>
   <g id="matplotlib.axis_1">
    <g id="xtick_1">
     <g id="line2d_1">
      <path d="M 103.37027 320.4 
L 103.37027 43.2 
" clip-path="url(#p5f29d1363a)" style="fill: none; stroke: #b0b0b0; stroke-width: 0.8; stroke-linecap: square"/>
     </g>
     <g id="line2d_2">
      <defs>
       <path id="mc057894ad2" d="M 0 0 
L 0 3.5 
" style="stroke: #000000; stroke-width: 0.8"/>
      </defs>
      <g>
       <use xlink:href="#mc057894ad2" x="103.37027" y="320.4" style="stroke: #000000; stroke-width: 0.8"/>
      </g>
     </g>
     <g id="text_1">
      <!-- 0 -->
      <g transform="translate(100.18902 334.998438) scale(0.1 -0.1)">
       <defs>
        <path id="DejaVuSans-30" d="M 2034 4250 
Q 1547 4250 1301 3770 
Q 1056 3291 1056 2328 
Q 1056 1369 1301 889 
Q 1547 409 2034 409 
Q 2525 409 2770 889 
Q 3016 1369 3016 2328 
Q 3016 3291 2770 3770 
Q 2525 4250 2034 4250 
z
M 2034 4750 
Q 2819 4750 3233 4129 
Q 3647 3509 3647 2328 
Q 3647 1150 3233 529 
Q 2819 -91 2034 -91 
Q 1250 -91 836 529 
Q 422 1150 422 2328 
Q 422 3509 836 4129 
Q 1250 4750 2034 4750 
z
" transform="scale(0.015625)"/>
       </defs>
       <use xlink:href="#DejaVuSans-30"/>
      </g>
     </g>
    </g>
    <g id="xtick_2">
     <g id="line2d_3">
      <path d="M 194.770762 320.4 
L 194.770762 43.2 
" clip-path="url(#p5f29d1363a)" style="fill: none; stroke: #b0b0b0; stroke-width: 0.8; stroke-linecap: square"/>
     </g>
     <g id="line2d_4">
      <g>
       <use xlink:href="#mc057894ad2" x="194.770762" y="320.4" style="stroke: #000000; stroke-width: 0.8"/>
      </g>
     </g>
     <g id="text_2">
      <!-- 200 -->
      <g transform="translate(185.227012 334.998438) scale(0.1 -0.1)">
       <defs>
        <path id="DejaVuSans-32" d="M 1228 531 
L 3431 531 
L 3431 0 
L 469 0 
L 469 531 
Q 828 903 1448 1529 
Q 2069 2156 2228 2338 
Q 2531 2678 2651 2914 
Q 2772 3150 2772 3378 
Q 2772 3750 2511 3984 
Q 2250 4219 1831 4219 
Q 1534 4219 1204 4116 
Q 875 4013 500 3803 
L 500 4441 
Q 881 4594 1212 4672 
Q 1544 4750 1819 4750 
Q 2544 4750 2975 4387 
Q 3406 4025 3406 3419 
Q 3406 3131 3298 2873 
Q 3191 2616 2906 2266 
Q 2828 2175 2409 1742 
Q 1991 1309 1228 531 
z
" transform="scale(0.015625)"/>
       </defs>
       <use xlink:href="#DejaVuSans-32"/>
       <use xlink:href="#DejaVuSans-30" transform="translate(63.623047 0)"/>
       <use xlink:href="#DejaVuSans-30" transform="translate(127.246094 0)"/>
      </g>
     </g>
    </g>
    <g id="xtick_3">
     <g id="line2d_5">
      <path d="M 286.171253 320.4 
L 286.171253 43.2 
" clip-path="url(#p5f29d1363a)" style="fill: none; stroke: #b0b0b0; stroke-width: 0.8; stroke-linecap: square"/>
     </g>
     <g id="line2d_6">
      <g>
       <use xlink:href="#mc057894ad2" x="286.171253" y="320.4" style="stroke: #000000; stroke-width: 0.8"/>
      </g>
     </g>
     <g id="text_3">
      <!-- 400 -->
      <g transform="translate(276.627503 334.998438) scale(0.1 -0.1)">
       <defs>
        <path id="DejaVuSans-34" d="M 2419 4116 
L 825 1625 
L 2419 1625 
L 2419 4116 
z
M 2253 4666 
L 3047 4666 
L 3047 1625 
L 3713 1625 
L 3713 1100 
L 3047 1100 
L 3047 0 
L 2419 0 
L 2419 1100 
L 313 1100 
L 313 1709 
L 2253 4666 
z
" transform="scale(0.015625)"/>
       </defs>
       <use xlink:href="#DejaVuSans-34"/>
       <use xlink:href="#DejaVuSans-30" transform="translate(63.623047 0)"/>
       <use xlink:href="#DejaVuSans-30" transform="translate(127.246094 0)"/>
      </g>
     </g>
    </g>
    <g id="xtick_4">
     <g id="line2d_7">
      <path d="M 377.571744 320.4 
L 377.571744 43.2 
" clip-path="url(#p5f29d1363a)" style="fill: none; stroke: #b0b0b0; stroke-width: 0.8; stroke-linecap: square"/>
     </g>
     <g id="line2d_8">
      <g>
       <use xlink:href="#mc057894ad2" x="377.571744" y="320.4" style="stroke: #000000; stroke-width: 0.8"/>
      </g>
     </g>
     <g id="text_4">
      <!-- 600 -->
      <g transform="translate(368.027994 334.998438) scale(0.1 -0.1)">
       <defs>
        <path id="DejaVuSans-36" d="M 2113 2584 
Q 1688 2584 1439 2293 
Q 1191 2003 1191 1497 
Q 1191 994 1439 701 
Q 1688 409 2113 409 
Q 2538 409 2786 701 
Q 3034 994 3034 1497 
Q 3034 2003 2786 2293 
Q 2538 2584 2113 2584 
z
M 3366 4563 
L 3366 3988 
Q 3128 4100 2886 4159 
Q 2644 4219 2406 4219 
Q 1781 4219 1451 3797 
Q 1122 3375 1075 2522 
Q 1259 2794 1537 2939 
Q 1816 3084 2150 3084 
Q 2853 3084 3261 2657 
Q 3669 2231 3669 1497 
Q 3669 778 3244 343 
Q 2819 -91 2113 -91 
Q 1303 -91 875 529 
Q 447 1150 447 2328 
Q 447 3434 972 4092 
Q 1497 4750 2381 4750 
Q 2619 4750 2861 4703 
Q 3103 4656 3366 4563 
z
" transform="scale(0.015625)"/>
       </defs>
       <use xlink:href="#DejaVuSans-36"/>
       <use xlink:href="#DejaVuSans-30" transform="translate(63.623047 0)"/>
       <use xlink:href="#DejaVuSans-30" transform="translate(127.246094 0)"/>
      </g>
     </g>
    </g>
    <g id="xtick_5">
     <g id="line2d_9">
      <path d="M 468.972236 320.4 
L 468.972236 43.2 
" clip-path="url(#p5f29d1363a)" style="fill: none; stroke: #b0b0b0; stroke-width: 0.8; stroke-linecap: square"/>
     </g>
     <g id="line2d_10">
      <g>
       <use xlink:href="#mc057894ad2" x="468.972236" y="320.4" style="stroke: #000000; stroke-width: 0.8"/>
      </g>
     </g>
     <g id="text_5">
      <!-- 800 -->
      <g transform="translate(459.428486 334.998438) scale(0.1 -0.1)">
       <defs>
        <path id="DejaVuSans-38" d="M 2034 2216 
Q 1584 2216 1326 1975 
Q 1069 1734 1069 1313 
Q 1069 891 1326 650 
Q 1584 409 2034 409 
Q 2484 409 2743 651 
Q 3003 894 3003 1313 
Q 3003 1734 2745 1975 
Q 2488 2216 2034 2216 
z
M 1403 2484 
Q 997 2584 770 2862 
Q 544 3141 544 3541 
Q 544 4100 942 4425 
Q 1341 4750 2034 4750 
Q 2731 4750 3128 4425 
Q 3525 4100 3525 3541 
Q 3525 3141 3298 2862 
Q 3072 2584 2669 2484 
Q 3125 2378 3379 2068 
Q 3634 1759 3634 1313 
Q 3634 634 3220 271 
Q 2806 -91 2034 -91 
Q 1263 -91 848 271 
Q 434 634 434 1313 
Q 434 1759 690 2068 
Q 947 2378 1403 2484 
z
M 1172 3481 
Q 1172 3119 1398 2916 
Q 1625 2713 2034 2713 
Q 2441 2713 2670 2916 
Q 2900 3119 2900 3481 
Q 2900 3844 2670 4047 
Q 2441 4250 2034 4250 
Q 1625 4250 1398 4047 
Q 1172 3844 1172 3481 
z
" transform="scale(0.015625)"/>
       </defs>
       <use xlink:href="#DejaVuSans-38"/>
       <use xlink:href="#DejaVuSans-30" transform="translate(63.623047 0)"/>
       <use xlink:href="#DejaVuSans-30" transform="translate(127.246094 0)"/>
      </g>
     </g>
    </g>
    <g id="xtick_6">
     <g id="line2d_11">
      <path d="M 560.372727 320.4 
L 560.372727 43.2 
" clip-path="url(#p5f29d1363a)" style="fill: none; stroke: #b0b0b0; stroke-width: 0.8; stroke-linecap: square"/>
     </g>
     <g id="line2d_12">
      <g>
       <use xlink:href="#mc057894ad2" x="560.372727" y="320.4" style="stroke: #000000; stroke-width: 0.8"/>
      </g>
     </g>
     <g id="text_6">
      <!-- 1000 -->
      <g transform="translate(547.647727 334.998438) scale(0.1 -0.1)">
       <defs>
        <path id="DejaVuSans-31" d="M 794 531 
L 1825 531 
L 1825 4091 
L 703 3866 
L 703 4441 
L 1819 4666 
L 2450 4666 
L 2450 531 
L 3481 531 
L 3481 0 
L 794 0 
L 794 531 
z
" transform="scale(0.015625)"/>
       </defs>
       <use xlink:href="#DejaVuSans-31"/>
       <use xlink:href="#DejaVuSans-30" transform="translate(63.623047 0)"/>
       <use xlink:href="#DejaVuSans-30" transform="translate(127.246094 0)"/>
       <use xlink:href="#DejaVuSans-30" transform="translate(190.869141 0)"/>
      </g>
     </g>
    </g>
    <g id="text_7">
     <!-- Time -->
     <g transform="translate(319.866406 348.676562) scale(0.1 -0.1)">
      <defs>
       <path id="DejaVuSans-54" d="M -19 4666 
L 3928 4666 
L 3928 4134 
L 2272 4134 
L 2272 0 
L 1638 0 
L 1638 4134 
L -19 4134 
L -19 4666 
z
" transform="scale(0.015625)"/>
       <path id="DejaVuSans-69" d="M 603 3500 
L 1178 3500 
L 1178 0 
L 603 0 
L 603 3500 
z
M 603 4863 
L 1178 4863 
L 1178 4134 
L 603 4134 
L 603 4863 
z
" transform="scale(0.015625)"/>
       <path id="DejaVuSans-6d" d="M 3328 2828 
Q 3544 3216 3844 3400 
Q 4144 3584 4550 3584 
Q 5097 3584 5394 3201 
Q 5691 2819 5691 2113 
L 5691 0 
L 5113 0 
L 5113 2094 
Q 5113 2597 4934 2840 
Q 4756 3084 4391 3084 
Q 3944 3084 3684 2787 
Q 3425 2491 3425 1978 
L 3425 0 
L 2847 0 
L 2847 2094 
Q 2847 2600 2669 2842 
Q 2491 3084 2119 3084 
Q 1678 3084 1418 2786 
Q 1159 2488 1159 1978 
L 1159 0 
L 581 0 
L 581 3500 
L 1159 3500 
L 1159 2956 
Q 1356 3278 1631 3431 
Q 1906 3584 2284 3584 
Q 2666 3584 2933 3390 
Q 3200 3197 3328 2828 
z
" transform="scale(0.015625)"/>
       <path id="DejaVuSans-65" d="M 3597 1894 
L 3597 1613 
L 953 1613 
Q 991 1019 1311 708 
Q 1631 397 2203 397 
Q 2534 397 2845 478 
Q 3156 559 3463 722 
L 3463 178 
Q 3153 47 2828 -22 
Q 2503 -91 2169 -91 
Q 1331 -91 842 396 
Q 353 884 353 1716 
Q 353 2575 817 3079 
Q 1281 3584 2069 3584 
Q 2775 3584 3186 3129 
Q 3597 2675 3597 1894 
z
M 3022 2063 
Q 3016 2534 2758 2815 
Q 2500 3097 2075 3097 
Q 1594 3097 1305 2825 
Q 1016 2553 972 2059 
L 3022 2063 
z
" transform="scale(0.015625)"/>
      </defs>
      <use xlink:href="#DejaVuSans-54"/>
      <use xlink:href="#DejaVuSans-69" transform="translate(57.958984 0)"/>
      <use xlink:href="#DejaVuSans-6d" transform="translate(85.742188 0)"/>
      <use xlink:href="#DejaVuSans-65" transform="translate(183.154297 0)"/>
     </g>
    </g>
   </g>
   <g id="matplotlib.axis_2">
    <g id="ytick_1">
     <g id="line2d_13">
      <path d="M 81 299.661912 
L 583.2 299.661912 
" clip-path="url(#p5f29d1363a)" style="fill: none; stroke: #b0b0b0; stroke-width: 0.8; stroke-linecap: square"/>
     </g>
     <g id="line2d_14">
      <defs>
       <path id="m183832c021" d="M 0 0 
L -3.5 0 
" style="stroke: #000000; stroke-width: 0.8"/>
      </defs>
      <g>
       <use xlink:href="#m183832c021" x="81" y="299.661912" style="stroke: #000000; stroke-width: 0.8"/>
      </g>
     </g>
     <g id="text_8">
      <!-- −2.0 -->
      <g transform="translate(49.717187 303.461131) scale(0.1 -0.1)">
       <defs>
        <path id="DejaVuSans-2212" d="M 678 2272 
L 4684 2272 
L 4684 1741 
L 678 1741 
L 678 2272 
z
" transform="scale(0.015625)"/>
        <path id="DejaVuSans-2e" d="M 684 794 
L 1344 794 
L 1344 0 
L 684 0 
L 684 794 
z
" transform="scale(0.015625)"/>
       </defs>
       <use xlink:href="#DejaVuSans-2212"/>
       <use xlink:href="#DejaVuSans-32" transform="translate(83.789062 0)"/>
       <use xlink:href="#DejaVuSans-2e" transform="translate(147.412109 0)"/>
       <use xlink:href="#DejaVuSans-30" transform="translate(179.199219 0)"/>
      </g>
     </g>
    </g>
    <g id="ytick_2">
     <g id="line2d_15">
      <path d="M 81 267.788189 
L 583.2 267.788189 
" clip-path="url(#p5f29d1363a)" style="fill: none; stroke: #b0b0b0; stroke-width: 0.8; stroke-linecap: square"/>
     </g>
     <g id="line2d_16">
      <g>
       <use xlink:href="#m183832c021" x="81" y="267.788189" style="stroke: #000000; stroke-width: 0.8"/>
      </g>
     </g>
     <g id="text_9">
      <!-- −1.5 -->
      <g transform="translate(49.717187 271.587408) scale(0.1 -0.1)">
       <defs>
        <path id="DejaVuSans-35" d="M 691 4666 
L 3169 4666 
L 3169 4134 
L 1269 4134 
L 1269 2991 
Q 1406 3038 1543 3061 
Q 1681 3084 1819 3084 
Q 2600 3084 3056 2656 
Q 3513 2228 3513 1497 
Q 3513 744 3044 326 
Q 2575 -91 1722 -91 
Q 1428 -91 1123 -41 
Q 819 9 494 109 
L 494 744 
Q 775 591 1075 516 
Q 1375 441 1709 441 
Q 2250 441 2565 725 
Q 2881 1009 2881 1497 
Q 2881 1984 2565 2268 
Q 2250 2553 1709 2553 
Q 1456 2553 1204 2497 
Q 953 2441 691 2322 
L 691 4666 
z
" transform="scale(0.015625)"/>
       </defs>
       <use xlink:href="#DejaVuSans-2212"/>
       <use xlink:href="#DejaVuSans-31" transform="translate(83.789062 0)"/>
       <use xlink:href="#DejaVuSans-2e" transform="translate(147.412109 0)"/>
       <use xlink:href="#DejaVuSans-35" transform="translate(179.199219 0)"/>
      </g>
     </g>
    </g>
    <g id="ytick_3">
     <g id="line2d_17">
      <path d="M 81 235.914466 
L 583.2 235.914466 
" clip-path="url(#p5f29d1363a)" style="fill: none; stroke: #b0b0b0; stroke-width: 0.8; stroke-linecap: square"/>
     </g>
     <g id="line2d_18">
      <g>
       <use xlink:href="#m183832c021" x="81" y="235.914466" style="stroke: #000000; stroke-width: 0.8"/>
      </g>
     </g>
     <g id="text_10">
      <!-- −1.0 -->
      <g transform="translate(49.717187 239.713685) scale(0.1 -0.1)">
       <use xlink:href="#DejaVuSans-2212"/>
       <use xlink:href="#DejaVuSans-31" transform="translate(83.789062 0)"/>
       <use xlink:href="#DejaVuSans-2e" transform="translate(147.412109 0)"/>
       <use xlink:href="#DejaVuSans-30" transform="translate(179.199219 0)"/>
      </g>
     </g>
    </g>
    <g id="ytick_4">
     <g id="line2d_19">
      <path d="M 81 204.040743 
L 583.2 204.040743 
" clip-path="url(#p5f29d1363a)" style="fill: none; stroke: #b0b0b0; stroke-width: 0.8; stroke-linecap: square"/>
     </g>
     <g id="line2d_20">
      <g>
       <use xlink:href="#m183832c021" x="81" y="204.040743" style="stroke: #000000; stroke-width: 0.8"/>
      </g>
     </g>
     <g id="text_11">
      <!-- −0.5 -->
      <g transform="translate(49.717187 207.839962) scale(0.1 -0.1)">
       <use xlink:href="#DejaVuSans-2212"/>
       <use xlink:href="#DejaVuSans-30" transform="translate(83.789062 0)"/>
       <use xlink:href="#DejaVuSans-2e" transform="translate(147.412109 0)"/>
       <use xlink:href="#DejaVuSans-35" transform="translate(179.199219 0)"/>
      </g>
     </g>
    </g>
    <g id="ytick_5">
     <g id="line2d_21">
      <path d="M 81 172.16702 
L 583.2 172.16702 
" clip-path="url(#p5f29d1363a)" style="fill: none; stroke: #b0b0b0; stroke-width: 0.8; stroke-linecap: square"/>
     </g>
     <g id="line2d_22">
      <g>
       <use xlink:href="#m183832c021" x="81" y="172.16702" style="stroke: #000000; stroke-width: 0.8"/>
      </g>
     </g>
     <g id="text_12">
      <!-- 0.0 -->
      <g transform="translate(58.096875 175.966239) scale(0.1 -0.1)">
       <use xlink:href="#DejaVuSans-30"/>
       <use xlink:href="#DejaVuSans-2e" transform="translate(63.623047 0)"/>
       <use xlink:href="#DejaVuSans-30" transform="translate(95.410156 0)"/>
      </g>
     </g>
    </g>
    <g id="ytick_6">
     <g id="line2d_23">
      <path d="M 81 140.293297 
L 583.2 140.293297 
" clip-path="url(#p5f29d1363a)" style="fill: none; stroke: #b0b0b0; stroke-width: 0.8; stroke-linecap: square"/>
     </g>
     <g id="line2d_24">
      <g>
       <use xlink:href="#m183832c021" x="81" y="140.293297" style="stroke: #000000; stroke-width: 0.8"/>
      </g>
     </g>
     <g id="text_13">
      <!-- 0.5 -->
      <g transform="translate(58.096875 144.092516) scale(0.1 -0.1)">
       <use xlink:href="#DejaVuSans-30"/>
       <use xlink:href="#DejaVuSans-2e" transform="translate(63.623047 0)"/>
       <use xlink:href="#DejaVuSans-35" transform="translate(95.410156 0)"/>
      </g>
     </g>
    </g>
    <g id="ytick_7">
     <g id="line2d_25">
      <path d="M 81 108.419574 
L 583.2 108.419574 
" clip-path="url(#p5f29d1363a)" style="fill: none; stroke: #b0b0b0; stroke-width: 0.8; stroke-linecap: square"/>
     </g>
     <g id="line2d_26">
      <g>
       <use xlink:href="#m183832c021" x="81" y="108.419574" style="stroke: #000000; stroke-width: 0.8"/>
      </g>
     </g>
     <g id="text_14">
      <!-- 1.0 -->
      <g transform="translate(58.096875 112.218793) scale(0.1 -0.1)">
       <use xlink:href="#DejaVuSans-31"/>
       <use xlink:href="#DejaVuSans-2e" transform="translate(63.623047 0)"/>
       <use xlink:href="#DejaVuSans-30" transform="translate(95.410156 0)"/>
      </g>
     </g>
    </g>
    <g id="ytick_8">
     <g id="line2d_27">
      <path d="M 81 76.545851 
L 583.2 76.545851 
" clip-path="url(#p5f29d1363a)" style="fill: none; stroke: #b0b0b0; stroke-width: 0.8; stroke-linecap: square"/>
     </g>
     <g id="line2d_28">
      <g>
       <use xlink:href="#m183832c021" x="81" y="76.545851" style="stroke: #000000; stroke-width: 0.8"/>
      </g>
     </g>
     <g id="text_15">
      <!-- 1.5 -->
      <g transform="translate(58.096875 80.34507) scale(0.1 -0.1)">
       <use xlink:href="#DejaVuSans-31"/>
       <use xlink:href="#DejaVuSans-2e" transform="translate(63.623047 0)"/>
       <use xlink:href="#DejaVuSans-35" transform="translate(95.410156 0)"/>
      </g>
     </g>
    </g>
    <g id="ytick_9">
     <g id="line2d_29">
      <path d="M 81 44.672128 
L 583.2 44.672128 
" clip-path="url(#p5f29d1363a)" style="fill: none; stroke: #b0b0b0; stroke-width: 0.8; stroke-linecap: square"/>
     </g>
     <g id="line2d_30">
      <g>
       <use xlink:href="#m183832c021" x="81" y="44.672128" style="stroke: #000000; stroke-width: 0.8"/>
      </g>
     </g>
     <g id="text_16">
      <!-- 2.0 -->
      <g transform="translate(58.096875 48.471347) scale(0.1 -0.1)">
       <use xlink:href="#DejaVuSans-32"/>
       <use xlink:href="#DejaVuSans-2e" transform="translate(63.623047 0)"/>
       <use xlink:href="#DejaVuSans-30" transform="translate(95.410156 0)"/>
      </g>
     </g>
    </g>
    <g id="text_17">
     <!-- Average Reward -->
     <g transform="translate(43.6375 222.542969) rotate(-90) scale(0.1 -0.1)">
      <defs>
       <path id="DejaVuSans-41" d="M 2188 4044 
L 1331 1722 
L 3047 1722 
L 2188 4044 
z
M 1831 4666 
L 2547 4666 
L 4325 0 
L 3669 0 
L 3244 1197 
L 1141 1197 
L 716 0 
L 50 0 
L 1831 4666 
z
" transform="scale(0.015625)"/>
       <path id="DejaVuSans-76" d="M 191 3500 
L 800 3500 
L 1894 563 
L 2988 3500 
L 3597 3500 
L 2284 0 
L 1503 0 
L 191 3500 
z
" transform="scale(0.015625)"/>
       <path id="DejaVuSans-72" d="M 2631 2963 
Q 2534 3019 2420 3045 
Q 2306 3072 2169 3072 
Q 1681 3072 1420 2755 
Q 1159 2438 1159 1844 
L 1159 0 
L 581 0 
L 581 3500 
L 1159 3500 
L 1159 2956 
Q 1341 3275 1631 3429 
Q 1922 3584 2338 3584 
Q 2397 3584 2469 3576 
Q 2541 3569 2628 3553 
L 2631 2963 
z
" transform="scale(0.015625)"/>
       <path id="DejaVuSans-61" d="M 2194 1759 
Q 1497 1759 1228 1600 
Q 959 1441 959 1056 
Q 959 750 1161 570 
Q 1363 391 1709 391 
Q 2188 391 2477 730 
Q 2766 1069 2766 1631 
L 2766 1759 
L 2194 1759 
z
M 3341 1997 
L 3341 0 
L 2766 0 
L 2766 531 
Q 2569 213 2275 61 
Q 1981 -91 1556 -91 
Q 1019 -91 701 211 
Q 384 513 384 1019 
Q 384 1609 779 1909 
Q 1175 2209 1959 2209 
L 2766 2209 
L 2766 2266 
Q 2766 2663 2505 2880 
Q 2244 3097 1772 3097 
Q 1472 3097 1187 3025 
Q 903 2953 641 2809 
L 641 3341 
Q 956 3463 1253 3523 
Q 1550 3584 1831 3584 
Q 2591 3584 2966 3190 
Q 3341 2797 3341 1997 
z
" transform="scale(0.015625)"/>
       <path id="DejaVuSans-67" d="M 2906 1791 
Q 2906 2416 2648 2759 
Q 2391 3103 1925 3103 
Q 1463 3103 1205 2759 
Q 947 2416 947 1791 
Q 947 1169 1205 825 
Q 1463 481 1925 481 
Q 2391 481 2648 825 
Q 2906 1169 2906 1791 
z
M 3481 434 
Q 3481 -459 3084 -895 
Q 2688 -1331 1869 -1331 
Q 1566 -1331 1297 -1286 
Q 1028 -1241 775 -1147 
L 775 -588 
Q 1028 -725 1275 -790 
Q 1522 -856 1778 -856 
Q 2344 -856 2625 -561 
Q 2906 -266 2906 331 
L 2906 616 
Q 2728 306 2450 153 
Q 2172 0 1784 0 
Q 1141 0 747 490 
Q 353 981 353 1791 
Q 353 2603 747 3093 
Q 1141 3584 1784 3584 
Q 2172 3584 2450 3431 
Q 2728 3278 2906 2969 
L 2906 3500 
L 3481 3500 
L 3481 434 
z
" transform="scale(0.015625)"/>
       <path id="DejaVuSans-20" transform="scale(0.015625)"/>
       <path id="DejaVuSans-52" d="M 2841 2188 
Q 3044 2119 3236 1894 
Q 3428 1669 3622 1275 
L 4263 0 
L 3584 0 
L 2988 1197 
Q 2756 1666 2539 1819 
Q 2322 1972 1947 1972 
L 1259 1972 
L 1259 0 
L 628 0 
L 628 4666 
L 2053 4666 
Q 2853 4666 3247 4331 
Q 3641 3997 3641 3322 
Q 3641 2881 3436 2590 
Q 3231 2300 2841 2188 
z
M 1259 4147 
L 1259 2491 
L 2053 2491 
Q 2509 2491 2742 2702 
Q 2975 2913 2975 3322 
Q 2975 3731 2742 3939 
Q 2509 4147 2053 4147 
L 1259 4147 
z
" transform="scale(0.015625)"/>
       <path id="DejaVuSans-77" d="M 269 3500 
L 844 3500 
L 1563 769 
L 2278 3500 
L 2956 3500 
L 3675 769 
L 4391 3500 
L 4966 3500 
L 4050 0 
L 3372 0 
L 2619 2869 
L 1863 0 
L 1184 0 
L 269 3500 
z
" transform="scale(0.015625)"/>
       <path id="DejaVuSans-64" d="M 2906 2969 
L 2906 4863 
L 3481 4863 
L 3481 0 
L 2906 0 
L 2906 525 
Q 2725 213 2448 61 
Q 2172 -91 1784 -91 
Q 1150 -91 751 415 
Q 353 922 353 1747 
Q 353 2572 751 3078 
Q 1150 3584 1784 3584 
Q 2172 3584 2448 3432 
Q 2725 3281 2906 2969 
z
M 947 1747 
Q 947 1113 1208 752 
Q 1469 391 1925 391 
Q 2381 391 2643 752 
Q 2906 1113 2906 1747 
Q 2906 2381 2643 2742 
Q 2381 3103 1925 3103 
Q 1469 3103 1208 2742 
Q 947 2381 947 1747 
z
" transform="scale(0.015625)"/>
      </defs>
      <use xlink:href="#DejaVuSans-41"/>
      <use xlink:href="#DejaVuSans-76" transform="translate(62.533203 0)"/>
      <use xlink:href="#DejaVuSans-65" transform="translate(121.712891 0)"/>
      <use xlink:href="#DejaVuSans-72" transform="translate(183.236328 0)"/>
      <use xlink:href="#DejaVuSans-61" transform="translate(224.349609 0)"/>
      <use xlink:href="#DejaVuSans-67" transform="translate(285.628906 0)"/>
      <use xlink:href="#DejaVuSans-65" transform="translate(349.105469 0)"/>
      <use xlink:href="#DejaVuSans-20" transform="translate(410.628906 0)"/>
      <use xlink:href="#DejaVuSans-52" transform="translate(442.416016 0)"/>
      <use xlink:href="#DejaVuSans-65" transform="translate(507.398438 0)"/>
      <use xlink:href="#DejaVuSans-77" transform="translate(568.921875 0)"/>
      <use xlink:href="#DejaVuSans-61" transform="translate(650.708984 0)"/>
      <use xlink:href="#DejaVuSans-72" transform="translate(711.988281 0)"/>
      <use xlink:href="#DejaVuSans-64" transform="translate(751.351562 0)"/>
     </g>
    </g>
    <g id="text_18">
     <!-- 1e−7 -->
     <g transform="translate(81 40.2) scale(0.1 -0.1)">
      <defs>
       <path id="DejaVuSans-37" d="M 525 4666 
L 3525 4666 
L 3525 4397 
L 1831 0 
L 1172 0 
L 2766 4134 
L 525 4134 
L 525 4666 
z
" transform="scale(0.015625)"/>
      </defs>
      <use xlink:href="#DejaVuSans-31"/>
      <use xlink:href="#DejaVuSans-65" transform="translate(63.623047 0)"/>
      <use xlink:href="#DejaVuSans-2212" transform="translate(125.146484 0)"/>
      <use xlink:href="#DejaVuSans-37" transform="translate(208.935547 0)"/>
     </g>
    </g>
   </g>
   <g id="line2d_31">
    <path d="M 103.827273 172.16702 
L 104.284275 176.277447 
L 104.741278 200.964874 
L 105.19828 127.133761 
L 105.655283 156.795449 
L 106.112285 92.602043 
L 106.569287 148.551948 
L 107.02629 65.631077 
L 107.483292 161.203834 
L 107.940295 125.137849 
L 108.397297 194.146137 
L 108.8543 156.600967 
L 109.311302 154.514538 
L 109.768305 161.456815 
L 110.225307 79.832904 
L 110.68231 210.54034 
L 111.139312 159.517483 
L 111.596314 258.978827 
L 112.510319 170.703054 
L 112.967322 247.493279 
L 113.424324 221.753961 
L 113.881327 162.346404 
L 114.338329 172.862744 
L 114.795332 165.950128 
L 115.252334 77.394836 
L 115.709337 287.759331 
L 116.166339 162.204613 
L 116.623342 95.178468 
L 117.080344 220.520087 
L 117.537346 156.398104 
L 117.994349 203.6194 
L 118.451351 105.811202 
L 118.908354 189.198426 
L 119.365356 163.782932 
L 119.822359 197.517998 
L 120.736364 215.950466 
L 121.193366 68.812373 
L 121.650369 178.572859 
L 122.107371 179.280777 
L 122.564373 235.876365 
L 123.021376 203.105086 
L 123.478378 233.815738 
L 123.935381 163.824185 
L 124.392383 264.392435 
L 124.849386 151.991053 
L 125.306388 200.881411 
L 125.763391 263.935823 
L 126.220393 233.547804 
L 126.677396 115.468609 
L 127.134398 198.167343 
L 127.5914 307.8 
L 128.048403 109.219052 
L 128.505405 194.546311 
L 128.962408 240.59755 
L 129.41941 128.569711 
L 129.876413 101.359565 
L 130.333415 195.461014 
L 130.790418 171.660194 
L 131.24742 102.39507 
L 131.704423 207.367252 
L 132.161425 254.397609 
L 132.618428 142.259174 
L 133.07543 209.387517 
L 133.532432 202.326326 
L 133.989435 163.117483 
L 134.446437 212.383446 
L 134.90344 214.001757 
L 135.360442 123.226276 
L 135.817445 123.316331 
L 136.274447 177.815153 
L 136.73145 152.428747 
L 137.188452 166.597858 
L 137.645455 208.137892 
L 138.102457 157.83115 
L 138.559459 141.191208 
L 139.016462 218.663867 
L 139.473464 128.721831 
L 139.930467 178.198905 
L 140.387469 84.122281 
L 140.844472 149.964041 
L 141.301474 143.579598 
L 141.758477 201.651032 
L 142.215479 186.253811 
L 142.672482 201.410617 
L 143.129484 225.816854 
L 143.586486 163.061293 
L 144.500491 207.831229 
L 144.957494 165.655396 
L 145.414496 165.189064 
L 145.871499 180.387498 
L 146.328501 164.451751 
L 146.785504 55.8 
L 147.242506 155.71884 
L 147.699509 289.619775 
L 148.156511 181.263116 
L 148.613514 113.380104 
L 149.070516 210.255439 
L 149.527518 188.282604 
L 150.441523 112.807361 
L 150.898526 157.209648 
L 151.355528 260.496163 
L 151.812531 132.45454 
L 152.269533 145.941122 
L 152.726536 129.975453 
L 153.183538 208.96491 
L 153.640541 151.662524 
L 154.097543 121.294668 
L 154.554545 183.127457 
L 155.011548 128.220914 
L 155.46855 164.345229 
L 155.925553 151.002462 
L 156.382555 159.668758 
L 156.839558 249.121429 
L 157.29656 239.895756 
L 157.753563 191.629312 
L 158.210565 163.314684 
L 159.12457 202.122563 
L 159.581572 144.023932 
L 160.038575 124.734575 
L 160.495577 178.428337 
L 160.95258 185.330619 
L 161.409582 160.99906 
L 161.866585 217.016766 
L 162.323587 135.33528 
L 162.78059 192.519557 
L 163.237592 192.32032 
L 163.694595 194.685689 
L 164.151597 162.181357 
L 164.6086 161.295736 
L 165.065602 129.094227 
L 165.522604 178.218167 
L 165.979607 192.715753 
L 166.893612 109.907297 
L 167.350614 168.822994 
L 167.807617 144.223293 
L 168.264619 169.600784 
L 168.721622 219.168873 
L 169.178624 155.742588 
L 169.635627 121.795399 
L 170.092629 157.526981 
L 170.549631 138.678329 
L 171.006634 194.662283 
L 171.463636 163.066921 
L 171.920639 151.195827 
L 172.377641 193.095408 
L 172.834644 171.166883 
L 173.291646 163.119149 
L 173.748649 220.734205 
L 174.205651 143.569248 
L 174.662654 208.986339 
L 175.119656 166.116524 
L 175.576658 206.218672 
L 176.033661 172.223259 
L 176.490663 151.740479 
L 176.947666 187.687099 
L 177.404668 168.581725 
L 177.861671 127.151451 
L 178.318673 206.881404 
L 178.775676 172.792309 
L 179.232678 189.129207 
L 179.689681 156.396603 
L 180.146683 189.850692 
L 180.603686 188.739228 
L 181.060688 194.0537 
L 181.51769 166.370481 
L 181.974693 146.492347 
L 182.431695 154.568253 
L 182.888698 186.454934 
L 183.3457 155.476071 
L 183.802703 173.591561 
L 184.259705 198.493727 
L 184.716708 190.848391 
L 185.17371 146.288703 
L 185.630713 139.242602 
L 186.087715 192.048793 
L 186.544717 154.919516 
L 187.00172 187.389161 
L 187.458722 147.157949 
L 187.915725 151.562876 
L 188.372727 202.309493 
L 188.82973 107.222069 
L 189.286732 172.294296 
L 189.743735 144.611078 
L 190.200737 179.416169 
L 190.65774 169.932172 
L 191.114742 181.710711 
L 191.571744 169.32393 
L 192.028747 176.336005 
L 192.485749 198.694425 
L 192.942752 128.987513 
L 193.856757 206.327042 
L 194.313759 171.107913 
L 194.770762 191.372085 
L 195.227764 175.680542 
L 195.684767 178.631902 
L 196.141769 207.351103 
L 196.598771 122.293919 
L 197.055774 147.097178 
L 197.512776 200.670671 
L 198.426781 187.691094 
L 198.883784 169.900729 
L 199.340786 111.218231 
L 199.797789 178.286492 
L 200.254791 167.082125 
L 200.711794 152.46435 
L 201.168796 183.515138 
L 201.625799 137.622427 
L 202.082801 171.185966 
L 202.539803 141.840534 
L 202.996806 166.265551 
L 203.910811 191.081612 
L 204.367813 147.471717 
L 204.824816 196.730289 
L 205.281818 163.330723 
L 205.738821 175.566 
L 206.195823 207.669384 
L 206.652826 123.642757 
L 207.109828 126.859156 
L 207.56683 169.235206 
L 208.023833 148.113289 
L 208.480835 206.90931 
L 208.937838 181.987765 
L 209.39484 138.467164 
L 209.851843 190.458198 
L 210.308845 142.989258 
L 211.22285 222.17992 
L 211.679853 117.315883 
L 212.136855 144.585649 
L 212.593857 147.775793 
L 213.05086 159.071104 
L 213.507862 206.157752 
L 213.964865 105.739827 
L 214.421867 149.537621 
L 214.87887 246.078021 
L 215.335872 225.631826 
L 215.792875 175.925671 
L 216.249877 160.522287 
L 217.163882 193.84851 
L 217.620885 164.976919 
L 218.077887 255.175668 
L 218.534889 143.362393 
L 218.991892 140.571838 
L 219.448894 198.790629 
L 219.905897 199.491212 
L 220.362899 154.04293 
L 220.819902 136.499749 
L 221.276904 183.649969 
L 221.733907 169.586937 
L 223.104914 179.124841 
L 223.561916 149.6169 
L 224.018919 150.634114 
L 224.932924 211.891427 
L 225.389926 173.945817 
L 225.846929 159.84863 
L 226.760934 160.853846 
L 227.217936 126.640952 
L 227.674939 184.347416 
L 228.131941 220.815207 
L 228.588943 184.217538 
L 229.045946 168.077697 
L 229.502948 169.857734 
L 229.959951 169.539551 
L 230.416953 196.179354 
L 230.873956 178.425625 
L 231.330958 191.442014 
L 231.787961 213.059116 
L 232.244963 164.724686 
L 232.701966 185.261502 
L 233.158968 180.406697 
L 233.615971 189.707353 
L 234.072973 149.398559 
L 234.529975 155.7669 
L 234.986978 164.347896 
L 235.44398 168.333312 
L 235.900983 120.442588 
L 236.357985 176.989706 
L 236.814988 186.011307 
L 237.27199 212.83802 
L 238.185995 194.137488 
L 238.642998 155.809736 
L 239.1 159.956715 
L 239.557002 153.602639 
L 240.014005 189.040152 
L 240.471007 148.832615 
L 240.92801 176.631593 
L 241.385012 159.722142 
L 241.842015 151.145137 
L 242.299017 191.605702 
L 242.75602 174.946226 
L 243.213022 224.465622 
L 243.670025 157.351339 
L 244.127027 158.479797 
L 244.584029 170.480784 
L 245.041032 144.714404 
L 245.498034 144.787013 
L 245.955037 202.050773 
L 246.412039 197.359467 
L 246.869042 131.815374 
L 247.783047 188.730655 
L 248.240049 164.541545 
L 248.697052 108.891658 
L 249.154054 126.482016 
L 249.611057 136.950394 
L 250.068059 165.98008 
L 250.525061 141.843002 
L 250.982064 143.743704 
L 251.439066 170.285578 
L 251.896069 178.653545 
L 252.353071 161.354535 
L 252.810074 175.290877 
L 253.267076 263.001398 
L 253.724079 191.735333 
L 254.181081 203.821987 
L 254.638084 160.076849 
L 255.095086 153.212354 
L 255.552088 195.709158 
L 256.009091 175.880659 
L 256.466093 122.459559 
L 256.923096 162.442109 
L 257.380098 163.949191 
L 257.837101 192.435594 
L 258.294103 153.014278 
L 258.751106 161.226551 
L 259.208108 191.244947 
L 259.665111 159.583418 
L 260.122113 147.811854 
L 260.579115 183.654028 
L 261.036118 176.11083 
L 261.49312 188.777294 
L 261.950123 183.34638 
L 262.407125 195.846375 
L 262.864128 173.223915 
L 263.32113 180.124802 
L 263.778133 161.350678 
L 264.235135 160.118636 
L 264.692138 201.681856 
L 265.14914 187.25404 
L 265.606143 163.42626 
L 266.063145 129.392116 
L 266.520147 163.268252 
L 266.97715 165.774946 
L 267.434152 186.481847 
L 267.891155 195.505495 
L 268.348157 152.721874 
L 268.80516 178.639218 
L 269.262162 180.568599 
L 269.719165 165.243347 
L 270.176167 173.919612 
L 270.63317 129.007661 
L 271.090172 179.732212 
L 271.547174 158.389669 
L 272.004177 191.499553 
L 272.918182 177.98576 
L 273.375184 186.248802 
L 273.832187 164.882148 
L 274.289189 185.306913 
L 274.746192 156.759028 
L 275.203194 185.559904 
L 275.660197 119.756018 
L 276.117199 182.188451 
L 276.574201 164.080217 
L 277.031204 137.873999 
L 277.488206 157.360672 
L 277.945209 166.378635 
L 278.402211 147.734537 
L 278.859214 186.82765 
L 279.316216 178.561964 
L 279.773219 223.65926 
L 280.230221 172.332302 
L 280.687224 157.982521 
L 281.144226 132.759719 
L 282.058231 205.309924 
L 282.515233 185.589906 
L 282.972236 175.804571 
L 283.429238 139.489333 
L 283.886241 196.873495 
L 284.343243 151.043652 
L 284.800246 163.558724 
L 285.257248 129.760626 
L 285.714251 152.034076 
L 286.171253 204.331965 
L 286.628256 159.960502 
L 287.085258 172.698736 
L 287.54226 171.170651 
L 287.999263 178.907549 
L 288.456265 163.402867 
L 288.913268 199.907341 
L 289.37027 162.001506 
L 289.827273 136.890686 
L 290.284275 169.160389 
L 290.741278 171.286619 
L 291.19828 167.20954 
L 291.655283 157.004143 
L 292.112285 203.663322 
L 292.569287 207.287232 
L 293.02629 160.04059 
L 293.483292 211.597528 
L 293.940295 160.090168 
L 294.397297 160.472114 
L 294.8543 198.50643 
L 295.311302 173.129832 
L 295.768305 166.03474 
L 296.225307 176.851509 
L 296.68231 179.069734 
L 297.139312 197.226329 
L 297.596314 190.353478 
L 298.053317 164.420518 
L 298.510319 154.976271 
L 298.967322 171.358916 
L 299.424324 136.281431 
L 299.881327 193.21397 
L 300.338329 186.427044 
L 300.795332 126.420676 
L 301.252334 151.393131 
L 301.709337 198.002763 
L 302.166339 205.030788 
L 302.623342 145.652886 
L 303.537346 196.313546 
L 303.994349 149.81813 
L 304.451351 169.996906 
L 304.908354 172.829315 
L 305.365356 174.781559 
L 305.822359 177.806038 
L 306.279361 179.134319 
L 306.736364 154.476762 
L 307.193366 149.039649 
L 307.650369 156.120249 
L 308.107371 159.32528 
L 308.564373 182.509791 
L 309.021376 150.881279 
L 309.478378 184.189243 
L 309.935381 122.005612 
L 310.392383 159.496539 
L 310.849386 140.829096 
L 311.306388 173.428733 
L 311.763391 187.883176 
L 312.220393 141.028458 
L 312.677396 171.720438 
L 313.134398 166.825806 
L 313.5914 191.538134 
L 314.048403 154.226073 
L 314.505405 155.46478 
L 314.962408 163.740396 
L 315.41941 166.565118 
L 315.876413 170.543677 
L 316.333415 206.03583 
L 316.790418 167.882472 
L 317.24742 161.669095 
L 317.704423 191.279192 
L 318.161425 149.923203 
L 318.618428 188.535275 
L 319.07543 160.708719 
L 319.532432 180.290899 
L 319.989435 190.880513 
L 320.446437 167.086547 
L 320.90344 221.531344 
L 321.360442 156.620624 
L 321.817445 179.898368 
L 322.274447 168.334791 
L 322.73145 142.210062 
L 323.188452 162.040739 
L 323.645455 169.298676 
L 324.102457 178.740366 
L 324.559459 185.19006 
L 325.016462 147.60869 
L 325.473464 148.011984 
L 325.930467 143.730607 
L 326.387469 202.590003 
L 327.301474 163.674236 
L 328.215479 193.526415 
L 328.672482 203.305422 
L 329.129484 149.51008 
L 329.586486 163.893842 
L 330.043489 172.438006 
L 330.500491 194.431467 
L 330.957494 154.403989 
L 331.414496 184.620265 
L 331.871499 163.908757 
L 332.328501 179.033993 
L 332.785504 162.022858 
L 333.242506 168.827773 
L 333.699509 128.609001 
L 334.156511 177.955306 
L 334.613514 155.762593 
L 335.070516 184.373376 
L 335.527518 156.006675 
L 335.984521 144.759257 
L 336.441523 199.924368 
L 336.898526 138.000288 
L 337.355528 187.768963 
L 337.812531 153.972138 
L 338.269533 172.488682 
L 338.726536 162.394283 
L 339.183538 170.505344 
L 339.640541 228.614531 
L 340.097543 170.733777 
L 340.554545 184.793149 
L 341.011548 150.605203 
L 341.46855 166.037629 
L 341.925553 209.058006 
L 342.382555 160.068556 
L 342.839558 183.381404 
L 343.29656 182.742192 
L 343.753563 233.073581 
L 344.210565 206.712051 
L 344.667568 156.19445 
L 345.12457 184.064621 
L 345.581572 161.455887 
L 346.038575 167.433123 
L 346.495577 183.185003 
L 346.95258 172.9921 
L 347.409582 186.05159 
L 347.866585 174.001309 
L 348.323587 176.499615 
L 348.78059 206.497733 
L 349.237592 203.433731 
L 349.694595 164.100681 
L 350.151597 190.266619 
L 350.6086 190.289208 
L 351.065602 146.237505 
L 351.979607 194.710563 
L 352.436609 169.70214 
L 352.893612 204.796703 
L 353.350614 116.594744 
L 353.807617 177.792631 
L 354.264619 149.338164 
L 354.721622 164.760839 
L 355.178624 203.488643 
L 355.635627 174.05574 
L 356.092629 186.732745 
L 356.549631 212.617177 
L 357.006634 165.648299 
L 357.463636 180.575088 
L 357.920639 201.022701 
L 359.291646 138.422225 
L 360.205651 180.552652 
L 360.662654 197.051015 
L 361.119656 194.459317 
L 361.576658 167.773976 
L 362.033661 165.752875 
L 362.490663 198.156854 
L 362.947666 173.148688 
L 363.404668 189.60455 
L 363.861671 176.671862 
L 364.318673 173.765292 
L 364.775676 197.157728 
L 365.232678 181.380326 
L 365.689681 172.664562 
L 366.146683 188.264089 
L 366.603686 170.791742 
L 367.060688 170.290118 
L 367.51769 165.557433 
L 367.974693 180.714798 
L 368.888698 169.129779 
L 369.3457 172.169901 
L 369.802703 179.799346 
L 370.259705 204.772627 
L 370.716708 182.500078 
L 371.17371 177.701283 
L 371.630713 163.023223 
L 372.087715 198.702992 
L 372.544717 185.867859 
L 373.00172 150.95277 
L 373.458722 200.713355 
L 373.915725 192.45211 
L 374.82973 171.240096 
L 375.286732 129.524922 
L 375.743735 176.557311 
L 376.200737 173.636589 
L 376.65774 143.587918 
L 377.571744 181.699512 
L 378.028747 186.202842 
L 378.485749 159.334605 
L 378.942752 202.730237 
L 379.399754 200.662445 
L 379.856757 163.365576 
L 380.770762 174.386665 
L 381.227764 171.426679 
L 381.684767 182.929109 
L 382.141769 156.021532 
L 382.598771 189.171432 
L 383.055774 181.56453 
L 383.512776 183.23987 
L 383.969779 121.059224 
L 384.883784 163.303193 
L 385.797789 178.492051 
L 386.254791 157.263536 
L 386.711794 194.384717 
L 387.168796 161.601426 
L 387.625799 182.804211 
L 388.082801 193.719583 
L 388.539803 134.963328 
L 388.996806 200.256677 
L 389.453808 151.576706 
L 389.910811 150.039874 
L 390.367813 168.98955 
L 390.824816 163.237487 
L 391.281818 178.825879 
L 391.738821 182.626773 
L 392.195823 173.434564 
L 392.652826 166.867881 
L 393.109828 181.695566 
L 393.56683 155.032209 
L 394.023833 157.281435 
L 394.480835 137.081975 
L 395.39484 155.534751 
L 395.851843 203.638082 
L 396.308845 183.968918 
L 396.765848 207.476117 
L 397.22285 149.409114 
L 397.679853 176.294653 
L 398.136855 165.758207 
L 398.593857 185.249824 
L 399.05086 169.262845 
L 399.507862 206.639325 
L 399.964865 181.848472 
L 400.421867 175.164495 
L 400.87887 191.551559 
L 401.335872 156.547741 
L 401.792875 176.573825 
L 402.249877 162.79722 
L 402.70688 199.180169 
L 403.163882 184.401735 
L 403.620885 149.713619 
L 404.077887 160.163216 
L 404.534889 159.931316 
L 404.991892 170.546693 
L 405.448894 172.003633 
L 405.905897 176.049265 
L 406.362899 200.99123 
L 406.819902 181.803905 
L 407.276904 172.862359 
L 407.733907 186.934163 
L 408.190909 160.649564 
L 408.647912 189.310098 
L 409.104914 141.688389 
L 409.561916 191.982394 
L 410.018919 188.368074 
L 410.475921 188.284407 
L 410.932924 172.307963 
L 411.389926 166.948451 
L 411.846929 164.344182 
L 412.303931 184.091584 
L 412.760934 161.972441 
L 413.217936 196.191018 
L 413.674939 181.385846 
L 414.131941 206.083473 
L 414.588943 156.294809 
L 415.045946 164.667855 
L 415.502948 157.770397 
L 415.959951 195.163778 
L 416.416953 186.026662 
L 416.873956 148.504497 
L 417.330958 171.585745 
L 417.787961 149.671388 
L 418.244963 153.225099 
L 418.701966 185.664944 
L 419.158968 164.695473 
L 419.615971 191.780861 
L 420.529975 157.812321 
L 420.986978 186.935829 
L 421.44398 165.799853 
L 421.900983 169.400993 
L 422.814988 197.379769 
L 423.27199 176.716665 
L 423.728993 144.962877 
L 424.185995 167.009562 
L 424.642998 181.438759 
L 425.557002 168.415457 
L 426.014005 166.702566 
L 426.471007 157.136685 
L 426.92801 161.291506 
L 427.385012 157.865193 
L 427.842015 189.861331 
L 428.299017 170.609266 
L 428.75602 145.167552 
L 429.213022 168.73727 
L 429.670025 164.314057 
L 430.127027 143.276508 
L 430.584029 185.760477 
L 431.041032 186.06818 
L 431.498034 165.363153 
L 431.955037 139.230836 
L 432.412039 168.662803 
L 432.869042 180.199213 
L 433.326044 159.823801 
L 433.783047 183.540375 
L 434.240049 174.3475 
L 434.697052 179.580082 
L 435.154054 197.703602 
L 435.611057 145.874376 
L 436.068059 166.520434 
L 436.525061 176.075852 
L 436.982064 160.585088 
L 437.439066 176.006505 
L 437.896069 132.385895 
L 438.353071 163.780412 
L 438.810074 156.383436 
L 439.267076 159.183138 
L 439.724079 161.249771 
L 440.181081 156.312789 
L 440.638084 165.024059 
L 441.095086 183.450964 
L 441.552088 152.003255 
L 442.466093 187.498313 
L 442.923096 153.944879 
L 443.380098 180.050003 
L 443.837101 184.97653 
L 444.294103 178.403859 
L 444.751106 174.505432 
L 445.208108 169.583799 
L 445.665111 185.409867 
L 446.122113 184.455917 
L 446.579115 204.107427 
L 447.036118 171.544978 
L 447.49312 166.353313 
L 447.950123 177.515324 
L 448.407125 166.671333 
L 448.864128 165.34777 
L 449.778133 145.751014 
L 450.235135 175.886792 
L 450.692138 157.026831 
L 451.14914 183.522282 
L 451.606143 176.390664 
L 452.063145 176.944532 
L 452.520147 163.576227 
L 452.97715 212.878373 
L 453.434152 135.526436 
L 453.891155 190.900141 
L 454.348157 162.64134 
L 454.80516 177.738888 
L 455.262162 181.163019 
L 455.719165 193.869405 
L 456.176167 167.50326 
L 456.63317 173.348903 
L 457.090172 170.876159 
L 457.547174 179.288198 
L 458.004177 176.555476 
L 458.461179 155.928022 
L 458.918182 144.878378 
L 459.375184 141.874803 
L 459.832187 157.168365 
L 460.289189 151.111657 
L 460.746192 184.611582 
L 461.203194 192.480452 
L 461.660197 169.761683 
L 462.117199 173.494692 
L 462.574201 196.209372 
L 463.031204 173.625693 
L 463.488206 176.311615 
L 463.945209 186.157593 
L 464.402211 146.312559 
L 465.316216 174.697704 
L 466.230221 163.438371 
L 466.687224 142.245758 
L 467.144226 165.681225 
L 467.601229 168.174333 
L 468.058231 143.969218 
L 468.515233 153.740054 
L 468.972236 210.448684 
L 469.429238 168.26202 
L 469.886241 196.979277 
L 470.343243 155.284327 
L 470.800246 183.366743 
L 471.714251 165.354758 
L 472.628256 175.041672 
L 473.085258 169.914903 
L 473.54226 159.089554 
L 473.999263 179.648054 
L 474.456265 172.166505 
L 474.913268 161.481306 
L 475.37027 158.269255 
L 475.827273 157.057362 
L 476.284275 170.949125 
L 476.741278 175.880657 
L 477.19828 187.285358 
L 477.655283 164.173543 
L 478.112285 188.601958 
L 479.02629 175.453234 
L 479.483292 148.341359 
L 479.940295 183.104098 
L 480.397297 181.475289 
L 480.8543 151.967578 
L 481.311302 177.2671 
L 481.768305 153.653696 
L 482.225307 169.672503 
L 482.68231 151.036233 
L 483.139312 149.310779 
L 483.596314 178.578192 
L 484.053317 175.957424 
L 484.510319 168.970659 
L 484.967322 198.80922 
L 485.424324 161.686211 
L 485.881327 191.599971 
L 486.338329 162.750878 
L 486.795332 162.357638 
L 487.252334 179.847735 
L 487.709337 160.700482 
L 488.166339 195.611476 
L 488.623342 178.402636 
L 489.080344 176.607861 
L 489.537346 150.583859 
L 489.994349 190.701514 
L 490.451351 189.146863 
L 490.908354 177.192317 
L 491.365356 194.864884 
L 491.822359 159.089879 
L 492.279361 158.281675 
L 492.736364 159.472045 
L 493.193366 168.250385 
L 493.650369 189.671449 
L 494.107371 166.913398 
L 494.564373 156.329425 
L 495.021376 161.01903 
L 495.478378 190.282259 
L 495.935381 172.764054 
L 496.392383 147.592462 
L 496.849386 186.348149 
L 497.306388 177.808512 
L 497.763391 159.033554 
L 498.220393 185.397001 
L 498.677396 169.925491 
L 499.134398 188.597295 
L 499.5914 174.783887 
L 500.048403 150.054998 
L 500.505405 204.404779 
L 500.962408 162.753277 
L 501.41941 174.062032 
L 501.876413 165.607084 
L 502.333415 187.689461 
L 502.790418 143.839463 
L 503.24742 152.615357 
L 503.704423 164.408447 
L 504.161425 161.022413 
L 504.618428 172.072048 
L 505.07543 156.236279 
L 505.532432 195.504507 
L 505.989435 155.5251 
L 506.446437 166.629444 
L 506.90344 174.83249 
L 507.360442 187.426605 
L 507.817445 192.170481 
L 508.274447 171.791835 
L 508.73145 167.347516 
L 509.188452 188.96742 
L 510.102457 163.019728 
L 510.559459 194.350505 
L 511.016462 189.575707 
L 511.473464 157.293743 
L 511.930467 198.296125 
L 512.387469 160.725271 
L 512.844472 175.28246 
L 513.301474 159.596812 
L 513.758477 155.306247 
L 514.215479 157.544669 
L 514.672482 191.031291 
L 515.586486 164.146623 
L 516.043489 169.547896 
L 516.500491 180.877265 
L 516.957494 158.268664 
L 517.414496 174.849686 
L 517.871499 167.382389 
L 518.328501 156.608013 
L 518.785504 155.571683 
L 519.242506 162.588952 
L 519.699509 147.088531 
L 520.156511 157.551753 
L 520.613514 145.710898 
L 521.070516 173.489834 
L 521.527518 164.050486 
L 521.984521 171.101375 
L 522.441523 153.291783 
L 522.898526 141.207177 
L 523.355528 167.40975 
L 523.812531 168.172803 
L 524.269533 169.223838 
L 524.726536 183.834302 
L 525.183538 144.545236 
L 525.640541 167.075157 
L 526.097543 170.416621 
L 526.554545 175.081052 
L 527.011548 177.404005 
L 527.46855 185.01139 
L 527.925553 170.193459 
L 528.382555 182.403264 
L 528.839558 180.543551 
L 529.29656 163.444542 
L 529.753563 163.382016 
L 530.210565 154.733936 
L 530.667568 186.741251 
L 531.12457 160.474572 
L 531.581572 188.071344 
L 532.038575 193.612241 
L 532.495577 166.553082 
L 532.95258 154.42852 
L 533.409582 152.629574 
L 533.866585 152.428761 
L 534.323587 178.043052 
L 534.78059 162.36942 
L 535.237592 161.84222 
L 535.694595 165.524167 
L 536.151597 161.413824 
L 536.6086 175.908038 
L 537.065602 174.621555 
L 537.522604 177.532984 
L 537.979607 186.802251 
L 538.436609 170.679752 
L 538.893612 174.733617 
L 539.350614 173.830704 
L 539.807617 175.919336 
L 540.264619 194.928171 
L 540.721622 151.662425 
L 541.178624 191.582776 
L 541.635627 166.816985 
L 542.092629 156.956857 
L 542.549631 170.063691 
L 543.006634 162.92453 
L 543.920639 172.852939 
L 544.377641 182.349073 
L 544.834644 188.622335 
L 545.291646 139.038869 
L 545.748649 138.963747 
L 546.205651 156.538158 
L 546.662654 162.718557 
L 547.119656 144.281533 
L 547.576658 179.314282 
L 548.033661 177.812719 
L 548.490663 172.947742 
L 548.947666 172.945862 
L 549.404668 186.644415 
L 549.861671 159.355462 
L 550.318673 190.659086 
L 550.775676 161.492651 
L 551.232678 175.546247 
L 551.689681 172.749316 
L 552.146683 175.328098 
L 552.603686 184.652898 
L 553.060688 183.152493 
L 553.51769 198.059065 
L 553.974693 175.203385 
L 554.431695 183.628759 
L 554.888698 157.710982 
L 555.3457 168.365632 
L 555.802703 183.319509 
L 556.716708 180.903783 
L 557.630713 157.235326 
L 558.087715 202.383802 
L 558.544717 161.172106 
L 559.00172 165.985666 
L 559.458722 172.794203 
L 559.915725 190.907389 
L 560.372727 160.584915 
L 560.372727 160.584915 
" clip-path="url(#p5f29d1363a)" style="fill: none; stroke: #800080; stroke-width: 1.5; stroke-linecap: square"/>
   </g>
   <g id="patch_3">
    <path d="M 81 320.4 
L 81 43.2 
" style="fill: none; stroke: #000000; stroke-width: 0.8; stroke-linejoin: miter; stroke-linecap: square"/>
   </g>
   <g id="patch_4">
    <path d="M 583.2 320.4 
L 583.2 43.2 
" style="fill: none; stroke: #000000; stroke-width: 0.8; stroke-linejoin: miter; stroke-linecap: square"/>
   </g>
   <g id="patch_5">
    <path d="M 81 320.4 
L 583.2 320.4 
" style="fill: none; stroke: #000000; stroke-width: 0.8; stroke-linejoin: miter; stroke-linecap: square"/>
   </g>
   <g id="patch_6">
    <path d="M 81 43.2 
L 583.2 43.2 
" style="fill: none; stroke: #000000; stroke-width: 0.8; stroke-linejoin: miter; stroke-linecap: square"/>
   </g>
   <g id="text_19">
    <!-- Average Reward Over Time -->
    <g transform="translate(250.281563 37.2) scale(0.12 -0.12)">
     <defs>
      <path id="DejaVuSans-4f" d="M 2522 4238 
Q 1834 4238 1429 3725 
Q 1025 3213 1025 2328 
Q 1025 1447 1429 934 
Q 1834 422 2522 422 
Q 3209 422 3611 934 
Q 4013 1447 4013 2328 
Q 4013 3213 3611 3725 
Q 3209 4238 2522 4238 
z
M 2522 4750 
Q 3503 4750 4090 4092 
Q 4678 3434 4678 2328 
Q 4678 1225 4090 567 
Q 3503 -91 2522 -91 
Q 1538 -91 948 565 
Q 359 1222 359 2328 
Q 359 3434 948 4092 
Q 1538 4750 2522 4750 
z
" transform="scale(0.015625)"/>
     </defs>
     <use xlink:href="#DejaVuSans-41"/>
     <use xlink:href="#DejaVuSans-76" transform="translate(62.533203 0)"/>
     <use xlink:href="#DejaVuSans-65" transform="translate(121.712891 0)"/>
     <use xlink:href="#DejaVuSans-72" transform="translate(183.236328 0)"/>
     <use xlink:href="#DejaVuSans-61" transform="translate(224.349609 0)"/>
     <use xlink:href="#DejaVuSans-67" transform="translate(285.628906 0)"/>
     <use xlink:href="#DejaVuSans-65" transform="translate(349.105469 0)"/>
     <use xlink:href="#DejaVuSans-20" transform="translate(410.628906 0)"/>
     <use xlink:href="#DejaVuSans-52" transform="translate(442.416016 0)"/>
     <use xlink:href="#DejaVuSans-65" transform="translate(507.398438 0)"/>
     <use xlink:href="#DejaVuSans-77" transform="translate(568.921875 0)"/>
     <use xlink:href="#DejaVuSans-61" transform="translate(650.708984 0)"/>
     <use xlink:href="#DejaVuSans-72" transform="translate(711.988281 0)"/>
     <use xlink:href="#DejaVuSans-64" transform="translate(751.351562 0)"/>
     <use xlink:href="#DejaVuSans-20" transform="translate(814.828125 0)"/>
     <use xlink:href="#DejaVuSans-4f" transform="translate(846.615234 0)"/>
     <use xlink:href="#DejaVuSans-76" transform="translate(925.326172 0)"/>
     <use xlink:href="#DejaVuSans-65" transform="translate(984.505859 0)"/>
     <use xlink:href="#DejaVuSans-72" transform="translate(1046.029297 0)"/>
     <use xlink:href="#DejaVuSans-20" transform="translate(1087.142578 0)"/>
     <use xlink:href="#DejaVuSans-54" transform="translate(1118.929688 0)"/>
     <use xlink:href="#DejaVuSans-69" transform="translate(1176.888672 0)"/>
     <use xlink:href="#DejaVuSans-6d" transform="translate(1204.671875 0)"/>
     <use xlink:href="#DejaVuSans-65" transform="translate(1302.083984 0)"/>
    </g>
   </g>
   <g id="legend_1">
    <g id="patch_7">
     <path d="M 462.714063 65.878125 
L 576.2 65.878125 
Q 578.2 65.878125 578.2 63.878125 
L 578.2 50.2 
Q 578.2 48.2 576.2 48.2 
L 462.714063 48.2 
Q 460.714063 48.2 460.714063 50.2 
L 460.714063 63.878125 
Q 460.714063 65.878125 462.714063 65.878125 
z
" style="fill: #ffffff; opacity: 0.8; stroke: #cccccc; stroke-linejoin: miter"/>
    </g>
    <g id="line2d_32">
     <path d="M 464.714063 56.298437 
L 474.714063 56.298437 
L 484.714063 56.298437 
" style="fill: none; stroke: #800080; stroke-width: 1.5; stroke-linecap: square"/>
    </g>
    <g id="text_20">
     <!-- Average Reward -->
     <g transform="translate(492.714063 59.798437) scale(0.1 -0.1)">
      <use xlink:href="#DejaVuSans-41"/>
      <use xlink:href="#DejaVuSans-76" transform="translate(62.533203 0)"/>
      <use xlink:href="#DejaVuSans-65" transform="translate(121.712891 0)"/>
      <use xlink:href="#DejaVuSans-72" transform="translate(183.236328 0)"/>
      <use xlink:href="#DejaVuSans-61" transform="translate(224.349609 0)"/>
      <use xlink:href="#DejaVuSans-67" transform="translate(285.628906 0)"/>
      <use xlink:href="#DejaVuSans-65" transform="translate(349.105469 0)"/>
      <use xlink:href="#DejaVuSans-20" transform="translate(410.628906 0)"/>
      <use xlink:href="#DejaVuSans-52" transform="translate(442.416016 0)"/>
      <use xlink:href="#DejaVuSans-65" transform="translate(507.398438 0)"/>
      <use xlink:href="#DejaVuSans-77" transform="translate(568.921875 0)"/>
      <use xlink:href="#DejaVuSans-61" transform="translate(650.708984 0)"/>
      <use xlink:href="#DejaVuSans-72" transform="translate(711.988281 0)"/>
      <use xlink:href="#DejaVuSans-64" transform="translate(751.351562 0)"/>
     </g>
    </g>
   </g>
  </g>
 </g>
 <defs>
  <clipPath id="p5f29d1363a">
   <rect x="81" y="43.2" width="502.2" height="277.2"/>
  </clipPath>
 </defs>
</svg>
