<?xml version="1.0" encoding="utf-8" standalone="no"?>
<!DOCTYPE svg PUBLIC "-//W3C//DTD SVG 1.1//EN"
  "http://www.w3.org/Graphics/SVG/1.1/DTD/svg11.dtd">
<svg xmlns:xlink="http://www.w3.org/1999/xlink" width="720pt" height="432pt" viewBox="0 0 720 432" xmlns="http://www.w3.org/2000/svg" version="1.1">
 <metadata>
  <rdf:RDF xmlns:dc="http://purl.org/dc/elements/1.1/" xmlns:cc="http://creativecommons.org/ns#" xmlns:rdf="http://www.w3.org/1999/02/22-rdf-syntax-ns#">
   <cc:Work>
    <dc:type rdf:resource="http://purl.org/dc/dcmitype/StillImage"/>
    <dc:date>2025-10-10T01:23:56.361575</dc:date>
    <dc:format>image/svg+xml</dc:format>
    <dc:creator>
     <cc:Agent>
      <dc:title>Matplotlib v3.10.6, https://matplotlib.org/</dc:title>
     </cc:Agent>
    </dc:creator>
   </cc:Work>
  </rdf:RDF>
 </metadata>
 <defs>
  <style type="text/css">*{stroke-linejoin: round; stroke-linecap: butt}</style>
 </defs>
 <g id="figure_1">
  <g id="patch_1">
   <path d="M 0 432 
L 720 432 
L 720 0 
L 0 0 
z
" style="fill: #ffffff"/>
  </g>
  <g id="axes_1">
   <g id="patch_2">
    <path d="M 90 384.48 
L 648 384.48 
L 648 51.84 
L 90 51.84 
z
" style="fill: #ffffff"/>
   </g>
   <g id="matplotlib.axis_1">
    <g id="xtick_1">
     <g id="line2d_1">
      <path d="M 97.139837 384.48 
L 97.139837 51.84 
" clip-path="url(#pb17948b6e0)" style="fill: none; stroke: #b0b0b0; stroke-width: 0.8; stroke-linecap: square"/>
     </g>
     <g id="line2d_2">
      <defs>
       <path id="m495bbd0cdf" d="M 0 0 
L 0 3.5 
" style="stroke: #000000; stroke-width: 0.8"/>
      </defs>
      <g>
       <use xlink:href="#m495bbd0cdf" x="97.139837" y="384.48" style="stroke: #000000; stroke-width: 0.8"/>
      </g>
     </g>
     <g id="text_1">
      <!-- −0.0010 -->
      <g transform="translate(75.454681 399.078438) scale(0.1 -0.1)">
       <defs>
        <path id="DejaVuSans-2212" d="M 678 2272 
L 4684 2272 
L 4684 1741 
L 678 1741 
L 678 2272 
z
" transform="scale(0.015625)"/>
        <path id="DejaVuSans-30" d="M 2034 4250 
Q 1547 4250 1301 3770 
Q 1056 3291 1056 2328 
Q 1056 1369 1301 889 
Q 1547 409 2034 409 
Q 2525 409 2770 889 
Q 3016 1369 3016 2328 
Q 3016 3291 2770 3770 
Q 2525 4250 2034 4250 
z
M 2034 4750 
Q 2819 4750 3233 4129 
Q 3647 3509 3647 2328 
Q 3647 1150 3233 529 
Q 2819 -91 2034 -91 
Q 1250 -91 836 529 
Q 422 1150 422 2328 
Q 422 3509 836 4129 
Q 1250 4750 2034 4750 
z
" transform="scale(0.015625)"/>
        <path id="DejaVuSans-2e" d="M 684 794 
L 1344 794 
L 1344 0 
L 684 0 
L 684 794 
z
" transform="scale(0.015625)"/>
        <path id="DejaVuSans-31" d="M 794 531 
L 1825 531 
L 1825 4091 
L 703 3866 
L 703 4441 
L 1819 4666 
L 2450 4666 
L 2450 531 
L 3481 531 
L 3481 0 
L 794 0 
L 794 531 
z
" transform="scale(0.015625)"/>
       </defs>
       <use xlink:href="#DejaVuSans-2212"/>
       <use xlink:href="#DejaVuSans-30" transform="translate(83.789062 0)"/>
       <use xlink:href="#DejaVuSans-2e" transform="translate(147.412109 0)"/>
       <use xlink:href="#DejaVuSans-30" transform="translate(179.199219 0)"/>
       <use xlink:href="#DejaVuSans-30" transform="translate(242.822266 0)"/>
       <use xlink:href="#DejaVuSans-31" transform="translate(306.445312 0)"/>
       <use xlink:href="#DejaVuSans-30" transform="translate(370.068359 0)"/>
      </g>
     </g>
    </g>
    <g id="xtick_2">
     <g id="line2d_3">
      <path d="M 169.327165 384.48 
L 169.327165 51.84 
" clip-path="url(#pb17948b6e0)" style="fill: none; stroke: #b0b0b0; stroke-width: 0.8; stroke-linecap: square"/>
     </g>
     <g id="line2d_4">
      <g>
       <use xlink:href="#m495bbd0cdf" x="169.327165" y="384.48" style="stroke: #000000; stroke-width: 0.8"/>
      </g>
     </g>
     <g id="text_2">
      <!-- −0.0005 -->
      <g transform="translate(147.642009 399.078438) scale(0.1 -0.1)">
       <defs>
        <path id="DejaVuSans-35" d="M 691 4666 
L 3169 4666 
L 3169 4134 
L 1269 4134 
L 1269 2991 
Q 1406 3038 1543 3061 
Q 1681 3084 1819 3084 
Q 2600 3084 3056 2656 
Q 3513 2228 3513 1497 
Q 3513 744 3044 326 
Q 2575 -91 1722 -91 
Q 1428 -91 1123 -41 
Q 819 9 494 109 
L 494 744 
Q 775 591 1075 516 
Q 1375 441 1709 441 
Q 2250 441 2565 725 
Q 2881 1009 2881 1497 
Q 2881 1984 2565 2268 
Q 2250 2553 1709 2553 
Q 1456 2553 1204 2497 
Q 953 2441 691 2322 
L 691 4666 
z
" transform="scale(0.015625)"/>
       </defs>
       <use xlink:href="#DejaVuSans-2212"/>
       <use xlink:href="#DejaVuSans-30" transform="translate(83.789062 0)"/>
       <use xlink:href="#DejaVuSans-2e" transform="translate(147.412109 0)"/>
       <use xlink:href="#DejaVuSans-30" transform="translate(179.199219 0)"/>
       <use xlink:href="#DejaVuSans-30" transform="translate(242.822266 0)"/>
       <use xlink:href="#DejaVuSans-30" transform="translate(306.445312 0)"/>
       <use xlink:href="#DejaVuSans-35" transform="translate(370.068359 0)"/>
      </g>
     </g>
    </g>
    <g id="xtick_3">
     <g id="line2d_5">
      <path d="M 241.514493 384.48 
L 241.514493 51.84 
" clip-path="url(#pb17948b6e0)" style="fill: none; stroke: #b0b0b0; stroke-width: 0.8; stroke-linecap: square"/>
     </g>
     <g id="line2d_6">
      <g>
       <use xlink:href="#m495bbd0cdf" x="241.514493" y="384.48" style="stroke: #000000; stroke-width: 0.8"/>
      </g>
     </g>
     <g id="text_3">
      <!-- 0.0000 -->
      <g transform="translate(224.01918 399.078438) scale(0.1 -0.1)">
       <use xlink:href="#DejaVuSans-30"/>
       <use xlink:href="#DejaVuSans-2e" transform="translate(63.623047 0)"/>
       <use xlink:href="#DejaVuSans-30" transform="translate(95.410156 0)"/>
       <use xlink:href="#DejaVuSans-30" transform="translate(159.033203 0)"/>
       <use xlink:href="#DejaVuSans-30" transform="translate(222.65625 0)"/>
       <use xlink:href="#DejaVuSans-30" transform="translate(286.279297 0)"/>
      </g>
     </g>
    </g>
    <g id="xtick_4">
     <g id="line2d_7">
      <path d="M 313.701821 384.48 
L 313.701821 51.84 
" clip-path="url(#pb17948b6e0)" style="fill: none; stroke: #b0b0b0; stroke-width: 0.8; stroke-linecap: square"/>
     </g>
     <g id="line2d_8">
      <g>
       <use xlink:href="#m495bbd0cdf" x="313.701821" y="384.48" style="stroke: #000000; stroke-width: 0.8"/>
      </g>
     </g>
     <g id="text_4">
      <!-- 0.0005 -->
      <g transform="translate(296.206508 399.078438) scale(0.1 -0.1)">
       <use xlink:href="#DejaVuSans-30"/>
       <use xlink:href="#DejaVuSans-2e" transform="translate(63.623047 0)"/>
       <use xlink:href="#DejaVuSans-30" transform="translate(95.410156 0)"/>
       <use xlink:href="#DejaVuSans-30" transform="translate(159.033203 0)"/>
       <use xlink:href="#DejaVuSans-30" transform="translate(222.65625 0)"/>
       <use xlink:href="#DejaVuSans-35" transform="translate(286.279297 0)"/>
      </g>
     </g>
    </g>
    <g id="xtick_5">
     <g id="line2d_9">
      <path d="M 385.889148 384.48 
L 385.889148 51.84 
" clip-path="url(#pb17948b6e0)" style="fill: none; stroke: #b0b0b0; stroke-width: 0.8; stroke-linecap: square"/>
     </g>
     <g id="line2d_10">
      <g>
       <use xlink:href="#m495bbd0cdf" x="385.889148" y="384.48" style="stroke: #000000; stroke-width: 0.8"/>
      </g>
     </g>
     <g id="text_5">
      <!-- 0.0010 -->
      <g transform="translate(368.393836 399.078438) scale(0.1 -0.1)">
       <use xlink:href="#DejaVuSans-30"/>
       <use xlink:href="#DejaVuSans-2e" transform="translate(63.623047 0)"/>
       <use xlink:href="#DejaVuSans-30" transform="translate(95.410156 0)"/>
       <use xlink:href="#DejaVuSans-30" transform="translate(159.033203 0)"/>
       <use xlink:href="#DejaVuSans-31" transform="translate(222.65625 0)"/>
       <use xlink:href="#DejaVuSans-30" transform="translate(286.279297 0)"/>
      </g>
     </g>
    </g>
    <g id="xtick_6">
     <g id="line2d_11">
      <path d="M 458.076476 384.48 
L 458.076476 51.84 
" clip-path="url(#pb17948b6e0)" style="fill: none; stroke: #b0b0b0; stroke-width: 0.8; stroke-linecap: square"/>
     </g>
     <g id="line2d_12">
      <g>
       <use xlink:href="#m495bbd0cdf" x="458.076476" y="384.48" style="stroke: #000000; stroke-width: 0.8"/>
      </g>
     </g>
     <g id="text_6">
      <!-- 0.0015 -->
      <g transform="translate(440.581164 399.078438) scale(0.1 -0.1)">
       <use xlink:href="#DejaVuSans-30"/>
       <use xlink:href="#DejaVuSans-2e" transform="translate(63.623047 0)"/>
       <use xlink:href="#DejaVuSans-30" transform="translate(95.410156 0)"/>
       <use xlink:href="#DejaVuSans-30" transform="translate(159.033203 0)"/>
       <use xlink:href="#DejaVuSans-31" transform="translate(222.65625 0)"/>
       <use xlink:href="#DejaVuSans-35" transform="translate(286.279297 0)"/>
      </g>
     </g>
    </g>
    <g id="xtick_7">
     <g id="line2d_13">
      <path d="M 530.263804 384.48 
L 530.263804 51.84 
" clip-path="url(#pb17948b6e0)" style="fill: none; stroke: #b0b0b0; stroke-width: 0.8; stroke-linecap: square"/>
     </g>
     <g id="line2d_14">
      <g>
       <use xlink:href="#m495bbd0cdf" x="530.263804" y="384.48" style="stroke: #000000; stroke-width: 0.8"/>
      </g>
     </g>
     <g id="text_7">
      <!-- 0.0020 -->
      <g transform="translate(512.768492 399.078438) scale(0.1 -0.1)">
       <defs>
        <path id="DejaVuSans-32" d="M 1228 531 
L 3431 531 
L 3431 0 
L 469 0 
L 469 531 
Q 828 903 1448 1529 
Q 2069 2156 2228 2338 
Q 2531 2678 2651 2914 
Q 2772 3150 2772 3378 
Q 2772 3750 2511 3984 
Q 2250 4219 1831 4219 
Q 1534 4219 1204 4116 
Q 875 4013 500 3803 
L 500 4441 
Q 881 4594 1212 4672 
Q 1544 4750 1819 4750 
Q 2544 4750 2975 4387 
Q 3406 4025 3406 3419 
Q 3406 3131 3298 2873 
Q 3191 2616 2906 2266 
Q 2828 2175 2409 1742 
Q 1991 1309 1228 531 
z
" transform="scale(0.015625)"/>
       </defs>
       <use xlink:href="#DejaVuSans-30"/>
       <use xlink:href="#DejaVuSans-2e" transform="translate(63.623047 0)"/>
       <use xlink:href="#DejaVuSans-30" transform="translate(95.410156 0)"/>
       <use xlink:href="#DejaVuSans-30" transform="translate(159.033203 0)"/>
       <use xlink:href="#DejaVuSans-32" transform="translate(222.65625 0)"/>
       <use xlink:href="#DejaVuSans-30" transform="translate(286.279297 0)"/>
      </g>
     </g>
    </g>
    <g id="xtick_8">
     <g id="line2d_15">
      <path d="M 602.451132 384.48 
L 602.451132 51.84 
" clip-path="url(#pb17948b6e0)" style="fill: none; stroke: #b0b0b0; stroke-width: 0.8; stroke-linecap: square"/>
     </g>
     <g id="line2d_16">
      <g>
       <use xlink:href="#m495bbd0cdf" x="602.451132" y="384.48" style="stroke: #000000; stroke-width: 0.8"/>
      </g>
     </g>
     <g id="text_8">
      <!-- 0.0025 -->
      <g transform="translate(584.95582 399.078438) scale(0.1 -0.1)">
       <use xlink:href="#DejaVuSans-30"/>
       <use xlink:href="#DejaVuSans-2e" transform="translate(63.623047 0)"/>
       <use xlink:href="#DejaVuSans-30" transform="translate(95.410156 0)"/>
       <use xlink:href="#DejaVuSans-30" transform="translate(159.033203 0)"/>
       <use xlink:href="#DejaVuSans-32" transform="translate(222.65625 0)"/>
       <use xlink:href="#DejaVuSans-35" transform="translate(286.279297 0)"/>
      </g>
     </g>
    </g>
    <g id="text_9">
     <!-- Average Reward -->
     <g transform="translate(328.257031 412.756563) scale(0.1 -0.1)">
      <defs>
       <path id="DejaVuSans-41" d="M 2188 4044 
L 1331 1722 
L 3047 1722 
L 2188 4044 
z
M 1831 4666 
L 2547 4666 
L 4325 0 
L 3669 0 
L 3244 1197 
L 1141 1197 
L 716 0 
L 50 0 
L 1831 4666 
z
" transform="scale(0.015625)"/>
       <path id="DejaVuSans-76" d="M 191 3500 
L 800 3500 
L 1894 563 
L 2988 3500 
L 3597 3500 
L 2284 0 
L 1503 0 
L 191 3500 
z
" transform="scale(0.015625)"/>
       <path id="DejaVuSans-65" d="M 3597 1894 
L 3597 1613 
L 953 1613 
Q 991 1019 1311 708 
Q 1631 397 2203 397 
Q 2534 397 2845 478 
Q 3156 559 3463 722 
L 3463 178 
Q 3153 47 2828 -22 
Q 2503 -91 2169 -91 
Q 1331 -91 842 396 
Q 353 884 353 1716 
Q 353 2575 817 3079 
Q 1281 3584 2069 3584 
Q 2775 3584 3186 3129 
Q 3597 2675 3597 1894 
z
M 3022 2063 
Q 3016 2534 2758 2815 
Q 2500 3097 2075 3097 
Q 1594 3097 1305 2825 
Q 1016 2553 972 2059 
L 3022 2063 
z
" transform="scale(0.015625)"/>
       <path id="DejaVuSans-72" d="M 2631 2963 
Q 2534 3019 2420 3045 
Q 2306 3072 2169 3072 
Q 1681 3072 1420 2755 
Q 1159 2438 1159 1844 
L 1159 0 
L 581 0 
L 581 3500 
L 1159 3500 
L 1159 2956 
Q 1341 3275 1631 3429 
Q 1922 3584 2338 3584 
Q 2397 3584 2469 3576 
Q 2541 3569 2628 3553 
L 2631 2963 
z
" transform="scale(0.015625)"/>
       <path id="DejaVuSans-61" d="M 2194 1759 
Q 1497 1759 1228 1600 
Q 959 1441 959 1056 
Q 959 750 1161 570 
Q 1363 391 1709 391 
Q 2188 391 2477 730 
Q 2766 1069 2766 1631 
L 2766 1759 
L 2194 1759 
z
M 3341 1997 
L 3341 0 
L 2766 0 
L 2766 531 
Q 2569 213 2275 61 
Q 1981 -91 1556 -91 
Q 1019 -91 701 211 
Q 384 513 384 1019 
Q 384 1609 779 1909 
Q 1175 2209 1959 2209 
L 2766 2209 
L 2766 2266 
Q 2766 2663 2505 2880 
Q 2244 3097 1772 3097 
Q 1472 3097 1187 3025 
Q 903 2953 641 2809 
L 641 3341 
Q 956 3463 1253 3523 
Q 1550 3584 1831 3584 
Q 2591 3584 2966 3190 
Q 3341 2797 3341 1997 
z
" transform="scale(0.015625)"/>
       <path id="DejaVuSans-67" d="M 2906 1791 
Q 2906 2416 2648 2759 
Q 2391 3103 1925 3103 
Q 1463 3103 1205 2759 
Q 947 2416 947 1791 
Q 947 1169 1205 825 
Q 1463 481 1925 481 
Q 2391 481 2648 825 
Q 2906 1169 2906 1791 
z
M 3481 434 
Q 3481 -459 3084 -895 
Q 2688 -1331 1869 -1331 
Q 1566 -1331 1297 -1286 
Q 1028 -1241 775 -1147 
L 775 -588 
Q 1028 -725 1275 -790 
Q 1522 -856 1778 -856 
Q 2344 -856 2625 -561 
Q 2906 -266 2906 331 
L 2906 616 
Q 2728 306 2450 153 
Q 2172 0 1784 0 
Q 1141 0 747 490 
Q 353 981 353 1791 
Q 353 2603 747 3093 
Q 1141 3584 1784 3584 
Q 2172 3584 2450 3431 
Q 2728 3278 2906 2969 
L 2906 3500 
L 3481 3500 
L 3481 434 
z
" transform="scale(0.015625)"/>
       <path id="DejaVuSans-20" transform="scale(0.015625)"/>
       <path id="DejaVuSans-52" d="M 2841 2188 
Q 3044 2119 3236 1894 
Q 3428 1669 3622 1275 
L 4263 0 
L 3584 0 
L 2988 1197 
Q 2756 1666 2539 1819 
Q 2322 1972 1947 1972 
L 1259 1972 
L 1259 0 
L 628 0 
L 628 4666 
L 2053 4666 
Q 2853 4666 3247 4331 
Q 3641 3997 3641 3322 
Q 3641 2881 3436 2590 
Q 3231 2300 2841 2188 
z
M 1259 4147 
L 1259 2491 
L 2053 2491 
Q 2509 2491 2742 2702 
Q 2975 2913 2975 3322 
Q 2975 3731 2742 3939 
Q 2509 4147 2053 4147 
L 1259 4147 
z
" transform="scale(0.015625)"/>
       <path id="DejaVuSans-77" d="M 269 3500 
L 844 3500 
L 1563 769 
L 2278 3500 
L 2956 3500 
L 3675 769 
L 4391 3500 
L 4966 3500 
L 4050 0 
L 3372 0 
L 2619 2869 
L 1863 0 
L 1184 0 
L 269 3500 
z
" transform="scale(0.015625)"/>
       <path id="DejaVuSans-64" d="M 2906 2969 
L 2906 4863 
L 3481 4863 
L 3481 0 
L 2906 0 
L 2906 525 
Q 2725 213 2448 61 
Q 2172 -91 1784 -91 
Q 1150 -91 751 415 
Q 353 922 353 1747 
Q 353 2572 751 3078 
Q 1150 3584 1784 3584 
Q 2172 3584 2448 3432 
Q 2725 3281 2906 2969 
z
M 947 1747 
Q 947 1113 1208 752 
Q 1469 391 1925 391 
Q 2381 391 2643 752 
Q 2906 1113 2906 1747 
Q 2906 2381 2643 2742 
Q 2381 3103 1925 3103 
Q 1469 3103 1208 2742 
Q 947 2381 947 1747 
z
" transform="scale(0.015625)"/>
      </defs>
      <use xlink:href="#DejaVuSans-41"/>
      <use xlink:href="#DejaVuSans-76" transform="translate(62.533203 0)"/>
      <use xlink:href="#DejaVuSans-65" transform="translate(121.712891 0)"/>
      <use xlink:href="#DejaVuSans-72" transform="translate(183.236328 0)"/>
      <use xlink:href="#DejaVuSans-61" transform="translate(224.349609 0)"/>
      <use xlink:href="#DejaVuSans-67" transform="translate(285.628906 0)"/>
      <use xlink:href="#DejaVuSans-65" transform="translate(349.105469 0)"/>
      <use xlink:href="#DejaVuSans-20" transform="translate(410.628906 0)"/>
      <use xlink:href="#DejaVuSans-52" transform="translate(442.416016 0)"/>
      <use xlink:href="#DejaVuSans-65" transform="translate(507.398438 0)"/>
      <use xlink:href="#DejaVuSans-77" transform="translate(568.921875 0)"/>
      <use xlink:href="#DejaVuSans-61" transform="translate(650.708984 0)"/>
      <use xlink:href="#DejaVuSans-72" transform="translate(711.988281 0)"/>
      <use xlink:href="#DejaVuSans-64" transform="translate(751.351562 0)"/>
     </g>
    </g>
   </g>
   <g id="matplotlib.axis_2">
    <g id="ytick_1">
     <g id="line2d_17">
      <path d="M 90 369.390243 
L 648 369.390243 
" clip-path="url(#pb17948b6e0)" style="fill: none; stroke: #b0b0b0; stroke-width: 0.8; stroke-linecap: square"/>
     </g>
     <g id="line2d_18">
      <defs>
       <path id="m0918939dd9" d="M 0 0 
L -3.5 0 
" style="stroke: #000000; stroke-width: 0.8"/>
      </defs>
      <g>
       <use xlink:href="#m0918939dd9" x="90" y="369.390243" style="stroke: #000000; stroke-width: 0.8"/>
      </g>
     </g>
     <g id="text_10">
      <!-- 0.0 -->
      <g transform="translate(67.096875 373.189462) scale(0.1 -0.1)">
       <use xlink:href="#DejaVuSans-30"/>
       <use xlink:href="#DejaVuSans-2e" transform="translate(63.623047 0)"/>
       <use xlink:href="#DejaVuSans-30" transform="translate(95.410156 0)"/>
      </g>
     </g>
    </g>
    <g id="ytick_2">
     <g id="line2d_19">
      <path d="M 90 308.904194 
L 648 308.904194 
" clip-path="url(#pb17948b6e0)" style="fill: none; stroke: #b0b0b0; stroke-width: 0.8; stroke-linecap: square"/>
     </g>
     <g id="line2d_20">
      <g>
       <use xlink:href="#m0918939dd9" x="90" y="308.904194" style="stroke: #000000; stroke-width: 0.8"/>
      </g>
     </g>
     <g id="text_11">
      <!-- 0.2 -->
      <g transform="translate(67.096875 312.703413) scale(0.1 -0.1)">
       <use xlink:href="#DejaVuSans-30"/>
       <use xlink:href="#DejaVuSans-2e" transform="translate(63.623047 0)"/>
       <use xlink:href="#DejaVuSans-32" transform="translate(95.410156 0)"/>
      </g>
     </g>
    </g>
    <g id="ytick_3">
     <g id="line2d_21">
      <path d="M 90 248.418146 
L 648 248.418146 
" clip-path="url(#pb17948b6e0)" style="fill: none; stroke: #b0b0b0; stroke-width: 0.8; stroke-linecap: square"/>
     </g>
     <g id="line2d_22">
      <g>
       <use xlink:href="#m0918939dd9" x="90" y="248.418146" style="stroke: #000000; stroke-width: 0.8"/>
      </g>
     </g>
     <g id="text_12">
      <!-- 0.4 -->
      <g transform="translate(67.096875 252.217365) scale(0.1 -0.1)">
       <defs>
        <path id="DejaVuSans-34" d="M 2419 4116 
L 825 1625 
L 2419 1625 
L 2419 4116 
z
M 2253 4666 
L 3047 4666 
L 3047 1625 
L 3713 1625 
L 3713 1100 
L 3047 1100 
L 3047 0 
L 2419 0 
L 2419 1100 
L 313 1100 
L 313 1709 
L 2253 4666 
z
" transform="scale(0.015625)"/>
       </defs>
       <use xlink:href="#DejaVuSans-30"/>
       <use xlink:href="#DejaVuSans-2e" transform="translate(63.623047 0)"/>
       <use xlink:href="#DejaVuSans-34" transform="translate(95.410156 0)"/>
      </g>
     </g>
    </g>
    <g id="ytick_4">
     <g id="line2d_23">
      <path d="M 90 187.932097 
L 648 187.932097 
" clip-path="url(#pb17948b6e0)" style="fill: none; stroke: #b0b0b0; stroke-width: 0.8; stroke-linecap: square"/>
     </g>
     <g id="line2d_24">
      <g>
       <use xlink:href="#m0918939dd9" x="90" y="187.932097" style="stroke: #000000; stroke-width: 0.8"/>
      </g>
     </g>
     <g id="text_13">
      <!-- 0.6 -->
      <g transform="translate(67.096875 191.731316) scale(0.1 -0.1)">
       <defs>
        <path id="DejaVuSans-36" d="M 2113 2584 
Q 1688 2584 1439 2293 
Q 1191 2003 1191 1497 
Q 1191 994 1439 701 
Q 1688 409 2113 409 
Q 2538 409 2786 701 
Q 3034 994 3034 1497 
Q 3034 2003 2786 2293 
Q 2538 2584 2113 2584 
z
M 3366 4563 
L 3366 3988 
Q 3128 4100 2886 4159 
Q 2644 4219 2406 4219 
Q 1781 4219 1451 3797 
Q 1122 3375 1075 2522 
Q 1259 2794 1537 2939 
Q 1816 3084 2150 3084 
Q 2853 3084 3261 2657 
Q 3669 2231 3669 1497 
Q 3669 778 3244 343 
Q 2819 -91 2113 -91 
Q 1303 -91 875 529 
Q 447 1150 447 2328 
Q 447 3434 972 4092 
Q 1497 4750 2381 4750 
Q 2619 4750 2861 4703 
Q 3103 4656 3366 4563 
z
" transform="scale(0.015625)"/>
       </defs>
       <use xlink:href="#DejaVuSans-30"/>
       <use xlink:href="#DejaVuSans-2e" transform="translate(63.623047 0)"/>
       <use xlink:href="#DejaVuSans-36" transform="translate(95.410156 0)"/>
      </g>
     </g>
    </g>
    <g id="ytick_5">
     <g id="line2d_25">
      <path d="M 90 127.446049 
L 648 127.446049 
" clip-path="url(#pb17948b6e0)" style="fill: none; stroke: #b0b0b0; stroke-width: 0.8; stroke-linecap: square"/>
     </g>
     <g id="line2d_26">
      <g>
       <use xlink:href="#m0918939dd9" x="90" y="127.446049" style="stroke: #000000; stroke-width: 0.8"/>
      </g>
     </g>
     <g id="text_14">
      <!-- 0.8 -->
      <g transform="translate(67.096875 131.245267) scale(0.1 -0.1)">
       <defs>
        <path id="DejaVuSans-38" d="M 2034 2216 
Q 1584 2216 1326 1975 
Q 1069 1734 1069 1313 
Q 1069 891 1326 650 
Q 1584 409 2034 409 
Q 2484 409 2743 651 
Q 3003 894 3003 1313 
Q 3003 1734 2745 1975 
Q 2488 2216 2034 2216 
z
M 1403 2484 
Q 997 2584 770 2862 
Q 544 3141 544 3541 
Q 544 4100 942 4425 
Q 1341 4750 2034 4750 
Q 2731 4750 3128 4425 
Q 3525 4100 3525 3541 
Q 3525 3141 3298 2862 
Q 3072 2584 2669 2484 
Q 3125 2378 3379 2068 
Q 3634 1759 3634 1313 
Q 3634 634 3220 271 
Q 2806 -91 2034 -91 
Q 1263 -91 848 271 
Q 434 634 434 1313 
Q 434 1759 690 2068 
Q 947 2378 1403 2484 
z
M 1172 3481 
Q 1172 3119 1398 2916 
Q 1625 2713 2034 2713 
Q 2441 2713 2670 2916 
Q 2900 3119 2900 3481 
Q 2900 3844 2670 4047 
Q 2441 4250 2034 4250 
Q 1625 4250 1398 4047 
Q 1172 3844 1172 3481 
z
" transform="scale(0.015625)"/>
       </defs>
       <use xlink:href="#DejaVuSans-30"/>
       <use xlink:href="#DejaVuSans-2e" transform="translate(63.623047 0)"/>
       <use xlink:href="#DejaVuSans-38" transform="translate(95.410156 0)"/>
      </g>
     </g>
    </g>
    <g id="ytick_6">
     <g id="line2d_27">
      <path d="M 90 66.96 
L 648 66.96 
" clip-path="url(#pb17948b6e0)" style="fill: none; stroke: #b0b0b0; stroke-width: 0.8; stroke-linecap: square"/>
     </g>
     <g id="line2d_28">
      <g>
       <use xlink:href="#m0918939dd9" x="90" y="66.96" style="stroke: #000000; stroke-width: 0.8"/>
      </g>
     </g>
     <g id="text_15">
      <!-- 1.0 -->
      <g transform="translate(67.096875 70.759219) scale(0.1 -0.1)">
       <use xlink:href="#DejaVuSans-31"/>
       <use xlink:href="#DejaVuSans-2e" transform="translate(63.623047 0)"/>
       <use xlink:href="#DejaVuSans-30" transform="translate(95.410156 0)"/>
      </g>
     </g>
    </g>
    <g id="text_16">
     <!-- Cumulative Density -->
     <g transform="translate(61.017187 267.295156) rotate(-90) scale(0.1 -0.1)">
      <defs>
       <path id="DejaVuSans-43" d="M 4122 4306 
L 4122 3641 
Q 3803 3938 3442 4084 
Q 3081 4231 2675 4231 
Q 1875 4231 1450 3742 
Q 1025 3253 1025 2328 
Q 1025 1406 1450 917 
Q 1875 428 2675 428 
Q 3081 428 3442 575 
Q 3803 722 4122 1019 
L 4122 359 
Q 3791 134 3420 21 
Q 3050 -91 2638 -91 
Q 1578 -91 968 557 
Q 359 1206 359 2328 
Q 359 3453 968 4101 
Q 1578 4750 2638 4750 
Q 3056 4750 3426 4639 
Q 3797 4528 4122 4306 
z
" transform="scale(0.015625)"/>
       <path id="DejaVuSans-75" d="M 544 1381 
L 544 3500 
L 1119 3500 
L 1119 1403 
Q 1119 906 1312 657 
Q 1506 409 1894 409 
Q 2359 409 2629 706 
Q 2900 1003 2900 1516 
L 2900 3500 
L 3475 3500 
L 3475 0 
L 2900 0 
L 2900 538 
Q 2691 219 2414 64 
Q 2138 -91 1772 -91 
Q 1169 -91 856 284 
Q 544 659 544 1381 
z
M 1991 3584 
L 1991 3584 
z
" transform="scale(0.015625)"/>
       <path id="DejaVuSans-6d" d="M 3328 2828 
Q 3544 3216 3844 3400 
Q 4144 3584 4550 3584 
Q 5097 3584 5394 3201 
Q 5691 2819 5691 2113 
L 5691 0 
L 5113 0 
L 5113 2094 
Q 5113 2597 4934 2840 
Q 4756 3084 4391 3084 
Q 3944 3084 3684 2787 
Q 3425 2491 3425 1978 
L 3425 0 
L 2847 0 
L 2847 2094 
Q 2847 2600 2669 2842 
Q 2491 3084 2119 3084 
Q 1678 3084 1418 2786 
Q 1159 2488 1159 1978 
L 1159 0 
L 581 0 
L 581 3500 
L 1159 3500 
L 1159 2956 
Q 1356 3278 1631 3431 
Q 1906 3584 2284 3584 
Q 2666 3584 2933 3390 
Q 3200 3197 3328 2828 
z
" transform="scale(0.015625)"/>
       <path id="DejaVuSans-6c" d="M 603 4863 
L 1178 4863 
L 1178 0 
L 603 0 
L 603 4863 
z
" transform="scale(0.015625)"/>
       <path id="DejaVuSans-74" d="M 1172 4494 
L 1172 3500 
L 2356 3500 
L 2356 3053 
L 1172 3053 
L 1172 1153 
Q 1172 725 1289 603 
Q 1406 481 1766 481 
L 2356 481 
L 2356 0 
L 1766 0 
Q 1100 0 847 248 
Q 594 497 594 1153 
L 594 3053 
L 172 3053 
L 172 3500 
L 594 3500 
L 594 4494 
L 1172 4494 
z
" transform="scale(0.015625)"/>
       <path id="DejaVuSans-69" d="M 603 3500 
L 1178 3500 
L 1178 0 
L 603 0 
L 603 3500 
z
M 603 4863 
L 1178 4863 
L 1178 4134 
L 603 4134 
L 603 4863 
z
" transform="scale(0.015625)"/>
       <path id="DejaVuSans-44" d="M 1259 4147 
L 1259 519 
L 2022 519 
Q 2988 519 3436 956 
Q 3884 1394 3884 2338 
Q 3884 3275 3436 3711 
Q 2988 4147 2022 4147 
L 1259 4147 
z
M 628 4666 
L 1925 4666 
Q 3281 4666 3915 4102 
Q 4550 3538 4550 2338 
Q 4550 1131 3912 565 
Q 3275 0 1925 0 
L 628 0 
L 628 4666 
z
" transform="scale(0.015625)"/>
       <path id="DejaVuSans-6e" d="M 3513 2113 
L 3513 0 
L 2938 0 
L 2938 2094 
Q 2938 2591 2744 2837 
Q 2550 3084 2163 3084 
Q 1697 3084 1428 2787 
Q 1159 2491 1159 1978 
L 1159 0 
L 581 0 
L 581 3500 
L 1159 3500 
L 1159 2956 
Q 1366 3272 1645 3428 
Q 1925 3584 2291 3584 
Q 2894 3584 3203 3211 
Q 3513 2838 3513 2113 
z
" transform="scale(0.015625)"/>
       <path id="DejaVuSans-73" d="M 2834 3397 
L 2834 2853 
Q 2591 2978 2328 3040 
Q 2066 3103 1784 3103 
Q 1356 3103 1142 2972 
Q 928 2841 928 2578 
Q 928 2378 1081 2264 
Q 1234 2150 1697 2047 
L 1894 2003 
Q 2506 1872 2764 1633 
Q 3022 1394 3022 966 
Q 3022 478 2636 193 
Q 2250 -91 1575 -91 
Q 1294 -91 989 -36 
Q 684 19 347 128 
L 347 722 
Q 666 556 975 473 
Q 1284 391 1588 391 
Q 1994 391 2212 530 
Q 2431 669 2431 922 
Q 2431 1156 2273 1281 
Q 2116 1406 1581 1522 
L 1381 1569 
Q 847 1681 609 1914 
Q 372 2147 372 2553 
Q 372 3047 722 3315 
Q 1072 3584 1716 3584 
Q 2034 3584 2315 3537 
Q 2597 3491 2834 3397 
z
" transform="scale(0.015625)"/>
       <path id="DejaVuSans-79" d="M 2059 -325 
Q 1816 -950 1584 -1140 
Q 1353 -1331 966 -1331 
L 506 -1331 
L 506 -850 
L 844 -850 
Q 1081 -850 1212 -737 
Q 1344 -625 1503 -206 
L 1606 56 
L 191 3500 
L 800 3500 
L 1894 763 
L 2988 3500 
L 3597 3500 
L 2059 -325 
z
" transform="scale(0.015625)"/>
      </defs>
      <use xlink:href="#DejaVuSans-43"/>
      <use xlink:href="#DejaVuSans-75" transform="translate(69.824219 0)"/>
      <use xlink:href="#DejaVuSans-6d" transform="translate(133.203125 0)"/>
      <use xlink:href="#DejaVuSans-75" transform="translate(230.615234 0)"/>
      <use xlink:href="#DejaVuSans-6c" transform="translate(293.994141 0)"/>
      <use xlink:href="#DejaVuSans-61" transform="translate(321.777344 0)"/>
      <use xlink:href="#DejaVuSans-74" transform="translate(383.056641 0)"/>
      <use xlink:href="#DejaVuSans-69" transform="translate(422.265625 0)"/>
      <use xlink:href="#DejaVuSans-76" transform="translate(450.048828 0)"/>
      <use xlink:href="#DejaVuSans-65" transform="translate(509.228516 0)"/>
      <use xlink:href="#DejaVuSans-20" transform="translate(570.751953 0)"/>
      <use xlink:href="#DejaVuSans-44" transform="translate(602.539062 0)"/>
      <use xlink:href="#DejaVuSans-65" transform="translate(679.541016 0)"/>
      <use xlink:href="#DejaVuSans-6e" transform="translate(741.064453 0)"/>
      <use xlink:href="#DejaVuSans-73" transform="translate(804.443359 0)"/>
      <use xlink:href="#DejaVuSans-69" transform="translate(856.542969 0)"/>
      <use xlink:href="#DejaVuSans-74" transform="translate(884.326172 0)"/>
      <use xlink:href="#DejaVuSans-79" transform="translate(923.535156 0)"/>
     </g>
    </g>
   </g>
   <g id="line2d_29">
    <path d="M 242.077922 369.36 
L 242.218609 369.208785 
L 242.390586 368.75514 
L 242.561071 367.273231 
L 242.686388 364.218686 
L 242.961683 345.135338 
L 243.095779 327.26171 
L 244.095478 112.505995 
L 244.748621 71.466211 
L 245.213046 67.65559 
L 245.588726 67.050729 
L 246.061744 66.96 
L 246.061744 66.96 
" clip-path="url(#pb17948b6e0)" style="fill: none; stroke: #1f77b4; stroke-width: 1.5; stroke-linecap: square"/>
   </g>
   <g id="line2d_30">
    <path d="M 243.608881 384.48 
L 243.608881 51.84 
" clip-path="url(#pb17948b6e0)" style="fill: none; stroke-dasharray: 3.7,1.6; stroke-dashoffset: 0; stroke: #1f77b4"/>
   </g>
   <g id="line2d_31">
    <path d="M 241.285654 369.36 
L 241.603056 369.148299 
L 241.931041 359.954419 
L 242.098036 338.330657 
L 242.275361 298.772781 
L 242.525393 224.132997 
L 242.640248 188.234527 
L 242.671241 179.585023 
L 242.97841 111.568461 
L 243.162577 91.093933 
L 243.697287 69.470171 
L 243.92495 67.867291 
L 244.028448 67.504374 
L 244.297772 67.020486 
L 244.446961 66.96 
L 244.446961 66.96 
" clip-path="url(#pb17948b6e0)" style="fill: none; stroke: #ff7f0e; stroke-width: 1.5; stroke-linecap: square"/>
   </g>
   <g id="line2d_32">
    <path d="M 242.575852 384.48 
L 242.575852 51.84 
" clip-path="url(#pb17948b6e0)" style="fill: none; stroke-dasharray: 3.7,1.6; stroke-dashoffset: 0; stroke: #ff7f0e"/>
   </g>
   <g id="line2d_33">
    <path d="M 118.772031 369.36 
L 153.526996 369.208785 
L 154.071328 369.178542 
L 166.492246 368.997084 
L 166.545625 368.966841 
L 182.128272 368.603924 
L 182.423306 368.543438 
L 184.121995 368.422466 
L 186.46068 368.241008 
L 190.209986 368.089793 
L 193.842226 367.847849 
L 195.705377 367.666391 
L 197.338916 367.454689 
L 200.572783 367.182502 
L 200.575187 367.152259 
L 202.410153 366.970801 
L 202.459023 366.910315 
L 203.369194 366.7591 
L 203.470069 366.698614 
L 205.980683 366.184482 
L 207.034141 366.003024 
L 207.062727 365.972781 
L 208.396369 365.821566 
L 209.565365 365.640108 
L 209.823426 365.549379 
L 211.686939 365.277192 
L 214.694936 364.672331 
L 214.744998 364.642088 
L 215.484615 364.46063 
L 217.394473 364.127957 
L 218.74098 363.946499 
L 220.065132 363.432367 
L 220.128415 363.371881 
L 221.112332 363.190423 
L 221.121211 363.16018 
L 222.842846 362.887993 
L 227.252361 361.103654 
L 227.264594 361.073411 
L 227.683771 360.952439 
L 227.806188 360.770981 
L 231.157027 359.621746 
L 231.431996 359.500774 
L 231.432621 359.470531 
L 232.334483 359.198344 
L 232.489067 359.047129 
L 232.778987 358.895914 
L 233.325142 358.623726 
L 233.787112 358.381782 
L 234.130246 358.139838 
L 234.293633 358.018866 
L 235.821669 357.293033 
L 236.410565 357.081332 
L 236.595125 356.990603 
L 239.285817 355.780882 
L 239.543578 355.569181 
L 239.764389 355.35748 
L 242.083804 354.238488 
L 242.224635 354.117516 
L 243.584843 353.240468 
L 244.419512 353.028767 
L 245.232594 352.514635 
L 245.320212 352.454149 
L 245.987546 352.302934 
L 246.314041 352.091233 
L 246.658109 351.879532 
L 246.86232 351.667831 
L 247.191882 351.516616 
L 247.256665 351.425887 
L 247.629549 351.244428 
L 251.302101 348.85523 
L 251.443322 348.734257 
L 251.573711 348.613285 
L 251.81525 348.46207 
L 251.943672 348.310855 
L 252.102108 348.15964 
L 252.793748 347.887453 
L 253.010182 347.736238 
L 253.461539 347.46405 
L 253.743334 347.101134 
L 253.96552 346.889433 
L 254.044398 346.707975 
L 254.296812 346.55676 
L 254.843965 346.314815 
L 255.136294 345.982142 
L 255.41275 345.830927 
L 255.61219 345.649469 
L 256.104138 345.377282 
L 256.216104 345.226067 
L 257.125327 344.530477 
L 257.422102 344.379262 
L 257.67581 344.046589 
L 257.779596 343.865131 
L 258.113923 343.471971 
L 258.180433 343.411485 
L 258.609597 343.109055 
L 258.742871 342.95784 
L 258.9276 342.776382 
L 259.07707 342.65541 
L 259.303965 342.473951 
L 260.117405 341.838848 
L 260.38723 341.596904 
L 260.550213 341.445689 
L 261.039522 340.931557 
L 261.219719 340.719856 
L 261.84344 340.054509 
L 262.303797 339.631107 
L 262.505511 339.479892 
L 262.684032 339.328677 
L 262.999083 339.177462 
L 263.09027 339.05649 
L 263.6144 338.66333 
L 263.615134 338.633087 
L 263.92525 338.481872 
L 264.180091 338.239928 
L 264.483676 337.997984 
L 265.265284 337.06045 
L 265.345789 336.939478 
L 265.85933 336.45559 
L 265.945618 336.395104 
L 266.133793 336.183402 
L 266.297945 335.971701 
L 266.440317 335.729757 
L 266.578856 335.427327 
L 266.921678 335.215626 
L 267.120446 335.034167 
L 267.333764 334.731737 
L 267.473301 334.580522 
L 267.709196 334.399064 
L 268.422871 333.491773 
L 268.644667 333.340558 
L 268.75011 333.068371 
L 269.297499 332.403024 
L 269.5868 331.949379 
L 269.710401 331.798164 
L 269.961749 331.525977 
L 270.016456 331.374761 
L 270.274841 331.16306 
L 270.456117 330.800144 
L 270.541016 330.739658 
L 270.802567 330.497714 
L 270.911029 330.225527 
L 272.32183 328.773861 
L 272.394282 328.683132 
L 272.480328 328.531917 
L 272.526229 328.441188 
L 272.765492 328.289973 
L 272.914318 328.108515 
L 273.153153 327.896814 
L 273.547693 327.291953 
L 274.092936 326.626607 
L 274.252214 326.26369 
L 274.533911 326.051989 
L 274.929954 325.507615 
L 275.162456 325.235428 
L 275.265425 325.053969 
L 275.4143 324.902754 
L 275.658819 324.630567 
L 275.83326 324.449109 
L 276.244333 323.814005 
L 276.422382 323.632547 
L 277.169921 322.906715 
L 277.471879 322.211125 
L 277.974573 321.576022 
L 278.152371 321.36432 
L 279.116999 320.184842 
L 279.346007 319.791683 
L 279.824763 319.277552 
L 279.920691 319.035608 
L 280.379555 318.612205 
L 280.713828 317.977102 
L 281.107205 317.372241 
L 281.438604 316.85811 
L 281.610728 316.706895 
L 281.74526 316.404464 
L 282.288111 315.86009 
L 283.295059 314.620126 
L 283.545742 314.196724 
L 283.741356 314.015266 
L 283.873503 313.743078 
L 284.570581 312.835788 
L 284.720533 312.593843 
L 284.887242 312.442628 
L 285.016461 312.140198 
L 285.215834 311.928497 
L 285.328474 311.716796 
L 285.702068 311.232907 
L 285.875903 311.051449 
L 286.22988 310.507075 
L 286.348768 310.204644 
L 286.505668 310.023186 
L 286.620961 309.871971 
L 286.94435 309.448569 
L 287.057549 309.236868 
L 287.339163 309.025167 
L 287.43106 308.783222 
L 287.599922 308.571521 
L 288.472551 307.3618 
L 288.564686 307.180342 
L 288.675974 306.998884 
L 288.899315 306.696454 
L 289.083914 306.484752 
L 289.179657 306.333537 
L 289.387407 306.182322 
L 289.499008 305.970621 
L 289.614675 305.728677 
L 289.846734 305.486733 
L 290.114384 305.214545 
L 290.915324 303.883852 
L 291.113571 303.732637 
L 291.515647 303.006805 
L 291.655785 302.85559 
L 291.712559 302.674131 
L 291.879259 302.522916 
L 291.944583 302.432187 
L 292.251472 302.220486 
L 292.635001 301.494653 
L 292.731791 301.252709 
L 292.888822 301.041008 
L 293.366367 300.315176 
L 293.531965 300.042988 
L 293.928857 299.498614 
L 294.140256 299.196184 
L 294.322718 298.984482 
L 294.717582 298.409865 
L 294.840995 298.25865 
L 294.942228 298.046949 
L 295.076456 297.835248 
L 295.167088 297.623546 
L 295.301202 297.351359 
L 295.548732 297.109415 
L 295.732224 296.837228 
L 296.102682 296.050909 
L 296.293149 295.839208 
L 298.106521 292.693933 
L 298.312565 292.512475 
L 298.473041 292.240288 
L 298.577579 291.998344 
L 298.69314 291.847129 
L 298.801005 291.665671 
L 298.895741 291.453969 
L 299.057602 291.091053 
L 299.266122 290.75838 
L 299.430446 290.425707 
L 299.66973 290.06279 
L 299.990174 289.45793 
L 300.20072 289.215986 
L 300.700554 288.369181 
L 300.762249 288.217966 
L 300.936995 288.066751 
L 301.137411 287.582862 
L 301.6981 286.947759 
L 301.822531 286.615086 
L 302.102363 285.979982 
L 302.291561 285.677552 
L 302.445141 285.465851 
L 303.419687 283.711755 
L 303.59091 283.530297 
L 303.815518 283.167381 
L 303.938944 282.95568 
L 304.338385 282.048389 
L 304.544284 281.836688 
L 304.598251 281.65523 
L 304.7684 281.504014 
L 304.906975 281.292313 
L 305.025066 281.080612 
L 305.880504 279.387003 
L 305.963349 279.205545 
L 306.19609 278.933357 
L 306.375976 278.66117 
L 306.517436 278.388983 
L 306.624562 278.177282 
L 306.773466 277.874851 
L 307.060727 277.572421 
L 308.131324 275.334437 
L 308.248531 275.092493 
L 308.850377 274.06423 
L 309.02664 273.701314 
L 309.139912 273.489613 
L 309.262309 273.308155 
L 309.452828 272.975482 
L 309.55804 272.794023 
L 309.718749 272.431107 
L 309.893202 272.128677 
L 310.010997 271.826247 
L 312.099395 268.469271 
L 312.253905 268.076112 
L 312.499988 267.592223 
L 312.730962 267.199064 
L 312.822457 267.017606 
L 312.915266 266.866391 
L 313.040237 266.684932 
L 313.198913 266.473231 
L 315.718638 262.027507 
L 315.890448 261.513375 
L 316.126372 261.241188 
L 316.32857 260.999244 
L 316.637631 260.333897 
L 316.715831 260.243168 
L 316.923546 260.091953 
L 317.887933 258.005185 
L 318.073355 257.732997 
L 318.223296 257.521296 
L 318.378712 257.370081 
L 318.69446 256.795464 
L 318.842647 256.583762 
L 318.89738 256.341818 
L 318.965461 256.220846 
L 319.140038 256.009145 
L 319.516785 255.313555 
L 319.659134 254.85991 
L 320.102474 254.376022 
L 320.288099 254.013105 
L 320.464852 253.801404 
L 320.57555 253.498974 
L 320.916291 252.591683 
L 321.076764 252.379982 
L 321.130773 252.228767 
L 321.317973 252.047309 
L 321.433411 251.835608 
L 321.681235 251.26099 
L 321.829254 250.837588 
L 322.458105 249.809325 
L 322.599039 249.476652 
L 322.789866 249.174221 
L 322.892572 248.902034 
L 323.306345 248.35766 
L 323.43242 248.05523 
L 323.540946 247.873771 
L 323.617586 247.722556 
L 323.77061 247.541098 
L 323.892716 247.178182 
L 324.036878 246.845509 
L 324.172408 246.694293 
L 324.358846 246.240648 
L 325.002306 245.151899 
L 325.119363 244.909955 
L 325.333792 244.45631 
L 325.596702 243.730477 
L 326.99612 241.311035 
L 327.168779 240.766661 
L 327.290079 240.524716 
L 327.64545 239.980342 
L 327.768224 239.829127 
L 328.011797 239.314995 
L 328.238286 238.952079 
L 328.836932 237.772601 
L 329.003008 237.621386 
L 330.498772 235.141458 
L 330.66337 234.808785 
L 330.979661 234.294653 
L 331.23882 233.901494 
L 331.402551 233.629307 
L 331.620731 233.266391 
L 331.720466 233.054689 
L 332.092082 232.449829 
L 332.232144 232.117156 
L 333.108112 230.725977 
L 333.409382 229.969901 
L 333.559784 229.7582 
L 333.727295 229.486013 
L 333.881914 229.274311 
L 334.188826 228.367021 
L 334.307953 227.943618 
L 334.618299 227.550459 
L 335.113816 226.310495 
L 335.291081 226.038308 
L 335.404431 225.826607 
L 335.779004 225.251989 
L 335.913908 225.010045 
L 336.387913 224.374941 
L 336.542731 223.951539 
L 336.678605 223.770081 
L 337.852679 221.622826 
L 338.018786 221.350639 
L 338.216772 220.987723 
L 338.351758 220.745779 
L 338.600013 220.292133 
L 338.721423 220.080432 
L 338.997494 219.505815 
L 339.130877 219.173141 
L 339.236051 218.991683 
L 339.518271 218.35658 
L 339.964194 217.721476 
L 340.081641 217.479532 
L 341.44629 215.543978 
L 342.111651 213.971341 
L 342.185977 213.789883 
L 342.296523 213.45721 
L 342.425127 213.215266 
L 342.695828 212.852349 
L 342.857314 212.549919 
L 343.034339 212.398704 
L 343.752683 211.188983 
L 343.869514 211.037768 
L 345.447646 208.436868 
L 345.635173 208.043708 
L 346.150397 207.25739 
L 346.239375 207.045689 
L 346.481225 206.652529 
L 346.913057 205.926697 
L 347.379622 205.140378 
L 348.590186 202.751179 
L 348.806338 202.418506 
L 348.865991 202.35802 
L 349.06037 202.146319 
L 349.416699 201.390243 
L 350.000966 200.210765 
L 350.192667 199.878092 
L 351.530119 197.005005 
L 351.625816 196.76306 
L 352.078771 196.097714 
L 352.161871 195.976742 
L 352.281349 195.765041 
L 353.468003 193.466571 
L 353.556436 193.285113 
L 353.669019 193.133897 
L 353.825896 192.801224 
L 353.923773 192.650009 
L 354.555151 191.803204 
L 354.648554 191.651989 
L 354.753078 191.379802 
L 355.066349 190.986643 
L 355.250599 190.805185 
L 355.448518 190.442268 
L 355.60933 190.200324 
L 355.767806 189.95838 
L 356.040426 189.625707 
L 356.123362 189.414005 
L 356.240835 189.232547 
L 356.385459 188.96036 
L 356.579878 188.536958 
L 356.705691 188.26477 
L 356.900426 187.901854 
L 357.105427 187.508695 
L 357.212082 187.35748 
L 357.515767 186.813105 
L 357.632056 186.571161 
L 357.819683 186.298974 
L 357.939307 186.026787 
L 358.508369 184.726337 
L 359.298219 183.395644 
L 359.412228 183.183942 
L 360.482306 181.248389 
L 360.561719 181.066931 
L 360.817571 180.583042 
L 361.180314 180.008425 
L 362.281435 177.619226 
L 362.411087 177.468011 
L 362.523866 177.195824 
L 362.770216 176.621206 
L 362.862462 176.409505 
L 362.96724 176.288533 
L 363.315336 175.744158 
L 363.414974 175.5627 
L 363.591386 175.350999 
L 365.419908 172.538398 
L 365.541453 172.266211 
L 366.25326 171.35892 
L 367.316627 169.514095 
L 367.635258 169.120936 
L 367.682898 168.969721 
L 367.897579 168.788263 
L 368.009971 168.485833 
L 368.038954 168.395104 
L 368.170738 168.274131 
L 368.231573 168.122916 
L 368.387716 167.971701 
L 368.502031 167.850729 
L 368.718346 167.487813 
L 368.871082 167.06441 
L 369.109271 166.610765 
L 369.260289 166.368821 
L 369.363587 166.247849 
L 369.519601 166.005905 
L 370.057376 165.007885 
L 370.154551 164.886913 
L 370.558025 164.372781 
L 370.722957 164.221566 
L 370.914501 163.828407 
L 371.936512 162.316256 
L 372.086095 162.134797 
L 372.264374 161.892853 
L 372.383117 161.711395 
L 372.730152 161.287993 
L 373.723167 159.56414 
L 373.799719 159.382682 
L 374.101271 159.080252 
L 374.811344 157.779802 
L 375.082825 157.3564 
L 375.244051 157.114455 
L 375.364845 156.902754 
L 376.256175 155.541818 
L 376.409017 155.36036 
L 376.71356 155.118416 
L 376.837025 154.906715 
L 377.04484 154.725257 
L 377.158499 154.36234 
L 377.479234 153.75748 
L 377.581096 153.606265 
L 377.925386 153.031647 
L 378.034955 152.880432 
L 378.367787 152.336058 
L 378.711485 152.003384 
L 379.071023 151.519496 
L 379.310492 151.368281 
L 379.574686 150.975122 
L 379.643432 150.823906 
L 379.782449 150.702934 
L 380.256316 149.977102 
L 380.361302 149.886373 
L 381.138224 148.706895 
L 381.30988 148.525437 
L 382.848875 146.589883 
L 383.384486 145.622106 
L 383.64521 145.410405 
L 384.065488 144.654329 
L 384.243363 144.503114 
L 384.324583 144.291413 
L 384.903737 143.777282 
L 385.001849 143.626067 
L 385.121327 143.444608 
L 385.901589 142.295374 
L 386.03764 142.144158 
L 386.16581 141.992943 
L 386.258445 141.871971 
L 386.419191 141.66027 
L 386.567635 141.418326 
L 386.745466 141.267111 
L 386.837667 141.115896 
L 387.081199 140.934437 
L 387.592886 140.390063 
L 387.705456 140.329577 
L 388.241969 139.875932 
L 388.480546 139.543258 
L 388.671693 139.210585 
L 388.746842 138.998884 
L 388.915323 138.847669 
L 389.284195 138.333537 
L 389.506226 138.000864 
L 389.648804 137.849649 
L 389.904836 137.577462 
L 390.027014 137.396004 
L 390.175266 137.184302 
L 390.292734 136.972601 
L 390.428146 136.730657 
L 392.218047 134.643888 
L 392.558263 134.069271 
L 392.793245 133.85757 
L 393.142788 133.403924 
L 393.308529 133.131737 
L 393.502088 132.738578 
L 393.70705 132.436148 
L 393.868292 132.133717 
L 394.258849 131.649829 
L 394.397776 131.377642 
L 394.962159 130.651809 
L 395.172675 130.167921 
L 395.734298 129.593303 
L 395.85475 129.411845 
L 396.020764 129.230387 
L 396.309795 129.079172 
L 396.659816 128.534797 
L 396.752784 128.353339 
L 397.001628 128.202124 
L 397.050806 128.111395 
L 397.379178 127.839208 
L 397.729375 127.506535 
L 398.115865 126.992403 
L 398.332258 126.841188 
L 399.00938 126.236328 
L 399.255726 125.903654 
L 400.027948 125.208065 
L 400.289624 124.996364 
L 400.710944 124.512475 
L 400.917699 124.300774 
L 401.678205 123.393483 
L 401.893136 123.151539 
L 401.997167 122.939838 
L 402.414622 122.697894 
L 402.52583 122.516436 
L 402.859465 122.183762 
L 403.307542 121.911575 
L 403.599994 121.427687 
L 403.774738 121.276472 
L 404.151528 121.034527 
L 404.443464 120.792583 
L 404.732274 120.611125 
L 405.080208 120.187723 
L 405.160259 120.066751 
L 405.545039 119.734077 
L 405.679065 119.582862 
L 406.341726 118.675572 
L 406.469896 118.524356 
L 406.732228 118.252169 
L 406.846238 118.070711 
L 408.254909 116.709775 
L 408.383504 116.55856 
L 408.464869 116.437588 
L 408.639146 116.286373 
L 408.761527 116.014185 
L 409.041082 115.681512 
L 410.730421 113.776202 
L 410.967815 113.5645 
L 411.104606 113.352799 
L 411.474364 113.050369 
L 411.65054 112.868911 
L 411.768744 112.747939 
L 412.419121 112.233807 
L 412.541599 112.082592 
L 412.644549 111.96162 
L 412.753725 111.901134 
L 412.930163 111.719676 
L 413.194387 111.538218 
L 413.314979 111.387003 
L 414.642329 110.207525 
L 414.714584 110.086553 
L 414.949217 109.935338 
L 415.207494 109.693393 
L 415.579255 109.451449 
L 415.682071 109.300234 
L 416.073844 108.725617 
L 416.130111 108.634887 
L 416.370917 108.483672 
L 416.507874 108.241728 
L 417.080503 107.788083 
L 417.191688 107.727597 
L 417.435677 107.546139 
L 417.606007 107.394923 
L 417.811632 107.152979 
L 417.991935 107.001764 
L 418.280302 106.820306 
L 418.872271 106.548119 
L 419.443418 106.185203 
L 420.805589 105.005725 
L 421.241205 104.824266 
L 421.388726 104.642808 
L 421.575042 104.400864 
L 421.828491 104.219406 
L 422.006053 103.977462 
L 422.21621 103.796004 
L 423.059767 103.009685 
L 423.463409 102.85847 
L 423.993006 102.525797 
L 424.095716 102.465311 
L 424.301821 102.253609 
L 424.459914 102.193123 
L 424.639587 101.981422 
L 425.725037 100.922916 
L 426.605844 100.408785 
L 426.752646 100.348299 
L 427.274992 100.076112 
L 427.348034 100.015626 
L 427.504911 99.834167 
L 427.749969 99.622466 
L 428.127378 99.471251 
L 428.683985 99.168821 
L 428.918308 98.866391 
L 429.070157 98.654689 
L 429.405255 98.442988 
L 430.087045 98.080072 
L 430.299889 97.807885 
L 430.616264 97.565941 
L 431.38129 96.96108 
L 431.50269 96.809865 
L 431.901118 96.628407 
L 432.368996 96.35622 
L 432.494944 96.084032 
L 432.638343 95.932817 
L 434.28625 94.632367 
L 434.545999 94.420666 
L 434.693486 94.269451 
L 435.332304 93.997264 
L 435.671259 93.725077 
L 435.848635 93.573861 
L 436.259706 93.271431 
L 436.548925 93.05973 
L 436.588938 92.908515 
L 437.067504 92.727057 
L 437.559322 92.424626 
L 437.60498 92.36414 
L 437.99083 92.152439 
L 438.789401 91.608065 
L 439.213737 91.426607 
L 439.910545 91.033447 
L 440.463219 90.821746 
L 441.265951 90.216886 
L 441.575622 90.035428 
L 441.747684 89.853969 
L 442.435201 89.491053 
L 443.447971 88.85595 
L 443.554441 88.704734 
L 444.007754 88.46279 
L 444.130606 88.311575 
L 444.326169 87.978902 
L 444.423023 87.85793 
L 445.060759 87.46477 
L 445.09361 87.374041 
L 445.596398 87.222826 
L 445.746032 87.041368 
L 446.674891 86.617966 
L 447.261582 86.466751 
L 447.451207 86.315536 
L 448.027072 86.043348 
L 449.342527 85.438488 
L 449.873791 85.196544 
L 450.372395 84.86387 
L 450.715157 84.682412 
L 451.719362 84.138038 
L 451.726494 84.107795 
L 452.172815 83.926337 
L 452.208577 83.835608 
L 453.073054 83.593663 
L 453.130562 83.533177 
L 453.593885 83.291233 
L 453.709959 83.170261 
L 454.882332 82.777102 
L 454.905375 82.746859 
L 455.895838 82.535158 
L 455.97305 82.474671 
L 456.553223 82.172241 
L 456.87437 81.990783 
L 457.787871 81.65811 
L 458.241207 81.537138 
L 460.253867 80.871791 
L 460.527266 80.811305 
L 462.092264 80.297174 
L 462.879344 80.115716 
L 464.055081 79.722556 
L 464.226391 79.601584 
L 464.959055 79.420126 
L 465.447456 79.268911 
L 466.136782 78.996724 
L 466.224409 78.936238 
L 467.212857 78.694293 
L 467.476411 78.633807 
L 468.319427 78.482592 
L 468.336792 78.452349 
L 469.02823 78.301134 
L 469.130036 78.240648 
L 471.124377 77.696274 
L 471.335797 77.605545 
L 473.149901 77.3636 
L 474.142069 77.121656 
L 474.20466 77.06117 
L 476.121453 76.365581 
L 476.185729 76.274851 
L 477.337594 76.123636 
L 477.340435 76.093393 
L 479.092356 75.821206 
L 480.025448 75.609505 
L 480.233623 75.518776 
L 481.086755 75.276832 
L 481.59863 75.125617 
L 481.990766 75.004644 
L 484.353256 74.550999 
L 485.015937 74.399784 
L 485.112985 74.339298 
L 485.269124 74.278812 
L 486.353798 74.097354 
L 487.269646 73.915896 
L 489.363535 73.734437 
L 490.33078 73.371521 
L 495.412812 72.706175 
L 495.43157 72.675932 
L 497.000846 72.433987 
L 497.157233 72.343258 
L 502.16935 71.708155 
L 502.21253 71.677912 
L 503.798673 71.435968 
L 504.313665 71.284752 
L 506.347578 71.16378 
L 510.79493 70.740378 
L 510.840636 70.710135 
L 516.142026 70.165761 
L 517.053569 69.954059 
L 518.995617 69.742358 
L 519.108412 69.651629 
L 527.000982 69.167741 
L 530.841694 68.895554 
L 538.608616 68.502394 
L 540.16389 68.381422 
L 561.658129 67.595104 
L 561.679145 67.56486 
L 564.695997 67.504374 
L 581.907554 67.141458 
L 622.636364 66.96 
L 622.636364 66.96 
" clip-path="url(#pb17948b6e0)" style="fill: none; stroke: #2ca02c; stroke-width: 1.5; stroke-linecap: square"/>
   </g>
   <g id="line2d_34">
    <path d="M 343.723369 384.48 
L 343.723369 51.84 
" clip-path="url(#pb17948b6e0)" style="fill: none; stroke-dasharray: 3.7,1.6; stroke-dashoffset: 0; stroke: #2ca02c"/>
   </g>
   <g id="line2d_35">
    <path d="M 115.363636 369.36 
L 119.627311 369.329757 
L 166.493681 369.178542 
L 172.598332 368.997084 
L 176.516214 368.845869 
L 179.531627 368.694653 
L 180.632836 368.573681 
L 187.4027 368.241008 
L 188.439484 368.180522 
L 192.18961 367.908335 
L 192.83088 367.75712 
L 198.251245 367.06153 
L 198.276726 367.001044 
L 200.242407 366.7591 
L 200.315287 366.728857 
L 204.195094 366.335698 
L 207.068416 365.730837 
L 208.485615 365.549379 
L 208.505227 365.519136 
L 210.032522 365.277192 
L 210.252075 365.15622 
L 211.113939 365.005005 
L 211.253879 364.974761 
L 212.289973 364.853789 
L 212.433662 364.732817 
L 213.428516 364.521116 
L 213.44548 364.490873 
L 214.522216 364.309415 
L 214.522246 364.279172 
L 217.603404 363.765041 
L 218.189606 363.613825 
L 218.658369 363.46261 
L 218.758565 363.402124 
L 219.84943 363.16018 
L 220.678462 363.008965 
L 220.77817 362.948479 
L 221.776281 362.797264 
L 221.846011 362.736778 
L 222.657032 362.55532 
L 226.737291 361.224626 
L 226.95714 361.16414 
L 229.004314 360.498794 
L 229.877877 360.075392 
L 230.420409 359.86369 
L 231.236861 359.621746 
L 231.818813 359.349559 
L 232.379828 358.986643 
L 232.489176 358.926157 
L 233.163251 358.684212 
L 233.318705 358.593483 
L 234.590384 358.291053 
L 235.095768 358.049109 
L 235.125451 358.018866 
L 235.637589 357.867651 
L 235.649179 357.837408 
L 236.230983 357.686193 
L 237.234436 357.26279 
L 238.603258 356.899874 
L 239.576027 356.597444 
L 239.914945 356.446229 
L 240.414128 356.143798 
L 240.550077 355.932097 
L 242.703316 354.571161 
L 243.096567 354.35946 
L 244.114873 353.815086 
L 244.120252 353.784842 
L 244.521117 353.633627 
L 245.515812 353.210225 
L 245.698391 352.998524 
L 245.939254 352.847309 
L 246.737002 352.514635 
L 247.676516 352.000504 
L 247.804485 351.879532 
L 247.829148 351.849289 
L 248.440138 351.667831 
L 248.865482 351.486373 
L 249.138081 351.335158 
L 249.862295 350.76054 
L 250.321067 350.548839 
L 250.608841 350.337138 
L 250.761541 350.125437 
L 251.186416 349.943978 
L 251.2445 349.853249 
L 251.420156 349.702034 
L 251.723576 349.490333 
L 252.26964 349.278632 
L 252.50774 349.097174 
L 252.751208 348.885473 
L 253.001929 348.643528 
L 253.242205 348.431827 
L 253.37593 348.310855 
L 253.580036 348.15964 
L 253.674023 347.947939 
L 254.269784 347.494293 
L 255.100705 346.768461 
L 255.384583 346.55676 
L 255.454955 346.466031 
L 256.139169 346.193843 
L 256.334709 346.012385 
L 257.028868 345.679712 
L 257.312433 345.437768 
L 257.431032 345.25631 
L 258.609083 344.076832 
L 258.888472 343.895374 
L 259.6287 343.381242 
L 259.779918 343.230027 
L 259.918933 343.169541 
L 261.012458 342.352979 
L 261.095129 342.26225 
L 261.563478 341.990063 
L 262.07512 341.354959 
L 262.590786 340.931557 
L 262.759468 340.810585 
L 263.400113 340.235968 
L 263.586372 339.842808 
L 263.786849 339.570621 
L 263.88225 339.510135 
L 264.486015 339.086733 
L 264.595651 338.965761 
L 265.332834 338.391143 
L 265.504878 338.239928 
L 265.658214 338.088713 
L 265.812986 337.907255 
L 266.125056 337.665311 
L 266.61411 336.969721 
L 267.147502 336.425347 
L 267.449646 336.274131 
L 267.660206 336.032187 
L 268.03618 335.850729 
L 268.188472 335.76 
L 268.376802 335.578542 
L 268.404727 335.487813 
L 268.862529 335.276112 
L 269.030511 335.06441 
L 269.326777 334.822466 
L 269.470866 334.671251 
L 269.771336 334.399064 
L 269.969611 334.187363 
L 270.021599 334.096634 
L 270.344248 333.854689 
L 270.859889 333.098614 
L 274.21649 329.499694 
L 274.356712 329.318236 
L 274.566236 329.136778 
L 274.87563 328.713375 
L 275.114173 328.441188 
L 276.047727 327.26171 
L 276.085041 327.170981 
L 276.470591 326.989523 
L 276.941542 326.26369 
L 277.142151 325.991503 
L 277.255449 325.65883 
L 278.044762 324.418866 
L 278.236172 324.207165 
L 278.287116 324.116436 
L 278.461904 323.965221 
L 278.84066 323.511575 
L 279.018476 323.299874 
L 279.123248 323.118416 
L 279.179291 323.027687 
L 279.380526 322.876472 
L 279.568289 322.574041 
L 282.110268 319.398524 
L 282.301176 319.247309 
L 282.39715 319.096094 
L 282.574066 318.76342 
L 282.751867 318.430747 
L 282.892382 318.279532 
L 283.09255 317.946859 
L 283.207357 317.765401 
L 283.414492 317.46297 
L 283.78641 316.948839 
L 283.931153 316.646409 
L 284.274067 316.313735 
L 284.435937 316.102034 
L 284.697668 315.86009 
L 284.802887 315.648389 
L 284.875891 315.466931 
L 284.971292 315.345959 
L 285.139606 315.194743 
L 285.375397 314.710855 
L 285.530211 314.55964 
L 285.951907 314.045509 
L 286.348618 313.622106 
L 288.122896 310.930477 
L 288.372375 310.779262 
L 289.242199 309.448569 
L 289.488809 309.206625 
L 289.580467 309.085653 
L 289.696957 308.934437 
L 290.265165 308.148119 
L 290.632027 307.754959 
L 290.93505 307.301314 
L 291.125507 306.998884 
L 291.230651 306.817426 
L 291.412031 306.545239 
L 291.528033 306.212565 
L 291.712384 306.031107 
L 291.788937 305.849649 
L 292.320739 305.275032 
L 292.402137 305.093573 
L 292.630523 304.881872 
L 292.997281 304.277012 
L 293.196315 304.125797 
L 293.351234 303.853609 
L 293.963234 303.127777 
L 294.108616 302.916076 
L 294.137955 302.85559 
L 294.323141 302.734617 
L 294.45281 302.492673 
L 294.909659 302.039028 
L 295.410438 301.16198 
L 295.547874 301.010765 
L 296.257831 299.86153 
L 296.399193 299.710315 
L 296.493206 299.407885 
L 296.80145 298.984482 
L 296.90045 298.833267 
L 297.753789 297.593303 
L 297.914886 297.442088 
L 298.347649 296.565041 
L 298.396503 296.474311 
L 298.609964 296.323096 
L 298.777944 296.081152 
L 298.92268 295.778722 
L 299.055638 295.506535 
L 299.23615 295.35532 
L 299.317505 295.173861 
L 299.457265 295.022646 
L 299.914191 294.145599 
L 300.247145 293.873411 
L 300.376028 293.722196 
L 300.542302 293.510495 
L 300.65643 293.177822 
L 300.766656 293.026607 
L 300.900507 292.875392 
L 301.060087 292.633447 
L 301.385756 292.089073 
L 301.567128 291.877372 
L 301.681238 291.665671 
L 302.004307 291.212025 
L 304.094619 287.85505 
L 304.417641 287.703834 
L 304.892473 286.85703 
L 305.596624 286.040468 
L 305.707772 285.828767 
L 305.842325 285.617066 
L 306.008888 285.375122 
L 306.67373 284.225887 
L 306.783047 284.014185 
L 306.932311 283.832727 
L 307.101157 283.530297 
L 307.536726 283.046409 
L 307.766314 282.653249 
L 308.054017 282.471791 
L 308.790515 281.110855 
L 309.657966 279.719676 
L 309.767537 279.568461 
L 310.017683 279.296274 
L 310.186077 278.9636 
L 310.359823 278.600684 
L 310.525105 278.388983 
L 310.631239 278.237768 
L 310.758892 278.05631 
L 310.888875 277.844608 
L 311.354886 276.816346 
L 311.729889 276.181242 
L 311.797363 276.030027 
L 311.994981 275.878812 
L 312.182024 275.515896 
L 312.845597 274.154959 
L 313.065225 273.973501 
L 313.187913 273.671071 
L 313.556914 273.217426 
L 313.684401 272.975482 
L 314.128232 272.007705 
L 314.244902 271.826247 
L 314.373412 271.584302 
L 314.521793 271.312115 
L 314.823046 270.767741 
L 314.974628 270.55604 
L 316.449709 267.894653 
L 316.571122 267.743438 
L 316.792146 267.441008 
L 317.192179 266.654689 
L 317.336347 266.382502 
L 317.440801 266.110315 
L 318.173524 265.021566 
L 318.324149 264.537678 
L 318.445919 264.386463 
L 318.651882 264.144518 
L 318.81816 263.842088 
L 318.964866 263.66063 
L 319.159723 263.327957 
L 319.614296 262.723096 
L 320.208366 261.75532 
L 320.359803 261.573861 
L 321.203899 260.031467 
L 321.400248 259.577822 
L 321.728203 258.972961 
L 321.805727 258.791503 
L 321.927262 258.700774 
L 322.487556 258.095914 
L 322.620793 257.944698 
L 323.403572 256.553519 
L 324.030937 255.132097 
L 324.141001 254.980882 
L 324.204366 254.829667 
L 324.297437 254.678452 
L 324.5204 254.345779 
L 324.689983 254.134077 
L 324.813616 253.801404 
L 325.12389 253.317516 
L 325.261149 253.136058 
L 325.722552 252.228767 
L 325.869527 251.865851 
L 325.986699 251.744878 
L 326.105945 251.56342 
L 326.197969 251.321476 
L 326.403113 251.079532 
L 326.59116 250.777102 
L 326.810098 250.444428 
L 327.991412 248.539118 
L 328.135261 248.35766 
L 328.367646 247.873771 
L 328.539074 247.631827 
L 328.698925 247.268911 
L 329.099025 246.482592 
L 329.30307 246.210405 
L 329.460997 245.877732 
L 329.650379 245.666031 
L 329.855308 245.3636 
L 329.998368 245.06117 
L 330.125639 244.788983 
L 330.216215 244.547039 
L 330.366664 244.395824 
L 330.852551 243.397804 
L 331.018516 243.095374 
L 331.173989 242.792943 
L 331.320055 242.490513 
L 331.683244 241.85541 
L 331.807996 241.704194 
L 332.004014 241.311035 
L 332.181131 240.917876 
L 332.357751 240.766661 
L 332.535371 240.403744 
L 332.707922 239.980342 
L 332.910738 239.617426 
L 333.064472 239.375482 
L 334.201051 236.95604 
L 334.329498 236.774581 
L 334.426343 236.56288 
L 335.333156 234.65757 
L 335.619625 233.841008 
L 336.40125 231.784482 
L 336.534659 231.421566 
L 336.683699 231.119136 
L 336.806224 230.877192 
L 336.942465 230.695734 
L 337.035806 230.514275 
L 337.128618 230.302574 
L 337.295786 229.879172 
L 337.457001 229.697714 
L 337.566401 229.45577 
L 337.719609 229.153339 
L 338.286526 228.15532 
L 338.398735 227.973861 
L 338.565253 227.792403 
L 339.08617 226.854869 
L 339.122794 226.733897 
L 339.42396 226.552439 
L 339.537061 226.310495 
L 339.84568 225.705635 
L 340.791043 223.891053 
L 340.906433 223.679352 
L 341.13393 223.346679 
L 341.868549 222.015986 
L 341.954399 221.895014 
L 342.120066 221.713555 
L 342.257159 221.380882 
L 342.466314 220.896994 
L 342.887919 219.868731 
L 343.01312 219.717516 
L 343.155451 219.505815 
L 343.396153 218.779982 
L 343.553205 218.447309 
L 343.713755 218.235608 
L 343.904981 217.842448 
L 344.070788 217.449289 
L 344.262698 217.207345 
L 344.520761 216.783942 
L 344.88387 216.027867 
L 345.286549 215.604464 
L 345.443913 215.06009 
L 345.569859 214.908875 
L 345.684284 214.515716 
L 345.99113 214.092313 
L 346.283675 213.578182 
L 346.407362 213.396724 
L 346.774137 212.731377 
L 346.946086 212.45919 
L 347.023449 212.247489 
L 347.180889 211.854329 
L 347.349836 211.642628 
L 347.538217 211.400684 
L 347.676921 211.188983 
L 348.215392 210.190963 
L 348.894804 209.1627 
L 349.064858 208.86027 
L 349.397083 208.527597 
L 349.53308 208.25541 
L 349.667703 208.073951 
L 349.806187 207.771521 
L 350.466021 206.713015 
L 350.622416 206.25937 
L 352.14003 203.749199 
L 352.308723 203.35604 
L 352.439579 203.144338 
L 352.485089 203.053609 
L 352.753565 202.902394 
L 352.880912 202.690693 
L 353.185622 202.116076 
L 353.375976 201.66243 
L 353.481578 201.480972 
L 353.80211 200.906355 
L 354.071735 200.603924 
L 354.681206 199.484932 
L 354.899284 199.182502 
L 355.076039 198.819586 
L 355.181558 198.607885 
L 355.426047 198.244968 
L 355.545887 198.093753 
L 356.045095 197.246949 
L 356.296893 196.914275 
L 356.381148 196.76306 
L 356.802143 196.279172 
L 356.870527 196.1582 
L 357.001449 196.006985 
L 357.15571 195.613825 
L 357.289379 195.46261 
L 357.498883 195.190423 
L 357.602028 195.008965 
L 357.786502 194.676292 
L 357.92477 194.434347 
L 358.076489 194.010945 
L 358.708002 192.982682 
L 358.931656 192.770981 
L 359.071317 192.498794 
L 359.154717 192.347579 
L 359.385327 192.075392 
L 359.480285 191.742718 
L 359.667471 191.56126 
L 359.751339 191.168101 
L 359.915499 190.865671 
L 360.086716 190.442268 
L 360.343676 190.049109 
L 360.457071 189.746679 
L 361.220902 188.3555 
L 361.549212 187.96234 
L 361.70372 187.417966 
L 362.771728 185.391683 
L 362.941147 185.210225 
L 363.058757 185.089253 
L 363.278746 184.635608 
L 363.483656 184.36342 
L 363.629234 184.121476 
L 363.823784 183.879532 
L 364.311996 182.821026 
L 364.447278 182.579082 
L 364.606543 182.397624 
L 364.689849 182.216166 
L 364.791704 182.034707 
L 364.90184 181.883492 
L 365.591112 180.734257 
L 365.674766 180.613285 
L 365.85925 180.401584 
L 366.051054 179.887453 
L 366.173483 179.736238 
L 366.296077 179.403564 
L 366.499527 179.131377 
L 366.591523 178.949919 
L 366.753366 178.828947 
L 366.86716 178.587003 
L 367.36513 177.770441 
L 367.843333 177.014365 
L 368.036465 176.832907 
L 368.176638 176.590963 
L 368.625008 175.895374 
L 368.776352 175.744158 
L 368.907273 175.592943 
L 369.068025 175.411485 
L 369.175287 175.169541 
L 369.649693 174.534437 
L 369.924666 174.050549 
L 369.994942 173.838848 
L 370.214459 173.536418 
L 370.381186 173.324716 
L 370.515259 173.052529 
L 371.885807 170.905275 
L 372.941182 169.272151 
L 373.254203 168.969721 
L 373.755679 168.032187 
L 373.878948 167.880972 
L 374.019422 167.578542 
L 374.288587 167.215626 
L 374.412294 166.973681 
L 374.536025 166.822466 
L 374.739383 166.641008 
L 375.341542 165.673231 
L 375.481139 165.370801 
L 375.587701 165.068371 
L 375.711705 164.826427 
L 375.7902 164.614725 
L 375.899703 164.403024 
L 376.053536 164.221566 
L 376.145709 163.979622 
L 377.022764 162.951359 
L 377.112887 162.769901 
L 377.307262 162.527957 
L 377.393714 162.437228 
L 377.702563 162.195284 
L 378.512828 160.894833 
L 378.613588 160.713375 
L 379.059437 160.078272 
L 379.154157 159.836328 
L 379.348139 159.594383 
L 380.928226 157.537858 
L 381.218482 157.265671 
L 382.230773 156.116436 
L 382.317193 156.025707 
L 382.577661 155.753519 
L 382.791873 155.390603 
L 383.904238 153.969181 
L 384.064995 153.817966 
L 384.248381 153.606265 
L 384.408099 153.334077 
L 384.88674 152.426787 
L 385.149765 152.245329 
L 385.80488 151.489253 
L 386.033857 151.217066 
L 386.254374 150.793663 
L 386.509742 150.642448 
L 386.930211 150.007345 
L 387.080944 149.735158 
L 387.62215 148.737138 
L 389.163231 146.831827 
L 389.391776 146.680612 
L 389.666905 146.25721 
L 389.882144 146.015266 
L 389.957813 145.924536 
L 390.09502 145.773321 
L 390.26822 145.25919 
L 390.458736 144.987003 
L 390.580058 144.866031 
L 391.275017 144.170441 
L 391.580674 143.747039 
L 393.031575 141.509055 
L 393.196593 141.35784 
L 393.744394 140.571521 
L 393.828548 140.450549 
L 394.093896 140.117876 
L 394.155903 139.936418 
L 394.328155 139.785203 
L 394.490995 139.543258 
L 394.973294 138.726697 
L 395.196161 138.454509 
L 395.314191 138.36378 
L 395.530121 138.182322 
L 395.748899 137.970621 
L 397.212086 136.095554 
L 397.395446 135.944338 
L 397.947543 135.188263 
L 397.984341 135.037048 
L 398.411606 134.795104 
L 398.909205 134.099514 
L 399.130758 133.85757 
L 399.256317 133.645869 
L 400.720138 132.042988 
L 400.871532 131.891773 
L 401.185855 131.498614 
L 401.410795 131.105455 
L 401.768116 130.682052 
L 401.93107 130.409865 
L 402.378791 129.895734 
L 402.491613 129.744518 
L 402.55106 129.653789 
L 402.984021 129.381602 
L 402.99631 129.351359 
L 403.24394 129.200144 
L 403.368868 129.018686 
L 403.574071 128.806985 
L 403.729354 128.595284 
L 403.963919 128.323096 
L 404.188076 128.050909 
L 404.473816 127.778722 
L 404.575954 127.687993 
L 404.680533 127.506535 
L 404.795717 127.26459 
L 405.123366 126.992403 
L 406.617041 125.117336 
L 407.060568 124.633447 
L 407.166157 124.512475 
L 407.518923 124.210045 
L 407.737117 123.968101 
L 408.048475 123.786643 
L 408.827932 122.818866 
L 408.922519 122.637408 
L 409.020938 122.45595 
L 409.156371 122.304734 
L 409.205928 122.244248 
L 409.451304 122.06279 
L 410.283425 121.185743 
L 410.596792 120.974041 
L 410.768335 120.822826 
L 410.95612 120.641368 
L 411.109665 120.399424 
L 411.283809 120.248209 
L 411.696704 119.915536 
L 411.829916 119.643348 
L 411.922887 119.431647 
L 412.650092 118.766301 
L 412.754595 118.675572 
L 413.209295 118.282412 
L 413.759431 117.405365 
L 413.859641 117.223906 
L 413.954656 117.042448 
L 414.030418 116.830747 
L 414.377606 116.55856 
L 414.468227 116.467831 
L 414.565889 116.286373 
L 414.754015 116.165401 
L 414.995762 115.983942 
L 415.153073 115.86297 
L 415.591849 115.681512 
L 415.831849 115.318596 
L 416.293405 114.623006 
L 416.948486 114.018146 
L 417.060464 113.866931 
L 417.295625 113.715716 
L 417.830062 113.231827 
L 418.728389 112.505995 
L 418.872907 112.354779 
L 419.039361 112.112835 
L 419.270652 111.810405 
L 419.948121 111.417246 
L 420.042517 111.326517 
L 421.845658 109.844608 
L 421.969796 109.693393 
L 422.115813 109.481692 
L 422.26061 109.209505 
L 422.5446 109.028047 
L 422.641417 108.786103 
L 422.922766 108.604644 
L 424.540501 106.850549 
L 424.697719 106.638848 
L 425.726525 106.033987 
L 425.854657 105.822286 
L 426.128242 105.640828 
L 426.501541 105.398884 
L 426.518072 105.338398 
L 426.91422 105.187183 
L 427.125236 104.945239 
L 427.54021 104.76378 
L 427.850302 104.521836 
L 427.971212 104.310135 
L 428.460062 104.037948 
L 428.870777 103.765761 
L 428.977488 103.614545 
L 429.477019 103.433087 
L 429.561709 103.342358 
L 430.02583 103.070171 
L 430.529367 102.525797 
L 430.588402 102.465311 
L 430.936534 102.283852 
L 431.331831 102.102394 
L 431.654748 101.920936 
L 431.722171 101.799964 
L 431.963082 101.648749 
L 432.11713 101.497534 
L 432.476593 101.285833 
L 432.61136 101.16486 
L 432.780305 101.043888 
L 433.906946 99.924896 
L 434.020324 99.803924 
L 434.193157 99.652709 
L 436.26012 98.231287 
L 436.272805 98.201044 
L 436.984007 97.9591 
L 437.223213 97.777642 
L 437.494661 97.596184 
L 438.020537 97.293753 
L 438.117739 97.172781 
L 438.918648 96.809865 
L 439.057913 96.688893 
L 439.40426 96.416706 
L 439.47918 96.35622 
L 439.674932 96.174761 
L 442.502073 94.329937 
L 442.919797 94.118236 
L 443.069116 93.997264 
L 443.55814 93.634347 
L 443.727599 93.392403 
L 444.480748 93.089973 
L 444.811215 92.817786 
L 445.041628 92.666571 
L 445.109543 92.575842 
L 445.324623 92.36414 
L 446.312891 91.547579 
L 446.76389 91.366121 
L 447.250557 91.033447 
L 448.035623 90.579802 
L 448.047316 90.549559 
L 448.682003 90.368101 
L 449.013274 90.186643 
L 449.466249 90.035428 
L 449.770827 89.884212 
L 451.266406 89.218866 
L 451.663692 89.067651 
L 451.694894 89.037408 
L 452.098241 88.886193 
L 452.822769 88.432547 
L 453.229219 88.220846 
L 453.441712 88.009145 
L 455.913289 86.55748 
L 456.35373 86.406265 
L 456.470162 86.224806 
L 456.921491 86.013105 
L 457.042783 85.922376 
L 457.267065 85.771161 
L 457.479787 85.650189 
L 457.859728 85.55946 
L 458.32203 85.408245 
L 458.768534 85.045329 
L 459.826894 84.652169 
L 459.89621 84.56144 
L 460.640617 84.228767 
L 460.816336 84.168281 
L 461.42708 83.95658 
L 461.561642 83.835608 
L 462.331133 83.593663 
L 462.521896 83.381962 
L 462.86137 83.26099 
L 466.187835 82.051269 
L 467.010297 81.839568 
L 467.361036 81.597624 
L 470.761415 80.508875 
L 471.734619 79.994743 
L 472.016277 79.873771 
L 472.773559 79.571341 
L 473.233322 79.299154 
L 473.715659 79.087453 
L 473.747239 79.05721 
L 474.671193 78.845509 
L 475.384446 78.482592 
L 475.478409 78.391863 
L 476.130728 78.119676 
L 476.201359 77.998704 
L 476.865725 77.75676 
L 477.082109 77.635788 
L 477.420175 77.514815 
L 477.425275 77.484572 
L 478.023548 77.303114 
L 479.934869 76.607525 
L 480.255655 76.516796 
L 481.469192 76.214365 
L 481.789648 76.002664 
L 481.839406 75.942178 
L 482.978256 75.730477 
L 487.287445 74.611485 
L 487.70872 74.339298 
L 488.563352 74.15784 
L 488.56529 74.127597 
L 492.543669 73.401764 
L 492.862966 73.250549 
L 494.734367 73.038848 
L 494.818961 72.978362 
L 496.144176 72.706175 
L 496.690034 72.615446 
L 499.812791 72.192043 
L 500.18005 72.131557 
L 514.530171 70.25649 
L 517.962727 70.075032 
L 519.548121 69.923816 
L 521.495176 69.712115 
L 521.521556 69.681872 
L 523.370539 69.500414 
L 525.325232 69.349199 
L 526.33613 69.167741 
L 528.588247 69.016526 
L 532.001455 68.865311 
L 532.0472 68.835068 
L 541.787918 68.26045 
L 545.780259 68.078992 
L 545.868236 68.048749 
L 551.954356 67.806805 
L 579.090732 67.232187 
L 596.278549 67.020486 
L 621.885719 66.96 
L 621.885719 66.96 
" clip-path="url(#pb17948b6e0)" style="fill: none; stroke: #d62728; stroke-width: 1.5; stroke-linecap: square"/>
   </g>
   <g id="line2d_36">
    <path d="M 348.038223 384.48 
L 348.038223 51.84 
" clip-path="url(#pb17948b6e0)" style="fill: none; stroke-dasharray: 3.7,1.6; stroke-dashoffset: 0; stroke: #d62728"/>
   </g>
   <g id="patch_3">
    <path d="M 90 384.48 
L 90 51.84 
" style="fill: none; stroke: #000000; stroke-width: 0.8; stroke-linejoin: miter; stroke-linecap: square"/>
   </g>
   <g id="patch_4">
    <path d="M 648 384.48 
L 648 51.84 
" style="fill: none; stroke: #000000; stroke-width: 0.8; stroke-linejoin: miter; stroke-linecap: square"/>
   </g>
   <g id="patch_5">
    <path d="M 90 384.48 
L 648 384.48 
" style="fill: none; stroke: #000000; stroke-width: 0.8; stroke-linejoin: miter; stroke-linecap: square"/>
   </g>
   <g id="patch_6">
    <path d="M 90 51.84 
L 648 51.84 
" style="fill: none; stroke: #000000; stroke-width: 0.8; stroke-linejoin: miter; stroke-linecap: square"/>
   </g>
   <g id="text_17">
    <!-- Cumulative Distribution of Average Rewards for Different Policies -->
    <g transform="translate(173.690625 45.84) scale(0.12 -0.12)">
     <defs>
      <path id="DejaVuSans-62" d="M 3116 1747 
Q 3116 2381 2855 2742 
Q 2594 3103 2138 3103 
Q 1681 3103 1420 2742 
Q 1159 2381 1159 1747 
Q 1159 1113 1420 752 
Q 1681 391 2138 391 
Q 2594 391 2855 752 
Q 3116 1113 3116 1747 
z
M 1159 2969 
Q 1341 3281 1617 3432 
Q 1894 3584 2278 3584 
Q 2916 3584 3314 3078 
Q 3713 2572 3713 1747 
Q 3713 922 3314 415 
Q 2916 -91 2278 -91 
Q 1894 -91 1617 61 
Q 1341 213 1159 525 
L 1159 0 
L 581 0 
L 581 4863 
L 1159 4863 
L 1159 2969 
z
" transform="scale(0.015625)"/>
      <path id="DejaVuSans-6f" d="M 1959 3097 
Q 1497 3097 1228 2736 
Q 959 2375 959 1747 
Q 959 1119 1226 758 
Q 1494 397 1959 397 
Q 2419 397 2687 759 
Q 2956 1122 2956 1747 
Q 2956 2369 2687 2733 
Q 2419 3097 1959 3097 
z
M 1959 3584 
Q 2709 3584 3137 3096 
Q 3566 2609 3566 1747 
Q 3566 888 3137 398 
Q 2709 -91 1959 -91 
Q 1206 -91 779 398 
Q 353 888 353 1747 
Q 353 2609 779 3096 
Q 1206 3584 1959 3584 
z
" transform="scale(0.015625)"/>
      <path id="DejaVuSans-66" d="M 2375 4863 
L 2375 4384 
L 1825 4384 
Q 1516 4384 1395 4259 
Q 1275 4134 1275 3809 
L 1275 3500 
L 2222 3500 
L 2222 3053 
L 1275 3053 
L 1275 0 
L 697 0 
L 697 3053 
L 147 3053 
L 147 3500 
L 697 3500 
L 697 3744 
Q 697 4328 969 4595 
Q 1241 4863 1831 4863 
L 2375 4863 
z
" transform="scale(0.015625)"/>
      <path id="DejaVuSans-50" d="M 1259 4147 
L 1259 2394 
L 2053 2394 
Q 2494 2394 2734 2622 
Q 2975 2850 2975 3272 
Q 2975 3691 2734 3919 
Q 2494 4147 2053 4147 
L 1259 4147 
z
M 628 4666 
L 2053 4666 
Q 2838 4666 3239 4311 
Q 3641 3956 3641 3272 
Q 3641 2581 3239 2228 
Q 2838 1875 2053 1875 
L 1259 1875 
L 1259 0 
L 628 0 
L 628 4666 
z
" transform="scale(0.015625)"/>
      <path id="DejaVuSans-63" d="M 3122 3366 
L 3122 2828 
Q 2878 2963 2633 3030 
Q 2388 3097 2138 3097 
Q 1578 3097 1268 2742 
Q 959 2388 959 1747 
Q 959 1106 1268 751 
Q 1578 397 2138 397 
Q 2388 397 2633 464 
Q 2878 531 3122 666 
L 3122 134 
Q 2881 22 2623 -34 
Q 2366 -91 2075 -91 
Q 1284 -91 818 406 
Q 353 903 353 1747 
Q 353 2603 823 3093 
Q 1294 3584 2113 3584 
Q 2378 3584 2631 3529 
Q 2884 3475 3122 3366 
z
" transform="scale(0.015625)"/>
     </defs>
     <use xlink:href="#DejaVuSans-43"/>
     <use xlink:href="#DejaVuSans-75" transform="translate(69.824219 0)"/>
     <use xlink:href="#DejaVuSans-6d" transform="translate(133.203125 0)"/>
     <use xlink:href="#DejaVuSans-75" transform="translate(230.615234 0)"/>
     <use xlink:href="#DejaVuSans-6c" transform="translate(293.994141 0)"/>
     <use xlink:href="#DejaVuSans-61" transform="translate(321.777344 0)"/>
     <use xlink:href="#DejaVuSans-74" transform="translate(383.056641 0)"/>
     <use xlink:href="#DejaVuSans-69" transform="translate(422.265625 0)"/>
     <use xlink:href="#DejaVuSans-76" transform="translate(450.048828 0)"/>
     <use xlink:href="#DejaVuSans-65" transform="translate(509.228516 0)"/>
     <use xlink:href="#DejaVuSans-20" transform="translate(570.751953 0)"/>
     <use xlink:href="#DejaVuSans-44" transform="translate(602.539062 0)"/>
     <use xlink:href="#DejaVuSans-69" transform="translate(679.541016 0)"/>
     <use xlink:href="#DejaVuSans-73" transform="translate(707.324219 0)"/>
     <use xlink:href="#DejaVuSans-74" transform="translate(759.423828 0)"/>
     <use xlink:href="#DejaVuSans-72" transform="translate(798.632812 0)"/>
     <use xlink:href="#DejaVuSans-69" transform="translate(839.746094 0)"/>
     <use xlink:href="#DejaVuSans-62" transform="translate(867.529297 0)"/>
     <use xlink:href="#DejaVuSans-75" transform="translate(931.005859 0)"/>
     <use xlink:href="#DejaVuSans-74" transform="translate(994.384766 0)"/>
     <use xlink:href="#DejaVuSans-69" transform="translate(1033.59375 0)"/>
     <use xlink:href="#DejaVuSans-6f" transform="translate(1061.376953 0)"/>
     <use xlink:href="#DejaVuSans-6e" transform="translate(1122.558594 0)"/>
     <use xlink:href="#DejaVuSans-20" transform="translate(1185.9375 0)"/>
     <use xlink:href="#DejaVuSans-6f" transform="translate(1217.724609 0)"/>
     <use xlink:href="#DejaVuSans-66" transform="translate(1278.90625 0)"/>
     <use xlink:href="#DejaVuSans-20" transform="translate(1314.111328 0)"/>
     <use xlink:href="#DejaVuSans-41" transform="translate(1345.898438 0)"/>
     <use xlink:href="#DejaVuSans-76" transform="translate(1408.431641 0)"/>
     <use xlink:href="#DejaVuSans-65" transform="translate(1467.611328 0)"/>
     <use xlink:href="#DejaVuSans-72" transform="translate(1529.134766 0)"/>
     <use xlink:href="#DejaVuSans-61" transform="translate(1570.248047 0)"/>
     <use xlink:href="#DejaVuSans-67" transform="translate(1631.527344 0)"/>
     <use xlink:href="#DejaVuSans-65" transform="translate(1695.003906 0)"/>
     <use xlink:href="#DejaVuSans-20" transform="translate(1756.527344 0)"/>
     <use xlink:href="#DejaVuSans-52" transform="translate(1788.314453 0)"/>
     <use xlink:href="#DejaVuSans-65" transform="translate(1853.296875 0)"/>
     <use xlink:href="#DejaVuSans-77" transform="translate(1914.820312 0)"/>
     <use xlink:href="#DejaVuSans-61" transform="translate(1996.607422 0)"/>
     <use xlink:href="#DejaVuSans-72" transform="translate(2057.886719 0)"/>
     <use xlink:href="#DejaVuSans-64" transform="translate(2097.25 0)"/>
     <use xlink:href="#DejaVuSans-73" transform="translate(2160.726562 0)"/>
     <use xlink:href="#DejaVuSans-20" transform="translate(2212.826172 0)"/>
     <use xlink:href="#DejaVuSans-66" transform="translate(2244.613281 0)"/>
     <use xlink:href="#DejaVuSans-6f" transform="translate(2279.818359 0)"/>
     <use xlink:href="#DejaVuSans-72" transform="translate(2341 0)"/>
     <use xlink:href="#DejaVuSans-20" transform="translate(2382.113281 0)"/>
     <use xlink:href="#DejaVuSans-44" transform="translate(2413.900391 0)"/>
     <use xlink:href="#DejaVuSans-69" transform="translate(2490.902344 0)"/>
     <use xlink:href="#DejaVuSans-66" transform="translate(2518.685547 0)"/>
     <use xlink:href="#DejaVuSans-66" transform="translate(2553.890625 0)"/>
     <use xlink:href="#DejaVuSans-65" transform="translate(2589.095703 0)"/>
     <use xlink:href="#DejaVuSans-72" transform="translate(2650.619141 0)"/>
     <use xlink:href="#DejaVuSans-65" transform="translate(2689.482422 0)"/>
     <use xlink:href="#DejaVuSans-6e" transform="translate(2751.005859 0)"/>
     <use xlink:href="#DejaVuSans-74" transform="translate(2814.384766 0)"/>
     <use xlink:href="#DejaVuSans-20" transform="translate(2853.59375 0)"/>
     <use xlink:href="#DejaVuSans-50" transform="translate(2885.380859 0)"/>
     <use xlink:href="#DejaVuSans-6f" transform="translate(2942.058594 0)"/>
     <use xlink:href="#DejaVuSans-6c" transform="translate(3003.240234 0)"/>
     <use xlink:href="#DejaVuSans-69" transform="translate(3031.023438 0)"/>
     <use xlink:href="#DejaVuSans-63" transform="translate(3058.806641 0)"/>
     <use xlink:href="#DejaVuSans-69" transform="translate(3113.787109 0)"/>
     <use xlink:href="#DejaVuSans-65" transform="translate(3141.570312 0)"/>
     <use xlink:href="#DejaVuSans-73" transform="translate(3203.09375 0)"/>
    </g>
   </g>
   <g id="legend_1">
    <g id="patch_7">
     <path d="M 454.659375 379.48 
L 641 379.48 
Q 643 379.48 643 377.48 
L 643 319.7675 
Q 643 317.7675 641 317.7675 
L 454.659375 317.7675 
Q 452.659375 317.7675 452.659375 319.7675 
L 452.659375 377.48 
Q 452.659375 379.48 454.659375 379.48 
z
" style="fill: #ffffff; opacity: 0.8; stroke: #cccccc; stroke-linejoin: miter"/>
    </g>
    <g id="line2d_37">
     <path d="M 456.659375 325.865937 
L 466.659375 325.865937 
L 476.659375 325.865937 
" style="fill: none; stroke: #1f77b4; stroke-width: 1.5; stroke-linecap: square"/>
    </g>
    <g id="text_18">
     <!-- Initial Policy -->
     <g transform="translate(484.659375 329.365937) scale(0.1 -0.1)">
      <defs>
       <path id="DejaVuSans-49" d="M 628 4666 
L 1259 4666 
L 1259 0 
L 628 0 
L 628 4666 
z
" transform="scale(0.015625)"/>
      </defs>
      <use xlink:href="#DejaVuSans-49"/>
      <use xlink:href="#DejaVuSans-6e" transform="translate(29.492188 0)"/>
      <use xlink:href="#DejaVuSans-69" transform="translate(92.871094 0)"/>
      <use xlink:href="#DejaVuSans-74" transform="translate(120.654297 0)"/>
      <use xlink:href="#DejaVuSans-69" transform="translate(159.863281 0)"/>
      <use xlink:href="#DejaVuSans-61" transform="translate(187.646484 0)"/>
      <use xlink:href="#DejaVuSans-6c" transform="translate(248.925781 0)"/>
      <use xlink:href="#DejaVuSans-20" transform="translate(276.708984 0)"/>
      <use xlink:href="#DejaVuSans-50" transform="translate(308.496094 0)"/>
      <use xlink:href="#DejaVuSans-6f" transform="translate(365.173828 0)"/>
      <use xlink:href="#DejaVuSans-6c" transform="translate(426.355469 0)"/>
      <use xlink:href="#DejaVuSans-69" transform="translate(454.138672 0)"/>
      <use xlink:href="#DejaVuSans-63" transform="translate(481.921875 0)"/>
      <use xlink:href="#DejaVuSans-79" transform="translate(536.902344 0)"/>
     </g>
    </g>
    <g id="line2d_38">
     <path d="M 456.659375 340.544062 
L 466.659375 340.544062 
L 476.659375 340.544062 
" style="fill: none; stroke: #ff7f0e; stroke-width: 1.5; stroke-linecap: square"/>
    </g>
    <g id="text_19">
     <!-- Clipped Initial Policy -->
     <g transform="translate(484.659375 344.044062) scale(0.1 -0.1)">
      <defs>
       <path id="DejaVuSans-70" d="M 1159 525 
L 1159 -1331 
L 581 -1331 
L 581 3500 
L 1159 3500 
L 1159 2969 
Q 1341 3281 1617 3432 
Q 1894 3584 2278 3584 
Q 2916 3584 3314 3078 
Q 3713 2572 3713 1747 
Q 3713 922 3314 415 
Q 2916 -91 2278 -91 
Q 1894 -91 1617 61 
Q 1341 213 1159 525 
z
M 3116 1747 
Q 3116 2381 2855 2742 
Q 2594 3103 2138 3103 
Q 1681 3103 1420 2742 
Q 1159 2381 1159 1747 
Q 1159 1113 1420 752 
Q 1681 391 2138 391 
Q 2594 391 2855 752 
Q 3116 1113 3116 1747 
z
" transform="scale(0.015625)"/>
      </defs>
      <use xlink:href="#DejaVuSans-43"/>
      <use xlink:href="#DejaVuSans-6c" transform="translate(69.824219 0)"/>
      <use xlink:href="#DejaVuSans-69" transform="translate(97.607422 0)"/>
      <use xlink:href="#DejaVuSans-70" transform="translate(125.390625 0)"/>
      <use xlink:href="#DejaVuSans-70" transform="translate(188.867188 0)"/>
      <use xlink:href="#DejaVuSans-65" transform="translate(252.34375 0)"/>
      <use xlink:href="#DejaVuSans-64" transform="translate(313.867188 0)"/>
      <use xlink:href="#DejaVuSans-20" transform="translate(377.34375 0)"/>
      <use xlink:href="#DejaVuSans-49" transform="translate(409.130859 0)"/>
      <use xlink:href="#DejaVuSans-6e" transform="translate(438.623047 0)"/>
      <use xlink:href="#DejaVuSans-69" transform="translate(502.001953 0)"/>
      <use xlink:href="#DejaVuSans-74" transform="translate(529.785156 0)"/>
      <use xlink:href="#DejaVuSans-69" transform="translate(568.994141 0)"/>
      <use xlink:href="#DejaVuSans-61" transform="translate(596.777344 0)"/>
      <use xlink:href="#DejaVuSans-6c" transform="translate(658.056641 0)"/>
      <use xlink:href="#DejaVuSans-20" transform="translate(685.839844 0)"/>
      <use xlink:href="#DejaVuSans-50" transform="translate(717.626953 0)"/>
      <use xlink:href="#DejaVuSans-6f" transform="translate(774.304688 0)"/>
      <use xlink:href="#DejaVuSans-6c" transform="translate(835.486328 0)"/>
      <use xlink:href="#DejaVuSans-69" transform="translate(863.269531 0)"/>
      <use xlink:href="#DejaVuSans-63" transform="translate(891.052734 0)"/>
      <use xlink:href="#DejaVuSans-79" transform="translate(946.033203 0)"/>
     </g>
    </g>
    <g id="line2d_39">
     <path d="M 456.659375 355.222188 
L 466.659375 355.222188 
L 476.659375 355.222188 
" style="fill: none; stroke: #2ca02c; stroke-width: 1.5; stroke-linecap: square"/>
    </g>
    <g id="text_20">
     <!-- Best linear Policy (CMA-ES) -->
     <g transform="translate(484.659375 358.722188) scale(0.1 -0.1)">
      <defs>
       <path id="DejaVuSans-42" d="M 1259 2228 
L 1259 519 
L 2272 519 
Q 2781 519 3026 730 
Q 3272 941 3272 1375 
Q 3272 1813 3026 2020 
Q 2781 2228 2272 2228 
L 1259 2228 
z
M 1259 4147 
L 1259 2741 
L 2194 2741 
Q 2656 2741 2882 2914 
Q 3109 3088 3109 3444 
Q 3109 3797 2882 3972 
Q 2656 4147 2194 4147 
L 1259 4147 
z
M 628 4666 
L 2241 4666 
Q 2963 4666 3353 4366 
Q 3744 4066 3744 3513 
Q 3744 3084 3544 2831 
Q 3344 2578 2956 2516 
Q 3422 2416 3680 2098 
Q 3938 1781 3938 1306 
Q 3938 681 3513 340 
Q 3088 0 2303 0 
L 628 0 
L 628 4666 
z
" transform="scale(0.015625)"/>
       <path id="DejaVuSans-28" d="M 1984 4856 
Q 1566 4138 1362 3434 
Q 1159 2731 1159 2009 
Q 1159 1288 1364 580 
Q 1569 -128 1984 -844 
L 1484 -844 
Q 1016 -109 783 600 
Q 550 1309 550 2009 
Q 550 2706 781 3412 
Q 1013 4119 1484 4856 
L 1984 4856 
z
" transform="scale(0.015625)"/>
       <path id="DejaVuSans-4d" d="M 628 4666 
L 1569 4666 
L 2759 1491 
L 3956 4666 
L 4897 4666 
L 4897 0 
L 4281 0 
L 4281 4097 
L 3078 897 
L 2444 897 
L 1241 4097 
L 1241 0 
L 628 0 
L 628 4666 
z
" transform="scale(0.015625)"/>
       <path id="DejaVuSans-2d" d="M 313 2009 
L 1997 2009 
L 1997 1497 
L 313 1497 
L 313 2009 
z
" transform="scale(0.015625)"/>
       <path id="DejaVuSans-45" d="M 628 4666 
L 3578 4666 
L 3578 4134 
L 1259 4134 
L 1259 2753 
L 3481 2753 
L 3481 2222 
L 1259 2222 
L 1259 531 
L 3634 531 
L 3634 0 
L 628 0 
L 628 4666 
z
" transform="scale(0.015625)"/>
       <path id="DejaVuSans-53" d="M 3425 4513 
L 3425 3897 
Q 3066 4069 2747 4153 
Q 2428 4238 2131 4238 
Q 1616 4238 1336 4038 
Q 1056 3838 1056 3469 
Q 1056 3159 1242 3001 
Q 1428 2844 1947 2747 
L 2328 2669 
Q 3034 2534 3370 2195 
Q 3706 1856 3706 1288 
Q 3706 609 3251 259 
Q 2797 -91 1919 -91 
Q 1588 -91 1214 -16 
Q 841 59 441 206 
L 441 856 
Q 825 641 1194 531 
Q 1563 422 1919 422 
Q 2459 422 2753 634 
Q 3047 847 3047 1241 
Q 3047 1584 2836 1778 
Q 2625 1972 2144 2069 
L 1759 2144 
Q 1053 2284 737 2584 
Q 422 2884 422 3419 
Q 422 4038 858 4394 
Q 1294 4750 2059 4750 
Q 2388 4750 2728 4690 
Q 3069 4631 3425 4513 
z
" transform="scale(0.015625)"/>
       <path id="DejaVuSans-29" d="M 513 4856 
L 1013 4856 
Q 1481 4119 1714 3412 
Q 1947 2706 1947 2009 
Q 1947 1309 1714 600 
Q 1481 -109 1013 -844 
L 513 -844 
Q 928 -128 1133 580 
Q 1338 1288 1338 2009 
Q 1338 2731 1133 3434 
Q 928 4138 513 4856 
z
" transform="scale(0.015625)"/>
      </defs>
      <use xlink:href="#DejaVuSans-42"/>
      <use xlink:href="#DejaVuSans-65" transform="translate(68.603516 0)"/>
      <use xlink:href="#DejaVuSans-73" transform="translate(130.126953 0)"/>
      <use xlink:href="#DejaVuSans-74" transform="translate(182.226562 0)"/>
      <use xlink:href="#DejaVuSans-20" transform="translate(221.435547 0)"/>
      <use xlink:href="#DejaVuSans-6c" transform="translate(253.222656 0)"/>
      <use xlink:href="#DejaVuSans-69" transform="translate(281.005859 0)"/>
      <use xlink:href="#DejaVuSans-6e" transform="translate(308.789062 0)"/>
      <use xlink:href="#DejaVuSans-65" transform="translate(372.167969 0)"/>
      <use xlink:href="#DejaVuSans-61" transform="translate(433.691406 0)"/>
      <use xlink:href="#DejaVuSans-72" transform="translate(494.970703 0)"/>
      <use xlink:href="#DejaVuSans-20" transform="translate(536.083984 0)"/>
      <use xlink:href="#DejaVuSans-50" transform="translate(567.871094 0)"/>
      <use xlink:href="#DejaVuSans-6f" transform="translate(624.548828 0)"/>
      <use xlink:href="#DejaVuSans-6c" transform="translate(685.730469 0)"/>
      <use xlink:href="#DejaVuSans-69" transform="translate(713.513672 0)"/>
      <use xlink:href="#DejaVuSans-63" transform="translate(741.296875 0)"/>
      <use xlink:href="#DejaVuSans-79" transform="translate(796.277344 0)"/>
      <use xlink:href="#DejaVuSans-20" transform="translate(855.457031 0)"/>
      <use xlink:href="#DejaVuSans-28" transform="translate(887.244141 0)"/>
      <use xlink:href="#DejaVuSans-43" transform="translate(926.257812 0)"/>
      <use xlink:href="#DejaVuSans-4d" transform="translate(996.082031 0)"/>
      <use xlink:href="#DejaVuSans-41" transform="translate(1082.361328 0)"/>
      <use xlink:href="#DejaVuSans-2d" transform="translate(1148.519531 0)"/>
      <use xlink:href="#DejaVuSans-45" transform="translate(1184.603516 0)"/>
      <use xlink:href="#DejaVuSans-53" transform="translate(1247.787109 0)"/>
      <use xlink:href="#DejaVuSans-29" transform="translate(1311.263672 0)"/>
     </g>
    </g>
    <g id="line2d_40">
     <path d="M 456.659375 369.900312 
L 466.659375 369.900312 
L 476.659375 369.900312 
" style="fill: none; stroke: #d62728; stroke-width: 1.5; stroke-linecap: square"/>
    </g>
    <g id="text_21">
     <!-- Best quadratic Policy (CMA-ES) -->
     <g transform="translate(484.659375 373.400312) scale(0.1 -0.1)">
      <defs>
       <path id="DejaVuSans-71" d="M 947 1747 
Q 947 1113 1208 752 
Q 1469 391 1925 391 
Q 2381 391 2643 752 
Q 2906 1113 2906 1747 
Q 2906 2381 2643 2742 
Q 2381 3103 1925 3103 
Q 1469 3103 1208 2742 
Q 947 2381 947 1747 
z
M 2906 525 
Q 2725 213 2448 61 
Q 2172 -91 1784 -91 
Q 1150 -91 751 415 
Q 353 922 353 1747 
Q 353 2572 751 3078 
Q 1150 3584 1784 3584 
Q 2172 3584 2448 3432 
Q 2725 3281 2906 2969 
L 2906 3500 
L 3481 3500 
L 3481 -1331 
L 2906 -1331 
L 2906 525 
z
" transform="scale(0.015625)"/>
      </defs>
      <use xlink:href="#DejaVuSans-42"/>
      <use xlink:href="#DejaVuSans-65" transform="translate(68.603516 0)"/>
      <use xlink:href="#DejaVuSans-73" transform="translate(130.126953 0)"/>
      <use xlink:href="#DejaVuSans-74" transform="translate(182.226562 0)"/>
      <use xlink:href="#DejaVuSans-20" transform="translate(221.435547 0)"/>
      <use xlink:href="#DejaVuSans-71" transform="translate(253.222656 0)"/>
      <use xlink:href="#DejaVuSans-75" transform="translate(316.699219 0)"/>
      <use xlink:href="#DejaVuSans-61" transform="translate(380.078125 0)"/>
      <use xlink:href="#DejaVuSans-64" transform="translate(441.357422 0)"/>
      <use xlink:href="#DejaVuSans-72" transform="translate(504.833984 0)"/>
      <use xlink:href="#DejaVuSans-61" transform="translate(545.947266 0)"/>
      <use xlink:href="#DejaVuSans-74" transform="translate(607.226562 0)"/>
      <use xlink:href="#DejaVuSans-69" transform="translate(646.435547 0)"/>
      <use xlink:href="#DejaVuSans-63" transform="translate(674.21875 0)"/>
      <use xlink:href="#DejaVuSans-20" transform="translate(729.199219 0)"/>
      <use xlink:href="#DejaVuSans-50" transform="translate(760.986328 0)"/>
      <use xlink:href="#DejaVuSans-6f" transform="translate(817.664062 0)"/>
      <use xlink:href="#DejaVuSans-6c" transform="translate(878.845703 0)"/>
      <use xlink:href="#DejaVuSans-69" transform="translate(906.628906 0)"/>
      <use xlink:href="#DejaVuSans-63" transform="translate(934.412109 0)"/>
      <use xlink:href="#DejaVuSans-79" transform="translate(989.392578 0)"/>
      <use xlink:href="#DejaVuSans-20" transform="translate(1048.572266 0)"/>
      <use xlink:href="#DejaVuSans-28" transform="translate(1080.359375 0)"/>
      <use xlink:href="#DejaVuSans-43" transform="translate(1119.373047 0)"/>
      <use xlink:href="#DejaVuSans-4d" transform="translate(1189.197266 0)"/>
      <use xlink:href="#DejaVuSans-41" transform="translate(1275.476562 0)"/>
      <use xlink:href="#DejaVuSans-2d" transform="translate(1341.634766 0)"/>
      <use xlink:href="#DejaVuSans-45" transform="translate(1377.71875 0)"/>
      <use xlink:href="#DejaVuSans-53" transform="translate(1440.902344 0)"/>
      <use xlink:href="#DejaVuSans-29" transform="translate(1504.378906 0)"/>
     </g>
    </g>
   </g>
  </g>
 </g>
 <defs>
  <clipPath id="pb17948b6e0">
   <rect x="90" y="51.84" width="558" height="332.64"/>
  </clipPath>
 </defs>
</svg>
