<?xml version="1.0" encoding="utf-8" standalone="no"?>
<!DOCTYPE svg PUBLIC "-//W3C//DTD SVG 1.1//EN"
  "http://www.w3.org/Graphics/SVG/1.1/DTD/svg11.dtd">
<svg xmlns:xlink="http://www.w3.org/1999/xlink" width="720pt" height="432pt" viewBox="0 0 720 432" xmlns="http://www.w3.org/2000/svg" version="1.1">
 <metadata>
  <rdf:RDF xmlns:dc="http://purl.org/dc/elements/1.1/" xmlns:cc="http://creativecommons.org/ns#" xmlns:rdf="http://www.w3.org/1999/02/22-rdf-syntax-ns#">
   <cc:Work>
    <dc:type rdf:resource="http://purl.org/dc/dcmitype/StillImage"/>
    <dc:date>2025-10-30T22:28:31.188315</dc:date>
    <dc:format>image/svg+xml</dc:format>
    <dc:creator>
     <cc:Agent>
      <dc:title>Matplotlib v3.10.6, https://matplotlib.org/</dc:title>
     </cc:Agent>
    </dc:creator>
   </cc:Work>
  </rdf:RDF>
 </metadata>
 <defs>
  <style type="text/css">*{stroke-linejoin: round; stroke-linecap: butt}</style>
 </defs>
 <g id="figure_1">
  <g id="patch_1">
   <path d="M 0 432 
L 720 432 
L 720 0 
L 0 0 
z
" style="fill: #ffffff"/>
  </g>
  <g id="axes_1">
   <g id="patch_2">
    <path d="M 90 384.48 
L 648 384.48 
L 648 51.84 
L 90 51.84 
z
" style="fill: #ffffff"/>
   </g>
   <g id="matplotlib.axis_1">
    <g id="xtick_1">
     <g id="line2d_1">
      <path d="M 125.368429 384.48 
L 125.368429 51.84 
" clip-path="url(#p6114d1e2f1)" style="fill: none; stroke: #b0b0b0; stroke-width: 0.8; stroke-linecap: square"/>
     </g>
     <g id="line2d_2">
      <defs>
       <path id="m1992a968f9" d="M 0 0 
L 0 3.5 
" style="stroke: #000000; stroke-width: 0.8"/>
      </defs>
      <g>
       <use xlink:href="#m1992a968f9" x="125.368429" y="384.48" style="stroke: #000000; stroke-width: 0.8"/>
      </g>
     </g>
     <g id="text_1">
      <!-- −0.010 -->
      <g transform="translate(106.864523 399.078438) scale(0.1 -0.1)">
       <defs>
        <path id="DejaVuSans-2212" d="M 678 2272 
L 4684 2272 
L 4684 1741 
L 678 1741 
L 678 2272 
z
" transform="scale(0.015625)"/>
        <path id="DejaVuSans-30" d="M 2034 4250 
Q 1547 4250 1301 3770 
Q 1056 3291 1056 2328 
Q 1056 1369 1301 889 
Q 1547 409 2034 409 
Q 2525 409 2770 889 
Q 3016 1369 3016 2328 
Q 3016 3291 2770 3770 
Q 2525 4250 2034 4250 
z
M 2034 4750 
Q 2819 4750 3233 4129 
Q 3647 3509 3647 2328 
Q 3647 1150 3233 529 
Q 2819 -91 2034 -91 
Q 1250 -91 836 529 
Q 422 1150 422 2328 
Q 422 3509 836 4129 
Q 1250 4750 2034 4750 
z
" transform="scale(0.015625)"/>
        <path id="DejaVuSans-2e" d="M 684 794 
L 1344 794 
L 1344 0 
L 684 0 
L 684 794 
z
" transform="scale(0.015625)"/>
        <path id="DejaVuSans-31" d="M 794 531 
L 1825 531 
L 1825 4091 
L 703 3866 
L 703 4441 
L 1819 4666 
L 2450 4666 
L 2450 531 
L 3481 531 
L 3481 0 
L 794 0 
L 794 531 
z
" transform="scale(0.015625)"/>
       </defs>
       <use xlink:href="#DejaVuSans-2212"/>
       <use xlink:href="#DejaVuSans-30" transform="translate(83.789062 0)"/>
       <use xlink:href="#DejaVuSans-2e" transform="translate(147.412109 0)"/>
       <use xlink:href="#DejaVuSans-30" transform="translate(179.199219 0)"/>
       <use xlink:href="#DejaVuSans-31" transform="translate(242.822266 0)"/>
       <use xlink:href="#DejaVuSans-30" transform="translate(306.445312 0)"/>
      </g>
     </g>
    </g>
    <g id="xtick_2">
     <g id="line2d_3">
      <path d="M 187.708536 384.48 
L 187.708536 51.84 
" clip-path="url(#p6114d1e2f1)" style="fill: none; stroke: #b0b0b0; stroke-width: 0.8; stroke-linecap: square"/>
     </g>
     <g id="line2d_4">
      <g>
       <use xlink:href="#m1992a968f9" x="187.708536" y="384.48" style="stroke: #000000; stroke-width: 0.8"/>
      </g>
     </g>
     <g id="text_2">
      <!-- −0.005 -->
      <g transform="translate(169.20463 399.078438) scale(0.1 -0.1)">
       <defs>
        <path id="DejaVuSans-35" d="M 691 4666 
L 3169 4666 
L 3169 4134 
L 1269 4134 
L 1269 2991 
Q 1406 3038 1543 3061 
Q 1681 3084 1819 3084 
Q 2600 3084 3056 2656 
Q 3513 2228 3513 1497 
Q 3513 744 3044 326 
Q 2575 -91 1722 -91 
Q 1428 -91 1123 -41 
Q 819 9 494 109 
L 494 744 
Q 775 591 1075 516 
Q 1375 441 1709 441 
Q 2250 441 2565 725 
Q 2881 1009 2881 1497 
Q 2881 1984 2565 2268 
Q 2250 2553 1709 2553 
Q 1456 2553 1204 2497 
Q 953 2441 691 2322 
L 691 4666 
z
" transform="scale(0.015625)"/>
       </defs>
       <use xlink:href="#DejaVuSans-2212"/>
       <use xlink:href="#DejaVuSans-30" transform="translate(83.789062 0)"/>
       <use xlink:href="#DejaVuSans-2e" transform="translate(147.412109 0)"/>
       <use xlink:href="#DejaVuSans-30" transform="translate(179.199219 0)"/>
       <use xlink:href="#DejaVuSans-30" transform="translate(242.822266 0)"/>
       <use xlink:href="#DejaVuSans-35" transform="translate(306.445312 0)"/>
      </g>
     </g>
    </g>
    <g id="xtick_3">
     <g id="line2d_5">
      <path d="M 250.048643 384.48 
L 250.048643 51.84 
" clip-path="url(#p6114d1e2f1)" style="fill: none; stroke: #b0b0b0; stroke-width: 0.8; stroke-linecap: square"/>
     </g>
     <g id="line2d_6">
      <g>
       <use xlink:href="#m1992a968f9" x="250.048643" y="384.48" style="stroke: #000000; stroke-width: 0.8"/>
      </g>
     </g>
     <g id="text_3">
      <!-- 0.000 -->
      <g transform="translate(235.734581 399.078438) scale(0.1 -0.1)">
       <use xlink:href="#DejaVuSans-30"/>
       <use xlink:href="#DejaVuSans-2e" transform="translate(63.623047 0)"/>
       <use xlink:href="#DejaVuSans-30" transform="translate(95.410156 0)"/>
       <use xlink:href="#DejaVuSans-30" transform="translate(159.033203 0)"/>
       <use xlink:href="#DejaVuSans-30" transform="translate(222.65625 0)"/>
      </g>
     </g>
    </g>
    <g id="xtick_4">
     <g id="line2d_7">
      <path d="M 312.388751 384.48 
L 312.388751 51.84 
" clip-path="url(#p6114d1e2f1)" style="fill: none; stroke: #b0b0b0; stroke-width: 0.8; stroke-linecap: square"/>
     </g>
     <g id="line2d_8">
      <g>
       <use xlink:href="#m1992a968f9" x="312.388751" y="384.48" style="stroke: #000000; stroke-width: 0.8"/>
      </g>
     </g>
     <g id="text_4">
      <!-- 0.005 -->
      <g transform="translate(298.074688 399.078438) scale(0.1 -0.1)">
       <use xlink:href="#DejaVuSans-30"/>
       <use xlink:href="#DejaVuSans-2e" transform="translate(63.623047 0)"/>
       <use xlink:href="#DejaVuSans-30" transform="translate(95.410156 0)"/>
       <use xlink:href="#DejaVuSans-30" transform="translate(159.033203 0)"/>
       <use xlink:href="#DejaVuSans-35" transform="translate(222.65625 0)"/>
      </g>
     </g>
    </g>
    <g id="xtick_5">
     <g id="line2d_9">
      <path d="M 374.728858 384.48 
L 374.728858 51.84 
" clip-path="url(#p6114d1e2f1)" style="fill: none; stroke: #b0b0b0; stroke-width: 0.8; stroke-linecap: square"/>
     </g>
     <g id="line2d_10">
      <g>
       <use xlink:href="#m1992a968f9" x="374.728858" y="384.48" style="stroke: #000000; stroke-width: 0.8"/>
      </g>
     </g>
     <g id="text_5">
      <!-- 0.010 -->
      <g transform="translate(360.414795 399.078438) scale(0.1 -0.1)">
       <use xlink:href="#DejaVuSans-30"/>
       <use xlink:href="#DejaVuSans-2e" transform="translate(63.623047 0)"/>
       <use xlink:href="#DejaVuSans-30" transform="translate(95.410156 0)"/>
       <use xlink:href="#DejaVuSans-31" transform="translate(159.033203 0)"/>
       <use xlink:href="#DejaVuSans-30" transform="translate(222.65625 0)"/>
      </g>
     </g>
    </g>
    <g id="xtick_6">
     <g id="line2d_11">
      <path d="M 437.068965 384.48 
L 437.068965 51.84 
" clip-path="url(#p6114d1e2f1)" style="fill: none; stroke: #b0b0b0; stroke-width: 0.8; stroke-linecap: square"/>
     </g>
     <g id="line2d_12">
      <g>
       <use xlink:href="#m1992a968f9" x="437.068965" y="384.48" style="stroke: #000000; stroke-width: 0.8"/>
      </g>
     </g>
     <g id="text_6">
      <!-- 0.015 -->
      <g transform="translate(422.754903 399.078438) scale(0.1 -0.1)">
       <use xlink:href="#DejaVuSans-30"/>
       <use xlink:href="#DejaVuSans-2e" transform="translate(63.623047 0)"/>
       <use xlink:href="#DejaVuSans-30" transform="translate(95.410156 0)"/>
       <use xlink:href="#DejaVuSans-31" transform="translate(159.033203 0)"/>
       <use xlink:href="#DejaVuSans-35" transform="translate(222.65625 0)"/>
      </g>
     </g>
    </g>
    <g id="xtick_7">
     <g id="line2d_13">
      <path d="M 499.409072 384.48 
L 499.409072 51.84 
" clip-path="url(#p6114d1e2f1)" style="fill: none; stroke: #b0b0b0; stroke-width: 0.8; stroke-linecap: square"/>
     </g>
     <g id="line2d_14">
      <g>
       <use xlink:href="#m1992a968f9" x="499.409072" y="384.48" style="stroke: #000000; stroke-width: 0.8"/>
      </g>
     </g>
     <g id="text_7">
      <!-- 0.020 -->
      <g transform="translate(485.09501 399.078438) scale(0.1 -0.1)">
       <defs>
        <path id="DejaVuSans-32" d="M 1228 531 
L 3431 531 
L 3431 0 
L 469 0 
L 469 531 
Q 828 903 1448 1529 
Q 2069 2156 2228 2338 
Q 2531 2678 2651 2914 
Q 2772 3150 2772 3378 
Q 2772 3750 2511 3984 
Q 2250 4219 1831 4219 
Q 1534 4219 1204 4116 
Q 875 4013 500 3803 
L 500 4441 
Q 881 4594 1212 4672 
Q 1544 4750 1819 4750 
Q 2544 4750 2975 4387 
Q 3406 4025 3406 3419 
Q 3406 3131 3298 2873 
Q 3191 2616 2906 2266 
Q 2828 2175 2409 1742 
Q 1991 1309 1228 531 
z
" transform="scale(0.015625)"/>
       </defs>
       <use xlink:href="#DejaVuSans-30"/>
       <use xlink:href="#DejaVuSans-2e" transform="translate(63.623047 0)"/>
       <use xlink:href="#DejaVuSans-30" transform="translate(95.410156 0)"/>
       <use xlink:href="#DejaVuSans-32" transform="translate(159.033203 0)"/>
       <use xlink:href="#DejaVuSans-30" transform="translate(222.65625 0)"/>
      </g>
     </g>
    </g>
    <g id="xtick_8">
     <g id="line2d_15">
      <path d="M 561.74918 384.48 
L 561.74918 51.84 
" clip-path="url(#p6114d1e2f1)" style="fill: none; stroke: #b0b0b0; stroke-width: 0.8; stroke-linecap: square"/>
     </g>
     <g id="line2d_16">
      <g>
       <use xlink:href="#m1992a968f9" x="561.74918" y="384.48" style="stroke: #000000; stroke-width: 0.8"/>
      </g>
     </g>
     <g id="text_8">
      <!-- 0.025 -->
      <g transform="translate(547.435117 399.078438) scale(0.1 -0.1)">
       <use xlink:href="#DejaVuSans-30"/>
       <use xlink:href="#DejaVuSans-2e" transform="translate(63.623047 0)"/>
       <use xlink:href="#DejaVuSans-30" transform="translate(95.410156 0)"/>
       <use xlink:href="#DejaVuSans-32" transform="translate(159.033203 0)"/>
       <use xlink:href="#DejaVuSans-35" transform="translate(222.65625 0)"/>
      </g>
     </g>
    </g>
    <g id="xtick_9">
     <g id="line2d_17">
      <path d="M 624.089287 384.48 
L 624.089287 51.84 
" clip-path="url(#p6114d1e2f1)" style="fill: none; stroke: #b0b0b0; stroke-width: 0.8; stroke-linecap: square"/>
     </g>
     <g id="line2d_18">
      <g>
       <use xlink:href="#m1992a968f9" x="624.089287" y="384.48" style="stroke: #000000; stroke-width: 0.8"/>
      </g>
     </g>
     <g id="text_9">
      <!-- 0.030 -->
      <g transform="translate(609.775224 399.078438) scale(0.1 -0.1)">
       <defs>
        <path id="DejaVuSans-33" d="M 2597 2516 
Q 3050 2419 3304 2112 
Q 3559 1806 3559 1356 
Q 3559 666 3084 287 
Q 2609 -91 1734 -91 
Q 1441 -91 1130 -33 
Q 819 25 488 141 
L 488 750 
Q 750 597 1062 519 
Q 1375 441 1716 441 
Q 2309 441 2620 675 
Q 2931 909 2931 1356 
Q 2931 1769 2642 2001 
Q 2353 2234 1838 2234 
L 1294 2234 
L 1294 2753 
L 1863 2753 
Q 2328 2753 2575 2939 
Q 2822 3125 2822 3475 
Q 2822 3834 2567 4026 
Q 2313 4219 1838 4219 
Q 1578 4219 1281 4162 
Q 984 4106 628 3988 
L 628 4550 
Q 988 4650 1302 4700 
Q 1616 4750 1894 4750 
Q 2613 4750 3031 4423 
Q 3450 4097 3450 3541 
Q 3450 3153 3228 2886 
Q 3006 2619 2597 2516 
z
" transform="scale(0.015625)"/>
       </defs>
       <use xlink:href="#DejaVuSans-30"/>
       <use xlink:href="#DejaVuSans-2e" transform="translate(63.623047 0)"/>
       <use xlink:href="#DejaVuSans-30" transform="translate(95.410156 0)"/>
       <use xlink:href="#DejaVuSans-33" transform="translate(159.033203 0)"/>
       <use xlink:href="#DejaVuSans-30" transform="translate(222.65625 0)"/>
      </g>
     </g>
    </g>
    <g id="text_10">
     <!-- Average Reward -->
     <g transform="translate(328.257031 412.756563) scale(0.1 -0.1)">
      <defs>
       <path id="DejaVuSans-41" d="M 2188 4044 
L 1331 1722 
L 3047 1722 
L 2188 4044 
z
M 1831 4666 
L 2547 4666 
L 4325 0 
L 3669 0 
L 3244 1197 
L 1141 1197 
L 716 0 
L 50 0 
L 1831 4666 
z
" transform="scale(0.015625)"/>
       <path id="DejaVuSans-76" d="M 191 3500 
L 800 3500 
L 1894 563 
L 2988 3500 
L 3597 3500 
L 2284 0 
L 1503 0 
L 191 3500 
z
" transform="scale(0.015625)"/>
       <path id="DejaVuSans-65" d="M 3597 1894 
L 3597 1613 
L 953 1613 
Q 991 1019 1311 708 
Q 1631 397 2203 397 
Q 2534 397 2845 478 
Q 3156 559 3463 722 
L 3463 178 
Q 3153 47 2828 -22 
Q 2503 -91 2169 -91 
Q 1331 -91 842 396 
Q 353 884 353 1716 
Q 353 2575 817 3079 
Q 1281 3584 2069 3584 
Q 2775 3584 3186 3129 
Q 3597 2675 3597 1894 
z
M 3022 2063 
Q 3016 2534 2758 2815 
Q 2500 3097 2075 3097 
Q 1594 3097 1305 2825 
Q 1016 2553 972 2059 
L 3022 2063 
z
" transform="scale(0.015625)"/>
       <path id="DejaVuSans-72" d="M 2631 2963 
Q 2534 3019 2420 3045 
Q 2306 3072 2169 3072 
Q 1681 3072 1420 2755 
Q 1159 2438 1159 1844 
L 1159 0 
L 581 0 
L 581 3500 
L 1159 3500 
L 1159 2956 
Q 1341 3275 1631 3429 
Q 1922 3584 2338 3584 
Q 2397 3584 2469 3576 
Q 2541 3569 2628 3553 
L 2631 2963 
z
" transform="scale(0.015625)"/>
       <path id="DejaVuSans-61" d="M 2194 1759 
Q 1497 1759 1228 1600 
Q 959 1441 959 1056 
Q 959 750 1161 570 
Q 1363 391 1709 391 
Q 2188 391 2477 730 
Q 2766 1069 2766 1631 
L 2766 1759 
L 2194 1759 
z
M 3341 1997 
L 3341 0 
L 2766 0 
L 2766 531 
Q 2569 213 2275 61 
Q 1981 -91 1556 -91 
Q 1019 -91 701 211 
Q 384 513 384 1019 
Q 384 1609 779 1909 
Q 1175 2209 1959 2209 
L 2766 2209 
L 2766 2266 
Q 2766 2663 2505 2880 
Q 2244 3097 1772 3097 
Q 1472 3097 1187 3025 
Q 903 2953 641 2809 
L 641 3341 
Q 956 3463 1253 3523 
Q 1550 3584 1831 3584 
Q 2591 3584 2966 3190 
Q 3341 2797 3341 1997 
z
" transform="scale(0.015625)"/>
       <path id="DejaVuSans-67" d="M 2906 1791 
Q 2906 2416 2648 2759 
Q 2391 3103 1925 3103 
Q 1463 3103 1205 2759 
Q 947 2416 947 1791 
Q 947 1169 1205 825 
Q 1463 481 1925 481 
Q 2391 481 2648 825 
Q 2906 1169 2906 1791 
z
M 3481 434 
Q 3481 -459 3084 -895 
Q 2688 -1331 1869 -1331 
Q 1566 -1331 1297 -1286 
Q 1028 -1241 775 -1147 
L 775 -588 
Q 1028 -725 1275 -790 
Q 1522 -856 1778 -856 
Q 2344 -856 2625 -561 
Q 2906 -266 2906 331 
L 2906 616 
Q 2728 306 2450 153 
Q 2172 0 1784 0 
Q 1141 0 747 490 
Q 353 981 353 1791 
Q 353 2603 747 3093 
Q 1141 3584 1784 3584 
Q 2172 3584 2450 3431 
Q 2728 3278 2906 2969 
L 2906 3500 
L 3481 3500 
L 3481 434 
z
" transform="scale(0.015625)"/>
       <path id="DejaVuSans-20" transform="scale(0.015625)"/>
       <path id="DejaVuSans-52" d="M 2841 2188 
Q 3044 2119 3236 1894 
Q 3428 1669 3622 1275 
L 4263 0 
L 3584 0 
L 2988 1197 
Q 2756 1666 2539 1819 
Q 2322 1972 1947 1972 
L 1259 1972 
L 1259 0 
L 628 0 
L 628 4666 
L 2053 4666 
Q 2853 4666 3247 4331 
Q 3641 3997 3641 3322 
Q 3641 2881 3436 2590 
Q 3231 2300 2841 2188 
z
M 1259 4147 
L 1259 2491 
L 2053 2491 
Q 2509 2491 2742 2702 
Q 2975 2913 2975 3322 
Q 2975 3731 2742 3939 
Q 2509 4147 2053 4147 
L 1259 4147 
z
" transform="scale(0.015625)"/>
       <path id="DejaVuSans-77" d="M 269 3500 
L 844 3500 
L 1563 769 
L 2278 3500 
L 2956 3500 
L 3675 769 
L 4391 3500 
L 4966 3500 
L 4050 0 
L 3372 0 
L 2619 2869 
L 1863 0 
L 1184 0 
L 269 3500 
z
" transform="scale(0.015625)"/>
       <path id="DejaVuSans-64" d="M 2906 2969 
L 2906 4863 
L 3481 4863 
L 3481 0 
L 2906 0 
L 2906 525 
Q 2725 213 2448 61 
Q 2172 -91 1784 -91 
Q 1150 -91 751 415 
Q 353 922 353 1747 
Q 353 2572 751 3078 
Q 1150 3584 1784 3584 
Q 2172 3584 2448 3432 
Q 2725 3281 2906 2969 
z
M 947 1747 
Q 947 1113 1208 752 
Q 1469 391 1925 391 
Q 2381 391 2643 752 
Q 2906 1113 2906 1747 
Q 2906 2381 2643 2742 
Q 2381 3103 1925 3103 
Q 1469 3103 1208 2742 
Q 947 2381 947 1747 
z
" transform="scale(0.015625)"/>
      </defs>
      <use xlink:href="#DejaVuSans-41"/>
      <use xlink:href="#DejaVuSans-76" transform="translate(62.533203 0)"/>
      <use xlink:href="#DejaVuSans-65" transform="translate(121.712891 0)"/>
      <use xlink:href="#DejaVuSans-72" transform="translate(183.236328 0)"/>
      <use xlink:href="#DejaVuSans-61" transform="translate(224.349609 0)"/>
      <use xlink:href="#DejaVuSans-67" transform="translate(285.628906 0)"/>
      <use xlink:href="#DejaVuSans-65" transform="translate(349.105469 0)"/>
      <use xlink:href="#DejaVuSans-20" transform="translate(410.628906 0)"/>
      <use xlink:href="#DejaVuSans-52" transform="translate(442.416016 0)"/>
      <use xlink:href="#DejaVuSans-65" transform="translate(507.398438 0)"/>
      <use xlink:href="#DejaVuSans-77" transform="translate(568.921875 0)"/>
      <use xlink:href="#DejaVuSans-61" transform="translate(650.708984 0)"/>
      <use xlink:href="#DejaVuSans-72" transform="translate(711.988281 0)"/>
      <use xlink:href="#DejaVuSans-64" transform="translate(751.351562 0)"/>
     </g>
    </g>
   </g>
   <g id="matplotlib.axis_2">
    <g id="ytick_1">
     <g id="line2d_19">
      <path d="M 90 369.390243 
L 648 369.390243 
" clip-path="url(#p6114d1e2f1)" style="fill: none; stroke: #b0b0b0; stroke-width: 0.8; stroke-linecap: square"/>
     </g>
     <g id="line2d_20">
      <defs>
       <path id="m19e7bfa908" d="M 0 0 
L -3.5 0 
" style="stroke: #000000; stroke-width: 0.8"/>
      </defs>
      <g>
       <use xlink:href="#m19e7bfa908" x="90" y="369.390243" style="stroke: #000000; stroke-width: 0.8"/>
      </g>
     </g>
     <g id="text_11">
      <!-- 0.0 -->
      <g transform="translate(67.096875 373.189462) scale(0.1 -0.1)">
       <use xlink:href="#DejaVuSans-30"/>
       <use xlink:href="#DejaVuSans-2e" transform="translate(63.623047 0)"/>
       <use xlink:href="#DejaVuSans-30" transform="translate(95.410156 0)"/>
      </g>
     </g>
    </g>
    <g id="ytick_2">
     <g id="line2d_21">
      <path d="M 90 308.904194 
L 648 308.904194 
" clip-path="url(#p6114d1e2f1)" style="fill: none; stroke: #b0b0b0; stroke-width: 0.8; stroke-linecap: square"/>
     </g>
     <g id="line2d_22">
      <g>
       <use xlink:href="#m19e7bfa908" x="90" y="308.904194" style="stroke: #000000; stroke-width: 0.8"/>
      </g>
     </g>
     <g id="text_12">
      <!-- 0.2 -->
      <g transform="translate(67.096875 312.703413) scale(0.1 -0.1)">
       <use xlink:href="#DejaVuSans-30"/>
       <use xlink:href="#DejaVuSans-2e" transform="translate(63.623047 0)"/>
       <use xlink:href="#DejaVuSans-32" transform="translate(95.410156 0)"/>
      </g>
     </g>
    </g>
    <g id="ytick_3">
     <g id="line2d_23">
      <path d="M 90 248.418146 
L 648 248.418146 
" clip-path="url(#p6114d1e2f1)" style="fill: none; stroke: #b0b0b0; stroke-width: 0.8; stroke-linecap: square"/>
     </g>
     <g id="line2d_24">
      <g>
       <use xlink:href="#m19e7bfa908" x="90" y="248.418146" style="stroke: #000000; stroke-width: 0.8"/>
      </g>
     </g>
     <g id="text_13">
      <!-- 0.4 -->
      <g transform="translate(67.096875 252.217365) scale(0.1 -0.1)">
       <defs>
        <path id="DejaVuSans-34" d="M 2419 4116 
L 825 1625 
L 2419 1625 
L 2419 4116 
z
M 2253 4666 
L 3047 4666 
L 3047 1625 
L 3713 1625 
L 3713 1100 
L 3047 1100 
L 3047 0 
L 2419 0 
L 2419 1100 
L 313 1100 
L 313 1709 
L 2253 4666 
z
" transform="scale(0.015625)"/>
       </defs>
       <use xlink:href="#DejaVuSans-30"/>
       <use xlink:href="#DejaVuSans-2e" transform="translate(63.623047 0)"/>
       <use xlink:href="#DejaVuSans-34" transform="translate(95.410156 0)"/>
      </g>
     </g>
    </g>
    <g id="ytick_4">
     <g id="line2d_25">
      <path d="M 90 187.932097 
L 648 187.932097 
" clip-path="url(#p6114d1e2f1)" style="fill: none; stroke: #b0b0b0; stroke-width: 0.8; stroke-linecap: square"/>
     </g>
     <g id="line2d_26">
      <g>
       <use xlink:href="#m19e7bfa908" x="90" y="187.932097" style="stroke: #000000; stroke-width: 0.8"/>
      </g>
     </g>
     <g id="text_14">
      <!-- 0.6 -->
      <g transform="translate(67.096875 191.731316) scale(0.1 -0.1)">
       <defs>
        <path id="DejaVuSans-36" d="M 2113 2584 
Q 1688 2584 1439 2293 
Q 1191 2003 1191 1497 
Q 1191 994 1439 701 
Q 1688 409 2113 409 
Q 2538 409 2786 701 
Q 3034 994 3034 1497 
Q 3034 2003 2786 2293 
Q 2538 2584 2113 2584 
z
M 3366 4563 
L 3366 3988 
Q 3128 4100 2886 4159 
Q 2644 4219 2406 4219 
Q 1781 4219 1451 3797 
Q 1122 3375 1075 2522 
Q 1259 2794 1537 2939 
Q 1816 3084 2150 3084 
Q 2853 3084 3261 2657 
Q 3669 2231 3669 1497 
Q 3669 778 3244 343 
Q 2819 -91 2113 -91 
Q 1303 -91 875 529 
Q 447 1150 447 2328 
Q 447 3434 972 4092 
Q 1497 4750 2381 4750 
Q 2619 4750 2861 4703 
Q 3103 4656 3366 4563 
z
" transform="scale(0.015625)"/>
       </defs>
       <use xlink:href="#DejaVuSans-30"/>
       <use xlink:href="#DejaVuSans-2e" transform="translate(63.623047 0)"/>
       <use xlink:href="#DejaVuSans-36" transform="translate(95.410156 0)"/>
      </g>
     </g>
    </g>
    <g id="ytick_5">
     <g id="line2d_27">
      <path d="M 90 127.446049 
L 648 127.446049 
" clip-path="url(#p6114d1e2f1)" style="fill: none; stroke: #b0b0b0; stroke-width: 0.8; stroke-linecap: square"/>
     </g>
     <g id="line2d_28">
      <g>
       <use xlink:href="#m19e7bfa908" x="90" y="127.446049" style="stroke: #000000; stroke-width: 0.8"/>
      </g>
     </g>
     <g id="text_15">
      <!-- 0.8 -->
      <g transform="translate(67.096875 131.245267) scale(0.1 -0.1)">
       <defs>
        <path id="DejaVuSans-38" d="M 2034 2216 
Q 1584 2216 1326 1975 
Q 1069 1734 1069 1313 
Q 1069 891 1326 650 
Q 1584 409 2034 409 
Q 2484 409 2743 651 
Q 3003 894 3003 1313 
Q 3003 1734 2745 1975 
Q 2488 2216 2034 2216 
z
M 1403 2484 
Q 997 2584 770 2862 
Q 544 3141 544 3541 
Q 544 4100 942 4425 
Q 1341 4750 2034 4750 
Q 2731 4750 3128 4425 
Q 3525 4100 3525 3541 
Q 3525 3141 3298 2862 
Q 3072 2584 2669 2484 
Q 3125 2378 3379 2068 
Q 3634 1759 3634 1313 
Q 3634 634 3220 271 
Q 2806 -91 2034 -91 
Q 1263 -91 848 271 
Q 434 634 434 1313 
Q 434 1759 690 2068 
Q 947 2378 1403 2484 
z
M 1172 3481 
Q 1172 3119 1398 2916 
Q 1625 2713 2034 2713 
Q 2441 2713 2670 2916 
Q 2900 3119 2900 3481 
Q 2900 3844 2670 4047 
Q 2441 4250 2034 4250 
Q 1625 4250 1398 4047 
Q 1172 3844 1172 3481 
z
" transform="scale(0.015625)"/>
       </defs>
       <use xlink:href="#DejaVuSans-30"/>
       <use xlink:href="#DejaVuSans-2e" transform="translate(63.623047 0)"/>
       <use xlink:href="#DejaVuSans-38" transform="translate(95.410156 0)"/>
      </g>
     </g>
    </g>
    <g id="ytick_6">
     <g id="line2d_29">
      <path d="M 90 66.96 
L 648 66.96 
" clip-path="url(#p6114d1e2f1)" style="fill: none; stroke: #b0b0b0; stroke-width: 0.8; stroke-linecap: square"/>
     </g>
     <g id="line2d_30">
      <g>
       <use xlink:href="#m19e7bfa908" x="90" y="66.96" style="stroke: #000000; stroke-width: 0.8"/>
      </g>
     </g>
     <g id="text_16">
      <!-- 1.0 -->
      <g transform="translate(67.096875 70.759219) scale(0.1 -0.1)">
       <use xlink:href="#DejaVuSans-31"/>
       <use xlink:href="#DejaVuSans-2e" transform="translate(63.623047 0)"/>
       <use xlink:href="#DejaVuSans-30" transform="translate(95.410156 0)"/>
      </g>
     </g>
    </g>
    <g id="text_17">
     <!-- Cumulative Density -->
     <g transform="translate(61.017187 267.295156) rotate(-90) scale(0.1 -0.1)">
      <defs>
       <path id="DejaVuSans-43" d="M 4122 4306 
L 4122 3641 
Q 3803 3938 3442 4084 
Q 3081 4231 2675 4231 
Q 1875 4231 1450 3742 
Q 1025 3253 1025 2328 
Q 1025 1406 1450 917 
Q 1875 428 2675 428 
Q 3081 428 3442 575 
Q 3803 722 4122 1019 
L 4122 359 
Q 3791 134 3420 21 
Q 3050 -91 2638 -91 
Q 1578 -91 968 557 
Q 359 1206 359 2328 
Q 359 3453 968 4101 
Q 1578 4750 2638 4750 
Q 3056 4750 3426 4639 
Q 3797 4528 4122 4306 
z
" transform="scale(0.015625)"/>
       <path id="DejaVuSans-75" d="M 544 1381 
L 544 3500 
L 1119 3500 
L 1119 1403 
Q 1119 906 1312 657 
Q 1506 409 1894 409 
Q 2359 409 2629 706 
Q 2900 1003 2900 1516 
L 2900 3500 
L 3475 3500 
L 3475 0 
L 2900 0 
L 2900 538 
Q 2691 219 2414 64 
Q 2138 -91 1772 -91 
Q 1169 -91 856 284 
Q 544 659 544 1381 
z
M 1991 3584 
L 1991 3584 
z
" transform="scale(0.015625)"/>
       <path id="DejaVuSans-6d" d="M 3328 2828 
Q 3544 3216 3844 3400 
Q 4144 3584 4550 3584 
Q 5097 3584 5394 3201 
Q 5691 2819 5691 2113 
L 5691 0 
L 5113 0 
L 5113 2094 
Q 5113 2597 4934 2840 
Q 4756 3084 4391 3084 
Q 3944 3084 3684 2787 
Q 3425 2491 3425 1978 
L 3425 0 
L 2847 0 
L 2847 2094 
Q 2847 2600 2669 2842 
Q 2491 3084 2119 3084 
Q 1678 3084 1418 2786 
Q 1159 2488 1159 1978 
L 1159 0 
L 581 0 
L 581 3500 
L 1159 3500 
L 1159 2956 
Q 1356 3278 1631 3431 
Q 1906 3584 2284 3584 
Q 2666 3584 2933 3390 
Q 3200 3197 3328 2828 
z
" transform="scale(0.015625)"/>
       <path id="DejaVuSans-6c" d="M 603 4863 
L 1178 4863 
L 1178 0 
L 603 0 
L 603 4863 
z
" transform="scale(0.015625)"/>
       <path id="DejaVuSans-74" d="M 1172 4494 
L 1172 3500 
L 2356 3500 
L 2356 3053 
L 1172 3053 
L 1172 1153 
Q 1172 725 1289 603 
Q 1406 481 1766 481 
L 2356 481 
L 2356 0 
L 1766 0 
Q 1100 0 847 248 
Q 594 497 594 1153 
L 594 3053 
L 172 3053 
L 172 3500 
L 594 3500 
L 594 4494 
L 1172 4494 
z
" transform="scale(0.015625)"/>
       <path id="DejaVuSans-69" d="M 603 3500 
L 1178 3500 
L 1178 0 
L 603 0 
L 603 3500 
z
M 603 4863 
L 1178 4863 
L 1178 4134 
L 603 4134 
L 603 4863 
z
" transform="scale(0.015625)"/>
       <path id="DejaVuSans-44" d="M 1259 4147 
L 1259 519 
L 2022 519 
Q 2988 519 3436 956 
Q 3884 1394 3884 2338 
Q 3884 3275 3436 3711 
Q 2988 4147 2022 4147 
L 1259 4147 
z
M 628 4666 
L 1925 4666 
Q 3281 4666 3915 4102 
Q 4550 3538 4550 2338 
Q 4550 1131 3912 565 
Q 3275 0 1925 0 
L 628 0 
L 628 4666 
z
" transform="scale(0.015625)"/>
       <path id="DejaVuSans-6e" d="M 3513 2113 
L 3513 0 
L 2938 0 
L 2938 2094 
Q 2938 2591 2744 2837 
Q 2550 3084 2163 3084 
Q 1697 3084 1428 2787 
Q 1159 2491 1159 1978 
L 1159 0 
L 581 0 
L 581 3500 
L 1159 3500 
L 1159 2956 
Q 1366 3272 1645 3428 
Q 1925 3584 2291 3584 
Q 2894 3584 3203 3211 
Q 3513 2838 3513 2113 
z
" transform="scale(0.015625)"/>
       <path id="DejaVuSans-73" d="M 2834 3397 
L 2834 2853 
Q 2591 2978 2328 3040 
Q 2066 3103 1784 3103 
Q 1356 3103 1142 2972 
Q 928 2841 928 2578 
Q 928 2378 1081 2264 
Q 1234 2150 1697 2047 
L 1894 2003 
Q 2506 1872 2764 1633 
Q 3022 1394 3022 966 
Q 3022 478 2636 193 
Q 2250 -91 1575 -91 
Q 1294 -91 989 -36 
Q 684 19 347 128 
L 347 722 
Q 666 556 975 473 
Q 1284 391 1588 391 
Q 1994 391 2212 530 
Q 2431 669 2431 922 
Q 2431 1156 2273 1281 
Q 2116 1406 1581 1522 
L 1381 1569 
Q 847 1681 609 1914 
Q 372 2147 372 2553 
Q 372 3047 722 3315 
Q 1072 3584 1716 3584 
Q 2034 3584 2315 3537 
Q 2597 3491 2834 3397 
z
" transform="scale(0.015625)"/>
       <path id="DejaVuSans-79" d="M 2059 -325 
Q 1816 -950 1584 -1140 
Q 1353 -1331 966 -1331 
L 506 -1331 
L 506 -850 
L 844 -850 
Q 1081 -850 1212 -737 
Q 1344 -625 1503 -206 
L 1606 56 
L 191 3500 
L 800 3500 
L 1894 763 
L 2988 3500 
L 3597 3500 
L 2059 -325 
z
" transform="scale(0.015625)"/>
      </defs>
      <use xlink:href="#DejaVuSans-43"/>
      <use xlink:href="#DejaVuSans-75" transform="translate(69.824219 0)"/>
      <use xlink:href="#DejaVuSans-6d" transform="translate(133.203125 0)"/>
      <use xlink:href="#DejaVuSans-75" transform="translate(230.615234 0)"/>
      <use xlink:href="#DejaVuSans-6c" transform="translate(293.994141 0)"/>
      <use xlink:href="#DejaVuSans-61" transform="translate(321.777344 0)"/>
      <use xlink:href="#DejaVuSans-74" transform="translate(383.056641 0)"/>
      <use xlink:href="#DejaVuSans-69" transform="translate(422.265625 0)"/>
      <use xlink:href="#DejaVuSans-76" transform="translate(450.048828 0)"/>
      <use xlink:href="#DejaVuSans-65" transform="translate(509.228516 0)"/>
      <use xlink:href="#DejaVuSans-20" transform="translate(570.751953 0)"/>
      <use xlink:href="#DejaVuSans-44" transform="translate(602.539062 0)"/>
      <use xlink:href="#DejaVuSans-65" transform="translate(679.541016 0)"/>
      <use xlink:href="#DejaVuSans-6e" transform="translate(741.064453 0)"/>
      <use xlink:href="#DejaVuSans-73" transform="translate(804.443359 0)"/>
      <use xlink:href="#DejaVuSans-69" transform="translate(856.542969 0)"/>
      <use xlink:href="#DejaVuSans-74" transform="translate(884.326172 0)"/>
      <use xlink:href="#DejaVuSans-79" transform="translate(923.535156 0)"/>
     </g>
    </g>
   </g>
   <g id="line2d_31">
    <path d="M 261.910052 369.36 
L 277.825986 369.208785 
L 277.988087 369.148299 
L 290.662485 368.75514 
L 290.728039 368.724896 
L 292.250905 368.513195 
L 292.266889 368.452709 
L 292.489423 368.422466 
L 294.071711 368.271251 
L 294.096574 368.241008 
L 294.957914 368.180522 
L 296.597645 367.999064 
L 297.349363 367.908335 
L 299.390233 367.726877 
L 302.378859 367.122016 
L 302.486743 367.031287 
L 302.907562 366.940558 
L 305.217639 366.426427 
L 305.311957 366.335698 
L 305.478807 366.275212 
L 306.436663 366.184482 
L 306.907994 366.033267 
L 308.088055 365.549379 
L 308.141495 365.519136 
L 309.09024 365.337678 
L 309.762282 365.15622 
L 315.835677 362.827507 
L 315.894977 362.767021 
L 316.242203 362.585563 
L 316.950627 362.071431 
L 317.043326 361.980702 
L 317.191232 361.829487 
L 317.198209 361.799244 
L 317.884681 361.527057 
L 319.47341 360.347579 
L 320.278651 359.591503 
L 320.678668 359.410045 
L 320.763898 359.319316 
L 321.116221 359.077372 
L 321.682621 358.442268 
L 321.7805 358.351539 
L 321.95583 358.139838 
L 322.058915 358.018866 
L 322.46804 357.716436 
L 322.596325 357.444248 
L 322.780115 357.293033 
L 323.275575 356.718416 
L 323.371052 356.567201 
L 323.42341 356.446229 
L 323.882641 356.234527 
L 324.058505 356.053069 
L 326.558201 353.391683 
L 326.563266 353.331197 
L 326.7445 353.179982 
L 326.813189 353.119496 
L 327.059556 352.968281 
L 327.24999 352.726337 
L 327.357722 352.575122 
L 327.427343 352.484392 
L 327.948457 352.302934 
L 328.202236 352.091233 
L 328.412812 351.909775 
L 329.044823 351.45613 
L 329.261142 351.093213 
L 329.500176 350.821026 
L 329.755093 350.427867 
L 330.014536 350.246409 
L 330.152672 350.06495 
L 330.299576 349.883492 
L 330.44063 349.732277 
L 330.709504 349.429847 
L 331.048469 349.15766 
L 331.326094 348.734257 
L 331.621376 348.15964 
L 332.038206 347.705995 
L 332.062927 347.645509 
L 332.297932 347.46405 
L 332.549637 347.101134 
L 332.607882 346.980162 
L 332.889612 346.768461 
L 333.680652 345.468011 
L 333.781565 345.347039 
L 333.897938 345.105095 
L 334.024421 344.923636 
L 334.131964 344.772421 
L 334.435043 344.349019 
L 334.647714 344.046589 
L 334.840053 343.804644 
L 334.950959 343.592943 
L 335.076707 343.290513 
L 335.211276 343.109055 
L 336.325598 341.687633 
L 336.581016 341.506175 
L 337.334193 340.326697 
L 337.416492 340.114995 
L 337.571251 339.933537 
L 337.75354 339.752079 
L 338.02055 339.35892 
L 339.191553 337.151179 
L 339.421258 336.939478 
L 339.601405 336.667291 
L 339.685928 336.425347 
L 339.837322 336.153159 
L 340.132431 335.608785 
L 340.794714 334.368821 
L 341.812603 332.886913 
L 341.93798 332.675212 
L 342.192599 332.342538 
L 342.301486 332.191323 
L 342.442796 332.009865 
L 342.571193 331.85865 
L 343.013206 331.102574 
L 343.152913 330.739658 
L 343.228052 330.5582 
L 343.604103 329.711395 
L 343.68587 329.529937 
L 343.872923 329.25775 
L 344.039924 328.804104 
L 344.221899 328.441188 
L 344.373898 327.927057 
L 344.614843 327.473411 
L 344.74941 327.110495 
L 345.154768 326.142718 
L 345.291788 325.719316 
L 346.913677 322.180882 
L 347.075863 321.606265 
L 347.259199 321.152619 
L 347.317788 321.001404 
L 347.556338 320.75946 
L 348.143027 319.035608 
L 348.330337 318.884392 
L 348.455437 318.491233 
L 348.588356 318.15856 
L 349.099669 317.100054 
L 349.218798 316.85811 
L 351.592904 311.474851 
L 351.776045 311.202664 
L 351.886201 311.051449 
L 352.048169 310.869991 
L 352.688782 308.994923 
L 352.781789 308.722736 
L 352.890993 308.511035 
L 353.234612 307.603744 
L 353.351337 307.210585 
L 353.452093 306.968641 
L 354.059751 305.365761 
L 354.307868 304.609685 
L 354.393983 304.45847 
L 354.588806 303.793123 
L 354.792458 303.127777 
L 354.857272 302.825347 
L 355.19997 301.887813 
L 355.313547 301.55514 
L 355.537299 300.950279 
L 355.922085 300.254689 
L 356.141883 299.801044 
L 356.3922 299.014725 
L 356.505629 298.621566 
L 356.710189 298.167921 
L 356.847858 297.774761 
L 357.046893 297.321116 
L 357.23198 296.65577 
L 357.720058 294.992403 
L 357.837867 294.629487 
L 357.905782 294.448029 
L 358.906532 291.544698 
L 359.023333 291.091053 
L 359.316206 290.425707 
L 359.576167 289.548659 
L 359.673812 289.336958 
L 360.0229 288.338938 
L 360.088036 288.187723 
L 361.399047 284.619046 
L 361.49257 284.25613 
L 361.628888 283.832727 
L 361.860505 283.227867 
L 361.972275 282.653249 
L 362.61671 280.294293 
L 362.740461 280.022106 
L 362.835585 279.749919 
L 362.970561 279.387003 
L 363.105098 279.205545 
L 363.340785 278.177282 
L 363.735093 277.088533 
L 363.816019 276.816346 
L 364.755179 274.124716 
L 364.86737 273.701314 
L 365.161784 272.552079 
L 365.280973 272.370621 
L 365.473664 271.735518 
L 365.602646 271.372601 
L 365.719595 270.949199 
L 366.061627 269.648749 
L 366.358429 268.650729 
L 366.451633 268.439028 
L 366.552512 268.287813 
L 366.690989 267.803924 
L 368.435971 262.05775 
L 368.549291 261.75532 
L 368.745636 260.878272 
L 368.861359 260.485113 
L 369.631401 258.821746 
L 369.771073 258.398344 
L 375.93249 237.107255 
L 376.00655 236.895554 
L 376.128475 236.472151 
L 376.276422 236.139478 
L 376.403138 235.716076 
L 376.548425 235.201944 
L 377.306594 232.419586 
L 377.41666 232.207885 
L 378.249064 229.244068 
L 378.33919 229.06261 
L 378.508029 228.427507 
L 378.655097 227.913375 
L 378.789045 227.338758 
L 379.000503 226.612925 
L 379.217414 225.917336 
L 379.323093 225.705635 
L 379.524245 225.040288 
L 379.760213 224.5564 
L 379.892743 224.012025 
L 379.962722 223.709595 
L 380.123052 223.134977 
L 380.250257 222.86279 
L 380.435104 222.25793 
L 380.583149 221.804284 
L 380.752453 221.471611 
L 380.828699 221.199424 
L 381.040294 220.352619 
L 381.180413 219.626787 
L 381.403412 218.628767 
L 381.520711 218.417066 
L 381.70361 217.66099 
L 381.794875 217.509775 
L 381.934599 217.146859 
L 382.065709 216.844428 
L 382.184446 216.511755 
L 382.401192 215.846409 
L 382.488635 215.574221 
L 382.668877 214.666931 
L 382.790391 214.273771 
L 382.9859 213.789883 
L 383.073654 213.578182 
L 383.362336 212.640648 
L 383.492762 212.307975 
L 383.730082 211.612385 
L 383.810054 211.279712 
L 383.944347 210.765581 
L 384.048727 210.251449 
L 384.200154 209.586103 
L 384.322713 209.374401 
L 384.909121 207.136418 
L 385.091176 206.743258 
L 385.151442 206.531557 
L 387.168977 199.303474 
L 387.309291 198.698614 
L 387.388148 198.486913 
L 388.490812 195.16018 
L 388.636007 194.615806 
L 388.748011 194.131917 
L 388.844517 193.920216 
L 389.350626 191.984662 
L 389.443976 191.651989 
L 389.650281 191.107615 
L 389.71763 190.926157 
L 390.034007 190.079352 
L 390.196067 189.383762 
L 390.2562 189.202304 
L 390.403699 188.65793 
L 390.525852 188.3555 
L 390.699974 187.841368 
L 390.804842 187.508695 
L 391.427819 185.331197 
L 391.578977 185.179982 
L 391.790888 184.393663 
L 391.849877 184.242448 
L 391.983847 183.577102 
L 392.41065 182.06495 
L 392.540631 181.853249 
L 392.654822 181.490333 
L 392.828454 181.248389 
L 392.935499 180.915716 
L 393.050988 180.522556 
L 393.280376 179.736238 
L 393.358296 179.524536 
L 394.883441 174.171521 
L 394.989167 173.95982 
L 395.059762 173.778362 
L 395.188894 173.324716 
L 395.643125 172.296454 
L 396.173802 170.905275 
L 396.284518 170.542358 
L 396.465532 170.028227 
L 397.018432 168.36486 
L 397.115851 168.213645 
L 397.327646 167.548299 
L 397.408883 167.336598 
L 397.776987 165.975662 
L 397.878265 165.522016 
L 397.983607 165.280072 
L 398.07457 164.917156 
L 398.111698 164.735698 
L 398.210489 164.403024 
L 398.335698 164.16108 
L 398.548629 163.465491 
L 398.694611 163.132817 
L 398.887424 162.286013 
L 398.998657 162.104554 
L 399.097471 161.802124 
L 399.276982 161.439208 
L 399.348522 161.227507 
L 399.554993 160.622646 
L 399.685819 160.169001 
L 399.822678 159.715356 
L 399.993171 159.110495 
L 400.052921 158.808065 
L 400.223192 158.384662 
L 400.408927 157.931017 
L 400.535697 157.416886 
L 400.681036 157.144698 
L 400.771187 156.721296 
L 400.848767 156.509595 
L 401.040177 155.874491 
L 401.736846 153.666751 
L 401.918103 153.243348 
L 402.055447 153.031647 
L 402.236868 152.245329 
L 402.487784 151.731197 
L 402.797323 151.005365 
L 402.889617 150.642448 
L 402.966169 150.46099 
L 403.087918 149.977102 
L 403.206239 149.825887 
L 403.335437 149.523456 
L 403.403692 149.311755 
L 403.837198 148.404464 
L 403.931714 148.223006 
L 404.037573 148.011305 
L 404.221074 147.648389 
L 406.105275 143.898254 
L 406.219459 143.505095 
L 406.34952 143.232907 
L 406.4965 142.869991 
L 406.644443 142.507075 
L 406.903291 141.992943 
L 407.070761 141.66027 
L 407.250564 141.236868 
L 407.388574 140.843708 
L 407.491786 140.601764 
L 407.621108 140.390063 
L 407.753364 140.148119 
L 408.318599 138.938398 
L 408.404816 138.726697 
L 408.508911 138.303294 
L 408.619357 138.152079 
L 408.855478 137.335518 
L 408.979217 136.700414 
L 409.220292 136.307255 
L 409.354499 135.883852 
L 409.457799 135.672151 
L 409.561186 135.188263 
L 409.682326 134.76486 
L 409.837335 134.341458 
L 410.615032 132.16396 
L 410.809673 131.831287 
L 410.913572 131.528857 
L 411.011001 131.25667 
L 411.10185 131.044968 
L 411.235699 130.712295 
L 411.314792 130.500594 
L 411.327619 130.470351 
L 411.509853 130.319136 
L 412.41421 128.383582 
L 412.583078 127.839208 
L 412.66796 127.65775 
L 412.834521 127.113375 
L 412.994806 126.931917 
L 414.958475 122.576922 
L 415.106623 122.304734 
L 415.539861 121.609145 
L 415.642764 121.45793 
L 415.689405 121.306715 
L 415.819415 121.1555 
L 416.513473 119.915536 
L 416.856975 119.310675 
L 416.966568 118.947759 
L 417.108604 118.645329 
L 417.270278 118.252169 
L 417.469448 117.677552 
L 417.569058 117.405365 
L 417.661944 117.223906 
L 417.770548 116.891233 
L 418.897565 114.56252 
L 419.005307 114.350819 
L 419.622369 113.292313 
L 419.747001 113.171341 
L 419.983865 112.687453 
L 420.145328 112.505995 
L 420.268742 112.354779 
L 420.969514 111.205545 
L 421.079414 110.993843 
L 421.172701 110.842628 
L 421.348184 110.630927 
L 421.580092 110.328497 
L 421.823171 110.05631 
L 422.004091 109.723636 
L 422.134573 109.542178 
L 422.231045 109.330477 
L 422.958068 108.181242 
L 423.17058 107.999784 
L 423.273651 107.848569 
L 423.456431 107.697354 
L 423.666609 107.152979 
L 423.781105 106.971521 
L 424.542304 105.973501 
L 424.906698 105.368641 
L 426.514719 103.130657 
L 426.865885 102.646769 
L 426.973054 102.404824 
L 427.267483 101.981422 
L 427.365598 101.890693 
L 427.479032 101.648749 
L 427.537174 101.527777 
L 427.627717 101.376562 
L 427.740293 101.074131 
L 427.855421 100.983402 
L 428.14521 100.590243 
L 428.420058 100.378542 
L 428.987387 99.56198 
L 429.19583 99.410765 
L 429.869524 98.291773 
L 429.993068 98.140558 
L 430.13744 97.9591 
L 430.303444 97.777642 
L 430.474212 97.505455 
L 430.663033 97.293753 
L 431.123272 96.628407 
L 431.45426 96.295734 
L 431.57201 95.993303 
L 431.702189 95.811845 
L 431.795566 95.539658 
L 432.064582 95.237228 
L 432.490741 94.813825 
L 432.670959 94.66261 
L 432.799017 94.481152 
L 433.174184 94.05775 
L 433.424185 93.846049 
L 433.774179 93.120216 
L 434.026415 92.938758 
L 434.871685 91.789523 
L 435.119652 91.577822 
L 435.229794 91.426607 
L 435.422453 91.184662 
L 435.638359 90.821746 
L 436.207288 90.307615 
L 436.328114 90.186643 
L 436.580448 89.974941 
L 436.706151 89.76324 
L 437.151649 89.46081 
L 437.258273 89.309595 
L 437.337143 89.128137 
L 437.55187 88.976922 
L 438.044242 88.553519 
L 438.139532 88.311575 
L 438.289884 88.16036 
L 438.536722 87.888173 
L 438.751204 87.676472 
L 439.478345 87.011125 
L 439.785628 86.85991 
L 439.924506 86.587723 
L 440.332122 86.315536 
L 440.546688 86.16432 
L 440.763431 86.043348 
L 441.778135 85.529217 
L 441.874625 85.287273 
L 442.344701 84.833627 
L 442.454765 84.682412 
L 442.838387 84.349739 
L 442.863972 84.289253 
L 443.396504 84.047309 
L 443.495068 83.95658 
L 443.785542 83.714635 
L 443.963226 83.442448 
L 444.720512 82.95856 
L 445.017552 82.716616 
L 445.315183 82.565401 
L 445.500251 82.323456 
L 446.315668 81.65811 
L 446.56446 81.476652 
L 446.773344 81.234707 
L 446.900874 81.083492 
L 447.234343 80.720576 
L 447.778025 80.418146 
L 448.032521 80.176202 
L 448.491268 79.9645 
L 448.644908 79.813285 
L 449.333264 79.541098 
L 450.015267 79.389883 
L 450.187053 79.208425 
L 451.211997 78.754779 
L 451.401557 78.573321 
L 452.790093 77.575302 
L 452.86359 77.484572 
L 453.310089 77.272871 
L 453.503858 77.06117 
L 454.26447 76.819226 
L 454.548456 76.668011 
L 454.924847 76.516796 
L 455.029083 76.426067 
L 455.70719 76.244608 
L 455.740566 76.214365 
L 456.181415 76.093393 
L 456.28981 75.972421 
L 456.914771 75.549019 
L 457.308826 75.397804 
L 457.618177 75.186103 
L 458.548823 74.702214 
L 459.233719 74.520756 
L 459.420112 74.399784 
L 460.518625 73.946139 
L 461.254618 73.794923 
L 462.248324 73.46225 
L 462.87277 73.311035 
L 463.537104 73.038848 
L 464.462873 72.85739 
L 467.373755 72.1618 
L 467.641078 72.010585 
L 469.638052 71.55694 
L 470.311488 71.375482 
L 470.919844 71.194023 
L 470.962521 71.16378 
L 471.908042 70.952079 
L 474.501491 70.105275 
L 476.208278 69.86333 
L 476.583004 69.742358 
L 478.763293 69.530657 
L 481.192312 69.197984 
L 481.712357 68.986283 
L 483.222785 68.774581 
L 483.260492 68.744338 
L 488.610668 68.139478 
L 488.645999 68.109235 
L 491.528224 67.867291 
L 496.896951 67.65559 
L 503.151023 67.504374 
L 503.174743 67.474131 
L 505.442081 67.353159 
L 531.915064 67.020486 
L 551.296602 66.96 
L 551.296602 66.96 
" clip-path="url(#p6114d1e2f1)" style="fill: none; stroke: #1f77b4; stroke-width: 1.5; stroke-linecap: square"/>
   </g>
   <g id="line2d_32">
    <path d="M 383.212413 384.48 
L 383.212413 51.84 
" clip-path="url(#p6114d1e2f1)" style="fill: none; stroke-dasharray: 3.7,1.6; stroke-dashoffset: 0; stroke: #1f77b4"/>
   </g>
   <g id="line2d_33">
    <path d="M 218.390228 369.36 
L 241.408477 369.208785 
L 241.727059 369.148299 
L 249.548408 368.694653 
L 249.878836 368.634167 
L 251.492104 368.482952 
L 253.76642 368.089793 
L 255.551767 367.878092 
L 255.715695 367.787363 
L 256.103066 367.515176 
L 260.349993 365.821566 
L 261.075157 365.398164 
L 261.643558 365.186463 
L 262.830675 364.369901 
L 262.833908 364.339658 
L 263.046305 364.188443 
L 263.15822 363.946499 
L 263.556899 363.765041 
L 264.752593 362.918236 
L 264.761766 362.887993 
L 264.987969 362.736778 
L 265.896653 362.16216 
L 265.984718 362.041188 
L 266.173361 361.85973 
L 266.306742 361.678272 
L 266.479169 361.587543 
L 266.872175 361.406085 
L 267.241433 361.012925 
L 267.507454 360.86171 
L 267.79597 360.589523 
L 268.03657 360.408065 
L 268.204675 360.226607 
L 268.360483 360.014905 
L 268.405859 359.924176 
L 268.876453 359.712475 
L 269.026347 359.470531 
L 269.444783 358.986643 
L 269.887433 358.744698 
L 270.07692 358.351539 
L 270.207811 358.170081 
L 270.318088 357.837408 
L 270.530802 357.595464 
L 270.959932 357.051089 
L 271.315062 356.627687 
L 271.4801 356.415986 
L 271.60153 356.234527 
L 271.777987 355.811125 
L 271.810774 355.750639 
L 272.021739 355.599424 
L 272.47341 354.722376 
L 272.704207 354.540918 
L 272.959471 354.35946 
L 273.07656 354.208245 
L 273.332824 353.724356 
L 273.639654 353.089253 
L 273.81622 352.907795 
L 274.012011 352.665851 
L 276.541552 348.915716 
L 276.762064 348.46207 
L 277.361185 347.46405 
L 278.058518 346.193843 
L 279.407211 343.623186 
L 279.529265 343.320756 
L 280.131187 342.232007 
L 280.241386 342.020306 
L 280.301328 341.869091 
L 280.396621 341.65739 
L 280.509676 341.294473 
L 280.644151 340.931557 
L 280.796522 340.568641 
L 280.887251 340.35694 
L 280.955597 340.175482 
L 281.162759 339.631107 
L 281.48202 338.814545 
L 281.630371 338.451629 
L 282.266924 337.211665 
L 282.364017 336.999964 
L 282.521275 336.334617 
L 282.736308 335.76 
L 282.804431 335.608785 
L 282.920561 335.366841 
L 283.020447 335.15514 
L 283.187517 334.913195 
L 283.344985 334.641008 
L 283.741023 333.824446 
L 283.883875 333.552259 
L 284.432297 332.403024 
L 286.220989 327.654869 
L 286.438359 326.989523 
L 286.558128 326.717336 
L 286.769214 326.112475 
L 286.87674 325.900774 
L 286.986922 325.447129 
L 287.969457 322.725257 
L 288.612226 320.517516 
L 288.711566 320.305815 
L 288.832977 319.821926 
L 289.467724 317.946859 
L 289.586018 317.432727 
L 289.695868 317.221026 
L 289.826667 316.737138 
L 289.978115 316.192763 
L 290.094587 315.769361 
L 290.200362 315.25523 
L 290.339686 314.922556 
L 291.289685 311.95874 
L 291.623858 310.809505 
L 291.737294 310.204644 
L 291.846875 310.023186 
L 291.942502 309.690513 
L 292.012856 309.478812 
L 292.172475 309.115896 
L 292.27538 308.934437 
L 292.644866 307.815446 
L 292.827091 307.482772 
L 293.35379 305.819406 
L 293.470903 305.547219 
L 293.591808 305.154059 
L 293.745533 304.579442 
L 294.075564 303.188263 
L 294.153167 302.916076 
L 294.517473 301.494653 
L 294.935877 300.16396 
L 295.093006 299.680072 
L 295.173499 299.438128 
L 295.448847 298.016706 
L 295.588287 297.593303 
L 295.706112 296.927957 
L 295.774426 296.444068 
L 295.895682 296.141638 
L 295.995639 295.839208 
L 296.121208 295.35532 
L 296.209232 295.113375 
L 296.320553 294.569001 
L 300.204926 278.721656 
L 300.379982 277.995824 
L 300.53693 277.542178 
L 300.760622 276.423186 
L 300.843864 276.090513 
L 300.947465 275.727597 
L 300.997323 275.45541 
L 301.147368 274.729577 
L 301.208566 274.517876 
L 301.33235 273.973501 
L 301.431026 273.550099 
L 303.073562 266.836148 
L 303.19001 266.412745 
L 303.472686 265.596184 
L 303.529907 265.444968 
L 303.695708 264.507435 
L 303.773036 264.174761 
L 303.90242 263.690873 
L 303.998764 263.267471 
L 306.332494 252.954599 
L 306.511597 252.25901 
L 306.660422 251.775122 
L 307.546054 248.085473 
L 307.651339 247.873771 
L 307.911374 246.845509 
L 308.032954 246.331377 
L 308.2679 245.272871 
L 308.318824 245.000684 
L 308.446275 244.45631 
L 308.710619 243.45829 
L 308.831837 243.034887 
L 308.906904 242.823186 
L 309.033641 242.067111 
L 309.156331 241.673951 
L 309.272728 241.220306 
L 309.484254 240.313015 
L 309.54306 240.101314 
L 309.707363 239.466211 
L 311.227573 233.084932 
L 311.515128 231.633267 
L 312.760847 226.280252 
L 313.013622 225.010045 
L 315.16833 216.632727 
L 315.34725 215.785923 
L 315.841253 214.092313 
L 316.285884 212.640648 
L 316.401234 212.187003 
L 316.504362 211.884572 
L 316.842347 210.069991 
L 316.935882 209.676832 
L 317.049288 209.313915 
L 317.372844 207.832007 
L 317.482124 207.317876 
L 317.87573 205.442808 
L 318.003084 204.777462 
L 318.48469 203.023366 
L 318.622713 202.418506 
L 319.001364 200.906355 
L 319.11446 200.392223 
L 319.174185 200.210765 
L 319.296151 199.605905 
L 319.478263 199.122016 
L 319.742726 198.06351 
L 319.838079 197.791323 
L 320.922894 193.85973 
L 320.976385 193.678272 
L 321.220872 192.317336 
L 321.262464 192.105635 
L 321.39385 191.621746 
L 321.620543 190.774941 
L 321.739686 190.26081 
L 322.455006 187.296994 
L 322.520282 187.024806 
L 322.621069 186.601404 
L 322.764409 186.117516 
L 324.634559 177.679712 
L 324.790405 176.893393 
L 326.54073 169.937498 
L 326.634284 169.665311 
L 326.837168 168.818506 
L 326.959456 168.485833 
L 327.109004 168.122916 
L 327.23107 167.76 
L 327.414079 167.094653 
L 328.071376 165.038128 
L 328.197789 164.735698 
L 328.332988 164.130837 
L 328.493209 163.616706 
L 328.579276 163.223546 
L 329.328832 160.350459 
L 329.490642 160.078272 
L 329.878576 158.626607 
L 329.971188 158.445149 
L 330.389497 156.96324 
L 330.514341 156.509595 
L 330.625401 155.965221 
L 330.751407 155.511575 
L 330.995781 154.695014 
L 331.206427 153.938938 
L 331.32706 153.394563 
L 331.442976 152.940918 
L 331.554932 152.547759 
L 331.64581 152.336058 
L 331.778955 151.942898 
L 331.836364 151.791683 
L 332.127132 150.521476 
L 332.590276 148.918596 
L 332.697634 148.585923 
L 332.966168 147.890333 
L 333.084582 147.406445 
L 333.255057 146.801584 
L 333.336385 146.589883 
L 333.454776 146.287453 
L 333.742864 145.712835 
L 333.853908 145.228947 
L 334.275011 143.747039 
L 334.447611 143.232907 
L 335.094799 141.236868 
L 335.925051 138.424266 
L 336.031002 138.182322 
L 336.154712 137.849649 
L 336.218698 137.637948 
L 336.516818 136.972601 
L 336.639492 136.609685 
L 337.096142 135.399964 
L 337.149878 135.218506 
L 337.315875 134.674131 
L 337.479326 134.341458 
L 337.695425 133.676112 
L 337.80186 133.46441 
L 337.920173 133.101494 
L 338.185391 132.405905 
L 338.456572 131.680072 
L 338.603372 131.196184 
L 338.924477 130.803024 
L 340.549484 126.901674 
L 340.674714 126.65973 
L 340.909419 125.994383 
L 341.170793 125.540738 
L 341.312043 125.268551 
L 341.542149 124.693933 
L 341.684407 124.512475 
L 341.822136 124.05883 
L 341.999592 123.484212 
L 342.102864 123.242268 
L 344.071957 118.342898 
L 345.620479 115.076652 
L 345.980226 114.229847 
L 346.215174 113.987903 
L 346.855698 112.475752 
L 346.924603 112.294293 
L 349.66245 106.548119 
L 349.7803 106.306175 
L 350.041396 105.671071 
L 350.163617 105.489613 
L 350.275866 105.187183 
L 350.5127 104.854509 
L 350.675091 104.552079 
L 350.79155 104.219406 
L 350.886201 104.037948 
L 351.026596 103.826247 
L 351.187131 103.493573 
L 351.357682 103.251629 
L 352.244851 101.920936 
L 352.510238 101.467291 
L 352.674839 101.285833 
L 352.923818 100.922916 
L 353.011986 100.620486 
L 353.160803 100.439028 
L 353.415448 99.95514 
L 354.267162 98.291773 
L 354.389618 97.989343 
L 354.650663 97.475212 
L 354.952749 96.840108 
L 355.248751 96.325977 
L 355.402272 96.174761 
L 355.45962 95.993303 
L 355.600798 95.751359 
L 356.061855 94.965041 
L 356.19795 94.723096 
L 356.33592 94.541638 
L 356.406078 94.390423 
L 356.660764 94.208965 
L 356.906979 93.906535 
L 357.044412 93.573861 
L 357.241867 93.36216 
L 357.358986 93.210945 
L 357.752236 92.787543 
L 357.872749 92.666571 
L 358.064855 92.485113 
L 358.071868 92.454869 
L 358.387668 92.273411 
L 358.56639 92.001224 
L 360.517735 89.823726 
L 360.594053 89.702754 
L 360.741238 89.521296 
L 361.959391 88.372061 
L 362.263332 88.220846 
L 362.471394 88.009145 
L 362.988282 87.706715 
L 363.143445 87.434527 
L 363.525722 86.980882 
L 363.658335 86.890153 
L 364.123891 86.527237 
L 364.25288 86.285293 
L 364.409934 86.16432 
L 364.73681 85.892133 
L 365.387294 85.196544 
L 365.422002 85.105815 
L 365.591044 84.954599 
L 366.045365 84.289253 
L 366.182667 84.168281 
L 367.89472 82.595644 
L 368.00067 82.504914 
L 368.324197 82.323456 
L 368.457853 82.202484 
L 369.100194 81.446409 
L 369.361898 81.295194 
L 369.654549 80.992763 
L 370.385111 80.629847 
L 370.499678 80.569361 
L 370.893867 80.145959 
L 371.168175 79.994743 
L 371.638447 79.571341 
L 372.719125 79.026967 
L 373.427498 78.633807 
L 373.428516 78.603564 
L 373.704027 78.452349 
L 374.274632 78.119676 
L 374.474232 77.907975 
L 375.252985 77.393843 
L 377.785299 75.821206 
L 377.840915 75.700234 
L 378.332323 75.45829 
L 378.628438 75.246589 
L 379.376987 74.974401 
L 379.510463 74.792943 
L 379.903519 74.581242 
L 380.310677 74.218326 
L 381.164525 73.704194 
L 381.171795 73.673951 
L 381.788585 73.522736 
L 382.395357 73.220306 
L 383.504664 72.766661 
L 383.837241 72.585203 
L 384.388868 72.403744 
L 385.076488 72.1618 
L 385.217316 72.071071 
L 385.974308 71.738398 
L 386.857521 71.55694 
L 386.864184 71.526697 
L 387.235091 71.375482 
L 387.363294 71.284752 
L 388.011835 71.103294 
L 388.1123 71.073051 
L 389.356058 70.921836 
L 389.37706 70.891593 
L 404.029624 68.532637 
L 405.576043 68.411665 
L 405.915169 68.351179 
L 409.211845 67.927777 
L 409.912438 67.806805 
L 411.818615 67.65559 
L 433.23506 67.111215 
L 450.164657 66.990243 
L 480.895862 66.96 
L 480.895862 66.96 
" clip-path="url(#p6114d1e2f1)" style="fill: none; stroke: #ff7f0e; stroke-width: 1.5; stroke-linecap: square"/>
   </g>
   <g id="line2d_34">
    <path d="M 316.898374 384.48 
L 316.898374 51.84 
" clip-path="url(#p6114d1e2f1)" style="fill: none; stroke-dasharray: 3.7,1.6; stroke-dashoffset: 0; stroke: #ff7f0e"/>
   </g>
   <g id="line2d_35">
    <path d="M 115.363636 369.36 
L 176.957408 369.208785 
L 177.963314 369.148299 
L 188.24207 368.997084 
L 191.327736 368.845869 
L 199.2807 368.66441 
L 201.514861 368.543438 
L 206.487184 368.271251 
L 208.249029 368.180522 
L 212.833352 367.908335 
L 218.300145 367.303474 
L 220.592488 367.152259 
L 231.188848 365.76108 
L 231.243238 365.700594 
L 233.53951 365.367921 
L 233.698641 365.246949 
L 234.759389 365.065491 
L 234.859088 364.974761 
L 235.101151 364.914275 
L 236.299799 364.76306 
L 236.501534 364.642088 
L 237.347057 364.430387 
L 237.5033 364.369901 
L 237.979071 364.218686 
L 239.526251 363.795284 
L 239.703431 363.674311 
L 240.948258 363.371881 
L 241.126537 363.250909 
L 243.239707 362.494833 
L 243.511409 362.434347 
L 244.167563 362.283132 
L 244.847197 362.010945 
L 244.929092 361.950459 
L 245.560125 361.799244 
L 247.205609 361.16414 
L 247.836578 361.012925 
L 248.30586 360.680252 
L 248.572044 360.529037 
L 249.845068 360.105635 
L 249.967815 359.984662 
L 250.510753 359.772961 
L 250.933488 359.591503 
L 251.153034 359.470531 
L 251.752388 359.289073 
L 251.972533 359.107615 
L 253.895825 358.593483 
L 253.95403 358.532997 
L 254.514619 358.291053 
L 255.09286 357.928137 
L 255.502034 357.776922 
L 256.168284 357.474491 
L 256.697105 357.020846 
L 259.338516 355.932097 
L 259.511498 355.780882 
L 259.793327 355.599424 
L 260.034392 355.387723 
L 260.04058 355.327237 
L 260.626082 355.145779 
L 260.718262 355.085293 
L 261.312527 354.66189 
L 261.404953 354.571161 
L 262.194599 354.026787 
L 262.244753 353.936058 
L 262.45621 353.784842 
L 263.155131 353.421926 
L 263.773838 353.270711 
L 263.977808 353.149739 
L 267.649645 350.367381 
L 268.488649 349.490333 
L 268.603731 349.399604 
L 269.159424 348.976202 
L 269.398717 348.7645 
L 270.781268 347.554779 
L 270.850185 347.433807 
L 271.070994 347.252349 
L 271.208559 347.131377 
L 271.537831 346.889433 
L 271.660595 346.647489 
L 272.121054 346.224086 
L 272.193315 346.1636 
L 272.426315 346.012385 
L 272.629415 345.770441 
L 273.413938 345.25631 
L 273.652684 344.802664 
L 274.053545 344.681692 
L 274.167277 344.530477 
L 274.389178 344.197804 
L 275.095192 343.592943 
L 275.15906 343.532457 
L 275.936708 343.230027 
L 276.06041 343.109055 
L 276.147524 342.927597 
L 276.310022 342.746139 
L 276.504965 342.56468 
L 276.813707 342.050549 
L 277.151209 341.899334 
L 277.336013 341.687633 
L 277.825588 341.354959 
L 278.039394 341.143258 
L 278.28809 340.901314 
L 278.542928 340.598884 
L 278.835762 340.35694 
L 279.008693 340.175482 
L 279.574394 339.510135 
L 279.895873 339.328677 
L 280.1353 338.996004 
L 280.307575 338.844788 
L 280.490903 338.66333 
L 280.692335 338.391143 
L 281.11312 338.179442 
L 281.261892 338.088713 
L 281.544094 337.846769 
L 281.663914 337.725797 
L 281.833343 337.483852 
L 282.05526 337.241908 
L 282.163741 337.090693 
L 282.978826 336.122916 
L 283.631189 335.669271 
L 283.760394 335.487813 
L 284.121105 334.882952 
L 284.27001 334.731737 
L 284.500087 334.308335 
L 284.869864 333.884932 
L 285.032842 333.733717 
L 285.07834 333.642988 
L 285.525975 333.340558 
L 285.662417 333.098614 
L 285.91292 332.886913 
L 286.175124 332.523996 
L 286.37064 332.282052 
L 286.560354 332.100594 
L 286.64343 331.888893 
L 286.890324 331.646949 
L 287.144791 331.253789 
L 287.746758 330.5582 
L 287.873887 330.376742 
L 288.329683 329.892853 
L 288.649453 329.741638 
L 288.827316 329.56018 
L 289.099913 329.318236 
L 289.294311 329.136778 
L 289.756152 328.56216 
L 289.99183 328.320216 
L 290.211745 327.987543 
L 291.807328 325.900774 
L 292.1288 325.719316 
L 292.16683 325.598344 
L 292.436778 325.416886 
L 292.8041 324.932997 
L 292.893365 324.751539 
L 293.792325 323.481332 
L 293.998275 323.299874 
L 294.259758 322.997444 
L 294.685164 322.422826 
L 294.799595 322.211125 
L 295.267006 321.848209 
L 295.407979 321.666751 
L 295.505858 321.485293 
L 295.688498 321.06189 
L 296.708985 319.489253 
L 296.947594 319.277552 
L 297.243967 318.733177 
L 297.505311 318.309775 
L 297.630134 318.098074 
L 298.376121 317.221026 
L 298.630531 317.039568 
L 298.89059 316.646409 
L 299.016905 316.434707 
L 299.185911 316.192763 
L 299.400238 316.011305 
L 299.752982 315.527417 
L 300.114149 314.771341 
L 300.229326 314.589883 
L 300.316944 314.378182 
L 300.518751 314.136238 
L 301.628429 312.230927 
L 301.842938 312.049469 
L 301.956989 311.807525 
L 302.057453 311.565581 
L 302.19883 311.353879 
L 302.460337 310.990963 
L 303.932371 308.420306 
L 304.08839 308.269091 
L 304.472871 307.724716 
L 305.98334 305.335518 
L 306.338118 305.06333 
L 306.487913 304.821386 
L 306.625928 304.609685 
L 306.751803 304.397984 
L 308.073703 302.190243 
L 308.206165 302.039028 
L 308.333288 301.706355 
L 309.065539 300.254689 
L 309.169321 300.073231 
L 309.323409 299.649829 
L 309.957222 298.409865 
L 310.045075 298.25865 
L 310.11234 298.107435 
L 310.359826 297.895734 
L 310.52499 297.593303 
L 310.746121 297.321116 
L 311.03994 296.686013 
L 311.309045 296.202124 
L 311.39272 295.96018 
L 311.530203 295.808965 
L 311.704028 295.567021 
L 311.827965 295.325077 
L 311.99781 295.083132 
L 313.60858 292.089073 
L 313.832372 291.665671 
L 313.908758 291.484212 
L 313.989546 291.36324 
L 314.116467 291.121296 
L 314.361773 290.697894 
L 314.488559 290.516436 
L 314.784414 289.790603 
L 314.939586 289.336958 
L 315.064268 289.185743 
L 316.246546 286.584842 
L 316.439144 286.312655 
L 318.88137 281.352799 
L 318.976038 281.020126 
L 319.116628 280.838668 
L 319.238551 280.445509 
L 319.474148 279.840648 
L 319.598572 279.628947 
L 319.799594 279.266031 
L 320.043277 278.751899 
L 320.206344 278.479712 
L 320.410042 278.298254 
L 320.626991 277.935338 
L 320.851962 277.511935 
L 321.978083 275.425167 
L 322.143157 275.032007 
L 322.378881 274.820306 
L 322.756336 273.913015 
L 323.056142 273.247669 
L 323.302461 272.914995 
L 323.715681 272.128677 
L 324.24569 271.009685 
L 324.3578 270.85847 
L 324.492104 270.646769 
L 324.670793 270.435068 
L 324.825047 269.981422 
L 324.978348 269.588263 
L 325.262725 269.25559 
L 326.161829 267.682952 
L 326.233417 267.501494 
L 326.355671 267.320036 
L 326.543579 266.805905 
L 326.743263 266.473231 
L 326.853651 266.352259 
L 327.091192 265.868371 
L 327.204539 265.686913 
L 329.08131 261.75532 
L 329.231731 261.543618 
L 329.422636 261.180702 
L 329.758373 260.787543 
L 329.887242 260.424626 
L 329.980597 260.273411 
L 330.119354 259.850009 
L 330.264882 259.487093 
L 330.369125 259.305635 
L 330.485271 259.154419 
L 330.617895 258.912475 
L 330.807403 258.368101 
L 331.164079 257.581782 
L 331.862025 256.220846 
L 332.196074 255.85793 
L 332.398694 255.434527 
L 332.497744 255.222826 
L 332.624542 254.980882 
L 332.86507 254.55748 
L 333.240536 254.25505 
L 333.572468 253.589703 
L 334.066268 252.228767 
L 334.410824 251.623906 
L 334.514236 251.442448 
L 334.626854 251.170261 
L 334.775545 250.686373 
L 334.990235 250.202484 
L 335.159665 249.990783 
L 335.507668 249.35568 
L 335.613349 249.174221 
L 335.733796 248.871791 
L 335.874378 248.629847 
L 337.521415 244.698254 
L 337.683247 244.335338 
L 337.90764 243.851449 
L 338.013013 243.700234 
L 338.236293 243.276832 
L 339.658944 240.978362 
L 339.766131 240.675932 
L 340.589411 239.224266 
L 340.737962 238.952079 
L 340.91612 238.589163 
L 341.219345 237.742358 
L 341.607501 236.714095 
L 341.777667 236.230207 
L 341.855507 235.95802 
L 342.151923 235.232187 
L 342.236815 235.080972 
L 342.432543 234.718056 
L 342.596414 234.35514 
L 342.649563 234.143438 
L 342.764493 233.992223 
L 343.683269 232.238128 
L 343.918994 232.05667 
L 344.038262 231.784482 
L 344.17907 231.512295 
L 344.33185 231.240108 
L 344.648044 230.544518 
L 344.761955 230.181602 
L 346.016476 227.973861 
L 346.526591 227.1573 
L 346.648849 226.824626 
L 346.844662 226.552439 
L 346.923787 226.310495 
L 347.066313 226.129037 
L 347.337976 225.554419 
L 347.453447 225.312475 
L 347.608292 224.828587 
L 348.483307 222.923276 
L 349.97238 219.929217 
L 350.067813 219.717516 
L 350.296758 219.142898 
L 350.472178 218.991683 
L 350.650183 218.689253 
L 350.836735 218.235608 
L 350.941966 217.933177 
L 351.054183 217.66099 
L 351.344229 217.116616 
L 351.575204 216.935158 
L 351.686024 216.572241 
L 352.347842 215.483492 
L 352.445478 215.211305 
L 352.886326 214.697174 
L 353.047972 214.515716 
L 353.259879 214.06207 
L 353.42641 213.910855 
L 353.633382 213.215266 
L 353.765805 212.943078 
L 353.851062 212.822106 
L 353.959859 212.610405 
L 354.154701 212.035788 
L 354.659584 210.765581 
L 355.041687 210.311935 
L 355.16079 210.069991 
L 355.805139 208.769541 
L 355.940364 208.55784 
L 356.064673 208.346139 
L 356.352586 207.952979 
L 356.507219 207.590063 
L 356.989671 206.198884 
L 357.137124 205.896454 
L 357.252499 205.714995 
L 358.00213 203.900414 
L 358.146863 203.718956 
L 358.430533 202.932637 
L 358.550563 202.720936 
L 358.731897 202.237048 
L 358.824648 202.025347 
L 359.00796 201.692673 
L 359.115314 201.420486 
L 359.915731 199.908335 
L 360.181278 199.394203 
L 360.319857 199.212745 
L 360.791765 198.305455 
L 361.081361 198.093753 
L 361.368255 197.519136 
L 361.441851 197.398164 
L 361.519034 197.246949 
L 361.644287 196.914275 
L 361.774385 196.732817 
L 361.978697 196.400144 
L 362.087543 196.127957 
L 362.257012 195.886013 
L 362.530932 195.190423 
L 362.625042 194.978722 
L 362.725207 194.767021 
L 362.925935 194.55532 
L 363.032914 194.404104 
L 363.471674 193.708515 
L 363.810192 192.740738 
L 364.043348 192.347579 
L 365.239016 189.928137 
L 365.341048 189.746679 
L 365.863795 188.869631 
L 366.145393 188.295014 
L 366.303059 188.022826 
L 366.576451 187.508695 
L 366.772569 187.05505 
L 366.988759 186.601404 
L 367.142615 186.298974 
L 367.484901 185.754599 
L 367.581413 185.542898 
L 367.901212 184.726337 
L 368.046529 184.544878 
L 368.37351 184.030747 
L 368.722856 183.516616 
L 368.843304 183.244428 
L 369.516234 181.974221 
L 369.624237 181.853249 
L 370.467579 180.673771 
L 370.71391 180.341098 
L 370.834729 180.129397 
L 370.952985 179.887453 
L 371.150916 179.585023 
L 371.45317 178.919676 
L 371.609666 178.707975 
L 372.106788 177.55874 
L 373.386228 175.411485 
L 374.160591 173.778362 
L 374.308256 173.627147 
L 374.790605 172.477912 
L 374.919868 172.266211 
L 375.122098 171.96378 
L 375.241809 171.631107 
L 375.707867 170.875032 
L 375.817238 170.693573 
L 376.084256 170.118956 
L 376.268904 169.816526 
L 376.386734 169.544338 
L 376.622362 169.181422 
L 376.767292 169.030207 
L 376.887349 168.727777 
L 376.998462 168.485833 
L 377.132103 168.334617 
L 377.282883 168.092673 
L 377.611193 167.427327 
L 378.020639 166.973681 
L 378.327773 166.429307 
L 378.552038 166.217606 
L 378.643294 166.096634 
L 378.892732 165.794203 
L 379.438224 164.584482 
L 379.648927 164.433267 
L 379.841496 164.130837 
L 380.202032 163.525977 
L 380.359454 163.374761 
L 380.549164 163.042088 
L 380.758839 162.769901 
L 381.171635 161.650909 
L 381.271831 161.499694 
L 381.444716 160.95532 
L 382.681651 158.26369 
L 382.936092 157.931017 
L 382.989845 157.779802 
L 383.132056 157.598344 
L 383.869896 156.509595 
L 384.041426 156.328137 
L 384.153806 156.025707 
L 384.289171 155.753519 
L 384.378762 155.572061 
L 384.489932 155.390603 
L 384.783519 154.997444 
L 384.919344 154.7555 
L 387.036184 152.06387 
L 387.296907 151.852169 
L 387.427116 151.640468 
L 387.840939 151.126337 
L 387.987212 150.793663 
L 388.210288 150.581962 
L 388.513708 150.098074 
L 389.018356 149.341998 
L 389.202613 149.190783 
L 389.338147 148.888353 
L 389.554742 148.676652 
L 389.972173 147.950819 
L 390.101334 147.799604 
L 390.233179 147.436688 
L 390.473923 147.134257 
L 390.625188 146.952799 
L 390.883448 146.55964 
L 391.56365 145.622106 
L 391.802308 145.380162 
L 391.886469 145.228947 
L 392.041382 144.987003 
L 392.267641 144.593843 
L 392.386298 144.503114 
L 392.533772 144.291413 
L 392.779666 143.868011 
L 392.839083 143.716796 
L 393.013488 143.535338 
L 393.110841 143.323636 
L 393.342357 142.930477 
L 393.438333 142.688533 
L 393.805171 142.295374 
L 393.932475 142.083672 
L 394.328238 141.478812 
L 394.577319 141.05541 
L 394.799781 140.783222 
L 394.92036 140.601764 
L 395.331024 140.148119 
L 395.477166 139.724716 
L 396.051397 139.029127 
L 396.282415 138.817426 
L 396.394465 138.696454 
L 396.822561 138.182322 
L 396.932712 137.940378 
L 397.063607 137.75892 
L 397.192152 137.607705 
L 397.358939 137.365761 
L 397.535129 137.06333 
L 398.757219 135.641908 
L 398.869323 135.46045 
L 399.118613 135.037048 
L 399.951087 133.736598 
L 400.165277 133.55514 
L 400.266023 133.373681 
L 400.455892 133.192223 
L 400.558161 132.920036 
L 400.76841 132.738578 
L 401.567738 131.528857 
L 401.69182 131.347399 
L 402.218728 130.712295 
L 402.350556 130.500594 
L 402.575382 130.319136 
L 403.255825 129.200144 
L 403.347391 129.048929 
L 403.512898 128.897714 
L 403.837074 128.383582 
L 403.952847 128.232367 
L 404.029298 127.990423 
L 404.267761 127.778722 
L 404.667491 127.234347 
L 404.818642 127.052889 
L 405.283632 126.508515 
L 406.019623 125.752439 
L 406.46838 125.268551 
L 406.886698 124.905635 
L 407.043161 124.724176 
L 407.176309 124.512475 
L 407.398975 124.240288 
L 407.557356 124.089073 
L 407.655495 123.907615 
L 408.353131 123.121296 
L 408.638678 122.788623 
L 408.707253 122.637408 
L 409.348364 121.851089 
L 409.425916 121.76036 
L 409.629352 121.578902 
L 410.093341 120.883312 
L 410.323981 120.671611 
L 411.519323 119.492133 
L 411.74465 119.310675 
L 412.230116 118.705815 
L 412.446146 118.524356 
L 412.73461 118.312655 
L 412.887662 118.070711 
L 413.008831 117.979982 
L 413.154753 117.828767 
L 413.565447 117.405365 
L 413.86995 117.102934 
L 413.953087 116.891233 
L 414.114656 116.740018 
L 414.350625 116.55856 
L 414.642045 116.346859 
L 414.788607 116.044428 
L 415.143544 115.651269 
L 415.283153 115.409325 
L 416.763467 114.169361 
L 416.769896 114.139118 
L 417.099379 113.987903 
L 417.795024 113.110855 
L 417.817081 113.080612 
L 418.051881 112.929397 
L 418.290642 112.747939 
L 418.487797 112.445509 
L 418.677948 112.294293 
L 419.007283 112.022106 
L 419.893973 111.326517 
L 420.368829 111.114815 
L 420.513023 110.993843 
L 420.72107 110.812385 
L 421.005559 110.540198 
L 421.228361 110.328497 
L 421.748895 109.784122 
L 421.949327 109.632907 
L 422.809042 108.786103 
L 423.055214 108.634887 
L 423.173738 108.423186 
L 424.555895 107.273951 
L 425.599257 106.275932 
L 425.778455 106.124716 
L 426.260516 105.519856 
L 426.317259 105.368641 
L 426.568448 105.217426 
L 426.641557 105.096454 
L 426.789065 104.945239 
L 427.081006 104.552079 
L 427.599558 104.249649 
L 427.811448 104.007705 
L 428.204615 103.826247 
L 428.49533 103.614545 
L 430.323996 102.193123 
L 431.374288 101.316076 
L 431.494913 101.16486 
L 431.941159 100.620486 
L 432.210626 100.469271 
L 433.472358 99.350279 
L 434.178622 99.138578 
L 434.291789 98.95712 
L 434.594038 98.805905 
L 434.773784 98.684932 
L 435.078783 98.442988 
L 435.40702 98.231287 
L 436.016769 97.9591 
L 436.325693 97.747399 
L 436.422197 97.686913 
L 436.670946 97.535698 
L 436.866511 97.384482 
L 437.185175 97.082052 
L 437.546286 96.628407 
L 437.685193 96.477192 
L 437.837852 96.325977 
L 438.023801 96.053789 
L 438.099819 95.96306 
L 438.365377 95.811845 
L 438.711364 95.66063 
L 439.694074 95.237228 
L 439.802885 95.086013 
L 440.079206 94.844068 
L 440.373011 94.571881 
L 440.916013 94.269451 
L 441.064389 94.087993 
L 441.491786 93.876292 
L 444.378924 92.182682 
L 444.796988 92.031467 
L 444.881025 91.970981 
L 445.570781 91.517336 
L 445.91363 91.396364 
L 446.56242 90.912475 
L 446.853201 90.610045 
L 446.890404 90.519316 
L 448.295629 90.186643 
L 448.416132 90.095914 
L 449.280352 89.551539 
L 449.420052 89.339838 
L 449.738327 89.097894 
L 450.121828 88.886193 
L 450.932513 88.644248 
L 450.949492 88.583762 
L 451.333784 88.432547 
L 452.145791 88.009145 
L 452.735263 87.827687 
L 452.878587 87.767201 
L 453.095947 87.585743 
L 453.969132 87.313555 
L 454.146835 87.192583 
L 454.567997 87.041368 
L 454.680006 86.890153 
L 454.959161 86.708695 
L 455.587235 86.376022 
L 456.367299 85.771161 
L 456.996067 85.589703 
L 458.710079 84.410225 
L 459.03946 84.25901 
L 459.733124 84.077552 
L 459.929605 83.926337 
L 460.265926 83.835608 
L 460.998943 83.502934 
L 462.867217 82.474671 
L 463.393833 82.26297 
L 463.730513 82.081512 
L 464.17283 81.930297 
L 464.37285 81.779082 
L 465.197829 81.476652 
L 465.225455 81.446409 
L 465.692791 81.295194 
L 465.738227 81.234707 
L 468.294132 80.176202 
L 468.655757 80.024986 
L 469.00162 79.873771 
L 469.001723 79.843528 
L 469.46835 79.66207 
L 470.122792 79.329397 
L 470.376181 79.238668 
L 470.761868 79.087453 
L 470.796832 79.026967 
L 471.571856 78.754779 
L 472.112967 78.543078 
L 473.819122 78.089433 
L 473.826331 78.05919 
L 474.754728 77.787003 
L 474.951604 77.635788 
L 475.31693 77.454329 
L 480.486897 75.972421 
L 480.855045 75.821206 
L 481.112575 75.639748 
L 481.974489 75.45829 
L 486.167504 74.792943 
L 487.138801 74.490513 
L 487.464318 74.399784 
L 488.923354 74.127597 
L 489.289587 74.006625 
L 490.298608 73.76468 
L 496.434154 72.403744 
L 498.141847 72.1618 
L 498.607443 72.071071 
L 502.701983 71.55694 
L 502.749783 71.526697 
L 505.484148 71.314995 
L 505.687503 71.254509 
L 508.736698 70.740378 
L 509.452071 70.589163 
L 509.611665 70.528677 
L 509.893634 70.468191 
L 511.744918 70.286733 
L 515.189895 69.802844 
L 515.727722 69.742358 
L 521.010254 69.530657 
L 522.898574 69.439928 
L 526.88598 69.167741 
L 526.995636 69.107255 
L 530.121744 68.925797 
L 531.743658 68.744338 
L 536.203193 68.56288 
L 536.288808 68.532637 
L 540.979028 68.320936 
L 540.995395 68.26045 
L 543.00444 68.139478 
L 582.96483 67.292673 
L 596.969683 67.141458 
L 599.936218 67.080972 
L 622.636364 66.96 
L 622.636364 66.96 
" clip-path="url(#p6114d1e2f1)" style="fill: none; stroke: #2ca02c; stroke-width: 1.5; stroke-linecap: square"/>
   </g>
   <g id="line2d_36">
    <path d="M 355.184844 384.48 
L 355.184844 51.84 
" clip-path="url(#p6114d1e2f1)" style="fill: none; stroke-dasharray: 3.7,1.6; stroke-dashoffset: 0; stroke: #2ca02c"/>
   </g>
   <g id="patch_3">
    <path d="M 90 384.48 
L 90 51.84 
" style="fill: none; stroke: #000000; stroke-width: 0.8; stroke-linejoin: miter; stroke-linecap: square"/>
   </g>
   <g id="patch_4">
    <path d="M 648 384.48 
L 648 51.84 
" style="fill: none; stroke: #000000; stroke-width: 0.8; stroke-linejoin: miter; stroke-linecap: square"/>
   </g>
   <g id="patch_5">
    <path d="M 90 384.48 
L 648 384.48 
" style="fill: none; stroke: #000000; stroke-width: 0.8; stroke-linejoin: miter; stroke-linecap: square"/>
   </g>
   <g id="patch_6">
    <path d="M 90 51.84 
L 648 51.84 
" style="fill: none; stroke: #000000; stroke-width: 0.8; stroke-linejoin: miter; stroke-linecap: square"/>
   </g>
   <g id="text_18">
    <!-- Cumulative Distribution of Average Rewards for Different Policies -->
    <g transform="translate(173.690625 45.84) scale(0.12 -0.12)">
     <defs>
      <path id="DejaVuSans-62" d="M 3116 1747 
Q 3116 2381 2855 2742 
Q 2594 3103 2138 3103 
Q 1681 3103 1420 2742 
Q 1159 2381 1159 1747 
Q 1159 1113 1420 752 
Q 1681 391 2138 391 
Q 2594 391 2855 752 
Q 3116 1113 3116 1747 
z
M 1159 2969 
Q 1341 3281 1617 3432 
Q 1894 3584 2278 3584 
Q 2916 3584 3314 3078 
Q 3713 2572 3713 1747 
Q 3713 922 3314 415 
Q 2916 -91 2278 -91 
Q 1894 -91 1617 61 
Q 1341 213 1159 525 
L 1159 0 
L 581 0 
L 581 4863 
L 1159 4863 
L 1159 2969 
z
" transform="scale(0.015625)"/>
      <path id="DejaVuSans-6f" d="M 1959 3097 
Q 1497 3097 1228 2736 
Q 959 2375 959 1747 
Q 959 1119 1226 758 
Q 1494 397 1959 397 
Q 2419 397 2687 759 
Q 2956 1122 2956 1747 
Q 2956 2369 2687 2733 
Q 2419 3097 1959 3097 
z
M 1959 3584 
Q 2709 3584 3137 3096 
Q 3566 2609 3566 1747 
Q 3566 888 3137 398 
Q 2709 -91 1959 -91 
Q 1206 -91 779 398 
Q 353 888 353 1747 
Q 353 2609 779 3096 
Q 1206 3584 1959 3584 
z
" transform="scale(0.015625)"/>
      <path id="DejaVuSans-66" d="M 2375 4863 
L 2375 4384 
L 1825 4384 
Q 1516 4384 1395 4259 
Q 1275 4134 1275 3809 
L 1275 3500 
L 2222 3500 
L 2222 3053 
L 1275 3053 
L 1275 0 
L 697 0 
L 697 3053 
L 147 3053 
L 147 3500 
L 697 3500 
L 697 3744 
Q 697 4328 969 4595 
Q 1241 4863 1831 4863 
L 2375 4863 
z
" transform="scale(0.015625)"/>
      <path id="DejaVuSans-50" d="M 1259 4147 
L 1259 2394 
L 2053 2394 
Q 2494 2394 2734 2622 
Q 2975 2850 2975 3272 
Q 2975 3691 2734 3919 
Q 2494 4147 2053 4147 
L 1259 4147 
z
M 628 4666 
L 2053 4666 
Q 2838 4666 3239 4311 
Q 3641 3956 3641 3272 
Q 3641 2581 3239 2228 
Q 2838 1875 2053 1875 
L 1259 1875 
L 1259 0 
L 628 0 
L 628 4666 
z
" transform="scale(0.015625)"/>
      <path id="DejaVuSans-63" d="M 3122 3366 
L 3122 2828 
Q 2878 2963 2633 3030 
Q 2388 3097 2138 3097 
Q 1578 3097 1268 2742 
Q 959 2388 959 1747 
Q 959 1106 1268 751 
Q 1578 397 2138 397 
Q 2388 397 2633 464 
Q 2878 531 3122 666 
L 3122 134 
Q 2881 22 2623 -34 
Q 2366 -91 2075 -91 
Q 1284 -91 818 406 
Q 353 903 353 1747 
Q 353 2603 823 3093 
Q 1294 3584 2113 3584 
Q 2378 3584 2631 3529 
Q 2884 3475 3122 3366 
z
" transform="scale(0.015625)"/>
     </defs>
     <use xlink:href="#DejaVuSans-43"/>
     <use xlink:href="#DejaVuSans-75" transform="translate(69.824219 0)"/>
     <use xlink:href="#DejaVuSans-6d" transform="translate(133.203125 0)"/>
     <use xlink:href="#DejaVuSans-75" transform="translate(230.615234 0)"/>
     <use xlink:href="#DejaVuSans-6c" transform="translate(293.994141 0)"/>
     <use xlink:href="#DejaVuSans-61" transform="translate(321.777344 0)"/>
     <use xlink:href="#DejaVuSans-74" transform="translate(383.056641 0)"/>
     <use xlink:href="#DejaVuSans-69" transform="translate(422.265625 0)"/>
     <use xlink:href="#DejaVuSans-76" transform="translate(450.048828 0)"/>
     <use xlink:href="#DejaVuSans-65" transform="translate(509.228516 0)"/>
     <use xlink:href="#DejaVuSans-20" transform="translate(570.751953 0)"/>
     <use xlink:href="#DejaVuSans-44" transform="translate(602.539062 0)"/>
     <use xlink:href="#DejaVuSans-69" transform="translate(679.541016 0)"/>
     <use xlink:href="#DejaVuSans-73" transform="translate(707.324219 0)"/>
     <use xlink:href="#DejaVuSans-74" transform="translate(759.423828 0)"/>
     <use xlink:href="#DejaVuSans-72" transform="translate(798.632812 0)"/>
     <use xlink:href="#DejaVuSans-69" transform="translate(839.746094 0)"/>
     <use xlink:href="#DejaVuSans-62" transform="translate(867.529297 0)"/>
     <use xlink:href="#DejaVuSans-75" transform="translate(931.005859 0)"/>
     <use xlink:href="#DejaVuSans-74" transform="translate(994.384766 0)"/>
     <use xlink:href="#DejaVuSans-69" transform="translate(1033.59375 0)"/>
     <use xlink:href="#DejaVuSans-6f" transform="translate(1061.376953 0)"/>
     <use xlink:href="#DejaVuSans-6e" transform="translate(1122.558594 0)"/>
     <use xlink:href="#DejaVuSans-20" transform="translate(1185.9375 0)"/>
     <use xlink:href="#DejaVuSans-6f" transform="translate(1217.724609 0)"/>
     <use xlink:href="#DejaVuSans-66" transform="translate(1278.90625 0)"/>
     <use xlink:href="#DejaVuSans-20" transform="translate(1314.111328 0)"/>
     <use xlink:href="#DejaVuSans-41" transform="translate(1345.898438 0)"/>
     <use xlink:href="#DejaVuSans-76" transform="translate(1408.431641 0)"/>
     <use xlink:href="#DejaVuSans-65" transform="translate(1467.611328 0)"/>
     <use xlink:href="#DejaVuSans-72" transform="translate(1529.134766 0)"/>
     <use xlink:href="#DejaVuSans-61" transform="translate(1570.248047 0)"/>
     <use xlink:href="#DejaVuSans-67" transform="translate(1631.527344 0)"/>
     <use xlink:href="#DejaVuSans-65" transform="translate(1695.003906 0)"/>
     <use xlink:href="#DejaVuSans-20" transform="translate(1756.527344 0)"/>
     <use xlink:href="#DejaVuSans-52" transform="translate(1788.314453 0)"/>
     <use xlink:href="#DejaVuSans-65" transform="translate(1853.296875 0)"/>
     <use xlink:href="#DejaVuSans-77" transform="translate(1914.820312 0)"/>
     <use xlink:href="#DejaVuSans-61" transform="translate(1996.607422 0)"/>
     <use xlink:href="#DejaVuSans-72" transform="translate(2057.886719 0)"/>
     <use xlink:href="#DejaVuSans-64" transform="translate(2097.25 0)"/>
     <use xlink:href="#DejaVuSans-73" transform="translate(2160.726562 0)"/>
     <use xlink:href="#DejaVuSans-20" transform="translate(2212.826172 0)"/>
     <use xlink:href="#DejaVuSans-66" transform="translate(2244.613281 0)"/>
     <use xlink:href="#DejaVuSans-6f" transform="translate(2279.818359 0)"/>
     <use xlink:href="#DejaVuSans-72" transform="translate(2341 0)"/>
     <use xlink:href="#DejaVuSans-20" transform="translate(2382.113281 0)"/>
     <use xlink:href="#DejaVuSans-44" transform="translate(2413.900391 0)"/>
     <use xlink:href="#DejaVuSans-69" transform="translate(2490.902344 0)"/>
     <use xlink:href="#DejaVuSans-66" transform="translate(2518.685547 0)"/>
     <use xlink:href="#DejaVuSans-66" transform="translate(2553.890625 0)"/>
     <use xlink:href="#DejaVuSans-65" transform="translate(2589.095703 0)"/>
     <use xlink:href="#DejaVuSans-72" transform="translate(2650.619141 0)"/>
     <use xlink:href="#DejaVuSans-65" transform="translate(2689.482422 0)"/>
     <use xlink:href="#DejaVuSans-6e" transform="translate(2751.005859 0)"/>
     <use xlink:href="#DejaVuSans-74" transform="translate(2814.384766 0)"/>
     <use xlink:href="#DejaVuSans-20" transform="translate(2853.59375 0)"/>
     <use xlink:href="#DejaVuSans-50" transform="translate(2885.380859 0)"/>
     <use xlink:href="#DejaVuSans-6f" transform="translate(2942.058594 0)"/>
     <use xlink:href="#DejaVuSans-6c" transform="translate(3003.240234 0)"/>
     <use xlink:href="#DejaVuSans-69" transform="translate(3031.023438 0)"/>
     <use xlink:href="#DejaVuSans-63" transform="translate(3058.806641 0)"/>
     <use xlink:href="#DejaVuSans-69" transform="translate(3113.787109 0)"/>
     <use xlink:href="#DejaVuSans-65" transform="translate(3141.570312 0)"/>
     <use xlink:href="#DejaVuSans-73" transform="translate(3203.09375 0)"/>
    </g>
   </g>
   <g id="legend_1">
    <g id="patch_7">
     <path d="M 97 103.874375 
L 264.028125 103.874375 
Q 266.028125 103.874375 266.028125 101.874375 
L 266.028125 58.84 
Q 266.028125 56.84 264.028125 56.84 
L 97 56.84 
Q 95 56.84 95 58.84 
L 95 101.874375 
Q 95 103.874375 97 103.874375 
z
" style="fill: #ffffff; opacity: 0.8; stroke: #cccccc; stroke-linejoin: miter"/>
    </g>
    <g id="line2d_37">
     <path d="M 99 64.938437 
L 109 64.938437 
L 119 64.938437 
" style="fill: none; stroke: #1f77b4; stroke-width: 1.5; stroke-linecap: square"/>
    </g>
    <g id="text_19">
     <!-- Initial Policy -->
     <g transform="translate(127 68.438437) scale(0.1 -0.1)">
      <defs>
       <path id="DejaVuSans-49" d="M 628 4666 
L 1259 4666 
L 1259 0 
L 628 0 
L 628 4666 
z
" transform="scale(0.015625)"/>
      </defs>
      <use xlink:href="#DejaVuSans-49"/>
      <use xlink:href="#DejaVuSans-6e" transform="translate(29.492188 0)"/>
      <use xlink:href="#DejaVuSans-69" transform="translate(92.871094 0)"/>
      <use xlink:href="#DejaVuSans-74" transform="translate(120.654297 0)"/>
      <use xlink:href="#DejaVuSans-69" transform="translate(159.863281 0)"/>
      <use xlink:href="#DejaVuSans-61" transform="translate(187.646484 0)"/>
      <use xlink:href="#DejaVuSans-6c" transform="translate(248.925781 0)"/>
      <use xlink:href="#DejaVuSans-20" transform="translate(276.708984 0)"/>
      <use xlink:href="#DejaVuSans-50" transform="translate(308.496094 0)"/>
      <use xlink:href="#DejaVuSans-6f" transform="translate(365.173828 0)"/>
      <use xlink:href="#DejaVuSans-6c" transform="translate(426.355469 0)"/>
      <use xlink:href="#DejaVuSans-69" transform="translate(454.138672 0)"/>
      <use xlink:href="#DejaVuSans-63" transform="translate(481.921875 0)"/>
      <use xlink:href="#DejaVuSans-79" transform="translate(536.902344 0)"/>
     </g>
    </g>
    <g id="line2d_38">
     <path d="M 99 79.616562 
L 109 79.616562 
L 119 79.616562 
" style="fill: none; stroke: #ff7f0e; stroke-width: 1.5; stroke-linecap: square"/>
    </g>
    <g id="text_20">
     <!-- Clipped Initial Policy -->
     <g transform="translate(127 83.116562) scale(0.1 -0.1)">
      <defs>
       <path id="DejaVuSans-70" d="M 1159 525 
L 1159 -1331 
L 581 -1331 
L 581 3500 
L 1159 3500 
L 1159 2969 
Q 1341 3281 1617 3432 
Q 1894 3584 2278 3584 
Q 2916 3584 3314 3078 
Q 3713 2572 3713 1747 
Q 3713 922 3314 415 
Q 2916 -91 2278 -91 
Q 1894 -91 1617 61 
Q 1341 213 1159 525 
z
M 3116 1747 
Q 3116 2381 2855 2742 
Q 2594 3103 2138 3103 
Q 1681 3103 1420 2742 
Q 1159 2381 1159 1747 
Q 1159 1113 1420 752 
Q 1681 391 2138 391 
Q 2594 391 2855 752 
Q 3116 1113 3116 1747 
z
" transform="scale(0.015625)"/>
      </defs>
      <use xlink:href="#DejaVuSans-43"/>
      <use xlink:href="#DejaVuSans-6c" transform="translate(69.824219 0)"/>
      <use xlink:href="#DejaVuSans-69" transform="translate(97.607422 0)"/>
      <use xlink:href="#DejaVuSans-70" transform="translate(125.390625 0)"/>
      <use xlink:href="#DejaVuSans-70" transform="translate(188.867188 0)"/>
      <use xlink:href="#DejaVuSans-65" transform="translate(252.34375 0)"/>
      <use xlink:href="#DejaVuSans-64" transform="translate(313.867188 0)"/>
      <use xlink:href="#DejaVuSans-20" transform="translate(377.34375 0)"/>
      <use xlink:href="#DejaVuSans-49" transform="translate(409.130859 0)"/>
      <use xlink:href="#DejaVuSans-6e" transform="translate(438.623047 0)"/>
      <use xlink:href="#DejaVuSans-69" transform="translate(502.001953 0)"/>
      <use xlink:href="#DejaVuSans-74" transform="translate(529.785156 0)"/>
      <use xlink:href="#DejaVuSans-69" transform="translate(568.994141 0)"/>
      <use xlink:href="#DejaVuSans-61" transform="translate(596.777344 0)"/>
      <use xlink:href="#DejaVuSans-6c" transform="translate(658.056641 0)"/>
      <use xlink:href="#DejaVuSans-20" transform="translate(685.839844 0)"/>
      <use xlink:href="#DejaVuSans-50" transform="translate(717.626953 0)"/>
      <use xlink:href="#DejaVuSans-6f" transform="translate(774.304688 0)"/>
      <use xlink:href="#DejaVuSans-6c" transform="translate(835.486328 0)"/>
      <use xlink:href="#DejaVuSans-69" transform="translate(863.269531 0)"/>
      <use xlink:href="#DejaVuSans-63" transform="translate(891.052734 0)"/>
      <use xlink:href="#DejaVuSans-79" transform="translate(946.033203 0)"/>
     </g>
    </g>
    <g id="line2d_39">
     <path d="M 99 94.294687 
L 109 94.294687 
L 119 94.294687 
" style="fill: none; stroke: #2ca02c; stroke-width: 1.5; stroke-linecap: square"/>
    </g>
    <g id="text_21">
     <!-- Best linear Policy (CMA-ES) -->
     <g transform="translate(127 97.794687) scale(0.1 -0.1)">
      <defs>
       <path id="DejaVuSans-42" d="M 1259 2228 
L 1259 519 
L 2272 519 
Q 2781 519 3026 730 
Q 3272 941 3272 1375 
Q 3272 1813 3026 2020 
Q 2781 2228 2272 2228 
L 1259 2228 
z
M 1259 4147 
L 1259 2741 
L 2194 2741 
Q 2656 2741 2882 2914 
Q 3109 3088 3109 3444 
Q 3109 3797 2882 3972 
Q 2656 4147 2194 4147 
L 1259 4147 
z
M 628 4666 
L 2241 4666 
Q 2963 4666 3353 4366 
Q 3744 4066 3744 3513 
Q 3744 3084 3544 2831 
Q 3344 2578 2956 2516 
Q 3422 2416 3680 2098 
Q 3938 1781 3938 1306 
Q 3938 681 3513 340 
Q 3088 0 2303 0 
L 628 0 
L 628 4666 
z
" transform="scale(0.015625)"/>
       <path id="DejaVuSans-28" d="M 1984 4856 
Q 1566 4138 1362 3434 
Q 1159 2731 1159 2009 
Q 1159 1288 1364 580 
Q 1569 -128 1984 -844 
L 1484 -844 
Q 1016 -109 783 600 
Q 550 1309 550 2009 
Q 550 2706 781 3412 
Q 1013 4119 1484 4856 
L 1984 4856 
z
" transform="scale(0.015625)"/>
       <path id="DejaVuSans-4d" d="M 628 4666 
L 1569 4666 
L 2759 1491 
L 3956 4666 
L 4897 4666 
L 4897 0 
L 4281 0 
L 4281 4097 
L 3078 897 
L 2444 897 
L 1241 4097 
L 1241 0 
L 628 0 
L 628 4666 
z
" transform="scale(0.015625)"/>
       <path id="DejaVuSans-2d" d="M 313 2009 
L 1997 2009 
L 1997 1497 
L 313 1497 
L 313 2009 
z
" transform="scale(0.015625)"/>
       <path id="DejaVuSans-45" d="M 628 4666 
L 3578 4666 
L 3578 4134 
L 1259 4134 
L 1259 2753 
L 3481 2753 
L 3481 2222 
L 1259 2222 
L 1259 531 
L 3634 531 
L 3634 0 
L 628 0 
L 628 4666 
z
" transform="scale(0.015625)"/>
       <path id="DejaVuSans-53" d="M 3425 4513 
L 3425 3897 
Q 3066 4069 2747 4153 
Q 2428 4238 2131 4238 
Q 1616 4238 1336 4038 
Q 1056 3838 1056 3469 
Q 1056 3159 1242 3001 
Q 1428 2844 1947 2747 
L 2328 2669 
Q 3034 2534 3370 2195 
Q 3706 1856 3706 1288 
Q 3706 609 3251 259 
Q 2797 -91 1919 -91 
Q 1588 -91 1214 -16 
Q 841 59 441 206 
L 441 856 
Q 825 641 1194 531 
Q 1563 422 1919 422 
Q 2459 422 2753 634 
Q 3047 847 3047 1241 
Q 3047 1584 2836 1778 
Q 2625 1972 2144 2069 
L 1759 2144 
Q 1053 2284 737 2584 
Q 422 2884 422 3419 
Q 422 4038 858 4394 
Q 1294 4750 2059 4750 
Q 2388 4750 2728 4690 
Q 3069 4631 3425 4513 
z
" transform="scale(0.015625)"/>
       <path id="DejaVuSans-29" d="M 513 4856 
L 1013 4856 
Q 1481 4119 1714 3412 
Q 1947 2706 1947 2009 
Q 1947 1309 1714 600 
Q 1481 -109 1013 -844 
L 513 -844 
Q 928 -128 1133 580 
Q 1338 1288 1338 2009 
Q 1338 2731 1133 3434 
Q 928 4138 513 4856 
z
" transform="scale(0.015625)"/>
      </defs>
      <use xlink:href="#DejaVuSans-42"/>
      <use xlink:href="#DejaVuSans-65" transform="translate(68.603516 0)"/>
      <use xlink:href="#DejaVuSans-73" transform="translate(130.126953 0)"/>
      <use xlink:href="#DejaVuSans-74" transform="translate(182.226562 0)"/>
      <use xlink:href="#DejaVuSans-20" transform="translate(221.435547 0)"/>
      <use xlink:href="#DejaVuSans-6c" transform="translate(253.222656 0)"/>
      <use xlink:href="#DejaVuSans-69" transform="translate(281.005859 0)"/>
      <use xlink:href="#DejaVuSans-6e" transform="translate(308.789062 0)"/>
      <use xlink:href="#DejaVuSans-65" transform="translate(372.167969 0)"/>
      <use xlink:href="#DejaVuSans-61" transform="translate(433.691406 0)"/>
      <use xlink:href="#DejaVuSans-72" transform="translate(494.970703 0)"/>
      <use xlink:href="#DejaVuSans-20" transform="translate(536.083984 0)"/>
      <use xlink:href="#DejaVuSans-50" transform="translate(567.871094 0)"/>
      <use xlink:href="#DejaVuSans-6f" transform="translate(624.548828 0)"/>
      <use xlink:href="#DejaVuSans-6c" transform="translate(685.730469 0)"/>
      <use xlink:href="#DejaVuSans-69" transform="translate(713.513672 0)"/>
      <use xlink:href="#DejaVuSans-63" transform="translate(741.296875 0)"/>
      <use xlink:href="#DejaVuSans-79" transform="translate(796.277344 0)"/>
      <use xlink:href="#DejaVuSans-20" transform="translate(855.457031 0)"/>
      <use xlink:href="#DejaVuSans-28" transform="translate(887.244141 0)"/>
      <use xlink:href="#DejaVuSans-43" transform="translate(926.257812 0)"/>
      <use xlink:href="#DejaVuSans-4d" transform="translate(996.082031 0)"/>
      <use xlink:href="#DejaVuSans-41" transform="translate(1082.361328 0)"/>
      <use xlink:href="#DejaVuSans-2d" transform="translate(1148.519531 0)"/>
      <use xlink:href="#DejaVuSans-45" transform="translate(1184.603516 0)"/>
      <use xlink:href="#DejaVuSans-53" transform="translate(1247.787109 0)"/>
      <use xlink:href="#DejaVuSans-29" transform="translate(1311.263672 0)"/>
     </g>
    </g>
   </g>
  </g>
 </g>
 <defs>
  <clipPath id="p6114d1e2f1">
   <rect x="90" y="51.84" width="558" height="332.64"/>
  </clipPath>
 </defs>
</svg>
