<?xml version="1.0" encoding="utf-8" standalone="no"?>
<!DOCTYPE svg PUBLIC "-//W3C//DTD SVG 1.1//EN"
  "http://www.w3.org/Graphics/SVG/1.1/DTD/svg11.dtd">
<svg xmlns:xlink="http://www.w3.org/1999/xlink" width="720pt" height="432pt" viewBox="0 0 720 432" xmlns="http://www.w3.org/2000/svg" version="1.1">
 <metadata>
  <rdf:RDF xmlns:dc="http://purl.org/dc/elements/1.1/" xmlns:cc="http://creativecommons.org/ns#" xmlns:rdf="http://www.w3.org/1999/02/22-rdf-syntax-ns#">
   <cc:Work>
    <dc:type rdf:resource="http://purl.org/dc/dcmitype/StillImage"/>
    <dc:date>2025-10-10T01:23:56.306729</dc:date>
    <dc:format>image/svg+xml</dc:format>
    <dc:creator>
     <cc:Agent>
      <dc:title>Matplotlib v3.10.6, https://matplotlib.org/</dc:title>
     </cc:Agent>
    </dc:creator>
   </cc:Work>
  </rdf:RDF>
 </metadata>
 <defs>
  <style type="text/css">*{stroke-linejoin: round; stroke-linecap: butt}</style>
 </defs>
 <g id="figure_1">
  <g id="patch_1">
   <path d="M 0 432 
L 720 432 
L 720 0 
L 0 0 
z
" style="fill: #ffffff"/>
  </g>
  <g id="axes_1">
   <g id="patch_2">
    <path d="M 90 384.48 
L 648 384.48 
L 648 51.84 
L 90 51.84 
z
" style="fill: #ffffff"/>
   </g>
   <g id="patch_3">
    <path d="M 115.363636 384.48 
L 118.768151 384.48 
L 118.768151 384.48 
L 115.363636 384.48 
z
" clip-path="url(#pdbc82ff6bc)" style="fill: #1f77b4"/>
   </g>
   <g id="patch_4">
    <path d="M 132.386211 384.48 
L 135.790726 384.48 
L 135.790726 384.48 
L 132.386211 384.48 
z
" clip-path="url(#pdbc82ff6bc)" style="fill: #1f77b4"/>
   </g>
   <g id="patch_5">
    <path d="M 149.408786 384.48 
L 152.813301 384.48 
L 152.813301 384.48 
L 149.408786 384.48 
z
" clip-path="url(#pdbc82ff6bc)" style="fill: #1f77b4"/>
   </g>
   <g id="patch_6">
    <path d="M 166.431361 384.48 
L 169.835876 384.48 
L 169.835876 384.48 
L 166.431361 384.48 
z
" clip-path="url(#pdbc82ff6bc)" style="fill: #1f77b4"/>
   </g>
   <g id="patch_7">
    <path d="M 183.453935 384.48 
L 186.85845 384.48 
L 186.85845 384.48 
L 183.453935 384.48 
z
" clip-path="url(#pdbc82ff6bc)" style="fill: #1f77b4"/>
   </g>
   <g id="patch_8">
    <path d="M 200.47651 384.48 
L 203.881025 384.48 
L 203.881025 384.48 
L 200.47651 384.48 
z
" clip-path="url(#pdbc82ff6bc)" style="fill: #1f77b4"/>
   </g>
   <g id="patch_9">
    <path d="M 217.499085 384.48 
L 220.9036 384.48 
L 220.9036 384.48 
L 217.499085 384.48 
z
" clip-path="url(#pdbc82ff6bc)" style="fill: #1f77b4"/>
   </g>
   <g id="patch_10">
    <path d="M 234.52166 384.48 
L 237.926174 384.48 
L 237.926174 67.68 
L 234.52166 67.68 
z
" clip-path="url(#pdbc82ff6bc)" style="fill: #1f77b4"/>
   </g>
   <g id="patch_11">
    <path d="M 251.544234 384.48 
L 254.948749 384.48 
L 254.948749 384.48 
L 251.544234 384.48 
z
" clip-path="url(#pdbc82ff6bc)" style="fill: #1f77b4"/>
   </g>
   <g id="patch_12">
    <path d="M 268.566809 384.48 
L 271.971324 384.48 
L 271.971324 384.48 
L 268.566809 384.48 
z
" clip-path="url(#pdbc82ff6bc)" style="fill: #1f77b4"/>
   </g>
   <g id="patch_13">
    <path d="M 285.589384 384.48 
L 288.993899 384.48 
L 288.993899 384.48 
L 285.589384 384.48 
z
" clip-path="url(#pdbc82ff6bc)" style="fill: #1f77b4"/>
   </g>
   <g id="patch_14">
    <path d="M 302.611959 384.48 
L 306.016473 384.48 
L 306.016473 384.48 
L 302.611959 384.48 
z
" clip-path="url(#pdbc82ff6bc)" style="fill: #1f77b4"/>
   </g>
   <g id="patch_15">
    <path d="M 319.634533 384.48 
L 323.039048 384.48 
L 323.039048 384.48 
L 319.634533 384.48 
z
" clip-path="url(#pdbc82ff6bc)" style="fill: #1f77b4"/>
   </g>
   <g id="patch_16">
    <path d="M 336.657108 384.48 
L 340.061623 384.48 
L 340.061623 384.48 
L 336.657108 384.48 
z
" clip-path="url(#pdbc82ff6bc)" style="fill: #1f77b4"/>
   </g>
   <g id="patch_17">
    <path d="M 353.679683 384.48 
L 357.084198 384.48 
L 357.084198 384.48 
L 353.679683 384.48 
z
" clip-path="url(#pdbc82ff6bc)" style="fill: #1f77b4"/>
   </g>
   <g id="patch_18">
    <path d="M 370.702257 384.48 
L 374.106772 384.48 
L 374.106772 384.48 
L 370.702257 384.48 
z
" clip-path="url(#pdbc82ff6bc)" style="fill: #1f77b4"/>
   </g>
   <g id="patch_19">
    <path d="M 387.724832 384.48 
L 391.129347 384.48 
L 391.129347 384.48 
L 387.724832 384.48 
z
" clip-path="url(#pdbc82ff6bc)" style="fill: #1f77b4"/>
   </g>
   <g id="patch_20">
    <path d="M 404.747407 384.48 
L 408.151922 384.48 
L 408.151922 384.48 
L 404.747407 384.48 
z
" clip-path="url(#pdbc82ff6bc)" style="fill: #1f77b4"/>
   </g>
   <g id="patch_21">
    <path d="M 421.769982 384.48 
L 425.174497 384.48 
L 425.174497 384.48 
L 421.769982 384.48 
z
" clip-path="url(#pdbc82ff6bc)" style="fill: #1f77b4"/>
   </g>
   <g id="patch_22">
    <path d="M 438.792556 384.48 
L 442.197071 384.48 
L 442.197071 384.48 
L 438.792556 384.48 
z
" clip-path="url(#pdbc82ff6bc)" style="fill: #1f77b4"/>
   </g>
   <g id="patch_23">
    <path d="M 455.815131 384.48 
L 459.219646 384.48 
L 459.219646 384.48 
L 455.815131 384.48 
z
" clip-path="url(#pdbc82ff6bc)" style="fill: #1f77b4"/>
   </g>
   <g id="patch_24">
    <path d="M 472.837706 384.48 
L 476.242221 384.48 
L 476.242221 384.48 
L 472.837706 384.48 
z
" clip-path="url(#pdbc82ff6bc)" style="fill: #1f77b4"/>
   </g>
   <g id="patch_25">
    <path d="M 489.860281 384.48 
L 493.264796 384.48 
L 493.264796 384.48 
L 489.860281 384.48 
z
" clip-path="url(#pdbc82ff6bc)" style="fill: #1f77b4"/>
   </g>
   <g id="patch_26">
    <path d="M 506.882855 384.48 
L 510.28737 384.48 
L 510.28737 384.48 
L 506.882855 384.48 
z
" clip-path="url(#pdbc82ff6bc)" style="fill: #1f77b4"/>
   </g>
   <g id="patch_27">
    <path d="M 523.90543 384.48 
L 527.309945 384.48 
L 527.309945 384.48 
L 523.90543 384.48 
z
" clip-path="url(#pdbc82ff6bc)" style="fill: #1f77b4"/>
   </g>
   <g id="patch_28">
    <path d="M 540.928005 384.48 
L 544.33252 384.48 
L 544.33252 384.48 
L 540.928005 384.48 
z
" clip-path="url(#pdbc82ff6bc)" style="fill: #1f77b4"/>
   </g>
   <g id="patch_29">
    <path d="M 557.95058 384.48 
L 561.355095 384.48 
L 561.355095 384.48 
L 557.95058 384.48 
z
" clip-path="url(#pdbc82ff6bc)" style="fill: #1f77b4"/>
   </g>
   <g id="patch_30">
    <path d="M 574.973154 384.48 
L 578.377669 384.48 
L 578.377669 384.48 
L 574.973154 384.48 
z
" clip-path="url(#pdbc82ff6bc)" style="fill: #1f77b4"/>
   </g>
   <g id="patch_31">
    <path d="M 591.995729 384.48 
L 595.400244 384.48 
L 595.400244 384.48 
L 591.995729 384.48 
z
" clip-path="url(#pdbc82ff6bc)" style="fill: #1f77b4"/>
   </g>
   <g id="patch_32">
    <path d="M 609.018304 384.48 
L 612.422819 384.48 
L 612.422819 384.48 
L 609.018304 384.48 
z
" clip-path="url(#pdbc82ff6bc)" style="fill: #1f77b4"/>
   </g>
   <g id="patch_33">
    <path d="M 118.768151 384.48 
L 122.172666 384.48 
L 122.172666 384.48 
L 118.768151 384.48 
z
" clip-path="url(#pdbc82ff6bc)" style="fill: #ff7f0e"/>
   </g>
   <g id="patch_34">
    <path d="M 135.790726 384.48 
L 139.195241 384.48 
L 139.195241 384.48 
L 135.790726 384.48 
z
" clip-path="url(#pdbc82ff6bc)" style="fill: #ff7f0e"/>
   </g>
   <g id="patch_35">
    <path d="M 152.813301 384.48 
L 156.217816 384.48 
L 156.217816 384.48 
L 152.813301 384.48 
z
" clip-path="url(#pdbc82ff6bc)" style="fill: #ff7f0e"/>
   </g>
   <g id="patch_36">
    <path d="M 169.835876 384.48 
L 173.24039 384.48 
L 173.24039 384.48 
L 169.835876 384.48 
z
" clip-path="url(#pdbc82ff6bc)" style="fill: #ff7f0e"/>
   </g>
   <g id="patch_37">
    <path d="M 186.85845 384.48 
L 190.262965 384.48 
L 190.262965 384.48 
L 186.85845 384.48 
z
" clip-path="url(#pdbc82ff6bc)" style="fill: #ff7f0e"/>
   </g>
   <g id="patch_38">
    <path d="M 203.881025 384.48 
L 207.28554 384.48 
L 207.28554 384.48 
L 203.881025 384.48 
z
" clip-path="url(#pdbc82ff6bc)" style="fill: #ff7f0e"/>
   </g>
   <g id="patch_39">
    <path d="M 220.9036 384.48 
L 224.308115 384.48 
L 224.308115 384.48 
L 220.9036 384.48 
z
" clip-path="url(#pdbc82ff6bc)" style="fill: #ff7f0e"/>
   </g>
   <g id="patch_40">
    <path d="M 237.926174 384.48 
L 241.330689 384.48 
L 241.330689 67.68 
L 237.926174 67.68 
z
" clip-path="url(#pdbc82ff6bc)" style="fill: #ff7f0e"/>
   </g>
   <g id="patch_41">
    <path d="M 254.948749 384.48 
L 258.353264 384.48 
L 258.353264 384.48 
L 254.948749 384.48 
z
" clip-path="url(#pdbc82ff6bc)" style="fill: #ff7f0e"/>
   </g>
   <g id="patch_42">
    <path d="M 271.971324 384.48 
L 275.375839 384.48 
L 275.375839 384.48 
L 271.971324 384.48 
z
" clip-path="url(#pdbc82ff6bc)" style="fill: #ff7f0e"/>
   </g>
   <g id="patch_43">
    <path d="M 288.993899 384.48 
L 292.398414 384.48 
L 292.398414 384.48 
L 288.993899 384.48 
z
" clip-path="url(#pdbc82ff6bc)" style="fill: #ff7f0e"/>
   </g>
   <g id="patch_44">
    <path d="M 306.016473 384.48 
L 309.420988 384.48 
L 309.420988 384.48 
L 306.016473 384.48 
z
" clip-path="url(#pdbc82ff6bc)" style="fill: #ff7f0e"/>
   </g>
   <g id="patch_45">
    <path d="M 323.039048 384.48 
L 326.443563 384.48 
L 326.443563 384.48 
L 323.039048 384.48 
z
" clip-path="url(#pdbc82ff6bc)" style="fill: #ff7f0e"/>
   </g>
   <g id="patch_46">
    <path d="M 340.061623 384.48 
L 343.466138 384.48 
L 343.466138 384.48 
L 340.061623 384.48 
z
" clip-path="url(#pdbc82ff6bc)" style="fill: #ff7f0e"/>
   </g>
   <g id="patch_47">
    <path d="M 357.084198 384.48 
L 360.488713 384.48 
L 360.488713 384.48 
L 357.084198 384.48 
z
" clip-path="url(#pdbc82ff6bc)" style="fill: #ff7f0e"/>
   </g>
   <g id="patch_48">
    <path d="M 374.106772 384.48 
L 377.511287 384.48 
L 377.511287 384.48 
L 374.106772 384.48 
z
" clip-path="url(#pdbc82ff6bc)" style="fill: #ff7f0e"/>
   </g>
   <g id="patch_49">
    <path d="M 391.129347 384.48 
L 394.533862 384.48 
L 394.533862 384.48 
L 391.129347 384.48 
z
" clip-path="url(#pdbc82ff6bc)" style="fill: #ff7f0e"/>
   </g>
   <g id="patch_50">
    <path d="M 408.151922 384.48 
L 411.556437 384.48 
L 411.556437 384.48 
L 408.151922 384.48 
z
" clip-path="url(#pdbc82ff6bc)" style="fill: #ff7f0e"/>
   </g>
   <g id="patch_51">
    <path d="M 425.174497 384.48 
L 428.579012 384.48 
L 428.579012 384.48 
L 425.174497 384.48 
z
" clip-path="url(#pdbc82ff6bc)" style="fill: #ff7f0e"/>
   </g>
   <g id="patch_52">
    <path d="M 442.197071 384.48 
L 445.601586 384.48 
L 445.601586 384.48 
L 442.197071 384.48 
z
" clip-path="url(#pdbc82ff6bc)" style="fill: #ff7f0e"/>
   </g>
   <g id="patch_53">
    <path d="M 459.219646 384.48 
L 462.624161 384.48 
L 462.624161 384.48 
L 459.219646 384.48 
z
" clip-path="url(#pdbc82ff6bc)" style="fill: #ff7f0e"/>
   </g>
   <g id="patch_54">
    <path d="M 476.242221 384.48 
L 479.646736 384.48 
L 479.646736 384.48 
L 476.242221 384.48 
z
" clip-path="url(#pdbc82ff6bc)" style="fill: #ff7f0e"/>
   </g>
   <g id="patch_55">
    <path d="M 493.264796 384.48 
L 496.669311 384.48 
L 496.669311 384.48 
L 493.264796 384.48 
z
" clip-path="url(#pdbc82ff6bc)" style="fill: #ff7f0e"/>
   </g>
   <g id="patch_56">
    <path d="M 510.28737 384.48 
L 513.691885 384.48 
L 513.691885 384.48 
L 510.28737 384.48 
z
" clip-path="url(#pdbc82ff6bc)" style="fill: #ff7f0e"/>
   </g>
   <g id="patch_57">
    <path d="M 527.309945 384.48 
L 530.71446 384.48 
L 530.71446 384.48 
L 527.309945 384.48 
z
" clip-path="url(#pdbc82ff6bc)" style="fill: #ff7f0e"/>
   </g>
   <g id="patch_58">
    <path d="M 544.33252 384.48 
L 547.737035 384.48 
L 547.737035 384.48 
L 544.33252 384.48 
z
" clip-path="url(#pdbc82ff6bc)" style="fill: #ff7f0e"/>
   </g>
   <g id="patch_59">
    <path d="M 561.355095 384.48 
L 564.75961 384.48 
L 564.75961 384.48 
L 561.355095 384.48 
z
" clip-path="url(#pdbc82ff6bc)" style="fill: #ff7f0e"/>
   </g>
   <g id="patch_60">
    <path d="M 578.377669 384.48 
L 581.782184 384.48 
L 581.782184 384.48 
L 578.377669 384.48 
z
" clip-path="url(#pdbc82ff6bc)" style="fill: #ff7f0e"/>
   </g>
   <g id="patch_61">
    <path d="M 595.400244 384.48 
L 598.804759 384.48 
L 598.804759 384.48 
L 595.400244 384.48 
z
" clip-path="url(#pdbc82ff6bc)" style="fill: #ff7f0e"/>
   </g>
   <g id="patch_62">
    <path d="M 612.422819 384.48 
L 615.827334 384.48 
L 615.827334 384.48 
L 612.422819 384.48 
z
" clip-path="url(#pdbc82ff6bc)" style="fill: #ff7f0e"/>
   </g>
   <g id="patch_63">
    <path d="M 122.172666 384.48 
L 125.577181 384.48 
L 125.577181 384.44832 
L 122.172666 384.44832 
z
" clip-path="url(#pdbc82ff6bc)" style="fill: #2ca02c"/>
   </g>
   <g id="patch_64">
    <path d="M 139.195241 384.48 
L 142.599756 384.48 
L 142.599756 384.35328 
L 139.195241 384.35328 
z
" clip-path="url(#pdbc82ff6bc)" style="fill: #2ca02c"/>
   </g>
   <g id="patch_65">
    <path d="M 156.217816 384.48 
L 159.622331 384.48 
L 159.622331 384.25824 
L 156.217816 384.25824 
z
" clip-path="url(#pdbc82ff6bc)" style="fill: #2ca02c"/>
   </g>
   <g id="patch_66">
    <path d="M 173.24039 384.48 
L 176.644905 384.48 
L 176.644905 383.94144 
L 173.24039 383.94144 
z
" clip-path="url(#pdbc82ff6bc)" style="fill: #2ca02c"/>
   </g>
   <g id="patch_67">
    <path d="M 190.262965 384.48 
L 193.66748 384.48 
L 193.66748 383.14944 
L 190.262965 383.14944 
z
" clip-path="url(#pdbc82ff6bc)" style="fill: #2ca02c"/>
   </g>
   <g id="patch_68">
    <path d="M 207.28554 384.48 
L 210.690055 384.48 
L 210.690055 381.37536 
L 207.28554 381.37536 
z
" clip-path="url(#pdbc82ff6bc)" style="fill: #2ca02c"/>
   </g>
   <g id="patch_69">
    <path d="M 224.308115 384.48 
L 227.71263 384.48 
L 227.71263 378.39744 
L 224.308115 378.39744 
z
" clip-path="url(#pdbc82ff6bc)" style="fill: #2ca02c"/>
   </g>
   <g id="patch_70">
    <path d="M 241.330689 384.48 
L 244.735204 384.48 
L 244.735204 375.03936 
L 241.330689 375.03936 
z
" clip-path="url(#pdbc82ff6bc)" style="fill: #2ca02c"/>
   </g>
   <g id="patch_71">
    <path d="M 258.353264 384.48 
L 261.757779 384.48 
L 261.757779 368.89344 
L 258.353264 368.89344 
z
" clip-path="url(#pdbc82ff6bc)" style="fill: #2ca02c"/>
   </g>
   <g id="patch_72">
    <path d="M 275.375839 384.48 
L 278.780354 384.48 
L 278.780354 362.01888 
L 275.375839 362.01888 
z
" clip-path="url(#pdbc82ff6bc)" style="fill: #2ca02c"/>
   </g>
   <g id="patch_73">
    <path d="M 292.398414 384.48 
L 295.802929 384.48 
L 295.802929 357.52032 
L 292.398414 357.52032 
z
" clip-path="url(#pdbc82ff6bc)" style="fill: #2ca02c"/>
   </g>
   <g id="patch_74">
    <path d="M 309.420988 384.48 
L 312.825503 384.48 
L 312.825503 353.18016 
L 309.420988 353.18016 
z
" clip-path="url(#pdbc82ff6bc)" style="fill: #2ca02c"/>
   </g>
   <g id="patch_75">
    <path d="M 326.443563 384.48 
L 329.848078 384.48 
L 329.848078 351.72288 
L 326.443563 351.72288 
z
" clip-path="url(#pdbc82ff6bc)" style="fill: #2ca02c"/>
   </g>
   <g id="patch_76">
    <path d="M 343.466138 384.48 
L 346.870653 384.48 
L 346.870653 352.86336 
L 343.466138 352.86336 
z
" clip-path="url(#pdbc82ff6bc)" style="fill: #2ca02c"/>
   </g>
   <g id="patch_77">
    <path d="M 360.488713 384.48 
L 363.893228 384.48 
L 363.893228 353.84544 
L 360.488713 353.84544 
z
" clip-path="url(#pdbc82ff6bc)" style="fill: #2ca02c"/>
   </g>
   <g id="patch_78">
    <path d="M 377.511287 384.48 
L 380.915802 384.48 
L 380.915802 358.78752 
L 377.511287 358.78752 
z
" clip-path="url(#pdbc82ff6bc)" style="fill: #2ca02c"/>
   </g>
   <g id="patch_79">
    <path d="M 394.533862 384.48 
L 397.938377 384.48 
L 397.938377 363.50784 
L 394.533862 363.50784 
z
" clip-path="url(#pdbc82ff6bc)" style="fill: #2ca02c"/>
   </g>
   <g id="patch_80">
    <path d="M 411.556437 384.48 
L 414.960952 384.48 
L 414.960952 367.30944 
L 411.556437 367.30944 
z
" clip-path="url(#pdbc82ff6bc)" style="fill: #2ca02c"/>
   </g>
   <g id="patch_81">
    <path d="M 428.579012 384.48 
L 431.983527 384.48 
L 431.983527 370.88928 
L 428.579012 370.88928 
z
" clip-path="url(#pdbc82ff6bc)" style="fill: #2ca02c"/>
   </g>
   <g id="patch_82">
    <path d="M 445.601586 384.48 
L 449.006101 384.48 
L 449.006101 374.43744 
L 445.601586 374.43744 
z
" clip-path="url(#pdbc82ff6bc)" style="fill: #2ca02c"/>
   </g>
   <g id="patch_83">
    <path d="M 462.624161 384.48 
L 466.028676 384.48 
L 466.028676 378.84096 
L 462.624161 378.84096 
z
" clip-path="url(#pdbc82ff6bc)" style="fill: #2ca02c"/>
   </g>
   <g id="patch_84">
    <path d="M 479.646736 384.48 
L 483.051251 384.48 
L 483.051251 380.26656 
L 479.646736 380.26656 
z
" clip-path="url(#pdbc82ff6bc)" style="fill: #2ca02c"/>
   </g>
   <g id="patch_85">
    <path d="M 496.669311 384.48 
L 500.073826 384.48 
L 500.073826 381.7872 
L 496.669311 381.7872 
z
" clip-path="url(#pdbc82ff6bc)" style="fill: #2ca02c"/>
   </g>
   <g id="patch_86">
    <path d="M 513.691885 384.48 
L 517.0964 384.48 
L 517.0964 382.64256 
L 513.691885 382.64256 
z
" clip-path="url(#pdbc82ff6bc)" style="fill: #2ca02c"/>
   </g>
   <g id="patch_87">
    <path d="M 530.71446 384.48 
L 534.118975 384.48 
L 534.118975 383.40288 
L 530.71446 383.40288 
z
" clip-path="url(#pdbc82ff6bc)" style="fill: #2ca02c"/>
   </g>
   <g id="patch_88">
    <path d="M 547.737035 384.48 
L 551.14155 384.48 
L 551.14155 383.71968 
L 547.737035 383.71968 
z
" clip-path="url(#pdbc82ff6bc)" style="fill: #2ca02c"/>
   </g>
   <g id="patch_89">
    <path d="M 564.75961 384.48 
L 568.164124 384.48 
L 568.164124 383.97312 
L 564.75961 383.97312 
z
" clip-path="url(#pdbc82ff6bc)" style="fill: #2ca02c"/>
   </g>
   <g id="patch_90">
    <path d="M 581.782184 384.48 
L 585.186699 384.48 
L 585.186699 384.19488 
L 581.782184 384.19488 
z
" clip-path="url(#pdbc82ff6bc)" style="fill: #2ca02c"/>
   </g>
   <g id="patch_91">
    <path d="M 598.804759 384.48 
L 602.209274 384.48 
L 602.209274 384.41664 
L 598.804759 384.41664 
z
" clip-path="url(#pdbc82ff6bc)" style="fill: #2ca02c"/>
   </g>
   <g id="patch_92">
    <path d="M 615.827334 384.48 
L 619.231849 384.48 
L 619.231849 384.41664 
L 615.827334 384.41664 
z
" clip-path="url(#pdbc82ff6bc)" style="fill: #2ca02c"/>
   </g>
   <g id="patch_93">
    <path d="M 125.577181 384.48 
L 128.981696 384.48 
L 128.981696 384.41664 
L 125.577181 384.41664 
z
" clip-path="url(#pdbc82ff6bc)" style="fill: #d62728"/>
   </g>
   <g id="patch_94">
    <path d="M 142.599756 384.48 
L 146.004271 384.48 
L 146.004271 384.44832 
L 142.599756 384.44832 
z
" clip-path="url(#pdbc82ff6bc)" style="fill: #d62728"/>
   </g>
   <g id="patch_95">
    <path d="M 159.622331 384.48 
L 163.026846 384.48 
L 163.026846 384.38496 
L 159.622331 384.38496 
z
" clip-path="url(#pdbc82ff6bc)" style="fill: #d62728"/>
   </g>
   <g id="patch_96">
    <path d="M 176.644905 384.48 
L 180.04942 384.48 
L 180.04942 383.71968 
L 176.644905 383.71968 
z
" clip-path="url(#pdbc82ff6bc)" style="fill: #d62728"/>
   </g>
   <g id="patch_97">
    <path d="M 193.66748 384.48 
L 197.071995 384.48 
L 197.071995 382.76928 
L 193.66748 382.76928 
z
" clip-path="url(#pdbc82ff6bc)" style="fill: #d62728"/>
   </g>
   <g id="patch_98">
    <path d="M 210.690055 384.48 
L 214.09457 384.48 
L 214.09457 381.43872 
L 210.690055 381.43872 
z
" clip-path="url(#pdbc82ff6bc)" style="fill: #d62728"/>
   </g>
   <g id="patch_99">
    <path d="M 227.71263 384.48 
L 231.117145 384.48 
L 231.117145 378.80928 
L 227.71263 378.80928 
z
" clip-path="url(#pdbc82ff6bc)" style="fill: #d62728"/>
   </g>
   <g id="patch_100">
    <path d="M 244.735204 384.48 
L 248.139719 384.48 
L 248.139719 375.83136 
L 244.735204 375.83136 
z
" clip-path="url(#pdbc82ff6bc)" style="fill: #d62728"/>
   </g>
   <g id="patch_101">
    <path d="M 261.757779 384.48 
L 265.162294 384.48 
L 265.162294 369.65376 
L 261.757779 369.65376 
z
" clip-path="url(#pdbc82ff6bc)" style="fill: #d62728"/>
   </g>
   <g id="patch_102">
    <path d="M 278.780354 384.48 
L 282.184869 384.48 
L 282.184869 363.50784 
L 278.780354 363.50784 
z
" clip-path="url(#pdbc82ff6bc)" style="fill: #d62728"/>
   </g>
   <g id="patch_103">
    <path d="M 295.802929 384.48 
L 299.207444 384.48 
L 299.207444 359.35776 
L 295.802929 359.35776 
z
" clip-path="url(#pdbc82ff6bc)" style="fill: #d62728"/>
   </g>
   <g id="patch_104">
    <path d="M 312.825503 384.48 
L 316.230018 384.48 
L 316.230018 355.84128 
L 312.825503 355.84128 
z
" clip-path="url(#pdbc82ff6bc)" style="fill: #d62728"/>
   </g>
   <g id="patch_105">
    <path d="M 329.848078 384.48 
L 333.252593 384.48 
L 333.252593 353.40192 
L 329.848078 353.40192 
z
" clip-path="url(#pdbc82ff6bc)" style="fill: #d62728"/>
   </g>
   <g id="patch_106">
    <path d="M 346.870653 384.48 
L 350.275168 384.48 
L 350.275168 351.75456 
L 346.870653 351.75456 
z
" clip-path="url(#pdbc82ff6bc)" style="fill: #d62728"/>
   </g>
   <g id="patch_107">
    <path d="M 363.893228 384.48 
L 367.297743 384.48 
L 367.297743 354.79584 
L 363.893228 354.79584 
z
" clip-path="url(#pdbc82ff6bc)" style="fill: #d62728"/>
   </g>
   <g id="patch_108">
    <path d="M 380.915802 384.48 
L 384.320317 384.48 
L 384.320317 359.16768 
L 380.915802 359.16768 
z
" clip-path="url(#pdbc82ff6bc)" style="fill: #d62728"/>
   </g>
   <g id="patch_109">
    <path d="M 397.938377 384.48 
L 401.342892 384.48 
L 401.342892 361.57536 
L 397.938377 361.57536 
z
" clip-path="url(#pdbc82ff6bc)" style="fill: #d62728"/>
   </g>
   <g id="patch_110">
    <path d="M 414.960952 384.48 
L 418.365467 384.48 
L 418.365467 365.72544 
L 414.960952 365.72544 
z
" clip-path="url(#pdbc82ff6bc)" style="fill: #d62728"/>
   </g>
   <g id="patch_111">
    <path d="M 431.983527 384.48 
L 435.388041 384.48 
L 435.388041 370.3824 
L 431.983527 370.3824 
z
" clip-path="url(#pdbc82ff6bc)" style="fill: #d62728"/>
   </g>
   <g id="patch_112">
    <path d="M 449.006101 384.48 
L 452.410616 384.48 
L 452.410616 373.83552 
L 449.006101 373.83552 
z
" clip-path="url(#pdbc82ff6bc)" style="fill: #d62728"/>
   </g>
   <g id="patch_113">
    <path d="M 466.028676 384.48 
L 469.433191 384.48 
L 469.433191 376.75008 
L 466.028676 376.75008 
z
" clip-path="url(#pdbc82ff6bc)" style="fill: #d62728"/>
   </g>
   <g id="patch_114">
    <path d="M 483.051251 384.48 
L 486.455766 384.48 
L 486.455766 378.11232 
L 483.051251 378.11232 
z
" clip-path="url(#pdbc82ff6bc)" style="fill: #d62728"/>
   </g>
   <g id="patch_115">
    <path d="M 500.073826 384.48 
L 503.47834 384.48 
L 503.47834 381.40704 
L 500.073826 381.40704 
z
" clip-path="url(#pdbc82ff6bc)" style="fill: #d62728"/>
   </g>
   <g id="patch_116">
    <path d="M 517.0964 384.48 
L 520.500915 384.48 
L 520.500915 382.5792 
L 517.0964 382.5792 
z
" clip-path="url(#pdbc82ff6bc)" style="fill: #d62728"/>
   </g>
   <g id="patch_117">
    <path d="M 534.118975 384.48 
L 537.52349 384.48 
L 537.52349 383.11776 
L 534.118975 383.11776 
z
" clip-path="url(#pdbc82ff6bc)" style="fill: #d62728"/>
   </g>
   <g id="patch_118">
    <path d="M 551.14155 384.48 
L 554.546065 384.48 
L 554.546065 383.75136 
L 551.14155 383.75136 
z
" clip-path="url(#pdbc82ff6bc)" style="fill: #d62728"/>
   </g>
   <g id="patch_119">
    <path d="M 568.164124 384.48 
L 571.568639 384.48 
L 571.568639 384.03648 
L 568.164124 384.03648 
z
" clip-path="url(#pdbc82ff6bc)" style="fill: #d62728"/>
   </g>
   <g id="patch_120">
    <path d="M 585.186699 384.48 
L 588.591214 384.48 
L 588.591214 384.1632 
L 585.186699 384.1632 
z
" clip-path="url(#pdbc82ff6bc)" style="fill: #d62728"/>
   </g>
   <g id="patch_121">
    <path d="M 602.209274 384.48 
L 605.613789 384.48 
L 605.613789 384.44832 
L 602.209274 384.44832 
z
" clip-path="url(#pdbc82ff6bc)" style="fill: #d62728"/>
   </g>
   <g id="patch_122">
    <path d="M 619.231849 384.48 
L 622.636364 384.48 
L 622.636364 384.41664 
L 619.231849 384.41664 
z
" clip-path="url(#pdbc82ff6bc)" style="fill: #d62728"/>
   </g>
   <g id="matplotlib.axis_1">
    <g id="xtick_1">
     <g id="line2d_1">
      <path d="M 95.315272 384.48 
L 95.315272 51.84 
" clip-path="url(#pdbc82ff6bc)" style="fill: none; stroke: #b0b0b0; stroke-width: 0.8; stroke-linecap: square"/>
     </g>
     <g id="line2d_2">
      <defs>
       <path id="m31e9bd6c06" d="M 0 0 
L 0 3.5 
" style="stroke: #000000; stroke-width: 0.8"/>
      </defs>
      <g>
       <use xlink:href="#m31e9bd6c06" x="95.315272" y="384.48" style="stroke: #000000; stroke-width: 0.8"/>
      </g>
     </g>
     <g id="text_1">
      <!-- −0.0010 -->
      <g transform="translate(73.630116 399.078438) scale(0.1 -0.1)">
       <defs>
        <path id="DejaVuSans-2212" d="M 678 2272 
L 4684 2272 
L 4684 1741 
L 678 1741 
L 678 2272 
z
" transform="scale(0.015625)"/>
        <path id="DejaVuSans-30" d="M 2034 4250 
Q 1547 4250 1301 3770 
Q 1056 3291 1056 2328 
Q 1056 1369 1301 889 
Q 1547 409 2034 409 
Q 2525 409 2770 889 
Q 3016 1369 3016 2328 
Q 3016 3291 2770 3770 
Q 2525 4250 2034 4250 
z
M 2034 4750 
Q 2819 4750 3233 4129 
Q 3647 3509 3647 2328 
Q 3647 1150 3233 529 
Q 2819 -91 2034 -91 
Q 1250 -91 836 529 
Q 422 1150 422 2328 
Q 422 3509 836 4129 
Q 1250 4750 2034 4750 
z
" transform="scale(0.015625)"/>
        <path id="DejaVuSans-2e" d="M 684 794 
L 1344 794 
L 1344 0 
L 684 0 
L 684 794 
z
" transform="scale(0.015625)"/>
        <path id="DejaVuSans-31" d="M 794 531 
L 1825 531 
L 1825 4091 
L 703 3866 
L 703 4441 
L 1819 4666 
L 2450 4666 
L 2450 531 
L 3481 531 
L 3481 0 
L 794 0 
L 794 531 
z
" transform="scale(0.015625)"/>
       </defs>
       <use xlink:href="#DejaVuSans-2212"/>
       <use xlink:href="#DejaVuSans-30" transform="translate(83.789062 0)"/>
       <use xlink:href="#DejaVuSans-2e" transform="translate(147.412109 0)"/>
       <use xlink:href="#DejaVuSans-30" transform="translate(179.199219 0)"/>
       <use xlink:href="#DejaVuSans-30" transform="translate(242.822266 0)"/>
       <use xlink:href="#DejaVuSans-31" transform="translate(306.445312 0)"/>
       <use xlink:href="#DejaVuSans-30" transform="translate(370.068359 0)"/>
      </g>
     </g>
    </g>
    <g id="xtick_2">
     <g id="line2d_3">
      <path d="M 167.987079 384.48 
L 167.987079 51.84 
" clip-path="url(#pdbc82ff6bc)" style="fill: none; stroke: #b0b0b0; stroke-width: 0.8; stroke-linecap: square"/>
     </g>
     <g id="line2d_4">
      <g>
       <use xlink:href="#m31e9bd6c06" x="167.987079" y="384.48" style="stroke: #000000; stroke-width: 0.8"/>
      </g>
     </g>
     <g id="text_2">
      <!-- −0.0005 -->
      <g transform="translate(146.301922 399.078438) scale(0.1 -0.1)">
       <defs>
        <path id="DejaVuSans-35" d="M 691 4666 
L 3169 4666 
L 3169 4134 
L 1269 4134 
L 1269 2991 
Q 1406 3038 1543 3061 
Q 1681 3084 1819 3084 
Q 2600 3084 3056 2656 
Q 3513 2228 3513 1497 
Q 3513 744 3044 326 
Q 2575 -91 1722 -91 
Q 1428 -91 1123 -41 
Q 819 9 494 109 
L 494 744 
Q 775 591 1075 516 
Q 1375 441 1709 441 
Q 2250 441 2565 725 
Q 2881 1009 2881 1497 
Q 2881 1984 2565 2268 
Q 2250 2553 1709 2553 
Q 1456 2553 1204 2497 
Q 953 2441 691 2322 
L 691 4666 
z
" transform="scale(0.015625)"/>
       </defs>
       <use xlink:href="#DejaVuSans-2212"/>
       <use xlink:href="#DejaVuSans-30" transform="translate(83.789062 0)"/>
       <use xlink:href="#DejaVuSans-2e" transform="translate(147.412109 0)"/>
       <use xlink:href="#DejaVuSans-30" transform="translate(179.199219 0)"/>
       <use xlink:href="#DejaVuSans-30" transform="translate(242.822266 0)"/>
       <use xlink:href="#DejaVuSans-30" transform="translate(306.445312 0)"/>
       <use xlink:href="#DejaVuSans-35" transform="translate(370.068359 0)"/>
      </g>
     </g>
    </g>
    <g id="xtick_3">
     <g id="line2d_5">
      <path d="M 240.658885 384.48 
L 240.658885 51.84 
" clip-path="url(#pdbc82ff6bc)" style="fill: none; stroke: #b0b0b0; stroke-width: 0.8; stroke-linecap: square"/>
     </g>
     <g id="line2d_6">
      <g>
       <use xlink:href="#m31e9bd6c06" x="240.658885" y="384.48" style="stroke: #000000; stroke-width: 0.8"/>
      </g>
     </g>
     <g id="text_3">
      <!-- 0.0000 -->
      <g transform="translate(223.163573 399.078438) scale(0.1 -0.1)">
       <use xlink:href="#DejaVuSans-30"/>
       <use xlink:href="#DejaVuSans-2e" transform="translate(63.623047 0)"/>
       <use xlink:href="#DejaVuSans-30" transform="translate(95.410156 0)"/>
       <use xlink:href="#DejaVuSans-30" transform="translate(159.033203 0)"/>
       <use xlink:href="#DejaVuSans-30" transform="translate(222.65625 0)"/>
       <use xlink:href="#DejaVuSans-30" transform="translate(286.279297 0)"/>
      </g>
     </g>
    </g>
    <g id="xtick_4">
     <g id="line2d_7">
      <path d="M 313.330692 384.48 
L 313.330692 51.84 
" clip-path="url(#pdbc82ff6bc)" style="fill: none; stroke: #b0b0b0; stroke-width: 0.8; stroke-linecap: square"/>
     </g>
     <g id="line2d_8">
      <g>
       <use xlink:href="#m31e9bd6c06" x="313.330692" y="384.48" style="stroke: #000000; stroke-width: 0.8"/>
      </g>
     </g>
     <g id="text_4">
      <!-- 0.0005 -->
      <g transform="translate(295.835379 399.078438) scale(0.1 -0.1)">
       <use xlink:href="#DejaVuSans-30"/>
       <use xlink:href="#DejaVuSans-2e" transform="translate(63.623047 0)"/>
       <use xlink:href="#DejaVuSans-30" transform="translate(95.410156 0)"/>
       <use xlink:href="#DejaVuSans-30" transform="translate(159.033203 0)"/>
       <use xlink:href="#DejaVuSans-30" transform="translate(222.65625 0)"/>
       <use xlink:href="#DejaVuSans-35" transform="translate(286.279297 0)"/>
      </g>
     </g>
    </g>
    <g id="xtick_5">
     <g id="line2d_9">
      <path d="M 386.002498 384.48 
L 386.002498 51.84 
" clip-path="url(#pdbc82ff6bc)" style="fill: none; stroke: #b0b0b0; stroke-width: 0.8; stroke-linecap: square"/>
     </g>
     <g id="line2d_10">
      <g>
       <use xlink:href="#m31e9bd6c06" x="386.002498" y="384.48" style="stroke: #000000; stroke-width: 0.8"/>
      </g>
     </g>
     <g id="text_5">
      <!-- 0.0010 -->
      <g transform="translate(368.507186 399.078438) scale(0.1 -0.1)">
       <use xlink:href="#DejaVuSans-30"/>
       <use xlink:href="#DejaVuSans-2e" transform="translate(63.623047 0)"/>
       <use xlink:href="#DejaVuSans-30" transform="translate(95.410156 0)"/>
       <use xlink:href="#DejaVuSans-30" transform="translate(159.033203 0)"/>
       <use xlink:href="#DejaVuSans-31" transform="translate(222.65625 0)"/>
       <use xlink:href="#DejaVuSans-30" transform="translate(286.279297 0)"/>
      </g>
     </g>
    </g>
    <g id="xtick_6">
     <g id="line2d_11">
      <path d="M 458.674305 384.48 
L 458.674305 51.84 
" clip-path="url(#pdbc82ff6bc)" style="fill: none; stroke: #b0b0b0; stroke-width: 0.8; stroke-linecap: square"/>
     </g>
     <g id="line2d_12">
      <g>
       <use xlink:href="#m31e9bd6c06" x="458.674305" y="384.48" style="stroke: #000000; stroke-width: 0.8"/>
      </g>
     </g>
     <g id="text_6">
      <!-- 0.0015 -->
      <g transform="translate(441.178993 399.078438) scale(0.1 -0.1)">
       <use xlink:href="#DejaVuSans-30"/>
       <use xlink:href="#DejaVuSans-2e" transform="translate(63.623047 0)"/>
       <use xlink:href="#DejaVuSans-30" transform="translate(95.410156 0)"/>
       <use xlink:href="#DejaVuSans-30" transform="translate(159.033203 0)"/>
       <use xlink:href="#DejaVuSans-31" transform="translate(222.65625 0)"/>
       <use xlink:href="#DejaVuSans-35" transform="translate(286.279297 0)"/>
      </g>
     </g>
    </g>
    <g id="xtick_7">
     <g id="line2d_13">
      <path d="M 531.346112 384.48 
L 531.346112 51.84 
" clip-path="url(#pdbc82ff6bc)" style="fill: none; stroke: #b0b0b0; stroke-width: 0.8; stroke-linecap: square"/>
     </g>
     <g id="line2d_14">
      <g>
       <use xlink:href="#m31e9bd6c06" x="531.346112" y="384.48" style="stroke: #000000; stroke-width: 0.8"/>
      </g>
     </g>
     <g id="text_7">
      <!-- 0.0020 -->
      <g transform="translate(513.850799 399.078438) scale(0.1 -0.1)">
       <defs>
        <path id="DejaVuSans-32" d="M 1228 531 
L 3431 531 
L 3431 0 
L 469 0 
L 469 531 
Q 828 903 1448 1529 
Q 2069 2156 2228 2338 
Q 2531 2678 2651 2914 
Q 2772 3150 2772 3378 
Q 2772 3750 2511 3984 
Q 2250 4219 1831 4219 
Q 1534 4219 1204 4116 
Q 875 4013 500 3803 
L 500 4441 
Q 881 4594 1212 4672 
Q 1544 4750 1819 4750 
Q 2544 4750 2975 4387 
Q 3406 4025 3406 3419 
Q 3406 3131 3298 2873 
Q 3191 2616 2906 2266 
Q 2828 2175 2409 1742 
Q 1991 1309 1228 531 
z
" transform="scale(0.015625)"/>
       </defs>
       <use xlink:href="#DejaVuSans-30"/>
       <use xlink:href="#DejaVuSans-2e" transform="translate(63.623047 0)"/>
       <use xlink:href="#DejaVuSans-30" transform="translate(95.410156 0)"/>
       <use xlink:href="#DejaVuSans-30" transform="translate(159.033203 0)"/>
       <use xlink:href="#DejaVuSans-32" transform="translate(222.65625 0)"/>
       <use xlink:href="#DejaVuSans-30" transform="translate(286.279297 0)"/>
      </g>
     </g>
    </g>
    <g id="xtick_8">
     <g id="line2d_15">
      <path d="M 604.017918 384.48 
L 604.017918 51.84 
" clip-path="url(#pdbc82ff6bc)" style="fill: none; stroke: #b0b0b0; stroke-width: 0.8; stroke-linecap: square"/>
     </g>
     <g id="line2d_16">
      <g>
       <use xlink:href="#m31e9bd6c06" x="604.017918" y="384.48" style="stroke: #000000; stroke-width: 0.8"/>
      </g>
     </g>
     <g id="text_8">
      <!-- 0.0025 -->
      <g transform="translate(586.522606 399.078438) scale(0.1 -0.1)">
       <use xlink:href="#DejaVuSans-30"/>
       <use xlink:href="#DejaVuSans-2e" transform="translate(63.623047 0)"/>
       <use xlink:href="#DejaVuSans-30" transform="translate(95.410156 0)"/>
       <use xlink:href="#DejaVuSans-30" transform="translate(159.033203 0)"/>
       <use xlink:href="#DejaVuSans-32" transform="translate(222.65625 0)"/>
       <use xlink:href="#DejaVuSans-35" transform="translate(286.279297 0)"/>
      </g>
     </g>
    </g>
    <g id="text_9">
     <!-- Average Reward -->
     <g transform="translate(328.257031 412.756563) scale(0.1 -0.1)">
      <defs>
       <path id="DejaVuSans-41" d="M 2188 4044 
L 1331 1722 
L 3047 1722 
L 2188 4044 
z
M 1831 4666 
L 2547 4666 
L 4325 0 
L 3669 0 
L 3244 1197 
L 1141 1197 
L 716 0 
L 50 0 
L 1831 4666 
z
" transform="scale(0.015625)"/>
       <path id="DejaVuSans-76" d="M 191 3500 
L 800 3500 
L 1894 563 
L 2988 3500 
L 3597 3500 
L 2284 0 
L 1503 0 
L 191 3500 
z
" transform="scale(0.015625)"/>
       <path id="DejaVuSans-65" d="M 3597 1894 
L 3597 1613 
L 953 1613 
Q 991 1019 1311 708 
Q 1631 397 2203 397 
Q 2534 397 2845 478 
Q 3156 559 3463 722 
L 3463 178 
Q 3153 47 2828 -22 
Q 2503 -91 2169 -91 
Q 1331 -91 842 396 
Q 353 884 353 1716 
Q 353 2575 817 3079 
Q 1281 3584 2069 3584 
Q 2775 3584 3186 3129 
Q 3597 2675 3597 1894 
z
M 3022 2063 
Q 3016 2534 2758 2815 
Q 2500 3097 2075 3097 
Q 1594 3097 1305 2825 
Q 1016 2553 972 2059 
L 3022 2063 
z
" transform="scale(0.015625)"/>
       <path id="DejaVuSans-72" d="M 2631 2963 
Q 2534 3019 2420 3045 
Q 2306 3072 2169 3072 
Q 1681 3072 1420 2755 
Q 1159 2438 1159 1844 
L 1159 0 
L 581 0 
L 581 3500 
L 1159 3500 
L 1159 2956 
Q 1341 3275 1631 3429 
Q 1922 3584 2338 3584 
Q 2397 3584 2469 3576 
Q 2541 3569 2628 3553 
L 2631 2963 
z
" transform="scale(0.015625)"/>
       <path id="DejaVuSans-61" d="M 2194 1759 
Q 1497 1759 1228 1600 
Q 959 1441 959 1056 
Q 959 750 1161 570 
Q 1363 391 1709 391 
Q 2188 391 2477 730 
Q 2766 1069 2766 1631 
L 2766 1759 
L 2194 1759 
z
M 3341 1997 
L 3341 0 
L 2766 0 
L 2766 531 
Q 2569 213 2275 61 
Q 1981 -91 1556 -91 
Q 1019 -91 701 211 
Q 384 513 384 1019 
Q 384 1609 779 1909 
Q 1175 2209 1959 2209 
L 2766 2209 
L 2766 2266 
Q 2766 2663 2505 2880 
Q 2244 3097 1772 3097 
Q 1472 3097 1187 3025 
Q 903 2953 641 2809 
L 641 3341 
Q 956 3463 1253 3523 
Q 1550 3584 1831 3584 
Q 2591 3584 2966 3190 
Q 3341 2797 3341 1997 
z
" transform="scale(0.015625)"/>
       <path id="DejaVuSans-67" d="M 2906 1791 
Q 2906 2416 2648 2759 
Q 2391 3103 1925 3103 
Q 1463 3103 1205 2759 
Q 947 2416 947 1791 
Q 947 1169 1205 825 
Q 1463 481 1925 481 
Q 2391 481 2648 825 
Q 2906 1169 2906 1791 
z
M 3481 434 
Q 3481 -459 3084 -895 
Q 2688 -1331 1869 -1331 
Q 1566 -1331 1297 -1286 
Q 1028 -1241 775 -1147 
L 775 -588 
Q 1028 -725 1275 -790 
Q 1522 -856 1778 -856 
Q 2344 -856 2625 -561 
Q 2906 -266 2906 331 
L 2906 616 
Q 2728 306 2450 153 
Q 2172 0 1784 0 
Q 1141 0 747 490 
Q 353 981 353 1791 
Q 353 2603 747 3093 
Q 1141 3584 1784 3584 
Q 2172 3584 2450 3431 
Q 2728 3278 2906 2969 
L 2906 3500 
L 3481 3500 
L 3481 434 
z
" transform="scale(0.015625)"/>
       <path id="DejaVuSans-20" transform="scale(0.015625)"/>
       <path id="DejaVuSans-52" d="M 2841 2188 
Q 3044 2119 3236 1894 
Q 3428 1669 3622 1275 
L 4263 0 
L 3584 0 
L 2988 1197 
Q 2756 1666 2539 1819 
Q 2322 1972 1947 1972 
L 1259 1972 
L 1259 0 
L 628 0 
L 628 4666 
L 2053 4666 
Q 2853 4666 3247 4331 
Q 3641 3997 3641 3322 
Q 3641 2881 3436 2590 
Q 3231 2300 2841 2188 
z
M 1259 4147 
L 1259 2491 
L 2053 2491 
Q 2509 2491 2742 2702 
Q 2975 2913 2975 3322 
Q 2975 3731 2742 3939 
Q 2509 4147 2053 4147 
L 1259 4147 
z
" transform="scale(0.015625)"/>
       <path id="DejaVuSans-77" d="M 269 3500 
L 844 3500 
L 1563 769 
L 2278 3500 
L 2956 3500 
L 3675 769 
L 4391 3500 
L 4966 3500 
L 4050 0 
L 3372 0 
L 2619 2869 
L 1863 0 
L 1184 0 
L 269 3500 
z
" transform="scale(0.015625)"/>
       <path id="DejaVuSans-64" d="M 2906 2969 
L 2906 4863 
L 3481 4863 
L 3481 0 
L 2906 0 
L 2906 525 
Q 2725 213 2448 61 
Q 2172 -91 1784 -91 
Q 1150 -91 751 415 
Q 353 922 353 1747 
Q 353 2572 751 3078 
Q 1150 3584 1784 3584 
Q 2172 3584 2448 3432 
Q 2725 3281 2906 2969 
z
M 947 1747 
Q 947 1113 1208 752 
Q 1469 391 1925 391 
Q 2381 391 2643 752 
Q 2906 1113 2906 1747 
Q 2906 2381 2643 2742 
Q 2381 3103 1925 3103 
Q 1469 3103 1208 2742 
Q 947 2381 947 1747 
z
" transform="scale(0.015625)"/>
      </defs>
      <use xlink:href="#DejaVuSans-41"/>
      <use xlink:href="#DejaVuSans-76" transform="translate(62.533203 0)"/>
      <use xlink:href="#DejaVuSans-65" transform="translate(121.712891 0)"/>
      <use xlink:href="#DejaVuSans-72" transform="translate(183.236328 0)"/>
      <use xlink:href="#DejaVuSans-61" transform="translate(224.349609 0)"/>
      <use xlink:href="#DejaVuSans-67" transform="translate(285.628906 0)"/>
      <use xlink:href="#DejaVuSans-65" transform="translate(349.105469 0)"/>
      <use xlink:href="#DejaVuSans-20" transform="translate(410.628906 0)"/>
      <use xlink:href="#DejaVuSans-52" transform="translate(442.416016 0)"/>
      <use xlink:href="#DejaVuSans-65" transform="translate(507.398438 0)"/>
      <use xlink:href="#DejaVuSans-77" transform="translate(568.921875 0)"/>
      <use xlink:href="#DejaVuSans-61" transform="translate(650.708984 0)"/>
      <use xlink:href="#DejaVuSans-72" transform="translate(711.988281 0)"/>
      <use xlink:href="#DejaVuSans-64" transform="translate(751.351562 0)"/>
     </g>
    </g>
   </g>
   <g id="matplotlib.axis_2">
    <g id="ytick_1">
     <g id="line2d_17">
      <path d="M 90 384.48 
L 648 384.48 
" clip-path="url(#pdbc82ff6bc)" style="fill: none; stroke: #b0b0b0; stroke-width: 0.8; stroke-linecap: square"/>
     </g>
     <g id="line2d_18">
      <defs>
       <path id="mffde15b448" d="M 0 0 
L -3.5 0 
" style="stroke: #000000; stroke-width: 0.8"/>
      </defs>
      <g>
       <use xlink:href="#mffde15b448" x="90" y="384.48" style="stroke: #000000; stroke-width: 0.8"/>
      </g>
     </g>
     <g id="text_10">
      <!-- 0 -->
      <g transform="translate(76.6375 388.279219) scale(0.1 -0.1)">
       <use xlink:href="#DejaVuSans-30"/>
      </g>
     </g>
    </g>
    <g id="ytick_2">
     <g id="line2d_19">
      <path d="M 90 321.12 
L 648 321.12 
" clip-path="url(#pdbc82ff6bc)" style="fill: none; stroke: #b0b0b0; stroke-width: 0.8; stroke-linecap: square"/>
     </g>
     <g id="line2d_20">
      <g>
       <use xlink:href="#mffde15b448" x="90" y="321.12" style="stroke: #000000; stroke-width: 0.8"/>
      </g>
     </g>
     <g id="text_11">
      <!-- 2000 -->
      <g transform="translate(57.55 324.919219) scale(0.1 -0.1)">
       <use xlink:href="#DejaVuSans-32"/>
       <use xlink:href="#DejaVuSans-30" transform="translate(63.623047 0)"/>
       <use xlink:href="#DejaVuSans-30" transform="translate(127.246094 0)"/>
       <use xlink:href="#DejaVuSans-30" transform="translate(190.869141 0)"/>
      </g>
     </g>
    </g>
    <g id="ytick_3">
     <g id="line2d_21">
      <path d="M 90 257.76 
L 648 257.76 
" clip-path="url(#pdbc82ff6bc)" style="fill: none; stroke: #b0b0b0; stroke-width: 0.8; stroke-linecap: square"/>
     </g>
     <g id="line2d_22">
      <g>
       <use xlink:href="#mffde15b448" x="90" y="257.76" style="stroke: #000000; stroke-width: 0.8"/>
      </g>
     </g>
     <g id="text_12">
      <!-- 4000 -->
      <g transform="translate(57.55 261.559219) scale(0.1 -0.1)">
       <defs>
        <path id="DejaVuSans-34" d="M 2419 4116 
L 825 1625 
L 2419 1625 
L 2419 4116 
z
M 2253 4666 
L 3047 4666 
L 3047 1625 
L 3713 1625 
L 3713 1100 
L 3047 1100 
L 3047 0 
L 2419 0 
L 2419 1100 
L 313 1100 
L 313 1709 
L 2253 4666 
z
" transform="scale(0.015625)"/>
       </defs>
       <use xlink:href="#DejaVuSans-34"/>
       <use xlink:href="#DejaVuSans-30" transform="translate(63.623047 0)"/>
       <use xlink:href="#DejaVuSans-30" transform="translate(127.246094 0)"/>
       <use xlink:href="#DejaVuSans-30" transform="translate(190.869141 0)"/>
      </g>
     </g>
    </g>
    <g id="ytick_4">
     <g id="line2d_23">
      <path d="M 90 194.4 
L 648 194.4 
" clip-path="url(#pdbc82ff6bc)" style="fill: none; stroke: #b0b0b0; stroke-width: 0.8; stroke-linecap: square"/>
     </g>
     <g id="line2d_24">
      <g>
       <use xlink:href="#mffde15b448" x="90" y="194.4" style="stroke: #000000; stroke-width: 0.8"/>
      </g>
     </g>
     <g id="text_13">
      <!-- 6000 -->
      <g transform="translate(57.55 198.199219) scale(0.1 -0.1)">
       <defs>
        <path id="DejaVuSans-36" d="M 2113 2584 
Q 1688 2584 1439 2293 
Q 1191 2003 1191 1497 
Q 1191 994 1439 701 
Q 1688 409 2113 409 
Q 2538 409 2786 701 
Q 3034 994 3034 1497 
Q 3034 2003 2786 2293 
Q 2538 2584 2113 2584 
z
M 3366 4563 
L 3366 3988 
Q 3128 4100 2886 4159 
Q 2644 4219 2406 4219 
Q 1781 4219 1451 3797 
Q 1122 3375 1075 2522 
Q 1259 2794 1537 2939 
Q 1816 3084 2150 3084 
Q 2853 3084 3261 2657 
Q 3669 2231 3669 1497 
Q 3669 778 3244 343 
Q 2819 -91 2113 -91 
Q 1303 -91 875 529 
Q 447 1150 447 2328 
Q 447 3434 972 4092 
Q 1497 4750 2381 4750 
Q 2619 4750 2861 4703 
Q 3103 4656 3366 4563 
z
" transform="scale(0.015625)"/>
       </defs>
       <use xlink:href="#DejaVuSans-36"/>
       <use xlink:href="#DejaVuSans-30" transform="translate(63.623047 0)"/>
       <use xlink:href="#DejaVuSans-30" transform="translate(127.246094 0)"/>
       <use xlink:href="#DejaVuSans-30" transform="translate(190.869141 0)"/>
      </g>
     </g>
    </g>
    <g id="ytick_5">
     <g id="line2d_25">
      <path d="M 90 131.04 
L 648 131.04 
" clip-path="url(#pdbc82ff6bc)" style="fill: none; stroke: #b0b0b0; stroke-width: 0.8; stroke-linecap: square"/>
     </g>
     <g id="line2d_26">
      <g>
       <use xlink:href="#mffde15b448" x="90" y="131.04" style="stroke: #000000; stroke-width: 0.8"/>
      </g>
     </g>
     <g id="text_14">
      <!-- 8000 -->
      <g transform="translate(57.55 134.839219) scale(0.1 -0.1)">
       <defs>
        <path id="DejaVuSans-38" d="M 2034 2216 
Q 1584 2216 1326 1975 
Q 1069 1734 1069 1313 
Q 1069 891 1326 650 
Q 1584 409 2034 409 
Q 2484 409 2743 651 
Q 3003 894 3003 1313 
Q 3003 1734 2745 1975 
Q 2488 2216 2034 2216 
z
M 1403 2484 
Q 997 2584 770 2862 
Q 544 3141 544 3541 
Q 544 4100 942 4425 
Q 1341 4750 2034 4750 
Q 2731 4750 3128 4425 
Q 3525 4100 3525 3541 
Q 3525 3141 3298 2862 
Q 3072 2584 2669 2484 
Q 3125 2378 3379 2068 
Q 3634 1759 3634 1313 
Q 3634 634 3220 271 
Q 2806 -91 2034 -91 
Q 1263 -91 848 271 
Q 434 634 434 1313 
Q 434 1759 690 2068 
Q 947 2378 1403 2484 
z
M 1172 3481 
Q 1172 3119 1398 2916 
Q 1625 2713 2034 2713 
Q 2441 2713 2670 2916 
Q 2900 3119 2900 3481 
Q 2900 3844 2670 4047 
Q 2441 4250 2034 4250 
Q 1625 4250 1398 4047 
Q 1172 3844 1172 3481 
z
" transform="scale(0.015625)"/>
       </defs>
       <use xlink:href="#DejaVuSans-38"/>
       <use xlink:href="#DejaVuSans-30" transform="translate(63.623047 0)"/>
       <use xlink:href="#DejaVuSans-30" transform="translate(127.246094 0)"/>
       <use xlink:href="#DejaVuSans-30" transform="translate(190.869141 0)"/>
      </g>
     </g>
    </g>
    <g id="ytick_6">
     <g id="line2d_27">
      <path d="M 90 67.68 
L 648 67.68 
" clip-path="url(#pdbc82ff6bc)" style="fill: none; stroke: #b0b0b0; stroke-width: 0.8; stroke-linecap: square"/>
     </g>
     <g id="line2d_28">
      <g>
       <use xlink:href="#mffde15b448" x="90" y="67.68" style="stroke: #000000; stroke-width: 0.8"/>
      </g>
     </g>
     <g id="text_15">
      <!-- 10000 -->
      <g transform="translate(51.1875 71.479219) scale(0.1 -0.1)">
       <use xlink:href="#DejaVuSans-31"/>
       <use xlink:href="#DejaVuSans-30" transform="translate(63.623047 0)"/>
       <use xlink:href="#DejaVuSans-30" transform="translate(127.246094 0)"/>
       <use xlink:href="#DejaVuSans-30" transform="translate(190.869141 0)"/>
       <use xlink:href="#DejaVuSans-30" transform="translate(254.492188 0)"/>
      </g>
     </g>
    </g>
    <g id="text_16">
     <!-- Average Reward -->
     <g transform="translate(45.107812 258.902969) rotate(-90) scale(0.1 -0.1)">
      <use xlink:href="#DejaVuSans-41"/>
      <use xlink:href="#DejaVuSans-76" transform="translate(62.533203 0)"/>
      <use xlink:href="#DejaVuSans-65" transform="translate(121.712891 0)"/>
      <use xlink:href="#DejaVuSans-72" transform="translate(183.236328 0)"/>
      <use xlink:href="#DejaVuSans-61" transform="translate(224.349609 0)"/>
      <use xlink:href="#DejaVuSans-67" transform="translate(285.628906 0)"/>
      <use xlink:href="#DejaVuSans-65" transform="translate(349.105469 0)"/>
      <use xlink:href="#DejaVuSans-20" transform="translate(410.628906 0)"/>
      <use xlink:href="#DejaVuSans-52" transform="translate(442.416016 0)"/>
      <use xlink:href="#DejaVuSans-65" transform="translate(507.398438 0)"/>
      <use xlink:href="#DejaVuSans-77" transform="translate(568.921875 0)"/>
      <use xlink:href="#DejaVuSans-61" transform="translate(650.708984 0)"/>
      <use xlink:href="#DejaVuSans-72" transform="translate(711.988281 0)"/>
      <use xlink:href="#DejaVuSans-64" transform="translate(751.351562 0)"/>
     </g>
    </g>
   </g>
   <g id="line2d_29">
    <path d="M 242.767329 384.48 
L 242.767329 51.84 
" clip-path="url(#pdbc82ff6bc)" style="fill: none; stroke-dasharray: 3.7,1.6; stroke-dashoffset: 0; stroke: #1f77b4"/>
   </g>
   <g id="line2d_30">
    <path d="M 241.727368 384.48 
L 241.727368 51.84 
" clip-path="url(#pdbc82ff6bc)" style="fill: none; stroke-dasharray: 3.7,1.6; stroke-dashoffset: 0; stroke: #ff7f0e"/>
   </g>
   <g id="line2d_31">
    <path d="M 343.553727 384.48 
L 343.553727 51.84 
" clip-path="url(#pdbc82ff6bc)" style="fill: none; stroke-dasharray: 3.7,1.6; stroke-dashoffset: 0; stroke: #2ca02c"/>
   </g>
   <g id="line2d_32">
    <path d="M 347.89754 384.48 
L 347.89754 51.84 
" clip-path="url(#pdbc82ff6bc)" style="fill: none; stroke-dasharray: 3.7,1.6; stroke-dashoffset: 0; stroke: #d62728"/>
   </g>
   <g id="patch_123">
    <path d="M 90 384.48 
L 90 51.84 
" style="fill: none; stroke: #000000; stroke-width: 0.8; stroke-linejoin: miter; stroke-linecap: square"/>
   </g>
   <g id="patch_124">
    <path d="M 648 384.48 
L 648 51.84 
" style="fill: none; stroke: #000000; stroke-width: 0.8; stroke-linejoin: miter; stroke-linecap: square"/>
   </g>
   <g id="patch_125">
    <path d="M 90 384.48 
L 648 384.48 
" style="fill: none; stroke: #000000; stroke-width: 0.8; stroke-linejoin: miter; stroke-linecap: square"/>
   </g>
   <g id="patch_126">
    <path d="M 90 51.84 
L 648 51.84 
" style="fill: none; stroke: #000000; stroke-width: 0.8; stroke-linejoin: miter; stroke-linecap: square"/>
   </g>
   <g id="text_17">
    <!-- Distribution of Average Rewards for Different Policies -->
    <g transform="translate(209.8425 45.84) scale(0.12 -0.12)">
     <defs>
      <path id="DejaVuSans-44" d="M 1259 4147 
L 1259 519 
L 2022 519 
Q 2988 519 3436 956 
Q 3884 1394 3884 2338 
Q 3884 3275 3436 3711 
Q 2988 4147 2022 4147 
L 1259 4147 
z
M 628 4666 
L 1925 4666 
Q 3281 4666 3915 4102 
Q 4550 3538 4550 2338 
Q 4550 1131 3912 565 
Q 3275 0 1925 0 
L 628 0 
L 628 4666 
z
" transform="scale(0.015625)"/>
      <path id="DejaVuSans-69" d="M 603 3500 
L 1178 3500 
L 1178 0 
L 603 0 
L 603 3500 
z
M 603 4863 
L 1178 4863 
L 1178 4134 
L 603 4134 
L 603 4863 
z
" transform="scale(0.015625)"/>
      <path id="DejaVuSans-73" d="M 2834 3397 
L 2834 2853 
Q 2591 2978 2328 3040 
Q 2066 3103 1784 3103 
Q 1356 3103 1142 2972 
Q 928 2841 928 2578 
Q 928 2378 1081 2264 
Q 1234 2150 1697 2047 
L 1894 2003 
Q 2506 1872 2764 1633 
Q 3022 1394 3022 966 
Q 3022 478 2636 193 
Q 2250 -91 1575 -91 
Q 1294 -91 989 -36 
Q 684 19 347 128 
L 347 722 
Q 666 556 975 473 
Q 1284 391 1588 391 
Q 1994 391 2212 530 
Q 2431 669 2431 922 
Q 2431 1156 2273 1281 
Q 2116 1406 1581 1522 
L 1381 1569 
Q 847 1681 609 1914 
Q 372 2147 372 2553 
Q 372 3047 722 3315 
Q 1072 3584 1716 3584 
Q 2034 3584 2315 3537 
Q 2597 3491 2834 3397 
z
" transform="scale(0.015625)"/>
      <path id="DejaVuSans-74" d="M 1172 4494 
L 1172 3500 
L 2356 3500 
L 2356 3053 
L 1172 3053 
L 1172 1153 
Q 1172 725 1289 603 
Q 1406 481 1766 481 
L 2356 481 
L 2356 0 
L 1766 0 
Q 1100 0 847 248 
Q 594 497 594 1153 
L 594 3053 
L 172 3053 
L 172 3500 
L 594 3500 
L 594 4494 
L 1172 4494 
z
" transform="scale(0.015625)"/>
      <path id="DejaVuSans-62" d="M 3116 1747 
Q 3116 2381 2855 2742 
Q 2594 3103 2138 3103 
Q 1681 3103 1420 2742 
Q 1159 2381 1159 1747 
Q 1159 1113 1420 752 
Q 1681 391 2138 391 
Q 2594 391 2855 752 
Q 3116 1113 3116 1747 
z
M 1159 2969 
Q 1341 3281 1617 3432 
Q 1894 3584 2278 3584 
Q 2916 3584 3314 3078 
Q 3713 2572 3713 1747 
Q 3713 922 3314 415 
Q 2916 -91 2278 -91 
Q 1894 -91 1617 61 
Q 1341 213 1159 525 
L 1159 0 
L 581 0 
L 581 4863 
L 1159 4863 
L 1159 2969 
z
" transform="scale(0.015625)"/>
      <path id="DejaVuSans-75" d="M 544 1381 
L 544 3500 
L 1119 3500 
L 1119 1403 
Q 1119 906 1312 657 
Q 1506 409 1894 409 
Q 2359 409 2629 706 
Q 2900 1003 2900 1516 
L 2900 3500 
L 3475 3500 
L 3475 0 
L 2900 0 
L 2900 538 
Q 2691 219 2414 64 
Q 2138 -91 1772 -91 
Q 1169 -91 856 284 
Q 544 659 544 1381 
z
M 1991 3584 
L 1991 3584 
z
" transform="scale(0.015625)"/>
      <path id="DejaVuSans-6f" d="M 1959 3097 
Q 1497 3097 1228 2736 
Q 959 2375 959 1747 
Q 959 1119 1226 758 
Q 1494 397 1959 397 
Q 2419 397 2687 759 
Q 2956 1122 2956 1747 
Q 2956 2369 2687 2733 
Q 2419 3097 1959 3097 
z
M 1959 3584 
Q 2709 3584 3137 3096 
Q 3566 2609 3566 1747 
Q 3566 888 3137 398 
Q 2709 -91 1959 -91 
Q 1206 -91 779 398 
Q 353 888 353 1747 
Q 353 2609 779 3096 
Q 1206 3584 1959 3584 
z
" transform="scale(0.015625)"/>
      <path id="DejaVuSans-6e" d="M 3513 2113 
L 3513 0 
L 2938 0 
L 2938 2094 
Q 2938 2591 2744 2837 
Q 2550 3084 2163 3084 
Q 1697 3084 1428 2787 
Q 1159 2491 1159 1978 
L 1159 0 
L 581 0 
L 581 3500 
L 1159 3500 
L 1159 2956 
Q 1366 3272 1645 3428 
Q 1925 3584 2291 3584 
Q 2894 3584 3203 3211 
Q 3513 2838 3513 2113 
z
" transform="scale(0.015625)"/>
      <path id="DejaVuSans-66" d="M 2375 4863 
L 2375 4384 
L 1825 4384 
Q 1516 4384 1395 4259 
Q 1275 4134 1275 3809 
L 1275 3500 
L 2222 3500 
L 2222 3053 
L 1275 3053 
L 1275 0 
L 697 0 
L 697 3053 
L 147 3053 
L 147 3500 
L 697 3500 
L 697 3744 
Q 697 4328 969 4595 
Q 1241 4863 1831 4863 
L 2375 4863 
z
" transform="scale(0.015625)"/>
      <path id="DejaVuSans-50" d="M 1259 4147 
L 1259 2394 
L 2053 2394 
Q 2494 2394 2734 2622 
Q 2975 2850 2975 3272 
Q 2975 3691 2734 3919 
Q 2494 4147 2053 4147 
L 1259 4147 
z
M 628 4666 
L 2053 4666 
Q 2838 4666 3239 4311 
Q 3641 3956 3641 3272 
Q 3641 2581 3239 2228 
Q 2838 1875 2053 1875 
L 1259 1875 
L 1259 0 
L 628 0 
L 628 4666 
z
" transform="scale(0.015625)"/>
      <path id="DejaVuSans-6c" d="M 603 4863 
L 1178 4863 
L 1178 0 
L 603 0 
L 603 4863 
z
" transform="scale(0.015625)"/>
      <path id="DejaVuSans-63" d="M 3122 3366 
L 3122 2828 
Q 2878 2963 2633 3030 
Q 2388 3097 2138 3097 
Q 1578 3097 1268 2742 
Q 959 2388 959 1747 
Q 959 1106 1268 751 
Q 1578 397 2138 397 
Q 2388 397 2633 464 
Q 2878 531 3122 666 
L 3122 134 
Q 2881 22 2623 -34 
Q 2366 -91 2075 -91 
Q 1284 -91 818 406 
Q 353 903 353 1747 
Q 353 2603 823 3093 
Q 1294 3584 2113 3584 
Q 2378 3584 2631 3529 
Q 2884 3475 3122 3366 
z
" transform="scale(0.015625)"/>
     </defs>
     <use xlink:href="#DejaVuSans-44"/>
     <use xlink:href="#DejaVuSans-69" transform="translate(77.001953 0)"/>
     <use xlink:href="#DejaVuSans-73" transform="translate(104.785156 0)"/>
     <use xlink:href="#DejaVuSans-74" transform="translate(156.884766 0)"/>
     <use xlink:href="#DejaVuSans-72" transform="translate(196.09375 0)"/>
     <use xlink:href="#DejaVuSans-69" transform="translate(237.207031 0)"/>
     <use xlink:href="#DejaVuSans-62" transform="translate(264.990234 0)"/>
     <use xlink:href="#DejaVuSans-75" transform="translate(328.466797 0)"/>
     <use xlink:href="#DejaVuSans-74" transform="translate(391.845703 0)"/>
     <use xlink:href="#DejaVuSans-69" transform="translate(431.054688 0)"/>
     <use xlink:href="#DejaVuSans-6f" transform="translate(458.837891 0)"/>
     <use xlink:href="#DejaVuSans-6e" transform="translate(520.019531 0)"/>
     <use xlink:href="#DejaVuSans-20" transform="translate(583.398438 0)"/>
     <use xlink:href="#DejaVuSans-6f" transform="translate(615.185547 0)"/>
     <use xlink:href="#DejaVuSans-66" transform="translate(676.367188 0)"/>
     <use xlink:href="#DejaVuSans-20" transform="translate(711.572266 0)"/>
     <use xlink:href="#DejaVuSans-41" transform="translate(743.359375 0)"/>
     <use xlink:href="#DejaVuSans-76" transform="translate(805.892578 0)"/>
     <use xlink:href="#DejaVuSans-65" transform="translate(865.072266 0)"/>
     <use xlink:href="#DejaVuSans-72" transform="translate(926.595703 0)"/>
     <use xlink:href="#DejaVuSans-61" transform="translate(967.708984 0)"/>
     <use xlink:href="#DejaVuSans-67" transform="translate(1028.988281 0)"/>
     <use xlink:href="#DejaVuSans-65" transform="translate(1092.464844 0)"/>
     <use xlink:href="#DejaVuSans-20" transform="translate(1153.988281 0)"/>
     <use xlink:href="#DejaVuSans-52" transform="translate(1185.775391 0)"/>
     <use xlink:href="#DejaVuSans-65" transform="translate(1250.757812 0)"/>
     <use xlink:href="#DejaVuSans-77" transform="translate(1312.28125 0)"/>
     <use xlink:href="#DejaVuSans-61" transform="translate(1394.068359 0)"/>
     <use xlink:href="#DejaVuSans-72" transform="translate(1455.347656 0)"/>
     <use xlink:href="#DejaVuSans-64" transform="translate(1494.710938 0)"/>
     <use xlink:href="#DejaVuSans-73" transform="translate(1558.1875 0)"/>
     <use xlink:href="#DejaVuSans-20" transform="translate(1610.287109 0)"/>
     <use xlink:href="#DejaVuSans-66" transform="translate(1642.074219 0)"/>
     <use xlink:href="#DejaVuSans-6f" transform="translate(1677.279297 0)"/>
     <use xlink:href="#DejaVuSans-72" transform="translate(1738.460938 0)"/>
     <use xlink:href="#DejaVuSans-20" transform="translate(1779.574219 0)"/>
     <use xlink:href="#DejaVuSans-44" transform="translate(1811.361328 0)"/>
     <use xlink:href="#DejaVuSans-69" transform="translate(1888.363281 0)"/>
     <use xlink:href="#DejaVuSans-66" transform="translate(1916.146484 0)"/>
     <use xlink:href="#DejaVuSans-66" transform="translate(1951.351562 0)"/>
     <use xlink:href="#DejaVuSans-65" transform="translate(1986.556641 0)"/>
     <use xlink:href="#DejaVuSans-72" transform="translate(2048.080078 0)"/>
     <use xlink:href="#DejaVuSans-65" transform="translate(2086.943359 0)"/>
     <use xlink:href="#DejaVuSans-6e" transform="translate(2148.466797 0)"/>
     <use xlink:href="#DejaVuSans-74" transform="translate(2211.845703 0)"/>
     <use xlink:href="#DejaVuSans-20" transform="translate(2251.054688 0)"/>
     <use xlink:href="#DejaVuSans-50" transform="translate(2282.841797 0)"/>
     <use xlink:href="#DejaVuSans-6f" transform="translate(2339.519531 0)"/>
     <use xlink:href="#DejaVuSans-6c" transform="translate(2400.701172 0)"/>
     <use xlink:href="#DejaVuSans-69" transform="translate(2428.484375 0)"/>
     <use xlink:href="#DejaVuSans-63" transform="translate(2456.267578 0)"/>
     <use xlink:href="#DejaVuSans-69" transform="translate(2511.248047 0)"/>
     <use xlink:href="#DejaVuSans-65" transform="translate(2539.03125 0)"/>
     <use xlink:href="#DejaVuSans-73" transform="translate(2600.554688 0)"/>
    </g>
   </g>
   <g id="legend_1">
    <g id="patch_127">
     <path d="M 454.659375 118.5525 
L 641 118.5525 
Q 643 118.5525 643 116.5525 
L 643 58.84 
Q 643 56.84 641 56.84 
L 454.659375 56.84 
Q 452.659375 56.84 452.659375 58.84 
L 452.659375 116.5525 
Q 452.659375 118.5525 454.659375 118.5525 
z
" style="fill: #ffffff; opacity: 0.8; stroke: #cccccc; stroke-linejoin: miter"/>
    </g>
    <g id="patch_128">
     <path d="M 456.659375 68.438438 
L 476.659375 68.438438 
L 476.659375 61.438438 
L 456.659375 61.438438 
z
" style="fill: #1f77b4"/>
    </g>
    <g id="text_18">
     <!-- Initial Policy -->
     <g transform="translate(484.659375 68.438438) scale(0.1 -0.1)">
      <defs>
       <path id="DejaVuSans-49" d="M 628 4666 
L 1259 4666 
L 1259 0 
L 628 0 
L 628 4666 
z
" transform="scale(0.015625)"/>
       <path id="DejaVuSans-79" d="M 2059 -325 
Q 1816 -950 1584 -1140 
Q 1353 -1331 966 -1331 
L 506 -1331 
L 506 -850 
L 844 -850 
Q 1081 -850 1212 -737 
Q 1344 -625 1503 -206 
L 1606 56 
L 191 3500 
L 800 3500 
L 1894 763 
L 2988 3500 
L 3597 3500 
L 2059 -325 
z
" transform="scale(0.015625)"/>
      </defs>
      <use xlink:href="#DejaVuSans-49"/>
      <use xlink:href="#DejaVuSans-6e" transform="translate(29.492188 0)"/>
      <use xlink:href="#DejaVuSans-69" transform="translate(92.871094 0)"/>
      <use xlink:href="#DejaVuSans-74" transform="translate(120.654297 0)"/>
      <use xlink:href="#DejaVuSans-69" transform="translate(159.863281 0)"/>
      <use xlink:href="#DejaVuSans-61" transform="translate(187.646484 0)"/>
      <use xlink:href="#DejaVuSans-6c" transform="translate(248.925781 0)"/>
      <use xlink:href="#DejaVuSans-20" transform="translate(276.708984 0)"/>
      <use xlink:href="#DejaVuSans-50" transform="translate(308.496094 0)"/>
      <use xlink:href="#DejaVuSans-6f" transform="translate(365.173828 0)"/>
      <use xlink:href="#DejaVuSans-6c" transform="translate(426.355469 0)"/>
      <use xlink:href="#DejaVuSans-69" transform="translate(454.138672 0)"/>
      <use xlink:href="#DejaVuSans-63" transform="translate(481.921875 0)"/>
      <use xlink:href="#DejaVuSans-79" transform="translate(536.902344 0)"/>
     </g>
    </g>
    <g id="patch_129">
     <path d="M 456.659375 83.116563 
L 476.659375 83.116563 
L 476.659375 76.116563 
L 456.659375 76.116563 
z
" style="fill: #ff7f0e"/>
    </g>
    <g id="text_19">
     <!-- Clipped Initial Policy -->
     <g transform="translate(484.659375 83.116563) scale(0.1 -0.1)">
      <defs>
       <path id="DejaVuSans-43" d="M 4122 4306 
L 4122 3641 
Q 3803 3938 3442 4084 
Q 3081 4231 2675 4231 
Q 1875 4231 1450 3742 
Q 1025 3253 1025 2328 
Q 1025 1406 1450 917 
Q 1875 428 2675 428 
Q 3081 428 3442 575 
Q 3803 722 4122 1019 
L 4122 359 
Q 3791 134 3420 21 
Q 3050 -91 2638 -91 
Q 1578 -91 968 557 
Q 359 1206 359 2328 
Q 359 3453 968 4101 
Q 1578 4750 2638 4750 
Q 3056 4750 3426 4639 
Q 3797 4528 4122 4306 
z
" transform="scale(0.015625)"/>
       <path id="DejaVuSans-70" d="M 1159 525 
L 1159 -1331 
L 581 -1331 
L 581 3500 
L 1159 3500 
L 1159 2969 
Q 1341 3281 1617 3432 
Q 1894 3584 2278 3584 
Q 2916 3584 3314 3078 
Q 3713 2572 3713 1747 
Q 3713 922 3314 415 
Q 2916 -91 2278 -91 
Q 1894 -91 1617 61 
Q 1341 213 1159 525 
z
M 3116 1747 
Q 3116 2381 2855 2742 
Q 2594 3103 2138 3103 
Q 1681 3103 1420 2742 
Q 1159 2381 1159 1747 
Q 1159 1113 1420 752 
Q 1681 391 2138 391 
Q 2594 391 2855 752 
Q 3116 1113 3116 1747 
z
" transform="scale(0.015625)"/>
      </defs>
      <use xlink:href="#DejaVuSans-43"/>
      <use xlink:href="#DejaVuSans-6c" transform="translate(69.824219 0)"/>
      <use xlink:href="#DejaVuSans-69" transform="translate(97.607422 0)"/>
      <use xlink:href="#DejaVuSans-70" transform="translate(125.390625 0)"/>
      <use xlink:href="#DejaVuSans-70" transform="translate(188.867188 0)"/>
      <use xlink:href="#DejaVuSans-65" transform="translate(252.34375 0)"/>
      <use xlink:href="#DejaVuSans-64" transform="translate(313.867188 0)"/>
      <use xlink:href="#DejaVuSans-20" transform="translate(377.34375 0)"/>
      <use xlink:href="#DejaVuSans-49" transform="translate(409.130859 0)"/>
      <use xlink:href="#DejaVuSans-6e" transform="translate(438.623047 0)"/>
      <use xlink:href="#DejaVuSans-69" transform="translate(502.001953 0)"/>
      <use xlink:href="#DejaVuSans-74" transform="translate(529.785156 0)"/>
      <use xlink:href="#DejaVuSans-69" transform="translate(568.994141 0)"/>
      <use xlink:href="#DejaVuSans-61" transform="translate(596.777344 0)"/>
      <use xlink:href="#DejaVuSans-6c" transform="translate(658.056641 0)"/>
      <use xlink:href="#DejaVuSans-20" transform="translate(685.839844 0)"/>
      <use xlink:href="#DejaVuSans-50" transform="translate(717.626953 0)"/>
      <use xlink:href="#DejaVuSans-6f" transform="translate(774.304688 0)"/>
      <use xlink:href="#DejaVuSans-6c" transform="translate(835.486328 0)"/>
      <use xlink:href="#DejaVuSans-69" transform="translate(863.269531 0)"/>
      <use xlink:href="#DejaVuSans-63" transform="translate(891.052734 0)"/>
      <use xlink:href="#DejaVuSans-79" transform="translate(946.033203 0)"/>
     </g>
    </g>
    <g id="patch_130">
     <path d="M 456.659375 97.794688 
L 476.659375 97.794688 
L 476.659375 90.794688 
L 456.659375 90.794688 
z
" style="fill: #2ca02c"/>
    </g>
    <g id="text_20">
     <!-- Best linear Policy (CMA-ES) -->
     <g transform="translate(484.659375 97.794688) scale(0.1 -0.1)">
      <defs>
       <path id="DejaVuSans-42" d="M 1259 2228 
L 1259 519 
L 2272 519 
Q 2781 519 3026 730 
Q 3272 941 3272 1375 
Q 3272 1813 3026 2020 
Q 2781 2228 2272 2228 
L 1259 2228 
z
M 1259 4147 
L 1259 2741 
L 2194 2741 
Q 2656 2741 2882 2914 
Q 3109 3088 3109 3444 
Q 3109 3797 2882 3972 
Q 2656 4147 2194 4147 
L 1259 4147 
z
M 628 4666 
L 2241 4666 
Q 2963 4666 3353 4366 
Q 3744 4066 3744 3513 
Q 3744 3084 3544 2831 
Q 3344 2578 2956 2516 
Q 3422 2416 3680 2098 
Q 3938 1781 3938 1306 
Q 3938 681 3513 340 
Q 3088 0 2303 0 
L 628 0 
L 628 4666 
z
" transform="scale(0.015625)"/>
       <path id="DejaVuSans-28" d="M 1984 4856 
Q 1566 4138 1362 3434 
Q 1159 2731 1159 2009 
Q 1159 1288 1364 580 
Q 1569 -128 1984 -844 
L 1484 -844 
Q 1016 -109 783 600 
Q 550 1309 550 2009 
Q 550 2706 781 3412 
Q 1013 4119 1484 4856 
L 1984 4856 
z
" transform="scale(0.015625)"/>
       <path id="DejaVuSans-4d" d="M 628 4666 
L 1569 4666 
L 2759 1491 
L 3956 4666 
L 4897 4666 
L 4897 0 
L 4281 0 
L 4281 4097 
L 3078 897 
L 2444 897 
L 1241 4097 
L 1241 0 
L 628 0 
L 628 4666 
z
" transform="scale(0.015625)"/>
       <path id="DejaVuSans-2d" d="M 313 2009 
L 1997 2009 
L 1997 1497 
L 313 1497 
L 313 2009 
z
" transform="scale(0.015625)"/>
       <path id="DejaVuSans-45" d="M 628 4666 
L 3578 4666 
L 3578 4134 
L 1259 4134 
L 1259 2753 
L 3481 2753 
L 3481 2222 
L 1259 2222 
L 1259 531 
L 3634 531 
L 3634 0 
L 628 0 
L 628 4666 
z
" transform="scale(0.015625)"/>
       <path id="DejaVuSans-53" d="M 3425 4513 
L 3425 3897 
Q 3066 4069 2747 4153 
Q 2428 4238 2131 4238 
Q 1616 4238 1336 4038 
Q 1056 3838 1056 3469 
Q 1056 3159 1242 3001 
Q 1428 2844 1947 2747 
L 2328 2669 
Q 3034 2534 3370 2195 
Q 3706 1856 3706 1288 
Q 3706 609 3251 259 
Q 2797 -91 1919 -91 
Q 1588 -91 1214 -16 
Q 841 59 441 206 
L 441 856 
Q 825 641 1194 531 
Q 1563 422 1919 422 
Q 2459 422 2753 634 
Q 3047 847 3047 1241 
Q 3047 1584 2836 1778 
Q 2625 1972 2144 2069 
L 1759 2144 
Q 1053 2284 737 2584 
Q 422 2884 422 3419 
Q 422 4038 858 4394 
Q 1294 4750 2059 4750 
Q 2388 4750 2728 4690 
Q 3069 4631 3425 4513 
z
" transform="scale(0.015625)"/>
       <path id="DejaVuSans-29" d="M 513 4856 
L 1013 4856 
Q 1481 4119 1714 3412 
Q 1947 2706 1947 2009 
Q 1947 1309 1714 600 
Q 1481 -109 1013 -844 
L 513 -844 
Q 928 -128 1133 580 
Q 1338 1288 1338 2009 
Q 1338 2731 1133 3434 
Q 928 4138 513 4856 
z
" transform="scale(0.015625)"/>
      </defs>
      <use xlink:href="#DejaVuSans-42"/>
      <use xlink:href="#DejaVuSans-65" transform="translate(68.603516 0)"/>
      <use xlink:href="#DejaVuSans-73" transform="translate(130.126953 0)"/>
      <use xlink:href="#DejaVuSans-74" transform="translate(182.226562 0)"/>
      <use xlink:href="#DejaVuSans-20" transform="translate(221.435547 0)"/>
      <use xlink:href="#DejaVuSans-6c" transform="translate(253.222656 0)"/>
      <use xlink:href="#DejaVuSans-69" transform="translate(281.005859 0)"/>
      <use xlink:href="#DejaVuSans-6e" transform="translate(308.789062 0)"/>
      <use xlink:href="#DejaVuSans-65" transform="translate(372.167969 0)"/>
      <use xlink:href="#DejaVuSans-61" transform="translate(433.691406 0)"/>
      <use xlink:href="#DejaVuSans-72" transform="translate(494.970703 0)"/>
      <use xlink:href="#DejaVuSans-20" transform="translate(536.083984 0)"/>
      <use xlink:href="#DejaVuSans-50" transform="translate(567.871094 0)"/>
      <use xlink:href="#DejaVuSans-6f" transform="translate(624.548828 0)"/>
      <use xlink:href="#DejaVuSans-6c" transform="translate(685.730469 0)"/>
      <use xlink:href="#DejaVuSans-69" transform="translate(713.513672 0)"/>
      <use xlink:href="#DejaVuSans-63" transform="translate(741.296875 0)"/>
      <use xlink:href="#DejaVuSans-79" transform="translate(796.277344 0)"/>
      <use xlink:href="#DejaVuSans-20" transform="translate(855.457031 0)"/>
      <use xlink:href="#DejaVuSans-28" transform="translate(887.244141 0)"/>
      <use xlink:href="#DejaVuSans-43" transform="translate(926.257812 0)"/>
      <use xlink:href="#DejaVuSans-4d" transform="translate(996.082031 0)"/>
      <use xlink:href="#DejaVuSans-41" transform="translate(1082.361328 0)"/>
      <use xlink:href="#DejaVuSans-2d" transform="translate(1148.519531 0)"/>
      <use xlink:href="#DejaVuSans-45" transform="translate(1184.603516 0)"/>
      <use xlink:href="#DejaVuSans-53" transform="translate(1247.787109 0)"/>
      <use xlink:href="#DejaVuSans-29" transform="translate(1311.263672 0)"/>
     </g>
    </g>
    <g id="patch_131">
     <path d="M 456.659375 112.472813 
L 476.659375 112.472813 
L 476.659375 105.472813 
L 456.659375 105.472813 
z
" style="fill: #d62728"/>
    </g>
    <g id="text_21">
     <!-- Best quadratic Policy (CMA-ES) -->
     <g transform="translate(484.659375 112.472813) scale(0.1 -0.1)">
      <defs>
       <path id="DejaVuSans-71" d="M 947 1747 
Q 947 1113 1208 752 
Q 1469 391 1925 391 
Q 2381 391 2643 752 
Q 2906 1113 2906 1747 
Q 2906 2381 2643 2742 
Q 2381 3103 1925 3103 
Q 1469 3103 1208 2742 
Q 947 2381 947 1747 
z
M 2906 525 
Q 2725 213 2448 61 
Q 2172 -91 1784 -91 
Q 1150 -91 751 415 
Q 353 922 353 1747 
Q 353 2572 751 3078 
Q 1150 3584 1784 3584 
Q 2172 3584 2448 3432 
Q 2725 3281 2906 2969 
L 2906 3500 
L 3481 3500 
L 3481 -1331 
L 2906 -1331 
L 2906 525 
z
" transform="scale(0.015625)"/>
      </defs>
      <use xlink:href="#DejaVuSans-42"/>
      <use xlink:href="#DejaVuSans-65" transform="translate(68.603516 0)"/>
      <use xlink:href="#DejaVuSans-73" transform="translate(130.126953 0)"/>
      <use xlink:href="#DejaVuSans-74" transform="translate(182.226562 0)"/>
      <use xlink:href="#DejaVuSans-20" transform="translate(221.435547 0)"/>
      <use xlink:href="#DejaVuSans-71" transform="translate(253.222656 0)"/>
      <use xlink:href="#DejaVuSans-75" transform="translate(316.699219 0)"/>
      <use xlink:href="#DejaVuSans-61" transform="translate(380.078125 0)"/>
      <use xlink:href="#DejaVuSans-64" transform="translate(441.357422 0)"/>
      <use xlink:href="#DejaVuSans-72" transform="translate(504.833984 0)"/>
      <use xlink:href="#DejaVuSans-61" transform="translate(545.947266 0)"/>
      <use xlink:href="#DejaVuSans-74" transform="translate(607.226562 0)"/>
      <use xlink:href="#DejaVuSans-69" transform="translate(646.435547 0)"/>
      <use xlink:href="#DejaVuSans-63" transform="translate(674.21875 0)"/>
      <use xlink:href="#DejaVuSans-20" transform="translate(729.199219 0)"/>
      <use xlink:href="#DejaVuSans-50" transform="translate(760.986328 0)"/>
      <use xlink:href="#DejaVuSans-6f" transform="translate(817.664062 0)"/>
      <use xlink:href="#DejaVuSans-6c" transform="translate(878.845703 0)"/>
      <use xlink:href="#DejaVuSans-69" transform="translate(906.628906 0)"/>
      <use xlink:href="#DejaVuSans-63" transform="translate(934.412109 0)"/>
      <use xlink:href="#DejaVuSans-79" transform="translate(989.392578 0)"/>
      <use xlink:href="#DejaVuSans-20" transform="translate(1048.572266 0)"/>
      <use xlink:href="#DejaVuSans-28" transform="translate(1080.359375 0)"/>
      <use xlink:href="#DejaVuSans-43" transform="translate(1119.373047 0)"/>
      <use xlink:href="#DejaVuSans-4d" transform="translate(1189.197266 0)"/>
      <use xlink:href="#DejaVuSans-41" transform="translate(1275.476562 0)"/>
      <use xlink:href="#DejaVuSans-2d" transform="translate(1341.634766 0)"/>
      <use xlink:href="#DejaVuSans-45" transform="translate(1377.71875 0)"/>
      <use xlink:href="#DejaVuSans-53" transform="translate(1440.902344 0)"/>
      <use xlink:href="#DejaVuSans-29" transform="translate(1504.378906 0)"/>
     </g>
    </g>
   </g>
  </g>
 </g>
 <defs>
  <clipPath id="pdbc82ff6bc">
   <rect x="90" y="51.84" width="558" height="332.64"/>
  </clipPath>
 </defs>
</svg>
