<?xml version="1.0" encoding="utf-8" standalone="no"?>
<!DOCTYPE svg PUBLIC "-//W3C//DTD SVG 1.1//EN"
  "http://www.w3.org/Graphics/SVG/1.1/DTD/svg11.dtd">
<svg xmlns:xlink="http://www.w3.org/1999/xlink" width="648pt" height="360pt" viewBox="0 0 648 360" xmlns="http://www.w3.org/2000/svg" version="1.1">
 <metadata>
  <rdf:RDF xmlns:dc="http://purl.org/dc/elements/1.1/" xmlns:cc="http://creativecommons.org/ns#" xmlns:rdf="http://www.w3.org/1999/02/22-rdf-syntax-ns#">
   <cc:Work>
    <dc:type rdf:resource="http://purl.org/dc/dcmitype/StillImage"/>
    <dc:date>2025-10-10T01:23:43.115318</dc:date>
    <dc:format>image/svg+xml</dc:format>
    <dc:creator>
     <cc:Agent>
      <dc:title>Matplotlib v3.10.6, https://matplotlib.org/</dc:title>
     </cc:Agent>
    </dc:creator>
   </cc:Work>
  </rdf:RDF>
 </metadata>
 <defs>
  <style type="text/css">*{stroke-linejoin: round; stroke-linecap: butt}</style>
 </defs>
 <g id="figure_1">
  <g id="patch_1">
   <path d="M 0 360 
L 648 360 
L 648 0 
L 0 0 
z
" style="fill: #ffffff"/>
  </g>
  <g id="axes_1">
   <g id="patch_2">
    <path d="M 81 320.4 
L 583.2 320.4 
L 583.2 43.2 
L 81 43.2 
z
" style="fill: #ffffff"/>
   </g>
   <g id="matplotlib.axis_1">
    <g id="xtick_1">
     <g id="line2d_1">
      <path d="M 103.37027 320.4 
L 103.37027 43.2 
" clip-path="url(#p117c585b31)" style="fill: none; stroke: #b0b0b0; stroke-width: 0.8; stroke-linecap: square"/>
     </g>
     <g id="line2d_2">
      <defs>
       <path id="m75a1df8597" d="M 0 0 
L 0 3.5 
" style="stroke: #000000; stroke-width: 0.8"/>
      </defs>
      <g>
       <use xlink:href="#m75a1df8597" x="103.37027" y="320.4" style="stroke: #000000; stroke-width: 0.8"/>
      </g>
     </g>
     <g id="text_1">
      <!-- 0 -->
      <g transform="translate(100.18902 334.998438) scale(0.1 -0.1)">
       <defs>
        <path id="DejaVuSans-30" d="M 2034 4250 
Q 1547 4250 1301 3770 
Q 1056 3291 1056 2328 
Q 1056 1369 1301 889 
Q 1547 409 2034 409 
Q 2525 409 2770 889 
Q 3016 1369 3016 2328 
Q 3016 3291 2770 3770 
Q 2525 4250 2034 4250 
z
M 2034 4750 
Q 2819 4750 3233 4129 
Q 3647 3509 3647 2328 
Q 3647 1150 3233 529 
Q 2819 -91 2034 -91 
Q 1250 -91 836 529 
Q 422 1150 422 2328 
Q 422 3509 836 4129 
Q 1250 4750 2034 4750 
z
" transform="scale(0.015625)"/>
       </defs>
       <use xlink:href="#DejaVuSans-30"/>
      </g>
     </g>
    </g>
    <g id="xtick_2">
     <g id="line2d_3">
      <path d="M 194.770762 320.4 
L 194.770762 43.2 
" clip-path="url(#p117c585b31)" style="fill: none; stroke: #b0b0b0; stroke-width: 0.8; stroke-linecap: square"/>
     </g>
     <g id="line2d_4">
      <g>
       <use xlink:href="#m75a1df8597" x="194.770762" y="320.4" style="stroke: #000000; stroke-width: 0.8"/>
      </g>
     </g>
     <g id="text_2">
      <!-- 200 -->
      <g transform="translate(185.227012 334.998438) scale(0.1 -0.1)">
       <defs>
        <path id="DejaVuSans-32" d="M 1228 531 
L 3431 531 
L 3431 0 
L 469 0 
L 469 531 
Q 828 903 1448 1529 
Q 2069 2156 2228 2338 
Q 2531 2678 2651 2914 
Q 2772 3150 2772 3378 
Q 2772 3750 2511 3984 
Q 2250 4219 1831 4219 
Q 1534 4219 1204 4116 
Q 875 4013 500 3803 
L 500 4441 
Q 881 4594 1212 4672 
Q 1544 4750 1819 4750 
Q 2544 4750 2975 4387 
Q 3406 4025 3406 3419 
Q 3406 3131 3298 2873 
Q 3191 2616 2906 2266 
Q 2828 2175 2409 1742 
Q 1991 1309 1228 531 
z
" transform="scale(0.015625)"/>
       </defs>
       <use xlink:href="#DejaVuSans-32"/>
       <use xlink:href="#DejaVuSans-30" transform="translate(63.623047 0)"/>
       <use xlink:href="#DejaVuSans-30" transform="translate(127.246094 0)"/>
      </g>
     </g>
    </g>
    <g id="xtick_3">
     <g id="line2d_5">
      <path d="M 286.171253 320.4 
L 286.171253 43.2 
" clip-path="url(#p117c585b31)" style="fill: none; stroke: #b0b0b0; stroke-width: 0.8; stroke-linecap: square"/>
     </g>
     <g id="line2d_6">
      <g>
       <use xlink:href="#m75a1df8597" x="286.171253" y="320.4" style="stroke: #000000; stroke-width: 0.8"/>
      </g>
     </g>
     <g id="text_3">
      <!-- 400 -->
      <g transform="translate(276.627503 334.998438) scale(0.1 -0.1)">
       <defs>
        <path id="DejaVuSans-34" d="M 2419 4116 
L 825 1625 
L 2419 1625 
L 2419 4116 
z
M 2253 4666 
L 3047 4666 
L 3047 1625 
L 3713 1625 
L 3713 1100 
L 3047 1100 
L 3047 0 
L 2419 0 
L 2419 1100 
L 313 1100 
L 313 1709 
L 2253 4666 
z
" transform="scale(0.015625)"/>
       </defs>
       <use xlink:href="#DejaVuSans-34"/>
       <use xlink:href="#DejaVuSans-30" transform="translate(63.623047 0)"/>
       <use xlink:href="#DejaVuSans-30" transform="translate(127.246094 0)"/>
      </g>
     </g>
    </g>
    <g id="xtick_4">
     <g id="line2d_7">
      <path d="M 377.571744 320.4 
L 377.571744 43.2 
" clip-path="url(#p117c585b31)" style="fill: none; stroke: #b0b0b0; stroke-width: 0.8; stroke-linecap: square"/>
     </g>
     <g id="line2d_8">
      <g>
       <use xlink:href="#m75a1df8597" x="377.571744" y="320.4" style="stroke: #000000; stroke-width: 0.8"/>
      </g>
     </g>
     <g id="text_4">
      <!-- 600 -->
      <g transform="translate(368.027994 334.998438) scale(0.1 -0.1)">
       <defs>
        <path id="DejaVuSans-36" d="M 2113 2584 
Q 1688 2584 1439 2293 
Q 1191 2003 1191 1497 
Q 1191 994 1439 701 
Q 1688 409 2113 409 
Q 2538 409 2786 701 
Q 3034 994 3034 1497 
Q 3034 2003 2786 2293 
Q 2538 2584 2113 2584 
z
M 3366 4563 
L 3366 3988 
Q 3128 4100 2886 4159 
Q 2644 4219 2406 4219 
Q 1781 4219 1451 3797 
Q 1122 3375 1075 2522 
Q 1259 2794 1537 2939 
Q 1816 3084 2150 3084 
Q 2853 3084 3261 2657 
Q 3669 2231 3669 1497 
Q 3669 778 3244 343 
Q 2819 -91 2113 -91 
Q 1303 -91 875 529 
Q 447 1150 447 2328 
Q 447 3434 972 4092 
Q 1497 4750 2381 4750 
Q 2619 4750 2861 4703 
Q 3103 4656 3366 4563 
z
" transform="scale(0.015625)"/>
       </defs>
       <use xlink:href="#DejaVuSans-36"/>
       <use xlink:href="#DejaVuSans-30" transform="translate(63.623047 0)"/>
       <use xlink:href="#DejaVuSans-30" transform="translate(127.246094 0)"/>
      </g>
     </g>
    </g>
    <g id="xtick_5">
     <g id="line2d_9">
      <path d="M 468.972236 320.4 
L 468.972236 43.2 
" clip-path="url(#p117c585b31)" style="fill: none; stroke: #b0b0b0; stroke-width: 0.8; stroke-linecap: square"/>
     </g>
     <g id="line2d_10">
      <g>
       <use xlink:href="#m75a1df8597" x="468.972236" y="320.4" style="stroke: #000000; stroke-width: 0.8"/>
      </g>
     </g>
     <g id="text_5">
      <!-- 800 -->
      <g transform="translate(459.428486 334.998438) scale(0.1 -0.1)">
       <defs>
        <path id="DejaVuSans-38" d="M 2034 2216 
Q 1584 2216 1326 1975 
Q 1069 1734 1069 1313 
Q 1069 891 1326 650 
Q 1584 409 2034 409 
Q 2484 409 2743 651 
Q 3003 894 3003 1313 
Q 3003 1734 2745 1975 
Q 2488 2216 2034 2216 
z
M 1403 2484 
Q 997 2584 770 2862 
Q 544 3141 544 3541 
Q 544 4100 942 4425 
Q 1341 4750 2034 4750 
Q 2731 4750 3128 4425 
Q 3525 4100 3525 3541 
Q 3525 3141 3298 2862 
Q 3072 2584 2669 2484 
Q 3125 2378 3379 2068 
Q 3634 1759 3634 1313 
Q 3634 634 3220 271 
Q 2806 -91 2034 -91 
Q 1263 -91 848 271 
Q 434 634 434 1313 
Q 434 1759 690 2068 
Q 947 2378 1403 2484 
z
M 1172 3481 
Q 1172 3119 1398 2916 
Q 1625 2713 2034 2713 
Q 2441 2713 2670 2916 
Q 2900 3119 2900 3481 
Q 2900 3844 2670 4047 
Q 2441 4250 2034 4250 
Q 1625 4250 1398 4047 
Q 1172 3844 1172 3481 
z
" transform="scale(0.015625)"/>
       </defs>
       <use xlink:href="#DejaVuSans-38"/>
       <use xlink:href="#DejaVuSans-30" transform="translate(63.623047 0)"/>
       <use xlink:href="#DejaVuSans-30" transform="translate(127.246094 0)"/>
      </g>
     </g>
    </g>
    <g id="xtick_6">
     <g id="line2d_11">
      <path d="M 560.372727 320.4 
L 560.372727 43.2 
" clip-path="url(#p117c585b31)" style="fill: none; stroke: #b0b0b0; stroke-width: 0.8; stroke-linecap: square"/>
     </g>
     <g id="line2d_12">
      <g>
       <use xlink:href="#m75a1df8597" x="560.372727" y="320.4" style="stroke: #000000; stroke-width: 0.8"/>
      </g>
     </g>
     <g id="text_6">
      <!-- 1000 -->
      <g transform="translate(547.647727 334.998438) scale(0.1 -0.1)">
       <defs>
        <path id="DejaVuSans-31" d="M 794 531 
L 1825 531 
L 1825 4091 
L 703 3866 
L 703 4441 
L 1819 4666 
L 2450 4666 
L 2450 531 
L 3481 531 
L 3481 0 
L 794 0 
L 794 531 
z
" transform="scale(0.015625)"/>
       </defs>
       <use xlink:href="#DejaVuSans-31"/>
       <use xlink:href="#DejaVuSans-30" transform="translate(63.623047 0)"/>
       <use xlink:href="#DejaVuSans-30" transform="translate(127.246094 0)"/>
       <use xlink:href="#DejaVuSans-30" transform="translate(190.869141 0)"/>
      </g>
     </g>
    </g>
    <g id="text_7">
     <!-- Time -->
     <g transform="translate(319.866406 348.676562) scale(0.1 -0.1)">
      <defs>
       <path id="DejaVuSans-54" d="M -19 4666 
L 3928 4666 
L 3928 4134 
L 2272 4134 
L 2272 0 
L 1638 0 
L 1638 4134 
L -19 4134 
L -19 4666 
z
" transform="scale(0.015625)"/>
       <path id="DejaVuSans-69" d="M 603 3500 
L 1178 3500 
L 1178 0 
L 603 0 
L 603 3500 
z
M 603 4863 
L 1178 4863 
L 1178 4134 
L 603 4134 
L 603 4863 
z
" transform="scale(0.015625)"/>
       <path id="DejaVuSans-6d" d="M 3328 2828 
Q 3544 3216 3844 3400 
Q 4144 3584 4550 3584 
Q 5097 3584 5394 3201 
Q 5691 2819 5691 2113 
L 5691 0 
L 5113 0 
L 5113 2094 
Q 5113 2597 4934 2840 
Q 4756 3084 4391 3084 
Q 3944 3084 3684 2787 
Q 3425 2491 3425 1978 
L 3425 0 
L 2847 0 
L 2847 2094 
Q 2847 2600 2669 2842 
Q 2491 3084 2119 3084 
Q 1678 3084 1418 2786 
Q 1159 2488 1159 1978 
L 1159 0 
L 581 0 
L 581 3500 
L 1159 3500 
L 1159 2956 
Q 1356 3278 1631 3431 
Q 1906 3584 2284 3584 
Q 2666 3584 2933 3390 
Q 3200 3197 3328 2828 
z
" transform="scale(0.015625)"/>
       <path id="DejaVuSans-65" d="M 3597 1894 
L 3597 1613 
L 953 1613 
Q 991 1019 1311 708 
Q 1631 397 2203 397 
Q 2534 397 2845 478 
Q 3156 559 3463 722 
L 3463 178 
Q 3153 47 2828 -22 
Q 2503 -91 2169 -91 
Q 1331 -91 842 396 
Q 353 884 353 1716 
Q 353 2575 817 3079 
Q 1281 3584 2069 3584 
Q 2775 3584 3186 3129 
Q 3597 2675 3597 1894 
z
M 3022 2063 
Q 3016 2534 2758 2815 
Q 2500 3097 2075 3097 
Q 1594 3097 1305 2825 
Q 1016 2553 972 2059 
L 3022 2063 
z
" transform="scale(0.015625)"/>
      </defs>
      <use xlink:href="#DejaVuSans-54"/>
      <use xlink:href="#DejaVuSans-69" transform="translate(57.958984 0)"/>
      <use xlink:href="#DejaVuSans-6d" transform="translate(85.742188 0)"/>
      <use xlink:href="#DejaVuSans-65" transform="translate(183.154297 0)"/>
     </g>
    </g>
   </g>
   <g id="matplotlib.axis_2">
    <g id="ytick_1">
     <g id="line2d_13">
      <path d="M 81 312.766316 
L 583.2 312.766316 
" clip-path="url(#p117c585b31)" style="fill: none; stroke: #b0b0b0; stroke-width: 0.8; stroke-linecap: square"/>
     </g>
     <g id="line2d_14">
      <defs>
       <path id="m10f3c45ef5" d="M 0 0 
L -3.5 0 
" style="stroke: #000000; stroke-width: 0.8"/>
      </defs>
      <g>
       <use xlink:href="#m10f3c45ef5" x="81" y="312.766316" style="stroke: #000000; stroke-width: 0.8"/>
      </g>
     </g>
     <g id="text_8">
      <!-- −0.25 -->
      <g transform="translate(43.354687 316.565535) scale(0.1 -0.1)">
       <defs>
        <path id="DejaVuSans-2212" d="M 678 2272 
L 4684 2272 
L 4684 1741 
L 678 1741 
L 678 2272 
z
" transform="scale(0.015625)"/>
        <path id="DejaVuSans-2e" d="M 684 794 
L 1344 794 
L 1344 0 
L 684 0 
L 684 794 
z
" transform="scale(0.015625)"/>
        <path id="DejaVuSans-35" d="M 691 4666 
L 3169 4666 
L 3169 4134 
L 1269 4134 
L 1269 2991 
Q 1406 3038 1543 3061 
Q 1681 3084 1819 3084 
Q 2600 3084 3056 2656 
Q 3513 2228 3513 1497 
Q 3513 744 3044 326 
Q 2575 -91 1722 -91 
Q 1428 -91 1123 -41 
Q 819 9 494 109 
L 494 744 
Q 775 591 1075 516 
Q 1375 441 1709 441 
Q 2250 441 2565 725 
Q 2881 1009 2881 1497 
Q 2881 1984 2565 2268 
Q 2250 2553 1709 2553 
Q 1456 2553 1204 2497 
Q 953 2441 691 2322 
L 691 4666 
z
" transform="scale(0.015625)"/>
       </defs>
       <use xlink:href="#DejaVuSans-2212"/>
       <use xlink:href="#DejaVuSans-30" transform="translate(83.789062 0)"/>
       <use xlink:href="#DejaVuSans-2e" transform="translate(147.412109 0)"/>
       <use xlink:href="#DejaVuSans-32" transform="translate(179.199219 0)"/>
       <use xlink:href="#DejaVuSans-35" transform="translate(242.822266 0)"/>
      </g>
     </g>
    </g>
    <g id="ytick_2">
     <g id="line2d_15">
      <path d="M 81 277.095051 
L 583.2 277.095051 
" clip-path="url(#p117c585b31)" style="fill: none; stroke: #b0b0b0; stroke-width: 0.8; stroke-linecap: square"/>
     </g>
     <g id="line2d_16">
      <g>
       <use xlink:href="#m10f3c45ef5" x="81" y="277.095051" style="stroke: #000000; stroke-width: 0.8"/>
      </g>
     </g>
     <g id="text_9">
      <!-- 0.00 -->
      <g transform="translate(51.734375 280.894269) scale(0.1 -0.1)">
       <use xlink:href="#DejaVuSans-30"/>
       <use xlink:href="#DejaVuSans-2e" transform="translate(63.623047 0)"/>
       <use xlink:href="#DejaVuSans-30" transform="translate(95.410156 0)"/>
       <use xlink:href="#DejaVuSans-30" transform="translate(159.033203 0)"/>
      </g>
     </g>
    </g>
    <g id="ytick_3">
     <g id="line2d_17">
      <path d="M 81 241.423785 
L 583.2 241.423785 
" clip-path="url(#p117c585b31)" style="fill: none; stroke: #b0b0b0; stroke-width: 0.8; stroke-linecap: square"/>
     </g>
     <g id="line2d_18">
      <g>
       <use xlink:href="#m10f3c45ef5" x="81" y="241.423785" style="stroke: #000000; stroke-width: 0.8"/>
      </g>
     </g>
     <g id="text_10">
      <!-- 0.25 -->
      <g transform="translate(51.734375 245.223004) scale(0.1 -0.1)">
       <use xlink:href="#DejaVuSans-30"/>
       <use xlink:href="#DejaVuSans-2e" transform="translate(63.623047 0)"/>
       <use xlink:href="#DejaVuSans-32" transform="translate(95.410156 0)"/>
       <use xlink:href="#DejaVuSans-35" transform="translate(159.033203 0)"/>
      </g>
     </g>
    </g>
    <g id="ytick_4">
     <g id="line2d_19">
      <path d="M 81 205.75252 
L 583.2 205.75252 
" clip-path="url(#p117c585b31)" style="fill: none; stroke: #b0b0b0; stroke-width: 0.8; stroke-linecap: square"/>
     </g>
     <g id="line2d_20">
      <g>
       <use xlink:href="#m10f3c45ef5" x="81" y="205.75252" style="stroke: #000000; stroke-width: 0.8"/>
      </g>
     </g>
     <g id="text_11">
      <!-- 0.50 -->
      <g transform="translate(51.734375 209.551739) scale(0.1 -0.1)">
       <use xlink:href="#DejaVuSans-30"/>
       <use xlink:href="#DejaVuSans-2e" transform="translate(63.623047 0)"/>
       <use xlink:href="#DejaVuSans-35" transform="translate(95.410156 0)"/>
       <use xlink:href="#DejaVuSans-30" transform="translate(159.033203 0)"/>
      </g>
     </g>
    </g>
    <g id="ytick_5">
     <g id="line2d_21">
      <path d="M 81 170.081255 
L 583.2 170.081255 
" clip-path="url(#p117c585b31)" style="fill: none; stroke: #b0b0b0; stroke-width: 0.8; stroke-linecap: square"/>
     </g>
     <g id="line2d_22">
      <g>
       <use xlink:href="#m10f3c45ef5" x="81" y="170.081255" style="stroke: #000000; stroke-width: 0.8"/>
      </g>
     </g>
     <g id="text_12">
      <!-- 0.75 -->
      <g transform="translate(51.734375 173.880474) scale(0.1 -0.1)">
       <defs>
        <path id="DejaVuSans-37" d="M 525 4666 
L 3525 4666 
L 3525 4397 
L 1831 0 
L 1172 0 
L 2766 4134 
L 525 4134 
L 525 4666 
z
" transform="scale(0.015625)"/>
       </defs>
       <use xlink:href="#DejaVuSans-30"/>
       <use xlink:href="#DejaVuSans-2e" transform="translate(63.623047 0)"/>
       <use xlink:href="#DejaVuSans-37" transform="translate(95.410156 0)"/>
       <use xlink:href="#DejaVuSans-35" transform="translate(159.033203 0)"/>
      </g>
     </g>
    </g>
    <g id="ytick_6">
     <g id="line2d_23">
      <path d="M 81 134.40999 
L 583.2 134.40999 
" clip-path="url(#p117c585b31)" style="fill: none; stroke: #b0b0b0; stroke-width: 0.8; stroke-linecap: square"/>
     </g>
     <g id="line2d_24">
      <g>
       <use xlink:href="#m10f3c45ef5" x="81" y="134.40999" style="stroke: #000000; stroke-width: 0.8"/>
      </g>
     </g>
     <g id="text_13">
      <!-- 1.00 -->
      <g transform="translate(51.734375 138.209208) scale(0.1 -0.1)">
       <use xlink:href="#DejaVuSans-31"/>
       <use xlink:href="#DejaVuSans-2e" transform="translate(63.623047 0)"/>
       <use xlink:href="#DejaVuSans-30" transform="translate(95.410156 0)"/>
       <use xlink:href="#DejaVuSans-30" transform="translate(159.033203 0)"/>
      </g>
     </g>
    </g>
    <g id="ytick_7">
     <g id="line2d_25">
      <path d="M 81 98.738724 
L 583.2 98.738724 
" clip-path="url(#p117c585b31)" style="fill: none; stroke: #b0b0b0; stroke-width: 0.8; stroke-linecap: square"/>
     </g>
     <g id="line2d_26">
      <g>
       <use xlink:href="#m10f3c45ef5" x="81" y="98.738724" style="stroke: #000000; stroke-width: 0.8"/>
      </g>
     </g>
     <g id="text_14">
      <!-- 1.25 -->
      <g transform="translate(51.734375 102.537943) scale(0.1 -0.1)">
       <use xlink:href="#DejaVuSans-31"/>
       <use xlink:href="#DejaVuSans-2e" transform="translate(63.623047 0)"/>
       <use xlink:href="#DejaVuSans-32" transform="translate(95.410156 0)"/>
       <use xlink:href="#DejaVuSans-35" transform="translate(159.033203 0)"/>
      </g>
     </g>
    </g>
    <g id="ytick_8">
     <g id="line2d_27">
      <path d="M 81 63.067459 
L 583.2 63.067459 
" clip-path="url(#p117c585b31)" style="fill: none; stroke: #b0b0b0; stroke-width: 0.8; stroke-linecap: square"/>
     </g>
     <g id="line2d_28">
      <g>
       <use xlink:href="#m10f3c45ef5" x="81" y="63.067459" style="stroke: #000000; stroke-width: 0.8"/>
      </g>
     </g>
     <g id="text_15">
      <!-- 1.50 -->
      <g transform="translate(51.734375 66.866678) scale(0.1 -0.1)">
       <use xlink:href="#DejaVuSans-31"/>
       <use xlink:href="#DejaVuSans-2e" transform="translate(63.623047 0)"/>
       <use xlink:href="#DejaVuSans-35" transform="translate(95.410156 0)"/>
       <use xlink:href="#DejaVuSans-30" transform="translate(159.033203 0)"/>
      </g>
     </g>
    </g>
    <g id="text_16">
     <!-- Average Reward -->
     <g transform="translate(37.275 222.542969) rotate(-90) scale(0.1 -0.1)">
      <defs>
       <path id="DejaVuSans-41" d="M 2188 4044 
L 1331 1722 
L 3047 1722 
L 2188 4044 
z
M 1831 4666 
L 2547 4666 
L 4325 0 
L 3669 0 
L 3244 1197 
L 1141 1197 
L 716 0 
L 50 0 
L 1831 4666 
z
" transform="scale(0.015625)"/>
       <path id="DejaVuSans-76" d="M 191 3500 
L 800 3500 
L 1894 563 
L 2988 3500 
L 3597 3500 
L 2284 0 
L 1503 0 
L 191 3500 
z
" transform="scale(0.015625)"/>
       <path id="DejaVuSans-72" d="M 2631 2963 
Q 2534 3019 2420 3045 
Q 2306 3072 2169 3072 
Q 1681 3072 1420 2755 
Q 1159 2438 1159 1844 
L 1159 0 
L 581 0 
L 581 3500 
L 1159 3500 
L 1159 2956 
Q 1341 3275 1631 3429 
Q 1922 3584 2338 3584 
Q 2397 3584 2469 3576 
Q 2541 3569 2628 3553 
L 2631 2963 
z
" transform="scale(0.015625)"/>
       <path id="DejaVuSans-61" d="M 2194 1759 
Q 1497 1759 1228 1600 
Q 959 1441 959 1056 
Q 959 750 1161 570 
Q 1363 391 1709 391 
Q 2188 391 2477 730 
Q 2766 1069 2766 1631 
L 2766 1759 
L 2194 1759 
z
M 3341 1997 
L 3341 0 
L 2766 0 
L 2766 531 
Q 2569 213 2275 61 
Q 1981 -91 1556 -91 
Q 1019 -91 701 211 
Q 384 513 384 1019 
Q 384 1609 779 1909 
Q 1175 2209 1959 2209 
L 2766 2209 
L 2766 2266 
Q 2766 2663 2505 2880 
Q 2244 3097 1772 3097 
Q 1472 3097 1187 3025 
Q 903 2953 641 2809 
L 641 3341 
Q 956 3463 1253 3523 
Q 1550 3584 1831 3584 
Q 2591 3584 2966 3190 
Q 3341 2797 3341 1997 
z
" transform="scale(0.015625)"/>
       <path id="DejaVuSans-67" d="M 2906 1791 
Q 2906 2416 2648 2759 
Q 2391 3103 1925 3103 
Q 1463 3103 1205 2759 
Q 947 2416 947 1791 
Q 947 1169 1205 825 
Q 1463 481 1925 481 
Q 2391 481 2648 825 
Q 2906 1169 2906 1791 
z
M 3481 434 
Q 3481 -459 3084 -895 
Q 2688 -1331 1869 -1331 
Q 1566 -1331 1297 -1286 
Q 1028 -1241 775 -1147 
L 775 -588 
Q 1028 -725 1275 -790 
Q 1522 -856 1778 -856 
Q 2344 -856 2625 -561 
Q 2906 -266 2906 331 
L 2906 616 
Q 2728 306 2450 153 
Q 2172 0 1784 0 
Q 1141 0 747 490 
Q 353 981 353 1791 
Q 353 2603 747 3093 
Q 1141 3584 1784 3584 
Q 2172 3584 2450 3431 
Q 2728 3278 2906 2969 
L 2906 3500 
L 3481 3500 
L 3481 434 
z
" transform="scale(0.015625)"/>
       <path id="DejaVuSans-20" transform="scale(0.015625)"/>
       <path id="DejaVuSans-52" d="M 2841 2188 
Q 3044 2119 3236 1894 
Q 3428 1669 3622 1275 
L 4263 0 
L 3584 0 
L 2988 1197 
Q 2756 1666 2539 1819 
Q 2322 1972 1947 1972 
L 1259 1972 
L 1259 0 
L 628 0 
L 628 4666 
L 2053 4666 
Q 2853 4666 3247 4331 
Q 3641 3997 3641 3322 
Q 3641 2881 3436 2590 
Q 3231 2300 2841 2188 
z
M 1259 4147 
L 1259 2491 
L 2053 2491 
Q 2509 2491 2742 2702 
Q 2975 2913 2975 3322 
Q 2975 3731 2742 3939 
Q 2509 4147 2053 4147 
L 1259 4147 
z
" transform="scale(0.015625)"/>
       <path id="DejaVuSans-77" d="M 269 3500 
L 844 3500 
L 1563 769 
L 2278 3500 
L 2956 3500 
L 3675 769 
L 4391 3500 
L 4966 3500 
L 4050 0 
L 3372 0 
L 2619 2869 
L 1863 0 
L 1184 0 
L 269 3500 
z
" transform="scale(0.015625)"/>
       <path id="DejaVuSans-64" d="M 2906 2969 
L 2906 4863 
L 3481 4863 
L 3481 0 
L 2906 0 
L 2906 525 
Q 2725 213 2448 61 
Q 2172 -91 1784 -91 
Q 1150 -91 751 415 
Q 353 922 353 1747 
Q 353 2572 751 3078 
Q 1150 3584 1784 3584 
Q 2172 3584 2448 3432 
Q 2725 3281 2906 2969 
z
M 947 1747 
Q 947 1113 1208 752 
Q 1469 391 1925 391 
Q 2381 391 2643 752 
Q 2906 1113 2906 1747 
Q 2906 2381 2643 2742 
Q 2381 3103 1925 3103 
Q 1469 3103 1208 2742 
Q 947 2381 947 1747 
z
" transform="scale(0.015625)"/>
      </defs>
      <use xlink:href="#DejaVuSans-41"/>
      <use xlink:href="#DejaVuSans-76" transform="translate(62.533203 0)"/>
      <use xlink:href="#DejaVuSans-65" transform="translate(121.712891 0)"/>
      <use xlink:href="#DejaVuSans-72" transform="translate(183.236328 0)"/>
      <use xlink:href="#DejaVuSans-61" transform="translate(224.349609 0)"/>
      <use xlink:href="#DejaVuSans-67" transform="translate(285.628906 0)"/>
      <use xlink:href="#DejaVuSans-65" transform="translate(349.105469 0)"/>
      <use xlink:href="#DejaVuSans-20" transform="translate(410.628906 0)"/>
      <use xlink:href="#DejaVuSans-52" transform="translate(442.416016 0)"/>
      <use xlink:href="#DejaVuSans-65" transform="translate(507.398438 0)"/>
      <use xlink:href="#DejaVuSans-77" transform="translate(568.921875 0)"/>
      <use xlink:href="#DejaVuSans-61" transform="translate(650.708984 0)"/>
      <use xlink:href="#DejaVuSans-72" transform="translate(711.988281 0)"/>
      <use xlink:href="#DejaVuSans-64" transform="translate(751.351562 0)"/>
     </g>
    </g>
    <g id="text_17">
     <!-- 1e−5 -->
     <g transform="translate(81 40.2) scale(0.1 -0.1)">
      <use xlink:href="#DejaVuSans-31"/>
      <use xlink:href="#DejaVuSans-65" transform="translate(63.623047 0)"/>
      <use xlink:href="#DejaVuSans-2212" transform="translate(125.146484 0)"/>
      <use xlink:href="#DejaVuSans-35" transform="translate(208.935547 0)"/>
     </g>
    </g>
   </g>
   <g id="line2d_29">
    <path d="M 103.827273 277.095051 
L 107.940295 277.095051 
L 108.397297 262.662447 
L 109.311302 270.458771 
L 109.768305 263.186421 
L 110.225307 219.885509 
L 110.68231 239.639768 
L 111.139312 267.638305 
L 111.596314 180.395204 
L 112.053317 154.951757 
L 112.510319 255.746981 
L 112.967322 307.8 
L 113.424324 224.150634 
L 113.881327 206.468033 
L 114.338329 229.932935 
L 114.795332 234.078027 
L 115.252334 236.296148 
L 115.709337 236.250058 
L 117.080344 240.334558 
L 118.451351 243.676421 
L 119.822359 246.461306 
L 120.736364 248.073609 
L 121.193366 249.737892 
L 122.107371 251.219761 
L 122.564373 251.955999 
L 123.021376 257.61389 
L 123.478378 261.439515 
L 123.935381 253.599627 
L 124.392383 260.021378 
L 124.849386 257.197758 
L 125.306388 256.443431 
L 125.763391 254.22957 
L 126.220393 248.142066 
L 126.677396 246.38195 
L 127.5914 248.731761 
L 128.048403 249.289724 
L 128.505405 251.19327 
L 128.962408 267.253819 
L 129.41941 270.584394 
L 129.876413 276.777812 
L 130.333415 288.765495 
L 130.790418 291.940053 
L 131.24742 288.40318 
L 132.618428 287.873111 
L 133.532432 287.642548 
L 133.989435 287.485123 
L 134.446437 286.691176 
L 134.90344 280.194497 
L 135.360442 283.494402 
L 135.817445 278.35533 
L 136.274447 277.249125 
L 136.73145 280.43786 
L 143.586486 279.868063 
L 146.328501 279.691062 
L 146.785504 277.94042 
L 147.242506 280.383314 
L 147.699509 274.622334 
L 148.156511 277.693351 
L 148.613514 261.874788 
L 149.070516 259.933104 
L 149.527518 262.053609 
L 149.984521 263.640323 
L 150.441523 262.416105 
L 152.726536 263.032106 
L 153.183538 263.692492 
L 155.011548 264.166919 
L 155.925553 262.618251 
L 156.382555 259.399836 
L 156.839558 262.132387 
L 157.29656 262.556565 
L 157.753563 265.736599 
L 158.210565 270.676087 
L 159.12457 265.848448 
L 159.581572 259.486765 
L 160.038575 255.429233 
L 160.495577 253.911589 
L 160.95258 251.372323 
L 161.409582 251.421675 
L 161.866585 247.567304 
L 162.323587 252.084573 
L 162.78059 247.260599 
L 163.237592 238.114857 
L 163.694595 242.760138 
L 164.151597 236.311962 
L 164.6086 240.45094 
L 165.065602 243.212541 
L 165.522604 255.810408 
L 165.979607 238.739037 
L 166.436609 226.331264 
L 166.893612 218.953456 
L 167.350614 196.74352 
L 167.807617 195.497783 
L 168.264619 155.611399 
L 168.721622 156.287583 
L 169.178624 147.915794 
L 169.635627 147.941289 
L 170.092629 137.888501 
L 170.549631 124.484465 
L 171.006634 125.343218 
L 171.463636 109.654922 
L 172.377641 106.098791 
L 172.834644 111.866896 
L 173.291646 109.407927 
L 173.748649 110.760113 
L 174.205651 113.949581 
L 174.662654 116.199565 
L 175.119656 113.511387 
L 175.576658 114.898332 
L 176.033661 118.436861 
L 176.490663 120.334995 
L 177.404668 122.18862 
L 178.775676 125.273227 
L 179.232678 125.503401 
L 179.689681 128.668508 
L 180.146683 130.819427 
L 180.603686 137.964158 
L 181.060688 146.925208 
L 181.51769 141.15673 
L 181.974693 139.617101 
L 182.431695 139.452153 
L 185.17371 144.065882 
L 185.630713 144.721699 
L 186.087715 145.676046 
L 187.00172 150.892016 
L 187.458722 149.809396 
L 187.915725 149.88405 
L 190.200737 153.231708 
L 190.65774 154.193013 
L 191.114742 155.57696 
L 191.571744 156.108623 
L 192.028747 157.224505 
L 195.684767 161.971854 
L 199.797789 166.936092 
L 200.254791 167.459979 
L 200.711794 166.830016 
L 201.168796 169.802269 
L 201.625799 162.561257 
L 202.082801 158.128152 
L 202.539803 165.87111 
L 202.996806 157.654724 
L 203.453808 144.709603 
L 203.910811 140.227886 
L 204.367813 137.123544 
L 204.824816 137.704566 
L 205.281818 138.657737 
L 208.023833 142.284916 
L 208.480835 143.879023 
L 208.937838 145.069256 
L 209.39484 140.927808 
L 209.851843 144.30131 
L 210.308845 143.893343 
L 210.765848 144.733472 
L 211.22285 144.892483 
L 211.679853 145.24634 
L 215.792875 150.070073 
L 219.905897 154.553308 
L 224.018919 158.730867 
L 228.588943 163.050728 
L 233.158968 167.066373 
L 234.072973 167.835804 
L 234.529975 168.412246 
L 234.986978 168.018782 
L 235.44398 168.652882 
L 235.900983 171.871722 
L 236.357985 172.482518 
L 236.814988 170.967151 
L 237.27199 172.261633 
L 237.728993 167.904399 
L 238.185995 169.987264 
L 239.1 159.363711 
L 239.557002 155.393789 
L 240.014005 155.566752 
L 240.471007 151.498114 
L 240.92801 145.476274 
L 241.385012 131.399661 
L 241.842015 126.660373 
L 242.299017 125.108571 
L 242.75602 124.378096 
L 243.670025 125.372994 
L 244.127027 125.692807 
L 245.498034 128.730121 
L 245.955037 126.768161 
L 246.412039 127.072377 
L 246.869042 125.590712 
L 247.783047 113.660439 
L 248.240049 113.352836 
L 248.697052 116.047941 
L 249.611057 103.24897 
L 250.068059 111.719237 
L 250.525061 111.841105 
L 250.982064 108.111499 
L 251.896069 88.370777 
L 252.353071 85.715672 
L 252.810074 82.059468 
L 253.267076 82.451201 
L 253.724079 84.33536 
L 254.181081 85.214014 
L 254.638084 85.159847 
L 255.095086 85.535809 
L 255.552088 89.337928 
L 256.009091 90.151911 
L 257.380098 91.817411 
L 257.837101 91.746315 
L 258.294103 94.270562 
L 258.751106 99.602012 
L 259.208108 99.989478 
L 259.665111 93.216003 
L 260.122113 80.016385 
L 260.579115 75.166039 
L 261.036118 81.297348 
L 261.49312 81.96339 
L 261.950123 81.480122 
L 262.407125 81.504695 
L 262.864128 81.317735 
L 263.32113 82.860867 
L 263.778133 82.90626 
L 264.235135 81.704263 
L 264.692138 78.626672 
L 265.14914 81.28204 
L 265.606143 82.267048 
L 266.063145 90.992826 
L 266.520147 92.644799 
L 267.434152 93.805227 
L 268.348157 94.578636 
L 268.80516 100.241392 
L 269.262162 99.326696 
L 269.719165 102.20059 
L 270.176167 100.830712 
L 270.63317 104.50755 
L 271.090172 102.314665 
L 271.547174 101.141277 
L 272.004177 96.379208 
L 272.461179 94.026695 
L 272.918182 93.913229 
L 273.832187 107.019376 
L 274.289189 108.919311 
L 274.746192 108.449184 
L 275.203194 110.280091 
L 275.660197 109.20991 
L 276.117199 109.98366 
L 276.574201 111.045221 
L 277.945209 112.383755 
L 278.402211 112.664601 
L 279.773219 114.004083 
L 285.257248 118.921398 
L 290.741278 123.550871 
L 296.68231 128.269723 
L 298.967322 129.895665 
L 299.424324 129.69645 
L 299.881327 129.928903 
L 300.338329 131.141295 
L 300.795332 130.25547 
L 301.252334 130.784302 
L 301.709337 131.046825 
L 302.166339 131.873178 
L 303.080344 132.469582 
L 307.193366 135.461213 
L 307.650369 135.932567 
L 308.107371 133.275743 
L 308.564373 134.519294 
L 309.021376 134.351533 
L 309.478378 138.399866 
L 309.935381 136.03998 
L 310.392383 131.003406 
L 310.849386 129.246494 
L 311.306388 126.490976 
L 311.763391 127.952808 
L 312.220393 128.003202 
L 312.677396 129.175443 
L 313.134398 129.684274 
L 313.5914 129.672111 
L 319.989435 134.026375 
L 326.387469 138.130805 
L 327.301474 138.735066 
L 328.215479 141.678718 
L 328.672482 142.23596 
L 329.129484 141.824962 
L 329.586486 139.712918 
L 330.043489 139.782706 
L 330.500491 136.930499 
L 330.957494 132.970765 
L 331.414496 133.676366 
L 331.871499 132.972481 
L 332.328501 133.397171 
L 332.785504 131.4595 
L 333.242506 130.352111 
L 333.699509 132.576523 
L 334.156511 131.797016 
L 334.613514 126.136906 
L 335.070516 125.653152 
L 335.984521 117.234968 
L 336.441523 120.269344 
L 336.898526 115.677538 
L 337.355528 121.026719 
L 337.812531 122.100577 
L 338.269533 115.292104 
L 338.726536 111.677007 
L 339.183538 111.424288 
L 339.640541 108.27943 
L 340.097543 107.676 
L 340.554545 106.403725 
L 341.011548 102.317086 
L 341.46855 104.614816 
L 341.925553 104.334892 
L 342.382555 104.648561 
L 342.839558 108.909491 
L 343.29656 111.282842 
L 343.753563 107.869572 
L 344.210565 106.580767 
L 345.12457 113.381159 
L 345.581572 113.317414 
L 346.038575 109.378963 
L 346.495577 109.478429 
L 346.95258 105.398432 
L 347.866585 101.991807 
L 348.323587 105.422356 
L 348.78059 102.27431 
L 349.237592 102.993516 
L 349.694595 101.617232 
L 350.151597 102.85798 
L 350.6086 102.819106 
L 351.065602 102.450219 
L 351.522604 102.729568 
L 351.979607 102.191204 
L 352.436609 102.634934 
L 352.893612 103.800744 
L 353.350614 101.398171 
L 353.807617 100.326903 
L 354.264619 101.385855 
L 354.721622 100.759913 
L 355.635627 103.024301 
L 356.092629 103.214297 
L 360.205651 105.907603 
L 360.662654 106.692919 
L 361.119656 106.994562 
L 361.576658 104.647009 
L 362.033661 99.844828 
L 362.490663 97.440359 
L 362.947666 100.262182 
L 363.861671 97.013899 
L 364.318673 96.083625 
L 365.232678 93.09682 
L 365.689681 92.306564 
L 366.146683 93.37208 
L 366.603686 99.351295 
L 367.060688 97.186357 
L 367.51769 96.108702 
L 367.974693 94.669341 
L 368.431695 97.389481 
L 368.888698 95.252791 
L 369.3457 89.720394 
L 369.802703 89.153361 
L 370.259705 89.023509 
L 370.716708 87.978996 
L 371.17371 82.617519 
L 371.630713 84.805566 
L 372.087715 83.683129 
L 372.544717 85.256578 
L 373.00172 86.133532 
L 373.458722 85.164476 
L 373.915725 79.801865 
L 374.372727 72.171438 
L 374.82973 68.974111 
L 375.286732 68.930323 
L 375.743735 58.57861 
L 376.65774 60.856267 
L 377.114742 65.094183 
L 377.571744 62.388621 
L 378.028747 60.956785 
L 378.485749 57.833014 
L 378.942752 59.858767 
L 379.399754 57.540781 
L 379.856757 57.482443 
L 380.313759 55.8 
L 380.770762 59.081731 
L 381.227764 57.178663 
L 381.684767 56.761297 
L 382.141769 57.069106 
L 382.598771 57.070024 
L 383.512776 57.933535 
L 390.367813 63.28306 
L 390.824816 62.625195 
L 391.738821 61.77076 
L 392.195823 60.986292 
L 392.652826 61.740817 
L 393.56683 62.471303 
L 394.023833 63.081229 
L 394.480835 63.469043 
L 394.937838 62.137606 
L 395.39484 62.084909 
L 396.308845 65.786604 
L 396.765848 64.206657 
L 397.22285 64.514166 
L 397.679853 65.365755 
L 398.593857 66.328661 
L 399.05086 66.19441 
L 399.507862 66.655448 
L 399.964865 65.472516 
L 400.421867 65.597035 
L 400.87887 63.138826 
L 401.335872 62.550685 
L 401.792875 61.607691 
L 402.249877 61.035911 
L 402.70688 60.76089 
L 403.163882 60.847582 
L 403.620885 61.268016 
L 404.077887 61.295743 
L 405.448894 62.337551 
L 412.760934 67.413061 
L 413.217936 67.515126 
L 413.674939 68.220828 
L 414.131941 68.484365 
L 414.588943 69.025136 
L 415.045946 68.945235 
L 415.502948 69.061148 
L 415.959951 69.625531 
L 416.416953 70.963489 
L 416.873956 71.116245 
L 417.330958 71.666931 
L 423.728993 75.836525 
L 425.1 76.812666 
L 425.557002 76.928708 
L 426.471007 77.623836 
L 426.92801 77.328393 
L 427.842015 78.021382 
L 433.326044 81.310183 
L 434.240049 81.575934 
L 441.552088 85.816298 
L 442.466093 87.14143 
L 442.923096 88.263371 
L 443.380098 88.199079 
L 443.837101 87.964481 
L 444.294103 88.218007 
L 444.751106 88.68347 
L 445.208108 88.408282 
L 445.665111 89.121465 
L 446.122113 88.422779 
L 446.579115 88.782704 
L 447.036118 89.468866 
L 447.49312 89.788974 
L 447.950123 89.637477 
L 450.235135 90.970302 
L 450.692138 91.775564 
L 451.14914 92.204022 
L 451.606143 91.733205 
L 452.520147 92.069268 
L 455.719165 93.795742 
L 456.176167 94.583587 
L 456.63317 94.308027 
L 457.090172 93.836884 
L 457.547174 92.884725 
L 458.461179 94.727631 
L 458.918182 93.672786 
L 459.375184 93.594281 
L 459.832187 96.819906 
L 460.289189 96.201095 
L 460.746192 98.919999 
L 461.203194 100.369636 
L 461.660197 98.270656 
L 462.117199 95.062 
L 462.574201 97.005074 
L 463.031204 97.354213 
L 463.488206 97.049515 
L 463.945209 93.772235 
L 464.859214 95.233657 
L 465.316216 93.503799 
L 465.773219 93.98091 
L 466.230221 93.311039 
L 466.687224 94.671341 
L 467.144226 94.927198 
L 468.058231 97.676563 
L 468.515233 96.649795 
L 468.972236 96.680958 
L 469.429238 97.146989 
L 469.886241 98.022773 
L 470.343243 98.295577 
L 470.800246 97.895183 
L 471.257248 96.804786 
L 471.714251 99.251401 
L 472.171253 99.902944 
L 472.628256 99.88977 
L 473.085258 100.179766 
L 473.54226 100.245604 
L 476.284275 101.522984 
L 481.768305 104.044588 
L 482.225307 104.029121 
L 483.139312 105.808688 
L 483.596314 103.361053 
L 484.053317 103.506171 
L 484.510319 104.436548 
L 484.967322 102.16858 
L 485.424324 101.698911 
L 485.881327 100.909134 
L 486.338329 101.032931 
L 486.795332 101.396559 
L 487.252334 101.41764 
L 487.709337 103.526222 
L 488.166339 103.499434 
L 488.623342 102.660047 
L 489.080344 98.667166 
L 489.537346 97.935983 
L 489.994349 102.507934 
L 490.451351 102.640007 
L 490.908354 99.377439 
L 491.365356 98.911806 
L 491.822359 99.521666 
L 492.279361 99.207512 
L 492.736364 99.928711 
L 493.193366 101.302576 
L 493.650369 101.506194 
L 494.107371 100.905949 
L 494.564373 104.203414 
L 495.021376 105.916927 
L 495.478378 105.480094 
L 495.935381 105.925091 
L 496.392383 104.983069 
L 496.849386 106.827594 
L 497.306388 106.39259 
L 497.763391 107.156637 
L 498.220393 106.942065 
L 499.134398 108.849155 
L 499.5914 108.793102 
L 500.048403 108.355492 
L 500.505405 108.280761 
L 500.962408 107.870722 
L 501.41941 107.845381 
L 501.876413 108.905675 
L 502.790418 109.582216 
L 509.645455 112.47045 
L 510.559459 113.054779 
L 520.613514 117.050586 
L 521.527518 118.067624 
L 522.441523 118.445137 
L 522.898526 118.849585 
L 523.355528 118.337364 
L 524.269533 116.784147 
L 524.726536 117.144575 
L 525.183538 118.562259 
L 525.640541 117.94493 
L 526.097543 118.11256 
L 526.554545 118.097315 
L 527.011548 118.217548 
L 527.46855 118.681526 
L 527.925553 119.418865 
L 528.382555 119.862886 
L 529.29656 120.304807 
L 529.753563 120.472857 
L 530.667568 120.382542 
L 531.12457 120.363549 
L 531.581572 120.225783 
L 534.78059 121.278208 
L 535.237592 121.11095 
L 535.694595 121.283079 
L 536.151597 121.215831 
L 536.6086 122.097949 
L 537.522604 122.109589 
L 537.979607 122.818693 
L 538.436609 119.308037 
L 538.893612 119.249576 
L 539.350614 119.706571 
L 539.807617 119.910263 
L 540.264619 120.559494 
L 543.463636 121.586939 
L 546.662654 122.799471 
L 547.119656 123.287611 
L 548.033661 123.253772 
L 548.490663 122.283846 
L 548.947666 122.775614 
L 549.861671 122.805416 
L 550.318673 123.039402 
L 551.689681 123.306531 
L 552.603686 123.767543 
L 553.060688 125.145605 
L 554.431695 127.493749 
L 554.888698 127.45574 
L 555.3457 126.900736 
L 555.802703 127.613956 
L 556.259705 127.158647 
L 556.716708 128.308159 
L 557.17371 128.230865 
L 557.630713 129.012078 
L 558.087715 126.40561 
L 558.544717 127.140874 
L 559.00172 123.966241 
L 559.458722 124.224391 
L 559.915725 124.850067 
L 560.372727 126.726273 
L 560.372727 126.726273 
" clip-path="url(#p117c585b31)" style="fill: none; stroke: #800080; stroke-width: 1.5; stroke-linecap: square"/>
   </g>
   <g id="patch_3">
    <path d="M 81 320.4 
L 81 43.2 
" style="fill: none; stroke: #000000; stroke-width: 0.8; stroke-linejoin: miter; stroke-linecap: square"/>
   </g>
   <g id="patch_4">
    <path d="M 583.2 320.4 
L 583.2 43.2 
" style="fill: none; stroke: #000000; stroke-width: 0.8; stroke-linejoin: miter; stroke-linecap: square"/>
   </g>
   <g id="patch_5">
    <path d="M 81 320.4 
L 583.2 320.4 
" style="fill: none; stroke: #000000; stroke-width: 0.8; stroke-linejoin: miter; stroke-linecap: square"/>
   </g>
   <g id="patch_6">
    <path d="M 81 43.2 
L 583.2 43.2 
" style="fill: none; stroke: #000000; stroke-width: 0.8; stroke-linejoin: miter; stroke-linecap: square"/>
   </g>
   <g id="text_18">
    <!-- Average Reward Over Time -->
    <g transform="translate(250.281563 23.762625) scale(0.12 -0.12)">
     <defs>
      <path id="DejaVuSans-4f" d="M 2522 4238 
Q 1834 4238 1429 3725 
Q 1025 3213 1025 2328 
Q 1025 1447 1429 934 
Q 1834 422 2522 422 
Q 3209 422 3611 934 
Q 4013 1447 4013 2328 
Q 4013 3213 3611 3725 
Q 3209 4238 2522 4238 
z
M 2522 4750 
Q 3503 4750 4090 4092 
Q 4678 3434 4678 2328 
Q 4678 1225 4090 567 
Q 3503 -91 2522 -91 
Q 1538 -91 948 565 
Q 359 1222 359 2328 
Q 359 3434 948 4092 
Q 1538 4750 2522 4750 
z
" transform="scale(0.015625)"/>
     </defs>
     <use xlink:href="#DejaVuSans-41"/>
     <use xlink:href="#DejaVuSans-76" transform="translate(62.533203 0)"/>
     <use xlink:href="#DejaVuSans-65" transform="translate(121.712891 0)"/>
     <use xlink:href="#DejaVuSans-72" transform="translate(183.236328 0)"/>
     <use xlink:href="#DejaVuSans-61" transform="translate(224.349609 0)"/>
     <use xlink:href="#DejaVuSans-67" transform="translate(285.628906 0)"/>
     <use xlink:href="#DejaVuSans-65" transform="translate(349.105469 0)"/>
     <use xlink:href="#DejaVuSans-20" transform="translate(410.628906 0)"/>
     <use xlink:href="#DejaVuSans-52" transform="translate(442.416016 0)"/>
     <use xlink:href="#DejaVuSans-65" transform="translate(507.398438 0)"/>
     <use xlink:href="#DejaVuSans-77" transform="translate(568.921875 0)"/>
     <use xlink:href="#DejaVuSans-61" transform="translate(650.708984 0)"/>
     <use xlink:href="#DejaVuSans-72" transform="translate(711.988281 0)"/>
     <use xlink:href="#DejaVuSans-64" transform="translate(751.351562 0)"/>
     <use xlink:href="#DejaVuSans-20" transform="translate(814.828125 0)"/>
     <use xlink:href="#DejaVuSans-4f" transform="translate(846.615234 0)"/>
     <use xlink:href="#DejaVuSans-76" transform="translate(925.326172 0)"/>
     <use xlink:href="#DejaVuSans-65" transform="translate(984.505859 0)"/>
     <use xlink:href="#DejaVuSans-72" transform="translate(1046.029297 0)"/>
     <use xlink:href="#DejaVuSans-20" transform="translate(1087.142578 0)"/>
     <use xlink:href="#DejaVuSans-54" transform="translate(1118.929688 0)"/>
     <use xlink:href="#DejaVuSans-69" transform="translate(1176.888672 0)"/>
     <use xlink:href="#DejaVuSans-6d" transform="translate(1204.671875 0)"/>
     <use xlink:href="#DejaVuSans-65" transform="translate(1302.083984 0)"/>
    </g>
    <!-- Policy: Clipped Initial Policy -->
    <g transform="translate(251.037188 37.2) scale(0.12 -0.12)">
     <defs>
      <path id="DejaVuSans-50" d="M 1259 4147 
L 1259 2394 
L 2053 2394 
Q 2494 2394 2734 2622 
Q 2975 2850 2975 3272 
Q 2975 3691 2734 3919 
Q 2494 4147 2053 4147 
L 1259 4147 
z
M 628 4666 
L 2053 4666 
Q 2838 4666 3239 4311 
Q 3641 3956 3641 3272 
Q 3641 2581 3239 2228 
Q 2838 1875 2053 1875 
L 1259 1875 
L 1259 0 
L 628 0 
L 628 4666 
z
" transform="scale(0.015625)"/>
      <path id="DejaVuSans-6f" d="M 1959 3097 
Q 1497 3097 1228 2736 
Q 959 2375 959 1747 
Q 959 1119 1226 758 
Q 1494 397 1959 397 
Q 2419 397 2687 759 
Q 2956 1122 2956 1747 
Q 2956 2369 2687 2733 
Q 2419 3097 1959 3097 
z
M 1959 3584 
Q 2709 3584 3137 3096 
Q 3566 2609 3566 1747 
Q 3566 888 3137 398 
Q 2709 -91 1959 -91 
Q 1206 -91 779 398 
Q 353 888 353 1747 
Q 353 2609 779 3096 
Q 1206 3584 1959 3584 
z
" transform="scale(0.015625)"/>
      <path id="DejaVuSans-6c" d="M 603 4863 
L 1178 4863 
L 1178 0 
L 603 0 
L 603 4863 
z
" transform="scale(0.015625)"/>
      <path id="DejaVuSans-63" d="M 3122 3366 
L 3122 2828 
Q 2878 2963 2633 3030 
Q 2388 3097 2138 3097 
Q 1578 3097 1268 2742 
Q 959 2388 959 1747 
Q 959 1106 1268 751 
Q 1578 397 2138 397 
Q 2388 397 2633 464 
Q 2878 531 3122 666 
L 3122 134 
Q 2881 22 2623 -34 
Q 2366 -91 2075 -91 
Q 1284 -91 818 406 
Q 353 903 353 1747 
Q 353 2603 823 3093 
Q 1294 3584 2113 3584 
Q 2378 3584 2631 3529 
Q 2884 3475 3122 3366 
z
" transform="scale(0.015625)"/>
      <path id="DejaVuSans-79" d="M 2059 -325 
Q 1816 -950 1584 -1140 
Q 1353 -1331 966 -1331 
L 506 -1331 
L 506 -850 
L 844 -850 
Q 1081 -850 1212 -737 
Q 1344 -625 1503 -206 
L 1606 56 
L 191 3500 
L 800 3500 
L 1894 763 
L 2988 3500 
L 3597 3500 
L 2059 -325 
z
" transform="scale(0.015625)"/>
      <path id="DejaVuSans-3a" d="M 750 794 
L 1409 794 
L 1409 0 
L 750 0 
L 750 794 
z
M 750 3309 
L 1409 3309 
L 1409 2516 
L 750 2516 
L 750 3309 
z
" transform="scale(0.015625)"/>
      <path id="DejaVuSans-43" d="M 4122 4306 
L 4122 3641 
Q 3803 3938 3442 4084 
Q 3081 4231 2675 4231 
Q 1875 4231 1450 3742 
Q 1025 3253 1025 2328 
Q 1025 1406 1450 917 
Q 1875 428 2675 428 
Q 3081 428 3442 575 
Q 3803 722 4122 1019 
L 4122 359 
Q 3791 134 3420 21 
Q 3050 -91 2638 -91 
Q 1578 -91 968 557 
Q 359 1206 359 2328 
Q 359 3453 968 4101 
Q 1578 4750 2638 4750 
Q 3056 4750 3426 4639 
Q 3797 4528 4122 4306 
z
" transform="scale(0.015625)"/>
      <path id="DejaVuSans-70" d="M 1159 525 
L 1159 -1331 
L 581 -1331 
L 581 3500 
L 1159 3500 
L 1159 2969 
Q 1341 3281 1617 3432 
Q 1894 3584 2278 3584 
Q 2916 3584 3314 3078 
Q 3713 2572 3713 1747 
Q 3713 922 3314 415 
Q 2916 -91 2278 -91 
Q 1894 -91 1617 61 
Q 1341 213 1159 525 
z
M 3116 1747 
Q 3116 2381 2855 2742 
Q 2594 3103 2138 3103 
Q 1681 3103 1420 2742 
Q 1159 2381 1159 1747 
Q 1159 1113 1420 752 
Q 1681 391 2138 391 
Q 2594 391 2855 752 
Q 3116 1113 3116 1747 
z
" transform="scale(0.015625)"/>
      <path id="DejaVuSans-49" d="M 628 4666 
L 1259 4666 
L 1259 0 
L 628 0 
L 628 4666 
z
" transform="scale(0.015625)"/>
      <path id="DejaVuSans-6e" d="M 3513 2113 
L 3513 0 
L 2938 0 
L 2938 2094 
Q 2938 2591 2744 2837 
Q 2550 3084 2163 3084 
Q 1697 3084 1428 2787 
Q 1159 2491 1159 1978 
L 1159 0 
L 581 0 
L 581 3500 
L 1159 3500 
L 1159 2956 
Q 1366 3272 1645 3428 
Q 1925 3584 2291 3584 
Q 2894 3584 3203 3211 
Q 3513 2838 3513 2113 
z
" transform="scale(0.015625)"/>
      <path id="DejaVuSans-74" d="M 1172 4494 
L 1172 3500 
L 2356 3500 
L 2356 3053 
L 1172 3053 
L 1172 1153 
Q 1172 725 1289 603 
Q 1406 481 1766 481 
L 2356 481 
L 2356 0 
L 1766 0 
Q 1100 0 847 248 
Q 594 497 594 1153 
L 594 3053 
L 172 3053 
L 172 3500 
L 594 3500 
L 594 4494 
L 1172 4494 
z
" transform="scale(0.015625)"/>
     </defs>
     <use xlink:href="#DejaVuSans-50"/>
     <use xlink:href="#DejaVuSans-6f" transform="translate(56.677734 0)"/>
     <use xlink:href="#DejaVuSans-6c" transform="translate(117.859375 0)"/>
     <use xlink:href="#DejaVuSans-69" transform="translate(145.642578 0)"/>
     <use xlink:href="#DejaVuSans-63" transform="translate(173.425781 0)"/>
     <use xlink:href="#DejaVuSans-79" transform="translate(228.40625 0)"/>
     <use xlink:href="#DejaVuSans-3a" transform="translate(280.335938 0)"/>
     <use xlink:href="#DejaVuSans-20" transform="translate(314.027344 0)"/>
     <use xlink:href="#DejaVuSans-43" transform="translate(345.814453 0)"/>
     <use xlink:href="#DejaVuSans-6c" transform="translate(415.638672 0)"/>
     <use xlink:href="#DejaVuSans-69" transform="translate(443.421875 0)"/>
     <use xlink:href="#DejaVuSans-70" transform="translate(471.205078 0)"/>
     <use xlink:href="#DejaVuSans-70" transform="translate(534.681641 0)"/>
     <use xlink:href="#DejaVuSans-65" transform="translate(598.158203 0)"/>
     <use xlink:href="#DejaVuSans-64" transform="translate(659.681641 0)"/>
     <use xlink:href="#DejaVuSans-20" transform="translate(723.158203 0)"/>
     <use xlink:href="#DejaVuSans-49" transform="translate(754.945312 0)"/>
     <use xlink:href="#DejaVuSans-6e" transform="translate(784.4375 0)"/>
     <use xlink:href="#DejaVuSans-69" transform="translate(847.816406 0)"/>
     <use xlink:href="#DejaVuSans-74" transform="translate(875.599609 0)"/>
     <use xlink:href="#DejaVuSans-69" transform="translate(914.808594 0)"/>
     <use xlink:href="#DejaVuSans-61" transform="translate(942.591797 0)"/>
     <use xlink:href="#DejaVuSans-6c" transform="translate(1003.871094 0)"/>
     <use xlink:href="#DejaVuSans-20" transform="translate(1031.654297 0)"/>
     <use xlink:href="#DejaVuSans-50" transform="translate(1063.441406 0)"/>
     <use xlink:href="#DejaVuSans-6f" transform="translate(1120.119141 0)"/>
     <use xlink:href="#DejaVuSans-6c" transform="translate(1181.300781 0)"/>
     <use xlink:href="#DejaVuSans-69" transform="translate(1209.083984 0)"/>
     <use xlink:href="#DejaVuSans-63" transform="translate(1236.867188 0)"/>
     <use xlink:href="#DejaVuSans-79" transform="translate(1291.847656 0)"/>
    </g>
   </g>
   <g id="legend_1">
    <g id="patch_7">
     <path d="M 462.714063 65.878125 
L 576.2 65.878125 
Q 578.2 65.878125 578.2 63.878125 
L 578.2 50.2 
Q 578.2 48.2 576.2 48.2 
L 462.714063 48.2 
Q 460.714063 48.2 460.714063 50.2 
L 460.714063 63.878125 
Q 460.714063 65.878125 462.714063 65.878125 
z
" style="fill: #ffffff; opacity: 0.8; stroke: #cccccc; stroke-linejoin: miter"/>
    </g>
    <g id="line2d_30">
     <path d="M 464.714063 56.298437 
L 474.714063 56.298437 
L 484.714063 56.298437 
" style="fill: none; stroke: #800080; stroke-width: 1.5; stroke-linecap: square"/>
    </g>
    <g id="text_19">
     <!-- Average Reward -->
     <g transform="translate(492.714063 59.798437) scale(0.1 -0.1)">
      <use xlink:href="#DejaVuSans-41"/>
      <use xlink:href="#DejaVuSans-76" transform="translate(62.533203 0)"/>
      <use xlink:href="#DejaVuSans-65" transform="translate(121.712891 0)"/>
      <use xlink:href="#DejaVuSans-72" transform="translate(183.236328 0)"/>
      <use xlink:href="#DejaVuSans-61" transform="translate(224.349609 0)"/>
      <use xlink:href="#DejaVuSans-67" transform="translate(285.628906 0)"/>
      <use xlink:href="#DejaVuSans-65" transform="translate(349.105469 0)"/>
      <use xlink:href="#DejaVuSans-20" transform="translate(410.628906 0)"/>
      <use xlink:href="#DejaVuSans-52" transform="translate(442.416016 0)"/>
      <use xlink:href="#DejaVuSans-65" transform="translate(507.398438 0)"/>
      <use xlink:href="#DejaVuSans-77" transform="translate(568.921875 0)"/>
      <use xlink:href="#DejaVuSans-61" transform="translate(650.708984 0)"/>
      <use xlink:href="#DejaVuSans-72" transform="translate(711.988281 0)"/>
      <use xlink:href="#DejaVuSans-64" transform="translate(751.351562 0)"/>
     </g>
    </g>
   </g>
  </g>
 </g>
 <defs>
  <clipPath id="p117c585b31">
   <rect x="81" y="43.2" width="502.2" height="277.2"/>
  </clipPath>
 </defs>
</svg>
