<?xml version="1.0" encoding="utf-8" standalone="no"?>
<!DOCTYPE svg PUBLIC "-//W3C//DTD SVG 1.1//EN"
  "http://www.w3.org/Graphics/SVG/1.1/DTD/svg11.dtd">
<svg xmlns:xlink="http://www.w3.org/1999/xlink" width="648pt" height="360pt" viewBox="0 0 648 360" xmlns="http://www.w3.org/2000/svg" version="1.1">
 <metadata>
  <rdf:RDF xmlns:dc="http://purl.org/dc/elements/1.1/" xmlns:cc="http://creativecommons.org/ns#" xmlns:rdf="http://www.w3.org/1999/02/22-rdf-syntax-ns#">
   <cc:Work>
    <dc:type rdf:resource="http://purl.org/dc/dcmitype/StillImage"/>
    <dc:date>2025-10-10T01:23:56.626497</dc:date>
    <dc:format>image/svg+xml</dc:format>
    <dc:creator>
     <cc:Agent>
      <dc:title>Matplotlib v3.10.6, https://matplotlib.org/</dc:title>
     </cc:Agent>
    </dc:creator>
   </cc:Work>
  </rdf:RDF>
 </metadata>
 <defs>
  <style type="text/css">*{stroke-linejoin: round; stroke-linecap: butt}</style>
 </defs>
 <g id="figure_1">
  <g id="patch_1">
   <path d="M 0 360 
L 648 360 
L 648 0 
L 0 0 
z
" style="fill: #ffffff"/>
  </g>
  <g id="axes_1">
   <g id="patch_2">
    <path d="M 81 320.4 
L 583.2 320.4 
L 583.2 43.2 
L 81 43.2 
z
" style="fill: #ffffff"/>
   </g>
   <g id="matplotlib.axis_1">
    <g id="xtick_1">
     <g id="line2d_1">
      <path d="M 103.37027 320.4 
L 103.37027 43.2 
" clip-path="url(#pf2e44b3a2f)" style="fill: none; stroke: #b0b0b0; stroke-width: 0.8; stroke-linecap: square"/>
     </g>
     <g id="line2d_2">
      <defs>
       <path id="m5716b169b8" d="M 0 0 
L 0 3.5 
" style="stroke: #000000; stroke-width: 0.8"/>
      </defs>
      <g>
       <use xlink:href="#m5716b169b8" x="103.37027" y="320.4" style="stroke: #000000; stroke-width: 0.8"/>
      </g>
     </g>
     <g id="text_1">
      <!-- 0 -->
      <g transform="translate(100.18902 334.998438) scale(0.1 -0.1)">
       <defs>
        <path id="DejaVuSans-30" d="M 2034 4250 
Q 1547 4250 1301 3770 
Q 1056 3291 1056 2328 
Q 1056 1369 1301 889 
Q 1547 409 2034 409 
Q 2525 409 2770 889 
Q 3016 1369 3016 2328 
Q 3016 3291 2770 3770 
Q 2525 4250 2034 4250 
z
M 2034 4750 
Q 2819 4750 3233 4129 
Q 3647 3509 3647 2328 
Q 3647 1150 3233 529 
Q 2819 -91 2034 -91 
Q 1250 -91 836 529 
Q 422 1150 422 2328 
Q 422 3509 836 4129 
Q 1250 4750 2034 4750 
z
" transform="scale(0.015625)"/>
       </defs>
       <use xlink:href="#DejaVuSans-30"/>
      </g>
     </g>
    </g>
    <g id="xtick_2">
     <g id="line2d_3">
      <path d="M 194.770762 320.4 
L 194.770762 43.2 
" clip-path="url(#pf2e44b3a2f)" style="fill: none; stroke: #b0b0b0; stroke-width: 0.8; stroke-linecap: square"/>
     </g>
     <g id="line2d_4">
      <g>
       <use xlink:href="#m5716b169b8" x="194.770762" y="320.4" style="stroke: #000000; stroke-width: 0.8"/>
      </g>
     </g>
     <g id="text_2">
      <!-- 200 -->
      <g transform="translate(185.227012 334.998438) scale(0.1 -0.1)">
       <defs>
        <path id="DejaVuSans-32" d="M 1228 531 
L 3431 531 
L 3431 0 
L 469 0 
L 469 531 
Q 828 903 1448 1529 
Q 2069 2156 2228 2338 
Q 2531 2678 2651 2914 
Q 2772 3150 2772 3378 
Q 2772 3750 2511 3984 
Q 2250 4219 1831 4219 
Q 1534 4219 1204 4116 
Q 875 4013 500 3803 
L 500 4441 
Q 881 4594 1212 4672 
Q 1544 4750 1819 4750 
Q 2544 4750 2975 4387 
Q 3406 4025 3406 3419 
Q 3406 3131 3298 2873 
Q 3191 2616 2906 2266 
Q 2828 2175 2409 1742 
Q 1991 1309 1228 531 
z
" transform="scale(0.015625)"/>
       </defs>
       <use xlink:href="#DejaVuSans-32"/>
       <use xlink:href="#DejaVuSans-30" transform="translate(63.623047 0)"/>
       <use xlink:href="#DejaVuSans-30" transform="translate(127.246094 0)"/>
      </g>
     </g>
    </g>
    <g id="xtick_3">
     <g id="line2d_5">
      <path d="M 286.171253 320.4 
L 286.171253 43.2 
" clip-path="url(#pf2e44b3a2f)" style="fill: none; stroke: #b0b0b0; stroke-width: 0.8; stroke-linecap: square"/>
     </g>
     <g id="line2d_6">
      <g>
       <use xlink:href="#m5716b169b8" x="286.171253" y="320.4" style="stroke: #000000; stroke-width: 0.8"/>
      </g>
     </g>
     <g id="text_3">
      <!-- 400 -->
      <g transform="translate(276.627503 334.998438) scale(0.1 -0.1)">
       <defs>
        <path id="DejaVuSans-34" d="M 2419 4116 
L 825 1625 
L 2419 1625 
L 2419 4116 
z
M 2253 4666 
L 3047 4666 
L 3047 1625 
L 3713 1625 
L 3713 1100 
L 3047 1100 
L 3047 0 
L 2419 0 
L 2419 1100 
L 313 1100 
L 313 1709 
L 2253 4666 
z
" transform="scale(0.015625)"/>
       </defs>
       <use xlink:href="#DejaVuSans-34"/>
       <use xlink:href="#DejaVuSans-30" transform="translate(63.623047 0)"/>
       <use xlink:href="#DejaVuSans-30" transform="translate(127.246094 0)"/>
      </g>
     </g>
    </g>
    <g id="xtick_4">
     <g id="line2d_7">
      <path d="M 377.571744 320.4 
L 377.571744 43.2 
" clip-path="url(#pf2e44b3a2f)" style="fill: none; stroke: #b0b0b0; stroke-width: 0.8; stroke-linecap: square"/>
     </g>
     <g id="line2d_8">
      <g>
       <use xlink:href="#m5716b169b8" x="377.571744" y="320.4" style="stroke: #000000; stroke-width: 0.8"/>
      </g>
     </g>
     <g id="text_4">
      <!-- 600 -->
      <g transform="translate(368.027994 334.998438) scale(0.1 -0.1)">
       <defs>
        <path id="DejaVuSans-36" d="M 2113 2584 
Q 1688 2584 1439 2293 
Q 1191 2003 1191 1497 
Q 1191 994 1439 701 
Q 1688 409 2113 409 
Q 2538 409 2786 701 
Q 3034 994 3034 1497 
Q 3034 2003 2786 2293 
Q 2538 2584 2113 2584 
z
M 3366 4563 
L 3366 3988 
Q 3128 4100 2886 4159 
Q 2644 4219 2406 4219 
Q 1781 4219 1451 3797 
Q 1122 3375 1075 2522 
Q 1259 2794 1537 2939 
Q 1816 3084 2150 3084 
Q 2853 3084 3261 2657 
Q 3669 2231 3669 1497 
Q 3669 778 3244 343 
Q 2819 -91 2113 -91 
Q 1303 -91 875 529 
Q 447 1150 447 2328 
Q 447 3434 972 4092 
Q 1497 4750 2381 4750 
Q 2619 4750 2861 4703 
Q 3103 4656 3366 4563 
z
" transform="scale(0.015625)"/>
       </defs>
       <use xlink:href="#DejaVuSans-36"/>
       <use xlink:href="#DejaVuSans-30" transform="translate(63.623047 0)"/>
       <use xlink:href="#DejaVuSans-30" transform="translate(127.246094 0)"/>
      </g>
     </g>
    </g>
    <g id="xtick_5">
     <g id="line2d_9">
      <path d="M 468.972236 320.4 
L 468.972236 43.2 
" clip-path="url(#pf2e44b3a2f)" style="fill: none; stroke: #b0b0b0; stroke-width: 0.8; stroke-linecap: square"/>
     </g>
     <g id="line2d_10">
      <g>
       <use xlink:href="#m5716b169b8" x="468.972236" y="320.4" style="stroke: #000000; stroke-width: 0.8"/>
      </g>
     </g>
     <g id="text_5">
      <!-- 800 -->
      <g transform="translate(459.428486 334.998438) scale(0.1 -0.1)">
       <defs>
        <path id="DejaVuSans-38" d="M 2034 2216 
Q 1584 2216 1326 1975 
Q 1069 1734 1069 1313 
Q 1069 891 1326 650 
Q 1584 409 2034 409 
Q 2484 409 2743 651 
Q 3003 894 3003 1313 
Q 3003 1734 2745 1975 
Q 2488 2216 2034 2216 
z
M 1403 2484 
Q 997 2584 770 2862 
Q 544 3141 544 3541 
Q 544 4100 942 4425 
Q 1341 4750 2034 4750 
Q 2731 4750 3128 4425 
Q 3525 4100 3525 3541 
Q 3525 3141 3298 2862 
Q 3072 2584 2669 2484 
Q 3125 2378 3379 2068 
Q 3634 1759 3634 1313 
Q 3634 634 3220 271 
Q 2806 -91 2034 -91 
Q 1263 -91 848 271 
Q 434 634 434 1313 
Q 434 1759 690 2068 
Q 947 2378 1403 2484 
z
M 1172 3481 
Q 1172 3119 1398 2916 
Q 1625 2713 2034 2713 
Q 2441 2713 2670 2916 
Q 2900 3119 2900 3481 
Q 2900 3844 2670 4047 
Q 2441 4250 2034 4250 
Q 1625 4250 1398 4047 
Q 1172 3844 1172 3481 
z
" transform="scale(0.015625)"/>
       </defs>
       <use xlink:href="#DejaVuSans-38"/>
       <use xlink:href="#DejaVuSans-30" transform="translate(63.623047 0)"/>
       <use xlink:href="#DejaVuSans-30" transform="translate(127.246094 0)"/>
      </g>
     </g>
    </g>
    <g id="xtick_6">
     <g id="line2d_11">
      <path d="M 560.372727 320.4 
L 560.372727 43.2 
" clip-path="url(#pf2e44b3a2f)" style="fill: none; stroke: #b0b0b0; stroke-width: 0.8; stroke-linecap: square"/>
     </g>
     <g id="line2d_12">
      <g>
       <use xlink:href="#m5716b169b8" x="560.372727" y="320.4" style="stroke: #000000; stroke-width: 0.8"/>
      </g>
     </g>
     <g id="text_6">
      <!-- 1000 -->
      <g transform="translate(547.647727 334.998438) scale(0.1 -0.1)">
       <defs>
        <path id="DejaVuSans-31" d="M 794 531 
L 1825 531 
L 1825 4091 
L 703 3866 
L 703 4441 
L 1819 4666 
L 2450 4666 
L 2450 531 
L 3481 531 
L 3481 0 
L 794 0 
L 794 531 
z
" transform="scale(0.015625)"/>
       </defs>
       <use xlink:href="#DejaVuSans-31"/>
       <use xlink:href="#DejaVuSans-30" transform="translate(63.623047 0)"/>
       <use xlink:href="#DejaVuSans-30" transform="translate(127.246094 0)"/>
       <use xlink:href="#DejaVuSans-30" transform="translate(190.869141 0)"/>
      </g>
     </g>
    </g>
    <g id="text_7">
     <!-- Time -->
     <g transform="translate(319.866406 348.676562) scale(0.1 -0.1)">
      <defs>
       <path id="DejaVuSans-54" d="M -19 4666 
L 3928 4666 
L 3928 4134 
L 2272 4134 
L 2272 0 
L 1638 0 
L 1638 4134 
L -19 4134 
L -19 4666 
z
" transform="scale(0.015625)"/>
       <path id="DejaVuSans-69" d="M 603 3500 
L 1178 3500 
L 1178 0 
L 603 0 
L 603 3500 
z
M 603 4863 
L 1178 4863 
L 1178 4134 
L 603 4134 
L 603 4863 
z
" transform="scale(0.015625)"/>
       <path id="DejaVuSans-6d" d="M 3328 2828 
Q 3544 3216 3844 3400 
Q 4144 3584 4550 3584 
Q 5097 3584 5394 3201 
Q 5691 2819 5691 2113 
L 5691 0 
L 5113 0 
L 5113 2094 
Q 5113 2597 4934 2840 
Q 4756 3084 4391 3084 
Q 3944 3084 3684 2787 
Q 3425 2491 3425 1978 
L 3425 0 
L 2847 0 
L 2847 2094 
Q 2847 2600 2669 2842 
Q 2491 3084 2119 3084 
Q 1678 3084 1418 2786 
Q 1159 2488 1159 1978 
L 1159 0 
L 581 0 
L 581 3500 
L 1159 3500 
L 1159 2956 
Q 1356 3278 1631 3431 
Q 1906 3584 2284 3584 
Q 2666 3584 2933 3390 
Q 3200 3197 3328 2828 
z
" transform="scale(0.015625)"/>
       <path id="DejaVuSans-65" d="M 3597 1894 
L 3597 1613 
L 953 1613 
Q 991 1019 1311 708 
Q 1631 397 2203 397 
Q 2534 397 2845 478 
Q 3156 559 3463 722 
L 3463 178 
Q 3153 47 2828 -22 
Q 2503 -91 2169 -91 
Q 1331 -91 842 396 
Q 353 884 353 1716 
Q 353 2575 817 3079 
Q 1281 3584 2069 3584 
Q 2775 3584 3186 3129 
Q 3597 2675 3597 1894 
z
M 3022 2063 
Q 3016 2534 2758 2815 
Q 2500 3097 2075 3097 
Q 1594 3097 1305 2825 
Q 1016 2553 972 2059 
L 3022 2063 
z
" transform="scale(0.015625)"/>
      </defs>
      <use xlink:href="#DejaVuSans-54"/>
      <use xlink:href="#DejaVuSans-69" transform="translate(57.958984 0)"/>
      <use xlink:href="#DejaVuSans-6d" transform="translate(85.742188 0)"/>
      <use xlink:href="#DejaVuSans-65" transform="translate(183.154297 0)"/>
     </g>
    </g>
   </g>
   <g id="matplotlib.axis_2">
    <g id="ytick_1">
     <g id="line2d_13">
      <path d="M 81 288.819394 
L 583.2 288.819394 
" clip-path="url(#pf2e44b3a2f)" style="fill: none; stroke: #b0b0b0; stroke-width: 0.8; stroke-linecap: square"/>
     </g>
     <g id="line2d_14">
      <defs>
       <path id="m1e993344d9" d="M 0 0 
L -3.5 0 
" style="stroke: #000000; stroke-width: 0.8"/>
      </defs>
      <g>
       <use xlink:href="#m1e993344d9" x="81" y="288.819394" style="stroke: #000000; stroke-width: 0.8"/>
      </g>
     </g>
     <g id="text_8">
      <!-- −0.003 -->
      <g transform="translate(36.992188 292.618613) scale(0.1 -0.1)">
       <defs>
        <path id="DejaVuSans-2212" d="M 678 2272 
L 4684 2272 
L 4684 1741 
L 678 1741 
L 678 2272 
z
" transform="scale(0.015625)"/>
        <path id="DejaVuSans-2e" d="M 684 794 
L 1344 794 
L 1344 0 
L 684 0 
L 684 794 
z
" transform="scale(0.015625)"/>
        <path id="DejaVuSans-33" d="M 2597 2516 
Q 3050 2419 3304 2112 
Q 3559 1806 3559 1356 
Q 3559 666 3084 287 
Q 2609 -91 1734 -91 
Q 1441 -91 1130 -33 
Q 819 25 488 141 
L 488 750 
Q 750 597 1062 519 
Q 1375 441 1716 441 
Q 2309 441 2620 675 
Q 2931 909 2931 1356 
Q 2931 1769 2642 2001 
Q 2353 2234 1838 2234 
L 1294 2234 
L 1294 2753 
L 1863 2753 
Q 2328 2753 2575 2939 
Q 2822 3125 2822 3475 
Q 2822 3834 2567 4026 
Q 2313 4219 1838 4219 
Q 1578 4219 1281 4162 
Q 984 4106 628 3988 
L 628 4550 
Q 988 4650 1302 4700 
Q 1616 4750 1894 4750 
Q 2613 4750 3031 4423 
Q 3450 4097 3450 3541 
Q 3450 3153 3228 2886 
Q 3006 2619 2597 2516 
z
" transform="scale(0.015625)"/>
       </defs>
       <use xlink:href="#DejaVuSans-2212"/>
       <use xlink:href="#DejaVuSans-30" transform="translate(83.789062 0)"/>
       <use xlink:href="#DejaVuSans-2e" transform="translate(147.412109 0)"/>
       <use xlink:href="#DejaVuSans-30" transform="translate(179.199219 0)"/>
       <use xlink:href="#DejaVuSans-30" transform="translate(242.822266 0)"/>
       <use xlink:href="#DejaVuSans-33" transform="translate(306.445312 0)"/>
      </g>
     </g>
    </g>
    <g id="ytick_2">
     <g id="line2d_15">
      <path d="M 81 229.687919 
L 583.2 229.687919 
" clip-path="url(#pf2e44b3a2f)" style="fill: none; stroke: #b0b0b0; stroke-width: 0.8; stroke-linecap: square"/>
     </g>
     <g id="line2d_16">
      <g>
       <use xlink:href="#m1e993344d9" x="81" y="229.687919" style="stroke: #000000; stroke-width: 0.8"/>
      </g>
     </g>
     <g id="text_9">
      <!-- −0.002 -->
      <g transform="translate(36.992188 233.487138) scale(0.1 -0.1)">
       <use xlink:href="#DejaVuSans-2212"/>
       <use xlink:href="#DejaVuSans-30" transform="translate(83.789062 0)"/>
       <use xlink:href="#DejaVuSans-2e" transform="translate(147.412109 0)"/>
       <use xlink:href="#DejaVuSans-30" transform="translate(179.199219 0)"/>
       <use xlink:href="#DejaVuSans-30" transform="translate(242.822266 0)"/>
       <use xlink:href="#DejaVuSans-32" transform="translate(306.445312 0)"/>
      </g>
     </g>
    </g>
    <g id="ytick_3">
     <g id="line2d_17">
      <path d="M 81 170.556444 
L 583.2 170.556444 
" clip-path="url(#pf2e44b3a2f)" style="fill: none; stroke: #b0b0b0; stroke-width: 0.8; stroke-linecap: square"/>
     </g>
     <g id="line2d_18">
      <g>
       <use xlink:href="#m1e993344d9" x="81" y="170.556444" style="stroke: #000000; stroke-width: 0.8"/>
      </g>
     </g>
     <g id="text_10">
      <!-- −0.001 -->
      <g transform="translate(36.992188 174.355663) scale(0.1 -0.1)">
       <use xlink:href="#DejaVuSans-2212"/>
       <use xlink:href="#DejaVuSans-30" transform="translate(83.789062 0)"/>
       <use xlink:href="#DejaVuSans-2e" transform="translate(147.412109 0)"/>
       <use xlink:href="#DejaVuSans-30" transform="translate(179.199219 0)"/>
       <use xlink:href="#DejaVuSans-30" transform="translate(242.822266 0)"/>
       <use xlink:href="#DejaVuSans-31" transform="translate(306.445312 0)"/>
      </g>
     </g>
    </g>
    <g id="ytick_4">
     <g id="line2d_19">
      <path d="M 81 111.424969 
L 583.2 111.424969 
" clip-path="url(#pf2e44b3a2f)" style="fill: none; stroke: #b0b0b0; stroke-width: 0.8; stroke-linecap: square"/>
     </g>
     <g id="line2d_20">
      <g>
       <use xlink:href="#m1e993344d9" x="81" y="111.424969" style="stroke: #000000; stroke-width: 0.8"/>
      </g>
     </g>
     <g id="text_11">
      <!-- 0.000 -->
      <g transform="translate(45.371875 115.224188) scale(0.1 -0.1)">
       <use xlink:href="#DejaVuSans-30"/>
       <use xlink:href="#DejaVuSans-2e" transform="translate(63.623047 0)"/>
       <use xlink:href="#DejaVuSans-30" transform="translate(95.410156 0)"/>
       <use xlink:href="#DejaVuSans-30" transform="translate(159.033203 0)"/>
       <use xlink:href="#DejaVuSans-30" transform="translate(222.65625 0)"/>
      </g>
     </g>
    </g>
    <g id="ytick_5">
     <g id="line2d_21">
      <path d="M 81 52.293494 
L 583.2 52.293494 
" clip-path="url(#pf2e44b3a2f)" style="fill: none; stroke: #b0b0b0; stroke-width: 0.8; stroke-linecap: square"/>
     </g>
     <g id="line2d_22">
      <g>
       <use xlink:href="#m1e993344d9" x="81" y="52.293494" style="stroke: #000000; stroke-width: 0.8"/>
      </g>
     </g>
     <g id="text_12">
      <!-- 0.001 -->
      <g transform="translate(45.371875 56.092713) scale(0.1 -0.1)">
       <use xlink:href="#DejaVuSans-30"/>
       <use xlink:href="#DejaVuSans-2e" transform="translate(63.623047 0)"/>
       <use xlink:href="#DejaVuSans-30" transform="translate(95.410156 0)"/>
       <use xlink:href="#DejaVuSans-30" transform="translate(159.033203 0)"/>
       <use xlink:href="#DejaVuSans-31" transform="translate(222.65625 0)"/>
      </g>
     </g>
    </g>
    <g id="text_13">
     <!-- Average Reward -->
     <g transform="translate(30.9125 222.542969) rotate(-90) scale(0.1 -0.1)">
      <defs>
       <path id="DejaVuSans-41" d="M 2188 4044 
L 1331 1722 
L 3047 1722 
L 2188 4044 
z
M 1831 4666 
L 2547 4666 
L 4325 0 
L 3669 0 
L 3244 1197 
L 1141 1197 
L 716 0 
L 50 0 
L 1831 4666 
z
" transform="scale(0.015625)"/>
       <path id="DejaVuSans-76" d="M 191 3500 
L 800 3500 
L 1894 563 
L 2988 3500 
L 3597 3500 
L 2284 0 
L 1503 0 
L 191 3500 
z
" transform="scale(0.015625)"/>
       <path id="DejaVuSans-72" d="M 2631 2963 
Q 2534 3019 2420 3045 
Q 2306 3072 2169 3072 
Q 1681 3072 1420 2755 
Q 1159 2438 1159 1844 
L 1159 0 
L 581 0 
L 581 3500 
L 1159 3500 
L 1159 2956 
Q 1341 3275 1631 3429 
Q 1922 3584 2338 3584 
Q 2397 3584 2469 3576 
Q 2541 3569 2628 3553 
L 2631 2963 
z
" transform="scale(0.015625)"/>
       <path id="DejaVuSans-61" d="M 2194 1759 
Q 1497 1759 1228 1600 
Q 959 1441 959 1056 
Q 959 750 1161 570 
Q 1363 391 1709 391 
Q 2188 391 2477 730 
Q 2766 1069 2766 1631 
L 2766 1759 
L 2194 1759 
z
M 3341 1997 
L 3341 0 
L 2766 0 
L 2766 531 
Q 2569 213 2275 61 
Q 1981 -91 1556 -91 
Q 1019 -91 701 211 
Q 384 513 384 1019 
Q 384 1609 779 1909 
Q 1175 2209 1959 2209 
L 2766 2209 
L 2766 2266 
Q 2766 2663 2505 2880 
Q 2244 3097 1772 3097 
Q 1472 3097 1187 3025 
Q 903 2953 641 2809 
L 641 3341 
Q 956 3463 1253 3523 
Q 1550 3584 1831 3584 
Q 2591 3584 2966 3190 
Q 3341 2797 3341 1997 
z
" transform="scale(0.015625)"/>
       <path id="DejaVuSans-67" d="M 2906 1791 
Q 2906 2416 2648 2759 
Q 2391 3103 1925 3103 
Q 1463 3103 1205 2759 
Q 947 2416 947 1791 
Q 947 1169 1205 825 
Q 1463 481 1925 481 
Q 2391 481 2648 825 
Q 2906 1169 2906 1791 
z
M 3481 434 
Q 3481 -459 3084 -895 
Q 2688 -1331 1869 -1331 
Q 1566 -1331 1297 -1286 
Q 1028 -1241 775 -1147 
L 775 -588 
Q 1028 -725 1275 -790 
Q 1522 -856 1778 -856 
Q 2344 -856 2625 -561 
Q 2906 -266 2906 331 
L 2906 616 
Q 2728 306 2450 153 
Q 2172 0 1784 0 
Q 1141 0 747 490 
Q 353 981 353 1791 
Q 353 2603 747 3093 
Q 1141 3584 1784 3584 
Q 2172 3584 2450 3431 
Q 2728 3278 2906 2969 
L 2906 3500 
L 3481 3500 
L 3481 434 
z
" transform="scale(0.015625)"/>
       <path id="DejaVuSans-20" transform="scale(0.015625)"/>
       <path id="DejaVuSans-52" d="M 2841 2188 
Q 3044 2119 3236 1894 
Q 3428 1669 3622 1275 
L 4263 0 
L 3584 0 
L 2988 1197 
Q 2756 1666 2539 1819 
Q 2322 1972 1947 1972 
L 1259 1972 
L 1259 0 
L 628 0 
L 628 4666 
L 2053 4666 
Q 2853 4666 3247 4331 
Q 3641 3997 3641 3322 
Q 3641 2881 3436 2590 
Q 3231 2300 2841 2188 
z
M 1259 4147 
L 1259 2491 
L 2053 2491 
Q 2509 2491 2742 2702 
Q 2975 2913 2975 3322 
Q 2975 3731 2742 3939 
Q 2509 4147 2053 4147 
L 1259 4147 
z
" transform="scale(0.015625)"/>
       <path id="DejaVuSans-77" d="M 269 3500 
L 844 3500 
L 1563 769 
L 2278 3500 
L 2956 3500 
L 3675 769 
L 4391 3500 
L 4966 3500 
L 4050 0 
L 3372 0 
L 2619 2869 
L 1863 0 
L 1184 0 
L 269 3500 
z
" transform="scale(0.015625)"/>
       <path id="DejaVuSans-64" d="M 2906 2969 
L 2906 4863 
L 3481 4863 
L 3481 0 
L 2906 0 
L 2906 525 
Q 2725 213 2448 61 
Q 2172 -91 1784 -91 
Q 1150 -91 751 415 
Q 353 922 353 1747 
Q 353 2572 751 3078 
Q 1150 3584 1784 3584 
Q 2172 3584 2448 3432 
Q 2725 3281 2906 2969 
z
M 947 1747 
Q 947 1113 1208 752 
Q 1469 391 1925 391 
Q 2381 391 2643 752 
Q 2906 1113 2906 1747 
Q 2906 2381 2643 2742 
Q 2381 3103 1925 3103 
Q 1469 3103 1208 2742 
Q 947 2381 947 1747 
z
" transform="scale(0.015625)"/>
      </defs>
      <use xlink:href="#DejaVuSans-41"/>
      <use xlink:href="#DejaVuSans-76" transform="translate(62.533203 0)"/>
      <use xlink:href="#DejaVuSans-65" transform="translate(121.712891 0)"/>
      <use xlink:href="#DejaVuSans-72" transform="translate(183.236328 0)"/>
      <use xlink:href="#DejaVuSans-61" transform="translate(224.349609 0)"/>
      <use xlink:href="#DejaVuSans-67" transform="translate(285.628906 0)"/>
      <use xlink:href="#DejaVuSans-65" transform="translate(349.105469 0)"/>
      <use xlink:href="#DejaVuSans-20" transform="translate(410.628906 0)"/>
      <use xlink:href="#DejaVuSans-52" transform="translate(442.416016 0)"/>
      <use xlink:href="#DejaVuSans-65" transform="translate(507.398438 0)"/>
      <use xlink:href="#DejaVuSans-77" transform="translate(568.921875 0)"/>
      <use xlink:href="#DejaVuSans-61" transform="translate(650.708984 0)"/>
      <use xlink:href="#DejaVuSans-72" transform="translate(711.988281 0)"/>
      <use xlink:href="#DejaVuSans-64" transform="translate(751.351562 0)"/>
     </g>
    </g>
   </g>
   <g id="line2d_23">
    <path d="M 103.827273 168.660595 
L 104.284275 209.299531 
L 104.741278 164.967827 
L 105.19828 250.306152 
L 105.655283 268.788772 
L 106.112285 271.776228 
L 106.569287 286.405315 
L 107.02629 307.8 
L 107.483292 265.194982 
L 107.940295 238.601954 
L 108.397297 173.90488 
L 108.8543 171.90664 
L 109.311302 113.989996 
L 109.768305 109.310557 
L 110.225307 74.934899 
L 110.68231 85.752894 
L 111.139312 119.184122 
L 111.596314 124.870055 
L 112.053317 127.344683 
L 112.510319 112.167687 
L 112.967322 110.170717 
L 113.424324 118.732841 
L 113.881327 123.224347 
L 114.338329 122.759864 
L 114.795332 116.814916 
L 115.252334 122.462443 
L 115.709337 133.232304 
L 116.166339 132.891293 
L 116.623342 124.259482 
L 117.537346 119.423271 
L 117.994349 120.740047 
L 118.451351 124.459709 
L 118.908354 118.785058 
L 119.365356 118.419791 
L 119.822359 103.123854 
L 120.279361 102.82952 
L 120.736364 105.430111 
L 121.650369 66.133421 
L 122.107371 63.43757 
L 122.564373 77.65178 
L 123.021376 75.461982 
L 123.478378 74.443793 
L 123.935381 76.463671 
L 124.849386 77.951386 
L 125.306388 78.270687 
L 126.677396 80.242926 
L 128.505405 82.510711 
L 130.333415 84.470999 
L 131.24742 85.354736 
L 131.704423 85.423737 
L 132.161425 86.049893 
L 132.618428 86.446379 
L 133.07543 87.212421 
L 133.532432 85.868587 
L 133.989435 86.636412 
L 134.446437 88.861474 
L 134.90344 94.270969 
L 135.360442 97.772513 
L 135.817445 105.090029 
L 136.274447 103.871317 
L 136.73145 110.422981 
L 137.188452 111.679913 
L 137.645455 107.210755 
L 138.102457 99.335972 
L 138.559459 95.998347 
L 139.016462 95.202997 
L 139.473464 105.328319 
L 139.930467 105.502662 
L 140.387469 114.202478 
L 140.844472 107.612795 
L 141.301474 114.343286 
L 141.758477 114.861306 
L 142.215479 113.52772 
L 142.672482 105.194465 
L 143.129484 106.970994 
L 143.586486 99.897791 
L 144.043489 105.267811 
L 144.500491 103.587516 
L 144.957494 98.913439 
L 145.414496 98.839054 
L 145.871499 105.819954 
L 146.328501 106.454143 
L 146.785504 106.794939 
L 147.242506 106.843168 
L 147.699509 107.138463 
L 148.156511 107.036354 
L 148.613514 106.3383 
L 149.070516 105.093668 
L 149.527518 102.856645 
L 149.984521 102.871202 
L 150.441523 103.524801 
L 150.898526 102.172205 
L 151.355528 104.739602 
L 151.812531 101.941647 
L 152.269533 95.220842 
L 152.726536 108.062585 
L 153.183538 109.754634 
L 153.640541 107.663517 
L 154.097543 113.993278 
L 154.554545 107.144519 
L 155.011548 104.447799 
L 155.46855 113.133889 
L 155.925553 105.943041 
L 156.382555 106.871452 
L 156.839558 112.052008 
L 157.29656 113.505331 
L 158.210565 118.196651 
L 158.667568 117.717899 
L 159.12457 114.253444 
L 159.581572 115.22329 
L 160.038575 114.799895 
L 160.495577 113.30951 
L 160.95258 109.013517 
L 161.409582 114.263961 
L 161.866585 114.34499 
L 162.323587 115.132173 
L 162.78059 124.335201 
L 163.237592 123.024484 
L 163.694595 132.98371 
L 164.151597 133.952396 
L 164.6086 140.958346 
L 165.065602 145.954268 
L 165.522604 144.123676 
L 165.979607 143.41063 
L 166.436609 139.964202 
L 166.893612 127.548477 
L 167.350614 136.627052 
L 167.807617 119.590273 
L 168.264619 114.774663 
L 168.721622 124.570493 
L 169.178624 127.252873 
L 169.635627 127.695085 
L 170.092629 124.20287 
L 170.549631 126.873897 
L 171.006634 123.585163 
L 171.463636 121.968647 
L 171.920639 125.1276 
L 172.377641 126.77024 
L 172.834644 126.422178 
L 173.291646 131.020672 
L 173.748649 138.373923 
L 174.205651 142.724695 
L 174.662654 146.010333 
L 175.119656 147.180596 
L 178.318673 145.648278 
L 178.775676 145.596308 
L 179.232678 144.961853 
L 180.603686 141.931571 
L 181.060688 142.963999 
L 181.51769 143.449909 
L 181.974693 140.196478 
L 182.431695 135.556696 
L 182.888698 132.380221 
L 183.3457 133.643422 
L 183.802703 128.657235 
L 184.259705 131.689956 
L 184.716708 133.872191 
L 185.17371 140.007633 
L 186.087715 131.672952 
L 186.544717 131.846952 
L 187.458722 139.158662 
L 187.915725 133.086346 
L 188.372727 125.414201 
L 188.82973 122.997733 
L 189.286732 116.735559 
L 189.743735 118.219252 
L 190.200737 123.001243 
L 190.65774 123.69564 
L 191.114742 120.83284 
L 191.571744 119.349833 
L 192.028747 113.709804 
L 192.485749 113.733805 
L 192.942752 117.270968 
L 193.856757 110.159296 
L 194.313759 114.800482 
L 194.770762 116.284321 
L 195.227764 125.584222 
L 195.684767 129.666912 
L 196.141769 132.437318 
L 196.598771 137.479848 
L 197.055774 136.88451 
L 197.512776 133.939153 
L 198.426781 130.278686 
L 198.883784 132.145546 
L 199.340786 134.590829 
L 199.797789 135.820872 
L 200.711794 136.462426 
L 201.168796 135.832073 
L 201.625799 134.856549 
L 202.082801 134.314956 
L 202.539803 133.023815 
L 202.996806 132.866511 
L 203.453808 133.395398 
L 203.910811 133.41551 
L 204.824816 134.237914 
L 205.281818 133.883727 
L 205.738821 133.259969 
L 206.195823 133.155492 
L 207.109828 132.789324 
L 212.593857 131.581537 
L 213.05086 131.705792 
L 214.421867 131.560134 
L 214.87887 131.506393 
L 215.335872 131.237717 
L 215.792875 130.418552 
L 216.249877 130.43657 
L 216.70688 131.496042 
L 217.163882 130.73424 
L 217.620885 131.795608 
L 218.077887 132.040911 
L 218.534889 131.018866 
L 218.991892 130.401895 
L 219.448894 130.672494 
L 219.905897 130.108834 
L 220.362899 131.749331 
L 220.819902 131.991754 
L 221.276904 130.787088 
L 221.733907 127.484563 
L 222.190909 123.075392 
L 222.647912 120.67666 
L 223.104914 115.712883 
L 223.561916 117.492765 
L 224.018919 112.111225 
L 224.475921 108.472718 
L 224.932924 107.258185 
L 225.389926 112.207712 
L 226.303931 103.909162 
L 226.760934 102.472584 
L 227.217936 104.732195 
L 227.674939 102.684126 
L 228.131941 95.706061 
L 228.588943 95.122693 
L 229.045946 100.564115 
L 229.502948 99.910495 
L 229.959951 98.607459 
L 230.416953 99.658529 
L 230.873956 94.04718 
L 231.787961 89.486375 
L 232.244963 89.957998 
L 232.701966 82.75562 
L 233.158968 85.430674 
L 233.615971 87.320394 
L 234.072973 85.749173 
L 234.529975 80.313031 
L 234.986978 81.174039 
L 235.44398 85.661931 
L 235.900983 83.047661 
L 236.357985 82.774895 
L 237.27199 89.390663 
L 237.728993 85.739319 
L 238.185995 94.388631 
L 239.1 98.953065 
L 240.014005 88.054282 
L 240.471007 88.057278 
L 240.92801 79.391032 
L 241.842015 76.311204 
L 242.299017 76.683169 
L 242.75602 70.668076 
L 243.670025 63.299012 
L 244.127027 61.903887 
L 244.584029 61.281825 
L 245.041032 61.052881 
L 245.498034 62.037884 
L 245.955037 66.932467 
L 246.412039 63.959409 
L 246.869042 69.526798 
L 247.326044 68.636135 
L 247.783047 64.99168 
L 248.240049 68.666913 
L 248.697052 73.781262 
L 249.154054 77.543212 
L 249.611057 79.905378 
L 250.068059 79.601705 
L 250.525061 81.714872 
L 250.982064 79.307182 
L 251.439066 79.761513 
L 251.896069 74.885609 
L 252.353071 74.101465 
L 252.810074 74.575925 
L 253.267076 75.548003 
L 253.724079 77.08115 
L 254.181081 77.190605 
L 254.638084 75.527487 
L 255.095086 78.262293 
L 256.009091 81.705602 
L 256.466093 82.584136 
L 256.923096 82.167307 
L 257.380098 81.943276 
L 257.837101 85.491431 
L 258.294103 86.706378 
L 258.751106 86.751301 
L 259.208108 86.173057 
L 259.665111 86.345314 
L 260.122113 87.110857 
L 263.32113 87.61309 
L 264.235135 87.740134 
L 264.692138 87.634791 
L 266.97715 88.373115 
L 267.434152 88.331366 
L 267.891155 89.226567 
L 268.348157 88.911624 
L 268.80516 88.81486 
L 269.262162 89.188713 
L 270.63317 89.325188 
L 272.461179 89.523258 
L 273.832187 89.505641 
L 274.289189 89.30531 
L 274.746192 88.92329 
L 275.203194 88.84838 
L 275.660197 88.202253 
L 276.117199 88.368304 
L 276.574201 87.98157 
L 277.031204 88.950065 
L 277.488206 88.712127 
L 277.945209 89.467802 
L 278.402211 88.439565 
L 279.316216 87.904837 
L 279.773219 88.552355 
L 280.230221 88.761307 
L 280.687224 87.28187 
L 281.144226 88.114786 
L 281.601229 88.700493 
L 282.058231 93.680433 
L 282.515233 90.536334 
L 282.972236 88.267898 
L 283.429238 82.083792 
L 283.886241 83.313467 
L 284.343243 82.439254 
L 284.800246 83.124724 
L 285.257248 82.944458 
L 286.171253 78.653937 
L 286.628256 80.938311 
L 287.085258 81.933274 
L 287.54226 80.706257 
L 287.999263 83.529062 
L 288.456265 81.476582 
L 288.913268 83.864769 
L 289.37027 84.30448 
L 289.827273 85.125093 
L 290.284275 84.674116 
L 290.741278 82.997328 
L 291.19828 84.174054 
L 291.655283 84.616201 
L 292.112285 85.330306 
L 293.02629 82.009436 
L 293.483292 82.912664 
L 293.940295 83.353465 
L 294.397297 82.961002 
L 294.8543 83.86437 
L 295.311302 84.073161 
L 295.768305 83.735203 
L 296.225307 83.655449 
L 296.68231 83.963204 
L 297.139312 83.753617 
L 297.596314 82.87587 
L 298.053317 83.231664 
L 298.510319 83.343777 
L 298.967322 82.428254 
L 299.424324 84.332011 
L 299.881327 83.80782 
L 300.338329 81.532078 
L 300.795332 83.859903 
L 301.252334 83.476531 
L 301.709337 84.58177 
L 302.166339 89.867645 
L 302.623342 90.091725 
L 303.080344 93.87761 
L 303.994349 97.882449 
L 304.451351 97.999059 
L 304.908354 100.438675 
L 305.365356 100.12857 
L 305.822359 100.018344 
L 306.279361 102.061713 
L 306.736364 100.524672 
L 307.193366 99.743647 
L 308.107371 100.970787 
L 308.564373 100.746733 
L 309.478378 103.036834 
L 309.935381 104.809655 
L 310.392383 105.053844 
L 310.849386 102.885586 
L 311.306388 106.17696 
L 311.763391 103.752579 
L 312.220393 105.243379 
L 312.677396 104.721931 
L 313.134398 105.199248 
L 313.5914 102.847229 
L 314.048403 105.741677 
L 314.505405 103.65867 
L 314.962408 102.499441 
L 315.41941 99.331403 
L 315.876413 99.038522 
L 316.333415 97.058378 
L 316.790418 99.298801 
L 317.24742 95.148491 
L 317.704423 93.185893 
L 318.161425 96.544349 
L 318.618428 96.847496 
L 319.07543 98.305734 
L 319.989435 96.005562 
L 320.446437 92.838174 
L 320.90344 91.889287 
L 321.360442 91.377213 
L 321.817445 88.794015 
L 322.274447 91.152553 
L 322.73145 89.470833 
L 323.645455 87.451106 
L 324.102457 85.797839 
L 324.559459 86.171415 
L 325.016462 88.379926 
L 325.473464 88.609221 
L 325.930467 88.465708 
L 326.387469 89.153653 
L 326.844472 89.265877 
L 327.301474 90.206845 
L 327.758477 91.791884 
L 328.215479 92.375602 
L 328.672482 91.782152 
L 329.586486 89.64481 
L 330.043489 90.247776 
L 330.500491 90.102114 
L 331.414496 87.968157 
L 331.871499 84.105798 
L 332.328501 83.631646 
L 332.785504 81.270459 
L 333.242506 83.936578 
L 333.699509 83.958017 
L 334.156511 80.077712 
L 334.613514 82.433682 
L 335.984521 83.407206 
L 336.441523 84.576608 
L 336.898526 84.042991 
L 338.269533 81.536418 
L 338.726536 80.983978 
L 339.183538 80.960983 
L 339.640541 78.751152 
L 340.097543 81.422095 
L 340.554545 79.444068 
L 341.011548 78.647395 
L 341.46855 76.497411 
L 341.925553 75.362929 
L 342.382555 75.42217 
L 342.839558 73.050312 
L 343.29656 73.174351 
L 344.210565 77.693928 
L 345.12457 73.607176 
L 345.581572 69.933189 
L 346.038575 72.431898 
L 346.495577 68.171798 
L 346.95258 65.603421 
L 347.409582 66.854772 
L 347.866585 63.1195 
L 348.323587 65.55522 
L 348.78059 65.101593 
L 349.237592 62.356559 
L 349.694595 64.577272 
L 350.151597 64.597509 
L 350.6086 62.263797 
L 351.065602 58.757408 
L 351.522604 57.208443 
L 352.436609 55.8 
L 352.893612 58.164119 
L 353.350614 59.130873 
L 353.807617 66.728184 
L 354.264619 68.868726 
L 354.721622 67.828189 
L 355.178624 67.235517 
L 355.635627 66.31567 
L 356.092629 67.463045 
L 356.549631 70.338261 
L 357.006634 70.946999 
L 357.463636 74.742853 
L 357.920639 74.330585 
L 358.377641 74.995285 
L 359.291646 74.651922 
L 359.748649 73.962121 
L 360.205651 74.07649 
L 361.119656 77.739701 
L 361.576658 76.396924 
L 362.033661 75.875388 
L 362.947666 79.404875 
L 363.404668 80.356792 
L 363.861671 80.724827 
L 364.318673 80.323137 
L 364.775676 78.949482 
L 365.232678 78.953293 
L 365.689681 77.785378 
L 366.146683 79.661917 
L 366.603686 76.260533 
L 367.060688 76.404768 
L 367.51769 75.222464 
L 367.974693 76.355441 
L 368.431695 76.041269 
L 368.888698 77.980285 
L 369.3457 81.000077 
L 369.802703 81.352921 
L 370.259705 81.551312 
L 370.716708 82.027379 
L 371.17371 82.094438 
L 371.630713 81.788494 
L 372.087715 81.839885 
L 372.544717 81.316701 
L 373.00172 81.081643 
L 373.915725 79.034708 
L 374.372727 79.202489 
L 374.82973 78.338287 
L 375.286732 78.024136 
L 375.743735 78.475683 
L 376.200737 79.755479 
L 377.114742 80.478993 
L 381.227764 81.043575 
L 381.684767 80.843423 
L 382.141769 80.229651 
L 383.055774 78.433219 
L 383.512776 78.311586 
L 384.426781 79.059613 
L 384.883784 80.085188 
L 385.797789 79.128506 
L 386.254791 80.326091 
L 386.711794 82.478363 
L 387.168796 83.555548 
L 387.625799 84.309943 
L 388.082801 82.926485 
L 388.539803 83.739296 
L 389.453808 82.670931 
L 389.910811 82.974648 
L 390.367813 82.932365 
L 391.281818 84.001514 
L 391.738821 84.244062 
L 392.195823 84.004681 
L 393.109828 84.034271 
L 394.023833 84.104782 
L 394.480835 84.015763 
L 394.937838 84.540345 
L 395.39484 84.567867 
L 395.851843 85.077609 
L 396.308845 84.93704 
L 396.765848 84.15438 
L 397.22285 83.821111 
L 397.679853 84.197562 
L 398.593857 84.360221 
L 405.905897 85.064276 
L 407.733907 85.156786 
L 412.303931 85.567551 
L 415.502948 85.92136 
L 415.959951 85.632286 
L 416.416953 85.939745 
L 416.873956 85.950238 
L 417.330958 85.838575 
L 418.244963 85.878179 
L 419.158968 85.565285 
L 419.615971 84.416281 
L 420.072973 84.438219 
L 420.529975 84.887201 
L 421.900983 85.200787 
L 422.814988 85.347488 
L 424.185995 85.499497 
L 425.1 85.726527 
L 425.557002 85.628487 
L 426.014005 85.996514 
L 426.471007 86.619397 
L 426.92801 86.586154 
L 427.385012 86.756342 
L 427.842015 85.464533 
L 428.299017 85.531796 
L 428.75602 85.719324 
L 429.213022 86.601454 
L 430.127027 87.103367 
L 430.584029 87.462508 
L 431.041032 88.107912 
L 431.498034 88.419165 
L 431.955037 88.569653 
L 432.869042 87.147981 
L 433.783047 87.341416 
L 434.240049 89.662854 
L 434.697052 91.351537 
L 435.154054 90.392653 
L 435.611057 90.617048 
L 436.068059 90.246319 
L 436.525061 89.491807 
L 436.982064 89.237524 
L 437.896069 87.864472 
L 438.810074 90.263717 
L 439.267076 90.854038 
L 439.724079 91.230295 
L 440.181081 91.194919 
L 441.095086 88.968103 
L 441.552088 90.953712 
L 442.009091 90.252504 
L 442.466093 90.682541 
L 442.923096 91.938663 
L 443.380098 92.588133 
L 443.837101 92.584926 
L 444.294103 92.877633 
L 445.208108 93.002623 
L 446.122113 93.009634 
L 446.579115 93.174628 
L 447.49312 92.848707 
L 447.950123 93.036065 
L 448.407125 93.514573 
L 449.32113 93.630641 
L 449.778133 94.181165 
L 451.14914 94.284362 
L 451.606143 94.126399 
L 452.063145 93.77432 
L 452.520147 93.699119 
L 452.97715 94.252823 
L 453.434152 93.944868 
L 454.80516 94.214775 
L 455.262162 93.802331 
L 455.719165 94.008549 
L 458.461179 94.081365 
L 458.918182 93.640361 
L 459.375184 94.09381 
L 460.289189 92.959917 
L 460.746192 94.13824 
L 461.660197 93.600941 
L 462.117199 92.756434 
L 462.574201 94.312832 
L 463.031204 94.594932 
L 464.402211 97.365231 
L 464.859214 99.082486 
L 465.316216 97.574187 
L 465.773219 98.041248 
L 466.230221 99.102472 
L 466.687224 98.216173 
L 467.144226 96.145341 
L 467.601229 95.727128 
L 468.058231 96.263525 
L 468.515233 97.892028 
L 468.972236 97.796128 
L 469.429238 99.391276 
L 469.886241 98.743798 
L 470.343243 98.538751 
L 470.800246 97.679815 
L 471.714251 98.648273 
L 472.171253 98.271808 
L 472.628256 99.268388 
L 473.085258 101.395042 
L 473.54226 101.854409 
L 473.999263 102.072811 
L 474.456265 102.496741 
L 475.37027 104.267635 
L 475.827273 104.56535 
L 476.284275 103.416267 
L 476.741278 103.606788 
L 477.19828 103.015669 
L 477.655283 102.968925 
L 478.112285 102.783085 
L 479.02629 104.293381 
L 479.483292 104.32757 
L 480.8543 104.690409 
L 481.311302 104.733281 
L 482.225307 106.624513 
L 483.596314 107.436891 
L 484.510319 107.341021 
L 484.967322 107.473543 
L 488.623342 107.466089 
L 504.161425 107.720704 
L 505.07543 108.058407 
L 505.532432 107.948128 
L 506.446437 105.167729 
L 507.360442 100.313553 
L 507.817445 100.104594 
L 508.274447 98.700363 
L 508.73145 99.872294 
L 509.188452 100.593162 
L 509.645455 99.916974 
L 510.102457 99.825038 
L 510.559459 97.770543 
L 511.016462 98.753122 
L 511.473464 95.571758 
L 511.930467 95.988768 
L 512.387469 96.907243 
L 512.844472 95.287115 
L 513.301474 95.286835 
L 513.758477 97.455969 
L 514.215479 96.385959 
L 514.672482 97.956254 
L 515.129484 98.16862 
L 515.586486 95.872992 
L 516.043489 95.884943 
L 516.500491 94.239377 
L 516.957494 94.119071 
L 517.414496 94.33905 
L 517.871499 96.596111 
L 518.328501 100.195138 
L 518.785504 101.255417 
L 519.242506 100.427647 
L 519.699509 102.903996 
L 520.156511 104.110969 
L 520.613514 104.707803 
L 521.070516 103.012266 
L 521.527518 103.18699 
L 521.984521 101.810053 
L 522.441523 101.490829 
L 522.898526 101.452061 
L 523.812531 102.586377 
L 524.269533 102.045956 
L 524.726536 103.45182 
L 525.183538 103.425212 
L 525.640541 103.650692 
L 526.097543 103.459635 
L 527.011548 103.541405 
L 537.522604 103.839506 
L 537.979607 103.868665 
L 538.436609 103.713103 
L 539.350614 103.670236 
L 540.264619 102.130606 
L 540.721622 101.165824 
L 541.178624 100.591458 
L 541.635627 101.280985 
L 542.092629 101.098957 
L 542.549631 100.500433 
L 543.006634 99.69454 
L 543.463636 97.389639 
L 543.920639 97.555808 
L 544.377641 98.014961 
L 544.834644 98.067975 
L 545.291646 97.692887 
L 545.748649 97.923033 
L 546.205651 97.278302 
L 546.662654 97.328494 
L 547.576658 98.382039 
L 548.033661 97.986195 
L 548.490663 99.98426 
L 548.947666 100.803692 
L 549.404668 99.216243 
L 549.861671 100.87126 
L 550.318673 101.655816 
L 550.775676 103.534187 
L 551.232678 103.587194 
L 551.689681 102.8792 
L 552.146683 102.81215 
L 552.603686 101.485281 
L 553.060688 102.457335 
L 553.51769 104.755857 
L 553.974693 105.241644 
L 554.431695 103.666578 
L 554.888698 102.509222 
L 555.3457 102.117172 
L 555.802703 100.804636 
L 556.259705 100.313071 
L 556.716708 99.606046 
L 557.17371 100.063111 
L 557.630713 100.953817 
L 558.087715 99.883239 
L 559.00172 99.041679 
L 559.458722 98.039182 
L 559.915725 95.140516 
L 560.372727 93.637946 
L 560.372727 93.637946 
" clip-path="url(#pf2e44b3a2f)" style="fill: none; stroke: #800080; stroke-width: 1.5; stroke-linecap: square"/>
   </g>
   <g id="patch_3">
    <path d="M 81 320.4 
L 81 43.2 
" style="fill: none; stroke: #000000; stroke-width: 0.8; stroke-linejoin: miter; stroke-linecap: square"/>
   </g>
   <g id="patch_4">
    <path d="M 583.2 320.4 
L 583.2 43.2 
" style="fill: none; stroke: #000000; stroke-width: 0.8; stroke-linejoin: miter; stroke-linecap: square"/>
   </g>
   <g id="patch_5">
    <path d="M 81 320.4 
L 583.2 320.4 
" style="fill: none; stroke: #000000; stroke-width: 0.8; stroke-linejoin: miter; stroke-linecap: square"/>
   </g>
   <g id="patch_6">
    <path d="M 81 43.2 
L 583.2 43.2 
" style="fill: none; stroke: #000000; stroke-width: 0.8; stroke-linejoin: miter; stroke-linecap: square"/>
   </g>
   <g id="text_14">
    <!-- Average Reward Over Time -->
    <g transform="translate(250.281563 23.762625) scale(0.12 -0.12)">
     <defs>
      <path id="DejaVuSans-4f" d="M 2522 4238 
Q 1834 4238 1429 3725 
Q 1025 3213 1025 2328 
Q 1025 1447 1429 934 
Q 1834 422 2522 422 
Q 3209 422 3611 934 
Q 4013 1447 4013 2328 
Q 4013 3213 3611 3725 
Q 3209 4238 2522 4238 
z
M 2522 4750 
Q 3503 4750 4090 4092 
Q 4678 3434 4678 2328 
Q 4678 1225 4090 567 
Q 3503 -91 2522 -91 
Q 1538 -91 948 565 
Q 359 1222 359 2328 
Q 359 3434 948 4092 
Q 1538 4750 2522 4750 
z
" transform="scale(0.015625)"/>
     </defs>
     <use xlink:href="#DejaVuSans-41"/>
     <use xlink:href="#DejaVuSans-76" transform="translate(62.533203 0)"/>
     <use xlink:href="#DejaVuSans-65" transform="translate(121.712891 0)"/>
     <use xlink:href="#DejaVuSans-72" transform="translate(183.236328 0)"/>
     <use xlink:href="#DejaVuSans-61" transform="translate(224.349609 0)"/>
     <use xlink:href="#DejaVuSans-67" transform="translate(285.628906 0)"/>
     <use xlink:href="#DejaVuSans-65" transform="translate(349.105469 0)"/>
     <use xlink:href="#DejaVuSans-20" transform="translate(410.628906 0)"/>
     <use xlink:href="#DejaVuSans-52" transform="translate(442.416016 0)"/>
     <use xlink:href="#DejaVuSans-65" transform="translate(507.398438 0)"/>
     <use xlink:href="#DejaVuSans-77" transform="translate(568.921875 0)"/>
     <use xlink:href="#DejaVuSans-61" transform="translate(650.708984 0)"/>
     <use xlink:href="#DejaVuSans-72" transform="translate(711.988281 0)"/>
     <use xlink:href="#DejaVuSans-64" transform="translate(751.351562 0)"/>
     <use xlink:href="#DejaVuSans-20" transform="translate(814.828125 0)"/>
     <use xlink:href="#DejaVuSans-4f" transform="translate(846.615234 0)"/>
     <use xlink:href="#DejaVuSans-76" transform="translate(925.326172 0)"/>
     <use xlink:href="#DejaVuSans-65" transform="translate(984.505859 0)"/>
     <use xlink:href="#DejaVuSans-72" transform="translate(1046.029297 0)"/>
     <use xlink:href="#DejaVuSans-20" transform="translate(1087.142578 0)"/>
     <use xlink:href="#DejaVuSans-54" transform="translate(1118.929688 0)"/>
     <use xlink:href="#DejaVuSans-69" transform="translate(1176.888672 0)"/>
     <use xlink:href="#DejaVuSans-6d" transform="translate(1204.671875 0)"/>
     <use xlink:href="#DejaVuSans-65" transform="translate(1302.083984 0)"/>
    </g>
    <!-- Policy:  -->
    <g transform="translate(311.35125 37.2) scale(0.12 -0.12)">
     <defs>
      <path id="DejaVuSans-50" d="M 1259 4147 
L 1259 2394 
L 2053 2394 
Q 2494 2394 2734 2622 
Q 2975 2850 2975 3272 
Q 2975 3691 2734 3919 
Q 2494 4147 2053 4147 
L 1259 4147 
z
M 628 4666 
L 2053 4666 
Q 2838 4666 3239 4311 
Q 3641 3956 3641 3272 
Q 3641 2581 3239 2228 
Q 2838 1875 2053 1875 
L 1259 1875 
L 1259 0 
L 628 0 
L 628 4666 
z
" transform="scale(0.015625)"/>
      <path id="DejaVuSans-6f" d="M 1959 3097 
Q 1497 3097 1228 2736 
Q 959 2375 959 1747 
Q 959 1119 1226 758 
Q 1494 397 1959 397 
Q 2419 397 2687 759 
Q 2956 1122 2956 1747 
Q 2956 2369 2687 2733 
Q 2419 3097 1959 3097 
z
M 1959 3584 
Q 2709 3584 3137 3096 
Q 3566 2609 3566 1747 
Q 3566 888 3137 398 
Q 2709 -91 1959 -91 
Q 1206 -91 779 398 
Q 353 888 353 1747 
Q 353 2609 779 3096 
Q 1206 3584 1959 3584 
z
" transform="scale(0.015625)"/>
      <path id="DejaVuSans-6c" d="M 603 4863 
L 1178 4863 
L 1178 0 
L 603 0 
L 603 4863 
z
" transform="scale(0.015625)"/>
      <path id="DejaVuSans-63" d="M 3122 3366 
L 3122 2828 
Q 2878 2963 2633 3030 
Q 2388 3097 2138 3097 
Q 1578 3097 1268 2742 
Q 959 2388 959 1747 
Q 959 1106 1268 751 
Q 1578 397 2138 397 
Q 2388 397 2633 464 
Q 2878 531 3122 666 
L 3122 134 
Q 2881 22 2623 -34 
Q 2366 -91 2075 -91 
Q 1284 -91 818 406 
Q 353 903 353 1747 
Q 353 2603 823 3093 
Q 1294 3584 2113 3584 
Q 2378 3584 2631 3529 
Q 2884 3475 3122 3366 
z
" transform="scale(0.015625)"/>
      <path id="DejaVuSans-79" d="M 2059 -325 
Q 1816 -950 1584 -1140 
Q 1353 -1331 966 -1331 
L 506 -1331 
L 506 -850 
L 844 -850 
Q 1081 -850 1212 -737 
Q 1344 -625 1503 -206 
L 1606 56 
L 191 3500 
L 800 3500 
L 1894 763 
L 2988 3500 
L 3597 3500 
L 2059 -325 
z
" transform="scale(0.015625)"/>
      <path id="DejaVuSans-3a" d="M 750 794 
L 1409 794 
L 1409 0 
L 750 0 
L 750 794 
z
M 750 3309 
L 1409 3309 
L 1409 2516 
L 750 2516 
L 750 3309 
z
" transform="scale(0.015625)"/>
     </defs>
     <use xlink:href="#DejaVuSans-50"/>
     <use xlink:href="#DejaVuSans-6f" transform="translate(56.677734 0)"/>
     <use xlink:href="#DejaVuSans-6c" transform="translate(117.859375 0)"/>
     <use xlink:href="#DejaVuSans-69" transform="translate(145.642578 0)"/>
     <use xlink:href="#DejaVuSans-63" transform="translate(173.425781 0)"/>
     <use xlink:href="#DejaVuSans-79" transform="translate(228.40625 0)"/>
     <use xlink:href="#DejaVuSans-3a" transform="translate(280.335938 0)"/>
     <use xlink:href="#DejaVuSans-20" transform="translate(314.027344 0)"/>
    </g>
   </g>
   <g id="legend_1">
    <g id="patch_7">
     <path d="M 462.714063 65.878125 
L 576.2 65.878125 
Q 578.2 65.878125 578.2 63.878125 
L 578.2 50.2 
Q 578.2 48.2 576.2 48.2 
L 462.714063 48.2 
Q 460.714063 48.2 460.714063 50.2 
L 460.714063 63.878125 
Q 460.714063 65.878125 462.714063 65.878125 
z
" style="fill: #ffffff; opacity: 0.8; stroke: #cccccc; stroke-linejoin: miter"/>
    </g>
    <g id="line2d_24">
     <path d="M 464.714063 56.298437 
L 474.714063 56.298437 
L 484.714063 56.298437 
" style="fill: none; stroke: #800080; stroke-width: 1.5; stroke-linecap: square"/>
    </g>
    <g id="text_15">
     <!-- Average Reward -->
     <g transform="translate(492.714063 59.798437) scale(0.1 -0.1)">
      <use xlink:href="#DejaVuSans-41"/>
      <use xlink:href="#DejaVuSans-76" transform="translate(62.533203 0)"/>
      <use xlink:href="#DejaVuSans-65" transform="translate(121.712891 0)"/>
      <use xlink:href="#DejaVuSans-72" transform="translate(183.236328 0)"/>
      <use xlink:href="#DejaVuSans-61" transform="translate(224.349609 0)"/>
      <use xlink:href="#DejaVuSans-67" transform="translate(285.628906 0)"/>
      <use xlink:href="#DejaVuSans-65" transform="translate(349.105469 0)"/>
      <use xlink:href="#DejaVuSans-20" transform="translate(410.628906 0)"/>
      <use xlink:href="#DejaVuSans-52" transform="translate(442.416016 0)"/>
      <use xlink:href="#DejaVuSans-65" transform="translate(507.398438 0)"/>
      <use xlink:href="#DejaVuSans-77" transform="translate(568.921875 0)"/>
      <use xlink:href="#DejaVuSans-61" transform="translate(650.708984 0)"/>
      <use xlink:href="#DejaVuSans-72" transform="translate(711.988281 0)"/>
      <use xlink:href="#DejaVuSans-64" transform="translate(751.351562 0)"/>
     </g>
    </g>
   </g>
  </g>
 </g>
 <defs>
  <clipPath id="pf2e44b3a2f">
   <rect x="81" y="43.2" width="502.2" height="277.2"/>
  </clipPath>
 </defs>
</svg>
